<svg xmlns="http://www.w3.org/2000/svg" xmlns:xlink="http://www.w3.org/1999/xlink" width="192" height="192" viewBox="0 0 192 192"><defs><style>.cls-1{fill:none;}.cls-2{opacity:0.01;}.cls-3{opacity:0.02;}.cls-4{opacity:0.04;}.cls-5{opacity:0.06;}.cls-6{fill:#f5f5f5;}.cls-7{fill:url(#未命名的渐变_6);}.cls-8{fill:url(#未命名的渐变_12);}.cls-9{fill:url(#未命名的渐变_27);}.cls-10{fill:url(#未命名的渐变_42);}.cls-11,.cls-12{fill:#fff;}.cls-12{opacity:0.4;}.cls-13{fill:url(#未命名的渐变_42-2);}.cls-14{fill:url(#未命名的渐变_14);}.cls-15{fill:#ef4b18;}</style><linearGradient id="未命名的渐变_6" x1="166.005" y1="166.003" x2="25.997" y2="25.995" gradientUnits="userSpaceOnUse"><stop offset="0" stop-opacity="0.12"/><stop offset="0.5" stop-color="gray" stop-opacity="0.05"/><stop offset="1" stop-color="#fff" stop-opacity="0.15"/></linearGradient><linearGradient id="未命名的渐变_12" x1="166.005" y1="166.003" x2="25.997" y2="25.995" gradientUnits="userSpaceOnUse"><stop offset="0" stop-opacity="0.04"/><stop offset="0.5" stop-color="gray" stop-opacity="0"/><stop offset="1" stop-color="#fff" stop-opacity="0.1"/></linearGradient><linearGradient id="未命名的渐变_27" x1="96" y1="96" x2="96" y2="6" gradientUnits="userSpaceOnUse"><stop offset="0" stop-opacity="0.08"/><stop offset="0.15" stop-opacity="0.06"/><stop offset="0.99" stop-opacity="0"/></linearGradient><linearGradient id="未命名的渐变_42" x1="57.14" y1="-40.685" x2="110.56" y2="-40.685" gradientTransform="translate(0 98)" gradientUnits="userSpaceOnUse"><stop offset="0" stop-opacity="0.12"/><stop offset="0.8" stop-opacity="0"/></linearGradient><linearGradient id="未命名的渐变_42-2" x1="129.14" y1="-40.685" x2="182.56" y2="-40.685" xlink:href="#未命名的渐变_42"/><linearGradient id="未命名的渐变_14" x1="160.525" y1="171.476" x2="68.525" y2="79.475" gradientUnits="userSpaceOnUse"><stop offset="0" stop-opacity="0"/><stop offset="1" stop-opacity="0.12"/></linearGradient></defs><title>android_calendar_d2</title><g id="图层_2" data-name="图层 2"><g id="图层_1-2" data-name="图层 1"><rect class="cls-1" width="192" height="192"/><circle class="cls-2" cx="96" cy="97" r="93"/><circle class="cls-3" cx="96" cy="97" r="92"/><circle class="cls-4" cx="96" cy="97" r="91"/><path class="cls-5" d="M186,97c0,66.672-23.317,90-90,90S6,163.674,6,97,29.321,7,96,7,186,30.323,186,97Z"/><path class="cls-6" d="M186,96c0,66.672-23.317,90-90,90S6,162.674,6,96,29.321,6,96,6,186,29.323,186,96Z"/><path class="cls-7" d="M186,96c0,66.672-23.317,90-90,90S6,162.674,6,96,29.321,6,96,6,186,29.323,186,96Z"/><path class="cls-8" d="M96,6C29.321,6,6,29.323,6,96s23.321,90,90,90,90-23.328,90-90S162.683,6,96,6Zm68.592,158.588C151.168,178.013,130.014,184,96,184s-55.166-5.986-68.59-19.411S8,130.011,8,96s5.986-55.166,19.41-68.589S61.988,8,96,8s55.168,5.986,68.592,19.411S184,61.987,184,96,178.014,151.164,164.592,164.588Z"/><path class="cls-9" d="M96,6C29.321,6,6,29.323,6,96H186C186,29.323,162.683,6,96,6Z"/><polygon class="cls-10" points="63.48 30.64 57.14 36.98 104.14 83.99 110.56 77.56 63.48 30.64"/><circle class="cls-11" cx="60" cy="33.5" r="4.5"/><circle class="cls-12" cx="60" cy="33.5" r="4.5"/><polygon class="cls-13" points="135.48 30.64 129.14 36.98 176.14 83.99 182.56 77.56 135.48 30.64"/><circle class="cls-11" cx="132" cy="33.5" r="4.5"/><circle class="cls-12" cx="132" cy="33.5" r="4.5"/><g id="_0X" data-name="0X"><g id="_2" data-name="2"><path class="cls-14" d="M182.5,133.5,115,66,72,76l25,25,3,1L71.375,142.277l43.69,42.969C154.589,181.864,174.959,166.721,182.5,133.5Z"/><path id="_2-2" data-name="2" class="cls-15" d="M72.7,142.781a2.02,2.02,0,0,1-2.02-2.02v-1.81a45.365,45.365,0,0,1,1.368-11.546,36.034,36.034,0,0,1,4.193-9.765,47.9,47.9,0,0,1,6.908-8.623,95.946,95.946,0,0,1,9.476-8.207C94.915,99.035,97,97.33,98.8,95.749a34.706,34.706,0,0,0,4.382-4.538,17,17,0,0,0,2.531-4.344,13.007,13.007,0,0,0,.827-4.7,10.326,10.326,0,0,0-2.647-7.244c-1.7-1.884-4.588-2.841-8.569-2.841a16.3,16.3,0,0,0-5.435.847,20.859,20.859,0,0,0-4.381,2.109,18.507,18.507,0,0,0-3.266,2.648,30.243,30.243,0,0,0-2.382,2.751,2.022,2.022,0,0,1-1.4.8c-.073.007-.146.011-.219.011a2.017,2.017,0,0,1-1.317-.488l-6.449-5.543a2.021,2.021,0,0,1-.364-2.652,31.679,31.679,0,0,1,3.383-4.115,28.357,28.357,0,0,1,5.48-4.392,33.813,33.813,0,0,1,7.459-3.434A30.722,30.722,0,0,1,96,59.219a30.584,30.584,0,0,1,11.265,1.895,22.774,22.774,0,0,1,7.936,5.1,19.757,19.757,0,0,1,4.594,7.367,25.015,25.015,0,0,1,1.414,8.244,23.682,23.682,0,0,1-1.553,8.653,29.746,29.746,0,0,1-4.125,7.283,48.116,48.116,0,0,1-5.786,6.26c-2.115,1.921-4.347,3.785-6.635,5.538-2.805,2.141-5.309,4.215-7.446,6.166a51.41,51.41,0,0,0-5.386,5.656,26.981,26.981,0,0,0-3.423,5.364,16.876,16.876,0,0,0-1.125,3.173h34.477a2.02,2.02,0,0,1,2.02,2.02v8.822a2.02,2.02,0,0,1-2.02,2.02Z"/></g></g></g></g></svg>