<svg xmlns="http://www.w3.org/2000/svg" xmlns:xlink="http://www.w3.org/1999/xlink" width="192" height="192" viewBox="0 0 192 192"><defs><style>.cls-1{fill:none;}.cls-2{opacity:0.01;}.cls-3{opacity:0.02;}.cls-4{opacity:0.04;}.cls-5{opacity:0.06;}.cls-6{fill:#f5f5f5;}.cls-7{fill:url(#未命名的渐变_6);}.cls-8{fill:url(#未命名的渐变_12);}.cls-9{fill:url(#未命名的渐变_27);}.cls-10{fill:url(#未命名的渐变_42);}.cls-11,.cls-12{fill:#fff;}.cls-12{opacity:0.4;}.cls-13{fill:url(#未命名的渐变_42-2);}.cls-14{fill:url(#未命名的渐变_22);}.cls-15{fill:#ef4b18;}</style><linearGradient id="未命名的渐变_6" x1="166.005" y1="166.003" x2="25.997" y2="25.995" gradientUnits="userSpaceOnUse"><stop offset="0" stop-opacity="0.12"/><stop offset="0.5" stop-color="gray" stop-opacity="0.05"/><stop offset="1" stop-color="#fff" stop-opacity="0.15"/></linearGradient><linearGradient id="未命名的渐变_12" x1="166.005" y1="166.003" x2="25.997" y2="25.995" gradientUnits="userSpaceOnUse"><stop offset="0" stop-opacity="0.04"/><stop offset="0.5" stop-color="gray" stop-opacity="0"/><stop offset="1" stop-color="#fff" stop-opacity="0.1"/></linearGradient><linearGradient id="未命名的渐变_27" x1="96" y1="96" x2="96" y2="6" gradientUnits="userSpaceOnUse"><stop offset="0" stop-opacity="0.08"/><stop offset="0.15" stop-opacity="0.06"/><stop offset="0.99" stop-opacity="0"/></linearGradient><linearGradient id="未命名的渐变_42" x1="57.14" y1="-40.685" x2="110.56" y2="-40.685" gradientTransform="translate(0 98)" gradientUnits="userSpaceOnUse"><stop offset="0" stop-opacity="0.12"/><stop offset="0.8" stop-opacity="0"/></linearGradient><linearGradient id="未命名的渐变_42-2" x1="129.14" y1="-40.685" x2="182.56" y2="-40.685" xlink:href="#未命名的渐变_42"/><linearGradient id="未命名的渐变_22" x1="163.582" y1="168.42" x2="77.581" y2="82.419" gradientUnits="userSpaceOnUse"><stop offset="0" stop-opacity="0"/><stop offset="1" stop-opacity="0.12"/></linearGradient></defs><title>android_calendar_d5</title><g id="图层_2" data-name="图层 2"><g id="图层_1-2" data-name="图层 1"><rect class="cls-1" width="192" height="192"/><circle class="cls-2" cx="96" cy="97" r="93"/><circle class="cls-3" cx="96" cy="97" r="92"/><circle class="cls-4" cx="96" cy="97" r="91"/><path class="cls-5" d="M186,97c0,66.672-23.317,90-90,90S6,163.674,6,97,29.321,7,96,7,186,30.323,186,97Z"/><path class="cls-6" d="M186,96c0,66.672-23.317,90-90,90S6,162.674,6,96,29.321,6,96,6,186,29.323,186,96Z"/><path class="cls-7" d="M186,96c0,66.672-23.317,90-90,90S6,162.674,6,96,29.321,6,96,6,186,29.323,186,96Z"/><path class="cls-8" d="M96,6C29.321,6,6,29.323,6,96s23.321,90,90,90,90-23.328,90-90S162.683,6,96,6Zm68.592,158.588C151.168,178.013,130.014,184,96,184s-55.166-5.986-68.59-19.411S8,130.011,8,96s5.986-55.166,19.41-68.589S61.988,8,96,8s55.168,5.986,68.592,19.411S184,61.987,184,96,178.014,151.164,164.592,164.588Z"/><path class="cls-9" d="M96,6C29.321,6,6,29.323,6,96H186C186,29.323,162.683,6,96,6Z"/><polygon class="cls-10" points="63.48 30.64 57.14 36.98 104.14 83.99 110.56 77.56 63.48 30.64"/><circle class="cls-11" cx="60" cy="33.5" r="4.5"/><circle class="cls-12" cx="60" cy="33.5" r="4.5"/><polygon class="cls-13" points="135.48 30.64 129.14 36.98 176.14 83.99 182.56 77.56 135.48 30.64"/><circle class="cls-11" cx="132" cy="33.5" r="4.5"/><circle class="cls-12" cx="132" cy="33.5" r="4.5"/><g id="_0X" data-name="0X"><g id="_5" data-name="5"><path class="cls-14" d="M116.153,185.153c42.083-3.865,62.121-21.377,67.964-60.361L119.208,59.883,89,71,74.162,99.162,103,128l2,1L70,139Z"/><path id="_5-2" data-name="5" class="cls-15" d="M91.362,142.781a67.264,67.264,0,0,1-12.486-1,56.634,56.634,0,0,1-8.107-2.062,2.021,2.021,0,0,1-1.263-2.441l2.263-8.144a2.02,2.02,0,0,1,2.488-1.406c1.286.358,3.263.782,5.875,1.26a62.73,62.73,0,0,0,10.665.7c5.22,0,9.467-1.328,12.624-3.947,3.086-2.561,4.586-6.271,4.586-11.34a20.552,20.552,0,0,0-.67-5.149,12.124,12.124,0,0,0-2.184-4.413,10.994,10.994,0,0,0-4.12-3.142,16.467,16.467,0,0,0-6.842-1.226,19.053,19.053,0,0,0-7.045,1.095,37.746,37.746,0,0,0-4.715,2.246,2.016,2.016,0,0,1-2.2-.1l-5.543-3.959a2.019,2.019,0,0,1-.832-1.884L78.271,61a2.019,2.019,0,0,1,2.006-1.779H117.72a2.02,2.02,0,0,1,2.02,2.02v8.936a2.021,2.021,0,0,1-2.02,2.02H89.481l-1.96,17.127q.487-.137,1.072-.289a34.033,34.033,0,0,1,8.312-.856A31.543,31.543,0,0,1,107,89.754,22.167,22.167,0,0,1,115.2,94.61a22.7,22.7,0,0,1,5.412,8.249,31.487,31.487,0,0,1,1.951,11.546,29.454,29.454,0,0,1-2.067,10.987,26.008,26.008,0,0,1-6.069,9.071,28.743,28.743,0,0,1-9.786,6.09A36.931,36.931,0,0,1,91.362,142.781Z"/></g></g></g></g></svg>