<svg xmlns="http://www.w3.org/2000/svg" xmlns:xlink="http://www.w3.org/1999/xlink" width="192" height="192" viewBox="0 0 192 192"><defs><style>.cls-1{fill:none;}.cls-2{opacity:0.01;}.cls-3{opacity:0.02;}.cls-4{opacity:0.04;}.cls-5{opacity:0.06;}.cls-6{fill:#f5f5f5;}.cls-7{fill:url(#未命名的渐变_6);}.cls-8{fill:url(#未命名的渐变_12);}.cls-9{fill:url(#未命名的渐变_27);}.cls-10{fill:url(#未命名的渐变_42);}.cls-11,.cls-12{fill:#fff;}.cls-12{opacity:0.4;}.cls-13{fill:url(#未命名的渐变_42-2);}.cls-14{fill:url(#未命名的渐变_24);}.cls-15{fill:#ef4b18;}</style><linearGradient id="未命名的渐变_6" x1="166.005" y1="166.003" x2="25.997" y2="25.995" gradientUnits="userSpaceOnUse"><stop offset="0" stop-opacity="0.12"/><stop offset="0.5" stop-color="gray" stop-opacity="0.05"/><stop offset="1" stop-color="#fff" stop-opacity="0.15"/></linearGradient><linearGradient id="未命名的渐变_12" x1="166.005" y1="166.003" x2="25.997" y2="25.995" gradientUnits="userSpaceOnUse"><stop offset="0" stop-opacity="0.04"/><stop offset="0.5" stop-color="gray" stop-opacity="0"/><stop offset="1" stop-color="#fff" stop-opacity="0.1"/></linearGradient><linearGradient id="未命名的渐变_27" x1="96" y1="96" x2="96" y2="6" gradientUnits="userSpaceOnUse"><stop offset="0" stop-opacity="0.08"/><stop offset="0.15" stop-opacity="0.06"/><stop offset="0.99" stop-opacity="0"/></linearGradient><linearGradient id="未命名的渐变_42" x1="57.14" y1="-40.685" x2="110.56" y2="-40.685" gradientTransform="translate(0 98)" gradientUnits="userSpaceOnUse"><stop offset="0" stop-opacity="0.12"/><stop offset="0.8" stop-opacity="0"/></linearGradient><linearGradient id="未命名的渐变_42-2" x1="129.14" y1="-40.685" x2="182.56" y2="-40.685" xlink:href="#未命名的渐变_42"/><linearGradient id="未命名的渐变_24" x1="165.384" y1="166.613" x2="79.76" y2="80.99" gradientUnits="userSpaceOnUse"><stop offset="0" stop-opacity="0"/><stop offset="1" stop-opacity="0.12"/></linearGradient></defs><title>android_calendar_d6</title><g id="图层_2" data-name="图层 2"><g id="图层_1-2" data-name="图层 1"><rect class="cls-1" width="192" height="192"/><circle class="cls-2" cx="96" cy="97" r="93"/><circle class="cls-3" cx="96" cy="97" r="92"/><circle class="cls-4" cx="96" cy="97" r="91"/><path class="cls-5" d="M186,97c0,66.672-23.317,90-90,90S6,163.674,6,97,29.321,7,96,7,186,30.323,186,97Z"/><path class="cls-6" d="M186,96c0,66.672-23.317,90-90,90S6,162.674,6,96,29.321,6,96,6,186,29.323,186,96Z"/><path class="cls-7" d="M186,96c0,66.672-23.317,90-90,90S6,162.674,6,96,29.321,6,96,6,186,29.323,186,96Z"/><path class="cls-8" d="M96,6C29.321,6,6,29.323,6,96s23.321,90,90,90,90-23.328,90-90S162.683,6,96,6Zm68.592,158.588C151.168,178.013,130.014,184,96,184s-55.166-5.986-68.59-19.411S8,130.011,8,96s5.986-55.166,19.41-68.589S61.988,8,96,8s55.168,5.986,68.592,19.411S184,61.987,184,96,178.014,151.164,164.592,164.588Z"/><path class="cls-9" d="M96,6C29.321,6,6,29.323,6,96H186C186,29.323,162.683,6,96,6Z"/><polygon class="cls-10" points="63.48 30.64 57.14 36.98 104.14 83.99 110.56 77.56 63.48 30.64"/><circle class="cls-11" cx="60" cy="33.5" r="4.5"/><circle class="cls-12" cx="60" cy="33.5" r="4.5"/><polygon class="cls-13" points="135.48 30.64 129.14 36.98 176.14 83.99 182.56 77.56 135.48 30.64"/><circle class="cls-11" cx="132" cy="33.5" r="4.5"/><circle class="cls-12" cx="132" cy="33.5" r="4.5"/><g id="_0X" data-name="0X"><g id="_6" data-name="6"><path class="cls-14" d="M183.654,127.654,120,64,90.75,70,80,83l-1.958,53.5,47.5,47.5C160.292,178.59,177.772,161.7,183.654,127.654Z"/><path id="_6-2" data-name="6" class="cls-15" d="M96.226,143.517c-8.61,0-15.481-3.191-20.423-9.483-4.827-6.142-7.275-15.468-7.275-27.718,0-15.418,2.722-27.309,8.089-35.341,5.539-8.289,13.7-12.492,24.247-12.492a37.393,37.393,0,0,1,10.829,1.389,31.189,31.189,0,0,1,8.163,3.814,2.02,2.02,0,0,1,.653,2.65l-3.959,7.24a2.019,2.019,0,0,1-2.7.825,27.954,27.954,0,0,0-12.986-3.055c-5.746,0-9.97,2.132-12.915,6.516-2.368,3.523-4.015,8.34-4.918,14.369a27.053,27.053,0,0,1,3.37-2.262,23.818,23.818,0,0,1,11.974-2.98,28.927,28.927,0,0,1,9.606,1.585,21.619,21.619,0,0,1,8.041,4.988,24.138,24.138,0,0,1,5.443,8.51,33.365,33.365,0,0,1,2.007,12.163,36.872,36.872,0,0,1-1.926,12.327,25.861,25.861,0,0,1-5.53,9.256,23.7,23.7,0,0,1-8.649,5.751A30.613,30.613,0,0,1,96.226,143.517Zm.566-43.664c-4.43,0-7.775,1.287-10.227,3.933a14.487,14.487,0,0,0-3.7,10.336A24.664,24.664,0,0,0,83.7,120.5a16.278,16.278,0,0,0,2.46,5.338,12.737,12.737,0,0,0,4.108,3.664,11.7,11.7,0,0,0,5.846,1.377,14.324,14.324,0,0,0,6.1-1.166,10.843,10.843,0,0,0,4.023-3.153,14.083,14.083,0,0,0,2.418-4.851,22.715,22.715,0,0,0,.826-6.231c0-5.568-1.1-9.625-3.276-12.06C104.055,101.02,100.978,99.853,96.792,99.853Z"/></g></g></g></g></svg>