<svg xmlns="http://www.w3.org/2000/svg" xmlns:xlink="http://www.w3.org/1999/xlink" width="192" height="192" viewBox="0 0 192 192"><defs><style>.cls-1{fill:none;}.cls-2{opacity:0.01;}.cls-3{opacity:0.02;}.cls-4{opacity:0.04;}.cls-5{opacity:0.06;}.cls-6{fill:#f5f5f5;}.cls-7{fill:url(#未命名的渐变_6);}.cls-8{fill:url(#未命名的渐变_12);}.cls-9{fill:url(#未命名的渐变_27);}.cls-10{fill:url(#未命名的渐变_42);}.cls-11,.cls-12{fill:#fff;}.cls-12{opacity:0.4;}.cls-13{fill:url(#未命名的渐变_42-2);}.cls-14{fill:url(#未命名的渐变_30);}.cls-15{fill:#ef4b18;}</style><linearGradient id="未命名的渐变_6" x1="166.005" y1="166.003" x2="25.997" y2="25.995" gradientUnits="userSpaceOnUse"><stop offset="0" stop-opacity="0.12"/><stop offset="0.5" stop-color="gray" stop-opacity="0.05"/><stop offset="1" stop-color="#fff" stop-opacity="0.15"/></linearGradient><linearGradient id="未命名的渐变_12" x1="166.005" y1="166.003" x2="25.997" y2="25.995" gradientUnits="userSpaceOnUse"><stop offset="0" stop-opacity="0.04"/><stop offset="0.5" stop-color="gray" stop-opacity="0"/><stop offset="1" stop-color="#fff" stop-opacity="0.1"/></linearGradient><linearGradient id="未命名的渐变_27" x1="96" y1="96" x2="96" y2="6" gradientUnits="userSpaceOnUse"><stop offset="0" stop-opacity="0.08"/><stop offset="0.15" stop-opacity="0.06"/><stop offset="0.99" stop-opacity="0"/></linearGradient><linearGradient id="未命名的渐变_42" x1="57.14" y1="-40.685" x2="110.56" y2="-40.685" gradientTransform="translate(0 98)" gradientUnits="userSpaceOnUse"><stop offset="0" stop-opacity="0.12"/><stop offset="0.8" stop-opacity="0"/></linearGradient><linearGradient id="未命名的渐变_42-2" x1="129.14" y1="-40.685" x2="182.56" y2="-40.685" xlink:href="#未命名的渐变_42"/><linearGradient id="未命名的渐变_30" x1="163.155" y1="168.843" x2="76.156" y2="81.844" gradientUnits="userSpaceOnUse"><stop offset="0" stop-opacity="0"/><stop offset="1" stop-opacity="0.12"/></linearGradient></defs><title>android_calendar_d8</title><g id="图层_2" data-name="图层 2"><g id="图层_1-2" data-name="图层 1"><rect class="cls-1" width="192" height="192"/><circle class="cls-2" cx="96" cy="97" r="93"/><circle class="cls-3" cx="96" cy="97" r="92"/><circle class="cls-4" cx="96" cy="97" r="91"/><path class="cls-5" d="M186,97c0,66.672-23.317,90-90,90S6,163.674,6,97,29.321,7,96,7,186,30.323,186,97Z"/><path class="cls-6" d="M186,96c0,66.672-23.317,90-90,90S6,162.674,6,96,29.321,6,96,6,186,29.323,186,96Z"/><path class="cls-7" d="M186,96c0,66.672-23.317,90-90,90S6,162.674,6,96,29.321,6,96,6,186,29.323,186,96Z"/><path class="cls-8" d="M96,6C29.321,6,6,29.323,6,96s23.321,90,90,90,90-23.328,90-90S162.683,6,96,6Zm68.592,158.588C151.168,178.013,130.014,184,96,184s-55.166-5.986-68.59-19.411S8,130.011,8,96s5.986-55.166,19.41-68.589S61.988,8,96,8s55.168,5.986,68.592,19.411S184,61.987,184,96,178.014,151.164,164.592,164.588Z"/><path class="cls-9" d="M96,6C29.321,6,6,29.323,6,96H186C186,29.323,162.683,6,96,6Z"/><polygon class="cls-10" points="63.48 30.64 57.14 36.98 104.14 83.99 110.56 77.56 63.48 30.64"/><circle class="cls-11" cx="60" cy="33.5" r="4.5"/><circle class="cls-12" cx="60" cy="33.5" r="4.5"/><polygon class="cls-13" points="135.48 30.64 129.14 36.98 176.14 83.99 182.56 77.56 135.48 30.64"/><circle class="cls-11" cx="132" cy="33.5" r="4.5"/><circle class="cls-12" cx="132" cy="33.5" r="4.5"/><g id="_0X" data-name="0X"><g id="_8" data-name="8"><path class="cls-14" d="M182.787,132.162,116.042,65.417,93,69l-9,5L77.024,96.341l4.141,4.235L74.5,136.5l47.947,47.947C157.645,179.779,175.956,164.149,182.787,132.162Z"/><path id="_8-2" data-name="8" class="cls-15" d="M95.943,143.517a39.509,39.509,0,0,1-11.506-1.559,26.4,26.4,0,0,1-8.814-4.482,19.484,19.484,0,0,1-5.6-7,20.787,20.787,0,0,1-1.887-8.888,22.99,22.99,0,0,1,1.377-8.183,21.919,21.919,0,0,1,3.737-6.412,26.638,26.638,0,0,1,5.507-4.9c1.052-.707,2.152-1.392,3.291-2.05Q81,99.4,79.986,98.709a24.535,24.535,0,0,1-4.867-4.375,20.786,20.786,0,0,1-4.951-13.922,21.052,21.052,0,0,1,1.753-8.5A20.506,20.506,0,0,1,77,64.887a24,24,0,0,1,8.081-4.7,32.206,32.206,0,0,1,10.864-1.7,35.346,35.346,0,0,1,11.343,1.636,22.663,22.663,0,0,1,8.126,4.668,19.105,19.105,0,0,1,4.863,7.018,22.619,22.619,0,0,1,1.556,8.381,19.965,19.965,0,0,1-1.2,6.982,22.476,22.476,0,0,1-3.171,5.779,24.719,24.719,0,0,1-4.62,4.622q-1.095.84-2.228,1.607c1.276.736,2.47,1.492,3.571,2.261a25.808,25.808,0,0,1,5.216,4.791,19.271,19.271,0,0,1,3.351,6.191,24.834,24.834,0,0,1,1.119,7.7c0,7.313-2.57,13.129-7.639,17.286C111.28,141.46,104.455,143.517,95.943,143.517Zm-.886-37.971c-1.775.849-3.468,1.748-5.043,2.679a22.233,22.233,0,0,0-4.407,3.366,13.17,13.17,0,0,0-2.749,3.973,12.558,12.558,0,0,0-.958,5.119,9.311,9.311,0,0,0,3.416,7.51c2.365,2.008,5.94,3.026,10.627,3.026,4.5,0,8.037-.98,10.526-2.913,2.368-1.837,3.518-4.479,3.518-8.076a12.32,12.32,0,0,0-.958-5.007,11.752,11.752,0,0,0-2.8-3.859,21.15,21.15,0,0,0-4.852-3.242A50.167,50.167,0,0,0,95.057,105.546Zm.886-35.1c-3.979,0-7.057.98-9.149,2.913a9.151,9.151,0,0,0-3.084,7.057A10.436,10.436,0,0,0,84.733,85.2a12.3,12.3,0,0,0,2.919,3.7,19.411,19.411,0,0,0,4.611,2.913,48.147,48.147,0,0,0,5.25,2.05,24.854,24.854,0,0,0,7.861-5.43,11.113,11.113,0,0,0,2.8-7.907,9.524,9.524,0,0,0-2.949-7.2C103.254,71.411,100.13,70.442,95.943,70.442Z"/></g></g></g></g></svg>