<svg xmlns="http://www.w3.org/2000/svg" xmlns:xlink="http://www.w3.org/1999/xlink" width="192" height="192" viewBox="0 0 192 192"><defs><style>.cls-1{fill:none;}.cls-2{opacity:0.01;}.cls-3{opacity:0.02;}.cls-4{opacity:0.04;}.cls-5{opacity:0.06;}.cls-6{fill:#f5f5f5;}.cls-7{fill:url(#未命名的渐变_6);}.cls-8{fill:url(#未命名的渐变_12);}.cls-9{fill:url(#未命名的渐变_27);}.cls-10{fill:url(#未命名的渐变_42);}.cls-11,.cls-12{fill:#fff;}.cls-12{opacity:0.4;}.cls-13{fill:url(#未命名的渐变_42-2);}.cls-14{fill:url(#未命名的渐变_32);}.cls-15{fill:#ef4b18;}</style><linearGradient id="未命名的渐变_6" x1="166.005" y1="166.003" x2="25.997" y2="25.995" gradientUnits="userSpaceOnUse"><stop offset="0" stop-opacity="0.12"/><stop offset="0.5" stop-color="gray" stop-opacity="0.05"/><stop offset="1" stop-color="#fff" stop-opacity="0.15"/></linearGradient><linearGradient id="未命名的渐变_12" x1="166.005" y1="166.003" x2="25.997" y2="25.995" gradientUnits="userSpaceOnUse"><stop offset="0" stop-opacity="0.04"/><stop offset="0.5" stop-color="gray" stop-opacity="0"/><stop offset="1" stop-color="#fff" stop-opacity="0.1"/></linearGradient><linearGradient id="未命名的渐变_27" x1="96" y1="96" x2="96" y2="6" gradientUnits="userSpaceOnUse"><stop offset="0" stop-opacity="0.08"/><stop offset="0.15" stop-opacity="0.06"/><stop offset="0.99" stop-opacity="0"/></linearGradient><linearGradient id="未命名的渐变_42" x1="57.14" y1="-40.685" x2="110.56" y2="-40.685" gradientTransform="translate(0 98)" gradientUnits="userSpaceOnUse"><stop offset="0" stop-opacity="0.12"/><stop offset="0.8" stop-opacity="0"/></linearGradient><linearGradient id="未命名的渐变_42-2" x1="129.14" y1="-40.685" x2="182.56" y2="-40.685" xlink:href="#未命名的渐变_42"/><linearGradient id="未命名的渐变_32" x1="161.153" y1="170.848" x2="73.653" y2="83.347" gradientUnits="userSpaceOnUse"><stop offset="0" stop-opacity="0"/><stop offset="1" stop-opacity="0.12"/></linearGradient></defs><title>android_calendar_d9</title><g id="图层_2" data-name="图层 2"><g id="图层_1-2" data-name="图层 1"><rect class="cls-1" width="192" height="192"/><circle class="cls-2" cx="96" cy="97" r="93"/><circle class="cls-3" cx="96" cy="97" r="92"/><circle class="cls-4" cx="96" cy="97" r="91"/><path class="cls-5" d="M186,97c0,66.672-23.317,90-90,90S6,163.674,6,97,29.321,7,96,7,186,30.323,186,97Z"/><path class="cls-6" d="M186,96c0,66.672-23.317,90-90,90S6,162.674,6,96,29.321,6,96,6,186,29.323,186,96Z"/><path class="cls-7" d="M186,96c0,66.672-23.317,90-90,90S6,162.674,6,96,29.321,6,96,6,186,29.323,186,96Z"/><path class="cls-8" d="M96,6C29.321,6,6,29.323,6,96s23.321,90,90,90,90-23.328,90-90S162.683,6,96,6Zm68.592,158.588C151.168,178.013,130.014,184,96,184s-55.166-5.986-68.59-19.411S8,130.011,8,96s5.986-55.166,19.41-68.589S61.988,8,96,8s55.168,5.986,68.592,19.411S184,61.987,184,96,178.014,151.164,164.592,164.588Z"/><path class="cls-9" d="M96,6C29.321,6,6,29.323,6,96H186C186,29.323,162.683,6,96,6Z"/><polygon class="cls-10" points="63.48 30.64 57.14 36.98 104.14 83.99 110.56 77.56 63.48 30.64"/><circle class="cls-11" cx="60" cy="33.5" r="4.5"/><circle class="cls-12" cx="60" cy="33.5" r="4.5"/><polygon class="cls-13" points="135.48 30.64 129.14 36.98 176.14 83.99 182.56 77.56 135.48 30.64"/><circle class="cls-11" cx="132" cy="33.5" r="4.5"/><circle class="cls-12" cx="132" cy="33.5" r="4.5"/><g id="_0X" data-name="0X"><g id="_9" data-name="9"><path class="cls-14" d="M73.125,140.5l44.115,44.547c37.913-3.731,57.666-18.793,65.147-51.076l-68.3-68.3L85,72l-8.929,36.518L99,131v1Z"/><path id="_9-2" data-name="9" class="cls-15" d="M89.779,143.517a48.87,48.87,0,0,1-10.757-.959,32.22,32.22,0,0,1-5.225-1.479,2.02,2.02,0,0,1-1.137-2.335L74.7,130.6a2.021,2.021,0,0,1,2.715-1.384,10.37,10.37,0,0,0,1.537.408c.81.177,1.779.339,2.885.48q1.74.226,3.755.449a34.941,34.941,0,0,0,3.85.213,19.969,19.969,0,0,0,8.732-1.719,15.163,15.163,0,0,0,5.795-4.951,25.907,25.907,0,0,0,3.712-8.4,59.763,59.763,0,0,0,1.207-5.865,27.045,27.045,0,0,1-3.286,2.194,23.812,23.812,0,0,1-11.975,2.982,28.866,28.866,0,0,1-9.6-1.585,21.56,21.56,0,0,1-8.043-4.99,24.145,24.145,0,0,1-5.442-8.507,33.387,33.387,0,0,1-2.006-12.165,36.3,36.3,0,0,1,1.93-12.277,26.48,26.48,0,0,1,5.516-9.238,23.387,23.387,0,0,1,8.658-5.818,30.58,30.58,0,0,1,11.142-1.948c8.608,0,15.481,3.211,20.426,9.544,4.826,6.182,7.272,15.677,7.272,28.222a82.733,82.733,0,0,1-2.27,20.47,43.66,43.66,0,0,1-6.6,14.823,27.934,27.934,0,0,1-10.728,9.011A32.835,32.835,0,0,1,89.779,143.517Zm6.108-72.4a14.719,14.719,0,0,0-6.167,1.171,10.736,10.736,0,0,0-4.065,3.147A13.309,13.309,0,0,0,83.3,80.257a24.274,24.274,0,0,0-.78,6.264c0,5.569,1.1,9.626,3.276,12.058,2.144,2.4,5.223,3.568,9.41,3.568,4.431,0,7.776-1.287,10.226-3.934a14.481,14.481,0,0,0,3.7-10.335A24.831,24.831,0,0,0,108.3,81.5a16.346,16.346,0,0,0-2.461-5.337,12.773,12.773,0,0,0-4.108-3.664A11.707,11.707,0,0,0,95.887,71.12Z"/></g></g></g></g></svg>