<svg xmlns="http://www.w3.org/2000/svg" xmlns:xlink="http://www.w3.org/1999/xlink" width="192" height="192" viewBox="0 0 192 192"><defs><style>.cls-1{fill:none;}.cls-2{opacity:0.01;}.cls-3{opacity:0.02;}.cls-4{opacity:0.04;}.cls-5{opacity:0.06;}.cls-6{fill:#f5f5f5;}.cls-7{fill:url(#未命名的渐变_6);}.cls-8{fill:url(#未命名的渐变_12);}.cls-9{fill:url(#未命名的渐变_27);}.cls-10{fill:url(#未命名的渐变_42);}.cls-11,.cls-12{fill:#fff;}.cls-12{opacity:0.4;}.cls-13{fill:url(#未命名的渐变_42-2);}.cls-14{fill:url(#未命名的渐变_38);}.cls-15{fill:#ef4b18;}</style><linearGradient id="未命名的渐变_6" x1="166.005" y1="166.003" x2="25.997" y2="25.995" gradientUnits="userSpaceOnUse"><stop offset="0" stop-opacity="0.12"/><stop offset="0.5" stop-color="gray" stop-opacity="0.05"/><stop offset="1" stop-color="#fff" stop-opacity="0.15"/></linearGradient><linearGradient id="未命名的渐变_12" x1="166.005" y1="166.003" x2="25.997" y2="25.995" gradientUnits="userSpaceOnUse"><stop offset="0" stop-opacity="0.04"/><stop offset="0.5" stop-color="gray" stop-opacity="0"/><stop offset="1" stop-color="#fff" stop-opacity="0.1"/></linearGradient><linearGradient id="未命名的渐变_27" x1="96" y1="96" x2="96" y2="6" gradientUnits="userSpaceOnUse"><stop offset="0" stop-opacity="0.08"/><stop offset="0.15" stop-opacity="0.06"/><stop offset="0.99" stop-opacity="0"/></linearGradient><linearGradient id="未命名的渐变_42" x1="57.14" y1="-40.685" x2="110.56" y2="-40.685" gradientTransform="translate(0 98)" gradientUnits="userSpaceOnUse"><stop offset="0" stop-opacity="0.12"/><stop offset="0.8" stop-opacity="0"/></linearGradient><linearGradient id="未命名的渐变_42-2" x1="129.14" y1="-40.685" x2="182.56" y2="-40.685" xlink:href="#未命名的渐变_42"/><linearGradient id="未命名的渐变_38" x1="164.508" y1="167.488" x2="63.927" y2="66.907" gradientUnits="userSpaceOnUse"><stop offset="0" stop-opacity="0"/><stop offset="1" stop-opacity="0.12"/></linearGradient></defs><title>android_calendar_d12</title><g id="图层_2" data-name="图层 2"><g id="图层_1-2" data-name="图层 1"><rect class="cls-1" width="192" height="192"/><circle class="cls-2" cx="96" cy="97" r="93"/><circle class="cls-3" cx="96" cy="97" r="92"/><circle class="cls-4" cx="96" cy="97" r="91"/><path class="cls-5" d="M186,97c0,66.672-23.317,90-90,90S6,163.674,6,97,29.321,7,96,7,186,30.323,186,97Z"/><path class="cls-6" d="M186,96c0,66.672-23.317,90-90,90S6,162.674,6,96,29.321,6,96,6,186,29.323,186,96Z"/><path class="cls-7" d="M186,96c0,66.672-23.317,90-90,90S6,162.674,6,96,29.321,6,96,6,186,29.323,186,96Z"/><path class="cls-8" d="M96,6C29.321,6,6,29.323,6,96s23.321,90,90,90,90-23.328,90-90S162.683,6,96,6Zm68.592,158.588C151.168,178.013,130.014,184,96,184s-55.166-5.986-68.59-19.411S8,130.011,8,96s5.986-55.166,19.41-68.589S61.988,8,96,8s55.168,5.986,68.592,19.411S184,61.987,184,96,178.014,151.164,164.592,164.588Z"/><path class="cls-9" d="M96,6C29.321,6,6,29.323,6,96H186C186,29.323,162.683,6,96,6Z"/><polygon class="cls-10" points="63.48 30.64 57.14 36.98 104.14 83.99 110.56 77.56 63.48 30.64"/><circle class="cls-11" cx="60" cy="33.5" r="4.5"/><circle class="cls-12" cx="60" cy="33.5" r="4.5"/><polygon class="cls-13" points="135.48 30.64 129.14 36.98 176.14 83.99 182.56 77.56 135.48 30.64"/><circle class="cls-11" cx="132" cy="33.5" r="4.5"/><circle class="cls-12" cx="132" cy="33.5" r="4.5"/><g id="_1x" data-name="1x"><g id="_12" data-name="12"><path class="cls-14" d="M185.452,112.438l-47.2-47.2L98.5,76.5,121,99l-2.928,3.928L75.553,60.409,44.487,86.348,63,105l-.314,36.562,44.111,44.21C159.826,183.478,181.842,163.229,185.452,112.438Z"/><path id="_2" data-name="2" class="cls-15" d="M98.863,142.781a1.971,1.971,0,0,1-1.919-2.02v-1.81a47.665,47.665,0,0,1,1.3-11.546,37.061,37.061,0,0,1,3.985-9.765,47.557,47.557,0,0,1,6.561-8.623,92.786,92.786,0,0,1,9-8.207c2.177-1.775,4.154-3.48,5.865-5.061a33.977,33.977,0,0,0,4.163-4.538,17.248,17.248,0,0,0,2.405-4.344,13.634,13.634,0,0,0,.785-4.7,10.65,10.65,0,0,0-2.515-7.244c-1.618-1.884-4.358-2.841-8.14-2.841a14.782,14.782,0,0,0-5.163.847,19.441,19.441,0,0,0-4.163,2.109,17.842,17.842,0,0,0-3.1,2.648,29.853,29.853,0,0,0-2.263,2.751,1.9,1.9,0,0,1-1.327.8c-.07.007-.139.011-.208.011a1.861,1.861,0,0,1-1.251-.488l-6.126-5.543a2.1,2.1,0,0,1-.347-2.652,31.455,31.455,0,0,1,3.214-4.115,27.266,27.266,0,0,1,5.206-4.392,31.424,31.424,0,0,1,7.086-3.434,30.712,30.712,0,0,1,19.792.494,21.56,21.56,0,0,1,7.539,5.1,19.936,19.936,0,0,1,4.364,7.367,26.207,26.207,0,0,1,1.344,8.244,24.8,24.8,0,0,1-1.476,8.653,30.17,30.17,0,0,1-3.919,7.283,47.191,47.191,0,0,1-5.5,6.26c-2.008,1.921-4.129,3.785-6.3,5.538-2.664,2.141-5.043,4.215-7.073,6.166a50.321,50.321,0,0,0-5.117,5.656,27.2,27.2,0,0,0-3.252,5.364,17.492,17.492,0,0,0-1.068,3.173H144a1.972,1.972,0,0,1,1.919,2.02v8.822a1.972,1.972,0,0,1-1.919,2.02Z"/></g></g><path id="_10" data-name="10" class="cls-15" d="M64,142.046a2.02,2.02,0,0,1-2.02-2.02V77.585L46.684,86.458a2.021,2.021,0,0,1-2.81-.823l-3.959-7.692a2.021,2.021,0,0,1,.761-2.66L65.9,60.239a2.022,2.022,0,0,1,1.034-.285h7.352a2.02,2.02,0,0,1,2.02,2.02v78.052a2.02,2.02,0,0,1-2.02,2.02Z"/></g></g></svg>