<svg xmlns="http://www.w3.org/2000/svg" xmlns:xlink="http://www.w3.org/1999/xlink" width="192" height="192" viewBox="0 0 192 192"><defs><style>.cls-1{fill:none;}.cls-2{opacity:0.01;}.cls-3{opacity:0.02;}.cls-4{opacity:0.04;}.cls-5{opacity:0.06;}.cls-6{fill:#f5f5f5;}.cls-7{fill:url(#未命名的渐变_6);}.cls-8{fill:url(#未命名的渐变_12);}.cls-9{fill:url(#未命名的渐变_27);}.cls-10{fill:url(#未命名的渐变_42);}.cls-11,.cls-12{fill:#fff;}.cls-12{opacity:0.4;}.cls-13{fill:url(#未命名的渐变_42-2);}.cls-14{fill:url(#未命名的渐变_40);}.cls-15{fill:#ef4b18;}</style><linearGradient id="未命名的渐变_6" x1="166.005" y1="166.003" x2="25.997" y2="25.995" gradientUnits="userSpaceOnUse"><stop offset="0" stop-opacity="0.12"/><stop offset="0.5" stop-color="gray" stop-opacity="0.05"/><stop offset="1" stop-color="#fff" stop-opacity="0.15"/></linearGradient><linearGradient id="未命名的渐变_12" x1="166.005" y1="166.003" x2="25.997" y2="25.995" gradientUnits="userSpaceOnUse"><stop offset="0" stop-opacity="0.04"/><stop offset="0.5" stop-color="gray" stop-opacity="0"/><stop offset="1" stop-color="#fff" stop-opacity="0.1"/></linearGradient><linearGradient id="未命名的渐变_27" x1="96" y1="96" x2="96" y2="6" gradientUnits="userSpaceOnUse"><stop offset="0" stop-opacity="0.08"/><stop offset="0.15" stop-opacity="0.06"/><stop offset="0.99" stop-opacity="0"/></linearGradient><linearGradient id="未命名的渐变_42" x1="57.14" y1="-40.685" x2="110.56" y2="-40.685" gradientTransform="translate(0 98)" gradientUnits="userSpaceOnUse"><stop offset="0" stop-opacity="0.12"/><stop offset="0.8" stop-opacity="0"/></linearGradient><linearGradient id="未命名的渐变_42-2" x1="129.14" y1="-40.685" x2="182.56" y2="-40.685" xlink:href="#未命名的渐变_42"/><linearGradient id="未命名的渐变_40" x1="164.59" y1="167.406" x2="64.009" y2="66.825" gradientUnits="userSpaceOnUse"><stop offset="0" stop-opacity="0"/><stop offset="1" stop-opacity="0.12"/></linearGradient></defs><title>android_calendar_d13</title><g id="图层_2" data-name="图层 2"><g id="图层_1-2" data-name="图层 1"><rect class="cls-1" width="192" height="192"/><circle class="cls-2" cx="96" cy="97" r="93"/><circle class="cls-3" cx="96" cy="97" r="92"/><circle class="cls-4" cx="96" cy="97" r="91"/><path class="cls-5" d="M186,97c0,66.672-23.317,90-90,90S6,163.674,6,97,29.321,7,96,7,186,30.323,186,97Z"/><path class="cls-6" d="M186,96c0,66.672-23.317,90-90,90S6,162.674,6,96,29.321,6,96,6,186,29.323,186,96Z"/><path class="cls-7" d="M186,96c0,66.672-23.317,90-90,90S6,162.674,6,96,29.321,6,96,6,186,29.323,186,96Z"/><path class="cls-8" d="M96,6C29.321,6,6,29.323,6,96s23.321,90,90,90,90-23.328,90-90S162.683,6,96,6Zm68.592,158.588C151.168,178.013,130.014,184,96,184s-55.166-5.986-68.59-19.411S8,130.011,8,96s5.986-55.166,19.41-68.589S61.988,8,96,8s55.168,5.986,68.592,19.411S184,61.987,184,96,178.014,151.164,164.592,164.588Z"/><path class="cls-9" d="M96,6C29.321,6,6,29.323,6,96H186C186,29.323,162.683,6,96,6Z"/><polygon class="cls-10" points="63.48 30.64 57.14 36.98 104.14 83.99 110.56 77.56 63.48 30.64"/><circle class="cls-11" cx="60" cy="33.5" r="4.5"/><circle class="cls-12" cx="60" cy="33.5" r="4.5"/><polygon class="cls-13" points="135.48 30.64 129.14 36.98 176.14 83.99 182.56 77.56 135.48 30.64"/><circle class="cls-11" cx="132" cy="33.5" r="4.5"/><circle class="cls-12" cx="132" cy="33.5" r="4.5"/><g id="_1x" data-name="1x"><g id="_13" data-name="13"><path class="cls-14" d="M106.825,185.771c53.106-2.3,75.1-22.625,78.646-73.613L137.655,64.341,111,72l-8.043,5.658L121,96l-5.808,4.048L75.553,60.409,44.487,86.348,63,105l-.314,36.562Z"/><path id="_3" data-name="3" class="cls-15" d="M117.078,143.517a60.8,60.8,0,0,1-11.863-1,51.479,51.479,0,0,1-7.7-2.062,2.045,2.045,0,0,1-1.2-2.441l2.15-8.144a2,2,0,0,1,.905-1.218,1.828,1.828,0,0,1,1.458-.188c1.24.364,3.126.808,5.605,1.321a51.1,51.1,0,0,0,9.892.755c4.8,0,8.7-1.077,11.58-3.2,2.7-1.992,4.018-4.984,4.018-9.148a11.151,11.151,0,0,0-3.322-8.317c-2.235-2.223-6-3.351-11.2-3.351h-7.522a1.971,1.971,0,0,1-1.919-2.02V95.684a1.971,1.971,0,0,1,1.919-2.02h7.2a18.913,18.913,0,0,0,6.411-.964,11.293,11.293,0,0,0,4.148-2.5,9.624,9.624,0,0,0,2.315-3.656,13.783,13.783,0,0,0,.788-4.658,11.62,11.62,0,0,0-2.544-7.675c-1.615-1.973-4.416-2.974-8.324-2.974a20.009,20.009,0,0,0-5.166.615,21.172,21.172,0,0,0-4.15,1.556,17.5,17.5,0,0,0-3.1,1.984c-.928.76-1.709,1.437-2.321,2.009a1.852,1.852,0,0,1-2.671-.126L97.2,71.39a2.1,2.1,0,0,1-.088-2.665,23.413,23.413,0,0,1,3.108-3.16,27.031,27.031,0,0,1,4.972-3.355,34.345,34.345,0,0,1,6.593-2.636,33.013,33.013,0,0,1,19.074.676,21.652,21.652,0,0,1,7.592,4.847,19.429,19.429,0,0,1,4.495,7.073,23.851,23.851,0,0,1,1.415,8.129,22.977,22.977,0,0,1-1.134,7.412,21.5,21.5,0,0,1-3.091,5.94,23.33,23.33,0,0,1-4.52,4.571q-.662.509-1.352.968.9.442,1.767.959a19.543,19.543,0,0,1,5.074,4.4,20.837,20.837,0,0,1,3.4,6.082,22.113,22.113,0,0,1,1.254,7.563,25.552,25.552,0,0,1-2.238,10.9,22.643,22.643,0,0,1-6.188,8,27.034,27.034,0,0,1-9.12,4.808A37.328,37.328,0,0,1,117.078,143.517Z"/></g></g><path id="_10" data-name="10" class="cls-15" d="M64,142.046a2.02,2.02,0,0,1-2.02-2.02V77.585L46.684,86.458a2.021,2.021,0,0,1-2.81-.823l-3.959-7.692a2.021,2.021,0,0,1,.761-2.66L65.9,60.239a2.022,2.022,0,0,1,1.034-.285h7.352a2.02,2.02,0,0,1,2.02,2.02v78.052a2.02,2.02,0,0,1-2.02,2.02Z"/></g></g></svg>