<svg xmlns="http://www.w3.org/2000/svg" xmlns:xlink="http://www.w3.org/1999/xlink" width="192" height="192" viewBox="0 0 192 192"><defs><style>.cls-1{fill:none;}.cls-2{opacity:0.01;}.cls-3{opacity:0.02;}.cls-4{opacity:0.04;}.cls-5{opacity:0.06;}.cls-6{fill:#f5f5f5;}.cls-7{fill:url(#未命名的渐变_6);}.cls-8{fill:url(#未命名的渐变_12);}.cls-9{fill:url(#未命名的渐变_27);}.cls-10{fill:url(#未命名的渐变_42);}.cls-11,.cls-12{fill:#fff;}.cls-12{opacity:0.4;}.cls-13{fill:url(#未命名的渐变_42-2);}.cls-14{fill:url(#未命名的渐变_54);}.cls-15{fill:#ef4b18;}</style><linearGradient id="未命名的渐变_6" x1="166.005" y1="166.003" x2="25.997" y2="25.995" gradientUnits="userSpaceOnUse"><stop offset="0" stop-opacity="0.12"/><stop offset="0.5" stop-color="gray" stop-opacity="0.05"/><stop offset="1" stop-color="#fff" stop-opacity="0.15"/></linearGradient><linearGradient id="未命名的渐变_12" x1="166.005" y1="166.003" x2="25.997" y2="25.995" gradientUnits="userSpaceOnUse"><stop offset="0" stop-opacity="0.04"/><stop offset="0.5" stop-color="gray" stop-opacity="0"/><stop offset="1" stop-color="#fff" stop-opacity="0.1"/></linearGradient><linearGradient id="未命名的渐变_27" x1="96" y1="96" x2="96" y2="6" gradientUnits="userSpaceOnUse"><stop offset="0" stop-opacity="0.08"/><stop offset="0.15" stop-opacity="0.06"/><stop offset="0.99" stop-opacity="0"/></linearGradient><linearGradient id="未命名的渐变_42" x1="57.14" y1="-40.685" x2="110.56" y2="-40.685" gradientTransform="translate(0 98)" gradientUnits="userSpaceOnUse"><stop offset="0" stop-opacity="0.12"/><stop offset="0.8" stop-opacity="0"/></linearGradient><linearGradient id="未命名的渐变_42-2" x1="129.14" y1="-40.685" x2="182.56" y2="-40.685" xlink:href="#未命名的渐变_42"/><linearGradient id="未命名的渐变_54" x1="164.925" y1="167.077" x2="64.341" y2="66.494" gradientUnits="userSpaceOnUse"><stop offset="0" stop-opacity="0"/><stop offset="1" stop-opacity="0.12"/></linearGradient></defs><title>android_calendar_d18</title><g id="图层_2" data-name="图层 2"><g id="图层_1-2" data-name="图层 1"><rect class="cls-1" width="192" height="192"/><circle class="cls-2" cx="96" cy="97" r="93"/><circle class="cls-3" cx="96" cy="97" r="92"/><circle class="cls-4" cx="96" cy="97" r="91"/><path class="cls-5" d="M186,97c0,66.672-23.317,90-90,90S6,163.674,6,97,29.321,7,96,7,186,30.323,186,97Z"/><path class="cls-6" d="M186,96c0,66.672-23.317,90-90,90S6,162.674,6,96,29.321,6,96,6,186,29.323,186,96Z"/><path class="cls-7" d="M186,96c0,66.672-23.317,90-90,90S6,162.674,6,96,29.321,6,96,6,186,29.323,186,96Z"/><path class="cls-8" d="M96,6C29.321,6,6,29.323,6,96s23.321,90,90,90,90-23.328,90-90S162.683,6,96,6Zm68.592,158.588C151.168,178.013,130.014,184,96,184s-55.166-5.986-68.59-19.411S8,130.011,8,96s5.986-55.166,19.41-68.589S61.988,8,96,8s55.168,5.986,68.592,19.411S184,61.987,184,96,178.014,151.164,164.592,164.588Z"/><path class="cls-9" d="M96,6C29.321,6,6,29.323,6,96H186C186,29.323,162.683,6,96,6Z"/><polygon class="cls-10" points="63.48 30.64 57.14 36.98 104.14 83.99 110.56 77.56 63.48 30.64"/><circle class="cls-11" cx="60" cy="33.5" r="4.5"/><circle class="cls-12" cx="60" cy="33.5" r="4.5"/><polygon class="cls-13" points="135.48 30.64 129.14 36.98 176.14 83.99 182.56 77.56 135.48 30.64"/><circle class="cls-11" cx="132" cy="33.5" r="4.5"/><circle class="cls-12" cx="132" cy="33.5" r="4.5"/><g id="_1x" data-name="1x"><g id="_18" data-name="18"><path class="cls-14" d="M106.825,185.771c53.537-2.323,75.457-22.949,78.733-74.853l-45.98-45.98L108,71l.917,22.774L75.553,60.409,44.487,86.348,63,105l-.314,36.562Z"/><path id="_8" data-name="8" class="cls-15" d="M120.946,143.517a35.79,35.79,0,0,1-10.931-1.559,24.64,24.64,0,0,1-8.373-4.482,19.347,19.347,0,0,1-5.324-7,21.724,21.724,0,0,1-1.793-8.888,24.113,24.113,0,0,1,1.308-8.183,22.225,22.225,0,0,1,3.551-6.412,25.8,25.8,0,0,1,5.231-4.9q1.5-1.06,3.127-2.05-.99-.642-1.955-1.336a23.772,23.772,0,0,1-4.624-4.375,21.611,21.611,0,0,1-3.384-5.99,22.285,22.285,0,0,1-1.32-7.932,22.022,22.022,0,0,1,1.666-8.5,20.519,20.519,0,0,1,4.823-7.023,22.574,22.574,0,0,1,7.677-4.7,29.208,29.208,0,0,1,10.321-1.7,32.034,32.034,0,0,1,10.776,1.636,21.306,21.306,0,0,1,7.72,4.668,19.164,19.164,0,0,1,4.619,7.018,23.682,23.682,0,0,1,1.479,8.381,20.914,20.914,0,0,1-1.141,6.982,22.862,22.862,0,0,1-3.013,5.779A24.139,24.139,0,0,1,137,97.569c-.693.56-1.4,1.1-2.117,1.607q1.82,1.1,3.393,2.261a25.021,25.021,0,0,1,4.955,4.791,19.6,19.6,0,0,1,3.183,6.191,26.007,26.007,0,0,1,1.064,7.7c0,7.313-2.442,13.129-7.257,17.286C135.516,141.46,129.033,143.517,120.946,143.517Zm-.842-37.971c-1.686.849-3.3,1.748-4.79,2.679a21.288,21.288,0,0,0-4.188,3.366,12.359,12.359,0,0,0-3.521,9.092,9.525,9.525,0,0,0,3.245,7.51c2.247,2.008,5.643,3.026,10.1,3.026,4.27,0,7.635-.98,10-2.913,2.249-1.837,3.341-4.479,3.341-8.076a12.873,12.873,0,0,0-.91-5.007,11.754,11.754,0,0,0-2.663-3.859,20.074,20.074,0,0,0-4.61-3.242A46.288,46.288,0,0,0,120.1,105.546Zm.842-35.1c-3.78,0-6.7.98-8.692,2.913a9.378,9.378,0,0,0-2.93,7.057A10.9,10.9,0,0,0,110.3,85.2a12.22,12.22,0,0,0,2.774,3.7,18.347,18.347,0,0,0,4.38,2.913,44.441,44.441,0,0,0,4.987,2.05,23.622,23.622,0,0,0,7.468-5.43,11.467,11.467,0,0,0,2.663-7.907,9.782,9.782,0,0,0-2.8-7.2C127.891,71.411,124.924,70.442,120.946,70.442Z"/></g></g><path id="_10" data-name="10" class="cls-15" d="M64,142.046a2.02,2.02,0,0,1-2.02-2.02V77.585L46.684,86.458a2.021,2.021,0,0,1-2.81-.823l-3.959-7.692a2.021,2.021,0,0,1,.761-2.66L65.9,60.239a2.022,2.022,0,0,1,1.034-.285h7.352a2.02,2.02,0,0,1,2.02,2.02v78.052a2.02,2.02,0,0,1-2.02,2.02Z"/></g></g></svg>