<svg xmlns="http://www.w3.org/2000/svg" xmlns:xlink="http://www.w3.org/1999/xlink" width="192" height="192" viewBox="0 0 192 192"><defs><style>.cls-1{fill:none;}.cls-2{opacity:0.01;}.cls-3{opacity:0.02;}.cls-4{opacity:0.04;}.cls-5{opacity:0.06;}.cls-6{fill:#f5f5f5;}.cls-7{fill:url(#未命名的渐变_6);}.cls-8{fill:url(#未命名的渐变_12);}.cls-9{fill:url(#未命名的渐变_27);}.cls-10{fill:url(#未命名的渐变_42);}.cls-11,.cls-12{fill:#fff;}.cls-12{opacity:0.4;}.cls-13{fill:url(#未命名的渐变_42-2);}.cls-14{fill:url(#未命名的渐变_57);}.cls-15{fill:#ef4b18;}</style><linearGradient id="未命名的渐变_6" x1="166.005" y1="166.003" x2="25.997" y2="25.995" gradientUnits="userSpaceOnUse"><stop offset="0" stop-opacity="0.12"/><stop offset="0.5" stop-color="gray" stop-opacity="0.05"/><stop offset="1" stop-color="#fff" stop-opacity="0.15"/></linearGradient><linearGradient id="未命名的渐变_12" x1="166.005" y1="166.003" x2="25.997" y2="25.995" gradientUnits="userSpaceOnUse"><stop offset="0" stop-opacity="0.04"/><stop offset="0.5" stop-color="gray" stop-opacity="0"/><stop offset="1" stop-color="#fff" stop-opacity="0.1"/></linearGradient><linearGradient id="未命名的渐变_27" x1="96" y1="96" x2="96" y2="6" gradientUnits="userSpaceOnUse"><stop offset="0" stop-opacity="0.08"/><stop offset="0.15" stop-opacity="0.06"/><stop offset="0.99" stop-opacity="0"/></linearGradient><linearGradient id="未命名的渐变_42" x1="57.14" y1="-40.685" x2="110.56" y2="-40.685" gradientTransform="translate(0 98)" gradientUnits="userSpaceOnUse"><stop offset="0" stop-opacity="0.12"/><stop offset="0.8" stop-opacity="0"/></linearGradient><linearGradient id="未命名的渐变_42-2" x1="129.14" y1="-40.685" x2="182.56" y2="-40.685" xlink:href="#未命名的渐变_42"/><linearGradient id="未命名的渐变_57" x1="164.367" y1="167.631" x2="63.785" y2="67.05" gradientUnits="userSpaceOnUse"><stop offset="0" stop-opacity="0"/><stop offset="1" stop-opacity="0.12"/></linearGradient></defs><title>android_calendar_d19</title><g id="图层_2" data-name="图层 2"><g id="图层_1-2" data-name="图层 1"><rect class="cls-1" width="192" height="192"/><circle class="cls-2" cx="96" cy="97" r="93"/><circle class="cls-3" cx="96" cy="97" r="92"/><circle class="cls-4" cx="96" cy="97" r="91"/><path class="cls-5" d="M186,97c0,66.672-23.317,90-90,90S6,163.674,6,97,29.321,7,96,7,186,30.323,186,97Z"/><path class="cls-6" d="M186,96c0,66.672-23.317,90-90,90S6,162.674,6,96,29.321,6,96,6,186,29.323,186,96Z"/><path class="cls-7" d="M186,96c0,66.672-23.317,90-90,90S6,162.674,6,96,29.321,6,96,6,186,29.323,186,96Z"/><path class="cls-8" d="M96,6C29.321,6,6,29.323,6,96s23.321,90,90,90,90-23.328,90-90S162.683,6,96,6Zm68.592,158.588C151.168,178.013,130.014,184,96,184s-55.166-5.986-68.59-19.411S8,130.011,8,96s5.986-55.166,19.41-68.589S61.988,8,96,8s55.168,5.986,68.592,19.411S184,61.987,184,96,178.014,151.164,164.592,164.588Z"/><path class="cls-9" d="M96,6C29.321,6,6,29.323,6,96H186C186,29.323,162.683,6,96,6Z"/><polygon class="cls-10" points="63.48 30.64 57.14 36.98 104.14 83.99 110.56 77.56 63.48 30.64"/><circle class="cls-11" cx="60" cy="33.5" r="4.5"/><circle class="cls-12" cx="60" cy="33.5" r="4.5"/><polygon class="cls-13" points="135.48 30.64 129.14 36.98 176.14 83.99 182.56 77.56 135.48 30.64"/><circle class="cls-11" cx="132" cy="33.5" r="4.5"/><circle class="cls-12" cx="132" cy="33.5" r="4.5"/><g id="_1x" data-name="1x"><g id="_19" data-name="19"><path class="cls-14" d="M106.825,185.771c52.815-2.291,74.857-22.4,78.588-72.775L136,63.583,106,70l-2.212,18.645L75.553,60.409,44.487,86.348,63,105l-.314,36.562Z"/><path id="_9" data-name="9" class="cls-15" d="M115.09,143.517a44.183,44.183,0,0,1-10.219-.959,29.479,29.479,0,0,1-4.964-1.479,2.052,2.052,0,0,1-1.08-2.335l1.935-8.144a2.006,2.006,0,0,1,.99-1.31,1.838,1.838,0,0,1,1.59-.074,9.472,9.472,0,0,0,1.459.408c.77.177,1.691.339,2.741.48q1.653.226,3.567.449a31.573,31.573,0,0,0,3.658.213,18.165,18.165,0,0,0,8.3-1.719,14.635,14.635,0,0,0,5.505-4.951,26.59,26.59,0,0,0,3.526-8.4c.45-1.806.834-3.767,1.147-5.865a25.688,25.688,0,0,1-3.122,2.194,21.73,21.73,0,0,1-11.376,2.982,26.186,26.186,0,0,1-9.125-1.585,20.36,20.36,0,0,1-7.641-4.99,24.321,24.321,0,0,1-5.169-8.507A34.961,34.961,0,0,1,94.9,87.764a38.042,38.042,0,0,1,1.833-12.277,26.793,26.793,0,0,1,5.24-9.238,22.192,22.192,0,0,1,8.225-5.818,27.765,27.765,0,0,1,10.585-1.948c8.178,0,14.707,3.211,19.405,9.544,4.584,6.182,6.908,15.677,6.908,28.222a86.879,86.879,0,0,1-2.156,20.47,44.8,44.8,0,0,1-6.27,14.823,26.923,26.923,0,0,1-10.191,9.011A29.882,29.882,0,0,1,115.09,143.517Zm5.8-72.4a13.382,13.382,0,0,0-5.859,1.171,10.294,10.294,0,0,0-3.862,3.147,13.611,13.611,0,0,0-2.236,4.819,25.491,25.491,0,0,0-.74,6.264c0,5.569,1.047,9.626,3.112,12.058,2.037,2.4,4.961,3.568,8.94,3.568,4.209,0,7.387-1.287,9.714-3.934a14.936,14.936,0,0,0,3.519-10.335,26.075,26.075,0,0,0-.795-6.381,16.761,16.761,0,0,0-2.338-5.337,12.373,12.373,0,0,0-3.9-3.664A10.672,10.672,0,0,0,120.893,71.12Z"/></g></g><path id="_10" data-name="10" class="cls-15" d="M64,142.046a2.02,2.02,0,0,1-2.02-2.02V77.585L46.684,86.458a2.021,2.021,0,0,1-2.81-.823l-3.959-7.692a2.021,2.021,0,0,1,.761-2.66L65.9,60.239a2.022,2.022,0,0,1,1.034-.285h7.352a2.02,2.02,0,0,1,2.02,2.02v78.052a2.02,2.02,0,0,1-2.02,2.02Z"/></g></g></svg>