<svg xmlns="http://www.w3.org/2000/svg" xmlns:xlink="http://www.w3.org/1999/xlink" width="192" height="192" viewBox="0 0 192 192"><defs><style>.cls-1{fill:none;}.cls-2{opacity:0.01;}.cls-3{opacity:0.02;}.cls-4{opacity:0.04;}.cls-5{opacity:0.06;}.cls-6{fill:#f5f5f5;}.cls-7{fill:url(#未命名的渐变_6);}.cls-8{fill:url(#未命名的渐变_12);}.cls-9{fill:url(#未命名的渐变_27);}.cls-10{fill:url(#未命名的渐变_42);}.cls-11,.cls-12{fill:#fff;}.cls-12{opacity:0.4;}.cls-13{fill:url(#未命名的渐变_42-2);}.cls-14{fill:url(#未命名的渐变_33);}.cls-15{fill:#ef4b18;}</style><linearGradient id="未命名的渐变_6" x1="166.005" y1="166.003" x2="25.997" y2="25.995" gradientUnits="userSpaceOnUse"><stop offset="0" stop-opacity="0.12"/><stop offset="0.5" stop-color="gray" stop-opacity="0.05"/><stop offset="1" stop-color="#fff" stop-opacity="0.15"/></linearGradient><linearGradient id="未命名的渐变_12" x1="166.005" y1="166.003" x2="25.997" y2="25.995" gradientUnits="userSpaceOnUse"><stop offset="0" stop-opacity="0.04"/><stop offset="0.5" stop-color="gray" stop-opacity="0"/><stop offset="1" stop-color="#fff" stop-opacity="0.1"/></linearGradient><linearGradient id="未命名的渐变_27" x1="96" y1="96" x2="96" y2="6" gradientUnits="userSpaceOnUse"><stop offset="0" stop-opacity="0.08"/><stop offset="0.15" stop-opacity="0.06"/><stop offset="0.99" stop-opacity="0"/></linearGradient><linearGradient id="未命名的渐变_42" x1="57.14" y1="-40.685" x2="110.56" y2="-40.685" gradientTransform="translate(0 98)" gradientUnits="userSpaceOnUse"><stop offset="0" stop-opacity="0.12"/><stop offset="0.8" stop-opacity="0"/></linearGradient><linearGradient id="未命名的渐变_42-2" x1="129.14" y1="-40.685" x2="182.56" y2="-40.685" xlink:href="#未命名的渐变_42"/><linearGradient id="未命名的渐变_33" x1="163.126" y1="168.876" x2="55.296" y2="61.045" gradientUnits="userSpaceOnUse"><stop offset="0" stop-opacity="0"/><stop offset="1" stop-opacity="0.12"/></linearGradient></defs><title>android_calendar_d25</title><g id="图层_2" data-name="图层 2"><g id="图层_1-2" data-name="图层 1"><rect class="cls-1" width="192" height="192"/><circle class="cls-2" cx="96" cy="97" r="93"/><circle class="cls-3" cx="96" cy="97" r="92"/><circle class="cls-4" cx="96" cy="97" r="91"/><path class="cls-5" d="M186,97c0,66.672-23.317,90-90,90S6,163.674,6,97,29.321,7,96,7,186,30.323,186,97Z"/><path class="cls-6" d="M186,96c0,66.672-23.317,90-90,90S6,162.674,6,96,29.321,6,96,6,186,29.323,186,96Z"/><path class="cls-7" d="M186,96c0,66.672-23.317,90-90,90S6,162.674,6,96,29.321,6,96,6,186,29.323,186,96Z"/><path class="cls-8" d="M96,6C29.321,6,6,29.323,6,96s23.321,90,90,90,90-23.328,90-90S162.683,6,96,6Zm68.592,158.588C151.168,178.013,130.014,184,96,184s-55.166-5.986-68.59-19.411S8,130.011,8,96s5.986-55.166,19.41-68.589S61.988,8,96,8s55.168,5.986,68.592,19.411S184,61.987,184,96,178.014,151.164,164.592,164.588Z"/><path class="cls-9" d="M96,6C29.321,6,6,29.323,6,96H186C186,29.323,162.683,6,96,6Z"/><polygon class="cls-10" points="63.48 30.64 57.14 36.98 104.14 83.99 110.56 77.56 63.48 30.64"/><circle class="cls-11" cx="60" cy="33.5" r="4.5"/><circle class="cls-12" cx="60" cy="33.5" r="4.5"/><polygon class="cls-13" points="135.48 30.64 129.14 36.98 176.14 83.99 182.56 77.56 135.48 30.64"/><circle class="cls-11" cx="132" cy="33.5" r="4.5"/><circle class="cls-12" cx="132" cy="33.5" r="4.5"/><g id="_2X" data-name="2X"><g id="_25" data-name="25"><path class="cls-14" d="M185.99,97.836l-37.9-37.9L116,66l-5.44,26.56L83.792,65.792,41.461,74.88l27.83,27.829-26.9,39.337L86.16,185.813Q90.917,186,96,186C162.065,186,185.56,163.1,185.99,97.836Z"/><path id="_5" data-name="5" class="cls-15" d="M121.594,142.781a60.79,60.79,0,0,1-11.862-1,51.581,51.581,0,0,1-7.7-2.062,2.045,2.045,0,0,1-1.2-2.441l2.15-8.144a2.008,2.008,0,0,1,.905-1.219,1.832,1.832,0,0,1,1.458-.187c1.222.358,3.1.782,5.581,1.26a56.671,56.671,0,0,0,10.132.7c4.959,0,8.994-1.328,11.993-3.947,2.932-2.561,4.357-6.271,4.357-11.34a21.564,21.564,0,0,0-.637-5.149,12.379,12.379,0,0,0-2.074-4.413,10.535,10.535,0,0,0-3.915-3.142,14.956,14.956,0,0,0-6.5-1.226,17.281,17.281,0,0,0-6.692,1.095,35.072,35.072,0,0,0-4.479,2.246,1.837,1.837,0,0,1-2.088-.1l-5.266-3.959a2.068,2.068,0,0,1-.79-1.884L109.157,61a1.957,1.957,0,0,1,1.906-1.779h35.571a1.972,1.972,0,0,1,1.919,2.02v8.936a1.972,1.972,0,0,1-1.919,2.02H119.807l-1.862,17.127q.464-.137,1.018-.289a30.787,30.787,0,0,1,7.9-.856,28.594,28.594,0,0,1,9.587,1.577,20.854,20.854,0,0,1,7.8,4.856,22.809,22.809,0,0,1,5.142,8.249,32.96,32.96,0,0,1,1.854,11.546,30.831,30.831,0,0,1-1.964,10.987,26.122,26.122,0,0,1-5.766,9.071,27.14,27.14,0,0,1-9.3,6.09A33.513,33.513,0,0,1,121.594,142.781Z"/></g></g><path id="_20" data-name="20" class="cls-15" d="M43.863,142.781a1.971,1.971,0,0,1-1.919-2.02v-1.81a47.665,47.665,0,0,1,1.3-11.546,37.061,37.061,0,0,1,3.985-9.765,47.557,47.557,0,0,1,6.561-8.623,92.786,92.786,0,0,1,9-8.207c2.177-1.775,4.154-3.48,5.865-5.061a33.977,33.977,0,0,0,4.163-4.538,17.248,17.248,0,0,0,2.405-4.344,13.634,13.634,0,0,0,.785-4.7A10.65,10.65,0,0,0,73.5,74.922c-1.618-1.884-4.358-2.841-8.14-2.841a14.782,14.782,0,0,0-5.163.847,19.441,19.441,0,0,0-4.163,2.109,17.842,17.842,0,0,0-3.1,2.648,29.853,29.853,0,0,0-2.263,2.751,1.9,1.9,0,0,1-1.327.8c-.07.007-.139.011-.208.011a1.861,1.861,0,0,1-1.251-.488l-6.126-5.543a2.1,2.1,0,0,1-.347-2.652,31.455,31.455,0,0,1,3.214-4.115,27.266,27.266,0,0,1,5.206-4.392,31.424,31.424,0,0,1,7.086-3.434,27.848,27.848,0,0,1,9.09-1.4,27.757,27.757,0,0,1,10.7,1.895,21.56,21.56,0,0,1,7.539,5.1,19.936,19.936,0,0,1,4.364,7.367,26.207,26.207,0,0,1,1.344,8.244,24.8,24.8,0,0,1-1.476,8.653,30.17,30.17,0,0,1-3.919,7.283,47.191,47.191,0,0,1-5.5,6.26c-2.008,1.921-4.129,3.785-6.3,5.538-2.664,2.141-5.043,4.215-7.073,6.166a50.321,50.321,0,0,0-5.117,5.656,27.2,27.2,0,0,0-3.252,5.364,17.492,17.492,0,0,0-1.068,3.173H89a1.972,1.972,0,0,1,1.919,2.02v8.822A1.972,1.972,0,0,1,89,142.781Z"/></g></g></svg>