<svg xmlns="http://www.w3.org/2000/svg" xmlns:xlink="http://www.w3.org/1999/xlink" width="192" height="192" viewBox="0 0 192 192"><defs><style>.cls-1{fill:none;}.cls-2{opacity:0.01;}.cls-3{opacity:0.02;}.cls-4{opacity:0.04;}.cls-5{opacity:0.06;}.cls-6{fill:#f5f5f5;}.cls-7{fill:url(#未命名的渐变_6);}.cls-8{fill:url(#未命名的渐变_12);}.cls-9{fill:url(#未命名的渐变_27);}.cls-10{fill:url(#未命名的渐变_42);}.cls-11,.cls-12{fill:#fff;}.cls-12{opacity:0.4;}.cls-13{fill:url(#未命名的渐变_42-2);}.cls-14{fill:url(#未命名的渐变_51);}.cls-15{fill:#ef4b18;}</style><linearGradient id="未命名的渐变_6" x1="166.005" y1="166.003" x2="25.997" y2="25.995" gradientUnits="userSpaceOnUse"><stop offset="0" stop-opacity="0.12"/><stop offset="0.5" stop-color="gray" stop-opacity="0.05"/><stop offset="1" stop-color="#fff" stop-opacity="0.15"/></linearGradient><linearGradient id="未命名的渐变_12" x1="166.005" y1="166.003" x2="25.997" y2="25.995" gradientUnits="userSpaceOnUse"><stop offset="0" stop-opacity="0.04"/><stop offset="0.5" stop-color="gray" stop-opacity="0"/><stop offset="1" stop-color="#fff" stop-opacity="0.1"/></linearGradient><linearGradient id="未命名的渐变_27" x1="96" y1="96" x2="96" y2="6" gradientUnits="userSpaceOnUse"><stop offset="0" stop-opacity="0.08"/><stop offset="0.15" stop-opacity="0.06"/><stop offset="0.99" stop-opacity="0"/></linearGradient><linearGradient id="未命名的渐变_42" x1="57.14" y1="-40.685" x2="110.56" y2="-40.685" gradientTransform="translate(0 98)" gradientUnits="userSpaceOnUse"><stop offset="0" stop-opacity="0.12"/><stop offset="0.8" stop-opacity="0"/></linearGradient><linearGradient id="未命名的渐变_42-2" x1="129.14" y1="-40.685" x2="182.56" y2="-40.685" xlink:href="#未命名的渐变_42"/><linearGradient id="未命名的渐变_51" x1="161.002" y1="171" x2="53.172" y2="63.17" gradientUnits="userSpaceOnUse"><stop offset="0" stop-opacity="0"/><stop offset="1" stop-opacity="0.12"/></linearGradient></defs><title>android_calendar_d28</title><g id="图层_2" data-name="图层 2"><g id="图层_1-2" data-name="图层 1"><rect class="cls-1" width="192" height="192"/><circle class="cls-2" cx="96" cy="97" r="93"/><circle class="cls-3" cx="96" cy="97" r="92"/><circle class="cls-4" cx="96" cy="97" r="91"/><path class="cls-5" d="M186,97c0,66.672-23.317,90-90,90S6,163.674,6,97,29.321,7,96,7,186,30.323,186,97Z"/><path class="cls-6" d="M186,96c0,66.672-23.317,90-90,90S6,162.674,6,96,29.321,6,96,6,186,29.323,186,96Z"/><path class="cls-7" d="M186,96c0,66.672-23.317,90-90,90S6,162.674,6,96,29.321,6,96,6,186,29.323,186,96Z"/><path class="cls-8" d="M96,6C29.321,6,6,29.323,6,96s23.321,90,90,90,90-23.328,90-90S162.683,6,96,6Zm68.592,158.588C151.168,178.013,130.014,184,96,184s-55.166-5.986-68.59-19.411S8,130.011,8,96s5.986-55.166,19.41-68.589S61.988,8,96,8s55.168,5.986,68.592,19.411S184,61.987,184,96,178.014,151.164,164.592,164.588Z"/><path class="cls-9" d="M96,6C29.321,6,6,29.323,6,96H186C186,29.323,162.683,6,96,6Z"/><polygon class="cls-10" points="63.48 30.64 57.14 36.98 104.14 83.99 110.56 77.56 63.48 30.64"/><circle class="cls-11" cx="60" cy="33.5" r="4.5"/><circle class="cls-12" cx="60" cy="33.5" r="4.5"/><polygon class="cls-13" points="135.48 30.64 129.14 36.98 176.14 83.99 182.56 77.56 135.48 30.64"/><circle class="cls-11" cx="132" cy="33.5" r="4.5"/><circle class="cls-12" cx="132" cy="33.5" r="4.5"/><g id="_2X" data-name="2X"><g id="_28" data-name="28"><path class="cls-14" d="M185.8,106.144,144.719,65.063,115,69l-6.533,21.467L83.792,65.792,41.461,74.88l27.83,27.829-26.9,39.337L86.16,185.813Q90.917,186,96,186C159.18,186,183.427,165.051,185.8,106.144Z"/><path id="_8" data-name="8" class="cls-15" d="M125.946,143.517a35.79,35.79,0,0,1-10.931-1.559,24.64,24.64,0,0,1-8.373-4.482,19.347,19.347,0,0,1-5.324-7,21.724,21.724,0,0,1-1.793-8.888,24.113,24.113,0,0,1,1.308-8.183,22.225,22.225,0,0,1,3.551-6.412,25.8,25.8,0,0,1,5.231-4.9q1.5-1.06,3.127-2.05-.99-.642-1.955-1.336a23.772,23.772,0,0,1-4.624-4.375,21.611,21.611,0,0,1-3.384-5.99,22.285,22.285,0,0,1-1.32-7.932,22.022,22.022,0,0,1,1.666-8.5,20.519,20.519,0,0,1,4.823-7.023,22.574,22.574,0,0,1,7.677-4.7,29.208,29.208,0,0,1,10.321-1.7,32.034,32.034,0,0,1,10.776,1.636,21.306,21.306,0,0,1,7.72,4.668,19.164,19.164,0,0,1,4.619,7.018,23.682,23.682,0,0,1,1.479,8.381,20.914,20.914,0,0,1-1.141,6.982,22.862,22.862,0,0,1-3.013,5.779A24.139,24.139,0,0,1,142,97.569c-.693.56-1.4,1.1-2.117,1.607q1.82,1.1,3.393,2.261a25.021,25.021,0,0,1,4.955,4.791,19.6,19.6,0,0,1,3.183,6.191,26.007,26.007,0,0,1,1.064,7.7c0,7.313-2.442,13.129-7.257,17.286C140.516,141.46,134.033,143.517,125.946,143.517Zm-.842-37.971c-1.686.849-3.3,1.748-4.79,2.679a21.288,21.288,0,0,0-4.188,3.366,12.359,12.359,0,0,0-3.521,9.092,9.525,9.525,0,0,0,3.245,7.51c2.247,2.008,5.643,3.026,10.1,3.026,4.27,0,7.635-.98,10-2.913,2.249-1.837,3.341-4.479,3.341-8.076a12.873,12.873,0,0,0-.91-5.007,11.754,11.754,0,0,0-2.663-3.859,20.074,20.074,0,0,0-4.61-3.242A46.288,46.288,0,0,0,125.1,105.546Zm.842-35.1c-3.78,0-6.7.98-8.692,2.913a9.378,9.378,0,0,0-2.93,7.057A10.9,10.9,0,0,0,115.3,85.2a12.22,12.22,0,0,0,2.774,3.7,18.347,18.347,0,0,0,4.38,2.913,44.441,44.441,0,0,0,4.987,2.05,23.622,23.622,0,0,0,7.468-5.43,11.467,11.467,0,0,0,2.663-7.907,9.782,9.782,0,0,0-2.8-7.2C132.891,71.411,129.924,70.442,125.946,70.442Z"/></g></g><path id="_20" data-name="20" class="cls-15" d="M43.863,142.781a1.971,1.971,0,0,1-1.919-2.02v-1.81a47.665,47.665,0,0,1,1.3-11.546,37.061,37.061,0,0,1,3.985-9.765,47.557,47.557,0,0,1,6.561-8.623,92.786,92.786,0,0,1,9-8.207c2.177-1.775,4.154-3.48,5.865-5.061a33.977,33.977,0,0,0,4.163-4.538,17.248,17.248,0,0,0,2.405-4.344,13.634,13.634,0,0,0,.785-4.7A10.65,10.65,0,0,0,73.5,74.922c-1.618-1.884-4.358-2.841-8.14-2.841a14.782,14.782,0,0,0-5.163.847,19.441,19.441,0,0,0-4.163,2.109,17.842,17.842,0,0,0-3.1,2.648,29.853,29.853,0,0,0-2.263,2.751,1.9,1.9,0,0,1-1.327.8c-.07.007-.139.011-.208.011a1.861,1.861,0,0,1-1.251-.488l-6.126-5.543a2.1,2.1,0,0,1-.347-2.652,31.455,31.455,0,0,1,3.214-4.115,27.266,27.266,0,0,1,5.206-4.392,31.424,31.424,0,0,1,7.086-3.434,27.848,27.848,0,0,1,9.09-1.4,27.757,27.757,0,0,1,10.7,1.895,21.56,21.56,0,0,1,7.539,5.1,19.936,19.936,0,0,1,4.364,7.367,26.207,26.207,0,0,1,1.344,8.244,24.8,24.8,0,0,1-1.476,8.653,30.17,30.17,0,0,1-3.919,7.283,47.191,47.191,0,0,1-5.5,6.26c-2.008,1.921-4.129,3.785-6.3,5.538-2.664,2.141-5.043,4.215-7.073,6.166a50.321,50.321,0,0,0-5.117,5.656,27.2,27.2,0,0,0-3.252,5.364,17.492,17.492,0,0,0-1.068,3.173H89a1.972,1.972,0,0,1,1.919,2.02v8.822A1.972,1.972,0,0,1,89,142.781Z"/></g></g></svg>