<svg xmlns="http://www.w3.org/2000/svg" xmlns:xlink="http://www.w3.org/1999/xlink" width="192" height="192" viewBox="0 0 192 192"><defs><style>.cls-1{fill:none;}.cls-2{opacity:0.01;}.cls-3{opacity:0.02;}.cls-4{opacity:0.04;}.cls-5{opacity:0.06;}.cls-6{fill:#f5f5f5;}.cls-7{fill:url(#未命名的渐变_6);}.cls-8{fill:url(#未命名的渐变_12);}.cls-9{fill:url(#未命名的渐变_27);}.cls-10{fill:url(#未命名的渐变_42);}.cls-11,.cls-12{fill:#fff;}.cls-12{opacity:0.4;}.cls-13{fill:url(#未命名的渐变_42-2);}.cls-14{fill:url(#未命名的渐变_58);}.cls-15{fill:#ef4b18;}</style><linearGradient id="未命名的渐变_6" x1="166.005" y1="166.003" x2="25.997" y2="25.995" gradientUnits="userSpaceOnUse"><stop offset="0" stop-opacity="0.12"/><stop offset="0.5" stop-color="gray" stop-opacity="0.05"/><stop offset="1" stop-color="#fff" stop-opacity="0.15"/></linearGradient><linearGradient id="未命名的渐变_12" x1="166.005" y1="166.003" x2="25.997" y2="25.995" gradientUnits="userSpaceOnUse"><stop offset="0" stop-opacity="0.04"/><stop offset="0.5" stop-color="gray" stop-opacity="0"/><stop offset="1" stop-color="#fff" stop-opacity="0.1"/></linearGradient><linearGradient id="未命名的渐变_27" x1="96" y1="96" x2="96" y2="6" gradientUnits="userSpaceOnUse"><stop offset="0" stop-opacity="0.08"/><stop offset="0.15" stop-opacity="0.06"/><stop offset="0.99" stop-opacity="0"/></linearGradient><linearGradient id="未命名的渐变_42" x1="57.14" y1="-40.685" x2="110.56" y2="-40.685" gradientTransform="translate(0 98)" gradientUnits="userSpaceOnUse"><stop offset="0" stop-opacity="0.12"/><stop offset="0.8" stop-opacity="0"/></linearGradient><linearGradient id="未命名的渐变_42-2" x1="129.14" y1="-40.685" x2="182.56" y2="-40.685" xlink:href="#未命名的渐变_42"/><linearGradient id="未命名的渐变_58" x1="160.785" y1="171.218" x2="56.813" y2="67.247" gradientUnits="userSpaceOnUse"><stop offset="0" stop-opacity="0"/><stop offset="1" stop-opacity="0.12"/></linearGradient></defs><title>android_calendar_d30</title><g id="图层_2" data-name="图层 2"><g id="图层_1-2" data-name="图层 1"><rect class="cls-1" width="192" height="192"/><circle class="cls-2" cx="96" cy="97" r="93"/><circle class="cls-3" cx="96" cy="97" r="92"/><circle class="cls-4" cx="96" cy="97" r="91"/><path class="cls-5" d="M186,97c0,66.672-23.317,90-90,90S6,163.674,6,97,29.321,7,96,7,186,30.323,186,97Z"/><path class="cls-6" d="M186,96c0,66.672-23.317,90-90,90S6,162.674,6,96,29.321,6,96,6,186,29.323,186,96Z"/><path class="cls-7" d="M186,96c0,66.672-23.317,90-90,90S6,162.674,6,96,29.321,6,96,6,186,29.323,186,96Z"/><path class="cls-8" d="M96,6C29.321,6,6,29.323,6,96s23.321,90,90,90,90-23.328,90-90S162.683,6,96,6Zm68.592,158.588C151.168,178.013,130.014,184,96,184s-55.166-5.986-68.59-19.411S8,130.011,8,96s5.986-55.166,19.41-68.589S61.988,8,96,8s55.168,5.986,68.592,19.411S184,61.987,184,96,178.014,151.164,164.592,164.588Z"/><path class="cls-9" d="M96,6C29.321,6,6,29.323,6,96H186C186,29.323,162.683,6,96,6Z"/><polygon class="cls-10" points="63.48 30.64 57.14 36.98 104.14 83.99 110.56 77.56 63.48 30.64"/><circle class="cls-11" cx="60" cy="33.5" r="4.5"/><circle class="cls-12" cx="60" cy="33.5" r="4.5"/><polygon class="cls-13" points="135.48 30.64 129.14 36.98 176.14 83.99 182.56 77.56 135.48 30.64"/><circle class="cls-11" cx="132" cy="33.5" r="4.5"/><circle class="cls-12" cx="132" cy="33.5" r="4.5"/><g id="_3X" data-name="3X"><g id="_30" data-name="30"><path class="cls-14" d="M185.757,107.173l-42.09-42.09L112,73l-4.222,15.778L84.5,65.5,60,69,46.641,77.419l20.97,20.97-14.67,7.619,23.026,23.025L40.55,140l45.822,45.822Q91.03,186,96,186C158.811,186,183.142,165.3,185.757,107.173Z"/><path id="_0" data-name="0" class="cls-15" d="M126,143.517c-9.744,0-17.045-3.79-21.7-11.263-4.487-7.2-6.762-17.717-6.762-31.254,0-13.459,2.274-23.954,6.76-31.193,4.655-7.514,11.957-11.324,21.7-11.324,9.67,0,16.952,3.808,21.645,11.317,4.524,7.244,6.818,17.741,6.818,31.2,0,13.614-2.276,24.15-6.766,31.315C143.042,139.748,135.742,143.517,126,143.517Zm0-71.944c-4.873,0-8.382,2.208-10.727,6.749-2.52,4.881-3.8,12.511-3.8,22.678s1.262,17.83,3.752,22.749c2.31,4.57,5.833,6.792,10.772,6.792,4.867,0,8.374-2.242,10.72-6.852,2.524-4.958,3.8-12.591,3.8-22.689,0-10.167-1.277-17.8-3.8-22.678C134.381,73.781,130.872,71.573,126,71.573Z"/></g></g><path id="_30-2" data-name="30" class="cls-15" d="M61.871,143.517a67.263,67.263,0,0,1-12.486-1,56.422,56.422,0,0,1-8.107-2.062,2.02,2.02,0,0,1-1.262-2.441l2.263-8.144a2.023,2.023,0,0,1,1.946-1.48,2.041,2.041,0,0,1,.542.074c1.3.364,3.289.808,5.9,1.321a56.555,56.555,0,0,0,10.413.755c5.058,0,9.159-1.077,12.189-3.2,2.847-1.992,4.23-4.984,4.23-9.148a10.87,10.87,0,0,0-3.5-8.317c-2.353-2.223-6.32-3.351-11.79-3.351H54.293a2.02,2.02,0,0,1-2.02-2.02V95.684a2.02,2.02,0,0,1,2.02-2.02h7.578A20.87,20.87,0,0,0,68.62,92.7a12.008,12.008,0,0,0,4.366-2.5,9.567,9.567,0,0,0,2.437-3.656,13.175,13.175,0,0,0,.83-4.658,11.251,11.251,0,0,0-2.678-7.675c-1.7-1.973-4.649-2.974-8.762-2.974a22.12,22.12,0,0,0-5.438.615,23,23,0,0,0-4.368,1.556,18.555,18.555,0,0,0-3.265,1.984c-.977.76-1.8,1.437-2.443,2.009a2.021,2.021,0,0,1-2.812-.126L40.945,71.39a2.02,2.02,0,0,1-.093-2.665,24.151,24.151,0,0,1,3.272-3.16,28.583,28.583,0,0,1,5.234-3.355,37.256,37.256,0,0,1,6.94-2.636,32.865,32.865,0,0,1,8.741-1.091A32.745,32.745,0,0,1,76.376,60.25,22.965,22.965,0,0,1,84.367,65.1,19.325,19.325,0,0,1,89.1,72.17,22.793,22.793,0,0,1,90.588,80.3,21.943,21.943,0,0,1,89.4,87.711a21.143,21.143,0,0,1-3.254,5.94,23.959,23.959,0,0,1-4.757,4.571q-.7.509-1.424.968.951.442,1.86.959a20.3,20.3,0,0,1,5.341,4.4,20.587,20.587,0,0,1,3.577,6.082,21.112,21.112,0,0,1,1.32,7.563A24.469,24.469,0,0,1,89.7,129.1a22.823,22.823,0,0,1-6.514,8,28.984,28.984,0,0,1-9.6,4.808A41.223,41.223,0,0,1,61.871,143.517Z"/></g></g></svg>