<?xml version="1.0" encoding="UTF-8" standalone="no"?>
<!-- Generator: Adobe Illustrator 15.0.2, SVG Export Plug-In . SVG Version: 6.00 Build 0)  -->

<svg
   xmlns:dc="http://purl.org/dc/elements/1.1/"
   xmlns:cc="http://creativecommons.org/ns#"
   xmlns:rdf="http://www.w3.org/1999/02/22-rdf-syntax-ns#"
   xmlns:svg="http://www.w3.org/2000/svg"
   xmlns="http://www.w3.org/2000/svg"
   xmlns:sodipodi="http://sodipodi.sourceforge.net/DTD/sodipodi-0.dtd"
   xmlns:inkscape="http://www.inkscape.org/namespaces/inkscape"
   version="1.1"
   id="Livello_1"
   x="0px"
   y="0px"
   width="96px"
   height="96px"
   viewBox="0 0 96 96"
   enable-background="new 0 0 96 96"
   xml:space="preserve"
   sodipodi:docname="icon-launcher-folder-13.svg"
   inkscape:version="0.92.2 2405546, 2018-03-11"><metadata
   id="metadata86"><rdf:RDF><cc:Work
       rdf:about=""><dc:format>image/svg+xml</dc:format><dc:type
         rdf:resource="http://purl.org/dc/dcmitype/StillImage" /></cc:Work></rdf:RDF></metadata><defs
   id="defs84" /><sodipodi:namedview
   pagecolor="#ffffff"
   bordercolor="#666666"
   borderopacity="1"
   objecttolerance="10"
   gridtolerance="10"
   guidetolerance="10"
   inkscape:pageopacity="0"
   inkscape:pageshadow="2"
   inkscape:window-width="1366"
   inkscape:window-height="717"
   id="namedview82"
   showgrid="false"
   inkscape:zoom="2.4583333"
   inkscape:cx="47.999999"
   inkscape:cy="47.999999"
   inkscape:window-x="0"
   inkscape:window-y="25"
   inkscape:window-maximized="1"
   inkscape:current-layer="Livello_1" />
<path
   d="M 93,48.555556 C 93,81.481111 81.341625,93 48,93 14.660625,93 3,81.481111 3,48.555556 3,15.627778 14.660625,4.1111111 48,4.1111111 c 33.341625,0 45,11.5166669 45,44.4444449 z"
   id="path2"
   inkscape:connector-curvature="0"
   style="fill-opacity:0.4;stroke-width:1.11803401" />
<rect
   width="90"
   height="90"
   id="rect4"
   x="3"
   y="3"
   style="fill:none;stroke-width:0.9375" />
<linearGradient
   id="SVGID_1_"
   gradientUnits="userSpaceOnUse"
   x1="18.8052"
   y1="-147.8652"
   x2="18.8052"
   y2="-163.8652"
   gradientTransform="matrix(1.125,0,0,-1.1111111,26.84415,-161.29467)">
	<stop
   offset="0"
   style="stop-color:#E4BE34"
   id="stop6" />
	<stop
   offset="1"
   style="stop-color:#E0AA18"
   id="stop8" />
</linearGradient>
<path
   d="M 88.5045,20.777778 C 82.4835,7.9888889 69.936375,3 48,3 26.06475,3 13.5165,7.9888889 7.4955,20.777778 Z"
   id="path11"
   style="fill:url(#SVGID_1_);stroke-width:1.11803401"
   inkscape:connector-curvature="0" />
<path
   d="m 48,91.888889 c 33.343875,0 45,-11.517778 45,-44.444445 0,-12.751111 -1.7595,-22.278889 -5.837625,-29.183333 h -41.0715 C 45.467625,17.506667 44.346,16.096667 42.39525,13.503334 41.3175,12.071111 38.875125,9.6666667 34.63275,9.6666667 H 16.98825 C 7.001625,16.255555 3,28.182222 3,47.444444 3,80.371111 14.660625,91.888889 48,91.888889 Z"
   id="path13"
   inkscape:connector-curvature="0"
   style="fill-opacity:0.02000002;stroke-width:1.11803401" />
<path
   d="m 48,91.888889 c 33.343875,0 45,-11.517778 45,-44.444445 C 93,35.037778 91.340625,25.673333 87.495375,18.816667 H 45.82425 c -0.547875,-0.653334 -1.693125,-2.073333 -3.882375,-4.981111 -1.013625,-1.35 -3.315375,-3.613334 -7.309125,-3.613334 h -18.459 C 6.781125,16.916666 3,28.713334 3,47.444444 3,80.371111 14.660625,91.888889 48,91.888889 Z"
   id="path15"
   inkscape:connector-curvature="0"
   style="fill-opacity:0.02000002;stroke-width:1.11803401" />
<path
   d="m 48,91.888889 c 33.343875,0 45,-11.517778 45,-44.444445 C 93,35.365555 91.42275,26.177778 87.787875,19.372222 H 45.56325 c -0.4815,-0.56 -1.632375,-1.964444 -4.071375,-5.205555 -0.954,-1.265556 -3.11175,-3.388889 -6.859125,-3.388889 H 15.427875 C 6.58425,17.561111 3,29.218889 3,47.444444 3,80.371111 14.660625,91.888889 48,91.888889 Z"
   id="path17"
   inkscape:connector-curvature="0"
   style="fill-opacity:0.05;stroke-width:1.11803401" />
<path
   d="m 48,91.888889 c 33.343875,0 45,-11.517778 45,-44.444445 C 93,35.69 91.50375,26.676667 88.07475,19.927777 H 45.3045 c -0.367875,-0.414444 -1.48725,-1.74 -4.26375,-5.429999 -0.889875,-1.181112 -2.905875,-3.165556 -6.406875,-3.165556 h -19.908 C 6.393,18.192222 3,29.707777 3,47.444444 3,80.371111 14.660625,91.888889 48,91.888889 Z"
   id="path19"
   inkscape:connector-curvature="0"
   style="fill-opacity:0.05;stroke-width:1.11803401" />
<linearGradient
   id="SVGID_2_"
   gradientUnits="userSpaceOnUse"
   x1="18.8052"
   y1="-155.8652"
   x2="18.8052"
   y2="-227.8652"
   gradientTransform="matrix(1.125,0,0,-1.1111111,26.84415,-161.29467)">
	<stop
   offset="0"
   style="stop-color:#E6CD49"
   id="stop21" />
	<stop
   offset="1"
   style="stop-color:#E0A714"
   id="stop23" />
</linearGradient>
<path
   d="m 48,91.888889 c 33.343875,0 45,-11.517778 45,-44.444445 0,-11.431111 -1.409625,-20.276666 -4.638375,-26.961111 h -43.30575 c 0,0 -0.826875,-0.816666 -4.467375,-5.654444 -1.072125,-1.425556 -2.977875,-2.94 -5.95575,-2.94 -3.6225,0 -13.426875,0 -20.5605,0 C 6.214125,18.807778 3,30.178889 3,47.444444 3,80.371111 14.660625,91.888889 48,91.888889 Z"
   id="path26"
   style="fill:url(#SVGID_2_);stroke-width:1.11803401"
   inkscape:connector-curvature="0" />
<path
   d="M 34.63275,11.888889 H 14.07225 C 13.663875,12.247778 13.263375,12.615556 12.87975,13 h 21.753 c 2.601,0 5.072625,1.141111 6.370875,2.381112 C 40.8675,15.2 40.733625,15.023333 40.5885,14.83 39.516375,13.403333 37.610625,11.888889 34.63275,11.888889 Z m 53.728875,8.594444 h -43.30575 l 0.905625,1.092223 42.8985,0.01445 c -0.163125,-0.372225 -0.325125,-0.745558 -0.498375,-1.106669 z"
   id="path28"
   inkscape:connector-curvature="0"
   style="fill:#ffffff;fill-opacity:0.5;stroke-width:1.11803401" />
<linearGradient
   id="SVGID_3_"
   gradientUnits="userSpaceOnUse"
   x1="-175.1201"
   y1="-963.959"
   x2="-175.1201"
   y2="-1043.2036"
   gradientTransform="matrix(1.125,0,0,-1.1111111,245.01011,-1067.7846)">
	<stop
   offset="0"
   style="stop-color:#FFFFFF"
   id="stop30" />
	<stop
   offset="1"
   style="stop-color:#FFFFFF;stop-opacity:0"
   id="stop32" />
</linearGradient>
<path
   d="M 48,3 C 14.660625,3 3,14.517778 3,47.444444 c 0,32.926667 11.660625,44.444445 45,44.444445 33.343875,0 45,-11.517778 45,-44.444445 C 93,14.517778 81.341625,3 48,3 Z m 0,87.777778 C 15.19725,90.777778 4.125,79.842222 4.125,47.444444 4.125,15.046667 15.19725,4.1111111 48,4.1111111 c 32.80275,0 43.875,10.9355559 43.875,43.3333329 0,32.397778 -11.07225,43.333334 -43.875,43.333334 z"
   id="path35"
   style="fill:url(#SVGID_3_);fill-opacity:0.15;stroke-width:1.11803401"
   inkscape:connector-curvature="0" />
<polygon
   points="52.161,42.874 52.161,32.837 50.488,32.837 50.488,39.256 47.143,32.837 45.471,32.837 45.471,42.874 47.143,42.874 47.143,36.455 50.488,42.874 "
   id="polygon37"
   transform="matrix(1.125,0,0,1.1111111,-6,-5.8888884)"
   style="opacity:0.5;fill-opacity:0.9" />
<polygon
   points="52.161,44.874 52.161,34.837 50.488,34.837 50.488,41.256 47.143,34.837 45.471,34.837 45.471,44.874 47.143,44.874 47.143,38.455 50.488,44.874 "
   id="polygon39"
   transform="matrix(1.125,0,0,1.1111111,-6,-5.8888884)"
   style="opacity:0.5;fill:#ffffff;fill-opacity:0.9" />
<linearGradient
   id="SVGID_4_"
   gradientUnits="userSpaceOnUse"
   x1="48.8154"
   y1="43.874"
   x2="48.8154"
   y2="33.8369">
	<stop
   offset="0"
   style="stop-color:#CE820A"
   id="stop41" />
	<stop
   offset="0.25"
   style="stop-color:#CE820A"
   id="stop43" />
	<stop
   offset="1"
   style="stop-color:#D6A214"
   id="stop45" />
</linearGradient>
<polygon
   points="52.161,43.874 52.161,33.837 50.488,33.837 50.488,40.256 47.143,33.837 45.47,33.837 45.47,43.874 47.143,43.874 47.143,37.455 50.488,43.874 "
   id="polygon48"
   style="fill:url(#SVGID_4_);fill-opacity:0.9"
   transform="matrix(1.125,0,0,1.1111111,-6,-5.8888884)" />
<polygon
   points="51.169,54.66 28.434,38.861 44.82,61.183 67.568,76.998 "
   id="polygon50"
   transform="matrix(1.125,0,0,1.1111111,-6,-5.8888884)"
   style="opacity:0.5;fill-opacity:0.9" />
<polygon
   points="51.169,56.66 28.434,40.861 44.82,63.183 67.568,78.998 "
   id="polygon52"
   transform="matrix(1.125,0,0,1.1111111,-6,-5.8888884)"
   style="opacity:0.5;fill:#ffffff;fill-opacity:0.9" />
<linearGradient
   id="SVGID_5_"
   gradientUnits="userSpaceOnUse"
   x1="18.8062"
   y1="-217.7275"
   x2="18.8062"
   y2="-179.4752"
   gradientTransform="matrix(1,0,0,-1,29.1948,-139.8652)">
	<stop
   offset="0"
   style="stop-color:#CE820A"
   id="stop54" />
	<stop
   offset="0.25"
   style="stop-color:#CE820A"
   id="stop56" />
	<stop
   offset="1"
   style="stop-color:#D6A214"
   id="stop58" />
</linearGradient>
<polygon
   points="51.169,55.662 28.433,39.863 44.821,62.185 67.568,78 "
   id="polygon61"
   style="fill:url(#SVGID_5_);fill-opacity:0.9"
   transform="matrix(1.125,0,0,1.1111111,-6,-5.8888884)" />
<ellipse
   cx="47.976376"
   cy="60.053333"
   id="circle63"
   rx="3.2939999"
   ry="3.2533333"
   style="fill-opacity:0.4;stroke-width:1.11803401" />
<linearGradient
   id="SVGID_6_"
   gradientUnits="userSpaceOnUse"
   x1="18.7847"
   y1="-196.7041"
   x2="18.7847"
   y2="-203.7124"
   gradientTransform="matrix(1.125,0,0,-1.1111111,26.84415,-161.29467)">
	<stop
   offset="0"
   style="stop-color:#E6CD49"
   id="stop65" />
	<stop
   offset="1"
   style="stop-color:#E0A714"
   id="stop67" />
</linearGradient>
<ellipse
   cx="47.976376"
   cy="59.58889"
   id="circle70"
   style="fill:url(#SVGID_6_);stroke-width:1.11803401"
   rx="2.82375"
   ry="2.7888889" />
<ellipse
   cx="47.976376"
   cy="59.58889"
   id="circle72"
   rx="2.82375"
   ry="2.7888889"
   style="opacity:0.5;fill:#ffffff;stroke-width:1.11803401" />
<linearGradient
   id="SVGID_7_"
   gradientUnits="userSpaceOnUse"
   x1="18.8062"
   y1="-197.1709"
   x2="18.8062"
   y2="-203.4566"
   gradientTransform="matrix(1.125,0,0,-1.1111111,26.84415,-161.29467)">
	<stop
   offset="0"
   style="stop-color:#E6CD49"
   id="stop74" />
	<stop
   offset="1"
   style="stop-color:#E0A714"
   id="stop76" />
</linearGradient>
<ellipse
   cx="48.001122"
   cy="59.867779"
   id="circle79"
   style="fill:url(#SVGID_7_);stroke-width:1.11803401"
   rx="2.5323751"
   ry="2.501111" />
</svg>