<?xml version="1.0" encoding="UTF-8" standalone="no"?>
<!-- Generator: Adobe Illustrator 15.0.2, SVG Export Plug-In . SVG Version: 6.00 Build 0)  -->

<svg
   xmlns:dc="http://purl.org/dc/elements/1.1/"
   xmlns:cc="http://creativecommons.org/ns#"
   xmlns:rdf="http://www.w3.org/1999/02/22-rdf-syntax-ns#"
   xmlns:svg="http://www.w3.org/2000/svg"
   xmlns="http://www.w3.org/2000/svg"
   xmlns:sodipodi="http://sodipodi.sourceforge.net/DTD/sodipodi-0.dtd"
   xmlns:inkscape="http://www.inkscape.org/namespaces/inkscape"
   version="1.1"
   id="Livello_1"
   x="0px"
   y="0px"
   width="96px"
   height="96px"
   viewBox="0 0 96 96"
   enable-background="new 0 0 96 96"
   xml:space="preserve"
   sodipodi:docname="icon-launcher-folder-07.svg"
   inkscape:version="0.92.2 2405546, 2018-03-11"><metadata
   id="metadata65"><rdf:RDF><cc:Work
       rdf:about=""><dc:format>image/svg+xml</dc:format><dc:type
         rdf:resource="http://purl.org/dc/dcmitype/StillImage" /></cc:Work></rdf:RDF></metadata><defs
   id="defs63" /><sodipodi:namedview
   pagecolor="#ffffff"
   bordercolor="#666666"
   borderopacity="1"
   objecttolerance="10"
   gridtolerance="10"
   guidetolerance="10"
   inkscape:pageopacity="0"
   inkscape:pageshadow="2"
   inkscape:window-width="1366"
   inkscape:window-height="717"
   id="namedview61"
   showgrid="false"
   inkscape:zoom="2.4583333"
   inkscape:cx="48"
   inkscape:cy="47.186441"
   inkscape:window-x="0"
   inkscape:window-y="25"
   inkscape:window-maximized="1"
   inkscape:current-layer="Livello_1" />
<path
   d="M 96,48.592593 C 96,83.715556 83.5668,96 48,96 12.438,96 0,83.715556 0,48.592593 0,13.472 12.438,1.1851852 48,1.1851852 c 35.5644,0 48,12.2868148 48,47.4074078 z"
   id="path2"
   inkscape:connector-curvature="0"
   style="fill-opacity:0.4;stroke-width:1.19256961" />
<rect
   fill="none"
   width="96"
   height="96"
   id="rect4" />
<linearGradient
   id="SVGID_1_"
   gradientUnits="userSpaceOnUse"
   x1="18.8052"
   y1="-147.8652"
   x2="18.8052"
   y2="-163.8652"
   gradientTransform="matrix(1.2,0,0,-1.1851852,25.43376,-175.24765)">
	<stop
   offset="0"
   style="stop-color:#E4BE34"
   id="stop6" />
	<stop
   offset="1"
   style="stop-color:#E0AA18"
   id="stop8" />
</linearGradient>
<path
   d="M 91.2048,18.962963 C 84.7824,5.3214815 71.3988,0 48,0 24.6024,0 11.2176,5.3214815 4.7952,18.962963 Z"
   id="path11"
   style="fill:url(#SVGID_1_);stroke-width:1.19256961"
   inkscape:connector-curvature="0" />
<path
   d="m 48,94.814815 c 35.5668,0 48,-12.28563 48,-47.407408 C 96,33.806222 94.1244,23.643259 89.7732,16.278518 H 45.9636 c -0.6648,-0.80474 -1.8612,-2.30874 -3.942,-5.074962 C 40.872,9.6758519 38.2668,7.1111111 33.7416,7.1111111 H 14.922 C 4.2684,14.139259 0,26.861037 0,47.407407 0,82.529185 12.438,94.814815 48,94.814815 Z"
   id="path13"
   inkscape:connector-curvature="0"
   style="fill-opacity:0.02000002;stroke-width:1.19256961" />
<path
   d="m 48,94.814815 c 35.5668,0 48,-12.28563 48,-47.407408 C 96,34.17363 94.23,24.184889 90.1284,16.871111 H 45.6792 c -0.5844,-0.696889 -1.806,-2.211555 -4.14,-5.313185 -1.0824,-1.44 -3.5364,-3.8542223 -7.7976,-3.8542223 H 14.052 C 4.0332,14.844444 0,27.427556 0,47.407407 0,82.529185 12.438,94.814815 48,94.814815 Z"
   id="path15"
   inkscape:connector-curvature="0"
   style="fill-opacity:0.05;stroke-width:1.19256961" />
<path
   d="m 48,94.814815 c 35.5668,0 48,-12.28563 48,-47.407408 C 96,34.523259 94.3176,24.722963 90.4416,17.463704 H 45.3996 C 44.8872,16.86637 43.6596,15.368296 41.058,11.911111 40.0416,10.561185 37.7388,8.2962963 33.7416,8.2962963 H 13.2564 C 3.8232,15.531852 0,27.966815 0,47.407407 0,82.529185 12.438,94.814815 48,94.814815 Z"
   id="path17"
   inkscape:connector-curvature="0"
   style="fill-opacity:0.05;stroke-width:1.19256961" />
<path
   d="m 48,94.814815 c 35.5668,0 48,-12.28563 48,-47.407408 C 96,34.869333 94.404,25.255111 90.7464,18.056296 H 45.1248 c -0.3924,-0.442074 -1.5864,-1.856 -4.548,-5.792 -0.9492,-1.259852 -3.0984,-3.3765923 -6.834,-3.3765923 H 12.5076 C 3.6192,16.205037 0,28.488296 0,47.407407 0,82.529185 12.438,94.814815 48,94.814815 Z"
   id="path19"
   inkscape:connector-curvature="0"
   style="fill-opacity:0.1;stroke-width:1.19256961" />
<linearGradient
   id="SVGID_2_"
   gradientUnits="userSpaceOnUse"
   x1="18.8052"
   y1="-155.8652"
   x2="18.8052"
   y2="-227.8652"
   gradientTransform="matrix(1.2,0,0,-1.1851852,25.43376,-175.24765)">
	<stop
   offset="0"
   style="stop-color:#E6CD49"
   id="stop21" />
	<stop
   offset="1"
   style="stop-color:#E0A714"
   id="stop23" />
</linearGradient>
<path
   d="m 48,94.814815 c 35.5668,0 48,-12.28563 48,-47.407408 C 96,35.214222 94.4964,25.778963 91.0512,18.648889 H 44.8596 c 0,0 -0.882,-0.871111 -4.7652,-6.031407 -1.1448,-1.520593 -3.1764,-3.1360005 -6.3528,-3.1360005 -3.8628,0 -14.322,0 -21.9312,0 C 3.4284,16.86163 0,28.990815 0,47.407407 0,82.529185 12.438,94.814815 48,94.814815 Z"
   id="path26"
   style="fill:url(#SVGID_2_);stroke-width:1.19256961"
   inkscape:connector-curvature="0" />
<path
   d="M 33.7416,9.4814815 H 11.8104 c -0.4356,0.3828148 -0.8628,0.7751115 -1.272,1.1851855 h 23.2032 c 2.7744,0 5.4096,1.217185 6.7956,2.539852 -0.1452,-0.193186 -0.288,-0.38163 -0.4428,-0.587852 C 38.9496,11.096889 36.918,9.4814815 33.7416,9.4814815 Z M 91.0512,18.648889 H 44.8596 l 0.966,1.165037 45.7584,0.01541 c -0.174,-0.39704 -0.3468,-0.795262 -0.5328,-1.180447 z"
   id="path28"
   inkscape:connector-curvature="0"
   style="fill:#ffffff;fill-opacity:0.5;stroke-width:1.19256961" />
<linearGradient
   id="SVGID_3_"
   gradientUnits="userSpaceOnUse"
   x1="-175.1201"
   y1="-963.959"
   x2="-175.1201"
   y2="-1043.2036"
   gradientTransform="matrix(1.2,0,0,-1.1851852,258.14412,-1142.1702)">
	<stop
   offset="0"
   style="stop-color:#FFFFFF"
   id="stop30" />
	<stop
   offset="1"
   style="stop-color:#FFFFFF;stop-opacity:0"
   id="stop32" />
</linearGradient>
<path
   d="M 48,0 C 12.438,0 0,12.28563 0,47.407407 c 0,35.121778 12.438,47.407408 48,47.407408 35.5668,0 48,-12.28563 48,-47.407408 C 96,12.28563 83.5644,0 48,0 Z m 0,93.62963 C 13.0104,93.62963 1.2,81.965037 1.2,47.407407 1.2,12.849778 13.0104,1.1851852 48,1.1851852 c 34.9896,0 46.8,11.6645928 46.8,46.2222218 0,34.55763 -11.8104,46.222223 -46.8,46.222223 z"
   id="path35"
   style="fill:url(#SVGID_3_);fill-opacity:0.15;stroke-width:1.19256961"
   inkscape:connector-curvature="0" />
<linearGradient
   id="SVGID_4_"
   gradientUnits="userSpaceOnUse"
   x1="21.356"
   y1="-176.5811"
   x2="21.356"
   y2="-244.9625"
   gradientTransform="matrix(1.2,0,0,-1.1851852,25.43376,-175.24765)">
	<stop
   offset="0"
   style="stop-color:#D6A214"
   id="stop37" />
	<stop
   offset="0.75"
   style="stop-color:#CE820A"
   id="stop39" />
	<stop
   offset="1"
   style="stop-color:#CE820A"
   id="stop41" />
</linearGradient>
<path
   d="m 47.7216,74.420148 c -2.9748,0 -5.0796,2.081185 -5.0796,4.946963 0,2.865778 2.1048,5.09037 5.0796,5.09037 2.976,0 5.0076,-2.221037 5.0076,-5.09037 -0.0012,-2.865778 -2.0316,-4.946963 -5.0076,-4.946963 z m 0.8712,-43.296 c -3.6276,0 -7.2576,0.789333 -10.7412,1.792 v 5.233778 c 3.1224,-0.932741 6.3132,-1.722074 9.5796,-1.722074 5.2968,0 8.9256,2.151111 8.9256,7.742815 0,3.800889 -2.6112,6.30874 -5.37,9.032296 -3.8472,3.728593 -6.7512,6.952296 -6.7512,12.328296 v 2.652445 h 6.8964 v -2.222223 c 0,-3.082666 1.5948,-4.873481 5.2248,-8.600888 C 59.9856,53.632 64.2684,49.690074 64.2684,43.739259 64.2696,34.277926 57.1572,31.124148 48.5928,31.124148 Z"
   id="path44"
   style="fill:url(#SVGID_4_);fill-opacity:0.9;stroke-width:1.19256961"
   inkscape:connector-curvature="0" />
<path
   d="m 44.2368,65.531259 v 1.05363 c 0,-5.37363 2.904,-8.600889 6.7512,-12.327111 2.7588,-2.724741 5.37,-5.231408 5.37,-9.031111 0,-0.186074 -0.0144,-0.357926 -0.0216,-0.535704 -0.2268,3.511704 -2.7192,5.914074 -5.3484,8.513185 -3.8472,3.726222 -6.7512,6.951111 -6.7512,12.327111 z"
   id="path46"
   inkscape:connector-curvature="0"
   style="fill:#1a0900;fill-opacity:0.2;stroke-width:1.19256961" />
<path
   d="m 47.7216,74.420148 c -2.9748,0 -5.0796,2.081185 -5.0796,4.946963 0,0.182519 0.0312,0.353185 0.048,0.528593 0.246,-2.58726 2.2452,-4.419556 5.0316,-4.419556 2.7876,0 4.7232,1.834667 4.962,4.419556 0.0144,-0.175408 0.0456,-0.346074 0.0456,-0.528593 -0.0012,-2.865778 -2.0316,-4.946963 -5.0076,-4.946963 z"
   id="path48"
   inkscape:connector-curvature="0"
   style="fill:#1a0900;fill-opacity:0.2;stroke-width:1.19256961" />
<path
   d="m 48.5928,31.124148 c -3.6276,0 -7.2576,0.789333 -10.7412,1.792 v 1.05363 c 3.4836,-1.002667 7.1136,-1.792 10.7412,-1.792 8.4048,0 15.3948,3.051852 15.6528,12.109037 0.0084,-0.182519 0.0252,-0.360296 0.0252,-0.546371 -0.0012,-9.462518 -7.1136,-12.616296 -15.678,-12.616296 z"
   id="path50"
   inkscape:connector-curvature="0"
   style="fill:#1a0900;fill-opacity:0.2;stroke-width:1.19256961" />
<rect
   x="44.236797"
   y="67.131256"
   width="6.8964005"
   height="1.0536296"
   id="rect52"
   style="fill:#ffffff;fill-opacity:0.5;stroke-width:1.19256961" />
<path
   d="m 56.3364,43.634963 c 0.0108,-0.171852 0.0216,-0.342519 0.0216,-0.519111 0,-5.592889 -3.6288,-7.742815 -8.9256,-7.742815 -3.2676,0 -6.4584,0.788148 -9.5796,1.720889 v 1.054815 c 3.1224,-0.932741 6.3132,-1.722074 9.5796,-1.722074 5.1216,0.0012 8.6724,2.021926 8.904,7.208296 z"
   id="path54"
   inkscape:connector-curvature="0"
   style="fill:#ffffff;fill-opacity:0.5;stroke-width:1.19256961" />
<path
   d="m 56.3592,56.305778 c -3.63,3.728592 -5.2248,5.520592 -5.2248,8.602074 v 1.054815 c 0,-3.082667 1.5948,-4.873482 5.2248,-8.600889 3.6288,-3.728593 7.9116,-7.670519 7.9116,-13.621334 0,-0.176592 -0.0192,-0.335407 -0.0252,-0.507259 -0.2544,5.643852 -4.3704,9.462519 -7.8864,13.072593 z"
   id="path56"
   inkscape:connector-curvature="0"
   style="fill:#ffffff;fill-opacity:0.5;stroke-width:1.19256961" />
<path
   d="m 47.7216,83.403852 c -2.7864,0 -4.7856,-1.959111 -5.0316,-4.562963 -0.0168,0.174222 -0.048,0.343704 -0.048,0.525037 0,2.865778 2.1048,5.09037 5.0796,5.09037 2.976,0 5.0076,-2.221037 5.0076,-5.09037 0,-0.181333 -0.0312,-0.34963 -0.0456,-0.525037 -0.24,2.605037 -2.1744,4.562963 -4.962,4.562963 z"
   id="path58"
   inkscape:connector-curvature="0"
   style="fill:#ffffff;fill-opacity:0.5;stroke-width:1.19256961" />
</svg>