<?xml version="1.0" encoding="UTF-8" standalone="no"?>
<!-- Generator: Adobe Illustrator 17.1.0, SVG Export Plug-In . SVG Version: 6.00 Build 0)  -->

<svg
   xmlns:ns="&amp;#38;ns_sfw;"
   xmlns:dc="http://purl.org/dc/elements/1.1/"
   xmlns:cc="http://creativecommons.org/ns#"
   xmlns:rdf="http://www.w3.org/1999/02/22-rdf-syntax-ns#"
   xmlns:svg="http://www.w3.org/2000/svg"
   xmlns="http://www.w3.org/2000/svg"
   xmlns:sodipodi="http://sodipodi.sourceforge.net/DTD/sodipodi-0.dtd"
   xmlns:inkscape="http://www.inkscape.org/namespaces/inkscape"
   version="1.1"
   id="Livello_1"
   x="0px"
   y="0px"
   width="96px"
   height="96px"
   viewBox="0 0 96 96"
   enable-background="new 0 0 96 96"
   xml:space="preserve"
   sodipodi:docname="icon-launcher-folder-06.svg"
   inkscape:version="0.92.2 2405546, 2018-03-11"><defs
   id="defs63" /><sodipodi:namedview
   pagecolor="#ffffff"
   bordercolor="#666666"
   borderopacity="1"
   objecttolerance="10"
   gridtolerance="10"
   guidetolerance="10"
   inkscape:pageopacity="0"
   inkscape:pageshadow="2"
   inkscape:window-width="1366"
   inkscape:window-height="717"
   id="namedview61"
   showgrid="false"
   inkscape:zoom="2.4583333"
   inkscape:cx="47.999999"
   inkscape:cy="47.999999"
   inkscape:window-x="0"
   inkscape:window-y="25"
   inkscape:window-maximized="1"
   inkscape:current-layer="Livello_1" />
<metadata
   id="metadata2">
	<ns:sfw>
		<ns:slices />
		<ns:sliceSourceBounds
   height="96"
   width="96"
   x="1"
   y="3"
   bottomLeftOrigin="true" />
	</ns:sfw>
<rdf:RDF><cc:Work
     rdf:about=""><dc:format>image/svg+xml</dc:format><dc:type
       rdf:resource="http://purl.org/dc/dcmitype/StillImage" /></cc:Work></rdf:RDF></metadata>
<path
   d="M 93,48.555556 C 93,81.483334 81.343875,93 48,93 14.660625,93 3,81.483334 3,48.555556 3,15.63 14.660625,4.1111111 48,4.1111111 c 33.341625,0 45,11.5188889 45,44.4444449 z"
   id="path4"
   inkscape:connector-curvature="0"
   style="fill-opacity:0.4;stroke-width:1.11803401" />
<rect
   width="90"
   height="90"
   id="rect6"
   x="3"
   y="3"
   style="fill:none;stroke-width:0.9375" />
<linearGradient
   id="SVGID_1_"
   gradientUnits="userSpaceOnUse"
   x1="18.8052"
   y1="247.8652"
   x2="18.8052"
   y2="263.8652"
   gradientTransform="matrix(1.125,0,0,1.1111111,26.84415,-272.40578)">
	<stop
   offset="0"
   style="stop-color:#E4BE34"
   id="stop8" />
	<stop
   offset="1"
   style="stop-color:#E0AA18"
   id="stop10" />
</linearGradient>
<path
   d="M 88.5045,20.777778 C 82.4835,7.9888889 69.936375,3 48,3 26.06475,3 13.5165,7.9888889 7.4955,20.777778 Z"
   id="path13"
   style="fill:url(#SVGID_1_);stroke-width:1.11803401"
   inkscape:connector-curvature="0" />
<path
   d="m 48,91.888889 c 33.343875,0 45,-11.517778 45,-44.444445 0,-12.751111 -1.758375,-22.278889 -5.837625,-29.183332 h -41.0715 C 45.467625,17.506667 44.346,16.096667 42.39525,13.503334 41.3175,12.071111 38.875125,9.6666667 34.63275,9.6666667 H 16.989375 C 7.001625,16.255555 3,28.182222 3,47.444444 3,80.371111 14.660625,91.888889 48,91.888889 Z"
   id="path15"
   inkscape:connector-curvature="0"
   style="fill-opacity:0.02000002;stroke-width:1.11803401" />
<path
   d="m 48,91.888889 c 33.343875,0 45,-11.517778 45,-44.444445 C 93,35.037778 91.340625,25.673333 87.495375,18.816667 H 45.82425 c -0.547875,-0.653334 -1.693125,-2.073333 -3.88125,-4.981111 -1.01475,-1.35 -3.315375,-3.613334 -7.31025,-3.613334 h -18.459 C 6.781125,16.916666 3,28.713334 3,47.444444 3,80.371111 14.660625,91.888889 48,91.888889 Z"
   id="path17"
   inkscape:connector-curvature="0"
   style="fill-opacity:0.02000002;stroke-width:1.11803401" />
<path
   d="m 48,91.888889 c 33.343875,0 45,-11.517778 45,-44.444445 C 93,35.365555 91.42275,26.177778 87.789,19.372222 H 45.562125 c -0.480375,-0.56 -1.63125,-1.964444 -4.07025,-5.205555 C 40.539,12.901111 38.380125,10.777778 34.63275,10.777778 H 15.427875 C 6.58425,17.561111 3,29.218889 3,47.444444 3,80.371111 14.660625,91.888889 48,91.888889 Z"
   id="path19"
   inkscape:connector-curvature="0"
   style="fill-opacity:0.05;stroke-width:1.11803401" />
<path
   d="m 48,91.888889 c 33.343875,0 45,-11.517778 45,-44.444445 C 93,35.69 91.50375,26.676667 88.07475,19.927777 H 45.3045 c -0.367875,-0.414444 -1.48725,-1.74 -4.26375,-5.429999 -0.889875,-1.181112 -2.90475,-3.165556 -6.406875,-3.165556 h -19.908 C 6.393,18.192222 3,29.707777 3,47.444444 3,80.371111 14.660625,91.888889 48,91.888889 Z"
   id="path21"
   inkscape:connector-curvature="0"
   style="fill-opacity:0.05;stroke-width:1.11803401" />
<linearGradient
   id="SVGID_2_"
   gradientUnits="userSpaceOnUse"
   x1="18.8052"
   y1="255.8652"
   x2="18.8052"
   y2="327.8652"
   gradientTransform="matrix(1.125,0,0,1.1111111,26.84415,-272.40578)">
	<stop
   offset="0"
   style="stop-color:#E6CD49"
   id="stop23" />
	<stop
   offset="1"
   style="stop-color:#E0A714"
   id="stop25" />
</linearGradient>
<path
   d="m 48,91.888889 c 33.343875,0 45,-11.517778 45,-44.444445 C 93,36.013333 91.590375,27.167778 88.3605,20.483333 H 45.055875 c 0,0 -0.826875,-0.816666 -4.467375,-5.654445 -1.07325,-1.425555 -2.977875,-2.939999 -5.95575,-2.939999 -3.621375,0 -13.426875,0 -20.5605,0 C 6.214125,18.807778 3,30.178889 3,47.444444 3,80.371111 14.660625,91.888889 48,91.888889 Z"
   id="path28"
   style="fill:url(#SVGID_2_);stroke-width:1.11803401"
   inkscape:connector-curvature="0" />
<path
   d="M 34.63275,11.888889 H 14.07225 C 13.663875,12.247778 13.263375,12.615556 12.87975,13 h 21.753 c 2.601,0 5.0715,1.141111 6.370875,2.381112 C 40.8675,15.2 40.733625,15.023333 40.5885,14.83 39.51525,13.403333 37.610625,11.888889 34.63275,11.888889 Z M 88.3605,20.483333 H 45.055875 l 0.905625,1.092223 42.8985,0.01445 c -0.163125,-0.372225 -0.325125,-0.745558 -0.4995,-1.106669 z"
   id="path30"
   inkscape:connector-curvature="0"
   style="fill:#ffffff;fill-opacity:0.5;stroke-width:1.11803401" />
<linearGradient
   id="SVGID_3_"
   gradientUnits="userSpaceOnUse"
   x1="-175.1201"
   y1="1063.959"
   x2="-175.1201"
   y2="1143.2036"
   gradientTransform="matrix(1.125,0,0,1.1111111,245.01011,-1178.8957)">
	<stop
   offset="0"
   style="stop-color:#FFFFFF"
   id="stop32" />
	<stop
   offset="1"
   style="stop-color:#FFFFFF;stop-opacity:0"
   id="stop34" />
</linearGradient>
<path
   d="M 48,3 C 14.660625,3 3,14.517778 3,47.444444 c 0,32.926667 11.660625,44.444445 45,44.444445 33.343875,0 45,-11.517778 45,-44.444445 C 93,14.517778 81.341625,3 48,3 Z m 0,87.777778 C 15.19725,90.777778 4.125,79.842222 4.125,47.444444 4.125,15.046667 15.19725,4.1111111 48,4.1111111 c 32.80275,0 43.875,10.9355559 43.875,43.3333329 0,32.397778 -11.07225,43.333334 -43.875,43.333334 z"
   id="path37"
   style="fill:url(#SVGID_3_);fill-opacity:0.15;stroke-width:1.11803401"
   inkscape:connector-curvature="0" />
<linearGradient
   id="SVGID_4_"
   gradientUnits="userSpaceOnUse"
   x1="18.8052"
   y1="314.9672"
   x2="18.8052"
   y2="274.8989"
   gradientTransform="matrix(1.125,0,0,1.1111111,26.84415,-272.40578)">
	<stop
   offset="0"
   style="stop-color:#CE820A"
   id="stop39" />
	<stop
   offset="0.25"
   style="stop-color:#CE820A"
   id="stop41" />
	<stop
   offset="1"
   style="stop-color:#D6A214"
   id="stop43" />
</linearGradient>
<path
   d="M 68.709,50.753333 H 55.970625 l 6.36975,-10.895555 c 1.27125,-2.174444 0.516375,-4.953334 -1.684125,-6.208889 -2.199375,-1.254445 -5.018625,-0.51 -6.2865,1.663333 L 48,46.207777 41.63025,35.311111 c -1.270125,-2.175555 -4.084875,-2.918888 -6.2865,-1.663333 -2.20275,1.255555 -2.95425,4.034444 -1.68525,6.208889 l 6.370875,10.895556 H 27.28875 c -2.541375,0 -4.60125,2.035555 -4.60125,4.545554 0,2.511112 2.061,4.545556 4.60125,4.545556 H 40.029375 L 33.6585,70.738889 c -1.269,2.175555 -0.5175,4.954445 1.68525,6.211111 0.7245,0.412223 1.515375,0.607777 2.296125,0.607777 1.591875,0 3.137625,-0.814443 3.990375,-2.273333 L 48,64.388888 54.36975,75.284444 c 0.8505,1.45889 2.3985,2.273333 3.98925,2.273333 0.781875,0 1.571625,-0.195554 2.29725,-0.607777 2.2005,-1.256666 2.955375,-4.035556 1.684125,-6.211111 L 55.970625,59.843333 H 68.709 c 2.5425,0 4.6035,-2.034444 4.6035,-4.545556 0,-2.508888 -2.061,-4.544444 -4.6035,-4.544444 z"
   id="path46"
   style="fill:url(#SVGID_4_);fill-opacity:0.9;stroke-width:1.11803401"
   inkscape:connector-curvature="0" />
<path
   d="m 35.34375,34.647778 c 2.201625,-1.255556 5.01525,-0.511112 6.2865,1.663333 L 48,47.207778 54.36975,36.311111 c 1.267875,-2.174445 4.087125,-2.917777 6.2865,-1.663333 1.332,0.76 2.124,2.08 2.268,3.483333 0.21375,-1.753333 -0.622125,-3.544445 -2.268,-4.483333 -2.199375,-1.254445 -5.018625,-0.51 -6.2865,1.663333 L 48,46.207777 41.63025,35.311111 c -1.270125,-2.175555 -4.084875,-2.918888 -6.2865,-1.663333 -1.647,0.938888 -2.48175,2.73 -2.266875,4.483333 0.142875,-1.403333 0.93375,-2.723333 2.266875,-3.483333 z"
   id="path48"
   inkscape:connector-curvature="0"
   style="fill:#1a0900;fill-opacity:0.1;stroke-width:1.11803401" />
<path
   d="m 27.28875,51.753334 h 12.740625 l -0.585,-1.000001 H 27.28875 c -2.541375,0 -4.60125,2.035556 -4.60125,4.545555 0,0.170001 0.03262,0.334445 0.05175,0.500001 0.25425,-2.272222 2.1825,-4.045555 4.5495,-4.045555 z"
   id="path50"
   inkscape:connector-curvature="0"
   style="fill:#1a0900;fill-opacity:0.1;stroke-width:1.11803401" />
<path
   d="m 40.029375,60.844445 h -0.585 L 33.6585,70.738889 c -0.50175,0.858889 -0.676125,1.809999 -0.58275,2.726666 0.072,-0.59111 0.262125,-1.178888 0.58275,-1.727778 z"
   id="path52"
   inkscape:connector-curvature="0"
   style="fill:#1a0900;fill-opacity:0.1;stroke-width:1.11803401" />
<path
   d="m 62.340375,71.737777 c 0.3195,0.54889 0.51075,1.134445 0.583875,1.727778 0.09338,-0.916667 -0.08212,-1.868888 -0.583875,-2.726666 L 56.5545,60.844445 h -0.585 z"
   id="path54"
   inkscape:connector-curvature="0"
   style="fill:#1a0900;fill-opacity:0.1;stroke-width:1.11803401" />
<path
   d="m 68.709,51.753334 c 2.368125,0 4.296375,1.773333 4.55175,4.045555 0.01913,-0.165556 0.05175,-0.33 0.05175,-0.500001 0,-2.509999 -2.061,-4.545555 -4.6035,-4.545555 H 56.5545 l -0.585,1.000001 z"
   id="path56"
   inkscape:connector-curvature="0"
   style="fill:#1a0900;fill-opacity:0.1;stroke-width:1.11803401" />
<path
   d="m 55.970625,50.864444 h 0.585 L 62.3415,40.967778 c 0.500625,-0.857778 0.67725,-1.80889 0.583875,-2.725555 -0.072,0.59111 -0.26325,1.176666 -0.583875,1.725555 z M 33.6585,39.967778 c -0.320625,-0.548889 -0.51075,-1.134445 -0.58275,-1.725556 -0.09338,0.916666 0.081,1.866667 0.58275,2.725556 l 5.785875,9.896666 h 0.585 z M 68.709,59.955556 H 55.970625 l 0.585,0.998888 h 12.1545 c 2.5425,0 4.6035,-2.034444 4.6035,-4.545556 0,-0.17111 -0.03262,-0.334443 -0.05175,-0.499999 C 73.0065,58.181111 71.07825,59.955556 68.709,59.955556 Z m -41.42025,0 c -2.367,0 -4.29525,-1.774445 -4.5495,-4.046667 -0.01912,0.165556 -0.05175,0.328889 -0.05175,0.499999 0,2.511112 2.061,4.545556 4.60125,4.545556 h 12.155625 l 0.585,-0.998888 c 0,0 -12.740625,0 -12.740625,0 z M 60.65625,77.06 c -0.725625,0.412222 -1.515375,0.607778 -2.29725,0.607778 -1.59075,0 -3.13875,-0.814445 -3.98925,-2.272222 L 48,64.5 41.63025,75.396667 c -0.85275,1.457777 -2.3985,2.272222 -3.990375,2.272222 -0.78075,0 -1.571625,-0.195556 -2.296125,-0.607777 C 34.010625,76.3 33.21975,74.981111 33.076875,73.576667 32.862,75.33 33.69675,77.12 35.34375,78.061111 c 0.7245,0.412222 1.515375,0.607777 2.296125,0.607777 1.591875,0 3.137625,-0.814443 3.990375,-2.273332 L 48,65.5 54.36975,76.395556 c 0.8505,1.458889 2.3985,2.273332 3.98925,2.273332 0.781875,0 1.571625,-0.195555 2.29725,-0.607777 1.645875,-0.939999 2.48175,-2.731111 2.268,-4.484444 -0.144,1.403333 -0.936,2.724444 -2.268,3.483333 z"
   id="path58"
   inkscape:connector-curvature="0"
   style="fill:#ffffff;fill-opacity:0.5;stroke-width:1.11803401" />
</svg>