<?xml version="1.0" encoding="UTF-8" standalone="no"?>
<!-- Converted with SVG Converter - Version 0.9.5 (Compiled Mon May 30 09:08:51 2011) - Copyright (C) 2011 Nokia -->

<svg
   xmlns:dc="http://purl.org/dc/elements/1.1/"
   xmlns:cc="http://creativecommons.org/ns#"
   xmlns:rdf="http://www.w3.org/1999/02/22-rdf-syntax-ns#"
   xmlns:svg="http://www.w3.org/2000/svg"
   xmlns="http://www.w3.org/2000/svg"
   xmlns:sodipodi="http://sodipodi.sourceforge.net/DTD/sodipodi-0.dtd"
   xmlns:inkscape="http://www.inkscape.org/namespaces/inkscape"
   width="96px"
   x="0px"
   version="1.1"
   y="0px"
   height="96px"
   viewBox="0 0 96 96"
   id="Livello_1"
   xml:space="preserve"
   sodipodi:docname="icon-launcher-folder-11.svg"
   inkscape:version="0.92.2 2405546, 2018-03-11"><metadata
   id="metadata74"><rdf:RDF><cc:Work
       rdf:about=""><dc:format>image/svg+xml</dc:format><dc:type
         rdf:resource="http://purl.org/dc/dcmitype/StillImage" /></cc:Work></rdf:RDF></metadata><defs
   id="defs72" /><sodipodi:namedview
   pagecolor="#ffffff"
   bordercolor="#666666"
   borderopacity="1"
   objecttolerance="10"
   gridtolerance="10"
   guidetolerance="10"
   inkscape:pageopacity="0"
   inkscape:pageshadow="2"
   inkscape:window-width="1366"
   inkscape:window-height="717"
   id="namedview70"
   showgrid="false"
   inkscape:zoom="2.4583333"
   inkscape:cx="48"
   inkscape:cy="48"
   inkscape:window-x="0"
   inkscape:window-y="25"
   inkscape:window-maximized="1"
   inkscape:current-layer="Livello_1" />
 <path
   d="M 96,48.592593 C 96,83.715556 83.5668,96 48,96 12.438,96 0,83.715556 0,48.592593 0,13.472 12.438,1.1851852 48,1.1851852 c 35.5644,0 48,12.2868148 48,47.4074078 z"
   id="path2"
   inkscape:connector-curvature="0"
   style="fill-opacity:0.4;stroke-width:1.19256961" />
 <rect
   width="96"
   fill="none"
   height="96"
   id="rect4" />
 <linearGradient
   gradientTransform="matrix(1.2,0,0,-1.1851852,25.43376,-177.61802)"
   id="SVGID_1_"
   y1="-149.8652"
   x1="18.8052"
   y2="-165.8652"
   gradientUnits="userSpaceOnUse"
   x2="18.8052">
  <stop
   offset="0"
   style="stop-color:#E4BE34"
   id="stop6" />
  <stop
   offset="1"
   style="stop-color:#E0AA18"
   id="stop8" />
 </linearGradient>
 <path
   d="M 91.2048,18.962963 C 84.7824,5.3214815 71.3988,0 48,0 24.6024,0 11.2176,5.3214815 4.7952,18.962963 Z"
   id="path11"
   style="fill:url(#SVGID_1_);stroke-width:1.19256961"
   inkscape:connector-curvature="0" />
 <path
   d="m 48,94.814815 c 35.5668,0 48,-12.28563 48,-47.407408 C 96,33.806222 94.1244,23.643259 89.7732,16.278518 H 45.9636 c -0.6648,-0.80474 -1.8612,-2.30874 -3.942,-5.074962 C 40.872,9.6758519 38.2668,7.1111111 33.7416,7.1111111 H 14.922 C 4.2684,14.139259 0,26.861037 0,47.407407 0,82.529185 12.438,94.814815 48,94.814815 Z"
   id="path13"
   inkscape:connector-curvature="0"
   style="fill-opacity:0.02000002;stroke-width:1.19256961" />
 <path
   d="m 48,94.814815 c 35.5668,0 48,-12.28563 48,-47.407408 C 96,34.17363 94.23,24.184889 90.1284,16.871111 H 45.6792 c -0.5844,-0.696889 -1.806,-2.211555 -4.14,-5.313185 -1.0824,-1.44 -3.5364,-3.8542223 -7.7976,-3.8542223 H 14.052 C 4.0332,14.844444 0,27.427556 0,47.407407 0,82.529185 12.438,94.814815 48,94.814815 Z"
   id="path15"
   inkscape:connector-curvature="0"
   style="fill-opacity:0.05;stroke-width:1.19256961" />
 <path
   d="m 48,94.814815 c 35.5668,0 48,-12.28563 48,-47.407408 C 96,34.523259 94.3176,24.722963 90.4416,17.463704 H 45.3996 C 44.8872,16.86637 43.6596,15.368296 41.058,11.911111 40.0416,10.561185 37.7388,8.2962963 33.7416,8.2962963 H 13.2564 C 3.8232,15.531852 0,27.966815 0,47.407407 0,82.529185 12.438,94.814815 48,94.814815 Z"
   id="path17"
   inkscape:connector-curvature="0"
   style="fill-opacity:0.05;stroke-width:1.19256961" />
 <path
   d="m 48,94.814815 c 35.5668,0 48,-12.28563 48,-47.407408 C 96,34.869333 94.404,25.255111 90.7464,18.056296 H 45.1248 c -0.3924,-0.442074 -1.5864,-1.856 -4.548,-5.792 -0.9492,-1.259852 -3.0984,-3.3765923 -6.834,-3.3765923 H 12.5076 C 3.6192,16.205037 0,28.488296 0,47.407407 0,82.529185 12.438,94.814815 48,94.814815 Z"
   id="path19"
   inkscape:connector-curvature="0"
   style="fill-opacity:0.1;stroke-width:1.19256961" />
 <linearGradient
   gradientTransform="matrix(1.2,0,0,-1.1851852,25.43376,-177.61802)"
   id="SVGID_2_"
   y1="-157.8652"
   x1="18.8052"
   y2="-229.8652"
   gradientUnits="userSpaceOnUse"
   x2="18.8052">
  <stop
   offset="0"
   style="stop-color:#E6CD49"
   id="stop21" />
  <stop
   offset="1"
   style="stop-color:#E0A714"
   id="stop23" />
 </linearGradient>
 <path
   d="m 48,94.814815 c 35.5668,0 48,-12.28563 48,-47.407408 C 96,35.214222 94.4964,25.778963 91.0512,18.648889 H 44.8596 c 0,0 -0.882,-0.871111 -4.7652,-6.031407 -1.1448,-1.520593 -3.1764,-3.1360005 -6.3528,-3.1360005 -3.8628,0 -14.322,0 -21.9312,0 C 3.4284,16.86163 0,28.990815 0,47.407407 0,82.529185 12.438,94.814815 48,94.814815 Z"
   id="path26"
   style="fill:url(#SVGID_2_);stroke-width:1.19256961"
   inkscape:connector-curvature="0" />
 <path
   d="M 33.7416,9.4814815 H 11.8104 c -0.4356,0.3828148 -0.8628,0.7751115 -1.272,1.1851855 h 23.2032 c 2.7744,0 5.4096,1.217185 6.7956,2.539852 -0.1452,-0.193186 -0.288,-0.38163 -0.4428,-0.587852 C 38.9496,11.096889 36.918,9.4814815 33.7416,9.4814815 Z M 91.0512,18.648889 H 44.8596 l 0.966,1.165037 45.7584,0.01541 c -0.174,-0.39704 -0.3468,-0.795262 -0.5328,-1.180447 z"
   id="path28"
   inkscape:connector-curvature="0"
   style="fill:#ffffff;fill-opacity:0.5;stroke-width:1.19256961" />
 <linearGradient
   gradientTransform="matrix(1.2,0,0,-1.1851852,258.14412,-1144.5406)"
   id="SVGID_3_"
   y1="-965.959"
   x1="-175.1201"
   y2="-1045.2036"
   gradientUnits="userSpaceOnUse"
   x2="-175.1201">
  <stop
   offset="0"
   style="stop-color:#FFFFFF"
   id="stop30" />
  <stop
   offset="1"
   style="stop-color:#FFFFFF;stop-opacity:0"
   id="stop32" />
 </linearGradient>
 <path
   d="M 48,0 C 12.438,0 0,12.28563 0,47.407407 c 0,35.121778 12.438,47.407408 48,47.407408 35.5668,0 48,-12.28563 48,-47.407408 C 96,12.28563 83.5644,0 48,0 Z m 0,93.62963 C 13.0104,93.62963 1.2,81.965037 1.2,47.407407 1.2,12.849778 13.0104,1.1851852 48,1.1851852 c 34.9896,0 46.8,11.6645928 46.8,46.2222218 0,34.55763 -11.8104,46.222223 -46.8,46.222223 z"
   id="path35"
   style="fill:url(#SVGID_3_);fill-opacity:0.15;stroke-width:1.19256961"
   inkscape:connector-curvature="0" />
 <linearGradient
   gradientTransform="matrix(1.2,0,0,1.1851852,-9.6,-11.851851)"
   id="SVGID_4_"
   y1="58"
   x1="27.7206"
   y2="58"
   gradientUnits="userSpaceOnUse"
   x2="64.279">
  <stop
   offset="0"
   style="stop-color:#D6A214"
   id="stop37" />
  <stop
   offset="0.75"
   style="stop-color:#CE820A"
   id="stop39" />
  <stop
   offset="1"
   style="stop-color:#CE820A"
   id="stop41" />
 </linearGradient>
 <path
   d="m 30.8436,83.555556 c -3.3648,0 -5.9988,-1.43526 -6.8736,-3.745186 -1.3188,-3.482074 1.758,-7.877926 6.858,-9.797926 1.5636,-0.589037 3.21,-0.90074 4.7628,-0.90074 1.416,0 2.718,0.250074 3.8196,0.731259 V 39.191704 c 0,-1.466074 1.1712,-2.946371 2.6112,-3.299556 l 22.6332,-5.589333 c 0.2172,-0.05333 0.4332,-0.08059 0.6456,-0.08059 1.2948,0 2.2344,0.968297 2.2344,2.302815 v 37.093926 h -0.0456 c -0.3444,2.981926 -3.1824,5.998222 -7.1196,7.479704 -1.5708,0.590222 -3.222,0.901926 -4.7772,0.901926 -3.3648,0 -5.9976,-1.43526 -6.8736,-3.744 -1.3176,-3.482074 1.758,-7.879112 6.858,-9.799112 1.5636,-0.589037 3.2112,-0.90074 4.7628,-0.90074 1.4172,0 2.7192,0.250074 3.8208,0.731259 V 42.680889 L 42.7848,47.97037 v 27.204741 h -0.0456 c -0.3444,2.981926 -3.1824,5.998222 -7.1196,7.479704 -1.5696,0.589037 -3.2208,0.900741 -4.776,0.900741 z"
   id="path44"
   style="fill:url(#SVGID_4_);fill-opacity:0.9;stroke-width:1.19256961"
   inkscape:connector-curvature="0" />
 <path
   d="m 30.8436,83.555556 c -3.3648,0 -5.9988,-1.43526 -6.8736,-3.745186 -1.3188,-3.482074 1.758,-7.877926 6.858,-9.797926 1.5636,-0.589037 3.21,-0.90074 4.7628,-0.90074 1.416,0 2.718,0.250074 3.8196,0.731259 V 39.191704 c 0,-1.466074 1.1712,-2.946371 2.6112,-3.299556 l 22.6332,-5.589333 c 0.2172,-0.05333 0.4332,-0.08059 0.6456,-0.08059 1.2948,0 2.2344,0.968297 2.2344,2.302815 v 37.093926 h -0.0456 c -0.3444,2.981926 -3.1824,5.998222 -7.1196,7.479704 -1.5708,0.590222 -3.222,0.901926 -4.7772,0.901926 -3.3648,0 -5.9976,-1.43526 -6.8736,-3.744 -1.3176,-3.482074 1.758,-7.879112 6.858,-9.799112 1.5636,-0.589037 3.2112,-0.90074 4.7628,-0.90074 1.4172,0 2.7192,0.250074 3.8208,0.731259 V 42.680889 L 42.7848,47.97037 v 27.204741 h -0.0456 c -0.3444,2.981926 -3.1824,5.998222 -7.1196,7.479704 -1.5696,0.589037 -3.2208,0.900741 -4.776,0.900741 z"
   id="path46"
   inkscape:connector-curvature="0"
   style="fill:#1a0900;fill-opacity:0.1;stroke-width:1.19256961;stroke-opacity:0.1" />
 <linearGradient
   gradientTransform="matrix(1.2,0,0,1.1851852,-289.54272,-802.23385)"
   id="SVGID_5_"
   y1="710.8281"
   x1="279.2868"
   y2="762.2272"
   gradientUnits="userSpaceOnUse"
   x2="279.2868">
  <stop
   offset="0"
   style="stop-color:#D6A214"
   id="stop48" />
  <stop
   offset="0.75"
   style="stop-color:#CE820A"
   id="stop50" />
  <stop
   offset="1"
   style="stop-color:#CE820A"
   id="stop52" />
 </linearGradient>
 <path
   d="m 64.7928,30.840889 -22.6332,5.589333 c -1.2024,0.295111 -2.184,1.539556 -2.184,2.760297 V 70.761481 C 37.8204,69.44 34.41,69.256296 31.0308,70.531556 c -4.8204,1.813333 -7.7436,5.880888 -6.5304,9.084444 1.2132,3.204741 6.102,4.328296 10.9224,2.519704 4.0584,-1.527704 6.7608,-4.655408 6.792,-7.51763 h 0.0108 V 47.536593 l 22.5,-5.568 v 23.237926 c -2.1564,-1.321482 -5.5656,-1.505186 -8.9448,-0.229926 -4.8216,1.814518 -7.7436,5.880888 -6.5304,9.084444 1.2132,3.204741 6.102,4.328296 10.9236,2.519704 4.0584,-1.527704 6.7608,-4.655408 6.7908,-7.51763 h 0.012 V 32.523852 c -0.0012,-1.219556 -0.984,-1.978074 -2.184,-1.682963 z"
   id="path55"
   style="fill:url(#SVGID_5_);fill-opacity:0.9;stroke-width:1.19256961"
   inkscape:connector-curvature="0" />
 <path
   d="m 30.8244,71.124148 c 1.5636,-0.589037 3.21,-0.900741 4.7628,-0.900741 1.416,0 2.718,0.250074 3.8196,0.73126 v -1.111704 c -1.1016,-0.481185 -2.4036,-0.731259 -3.8196,-0.731259 -1.5528,0 -3.1992,0.311703 -4.7628,0.90074 -4.5564,1.714963 -7.4868,5.40563 -7.1232,8.655408 0.3192,-2.944 3.0792,-6.023111 7.1232,-7.543704 z"
   id="path57"
   inkscape:connector-curvature="0"
   style="fill:#1a0900;fill-opacity:0.2;stroke-width:1.19256961" />
 <path
   d="m 55.5744,65.568 c 1.5636,-0.589037 3.21,-0.900741 4.7628,-0.900741 1.416,0 2.718,0.250074 3.8196,0.73126 v -1.111704 c -1.1016,-0.481185 -2.4036,-0.731259 -3.8196,-0.731259 -1.5528,0 -3.1992,0.311703 -4.7628,0.90074 -4.5564,1.714963 -7.4868,5.40563 -7.1232,8.655408 0.3192,-2.944 3.0792,-6.023111 7.1232,-7.543704 z"
   id="path59"
   inkscape:connector-curvature="0"
   style="fill:#1a0900;fill-opacity:0.2;stroke-width:1.19256961" />
 <path
   d="m 65.2956,30.222222 c -0.2124,0 -0.4284,0.02607 -0.6456,0.08059 l -22.632,5.589333 c -1.44,0.353185 -2.6112,1.833482 -2.6112,3.299556 v 1.111703 c 0,-1.466074 1.1712,-2.94637 2.6112,-3.299555 l 22.632,-5.58933 c 0.2172,-0.05333 0.4332,-0.08059 0.6456,-0.08059 1.296,0 2.2344,0.968296 2.2344,2.302815 V 32.52504 c 0,-1.334518 -0.9384,-2.302815 -2.2344,-2.302815 z"
   id="path61"
   inkscape:connector-curvature="0"
   style="fill:#1a0900;fill-opacity:0.2;stroke-width:1.19256961" />
 <path
   d="m 60.366,77.172148 c -1.5708,0.590222 -3.222,0.901926 -4.776,0.901926 -3.366,0 -5.9988,-1.435259 -6.8736,-3.744 -0.1416,-0.370963 -0.2208,-0.754963 -0.2652,-1.143704 -0.0828,0.770371 -0.0084,1.532445 0.2652,2.254223 0.8748,2.30874 3.5076,3.744 6.8736,3.744 1.5552,0 3.2064,-0.311704 4.776,-0.901926 3.936,-1.481482 6.7752,-4.497778 7.1196,-7.479704 h 0.0456 V 69.691259 H 67.4856 C 67.14,72.67437 64.302,75.690667 60.366,77.172148 Z"
   id="path63"
   inkscape:connector-curvature="0"
   style="fill:#ffffff;fill-opacity:0.5;stroke-width:1.19256961" />
 <path
   d="m 35.616,82.728296 c -1.5696,0.590223 -3.2208,0.901926 -4.776,0.901926 -3.3648,0 -5.9988,-1.435259 -6.8736,-3.745185 -0.1404,-0.370963 -0.2208,-0.753778 -0.2652,-1.142518 -0.0828,0.77037 -0.0084,1.532444 0.2652,2.253037 0.8748,2.309925 3.5076,3.745185 6.8736,3.745185 1.5552,0 3.2064,-0.311704 4.776,-0.901926 3.936,-1.481482 6.7752,-4.497778 7.1196,-7.479704 h 0.0468 v -1.111704 h -0.0468 c -0.3444,2.983112 -3.1836,5.999408 -7.1196,7.480889 z"
   id="path65"
   inkscape:connector-curvature="0"
   style="fill:#ffffff;fill-opacity:0.5;stroke-width:1.19256961" />
 <polygon
   points="61.463,44.075 43.651,48.538 43.651,49.476 61.463,45.012 "
   id="polygon67"
   transform="matrix(1.2,0,0,1.1851852,-9.6,-9.481481)"
   style="fill:#ffffff;fill-opacity:0.5" />
</svg>