<?xml version="1.0" encoding="UTF-8" standalone="no"?>
<!-- Generator: Adobe Illustrator 15.0.2, SVG Export Plug-In . SVG Version: 6.00 Build 0)  -->

<svg
   xmlns:dc="http://purl.org/dc/elements/1.1/"
   xmlns:cc="http://creativecommons.org/ns#"
   xmlns:rdf="http://www.w3.org/1999/02/22-rdf-syntax-ns#"
   xmlns:svg="http://www.w3.org/2000/svg"
   xmlns="http://www.w3.org/2000/svg"
   xmlns:sodipodi="http://sodipodi.sourceforge.net/DTD/sodipodi-0.dtd"
   xmlns:inkscape="http://www.inkscape.org/namespaces/inkscape"
   version="1.1"
   id="Livello_1"
   x="0px"
   y="0px"
   width="96px"
   height="96px"
   viewBox="0 0 96 96"
   enable-background="new 0 0 96 96"
   xml:space="preserve"
   sodipodi:docname="icon-launcher-folder-13.svg"
   inkscape:version="0.92.2 2405546, 2018-03-11"><metadata
   id="metadata86"><rdf:RDF><cc:Work
       rdf:about=""><dc:format>image/svg+xml</dc:format><dc:type
         rdf:resource="http://purl.org/dc/dcmitype/StillImage" /></cc:Work></rdf:RDF></metadata><defs
   id="defs84" /><sodipodi:namedview
   pagecolor="#ffffff"
   bordercolor="#666666"
   borderopacity="1"
   objecttolerance="10"
   gridtolerance="10"
   guidetolerance="10"
   inkscape:pageopacity="0"
   inkscape:pageshadow="2"
   inkscape:window-width="1366"
   inkscape:window-height="717"
   id="namedview82"
   showgrid="false"
   inkscape:zoom="2.4583333"
   inkscape:cx="48"
   inkscape:cy="48"
   inkscape:window-x="0"
   inkscape:window-y="25"
   inkscape:window-maximized="1"
   inkscape:current-layer="Livello_1" />
<path
   d="M 96,48.592593 C 96,83.713185 83.5644,96 48,96 12.438,96 0,83.713185 0,48.592593 0,13.46963 12.438,1.1851852 48,1.1851852 c 35.5644,0 48,12.2844448 48,47.4074078 z"
   id="path2"
   inkscape:connector-curvature="0"
   style="fill-opacity:0.4;stroke-width:1.19256961" />
<rect
   fill="none"
   width="96"
   height="96"
   id="rect4" />
<linearGradient
   id="SVGID_1_"
   gradientUnits="userSpaceOnUse"
   x1="18.8052"
   y1="-147.8652"
   x2="18.8052"
   y2="-163.8652"
   gradientTransform="matrix(1.2,0,0,-1.1851852,25.43376,-175.24765)">
	<stop
   offset="0"
   style="stop-color:#E4BE34"
   id="stop6" />
	<stop
   offset="1"
   style="stop-color:#E0AA18"
   id="stop8" />
</linearGradient>
<path
   d="M 91.2048,18.962963 C 84.7824,5.3214815 71.3988,0 48,0 24.6024,0 11.2176,5.3214815 4.7952,18.962963 Z"
   id="path11"
   style="fill:url(#SVGID_1_);stroke-width:1.19256961"
   inkscape:connector-curvature="0" />
<path
   d="m 48,94.814815 c 35.5668,0 48,-12.28563 48,-47.407408 C 96,33.806222 94.1232,23.643259 89.7732,16.278518 H 45.9636 c -0.6648,-0.80474 -1.8612,-2.30874 -3.942,-5.074962 C 40.872,9.6758519 38.2668,7.1111111 33.7416,7.1111111 H 14.9208 C 4.2684,14.139259 0,26.861037 0,47.407407 0,82.529185 12.438,94.814815 48,94.814815 Z"
   id="path13"
   inkscape:connector-curvature="0"
   style="fill-opacity:0.02000002;stroke-width:1.19256961" />
<path
   d="m 48,94.814815 c 35.5668,0 48,-12.28563 48,-47.407408 C 96,34.17363 94.23,24.184889 90.1284,16.871111 H 45.6792 c -0.5844,-0.696889 -1.806,-2.211555 -4.1412,-5.313185 -1.0812,-1.44 -3.5364,-3.8542223 -7.7964,-3.8542223 H 14.052 C 4.0332,14.844444 0,27.427556 0,47.407407 0,82.529185 12.438,94.814815 48,94.814815 Z"
   id="path15"
   inkscape:connector-curvature="0"
   style="fill-opacity:0.02000002;stroke-width:1.19256961" />
<path
   d="m 48,94.814815 c 35.5668,0 48,-12.28563 48,-47.407408 C 96,34.523259 94.3176,24.722963 90.4404,17.463704 H 45.4008 C 44.8872,16.86637 43.6596,15.368296 41.058,11.911111 40.0404,10.561185 37.7388,8.2962963 33.7416,8.2962963 H 13.2564 C 3.8232,15.531852 0,27.966815 0,47.407407 0,82.529185 12.438,94.814815 48,94.814815 Z"
   id="path17"
   inkscape:connector-curvature="0"
   style="fill-opacity:0.05;stroke-width:1.19256961" />
<path
   d="m 48,94.814815 c 35.5668,0 48,-12.28563 48,-47.407408 C 96,34.869333 94.404,25.255111 90.7464,18.056296 H 45.1248 c -0.3924,-0.442074 -1.5864,-1.856 -4.548,-5.792 -0.9492,-1.259852 -3.0996,-3.3765923 -6.834,-3.3765923 H 12.5076 C 3.6192,16.205037 0,28.488296 0,47.407407 0,82.529185 12.438,94.814815 48,94.814815 Z"
   id="path19"
   inkscape:connector-curvature="0"
   style="fill-opacity:0.05;stroke-width:1.19256961" />
<linearGradient
   id="SVGID_2_"
   gradientUnits="userSpaceOnUse"
   x1="18.8052"
   y1="-155.8652"
   x2="18.8052"
   y2="-227.8652"
   gradientTransform="matrix(1.2,0,0,-1.1851852,25.43376,-175.24765)">
	<stop
   offset="0"
   style="stop-color:#E6CD49"
   id="stop21" />
	<stop
   offset="1"
   style="stop-color:#E0A714"
   id="stop23" />
</linearGradient>
<path
   d="m 48,94.814815 c 35.5668,0 48,-12.28563 48,-47.407408 C 96,35.214222 94.4964,25.778963 91.0524,18.648889 H 44.8596 c 0,0 -0.882,-0.871111 -4.7652,-6.031407 -1.1436,-1.520593 -3.1764,-3.1360005 -6.3528,-3.1360005 -3.864,0 -14.322,0 -21.9312,0 C 3.4284,16.86163 0,28.990815 0,47.407407 0,82.529185 12.438,94.814815 48,94.814815 Z"
   id="path26"
   style="fill:url(#SVGID_2_);stroke-width:1.19256961"
   inkscape:connector-curvature="0" />
<path
   d="M 33.7416,9.4814815 H 11.8104 c -0.4356,0.3828148 -0.8628,0.7751115 -1.272,1.1851855 h 23.2032 c 2.7744,0 5.4108,1.217185 6.7956,2.539852 -0.1452,-0.193186 -0.288,-0.38163 -0.4428,-0.587852 C 38.9508,11.096889 36.918,9.4814815 33.7416,9.4814815 Z M 91.0524,18.648889 H 44.8596 l 0.966,1.165037 45.7584,0.01541 c -0.174,-0.39704 -0.3468,-0.795262 -0.5316,-1.180447 z"
   id="path28"
   inkscape:connector-curvature="0"
   style="fill:#ffffff;fill-opacity:0.5;stroke-width:1.19256961" />
<linearGradient
   id="SVGID_3_"
   gradientUnits="userSpaceOnUse"
   x1="-175.1201"
   y1="-963.959"
   x2="-175.1201"
   y2="-1043.2036"
   gradientTransform="matrix(1.2,0,0,-1.1851852,258.14412,-1142.1702)">
	<stop
   offset="0"
   style="stop-color:#FFFFFF"
   id="stop30" />
	<stop
   offset="1"
   style="stop-color:#FFFFFF;stop-opacity:0"
   id="stop32" />
</linearGradient>
<path
   d="M 48,0 C 12.438,0 0,12.28563 0,47.407407 c 0,35.121778 12.438,47.407408 48,47.407408 35.5668,0 48,-12.28563 48,-47.407408 C 96,12.28563 83.5644,0 48,0 Z m 0,93.62963 C 13.0104,93.62963 1.2,81.965037 1.2,47.407407 1.2,12.849778 13.0104,1.1851852 48,1.1851852 c 34.9896,0 46.8,11.6645928 46.8,46.2222218 0,34.55763 -11.8104,46.222223 -46.8,46.222223 z"
   id="path35"
   style="fill:url(#SVGID_3_);fill-opacity:0.15;stroke-width:1.19256961"
   inkscape:connector-curvature="0" />
<polygon
   points="45.471,42.874 47.143,42.874 47.143,36.455 50.488,42.874 52.161,42.874 52.161,32.837 50.488,32.837 50.488,39.256 47.143,32.837 45.471,32.837 "
   id="polygon37"
   transform="matrix(1.2,0,0,1.1851852,-9.6,-9.481481)"
   style="opacity:0.5;fill-opacity:0.9" />
<polygon
   points="45.471,44.874 47.143,44.874 47.143,38.455 50.488,44.874 52.161,44.874 52.161,34.837 50.488,34.837 50.488,41.256 47.143,34.837 45.471,34.837 "
   id="polygon39"
   transform="matrix(1.2,0,0,1.1851852,-9.6,-9.481481)"
   style="opacity:0.5;fill:#ffffff;fill-opacity:0.9" />
<linearGradient
   id="SVGID_4_"
   gradientUnits="userSpaceOnUse"
   x1="48.8154"
   y1="43.874"
   x2="48.8154"
   y2="33.8369">
	<stop
   offset="0"
   style="stop-color:#CE820A"
   id="stop41" />
	<stop
   offset="0.25"
   style="stop-color:#CE820A"
   id="stop43" />
	<stop
   offset="1"
   style="stop-color:#D6A214"
   id="stop45" />
</linearGradient>
<polygon
   points="45.47,43.874 47.143,43.874 47.143,37.455 50.488,43.874 52.161,43.874 52.161,33.837 50.488,33.837 50.488,40.256 47.143,33.837 45.47,33.837 "
   id="polygon48"
   style="fill:url(#SVGID_4_);fill-opacity:0.9"
   transform="matrix(1.2,0,0,1.1851852,-9.6,-9.481481)" />
<polygon
   points="51.169,54.66 28.434,38.861 44.82,61.183 67.568,76.998 "
   id="polygon50"
   transform="matrix(1.2,0,0,1.1851852,-9.6,-9.481481)"
   style="opacity:0.5;fill-opacity:0.9" />
<polygon
   points="51.169,56.66 28.434,40.861 44.82,63.183 67.568,78.998 "
   id="polygon52"
   transform="matrix(1.2,0,0,1.1851852,-9.6,-9.481481)"
   style="opacity:0.5;fill:#ffffff;fill-opacity:0.9" />
<linearGradient
   id="SVGID_5_"
   gradientUnits="userSpaceOnUse"
   x1="18.8062"
   y1="-217.7275"
   x2="18.8062"
   y2="-179.4752"
   gradientTransform="matrix(1,0,0,-1,29.1948,-139.8652)">
	<stop
   offset="0"
   style="stop-color:#CE820A"
   id="stop54" />
	<stop
   offset="0.25"
   style="stop-color:#CE820A"
   id="stop56" />
	<stop
   offset="1"
   style="stop-color:#D6A214"
   id="stop58" />
</linearGradient>
<polygon
   points="51.169,55.662 28.433,39.863 44.821,62.185 67.568,78 "
   id="polygon61"
   style="fill:url(#SVGID_5_);fill-opacity:0.9"
   transform="matrix(1.2,0,0,1.1851852,-9.6,-9.481481)" />
<ellipse
   cx="47.9748"
   cy="60.856888"
   id="circle63"
   rx="3.5135999"
   ry="3.4702222"
   style="fill-opacity:0.4;stroke-width:1.19256961" />
<linearGradient
   id="SVGID_6_"
   gradientUnits="userSpaceOnUse"
   x1="18.7847"
   y1="-196.7041"
   x2="18.7847"
   y2="-203.7124"
   gradientTransform="matrix(1.2,0,0,-1.1851852,25.43376,-175.24765)">
	<stop
   offset="0"
   style="stop-color:#E6CD49"
   id="stop65" />
	<stop
   offset="1"
   style="stop-color:#E0A714"
   id="stop67" />
</linearGradient>
<ellipse
   cx="47.9748"
   cy="60.361481"
   id="circle70"
   style="fill:url(#SVGID_6_);stroke-width:1.19256961"
   rx="3.0120001"
   ry="2.9748149" />
<ellipse
   cx="47.9748"
   cy="60.361481"
   id="circle72"
   rx="3.0120001"
   ry="2.9748149"
   style="opacity:0.5;fill:#ffffff;stroke-width:1.19256961" />
<linearGradient
   id="SVGID_7_"
   gradientUnits="userSpaceOnUse"
   x1="18.8062"
   y1="-197.1709"
   x2="18.8062"
   y2="-203.4566"
   gradientTransform="matrix(1.2,0,0,-1.1851852,25.43376,-175.24765)">
	<stop
   offset="0"
   style="stop-color:#E6CD49"
   id="stop74" />
	<stop
   offset="1"
   style="stop-color:#E0A714"
   id="stop76" />
</linearGradient>
<ellipse
   cx="48.001198"
   cy="60.658962"
   id="circle79"
   style="fill:url(#SVGID_7_);stroke-width:1.19256961"
   rx="2.7012"
   ry="2.6678517" />
</svg>