<?xml version="1.0" encoding="UTF-8" standalone="no"?>
<!-- Generator: Adobe Illustrator 15.0.2, SVG Export Plug-In . SVG Version: 6.00 Build 0)  -->

<svg
   xmlns:dc="http://purl.org/dc/elements/1.1/"
   xmlns:cc="http://creativecommons.org/ns#"
   xmlns:rdf="http://www.w3.org/1999/02/22-rdf-syntax-ns#"
   xmlns:svg="http://www.w3.org/2000/svg"
   xmlns="http://www.w3.org/2000/svg"
   xmlns:sodipodi="http://sodipodi.sourceforge.net/DTD/sodipodi-0.dtd"
   xmlns:inkscape="http://www.inkscape.org/namespaces/inkscape"
   version="1.1"
   id="Livello_1"
   x="0px"
   y="0px"
   width="96px"
   height="96px"
   viewBox="0 0 96 96"
   enable-background="new 0 0 96 96"
   xml:space="preserve"
   sodipodi:docname="icon-launcher-folder-05.svg"
   inkscape:version="0.92.2 2405546, 2018-03-11"><metadata
   id="metadata57"><rdf:RDF><cc:Work
       rdf:about=""><dc:format>image/svg+xml</dc:format><dc:type
         rdf:resource="http://purl.org/dc/dcmitype/StillImage" /></cc:Work></rdf:RDF></metadata><defs
   id="defs55" /><sodipodi:namedview
   pagecolor="#ffffff"
   bordercolor="#666666"
   borderopacity="1"
   objecttolerance="10"
   gridtolerance="10"
   guidetolerance="10"
   inkscape:pageopacity="0"
   inkscape:pageshadow="2"
   inkscape:window-width="1366"
   inkscape:window-height="717"
   id="namedview53"
   showgrid="false"
   inkscape:zoom="2.4583333"
   inkscape:cx="47.999999"
   inkscape:cy="47.999999"
   inkscape:window-x="0"
   inkscape:window-y="25"
   inkscape:window-maximized="1"
   inkscape:current-layer="Livello_1" />
<path
   d="M 93,48.555556 C 93,81.481111 81.341625,93 48,93 14.660625,93 3,81.481111 3,48.555556 3,15.627778 14.660625,4.1111111 48,4.1111111 c 33.341625,0 45,11.5166669 45,44.4444449 z"
   id="path2"
   inkscape:connector-curvature="0"
   style="fill-opacity:0.4;stroke-width:1.11803401" />
<rect
   width="90"
   height="90"
   id="rect4"
   x="3"
   y="3"
   style="fill:none;stroke-width:0.9375" />
<linearGradient
   id="SVGID_1_"
   gradientUnits="userSpaceOnUse"
   x1="18.8052"
   y1="-147.8652"
   x2="18.8052"
   y2="-163.8652"
   gradientTransform="matrix(1.125,0,0,-1.1111111,26.84415,-161.29467)">
	<stop
   offset="0"
   style="stop-color:#E4BE34"
   id="stop6" />
	<stop
   offset="1"
   style="stop-color:#E0AA18"
   id="stop8" />
</linearGradient>
<path
   d="M 88.5045,20.777778 C 82.4835,7.9888889 69.936375,3 48,3 26.06475,3 13.5165,7.9888889 7.4955,20.777778 Z"
   id="path11"
   style="fill:url(#SVGID_1_);stroke-width:1.11803401"
   inkscape:connector-curvature="0" />
<path
   d="m 48,91.888889 c 33.343875,0 45,-11.517778 45,-44.444445 0,-12.751111 -1.7595,-22.278889 -5.837625,-29.183332 h -41.0715 C 45.467625,17.506667 44.346,16.096667 42.39525,13.503334 41.3175,12.071111 38.875125,9.6666667 34.63275,9.6666667 H 16.98825 C 7.001625,16.255555 3,28.182222 3,47.444444 3,80.371111 14.660625,91.888889 48,91.888889 Z"
   id="path13"
   inkscape:connector-curvature="0"
   style="fill-opacity:0.02000002;stroke-width:1.11803401" />
<path
   d="m 48,91.888889 c 33.343875,0 45,-11.517778 45,-44.444445 C 93,35.037778 91.340625,25.673333 87.495375,18.816667 H 45.82425 c -0.547875,-0.653334 -1.693125,-2.073333 -3.882375,-4.981111 -1.013625,-1.35 -3.315375,-3.613334 -7.309125,-3.613334 h -18.459 C 6.781125,16.916666 3,28.713334 3,47.444444 3,80.371111 14.660625,91.888889 48,91.888889 Z"
   id="path15"
   inkscape:connector-curvature="0"
   style="fill-opacity:0.02000002;stroke-width:1.11803401" />
<path
   d="m 48,91.888889 c 33.343875,0 45,-11.517778 45,-44.444445 C 93,35.365555 91.42275,26.177778 87.787875,19.372222 H 45.56325 c -0.4815,-0.56 -1.632375,-1.964444 -4.071375,-5.205555 -0.954,-1.265556 -3.11175,-3.388889 -6.859125,-3.388889 H 15.427875 C 6.58425,17.561111 3,29.218889 3,47.444444 3,80.371111 14.660625,91.888889 48,91.888889 Z"
   id="path17"
   inkscape:connector-curvature="0"
   style="fill-opacity:0.05;stroke-width:1.11803401" />
<path
   d="m 48,91.888889 c 33.343875,0 45,-11.517778 45,-44.444445 C 93,35.69 91.50375,26.676667 88.07475,19.927777 H 45.3045 c -0.367875,-0.414444 -1.48725,-1.74 -4.26375,-5.429999 -0.889875,-1.181112 -2.905875,-3.165556 -6.406875,-3.165556 h -19.908 C 6.393,18.192222 3,29.707777 3,47.444444 3,80.371111 14.660625,91.888889 48,91.888889 Z"
   id="path19"
   inkscape:connector-curvature="0"
   style="fill-opacity:0.05;stroke-width:1.11803401" />
<linearGradient
   id="SVGID_2_"
   gradientUnits="userSpaceOnUse"
   x1="18.8052"
   y1="-155.8652"
   x2="18.8052"
   y2="-227.8652"
   gradientTransform="matrix(1.125,0,0,-1.1111111,26.84415,-161.29467)">
	<stop
   offset="0"
   style="stop-color:#E6CD49"
   id="stop21" />
	<stop
   offset="1"
   style="stop-color:#E0A714"
   id="stop23" />
</linearGradient>
<path
   d="m 48,91.888889 c 33.343875,0 45,-11.517778 45,-44.444445 0,-11.431111 -1.409625,-20.276666 -4.638375,-26.961111 h -43.30575 c 0,0 -0.826875,-0.816666 -4.467375,-5.654445 -1.072125,-1.425555 -2.977875,-2.939999 -5.95575,-2.939999 -3.6225,0 -13.426875,0 -20.5605,0 C 6.214125,18.807778 3,30.178889 3,47.444444 3,80.371111 14.660625,91.888889 48,91.888889 Z"
   id="path26"
   style="fill:url(#SVGID_2_);stroke-width:1.11803401"
   inkscape:connector-curvature="0" />
<path
   d="M 34.63275,11.888889 H 14.07225 C 13.663875,12.247778 13.263375,12.615556 12.87975,13 h 21.753 c 2.601,0 5.072625,1.141111 6.370875,2.381112 C 40.8675,15.2 40.733625,15.023333 40.5885,14.83 39.516375,13.403333 37.610625,11.888889 34.63275,11.888889 Z m 53.728875,8.594444 h -43.30575 l 0.905625,1.092223 42.8985,0.01445 c -0.163125,-0.372225 -0.325125,-0.745558 -0.498375,-1.106669 z"
   id="path28"
   inkscape:connector-curvature="0"
   style="fill:#ffffff;fill-opacity:0.5;stroke-width:1.11803401" />
<linearGradient
   id="SVGID_3_"
   gradientUnits="userSpaceOnUse"
   x1="-175.1201"
   y1="-963.959"
   x2="-175.1201"
   y2="-1043.2036"
   gradientTransform="matrix(1.125,0,0,-1.1111111,245.01011,-1067.7846)">
	<stop
   offset="0"
   style="stop-color:#FFFFFF"
   id="stop30" />
	<stop
   offset="1"
   style="stop-color:#FFFFFF;stop-opacity:0"
   id="stop32" />
</linearGradient>
<path
   d="M 48,3 C 14.660625,3 3,14.517778 3,47.444444 c 0,32.926667 11.660625,44.444445 45,44.444445 33.343875,0 45,-11.517778 45,-44.444445 C 93,14.517778 81.341625,3 48,3 Z m 0,87.777778 C 15.19725,90.777778 4.125,79.842222 4.125,47.444444 4.125,15.046667 15.19725,4.1111111 48,4.1111111 c 32.80275,0 43.875,10.9355559 43.875,43.3333329 0,32.397778 -11.07225,43.333334 -43.875,43.333334 z"
   id="path35"
   style="fill:url(#SVGID_3_);fill-opacity:0.15;stroke-width:1.11803401"
   inkscape:connector-curvature="0" />
<path
   d="m 34.5,46.333333 c 0,0.611111 0.505125,1.111111 1.125,1.111111 h 2.25 c 0.617625,0 1.125,0.500001 1.125,1.111112 v -1.111112 c 0,-0.61111 -0.507375,-1.111111 -1.125,-1.111111 h -2.25 c -0.619875,0 -1.125,-0.5 -1.125,-1.111111 z m -7.875,1.111111 h 2.25 c 0.617625,0 1.125,-0.5 1.125,-1.111111 v -1.111111 c 0,0.611111 -0.507375,1.111111 -1.125,1.111111 h -2.25 c -0.619875,0 -1.125,0.500001 -1.125,1.111111 v 1.111112 c 0,-0.611111 0.505125,-1.111112 1.125,-1.111112 z m 32.625,0 c 1.04625,0 1.91925,0.710001 2.17125,1.666667 C 61.46737,48.932222 61.5,48.748889 61.5,48.555556 c 0,-1.226667 -1.008,-2.222223 -2.25,-2.222223 -1.243125,0 -2.25,0.995556 -2.25,2.222223 0,0.193333 0.03263,0.376666 0.07875,0.555555 0.250875,-0.956666 1.12275,-1.666667 2.17125,-1.666667 z M 31.125,43 h 2.25 c 0.617625,0 1.125,0.5 1.125,1.111111 V 43 c 0,-0.611111 -0.507375,-1.111112 -1.125,-1.111112 h -2.25 C 30.505125,41.888888 30,42.388889 30,43 v 1.111111 C 30,43.5 30.505125,43 31.125,43 Z m 34.95375,6.111111 c 0.250875,-0.956666 1.12275,-1.666667 2.17125,-1.666667 1.04625,0 1.91925,0.710001 2.17125,1.666667 C 70.46738,48.932222 70.5,48.748889 70.5,48.555556 c 0,-1.226667 -1.008,-2.222223 -2.25,-2.222223 -1.243125,0 -2.25,0.995556 -2.25,2.222223 0,0.193333 0.03262,0.376666 0.07875,0.555555 z m 1.7775,26.111111 C 61.350375,75.222222 58.125,69.666667 55.875,60.777778 54.75,57.444444 50.25,57.444444 48,57.444444 c -2.25,0 -6.75,0 -7.875,3.333334 -2.25,8.888889 -5.475375,14.444444 -11.98125,14.444444 -5.3955,0 -8.1495,-9.908888 -8.26425,-20.438888 -0.07313,10.93111 2.67975,21.549999 8.26425,21.549999 6.505875,0 9.73125,-5.555556 11.98125,-14.444444 1.125,-3.333334 5.625,-3.333334 7.875,-3.333334 2.25,0 6.75,0 7.875,3.333334 2.25,8.888888 5.475375,14.444444 11.98125,14.444444 5.583375,0 8.33625,-10.618889 8.26425,-21.549999 -0.113625,10.53 -2.869875,20.438888 -8.26425,20.438888 z M 63.75,50.777778 c -1.243125,0 -2.25,0.995555 -2.25,2.222222 0,0.193334 0.03263,0.376667 0.07875,0.555556 0.250875,-0.956668 1.12275,-1.666667 2.17125,-1.666667 1.04625,0 1.91925,0.709999 2.17125,1.666667 C 65.967375,53.376667 66,53.193334 66,53 66,51.773333 64.992,50.777778 63.75,50.777778 Z M 63.75,43 c 1.04625,0 1.91925,0.71 2.17125,1.666666 C 65.967375,44.487778 66,44.304444 66,44.111111 c 0,-1.226667 -1.008,-2.222223 -2.25,-2.222223 -1.243125,0 -2.25,0.995556 -2.25,2.222223 0,0.193333 0.03263,0.376667 0.07875,0.555555 C 61.829625,43.71 62.7015,43 63.75,43 Z"
   id="path37"
   inkscape:connector-curvature="0"
   style="fill:#ffffff;fill-opacity:0.45;stroke-width:1.11803401" />
<linearGradient
   id="SVGID_4_"
   gradientUnits="userSpaceOnUse"
   x1="18.8052"
   y1="-175.8652"
   x2="18.8052"
   y2="-212.8652"
   gradientTransform="matrix(1.125,0,0,-1.1111111,26.84415,-161.29467)">
	<stop
   offset="0"
   style="stop-color:#D6A214"
   id="stop39" />
	<stop
   offset="0.75"
   style="stop-color:#CE820A"
   id="stop41" />
	<stop
   offset="1"
   style="stop-color:#CE820A"
   id="stop43" />
</linearGradient>
<path
   d="m 74.60625,40.777777 c -1.247625,-4.931111 -5.60475,-6.056666 -14.625,-6.666666 0,0 -1.125,0 -2.25,1.111111 -0.208125,0.204444 -0.430875,0.414444 -0.615375,0.606666 -0.43425,0.452223 -1.357875,1.344446 -1.814625,1.256668 -3.92625,-0.752222 -10.67625,-0.752222 -14.6025,0 -0.45675,0.08778 -1.382625,-0.804445 -1.816875,-1.256668 -0.18225,-0.192222 -0.406125,-0.402222 -0.613125,-0.606666 -1.125,-1.111111 -2.25,-1.111111 -2.25,-1.111111 -9.02025,0.61 -13.377375,1.736667 -14.625,6.666666 -3.375,13.333335 -1.125,34.444445 6.75,34.444445 6.505875,0 9.73125,-5.555555 11.98125,-14.444444 1.125,-3.333334 5.625,-3.333334 7.875,-3.333334 2.25,0 6.75,0 7.875,3.333334 2.25,8.888889 5.475375,14.444444 11.98125,14.444444 7.875,0 10.125,-21.11111 6.75,-34.444445 z M 39,49.666667 c 0,0.611111 -0.507375,1.111111 -1.125,1.111111 h -2.25 c -0.619875,0 -1.125,0.499999 -1.125,1.111111 v 2.222223 c 0,0.61111 -0.507375,1.11111 -1.125,1.11111 h -2.25 c -0.619875,0 -1.125,-0.5 -1.125,-1.11111 v -2.222223 c 0,-0.611112 -0.507375,-1.111111 -1.125,-1.111111 h -2.25 c -0.619875,0 -1.125,-0.5 -1.125,-1.111111 v -2.222223 c 0,-0.61111 0.505125,-1.111111 1.125,-1.111111 h 2.25 c 0.617625,0 1.125,-0.5 1.125,-1.111111 V 43 c 0,-0.611111 0.505125,-1.111112 1.125,-1.111112 h 2.25 c 0.617625,0 1.125,0.500001 1.125,1.111112 v 2.222222 c 0,0.611111 0.505125,1.111111 1.125,1.111111 h 2.25 c 0.617625,0 1.125,0.500001 1.125,1.111111 z m 24.75,-7.777779 c 1.242,0 2.25,0.995556 2.25,2.222223 0,1.226667 -1.008,2.222222 -2.25,2.222222 -1.243125,0 -2.25,-0.995555 -2.25,-2.222222 0,-1.226667 1.006875,-2.222223 2.25,-2.222223 z m -4.5,8.88889 c -1.243125,0 -2.25,-0.995556 -2.25,-2.222222 0,-1.226667 1.006875,-2.222223 2.25,-2.222223 1.242,0 2.25,0.995556 2.25,2.222223 0,1.226666 -1.008,2.222222 -2.25,2.222222 z m 4.5,4.444444 c -1.243125,0 -2.25,-0.995555 -2.25,-2.222222 0,-1.226667 1.006875,-2.222222 2.25,-2.222222 1.242,0 2.25,0.995555 2.25,2.222222 0,1.226667 -1.008,2.222222 -2.25,2.222222 z m 4.5,-4.444444 c -1.243125,0 -2.25,-0.995556 -2.25,-2.222222 0,-1.226667 1.006875,-2.222223 2.25,-2.222223 1.242,0 2.25,0.995556 2.25,2.222223 0,1.226666 -1.008,2.222222 -2.25,2.222222 z"
   id="path46"
   style="fill:url(#SVGID_4_);fill-opacity:0.9;stroke-width:1.11803401"
   inkscape:connector-curvature="0" />
<path
   d="m 30,51.888889 c 0,-0.611112 -0.507375,-1.111111 -1.125,-1.111111 h -2.25 c -0.619875,0 -1.125,-0.5 -1.125,-1.111111 v 1.111111 c 0,0.611111 0.505125,1.111111 1.125,1.111111 h 2.25 C 29.492625,51.888889 30,52.388888 30,53 Z m 7.875,-1.111111 h -2.25 c -0.619875,0 -1.125,0.499999 -1.125,1.111111 V 53 c 0,-0.611112 0.505125,-1.111111 1.125,-1.111111 h 2.25 c 0.617625,0 1.125,-0.5 1.125,-1.111111 v -1.111111 c 0,0.611111 -0.507375,1.111111 -1.125,1.111111 z M 74.60625,40.777777 c -1.247625,-4.931111 -5.60475,-6.056666 -14.625,-6.666666 0,0 -1.125,0 -2.25,1.111111 -0.208125,0.204444 -0.430875,0.414444 -0.615375,0.606666 -0.43425,0.452223 -1.357875,1.344446 -1.814625,1.256668 -3.92625,-0.752222 -10.67625,-0.752222 -14.6025,0 -0.45675,0.08778 -1.382625,-0.804445 -1.816875,-1.256668 -0.18225,-0.192222 -0.406125,-0.402222 -0.613125,-0.606666 -1.125,-1.111111 -2.25,-1.111111 -2.25,-1.111111 -9.02025,0.61 -13.377375,1.736667 -14.625,6.666666 -1.063125,4.19889 -1.567125,9.168889 -1.51425,14.005557 0.03037,-4.481111 0.532125,-9.016667 1.51425,-12.894446 1.247625,-4.93111 5.60475,-6.056666 14.625,-6.666666 0,0 1.125,0 2.25,1.111112 0.207,0.204444 0.430875,0.414444 0.613125,0.606666 0.435375,0.452222 1.360125,1.344445 1.816875,1.256667 3.92625,-0.752222 10.67625,-0.752222 14.6025,0 0.45675,0.08778 1.382625,-0.804445 1.814625,-1.256667 0.1845,-0.192222 0.40725,-0.402222 0.615375,-0.606666 1.125,-1.111112 2.25,-1.111112 2.25,-1.111112 9.02025,0.61 13.377375,1.736667 14.625,6.666666 0.982125,3.877779 1.481625,8.413335 1.51425,12.894446 0.05287,-4.836668 -0.45,-9.806667 -1.51425,-14.005557 z M 33.375,55.222222 h -2.25 c -0.619875,0 -1.125,-0.5 -1.125,-1.11111 v 1.11111 c 0,0.611112 0.505125,1.111111 1.125,1.111111 h 2.25 c 0.617625,0 1.125,-0.499999 1.125,-1.111111 v -1.11111 c 0,0.61111 -0.507375,1.11111 -1.125,1.11111 z m 30.375,0 c -1.0485,0 -1.920375,-0.71 -2.17125,-1.666666 C 61.53263,53.734445 61.5,53.917777 61.5,54.111112 c 0,1.226666 1.006875,2.222221 2.25,2.222221 1.242,0 2.25,-0.995555 2.25,-2.222221 0,-0.193335 -0.03262,-0.376667 -0.07875,-0.555556 -0.252,0.956666 -1.125,1.666666 -2.17125,1.666666 z m 4.5,-4.444444 c -1.0485,0 -1.920375,-0.71 -2.17125,-1.666667 C 66.032625,49.29 66,49.473334 66,49.666667 c 0,1.226666 1.006875,2.222222 2.25,2.222222 1.242,0 2.25,-0.995556 2.25,-2.222222 0,-0.193333 -0.03262,-0.376667 -0.07875,-0.555556 -0.252,0.956667 -1.125,1.666667 -2.17125,1.666667 z m -6.82875,-1.666667 c -0.252,0.956667 -1.125,1.666667 -2.17125,1.666667 -1.0485,0 -1.920375,-0.71 -2.17125,-1.666667 C 57.032625,49.29 57,49.473334 57,49.666667 c 0,1.226666 1.006875,2.222222 2.25,2.222222 1.242,0 2.25,-0.995556 2.25,-2.222222 0,-0.193333 -0.03263,-0.376667 -0.07875,-0.555556 z M 63.75,47.444444 c 1.242,0 2.25,-0.995556 2.25,-2.222222 0,-0.193333 -0.03262,-0.376667 -0.07875,-0.555556 -0.252,0.956667 -1.125,1.666667 -2.17125,1.666667 -1.0485,0 -1.920375,-0.71 -2.17125,-1.666667 C 61.53263,44.845555 61.5,45.028889 61.5,45.222222 c 0,1.226666 1.006875,2.222222 2.25,2.222222 z"
   id="path48"
   inkscape:connector-curvature="0"
   style="fill-opacity:0.2;stroke-width:1.11803401" />
<path
   d="m 37.875,45.777778 h -2.25 c -0.309375,0 -0.5625,-0.25 -0.5625,-0.555556 V 43 c 0,-0.918888 -0.757125,-1.666667 -1.6875,-1.666667 h -2.25 c -0.930375,0 -1.6875,0.747779 -1.6875,1.666667 v 2.222222 c 0,0.301111 -0.257625,0.555556 -0.5625,0.555556 h -2.25 c -0.930375,0 -1.6875,0.747777 -1.6875,1.666666 v 2.222223 c 0,0.918889 0.757125,1.666667 1.6875,1.666667 h 2.25 c 0.304875,0 0.5625,0.254444 0.5625,0.555555 v 2.222223 c 0,0.918888 0.757125,1.666665 1.6875,1.666665 h 2.25 c 0.930375,0 1.6875,-0.747777 1.6875,-1.666665 v -2.222223 c 0,-0.305556 0.253125,-0.555555 0.5625,-0.555555 h 2.25 c 0.930375,0 1.6875,-0.747778 1.6875,-1.666667 v -2.222223 c 0,-0.918889 -0.757125,-1.666666 -1.6875,-1.666666 z M 39,49.666667 c 0,0.611111 -0.507375,1.111111 -1.125,1.111111 h -2.25 c -0.619875,0 -1.125,0.499999 -1.125,1.111111 v 2.222223 c 0,0.61111 -0.507375,1.11111 -1.125,1.11111 h -2.25 c -0.619875,0 -1.125,-0.5 -1.125,-1.11111 v -2.222223 c 0,-0.611112 -0.507375,-1.111111 -1.125,-1.111111 h -2.25 c -0.619875,0 -1.125,-0.5 -1.125,-1.111111 v -2.222223 c 0,-0.61111 0.505125,-1.111111 1.125,-1.111111 h 2.25 c 0.617625,0 1.125,-0.5 1.125,-1.111111 V 43 c 0,-0.611111 0.505125,-1.111112 1.125,-1.111112 h 2.25 c 0.617625,0 1.125,0.500001 1.125,1.111112 v 2.222222 c 0,0.611111 0.505125,1.111111 1.125,1.111111 h 2.25 c 0.617625,0 1.125,0.500001 1.125,1.111111 z m 24.75,-2.777778 c 1.551375,0 2.8125,-1.245556 2.8125,-2.777778 0,-1.532223 -1.261125,-2.777778 -2.8125,-2.777778 -1.551375,0 -2.8125,1.245555 -2.8125,2.777778 0,1.532222 1.261125,2.777778 2.8125,2.777778 z m 0,-5.000001 c 1.242,0 2.25,0.995556 2.25,2.222223 0,1.226666 -1.008,2.222222 -2.25,2.222222 -1.243125,0 -2.25,-0.995556 -2.25,-2.222222 0,-1.226667 1.006875,-2.222223 2.25,-2.222223 z m 10.85625,-1.111111 c -1.247625,-4.931111 -5.60475,-6.056666 -14.625,-6.666666 0,0 -1.125,0 -2.25,1.111111 -0.208125,0.204444 -0.430875,0.414444 -0.615375,0.606666 -0.43425,0.452223 -1.357875,1.344446 -1.814625,1.256668 -3.92625,-0.752222 -10.67625,-0.752222 -14.6025,0 -0.45675,0.08778 -1.382625,-0.804445 -1.816875,-1.256668 -0.18225,-0.192222 -0.406125,-0.402222 -0.613125,-0.606666 -1.125,-1.111111 -2.25,-1.111111 -2.25,-1.111111 -9.02025,0.61 -13.377375,1.736667 -14.625,6.666666 -3.375,13.333335 -1.125,34.444445 6.75,34.444445 6.505875,0 9.73125,-5.555555 11.98125,-14.444444 1.125,-3.333334 5.625,-3.333334 7.875,-3.333334 2.25,0 6.75,0 7.875,3.333334 2.25,8.888889 5.475375,14.444444 11.98125,14.444444 7.875,0 10.125,-21.11111 6.75,-34.444445 z m -6.75,33.888889 c -5.52825,0 -8.949375,-4.192221 -11.43675,-14.023333 C 55.153875,56.888888 50.322,56.888888 48,56.888888 c -2.322,0 -7.155,0 -8.409375,3.713334 -2.498625,9.872223 -5.91975,14.064444 -11.446875,14.064444 -1.29825,0 -2.489625,-0.674444 -3.540375,-2.005555 C 20.361,67.295556 19.092,52.163333 21.941625,40.912222 c 1.164375,-4.606666 5.2965,-5.651111 14.1165,-6.246666 0,0 0.885375,0.03222 1.8135,0.948889 l 0.208125,0.203333 c 0.13725,0.133333 0.2745,0.265555 0.39375,0.391111 1.377,1.432223 1.944,1.438889 2.15775,1.438889 h 0.05738 l 0.11925,-0.01667 c 1.837125,-0.352222 4.4595,-0.554445 7.194375,-0.554445 2.736,0 5.35725,0.202223 7.1955,0.554445 l 0.05288,0.01 0.120375,0.0067 c 0.1935,0 0.78075,-0.0011 2.1555,-1.436667 0.117,-0.12 0.248625,-0.25 0.3825,-0.378889 l 0.221625,-0.216667 c 0.928125,-0.916667 1.82025,-0.947778 1.8585,-0.948889 8.775,0.594445 12.907125,1.638889 14.072625,6.245556 2.8485,11.251111 1.578375,26.383333 -2.662875,31.748889 -1.053,1.331111 -2.24325,2.005555 -3.542625,2.005555 z M 68.25,45.777778 c -1.551375,0 -2.8125,1.245555 -2.8125,2.777778 0,1.532222 1.261125,2.777778 2.8125,2.777778 1.551375,0 2.8125,-1.245556 2.8125,-2.777778 0,-1.532223 -1.261125,-2.777778 -2.8125,-2.777778 z m 0,5 c -1.243125,0 -2.25,-0.995556 -2.25,-2.222222 0,-1.226667 1.006875,-2.222223 2.25,-2.222223 1.242,0 2.25,0.995556 2.25,2.222223 0,1.226666 -1.008,2.222222 -2.25,2.222222 z m -4.5,-0.555556 c -1.551375,0 -2.8125,1.245556 -2.8125,2.777778 0,1.532223 1.261125,2.777778 2.8125,2.777778 1.551375,0 2.8125,-1.245555 2.8125,-2.777778 0,-1.532222 -1.261125,-2.777778 -2.8125,-2.777778 z m 0,5 c -1.243125,0 -2.25,-0.995555 -2.25,-2.222222 0,-1.226667 1.006875,-2.222222 2.25,-2.222222 1.242,0 2.25,0.995555 2.25,2.222222 0,1.226667 -1.008,2.222222 -2.25,2.222222 z m -1.6875,-6.666666 c 0,-1.532223 -1.261125,-2.777778 -2.8125,-2.777778 -1.551375,0 -2.8125,1.245555 -2.8125,2.777778 0,1.532222 1.261125,2.777778 2.8125,2.777778 1.551375,0 2.8125,-1.245556 2.8125,-2.777778 z M 59.25,50.777778 c -1.243125,0 -2.25,-0.995556 -2.25,-2.222222 0,-1.226667 1.006875,-2.222223 2.25,-2.222223 1.242,0 2.25,0.995556 2.25,2.222223 0,1.226666 -1.008,2.222222 -2.25,2.222222 z"
   id="path50"
   inkscape:connector-curvature="0"
   style="fill-opacity:0.1;stroke-width:1.11803401" />
</svg>