<?xml version="1.0" encoding="UTF-8" standalone="no"?>
<!-- Generator: Adobe Illustrator 15.0.2, SVG Export Plug-In . SVG Version: 6.00 Build 0)  -->

<svg
   xmlns:dc="http://purl.org/dc/elements/1.1/"
   xmlns:cc="http://creativecommons.org/ns#"
   xmlns:rdf="http://www.w3.org/1999/02/22-rdf-syntax-ns#"
   xmlns:svg="http://www.w3.org/2000/svg"
   xmlns="http://www.w3.org/2000/svg"
   xmlns:sodipodi="http://sodipodi.sourceforge.net/DTD/sodipodi-0.dtd"
   xmlns:inkscape="http://www.inkscape.org/namespaces/inkscape"
   version="1.1"
   id="Livello_1"
   x="0px"
   y="0px"
   width="96px"
   height="96px"
   viewBox="0 0 96 96"
   enable-background="new 0 0 96 96"
   xml:space="preserve"
   sodipodi:docname="icon-launcher-folder-05.svg"
   inkscape:version="0.92.2 2405546, 2018-03-11"><metadata
   id="metadata57"><rdf:RDF><cc:Work
       rdf:about=""><dc:format>image/svg+xml</dc:format><dc:type
         rdf:resource="http://purl.org/dc/dcmitype/StillImage" /></cc:Work></rdf:RDF></metadata><defs
   id="defs55" /><sodipodi:namedview
   pagecolor="#ffffff"
   bordercolor="#666666"
   borderopacity="1"
   objecttolerance="10"
   gridtolerance="10"
   guidetolerance="10"
   inkscape:pageopacity="0"
   inkscape:pageshadow="2"
   inkscape:window-width="1366"
   inkscape:window-height="717"
   id="namedview53"
   showgrid="false"
   inkscape:zoom="2.4583333"
   inkscape:cx="48"
   inkscape:cy="48"
   inkscape:window-x="0"
   inkscape:window-y="25"
   inkscape:window-maximized="1"
   inkscape:current-layer="Livello_1" />
<path
   d="M 96,48.592593 C 96,83.713185 83.5644,96 48,96 12.438,96 0,83.713185 0,48.592593 0,13.46963 12.438,1.1851852 48,1.1851852 c 35.5644,0 48,12.2844448 48,47.4074078 z"
   id="path2"
   inkscape:connector-curvature="0"
   style="fill-opacity:0.4;stroke-width:1.19256961" />
<rect
   fill="none"
   width="96"
   height="96"
   id="rect4" />
<linearGradient
   id="SVGID_1_"
   gradientUnits="userSpaceOnUse"
   x1="18.8052"
   y1="-147.8652"
   x2="18.8052"
   y2="-163.8652"
   gradientTransform="matrix(1.2,0,0,-1.1851852,25.43376,-175.24765)">
	<stop
   offset="0"
   style="stop-color:#E4BE34"
   id="stop6" />
	<stop
   offset="1"
   style="stop-color:#E0AA18"
   id="stop8" />
</linearGradient>
<path
   d="M 91.2048,18.962963 C 84.7824,5.3214815 71.3988,0 48,0 24.6024,0 11.2176,5.3214815 4.7952,18.962963 Z"
   id="path11"
   style="fill:url(#SVGID_1_);stroke-width:1.19256961"
   inkscape:connector-curvature="0" />
<path
   d="m 48,94.814815 c 35.5668,0 48,-12.28563 48,-47.407408 C 96,33.806222 94.1232,23.643259 89.7732,16.278519 H 45.9636 C 45.2988,15.473778 44.1024,13.969778 42.0216,11.203556 40.872,9.6758519 38.2668,7.1111111 33.7416,7.1111111 H 14.9208 C 4.2684,14.139259 0,26.861037 0,47.407407 0,82.529185 12.438,94.814815 48,94.814815 Z"
   id="path13"
   inkscape:connector-curvature="0"
   style="fill-opacity:0.02000002;stroke-width:1.19256961" />
<path
   d="m 48,94.814815 c 35.5668,0 48,-12.28563 48,-47.407408 C 96,34.17363 94.23,24.184889 90.1284,16.871111 H 45.6792 c -0.5844,-0.696889 -1.806,-2.211555 -4.1412,-5.313185 -1.0812,-1.44 -3.5364,-3.8542223 -7.7964,-3.8542223 H 14.052 C 4.0332,14.844444 0,27.427556 0,47.407407 0,82.529185 12.438,94.814815 48,94.814815 Z"
   id="path15"
   inkscape:connector-curvature="0"
   style="fill-opacity:0.02000002;stroke-width:1.19256961" />
<path
   d="m 48,94.814815 c 35.5668,0 48,-12.28563 48,-47.407408 C 96,34.523259 94.3176,24.722963 90.4404,17.463704 H 45.4008 C 44.8872,16.86637 43.6596,15.368296 41.058,11.911111 40.0404,10.561185 37.7388,8.2962963 33.7416,8.2962963 H 13.2564 C 3.8232,15.531852 0,27.966815 0,47.407407 0,82.529185 12.438,94.814815 48,94.814815 Z"
   id="path17"
   inkscape:connector-curvature="0"
   style="fill-opacity:0.05;stroke-width:1.19256961" />
<path
   d="m 48,94.814815 c 35.5668,0 48,-12.28563 48,-47.407408 C 96,34.869333 94.404,25.255111 90.7464,18.056296 H 45.1248 c -0.3924,-0.442074 -1.5864,-1.856 -4.548,-5.792 -0.9492,-1.259852 -3.0996,-3.3765923 -6.834,-3.3765923 H 12.5076 C 3.6192,16.205037 0,28.488296 0,47.407407 0,82.529185 12.438,94.814815 48,94.814815 Z"
   id="path19"
   inkscape:connector-curvature="0"
   style="fill-opacity:0.05;stroke-width:1.19256961" />
<linearGradient
   id="SVGID_2_"
   gradientUnits="userSpaceOnUse"
   x1="18.8052"
   y1="-155.8652"
   x2="18.8052"
   y2="-227.8652"
   gradientTransform="matrix(1.2,0,0,-1.1851852,25.43376,-175.24765)">
	<stop
   offset="0"
   style="stop-color:#E6CD49"
   id="stop21" />
	<stop
   offset="1"
   style="stop-color:#E0A714"
   id="stop23" />
</linearGradient>
<path
   d="m 48,94.814815 c 35.5668,0 48,-12.28563 48,-47.407408 C 96,35.214222 94.4964,25.778963 91.0524,18.648889 H 44.8596 c 0,0 -0.882,-0.871111 -4.7652,-6.031408 -1.1436,-1.520592 -3.1764,-3.1359995 -6.3528,-3.1359995 -3.864,0 -14.322,0 -21.9312,0 C 3.4284,16.86163 0,28.990815 0,47.407407 0,82.529185 12.438,94.814815 48,94.814815 Z"
   id="path26"
   style="fill:url(#SVGID_2_);stroke-width:1.19256961"
   inkscape:connector-curvature="0" />
<path
   d="M 33.7416,9.4814815 H 11.8104 c -0.4356,0.3828148 -0.8628,0.7751115 -1.272,1.1851855 h 23.2032 c 2.7744,0 5.4108,1.217185 6.7956,2.539852 -0.1452,-0.193186 -0.288,-0.38163 -0.4428,-0.587852 C 38.9508,11.096889 36.918,9.4814815 33.7416,9.4814815 Z M 91.0524,18.648889 H 44.8596 l 0.966,1.165037 45.7584,0.01541 c -0.174,-0.39704 -0.3468,-0.795262 -0.5316,-1.180447 z"
   id="path28"
   inkscape:connector-curvature="0"
   style="fill:#ffffff;fill-opacity:0.5;stroke-width:1.19256961" />
<linearGradient
   id="SVGID_3_"
   gradientUnits="userSpaceOnUse"
   x1="-175.1201"
   y1="-963.959"
   x2="-175.1201"
   y2="-1043.2036"
   gradientTransform="matrix(1.2,0,0,-1.1851852,258.14412,-1142.1702)">
	<stop
   offset="0"
   style="stop-color:#FFFFFF"
   id="stop30" />
	<stop
   offset="1"
   style="stop-color:#FFFFFF;stop-opacity:0"
   id="stop32" />
</linearGradient>
<path
   d="M 48,0 C 12.438,0 0,12.28563 0,47.407407 c 0,35.121778 12.438,47.407408 48,47.407408 35.5668,0 48,-12.28563 48,-47.407408 C 96,12.28563 83.5644,0 48,0 Z m 0,93.62963 C 13.0104,93.62963 1.2,81.965037 1.2,47.407407 1.2,12.849778 13.0104,1.1851852 48,1.1851852 c 34.9896,0 46.8,11.6645928 46.8,46.2222218 0,34.55763 -11.8104,46.222223 -46.8,46.222223 z"
   id="path35"
   style="fill:url(#SVGID_3_);fill-opacity:0.15;stroke-width:1.19256961"
   inkscape:connector-curvature="0" />
<path
   d="m 33.6,46.222222 c 0,0.651852 0.5388,1.185185 1.2,1.185185 h 2.4 c 0.6588,0 1.2,0.533334 1.2,1.185186 v -1.185186 c 0,-0.651851 -0.5412,-1.185185 -1.2,-1.185185 h -2.4 c -0.6612,0 -1.2,-0.533333 -1.2,-1.185185 z m -8.4,1.185185 h 2.4 c 0.6588,0 1.2,-0.533333 1.2,-1.185185 v -1.185185 c 0,0.651852 -0.5412,1.185185 -1.2,1.185185 h -2.4 c -0.6612,0 -1.2,0.533334 -1.2,1.185185 v 1.185186 c 0,-0.651852 0.5388,-1.185186 1.2,-1.185186 z m 34.8,0 c 1.116,0 2.0472,0.757334 2.316,1.777778 0.0492,-0.190815 0.084,-0.38637 0.084,-0.592592 0,-1.308445 -1.0752,-2.370371 -2.4,-2.370371 -1.326,0 -2.4,1.061926 -2.4,2.370371 0,0.206222 0.0348,0.401777 0.084,0.592592 0.2676,-1.020444 1.1976,-1.777778 2.316,-1.777778 z m -30,-4.74074 h 2.4 c 0.6588,0 1.2,0.533333 1.2,1.185185 v -1.185185 c 0,-0.651852 -0.5412,-1.185186 -1.2,-1.185186 H 30 c -0.6612,0 -1.2,0.533334 -1.2,1.185186 v 1.185185 C 28.8,43.2 29.3388,42.666667 30,42.666667 Z m 37.284,6.518518 c 0.2676,-1.020444 1.1976,-1.777778 2.316,-1.777778 1.116,0 2.0472,0.757334 2.316,1.777778 C 71.9652,48.99437 72,48.798815 72,48.592593 c 0,-1.308445 -1.0752,-2.370371 -2.4,-2.370371 -1.326,0 -2.4,1.061926 -2.4,2.370371 0,0.206222 0.0348,0.401777 0.084,0.592592 z m 1.896,27.851852 c -6.9396,0 -10.38,-5.925926 -12.78,-15.407407 -1.2,-3.555556 -6,-3.555556 -8.4,-3.555556 -2.4,0 -7.2,0 -8.4,3.555556 -2.4,9.481481 -5.8404,15.407407 -12.78,15.407407 -5.7552,0 -8.6928,-10.569481 -8.8152,-21.801481 -0.078,11.659851 2.8584,22.986666 8.8152,22.986666 6.9396,0 10.38,-5.925926 12.78,-15.407407 1.2,-3.555556 6,-3.555556 8.4,-3.555556 2.4,0 7.2,0 8.4,3.555556 2.4,9.481481 5.8404,15.407407 12.78,15.407407 5.9556,0 8.892,-11.326815 8.8152,-22.986666 -0.1212,11.232 -3.0612,21.801481 -8.8152,21.801481 z M 64.8,50.962963 c -1.326,0 -2.4,1.061926 -2.4,2.37037 0,0.206223 0.0348,0.401778 0.084,0.592593 0.2676,-1.020445 1.1976,-1.777778 2.316,-1.777778 1.116,0 2.0472,0.757333 2.316,1.777778 0.0492,-0.190815 0.084,-0.38637 0.084,-0.592593 0,-1.308444 -1.0752,-2.37037 -2.4,-2.37037 z m 0,-8.296296 c 1.116,0 2.0472,0.757333 2.316,1.777777 0.0492,-0.190814 0.084,-0.38637 0.084,-0.592592 0,-1.308445 -1.0752,-2.370371 -2.4,-2.370371 -1.326,0 -2.4,1.061926 -2.4,2.370371 0,0.206222 0.0348,0.401778 0.084,0.592592 0.2676,-1.020444 1.1976,-1.777777 2.316,-1.777777 z"
   id="path37"
   inkscape:connector-curvature="0"
   style="fill:#ffffff;fill-opacity:0.45;stroke-width:1.19256961" />
<linearGradient
   id="SVGID_4_"
   gradientUnits="userSpaceOnUse"
   x1="18.8052"
   y1="-175.8652"
   x2="18.8052"
   y2="-212.8652"
   gradientTransform="matrix(1.2,0,0,-1.1851852,25.43376,-175.24765)">
	<stop
   offset="0"
   style="stop-color:#D6A214"
   id="stop39" />
	<stop
   offset="0.75"
   style="stop-color:#CE820A"
   id="stop41" />
	<stop
   offset="1"
   style="stop-color:#CE820A"
   id="stop43" />
</linearGradient>
<path
   d="m 76.38,40.296296 c -1.3308,-5.259852 -5.9784,-6.460444 -15.6,-7.111111 0,0 -1.2,0 -2.4,1.185185 -0.222,0.218074 -0.4596,0.442074 -0.6564,0.647111 -0.4632,0.482371 -1.4484,1.434075 -1.9356,1.340445 -4.188,-0.80237 -11.388,-0.80237 -15.576,0 -0.4872,0.09363 -1.4748,-0.858074 -1.938,-1.340445 -0.1944,-0.205037 -0.4332,-0.429037 -0.654,-0.647111 -1.2,-1.185185 -2.4,-1.185185 -2.4,-1.185185 -9.6216,0.650667 -14.2692,1.852445 -15.6,7.111111 -3.6,14.222223 -1.2,36.740741 7.2,36.740741 6.9396,0 10.38,-5.925926 12.78,-15.407407 1.2,-3.555556 6,-3.555556 8.4,-3.555556 2.4,0 7.2,0 8.4,3.555556 2.4,9.481481 5.8404,15.407407 12.78,15.407407 8.4,0 10.8,-22.518518 7.2,-36.740741 z M 38.4,49.777778 c 0,0.651852 -0.5412,1.185185 -1.2,1.185185 h -2.4 c -0.6612,0 -1.2,0.533333 -1.2,1.185185 v 2.370371 c 0,0.651851 -0.5412,1.185185 -1.2,1.185185 H 30 c -0.6612,0 -1.2,-0.533334 -1.2,-1.185185 v -2.370371 c 0,-0.651852 -0.5412,-1.185185 -1.2,-1.185185 h -2.4 c -0.6612,0 -1.2,-0.533333 -1.2,-1.185185 v -2.370371 c 0,-0.651851 0.5388,-1.185185 1.2,-1.185185 h 2.4 c 0.6588,0 1.2,-0.533333 1.2,-1.185185 v -2.37037 c 0,-0.651852 0.5388,-1.185186 1.2,-1.185186 h 2.4 c 0.6588,0 1.2,0.533334 1.2,1.185186 v 2.37037 c 0,0.651852 0.5388,1.185185 1.2,1.185185 h 2.4 c 0.6588,0 1.2,0.533334 1.2,1.185185 z m 26.4,-8.296297 c 1.3248,0 2.4,1.061926 2.4,2.370371 0,1.308444 -1.0752,2.37037 -2.4,2.37037 -1.326,0 -2.4,-1.061926 -2.4,-2.37037 0,-1.308445 1.074,-2.370371 2.4,-2.370371 z M 60,50.962963 c -1.326,0 -2.4,-1.061926 -2.4,-2.37037 0,-1.308445 1.074,-2.370371 2.4,-2.370371 1.3248,0 2.4,1.061926 2.4,2.370371 0,1.308444 -1.0752,2.37037 -2.4,2.37037 z m 4.8,4.740741 c -1.326,0 -2.4,-1.061926 -2.4,-2.370371 0,-1.308444 1.074,-2.37037 2.4,-2.37037 1.3248,0 2.4,1.061926 2.4,2.37037 0,1.308445 -1.0752,2.370371 -2.4,2.370371 z m 4.8,-4.740741 c -1.326,0 -2.4,-1.061926 -2.4,-2.37037 0,-1.308445 1.074,-2.370371 2.4,-2.370371 1.3248,0 2.4,1.061926 2.4,2.370371 0,1.308444 -1.0752,2.37037 -2.4,2.37037 z"
   id="path46"
   style="fill:url(#SVGID_4_);fill-opacity:0.9;stroke-width:1.19256961"
   inkscape:connector-curvature="0" />
<path
   d="m 28.8,52.148148 c 0,-0.651852 -0.5412,-1.185185 -1.2,-1.185185 h -2.4 c -0.6612,0 -1.2,-0.533333 -1.2,-1.185185 v 1.185185 c 0,0.651852 0.5388,1.185185 1.2,1.185185 h 2.4 c 0.6588,0 1.2,0.533333 1.2,1.185185 z m 8.4,-1.185185 h -2.4 c -0.6612,0 -1.2,0.533333 -1.2,1.185185 v 1.185185 c 0,-0.651852 0.5388,-1.185185 1.2,-1.185185 h 2.4 c 0.6588,0 1.2,-0.533333 1.2,-1.185185 v -1.185185 c 0,0.651852 -0.5412,1.185185 -1.2,1.185185 z M 76.38,40.296296 c -1.3308,-5.259852 -5.9784,-6.460444 -15.6,-7.111111 0,0 -1.2,0 -2.4,1.185185 -0.222,0.218074 -0.4596,0.442074 -0.6564,0.647111 -0.4632,0.482371 -1.4484,1.434075 -1.9356,1.340445 -4.188,-0.80237 -11.388,-0.80237 -15.576,0 -0.4872,0.09363 -1.4748,-0.858074 -1.938,-1.340445 -0.1944,-0.205037 -0.4332,-0.429037 -0.654,-0.647111 -1.2,-1.185185 -2.4,-1.185185 -2.4,-1.185185 -9.6216,0.650667 -14.2692,1.852445 -15.6,7.111111 -1.134,4.478815 -1.6716,9.780148 -1.6152,14.93926 0.0324,-4.779852 0.5676,-9.617778 1.6152,-13.754075 1.3308,-5.259851 5.9784,-6.460444 15.6,-7.111111 0,0 1.2,0 2.4,1.185186 0.2208,0.218074 0.4596,0.442074 0.654,0.647111 0.4644,0.48237 1.4508,1.434074 1.938,1.340444 4.188,-0.80237 11.388,-0.80237 15.576,0 0.4872,0.09363 1.4748,-0.858074 1.9356,-1.340444 0.1968,-0.205037 0.4344,-0.429037 0.6564,-0.647111 1.2,-1.185186 2.4,-1.185186 2.4,-1.185186 9.6216,0.650667 14.2692,1.852445 15.6,7.111111 1.0476,4.136297 1.5804,8.974223 1.6152,13.754075 0.0564,-5.159112 -0.48,-10.460445 -1.6152,-14.93926 z M 32.4,55.703704 H 30 c -0.6612,0 -1.2,-0.533334 -1.2,-1.185185 v 1.185185 c 0,0.651852 0.5388,1.185185 1.2,1.185185 h 2.4 c 0.6588,0 1.2,-0.533333 1.2,-1.185185 v -1.185185 c 0,0.651851 -0.5412,1.185185 -1.2,1.185185 z m 32.4,0 c -1.1184,0 -2.0484,-0.757334 -2.316,-1.777778 -0.0492,0.190815 -0.084,0.38637 -0.084,0.592593 0,1.308444 1.074,2.37037 2.4,2.37037 1.3248,0 2.4,-1.061926 2.4,-2.37037 0,-0.206223 -0.0348,-0.401778 -0.084,-0.592593 -0.2688,1.020444 -1.2,1.777778 -2.316,1.777778 z m 4.8,-4.740741 c -1.1184,0 -2.0484,-0.757333 -2.316,-1.777778 -0.0492,0.190815 -0.084,0.386371 -0.084,0.592593 0,1.308444 1.074,2.37037 2.4,2.37037 1.3248,0 2.4,-1.061926 2.4,-2.37037 0,-0.206222 -0.0348,-0.401778 -0.084,-0.592593 -0.2688,1.020445 -1.2,1.777778 -2.316,1.777778 z m -7.284,-1.777778 c -0.2688,1.020445 -1.2,1.777778 -2.316,1.777778 -1.1184,0 -2.0484,-0.757333 -2.316,-1.777778 -0.0492,0.190815 -0.084,0.386371 -0.084,0.592593 0,1.308444 1.074,2.37037 2.4,2.37037 1.3248,0 2.4,-1.061926 2.4,-2.37037 0,-0.206222 -0.0348,-0.401778 -0.084,-0.592593 z M 64.8,47.407407 c 1.3248,0 2.4,-1.061926 2.4,-2.37037 0,-0.206222 -0.0348,-0.401778 -0.084,-0.592593 -0.2688,1.020445 -1.2,1.777778 -2.316,1.777778 -1.1184,0 -2.0484,-0.757333 -2.316,-1.777778 -0.0492,0.190815 -0.084,0.386371 -0.084,0.592593 0,1.308444 1.074,2.37037 2.4,2.37037 z"
   id="path48"
   inkscape:connector-curvature="0"
   style="fill-opacity:0.2;stroke-width:1.19256961" />
<path
   d="m 37.2,45.62963 h -2.4 c -0.33,0 -0.6,-0.266667 -0.6,-0.592593 v -2.37037 c 0,-0.980148 -0.8076,-1.777778 -1.8,-1.777778 H 30 c -0.9924,0 -1.8,0.79763 -1.8,1.777778 v 2.37037 c 0,0.321185 -0.2748,0.592593 -0.6,0.592593 h -2.4 c -0.9924,0 -1.8,0.797629 -1.8,1.777777 v 2.370371 c 0,0.980148 0.8076,1.777778 1.8,1.777778 h 2.4 c 0.3252,0 0.6,0.271407 0.6,0.592592 v 2.370371 c 0,0.980148 0.8076,1.777777 1.8,1.777777 h 2.4 c 0.9924,0 1.8,-0.797629 1.8,-1.777777 v -2.370371 c 0,-0.325926 0.27,-0.592592 0.6,-0.592592 h 2.4 c 0.9924,0 1.8,-0.79763 1.8,-1.777778 V 47.407407 C 39,46.427259 38.1924,45.62963 37.2,45.62963 Z m 1.2,4.148148 c 0,0.651852 -0.5412,1.185185 -1.2,1.185185 h -2.4 c -0.6612,0 -1.2,0.533333 -1.2,1.185185 v 2.370371 c 0,0.651851 -0.5412,1.185185 -1.2,1.185185 H 30 c -0.6612,0 -1.2,-0.533334 -1.2,-1.185185 v -2.370371 c 0,-0.651852 -0.5412,-1.185185 -1.2,-1.185185 h -2.4 c -0.6612,0 -1.2,-0.533333 -1.2,-1.185185 v -2.370371 c 0,-0.651851 0.5388,-1.185185 1.2,-1.185185 h 2.4 c 0.6588,0 1.2,-0.533333 1.2,-1.185185 v -2.37037 c 0,-0.651852 0.5388,-1.185186 1.2,-1.185186 h 2.4 c 0.6588,0 1.2,0.533334 1.2,1.185186 v 2.37037 c 0,0.651852 0.5388,1.185185 1.2,1.185185 h 2.4 c 0.6588,0 1.2,0.533334 1.2,1.185185 z m 26.4,-2.962963 c 1.6548,0 3,-1.328593 3,-2.962963 0,-1.634371 -1.3452,-2.962963 -3,-2.962963 -1.6548,0 -3,1.328592 -3,2.962963 0,1.63437 1.3452,2.962963 3,2.962963 z m 0,-5.333334 c 1.3248,0 2.4,1.061926 2.4,2.370371 0,1.308444 -1.0752,2.37037 -2.4,2.37037 -1.326,0 -2.4,-1.061926 -2.4,-2.37037 0,-1.308445 1.074,-2.370371 2.4,-2.370371 z m 11.58,-1.185185 c -1.3308,-5.259852 -5.9784,-6.460444 -15.6,-7.111111 0,0 -1.2,0 -2.4,1.185185 -0.222,0.218074 -0.4596,0.442074 -0.6564,0.647111 -0.4632,0.482371 -1.4484,1.434075 -1.9356,1.340445 -4.188,-0.80237 -11.388,-0.80237 -15.576,0 -0.4872,0.09363 -1.4748,-0.858074 -1.938,-1.340445 -0.1944,-0.205037 -0.4332,-0.429037 -0.654,-0.647111 -1.2,-1.185185 -2.4,-1.185185 -2.4,-1.185185 -9.6216,0.650667 -14.2692,1.852445 -15.6,7.111111 -3.6,14.222223 -1.2,36.740741 7.2,36.740741 6.9396,0 10.38,-5.925926 12.78,-15.407407 1.2,-3.555556 6,-3.555556 8.4,-3.555556 2.4,0 7.2,0 8.4,3.555556 2.4,9.481481 5.8404,15.407407 12.78,15.407407 8.4,0 10.8,-22.518518 7.2,-36.740741 z m -7.2,36.148148 c -5.8968,0 -9.546,-4.471703 -12.1992,-14.958222 -1.35,-4.004741 -6.504,-4.004741 -8.9808,-4.004741 -2.4768,0 -7.632,0 -8.97,3.960889 -2.6652,10.530371 -6.3144,15.002074 -12.21,15.002074 -1.3848,0 -2.6556,-0.719407 -3.7764,-2.139259 -4.5252,-5.723259 -5.8788,-21.864296 -2.8392,-33.865481 1.242,-4.913778 5.6496,-6.027852 15.0576,-6.663111 0,0 0.9444,0.03437 1.9344,1.012148 l 0.222,0.216889 c 0.1464,0.142222 0.2928,0.283259 0.42,0.417185 1.4688,1.527704 2.0736,1.534815 2.3016,1.534815 h 0.0612 l 0.1272,-0.01778 c 1.9596,-0.375704 4.7568,-0.591408 7.674,-0.591408 2.9184,0 5.7144,0.215704 7.6752,0.591408 l 0.0564,0.01067 0.1284,0.0071 c 0.2064,0 0.8328,-0.0012 2.2992,-1.532445 0.1248,-0.128 0.2652,-0.266666 0.408,-0.404148 l 0.2364,-0.231111 c 0.99,-0.977778 1.9416,-1.010963 1.9824,-1.012148 9.36,0.634074 13.7676,1.748148 15.0108,6.661926 3.0384,12.001185 1.6836,28.142222 -2.8404,33.865481 -1.1232,1.419852 -2.3928,2.139259 -3.7788,2.139259 z M 69.6,45.62963 c -1.6548,0 -3,1.328592 -3,2.962963 0,1.63437 1.3452,2.962963 3,2.962963 1.6548,0 3,-1.328593 3,-2.962963 0,-1.634371 -1.3452,-2.962963 -3,-2.962963 z m 0,5.333333 c -1.326,0 -2.4,-1.061926 -2.4,-2.37037 0,-1.308445 1.074,-2.370371 2.4,-2.370371 1.3248,0 2.4,1.061926 2.4,2.370371 0,1.308444 -1.0752,2.37037 -2.4,2.37037 z M 64.8,50.37037 c -1.6548,0 -3,1.328593 -3,2.962963 0,1.634371 1.3452,2.962963 3,2.962963 1.6548,0 3,-1.328592 3,-2.962963 0,-1.63437 -1.3452,-2.962963 -3,-2.962963 z m 0,5.333334 c -1.326,0 -2.4,-1.061926 -2.4,-2.370371 0,-1.308444 1.074,-2.37037 2.4,-2.37037 1.3248,0 2.4,1.061926 2.4,2.37037 0,1.308445 -1.0752,2.370371 -2.4,2.370371 z M 63,48.592593 c 0,-1.634371 -1.3452,-2.962963 -3,-2.962963 -1.6548,0 -3,1.328592 -3,2.962963 0,1.63437 1.3452,2.962963 3,2.962963 1.6548,0 3,-1.328593 3,-2.962963 z m -3,2.37037 c -1.326,0 -2.4,-1.061926 -2.4,-2.37037 0,-1.308445 1.074,-2.370371 2.4,-2.370371 1.3248,0 2.4,1.061926 2.4,2.370371 0,1.308444 -1.0752,2.37037 -2.4,2.37037 z"
   id="path50"
   inkscape:connector-curvature="0"
   style="fill-opacity:0.1;stroke-width:1.19256961" />
</svg>