<?xml version="1.0" encoding="UTF-8" standalone="no"?>
<!-- Generator: Adobe Illustrator 17.1.0, SVG Export Plug-In . SVG Version: 6.00 Build 0)  -->

<svg
   xmlns:dc="http://purl.org/dc/elements/1.1/"
   xmlns:cc="http://creativecommons.org/ns#"
   xmlns:rdf="http://www.w3.org/1999/02/22-rdf-syntax-ns#"
   xmlns:svg="http://www.w3.org/2000/svg"
   xmlns="http://www.w3.org/2000/svg"
   xmlns:sodipodi="http://sodipodi.sourceforge.net/DTD/sodipodi-0.dtd"
   xmlns:inkscape="http://www.inkscape.org/namespaces/inkscape"
   version="1.1"
   id="Livello_1"
   x="0px"
   y="0px"
   width="96px"
   height="96px"
   viewBox="0 0 96 96"
   enable-background="new 0 0 96 96"
   xml:space="preserve"
   sodipodi:docname="icon-launcher-folder-16.svg"
   inkscape:version="0.92.2 2405546, 2018-03-11"><metadata
   id="metadata59"><rdf:RDF><cc:Work
       rdf:about=""><dc:format>image/svg+xml</dc:format><dc:type
         rdf:resource="http://purl.org/dc/dcmitype/StillImage" /></cc:Work></rdf:RDF></metadata><defs
   id="defs57" /><sodipodi:namedview
   pagecolor="#ffffff"
   bordercolor="#666666"
   borderopacity="1"
   objecttolerance="10"
   gridtolerance="10"
   guidetolerance="10"
   inkscape:pageopacity="0"
   inkscape:pageshadow="2"
   inkscape:window-width="1366"
   inkscape:window-height="717"
   id="namedview55"
   showgrid="false"
   inkscape:zoom="2.4583333"
   inkscape:cx="47.999999"
   inkscape:cy="47.999999"
   inkscape:window-x="0"
   inkscape:window-y="25"
   inkscape:window-maximized="1"
   inkscape:current-layer="Livello_1" />
<path
   d="M 93,48.555556 C 93,81.481111 81.341625,93 48,93 14.660625,93 3,81.481111 3,48.555556 3,15.627778 14.660625,4.1111111 48,4.1111111 c 33.341625,0 45,11.5166669 45,44.4444449 z"
   id="path2"
   inkscape:connector-curvature="0"
   style="fill-opacity:0.4;stroke-width:1.11803401" />
<rect
   width="90"
   height="90"
   id="rect4"
   x="3"
   y="3"
   style="fill:none;stroke-width:0.9375" />
<linearGradient
   id="SVGID_1_"
   gradientUnits="userSpaceOnUse"
   x1="18.8052"
   y1="247.8652"
   x2="18.8052"
   y2="263.8652"
   gradientTransform="matrix(1.125,0,0,1.1111111,26.84415,-272.40578)">
	<stop
   offset="0"
   style="stop-color:#E4BE34"
   id="stop6" />
	<stop
   offset="1"
   style="stop-color:#E0AA18"
   id="stop8" />
</linearGradient>
<path
   d="M 88.5045,20.777778 C 82.4835,7.9888889 69.936375,3 48,3 26.06475,3 13.5165,7.9888889 7.4955,20.777778 Z"
   id="path11"
   style="fill:url(#SVGID_1_);stroke-width:1.11803401"
   inkscape:connector-curvature="0" />
<path
   d="m 48,91.888889 c 33.343875,0 45,-11.517778 45,-44.444445 0,-12.751111 -1.7595,-22.278889 -5.837625,-29.183333 h -41.0715 C 45.467625,17.506667 44.346,16.096667 42.39525,13.503334 41.3175,12.071111 38.875125,9.6666667 34.63275,9.6666667 H 16.98825 C 7.001625,16.255555 3,28.182222 3,47.444444 3,80.371111 14.660625,91.888889 48,91.888889 Z"
   id="path13"
   inkscape:connector-curvature="0"
   style="fill-opacity:0.02000002;stroke-width:1.11803401" />
<path
   d="m 48,91.888889 c 33.343875,0 45,-11.517778 45,-44.444445 C 93,35.037778 91.340625,25.673333 87.495375,18.816667 H 45.82425 c -0.547875,-0.653334 -1.693125,-2.073333 -3.882375,-4.981111 -1.013625,-1.35 -3.315375,-3.613334 -7.309125,-3.613334 h -18.459 C 6.781125,16.916666 3,28.713334 3,47.444444 3,80.371111 14.660625,91.888889 48,91.888889 Z"
   id="path15"
   inkscape:connector-curvature="0"
   style="fill-opacity:0.05;stroke-width:1.11803401" />
<path
   d="m 48,91.888889 c 33.343875,0 45,-11.517778 45,-44.444445 C 93,35.365555 91.42275,26.177778 87.787875,19.372222 H 45.56325 c -0.4815,-0.56 -1.632375,-1.964444 -4.071375,-5.205555 -0.954,-1.265556 -3.11175,-3.388889 -6.859125,-3.388889 H 15.427875 C 6.58425,17.561111 3,29.218889 3,47.444444 3,80.371111 14.660625,91.888889 48,91.888889 Z"
   id="path17"
   inkscape:connector-curvature="0"
   style="fill-opacity:0.05;stroke-width:1.11803401" />
<path
   d="m 48,91.888889 c 33.343875,0 45,-11.517778 45,-44.444445 C 93,35.69 91.50375,26.676667 88.07475,19.927777 H 45.3045 c -0.367875,-0.414444 -1.48725,-1.74 -4.26375,-5.429999 -0.889875,-1.181112 -2.905875,-3.165556 -6.406875,-3.165556 h -19.908 C 6.393,18.192222 3,29.707777 3,47.444444 3,80.371111 14.660625,91.888889 48,91.888889 Z"
   id="path19"
   inkscape:connector-curvature="0"
   style="fill-opacity:0.1;stroke-width:1.11803401" />
<linearGradient
   id="SVGID_2_"
   gradientUnits="userSpaceOnUse"
   x1="18.8052"
   y1="255.8652"
   x2="18.8052"
   y2="327.8652"
   gradientTransform="matrix(1.125,0,0,1.1111111,26.84415,-272.40578)">
	<stop
   offset="0"
   style="stop-color:#E6CD49"
   id="stop21" />
	<stop
   offset="1"
   style="stop-color:#E0A714"
   id="stop23" />
</linearGradient>
<path
   d="m 48,91.888889 c 33.343875,0 45,-11.517778 45,-44.444445 0,-11.431111 -1.409625,-20.276666 -4.638375,-26.961111 h -43.30575 c 0,0 -0.826875,-0.816666 -4.467375,-5.654444 -1.072125,-1.425556 -2.977875,-2.94 -5.95575,-2.94 -3.6225,0 -13.426875,0 -20.5605,0 C 6.214125,18.807778 3,30.178889 3,47.444444 3,80.371111 14.660625,91.888889 48,91.888889 Z"
   id="path26"
   style="fill:url(#SVGID_2_);stroke-width:1.11803401"
   inkscape:connector-curvature="0" />
<path
   d="m 12.87975,13 c 7.18875,0 17.92575,0 21.753,0 2.601,0 5.072625,1.141111 6.370875,2.381112 C 40.8675,15.2 40.733625,15.023333 40.5885,14.83 c -1.072125,-1.426667 -2.977875,-2.941111 -5.95575,-2.941111 -3.6225,0 -13.426875,0 -20.5605,0 C 13.663875,12.247778 13.263375,12.615556 12.87975,13 Z"
   id="path28"
   inkscape:connector-curvature="0"
   style="fill:#ffffff;fill-opacity:0.5;stroke-width:1.11803401" />
<path
   d="M 88.361625,20.483333 H 45.055875 L 45.9615,21.575556 88.86,21.590002 C 88.696875,21.217777 88.534875,20.844444 88.361625,20.483333 Z"
   id="path30"
   inkscape:connector-curvature="0"
   style="fill:#ffffff;fill-opacity:0.5;stroke-width:1.11803401" />
<linearGradient
   id="SVGID_3_"
   gradientUnits="userSpaceOnUse"
   x1="-175.1201"
   y1="1063.959"
   x2="-175.1201"
   y2="1143.2036"
   gradientTransform="matrix(1.125,0,0,1.1111111,245.01011,-1178.8957)">
	<stop
   offset="0"
   style="stop-color:#FFFFFF"
   id="stop32" />
	<stop
   offset="1"
   style="stop-color:#FFFFFF;stop-opacity:0"
   id="stop34" />
</linearGradient>
<path
   d="M 48,3 C 14.660625,3 3,14.517778 3,47.444444 c 0,32.926667 11.660625,44.444445 45,44.444445 33.343875,0 45,-11.517778 45,-44.444445 C 93,14.517778 81.341625,3 48,3 Z m 0,87.777778 C 15.19725,90.777778 4.125,79.842222 4.125,47.444444 4.125,15.046667 15.19725,4.1111111 48,4.1111111 c 32.80275,0 43.875,10.9355559 43.875,43.3333329 0,32.397778 -11.07225,43.333334 -43.875,43.333334 z"
   id="path37"
   style="fill:url(#SVGID_3_);fill-opacity:0.15;stroke-width:1.11803401"
   inkscape:connector-curvature="0" />
<linearGradient
   id="SVGID_4_"
   gradientUnits="userSpaceOnUse"
   x1="18.8052"
   y1="272.8652"
   x2="18.8052"
   y2="314.8652"
   gradientTransform="matrix(1.125,0,0,1.1111111,26.84415,-272.40578)">
	<stop
   offset="0"
   style="stop-color:#D6A214"
   id="stop39" />
	<stop
   offset="0.75"
   style="stop-color:#CE820A"
   id="stop41" />
	<stop
   offset="1"
   style="stop-color:#CE820A"
   id="stop43" />
</linearGradient>
<path
   d="m 77.25,30.777778 h -58.5 c -0.622125,0 -1.125,0.496666 -1.125,1.111111 v 37.777778 c 0,0.614445 0.502875,1.11111 1.125,1.11111 h 27 V 73 H 40.125 L 34.5,75.222222 v 2.222222 h 27 V 75.222222 L 55.875,73 H 50.25 v -2.222223 h 27 c 0.622125,0 1.125,-0.496665 1.125,-1.11111 V 31.888889 c 0,-0.614445 -0.502875,-1.111111 -1.125,-1.111111 z M 75,65.222222 c 0,0.611111 -0.507375,1.111112 -1.125,1.111112 h -51.75 c -0.61875,0 -1.125,-0.500001 -1.125,-1.111112 v -30 c 0,-0.61111 0.50625,-1.111111 1.125,-1.111111 h 51.75 c 0.617625,0 1.125,0.500001 1.125,1.111111 z"
   id="path46"
   style="fill:url(#SVGID_4_);fill-opacity:0.9;stroke-width:1.11803401"
   inkscape:connector-curvature="0" />
<path
   d="m 22.125,35.222222 h 51.75 c 0.617625,0 1.125,0.5 1.125,1.111112 v -1.111112 c 0,-0.61111 -0.507375,-1.111111 -1.125,-1.111111 h -51.75 c -0.61875,0 -1.125,0.500001 -1.125,1.111111 v 1.111112 c 0,-0.611112 0.50625,-1.111112 1.125,-1.111112 z M 45.75,70.777777 h -27 c -0.622125,0 -1.125,-0.496665 -1.125,-1.11111 v 1.11111 c 0,0.614445 0.502875,1.111111 1.125,1.111111 h 27 z M 34.5,78.555556 h 27 v -1.111112 h -27 z m 42.75,-7.777779 h -27 v 1.111111 h 27 c 0.622125,0 1.125,-0.496665 1.125,-1.111111 v -1.11111 c 0,0.614445 -0.502875,1.11111 -1.125,1.11111 z"
   id="path48"
   inkscape:connector-curvature="0"
   style="fill:#ffffff;fill-opacity:0.35;stroke-width:1.11803401" />
<path
   d="m 73.875,66.333334 h -51.75 c -0.61875,0 -1.125,-0.500001 -1.125,-1.111112 v 1.111112 c 0,0.61111 0.50625,1.111111 1.125,1.111111 h 51.75 c 0.617625,0 1.125,-0.500001 1.125,-1.111111 v -1.111112 c 0,0.611111 -0.507375,1.111112 -1.125,1.111112 z M 34.5,75.222222 v 1.111111 l 5.625,-2.222222 H 45.75 V 73 H 40.125 Z M 77.25,30.777778 h -58.5 c -0.622125,0 -1.125,0.496666 -1.125,1.111111 V 33 c 0,-0.614444 0.502875,-1.111111 1.125,-1.111111 h 58.5 c 0.622125,0 1.125,0.496667 1.125,1.111111 v -1.111111 c 0,-0.614445 -0.502875,-1.111111 -1.125,-1.111111 z M 50.25,73 v 1.111111 h 5.625 L 61.5,76.333333 V 75.222222 L 55.875,73 Z"
   id="path50"
   inkscape:connector-curvature="0"
   style="fill-opacity:0.2;stroke-width:1.11803401" />
<path
   d="m 73.875,33.555556 h -51.75 c -0.930375,0 -1.6875,0.747777 -1.6875,1.666666 v 30 c 0,0.91889 0.757125,1.666667 1.6875,1.666667 h 51.75 c 0.930375,0 1.6875,-0.747777 1.6875,-1.666667 v -30 c 0,-0.918889 -0.757125,-1.666666 -1.6875,-1.666666 z M 75,65.222222 c 0,0.611111 -0.507375,1.111112 -1.125,1.111112 h -51.75 c -0.61875,0 -1.125,-0.500001 -1.125,-1.111112 v -30 c 0,-0.61111 0.50625,-1.111111 1.125,-1.111111 h 51.75 c 0.617625,0 1.125,0.500001 1.125,1.111111 z m 2.25,-34.444444 h -58.5 c -0.622125,0 -1.125,0.496666 -1.125,1.111111 v 37.777778 c 0,0.614445 0.502875,1.11111 1.125,1.11111 h 27 V 73 H 40.125 L 34.5,75.222222 v 2.222222 h 27 V 75.222222 L 55.875,73 H 50.25 v -2.222223 h 27 c 0.622125,0 1.125,-0.496665 1.125,-1.11111 V 31.888889 c 0,-0.614445 -0.502875,-1.111111 -1.125,-1.111111 z m 0.5625,38.888889 c 0,0.305555 -0.253125,0.555555 -0.5625,0.555555 H 49.6875 v 3.333333 h 6.07725 l 5.17275,2.043334 v 1.29 h -25.875 v -1.29 l 5.171625,-2.043334 H 46.3125 V 70.222222 H 18.75 c -0.309375,0 -0.5625,-0.25 -0.5625,-0.555555 V 31.888889 c 0,-0.305556 0.253125,-0.555556 0.5625,-0.555556 h 58.5 c 0.309375,0 0.5625,0.25 0.5625,0.555556 z"
   id="path52"
   inkscape:connector-curvature="0"
   style="fill-opacity:0.1;stroke-width:1.11803401" />
</svg>