<?xml version="1.0" encoding="UTF-8" standalone="no"?>
<!-- Generator: Adobe Illustrator 15.0.2, SVG Export Plug-In . SVG Version: 6.00 Build 0)  -->

<svg
   xmlns:dc="http://purl.org/dc/elements/1.1/"
   xmlns:cc="http://creativecommons.org/ns#"
   xmlns:rdf="http://www.w3.org/1999/02/22-rdf-syntax-ns#"
   xmlns:svg="http://www.w3.org/2000/svg"
   xmlns="http://www.w3.org/2000/svg"
   xmlns:sodipodi="http://sodipodi.sourceforge.net/DTD/sodipodi-0.dtd"
   xmlns:inkscape="http://www.inkscape.org/namespaces/inkscape"
   version="1.1"
   id="Livello_1"
   x="0px"
   y="0px"
   width="96px"
   height="96px"
   viewBox="0 0 96 96"
   enable-background="new 0 0 96 96"
   xml:space="preserve"
   sodipodi:docname="icon-launcher-folder-10.svg"
   inkscape:version="0.92.2 2405546, 2018-03-11"><metadata
   id="metadata57"><rdf:RDF><cc:Work
       rdf:about=""><dc:format>image/svg+xml</dc:format><dc:type
         rdf:resource="http://purl.org/dc/dcmitype/StillImage" /></cc:Work></rdf:RDF></metadata><defs
   id="defs55" /><sodipodi:namedview
   pagecolor="#ffffff"
   bordercolor="#666666"
   borderopacity="1"
   objecttolerance="10"
   gridtolerance="10"
   guidetolerance="10"
   inkscape:pageopacity="0"
   inkscape:pageshadow="2"
   inkscape:window-width="1366"
   inkscape:window-height="717"
   id="namedview53"
   showgrid="false"
   inkscape:zoom="2.4583333"
   inkscape:cx="48"
   inkscape:cy="48"
   inkscape:window-x="0"
   inkscape:window-y="25"
   inkscape:window-maximized="1"
   inkscape:current-layer="Livello_1" />
<path
   d="M 96,48.592593 C 96,83.713185 83.5644,96 48,96 12.438,96 0,83.713185 0,48.592593 0,13.46963 12.438,1.1851852 48,1.1851852 c 35.5644,0 48,12.2844448 48,47.4074078 z"
   id="path2"
   inkscape:connector-curvature="0"
   style="fill-opacity:0.4;stroke-width:1.19256961" />
<rect
   fill="none"
   width="96"
   height="96"
   id="rect4" />
<linearGradient
   id="SVGID_1_"
   gradientUnits="userSpaceOnUse"
   x1="18.8052"
   y1="-147.8652"
   x2="18.8052"
   y2="-163.8652"
   gradientTransform="matrix(1.2,0,0,-1.1851852,25.43376,-175.24765)">
	<stop
   offset="0"
   style="stop-color:#E4BE34"
   id="stop6" />
	<stop
   offset="1"
   style="stop-color:#E0AA18"
   id="stop8" />
</linearGradient>
<path
   d="M 91.2048,18.962963 C 84.7824,5.3214815 71.3988,0 48,0 24.6024,0 11.2176,5.3214815 4.7952,18.962963 Z"
   id="path11"
   style="fill:url(#SVGID_1_);stroke-width:1.19256961"
   inkscape:connector-curvature="0" />
<path
   d="m 48,94.814815 c 35.5668,0 48,-12.28563 48,-47.407408 C 96,33.806222 94.1232,23.643259 89.7732,16.278519 H 45.9636 C 45.2988,15.473778 44.1024,13.969778 42.0216,11.203556 40.872,9.6758519 38.2668,7.1111111 33.7416,7.1111111 H 14.9208 C 4.2684,14.139259 0,26.861037 0,47.407407 0,82.529185 12.438,94.814815 48,94.814815 Z"
   id="path13"
   inkscape:connector-curvature="0"
   style="fill-opacity:0.02000002;stroke-width:1.19256961" />
<path
   d="m 48,94.814815 c 35.5668,0 48,-12.28563 48,-47.407408 C 96,34.17363 94.23,24.184889 90.1284,16.871111 H 45.6792 c -0.5844,-0.696889 -1.806,-2.211555 -4.1412,-5.313185 -1.0812,-1.44 -3.5364,-3.8542223 -7.7964,-3.8542223 H 14.052 C 4.0332,14.844444 0,27.427556 0,47.407407 0,82.529185 12.438,94.814815 48,94.814815 Z"
   id="path15"
   inkscape:connector-curvature="0"
   style="fill-opacity:0.05;stroke-width:1.19256961" />
<path
   d="m 48,94.814815 c 35.5668,0 48,-12.28563 48,-47.407408 C 96,34.523259 94.3176,24.722963 90.4404,17.463704 H 45.4008 C 44.8872,16.86637 43.6596,15.368296 41.058,11.911111 40.0404,10.561185 37.7388,8.2962963 33.7416,8.2962963 H 13.2564 C 3.8232,15.531852 0,27.966815 0,47.407407 0,82.529185 12.438,94.814815 48,94.814815 Z"
   id="path17"
   inkscape:connector-curvature="0"
   style="fill-opacity:0.05;stroke-width:1.19256961" />
<path
   d="m 48,94.814815 c 35.5668,0 48,-12.28563 48,-47.407408 C 96,34.869333 94.404,25.255111 90.7464,18.056296 H 45.1248 c -0.3924,-0.442074 -1.5864,-1.856 -4.548,-5.792 -0.9492,-1.259852 -3.0996,-3.3765923 -6.834,-3.3765923 H 12.5076 C 3.6192,16.205037 0,28.488296 0,47.407407 0,82.529185 12.438,94.814815 48,94.814815 Z"
   id="path19"
   inkscape:connector-curvature="0"
   style="fill-opacity:0.1;stroke-width:1.19256961" />
<linearGradient
   id="SVGID_2_"
   gradientUnits="userSpaceOnUse"
   x1="18.8052"
   y1="-155.8652"
   x2="18.8052"
   y2="-227.8652"
   gradientTransform="matrix(1.2,0,0,-1.1851852,25.43376,-175.24765)">
	<stop
   offset="0"
   style="stop-color:#E6CD49"
   id="stop21" />
	<stop
   offset="1"
   style="stop-color:#E0A714"
   id="stop23" />
</linearGradient>
<path
   d="m 48,94.814815 c 35.5668,0 48,-12.28563 48,-47.407408 C 96,35.214222 94.4964,25.778963 91.0524,18.648889 H 44.8596 c 0,0 -0.882,-0.871111 -4.7652,-6.031408 -1.1436,-1.520592 -3.1764,-3.1359995 -6.3528,-3.1359995 -3.864,0 -14.322,0 -21.9312,0 C 3.4284,16.86163 0,28.990815 0,47.407407 0,82.529185 12.438,94.814815 48,94.814815 Z"
   id="path26"
   style="fill:url(#SVGID_2_);stroke-width:1.19256961"
   inkscape:connector-curvature="0" />
<path
   d="M 33.7416,9.4814815 H 11.8104 c -0.4356,0.3828148 -0.8628,0.7751115 -1.272,1.1851855 h 23.2032 c 2.7744,0 5.4108,1.217185 6.7956,2.539852 -0.1452,-0.193186 -0.288,-0.38163 -0.4428,-0.587852 C 38.9508,11.096889 36.918,9.4814815 33.7416,9.4814815 Z M 91.0524,18.648889 H 44.8596 l 0.966,1.165037 45.7584,0.01541 c -0.174,-0.39704 -0.3468,-0.795262 -0.5316,-1.180447 z"
   id="path28"
   inkscape:connector-curvature="0"
   style="fill:#ffffff;fill-opacity:0.5;stroke-width:1.19256961" />
<linearGradient
   id="SVGID_3_"
   gradientUnits="userSpaceOnUse"
   x1="-175.1201"
   y1="-963.959"
   x2="-175.1201"
   y2="-1043.2036"
   gradientTransform="matrix(1.2,0,0,-1.1851852,258.14412,-1142.1702)">
	<stop
   offset="0"
   style="stop-color:#FFFFFF"
   id="stop30" />
	<stop
   offset="1"
   style="stop-color:#FFFFFF;stop-opacity:0"
   id="stop32" />
</linearGradient>
<path
   d="M 48,0 C 12.438,0 0,12.28563 0,47.407407 c 0,35.121778 12.438,47.407408 48,47.407408 35.5668,0 48,-12.28563 48,-47.407408 C 96,12.28563 83.5644,0 48,0 Z m 0,93.62963 C 13.0104,93.62963 1.2,81.965037 1.2,47.407407 1.2,12.849778 13.0104,1.1851852 48,1.1851852 c 34.9896,0 46.8,11.6645928 46.8,46.2222218 0,34.55763 -11.8104,46.222223 -46.8,46.222223 z"
   id="path35"
   style="fill:url(#SVGID_3_);fill-opacity:0.15;stroke-width:1.19256961"
   inkscape:connector-curvature="0" />
<linearGradient
   id="SVGID_4_"
   gradientUnits="userSpaceOnUse"
   x1="21.8052"
   y1="-176.8652"
   x2="21.8052"
   y2="-210.8647"
   gradientTransform="matrix(1.2,0,0,-1.1851852,25.43376,-175.24765)">
	<stop
   offset="0"
   style="stop-color:#D6A214"
   id="stop37" />
	<stop
   offset="0.75"
   style="stop-color:#CE820A"
   id="stop39" />
	<stop
   offset="1"
   style="stop-color:#CE820A"
   id="stop41" />
</linearGradient>
<path
   d="m 34.8,37.540741 c 0,-2.919111 2.0904,-4.024889 4.6428,-2.458074 l 27.042,16.586666 c 2.5524,1.56563 2.5524,4.130371 0,5.699556 L 39.4428,73.953185 C 36.8904,75.521185 34.8,74.415407 34.8,71.496296 Z"
   id="path44"
   style="fill:url(#SVGID_4_);fill-opacity:0.9;stroke-width:1.19256961"
   inkscape:connector-curvature="0" />
<path
   d="M 66.4848,57.365333 39.4428,73.953185 C 36.8904,75.521185 34.8,74.415407 34.8,71.496296 v 1.185185 c 0,2.919112 2.0904,4.024889 4.6428,2.456889 l 27.042,-16.587851 c 1.5216,-0.932741 2.1144,-2.219852 1.8228,-3.440593 -0.198,0.827259 -0.7908,1.623704 -1.8228,2.255407 z"
   id="path46"
   inkscape:connector-curvature="0"
   style="fill:#ffffff;fill-opacity:0.35;stroke-width:1.19256961" />
<path
   d="m 39.4428,36.267852 27.042,16.586667 c 1.0308,0.631703 1.6248,1.429333 1.8228,2.255407 0.2916,-1.21837 -0.3012,-2.506667 -1.8228,-3.440593 L 39.4428,35.082667 C 36.8904,33.515852 34.8,34.62163 34.8,37.540741 v 1.185185 c 0,-2.919111 2.0904,-4.024889 4.6428,-2.458074 z"
   id="path48"
   inkscape:connector-curvature="0"
   style="fill-opacity:0.2;stroke-width:1.19256961" />
<path
   d="M 66.4848,51.669333 39.4428,35.082667 C 36.8904,33.515852 34.8,34.62163 34.8,37.540741 v 33.955555 c 0,2.919111 2.0904,4.024889 4.6428,2.456889 l 27.042,-16.587852 c 2.5524,-1.565629 2.5524,-4.13037 0,-5.696 z M 66.1692,56.864 39.126,73.451852 c -0.6648,0.407704 -1.3092,0.622222 -1.866,0.622222 -1.1652,0 -1.8612,-0.963555 -1.8612,-2.577778 V 37.540741 c 0,-1.613037 0.696,-2.577778 1.8612,-2.577778 0.5568,0 1.2012,0.215704 1.866,0.622222 l 27.0432,16.586667 c 1.05,0.645926 1.6284,1.479111 1.6296,2.345481 0.0012,0.866371 -0.5772,1.700741 -1.6296,2.346667 z"
   id="path50"
   inkscape:connector-curvature="0"
   style="fill-opacity:0.1;stroke-width:1.19256961" />
</svg>