<?xml version="1.0" encoding="UTF-8" standalone="no"?>
<!-- Generator: Adobe Illustrator 17.1.0, SVG Export Plug-In . SVG Version: 6.00 Build 0)  -->

<svg
   xmlns:ns="&amp;ns_sfw;"
   xmlns:dc="http://purl.org/dc/elements/1.1/"
   xmlns:cc="http://creativecommons.org/ns#"
   xmlns:rdf="http://www.w3.org/1999/02/22-rdf-syntax-ns#"
   xmlns:svg="http://www.w3.org/2000/svg"
   xmlns="http://www.w3.org/2000/svg"
   xmlns:sodipodi="http://sodipodi.sourceforge.net/DTD/sodipodi-0.dtd"
   xmlns:inkscape="http://www.inkscape.org/namespaces/inkscape"
   version="1.1"
   id="Livello_1"
   x="0px"
   y="0px"
   width="96px"
   height="96px"
   viewBox="0 0 96 96"
   enable-background="new 0 0 96 96"
   xml:space="preserve"
   sodipodi:docname="icon-launcher-folder-06.svg"
   inkscape:version="0.92.2 2405546, 2018-03-11"><defs
   id="defs63" /><sodipodi:namedview
   pagecolor="#ffffff"
   bordercolor="#666666"
   borderopacity="1"
   objecttolerance="10"
   gridtolerance="10"
   guidetolerance="10"
   inkscape:pageopacity="0"
   inkscape:pageshadow="2"
   inkscape:window-width="1366"
   inkscape:window-height="717"
   id="namedview61"
   showgrid="false"
   inkscape:zoom="2.4583333"
   inkscape:cx="48"
   inkscape:cy="48"
   inkscape:window-x="0"
   inkscape:window-y="25"
   inkscape:window-maximized="1"
   inkscape:current-layer="Livello_1" />
<metadata
   id="metadata2">
	<ns:sfw>
		<ns:slices />
		<ns:sliceSourceBounds
   height="96"
   width="96"
   x="1"
   y="3"
   bottomLeftOrigin="true" />
	</ns:sfw>
<rdf:RDF><cc:Work
     rdf:about=""><dc:format>image/svg+xml</dc:format><dc:type
       rdf:resource="http://purl.org/dc/dcmitype/StillImage" /></cc:Work></rdf:RDF></metadata>
<path
   d="M 96,48.592593 C 96,83.715556 83.5668,96 48,96 12.438,96 0,83.715556 0,48.592593 0,13.472 12.438,1.1851852 48,1.1851852 c 35.5644,0 48,12.2868148 48,47.4074078 z"
   id="path4"
   inkscape:connector-curvature="0"
   style="fill-opacity:0.4;stroke-width:1.19256961" />
<rect
   fill="none"
   width="96"
   height="96"
   id="rect6" />
<linearGradient
   id="SVGID_1_"
   gradientUnits="userSpaceOnUse"
   x1="18.8052"
   y1="247.8652"
   x2="18.8052"
   y2="263.8652"
   gradientTransform="matrix(1.2,0,0,1.1851852,25.43376,-293.76617)">
	<stop
   offset="0"
   style="stop-color:#E4BE34"
   id="stop8" />
	<stop
   offset="1"
   style="stop-color:#E0AA18"
   id="stop10" />
</linearGradient>
<path
   d="M 91.2048,18.962963 C 84.7824,5.3214815 71.3988,0 48,0 24.6024,0 11.2176,5.3214815 4.7952,18.962963 Z"
   id="path13"
   style="fill:url(#SVGID_1_);stroke-width:1.19256961"
   inkscape:connector-curvature="0" />
<path
   d="m 48,94.814815 c 35.5668,0 48,-12.28563 48,-47.407408 C 96,33.806222 94.1244,23.643259 89.7732,16.278519 H 45.9636 C 45.2988,15.473778 44.1024,13.969778 42.0216,11.203556 40.872,9.6758519 38.2668,7.1111111 33.7416,7.1111111 H 14.922 C 4.2684,14.139259 0,26.861037 0,47.407407 0,82.529185 12.438,94.814815 48,94.814815 Z"
   id="path15"
   inkscape:connector-curvature="0"
   style="fill-opacity:0.02000002;stroke-width:1.19256961" />
<path
   d="m 48,94.814815 c 35.5668,0 48,-12.28563 48,-47.407408 C 96,34.17363 94.23,24.184889 90.1284,16.871111 H 45.6792 c -0.5844,-0.696889 -1.806,-2.211555 -4.14,-5.313185 -1.0824,-1.44 -3.5364,-3.8542223 -7.7976,-3.8542223 H 14.052 C 4.0332,14.844444 0,27.427556 0,47.407407 0,82.529185 12.438,94.814815 48,94.814815 Z"
   id="path17"
   inkscape:connector-curvature="0"
   style="fill-opacity:0.02000002;stroke-width:1.19256961" />
<path
   d="m 48,94.814815 c 35.5668,0 48,-12.28563 48,-47.407408 C 96,34.523259 94.3176,24.722963 90.4416,17.463704 H 45.3996 C 44.8872,16.86637 43.6596,15.368296 41.058,11.911111 40.0416,10.561185 37.7388,8.2962963 33.7416,8.2962963 H 13.2564 C 3.8232,15.531852 0,27.966815 0,47.407407 0,82.529185 12.438,94.814815 48,94.814815 Z"
   id="path19"
   inkscape:connector-curvature="0"
   style="fill-opacity:0.05;stroke-width:1.19256961" />
<path
   d="m 48,94.814815 c 35.5668,0 48,-12.28563 48,-47.407408 C 96,34.869333 94.404,25.255111 90.7464,18.056296 H 45.1248 c -0.3924,-0.442074 -1.5864,-1.856 -4.548,-5.792 -0.9492,-1.259852 -3.0984,-3.3765923 -6.834,-3.3765923 H 12.5076 C 3.6192,16.205037 0,28.488296 0,47.407407 0,82.529185 12.438,94.814815 48,94.814815 Z"
   id="path21"
   inkscape:connector-curvature="0"
   style="fill-opacity:0.05;stroke-width:1.19256961" />
<linearGradient
   id="SVGID_2_"
   gradientUnits="userSpaceOnUse"
   x1="18.8052"
   y1="255.8652"
   x2="18.8052"
   y2="327.8652"
   gradientTransform="matrix(1.2,0,0,1.1851852,25.43376,-293.76617)">
	<stop
   offset="0"
   style="stop-color:#E6CD49"
   id="stop23" />
	<stop
   offset="1"
   style="stop-color:#E0A714"
   id="stop25" />
</linearGradient>
<path
   d="m 48,94.814815 c 35.5668,0 48,-12.28563 48,-47.407408 C 96,35.214222 94.4964,25.778963 91.0512,18.648889 H 44.8596 c 0,0 -0.882,-0.871111 -4.7652,-6.031408 -1.1448,-1.520592 -3.1764,-3.1359995 -6.3528,-3.1359995 -3.8628,0 -14.322,0 -21.9312,0 C 3.4284,16.86163 0,28.990815 0,47.407407 0,82.529185 12.438,94.814815 48,94.814815 Z"
   id="path28"
   style="fill:url(#SVGID_2_);stroke-width:1.19256961"
   inkscape:connector-curvature="0" />
<path
   d="M 33.7416,9.4814815 H 11.8104 c -0.4356,0.3828148 -0.8628,0.7751115 -1.272,1.1851855 h 23.2032 c 2.7744,0 5.4096,1.217185 6.7956,2.539852 -0.1452,-0.193186 -0.288,-0.38163 -0.4428,-0.587852 C 38.9496,11.096889 36.918,9.4814815 33.7416,9.4814815 Z M 91.0512,18.648889 H 44.8596 l 0.966,1.165037 45.7584,0.01541 c -0.174,-0.39704 -0.3468,-0.795262 -0.5328,-1.180447 z"
   id="path30"
   inkscape:connector-curvature="0"
   style="fill:#ffffff;fill-opacity:0.5;stroke-width:1.19256961" />
<linearGradient
   id="SVGID_3_"
   gradientUnits="userSpaceOnUse"
   x1="-175.1201"
   y1="1063.959"
   x2="-175.1201"
   y2="1143.2036"
   gradientTransform="matrix(1.2,0,0,1.1851852,258.14412,-1260.6887)">
	<stop
   offset="0"
   style="stop-color:#FFFFFF"
   id="stop32" />
	<stop
   offset="1"
   style="stop-color:#FFFFFF;stop-opacity:0"
   id="stop34" />
</linearGradient>
<path
   d="M 48,0 C 12.438,0 0,12.28563 0,47.407407 c 0,35.121778 12.438,47.407408 48,47.407408 35.5668,0 48,-12.28563 48,-47.407408 C 96,12.28563 83.5644,0 48,0 Z m 0,93.62963 C 13.0104,93.62963 1.2,81.965037 1.2,47.407407 1.2,12.849778 13.0104,1.1851852 48,1.1851852 c 34.9896,0 46.8,11.6645928 46.8,46.2222218 0,34.55763 -11.8104,46.222223 -46.8,46.222223 z"
   id="path37"
   style="fill:url(#SVGID_3_);fill-opacity:0.15;stroke-width:1.19256961"
   inkscape:connector-curvature="0" />
<linearGradient
   id="SVGID_4_"
   gradientUnits="userSpaceOnUse"
   x1="18.8052"
   y1="314.9672"
   x2="18.8052"
   y2="274.8989"
   gradientTransform="matrix(1.2,0,0,1.1851852,25.43376,-293.76617)">
	<stop
   offset="0"
   style="stop-color:#CE820A"
   id="stop39" />
	<stop
   offset="0.25"
   style="stop-color:#CE820A"
   id="stop41" />
	<stop
   offset="1"
   style="stop-color:#D6A214"
   id="stop43" />
</linearGradient>
<path
   d="M 70.0896,50.936889 H 56.502 l 6.7944,-11.621926 c 1.356,-2.319407 0.5508,-5.283556 -1.7964,-6.622815 -2.346,-1.338074 -5.3532,-0.544 -6.7056,1.774222 L 48,46.088296 41.2056,34.465185 C 39.8508,32.144593 36.8484,31.351704 34.5,32.690963 c -2.3496,1.339259 -3.1512,4.303407 -1.7976,6.622815 l 6.7956,11.621926 h -13.59 c -2.7108,0 -4.908,2.171259 -4.908,4.848592 0,2.678519 2.1984,4.848593 4.908,4.848593 h 13.59 l -6.7956,11.621926 c -1.3536,2.320592 -0.552,5.284741 1.7976,6.625185 0.7728,0.439704 1.6164,0.648296 2.4492,0.648296 1.698,0 3.3468,-0.86874 4.2564,-2.424889 L 48,65.481481 54.7944,77.103407 c 0.9072,1.556149 2.5584,2.424889 4.2552,2.424889 0.834,0 1.6764,-0.208592 2.4504,-0.648296 2.3472,-1.340444 3.1524,-4.304593 1.7964,-6.625185 L 56.502,60.632889 h 13.5876 c 2.712,0 4.9104,-2.170074 4.9104,-4.848593 0,-2.676148 -2.1984,-4.847407 -4.9104,-4.847407 z"
   id="path46"
   style="fill:url(#SVGID_4_);fill-opacity:0.9;stroke-width:1.19256961"
   inkscape:connector-curvature="0" />
<path
   d="m 34.5,33.75763 c 2.3484,-1.33926 5.3496,-0.545186 6.7056,1.774222 L 48,47.154963 54.7944,35.531852 c 1.3524,-2.319408 4.3596,-3.112296 6.7056,-1.774222 1.4208,0.810666 2.2656,2.218666 2.4192,3.715555 0.228,-1.870222 -0.6636,-3.780741 -2.4192,-4.782222 -2.346,-1.338074 -5.3532,-0.544 -6.7056,1.774222 L 48,46.088296 41.2056,34.465185 C 39.8508,32.144593 36.8484,31.351704 34.5,32.690963 c -1.7568,1.001481 -2.6472,2.912 -2.418,4.782222 0.1524,-1.496889 0.996,-2.904889 2.418,-3.715555 z"
   id="path48"
   inkscape:connector-curvature="0"
   style="fill:#1a0900;fill-opacity:0.1;stroke-width:1.19256961" />
<path
   d="m 25.908,52.003556 h 13.59 L 38.874,50.936889 H 25.908 c -2.7108,0 -4.908,2.171259 -4.908,4.848592 0,0.181334 0.0348,0.356741 0.0552,0.533334 0.2712,-2.423704 2.328,-4.315259 4.8528,-4.315259 z"
   id="path50"
   inkscape:connector-curvature="0"
   style="fill:#1a0900;fill-opacity:0.1;stroke-width:1.19256961" />
<path
   d="m 39.498,61.700741 h -0.624 l -6.1716,10.554074 c -0.5352,0.916148 -0.7212,1.930666 -0.6216,2.908444 0.0768,-0.630518 0.2796,-1.257481 0.6216,-1.842963 z"
   id="path52"
   inkscape:connector-curvature="0"
   style="fill:#1a0900;fill-opacity:0.1;stroke-width:1.19256961" />
<path
   d="m 63.2964,73.320296 c 0.3408,0.585482 0.5448,1.210074 0.6228,1.842963 0.0996,-0.977778 -0.0876,-1.993481 -0.6228,-2.908444 L 57.1248,61.700741 h -0.624 z"
   id="path54"
   inkscape:connector-curvature="0"
   style="fill:#1a0900;fill-opacity:0.1;stroke-width:1.19256961" />
<path
   d="m 70.0896,52.003556 c 2.526,0 4.5828,1.891555 4.8552,4.315259 C 74.9652,56.142222 75,55.966815 75,55.785481 75,53.108148 72.8016,50.936889 70.0896,50.936889 H 57.1248 l -0.624,1.066667 z"
   id="path56"
   inkscape:connector-curvature="0"
   style="fill:#1a0900;fill-opacity:0.1;stroke-width:1.19256961" />
<path
   d="m 56.502,51.055407 h 0.624 l 6.1716,-10.556444 c 0.534,-0.914963 0.7224,-1.929482 0.6228,-2.907259 -0.0768,0.630518 -0.2808,1.255111 -0.6228,1.840592 z M 32.7024,39.432296 c -0.342,-0.585481 -0.5448,-1.210074 -0.6216,-1.840592 -0.0996,0.977777 0.0864,1.991111 0.6216,2.907259 l 6.1716,10.556444 h 0.624 z M 70.0896,60.752593 H 56.502 l 0.624,1.065481 h 12.9648 c 2.712,0 4.9104,-2.170074 4.9104,-4.848593 0,-0.182518 -0.0348,-0.35674 -0.0552,-0.533333 -0.2724,2.423704 -2.3292,4.316445 -4.8564,4.316445 z m -44.1816,0 c -2.5248,0 -4.5816,-1.892741 -4.8528,-4.316445 C 21.0348,56.612741 21,56.786963 21,56.969481 c 0,2.678519 2.1984,4.848593 4.908,4.848593 h 12.966 l 0.624,-1.065481 c 0,0 -13.59,0 -13.59,0 z M 61.5,78.997333 c -0.774,0.439704 -1.6164,0.648297 -2.4504,0.648297 -1.6968,0 -3.348,-0.868741 -4.2552,-2.423704 L 48,65.6 41.2056,77.223111 c -0.9096,1.554963 -2.5584,2.423704 -4.2564,2.423704 -0.8328,0 -1.6764,-0.208593 -2.4492,-0.648296 -1.422,-0.811852 -2.2656,-2.218667 -2.418,-3.716741 -0.2292,1.870222 0.6612,3.779555 2.418,4.783407 0.7728,0.439704 1.6164,0.648296 2.4492,0.648296 1.698,0 3.3468,-0.86874 4.2564,-2.424888 L 48,66.666667 54.7944,78.288593 c 0.9072,1.556148 2.5584,2.424888 4.2552,2.424888 0.834,0 1.6764,-0.208592 2.4504,-0.648296 1.7556,-1.002666 2.6472,-2.913185 2.4192,-4.783407 -0.1536,1.496889 -0.9984,2.906074 -2.4192,3.715555 z"
   id="path58"
   inkscape:connector-curvature="0"
   style="fill:#ffffff;fill-opacity:0.5;stroke-width:1.19256961" />
</svg>