<?xml version="1.0" encoding="UTF-8" standalone="no"?>
<svg
   xmlns:dc="http://purl.org/dc/elements/1.1/"
   xmlns:cc="http://creativecommons.org/ns#"
   xmlns:rdf="http://www.w3.org/1999/02/22-rdf-syntax-ns#"
   xmlns:svg="http://www.w3.org/2000/svg"
   xmlns="http://www.w3.org/2000/svg"
   xmlns:sodipodi="http://sodipodi.sourceforge.net/DTD/sodipodi-0.dtd"
   xmlns:inkscape="http://www.inkscape.org/namespaces/inkscape"
   height="96px"
   version="1.1"
   viewBox="0 0 96 96"
   width="96px"
   x="0px"
   y="0px"
   id="svg52"
   sodipodi:docname="icon-launcher-folder-04.svg"
   inkscape:version="0.92.2 2405546, 2018-03-11">
  <metadata
     id="metadata58">
    <rdf:RDF>
      <cc:Work
         rdf:about="">
        <dc:format>image/svg+xml</dc:format>
        <dc:type
           rdf:resource="http://purl.org/dc/dcmitype/StillImage" />
      </cc:Work>
    </rdf:RDF>
  </metadata>
  <defs
     id="defs56" />
  <sodipodi:namedview
     pagecolor="#ffffff"
     bordercolor="#666666"
     borderopacity="1"
     objecttolerance="10"
     gridtolerance="10"
     guidetolerance="10"
     inkscape:pageopacity="0"
     inkscape:pageshadow="2"
     inkscape:window-width="1366"
     inkscape:window-height="717"
     id="namedview54"
     showgrid="false"
     inkscape:zoom="2.4583333"
     inkscape:cx="47.999999"
     inkscape:cy="47.999999"
     inkscape:window-x="0"
     inkscape:window-y="25"
     inkscape:window-maximized="1"
     inkscape:current-layer="svg52" />
  <path
     d="M 93,48.555556 C 93,81.483334 81.343875,93 48,93 14.660625,93 3,81.483334 3,48.555556 3,15.63 14.660625,4.1111111 48,4.1111111 c 33.341625,0 45,11.5188889 45,44.4444449 z"
     id="path2"
     inkscape:connector-curvature="0"
     style="fill-opacity:0.4;stroke-width:1.11803401" />
  <rect
     height="90"
     width="90"
     id="rect4"
     x="3"
     y="3"
     style="fill:none;stroke-width:0.9375" />
  <linearGradient
     gradientUnits="userSpaceOnUse"
     id="SVGID_1_"
     x1="47.9995"
     x2="47.9995"
     y1="8"
     y2="24"
     gradientTransform="matrix(1.125,0,0,1.1111111,-6,-5.8888884)">
    <stop
       offset="0"
       style="stop-color:#E4BE34"
       id="stop6" />
    <stop
       offset="1"
       style="stop-color:#E0AA18"
       id="stop8" />
  </linearGradient>
  <path
     d="M 88.5045,20.777778 C 82.484625,7.9888889 69.936375,3 48,3 26.06475,3 13.5165,7.9888889 7.4955,20.777778 Z"
     id="path11"
     style="fill:url(#SVGID_1_);stroke-width:1.11803401"
     inkscape:connector-curvature="0" />
  <path
     d="m 48,91.888889 c 33.343875,0 45,-11.517778 45,-44.444445 0,-12.751111 -1.758375,-22.278889 -5.837625,-29.183333 h -41.0715 C 45.467625,17.506667 44.346,16.096667 42.39525,13.503334 41.3175,12.071111 38.875125,9.6666667 34.63275,9.6666667 H 16.989375 C 7.001625,16.255555 3,28.182222 3,47.444444 3,80.371111 14.660625,91.888889 48,91.888889 Z"
     id="path13"
     inkscape:connector-curvature="0"
     style="fill-opacity:0.02000002;stroke-width:1.11803401" />
  <path
     d="m 48,91.888889 c 33.343875,0 45,-11.517778 45,-44.444445 C 93,35.037778 91.34175,25.673333 87.495375,18.816667 H 45.82425 c -0.547875,-0.653334 -1.693125,-2.073333 -3.88125,-4.981111 -1.01475,-1.35 -3.315375,-3.613334 -7.31025,-3.613334 h -18.459 C 6.781125,16.916666 3,28.713334 3,47.444444 3,80.371111 14.660625,91.888889 48,91.888889 Z"
     id="path15"
     inkscape:connector-curvature="0"
     style="fill-opacity:0.05;stroke-width:1.11803401" />
  <path
     d="m 48,91.888889 c 33.343875,0 45,-11.517778 45,-44.444445 C 93,35.365555 91.42275,26.177778 87.789,19.372222 H 45.562125 c -0.480375,-0.56 -1.63125,-1.964444 -4.07025,-5.205555 C 40.539,12.901111 38.380125,10.777778 34.63275,10.777778 H 15.427875 C 6.58425,17.561111 3,29.218889 3,47.444444 3,80.371111 14.660625,91.888889 48,91.888889 Z"
     id="path17"
     inkscape:connector-curvature="0"
     style="fill-opacity:0.05;stroke-width:1.11803401" />
  <path
     d="m 48,91.888889 c 33.343875,0 45,-11.517778 45,-44.444445 C 93,35.69 91.50375,26.676667 88.07475,19.927777 H 45.3045 c -0.367875,-0.414444 -1.48725,-1.74 -4.26375,-5.429999 -0.889875,-1.181112 -2.90475,-3.165556 -6.406875,-3.165556 h -19.908 C 6.393,18.192222 3,29.707777 3,47.444444 3,80.371111 14.660625,91.888889 48,91.888889 Z"
     id="path19"
     inkscape:connector-curvature="0"
     style="fill-opacity:0.1;stroke-width:1.11803401" />
  <linearGradient
     gradientUnits="userSpaceOnUse"
     id="SVGID_2_"
     x1="47.9995"
     x2="47.9995"
     y1="16"
     y2="88.0005"
     gradientTransform="matrix(1.125,0,0,1.1111111,-6,-5.8888884)">
    <stop
       offset="0"
       style="stop-color:#E6CD49"
       id="stop21" />
    <stop
       offset="1"
       style="stop-color:#E0A714"
       id="stop23" />
  </linearGradient>
  <path
     d="m 48,91.888889 c 33.343875,0 45,-11.517778 45,-44.444445 C 93,36.013333 91.590375,27.167778 88.3605,20.483333 H 45.055875 c 0,0 -0.826875,-0.816666 -4.467375,-5.654444 -1.07325,-1.425556 -2.977875,-2.94 -5.95575,-2.94 -3.621375,0 -13.426875,0 -20.5605,0 C 6.214125,18.807778 3,30.178889 3,47.444444 3,80.371111 14.660625,91.888889 48,91.888889 Z"
     id="path26"
     style="fill:url(#SVGID_2_);stroke-width:1.11803401"
     inkscape:connector-curvature="0" />
  <path
     d="M 34.63275,11.888889 H 14.07225 C 13.663875,12.247778 13.263375,12.615556 12.87975,13 h 21.753 c 2.601,0 5.0715,1.141111 6.370875,2.381112 C 40.8675,15.2 40.733625,15.023333 40.5885,14.83 39.51525,13.403333 37.610625,11.888889 34.63275,11.888889 Z M 88.3605,20.483333 H 45.055875 l 0.905625,1.092223 42.899625,0.01445 c -0.16425,-0.372226 -0.32625,-0.745559 -0.500625,-1.10667 z"
     id="path28"
     inkscape:connector-curvature="0"
     style="fill:#ffffff;fill-opacity:0.5;stroke-width:1.11803401" />
  <linearGradient
     gradientTransform="matrix(1.125,0,0,1.1111111,212.16596,-912.37867)"
     gradientUnits="userSpaceOnUse"
     id="SVGID_3_"
     x1="-145.9253"
     x2="-145.9253"
     y1="824.0938"
     y2="903.3385">
    <stop
       offset="0"
       style="stop-color:#FFFFFF"
       id="stop30" />
    <stop
       offset="1"
       style="stop-color:#FFFFFF;stop-opacity:0"
       id="stop32" />
  </linearGradient>
  <path
     d="M 48,3 C 14.660625,3 3,14.517778 3,47.444444 c 0,32.926667 11.660625,44.444445 45,44.444445 33.343875,0 45,-11.517778 45,-44.444445 C 93,14.517778 81.341625,3 48,3 Z m 0,87.777778 C 15.19725,90.777778 4.125,79.842222 4.125,47.444444 4.125,15.046667 15.19725,4.1111111 48,4.1111111 c 32.80275,0 43.875,10.9355559 43.875,43.3333329 0,32.397778 -11.07225,43.333334 -43.875,43.333334 z"
     id="path35"
     style="fill:url(#SVGID_3_);fill-opacity:0.15;stroke-width:1.11803401"
     inkscape:connector-curvature="0" />
  <linearGradient
     gradientUnits="userSpaceOnUse"
     id="SVGID_4_"
     x1="47.9995"
     x2="47.9995"
     y1="33"
     y2="76.0005"
     gradientTransform="matrix(1.125,0,0,1.1111111,-6,-5.8888884)">
    <stop
       offset="0"
       style="stop-color:#D6A214"
       id="stop37" />
    <stop
       offset="0.75"
       style="stop-color:#CE820A"
       id="stop39" />
    <stop
       offset="1"
       style="stop-color:#CE820A"
       id="stop41" />
  </linearGradient>
  <path
     d="M 44.625,44.107777 34.840875,40.432223 31.13175,30.777778 27.417,40.441111 17.625,44.105556 27.41925,47.78 l 3.7125,9.664444 3.720375,-9.668888 z m 17.44425,6.093334 -6.183,-16.09 L 49.695375,50.216666 33.375,56.324444 49.699875,62.447778 55.88625,78.555556 62.085,62.44 78.375,56.327778 Z"
     id="path44"
     style="fill:url(#SVGID_4_);fill-opacity:0.9;stroke-width:1.11803401;stroke-opacity:0.9"
     inkscape:connector-curvature="0" />
  <path
     d="M 44.625,44.107777 34.840875,40.432223 31.13175,30.777778 27.417,40.441111 17.625,44.105556 27.41925,47.78 l 3.7125,9.664444 3.720375,-9.668888 z M 31.13175,55.88 l -3.276,-8.531112 -8.6445,-3.242221 8.64225,-3.234445 3.27825,-8.528888 3.272625,8.52 8.63775,3.244443 -8.6265,3.236668 z m 30.9375,-5.678889 -6.183,-16.09 L 49.695375,50.216666 33.375,56.324444 49.699875,62.447778 55.88625,78.555556 62.085,62.44 78.375,56.327778 Z M 61.6485,62.008889 55.88625,76.99 50.136375,62.016667 34.96125,56.325556 l 15.1695,-5.677779 5.754375,-14.97111 5.7465,14.955555 15.159375,5.695556 z"
     id="path46"
     inkscape:connector-curvature="0"
     style="fill:#1a0900;fill-opacity:0.1;stroke-width:1.11803401" />
  <path
     d="m 62.06925,50.201111 -6.183,-16.09 -6.190875,16.105555 -16.320375,6.107778 0.02363,0.0089 h 3.169125 l -0.02137,-0.0078 14.020875,-5.247778 5.319,-13.835556 5.311125,13.82 14.011875,5.263334 -0.018,0.0078 h 3.169125 l 0.01462,-0.0055 z m -20.61,-6.093333 -0.009,0.0034 H 44.616 l 0.009,-0.0034 -9.784125,-3.675555 -3.709125,-9.654445 -3.71475,9.663333 -9.792,3.664445 0.01462,0.0055 h 3.169125 l -0.01237,-0.0044 7.4925,-2.803334 2.84175,-7.393333 2.836125,7.384444 z"
     id="path48"
     inkscape:connector-curvature="0"
     style="fill:#1a0900;fill-opacity:0.2;stroke-width:1.11803401" />
  <path
     d="M 62.085,62.44 55.88625,78.555556 49.699875,62.447778 33.398625,56.333333 48.828,63.308888 l 7.057125,18.376667 7.07175,-18.384444 15.4035,-6.967778 z m -17.46,-18.332222 -9.774,3.667778 -3.71925,9.668888 -3.7125,-9.664444 -9.788625,-3.672222 8.91675,4.533333 4.58325,11.933334 L 35.724,48.636667 Z"
     id="path50"
     inkscape:connector-curvature="0"
     style="fill:#ffffff;fill-opacity:0.5;stroke-width:1.11803401" />
</svg>
