<?xml version="1.0" encoding="UTF-8" standalone="no"?>
<svg
   xmlns:dc="http://purl.org/dc/elements/1.1/"
   xmlns:cc="http://creativecommons.org/ns#"
   xmlns:rdf="http://www.w3.org/1999/02/22-rdf-syntax-ns#"
   xmlns:svg="http://www.w3.org/2000/svg"
   xmlns="http://www.w3.org/2000/svg"
   xmlns:sodipodi="http://sodipodi.sourceforge.net/DTD/sodipodi-0.dtd"
   xmlns:inkscape="http://www.inkscape.org/namespaces/inkscape"
   height="96px"
   version="1.1"
   viewBox="0 0 96 96"
   width="96px"
   x="0px"
   y="0px"
   id="svg52"
   sodipodi:docname="icon-launcher-folder-02.svg"
   inkscape:version="0.92.2 2405546, 2018-03-11">
  <metadata
     id="metadata58">
    <rdf:RDF>
      <cc:Work
         rdf:about="">
        <dc:format>image/svg+xml</dc:format>
        <dc:type
           rdf:resource="http://purl.org/dc/dcmitype/StillImage" />
      </cc:Work>
    </rdf:RDF>
  </metadata>
  <defs
     id="defs56" />
  <sodipodi:namedview
     pagecolor="#ffffff"
     bordercolor="#666666"
     borderopacity="1"
     objecttolerance="10"
     gridtolerance="10"
     guidetolerance="10"
     inkscape:pageopacity="0"
     inkscape:pageshadow="2"
     inkscape:window-width="1366"
     inkscape:window-height="717"
     id="namedview54"
     showgrid="false"
     inkscape:zoom="2.4583333"
     inkscape:cx="47.999999"
     inkscape:cy="25.370942"
     inkscape:window-x="0"
     inkscape:window-y="25"
     inkscape:window-maximized="1"
     inkscape:current-layer="svg52" />
  <path
     d="M 93,48.555556 C 93,81.483334 81.343875,93 48,93 14.660625,93 3,81.483334 3,48.555556 3,15.63 14.660625,4.1111111 48,4.1111111 c 33.341625,0 45,11.5188889 45,44.4444449 z"
     id="path2"
     inkscape:connector-curvature="0"
     style="fill-opacity:0.4;stroke-width:1.11803401" />
  <rect
     height="90"
     width="90"
     id="rect4"
     x="3"
     y="3"
     style="fill:none;stroke-width:0.9375" />
  <linearGradient
     gradientUnits="userSpaceOnUse"
     id="SVGID_1_"
     x1="47.9995"
     x2="47.9995"
     y1="8"
     y2="24"
     gradientTransform="matrix(1.125,0,0,1.1111111,-6,-5.8888884)">
    <stop
       offset="0"
       style="stop-color:#E4BE34"
       id="stop6" />
    <stop
       offset="1"
       style="stop-color:#E0AA18"
       id="stop8" />
  </linearGradient>
  <path
     d="M 88.5045,20.777778 C 82.484625,7.9888889 69.936375,3 48,3 26.06475,3 13.5165,7.9888889 7.4955,20.777778 Z"
     id="path11"
     style="fill:url(#SVGID_1_);stroke-width:1.11803401"
     inkscape:connector-curvature="0" />
  <path
     d="m 48,91.888889 c 33.343875,0 45,-11.517778 45,-44.444445 0,-12.751111 -1.758375,-22.278889 -5.837625,-29.183333 h -41.0715 C 45.467625,17.506667 44.346,16.096667 42.39525,13.503334 41.3175,12.071111 38.875125,9.6666667 34.63275,9.6666667 H 16.989375 C 7.001625,16.255555 3,28.182222 3,47.444444 3,80.371111 14.660625,91.888889 48,91.888889 Z"
     id="path13"
     inkscape:connector-curvature="0"
     style="fill-opacity:0.02000002;stroke-width:1.11803401" />
  <path
     d="m 48,91.888889 c 33.343875,0 45,-11.517778 45,-44.444445 C 93,35.037778 91.34175,25.673333 87.495375,18.816667 H 45.82425 c -0.547875,-0.653334 -1.693125,-2.073333 -3.88125,-4.981111 -1.01475,-1.35 -3.315375,-3.613334 -7.31025,-3.613334 h -18.459 C 6.781125,16.916666 3,28.713334 3,47.444444 3,80.371111 14.660625,91.888889 48,91.888889 Z"
     id="path15"
     inkscape:connector-curvature="0"
     style="fill-opacity:0.05;stroke-width:1.11803401" />
  <path
     d="m 48,91.888889 c 33.343875,0 45,-11.517778 45,-44.444445 C 93,35.365555 91.42275,26.177778 87.789,19.372222 H 45.562125 c -0.480375,-0.56 -1.63125,-1.964444 -4.07025,-5.205555 C 40.539,12.901111 38.380125,10.777778 34.63275,10.777778 H 15.427875 C 6.58425,17.561111 3,29.218889 3,47.444444 3,80.371111 14.660625,91.888889 48,91.888889 Z"
     id="path17"
     inkscape:connector-curvature="0"
     style="fill-opacity:0.05;stroke-width:1.11803401" />
  <path
     d="m 48,91.888889 c 33.343875,0 45,-11.517778 45,-44.444445 C 93,35.69 91.50375,26.676667 88.07475,19.927777 H 45.3045 c -0.367875,-0.414444 -1.48725,-1.74 -4.26375,-5.429999 -0.889875,-1.181112 -2.90475,-3.165556 -6.406875,-3.165556 h -19.908 C 6.393,18.192222 3,29.707777 3,47.444444 3,80.371111 14.660625,91.888889 48,91.888889 Z"
     id="path19"
     inkscape:connector-curvature="0"
     style="fill-opacity:0.1;stroke-width:1.11803401" />
  <linearGradient
     gradientUnits="userSpaceOnUse"
     id="SVGID_2_"
     x1="47.9995"
     x2="47.9995"
     y1="16"
     y2="88.0005"
     gradientTransform="matrix(1.125,0,0,1.1111111,-6,-5.8888884)">
    <stop
       offset="0"
       style="stop-color:#E6CD49"
       id="stop21" />
    <stop
       offset="1"
       style="stop-color:#E0A714"
       id="stop23" />
  </linearGradient>
  <path
     d="m 48,91.888889 c 33.343875,0 45,-11.517778 45,-44.444445 C 93,36.013333 91.590375,27.167778 88.3605,20.483333 H 45.055875 c 0,0 -0.826875,-0.816666 -4.467375,-5.654444 -1.07325,-1.425556 -2.977875,-2.94 -5.95575,-2.94 -3.621375,0 -13.426875,0 -20.5605,0 C 6.214125,18.807778 3,30.178889 3,47.444444 3,80.371111 14.660625,91.888889 48,91.888889 Z"
     id="path26"
     style="fill:url(#SVGID_2_);stroke-width:1.11803401"
     inkscape:connector-curvature="0" />
  <path
     d="M 34.63275,11.888889 H 14.07225 C 13.663875,12.247778 13.263375,12.615556 12.87975,13 h 21.753 c 2.601,0 5.0715,1.141111 6.370875,2.381112 C 40.8675,15.2 40.733625,15.023333 40.5885,14.83 39.51525,13.403333 37.610625,11.888889 34.63275,11.888889 Z M 88.3605,20.483333 H 45.055875 l 0.905625,1.092223 42.899625,0.01445 c -0.16425,-0.372226 -0.32625,-0.745559 -0.500625,-1.10667 z"
     id="path28"
     inkscape:connector-curvature="0"
     style="fill:#ffffff;fill-opacity:0.5;stroke-width:1.11803401" />
  <linearGradient
     gradientTransform="matrix(1.125,0,0,1.1111111,212.16596,-912.37867)"
     gradientUnits="userSpaceOnUse"
     id="SVGID_3_"
     x1="-145.9253"
     x2="-145.9253"
     y1="824.0938"
     y2="903.3385">
    <stop
       offset="0"
       style="stop-color:#FFFFFF"
       id="stop30" />
    <stop
       offset="1"
       style="stop-color:#FFFFFF;stop-opacity:0"
       id="stop32" />
  </linearGradient>
  <path
     d="M 48,3 C 14.660625,3 3,14.517778 3,47.444444 c 0,32.926667 11.660625,44.444445 45,44.444445 33.343875,0 45,-11.517778 45,-44.444445 C 93,14.517778 81.341625,3 48,3 Z m 0,87.777778 C 15.19725,90.777778 4.125,79.842222 4.125,47.444444 4.125,15.046667 15.19725,4.1111111 48,4.1111111 c 32.80275,0 43.875,10.9355559 43.875,43.3333329 0,32.397778 -11.07225,43.333334 -43.875,43.333334 z"
     id="path35"
     style="fill:url(#SVGID_3_);fill-opacity:0.15;stroke-width:1.11803401"
     inkscape:connector-curvature="0" />
  <linearGradient
     gradientUnits="userSpaceOnUse"
     id="SVGID_4_"
     x1="46.5"
     x2="46.5"
     y1="31.9995"
     y2="75.0005"
     gradientTransform="matrix(1.125,0,0,1.1111111,-6,-5.8888884)">
    <stop
       offset="0"
       style="stop-color:#D6A214"
       id="stop37" />
    <stop
       offset="0.75"
       style="stop-color:#CE820A"
       id="stop39" />
    <stop
       offset="1"
       style="stop-color:#CE820A"
       id="stop41" />
  </linearGradient>
  <path
     d="m 67.125,33 h -13.5 c -1.85625,0 -3.375,1.5 -3.375,3.333334 V 49.666667 C 50.25,51.5 51.76875,53 53.625,53 h 13.5 C 68.98125,53 70.5,51.5 70.5,49.666667 V 36.333334 C 70.5,34.5 68.98125,33 67.125,33 Z m 0,24.444444 h -13.5 c -1.85625,0 -3.375,1.5 -3.375,3.333334 v 13.333333 c 0,1.833333 1.51875,3.333333 3.375,3.333333 h 13.5 c 1.85625,0 3.375,-1.5 3.375,-3.333333 V 60.777778 c 0,-1.833334 -1.51875,-3.333334 -3.375,-3.333334 z m -24.75,0 h -13.5 c -1.85625,0 -3.375,1.5 -3.375,3.333334 v 13.333333 c 0,1.833333 1.51875,3.333333 3.375,3.333333 h 13.5 c 1.85625,0 3.375,-1.5 3.375,-3.333333 V 60.777778 c 0,-1.833334 -1.51875,-3.333334 -3.375,-3.333334 z M 28.78275,32.107777 C 21.446625,36.293333 20.3655,40.288889 24.596625,47.535556 28.833375,54.78 32.88,55.85 40.21725,51.668888 47.553375,47.482222 48.63675,43.49 44.401125,36.242222 40.166625,28.997778 36.118875,27.925555 28.78275,32.107777 Z"
     id="path44"
     style="fill:url(#SVGID_4_);fill-opacity:0.9;stroke-width:1.11803401;stroke-opacity:0.9"
     inkscape:connector-curvature="0" />
  <path
     d="m 42.375,77.444444 h -13.5 c -1.85625,0 -3.375,-1.5 -3.375,-3.333333 v 1.111111 c 0,1.833334 1.51875,3.333334 3.375,3.333334 h 13.5 c 1.85625,0 3.375,-1.5 3.375,-3.333334 v -1.111111 c 0,1.833333 -1.51875,3.333333 -3.375,3.333333 z M 40.21725,51.668888 C 32.881125,55.851112 28.833375,54.78 24.596625,47.535556 c -1.485,-2.543333 -2.300625,-4.681112 -2.43675,-6.573334 -0.17325,2.156666 0.6525,4.630001 2.43675,7.684445 4.23675,7.244444 8.283375,8.314445 15.620625,4.133333 4.759875,-2.715556 6.872625,-5.356667 6.622875,-8.853333 -0.239625,2.959999 -2.379375,5.32 -6.622875,7.742221 z M 67.125,53 h -13.5 C 51.76875,53 50.25,51.5 50.25,49.666667 v 1.111111 c 0,1.833334 1.51875,3.333334 3.375,3.333334 h 13.5 c 1.85625,0 3.375,-1.5 3.375,-3.333334 V 49.666667 C 70.5,51.5 68.98125,53 67.125,53 Z m 0,24.444444 h -13.5 c -1.85625,0 -3.375,-1.5 -3.375,-3.333333 v 1.111111 c 0,1.833334 1.51875,3.333334 3.375,3.333334 h 13.5 c 1.85625,0 3.375,-1.5 3.375,-3.333334 v -1.111111 c 0,1.833333 -1.51875,3.333333 -3.375,3.333333 z"
     id="path46"
     inkscape:connector-curvature="0"
     style="fill:#ffffff;fill-opacity:0.5;stroke-width:1.11803401" />
  <path
     d="m 42.375,57.444444 h -13.5 c -1.85625,0 -3.375,1.5 -3.375,3.333334 v 1.111111 c 0,-1.833334 1.51875,-3.333334 3.375,-3.333334 h 13.5 c 1.85625,0 3.375,1.5 3.375,3.333334 v -1.111111 c 0,-1.833334 -1.51875,-3.333334 -3.375,-3.333334 z M 28.78275,32.107777 c -4.761,2.715556 -6.8715,5.357778 -6.622875,8.854445 0.24075,-2.959999 2.37825,-5.322222 6.622875,-7.743334 7.336125,-4.183333 11.383875,-3.109999 15.618375,4.134446 1.48725,2.544444 2.302875,4.682222 2.439,6.573333 0.174375,-2.155556 -0.6525,-4.628889 -2.439,-7.684445 -4.2345,-7.244444 -8.28225,-8.316667 -15.618375,-4.134445 z M 67.125,33 h -13.5 c -1.85625,0 -3.375,1.5 -3.375,3.333334 v 1.111111 c 0,-1.833334 1.51875,-3.333334 3.375,-3.333334 h 13.5 c 1.85625,0 3.375,1.5 3.375,3.333334 V 36.333334 C 70.5,34.5 68.98125,33 67.125,33 Z m 0,24.444444 h -13.5 c -1.85625,0 -3.375,1.5 -3.375,3.333334 v 1.111111 c 0,-1.833334 1.51875,-3.333334 3.375,-3.333334 h 13.5 c 1.85625,0 3.375,1.5 3.375,3.333334 v -1.111111 c 0,-1.833334 -1.51875,-3.333334 -3.375,-3.333334 z"
     id="path48"
     inkscape:connector-curvature="0"
     style="fill:#1a0900;fill-opacity:0.2;stroke-width:1.11803401" />
  <path
     d="m 42.375,57.444444 h -13.5 c -1.85625,0 -3.375,1.5 -3.375,3.333334 v 13.333333 c 0,1.833333 1.51875,3.333333 3.375,3.333333 h 13.5 c 1.85625,0 3.375,-1.5 3.375,-3.333333 V 60.777778 c 0,-1.833334 -1.51875,-3.333334 -3.375,-3.333334 z m 2.8125,16.666667 c 0,1.532222 -1.261125,2.777778 -2.8125,2.777778 h -13.5 c -1.551375,0 -2.8125,-1.245556 -2.8125,-2.777778 V 60.777778 C 26.0625,59.245555 27.323625,58 28.875,58 h 13.5 c 1.551375,0 2.8125,1.245555 2.8125,2.777778 z M 28.78275,32.107777 C 21.446625,36.293333 20.3655,40.288889 24.596625,47.535556 28.833375,54.78 32.88,55.85 40.21725,51.668888 47.553375,47.482222 48.63675,43.49 44.401125,36.242222 40.166625,28.997778 36.118875,27.925555 28.78275,32.107777 Z m 11.15325,19.08 c -2.833875,1.614445 -5.0355,2.366668 -6.928875,2.366668 -2.973375,0 -5.3415,-1.883334 -7.923375,-6.296668 -4.060125,-6.953333 -3.056625,-10.654443 3.98025,-14.668889 2.833875,-1.614444 5.0355,-2.366666 6.928875,-2.366666 2.97225,0 5.340375,1.882223 7.921125,6.297778 4.062375,6.951111 3.058875,10.652222 -3.978,14.667777 z m 27.189,6.256667 h -13.5 c -1.85625,0 -3.375,1.5 -3.375,3.333334 v 13.333333 c 0,1.833333 1.51875,3.333333 3.375,3.333333 h 13.5 c 1.85625,0 3.375,-1.5 3.375,-3.333333 V 60.777778 c 0,-1.833334 -1.51875,-3.333334 -3.375,-3.333334 z m 2.8125,16.666667 c 0,1.532222 -1.261125,2.777778 -2.8125,2.777778 h -13.5 c -1.551375,0 -2.8125,-1.245556 -2.8125,-2.777778 V 60.777778 C 50.8125,59.245555 52.073625,58 53.625,58 h 13.5 c 1.551375,0 2.8125,1.245555 2.8125,2.777778 z M 67.125,33 h -13.5 c -1.85625,0 -3.375,1.5 -3.375,3.333334 V 49.666667 C 50.25,51.5 51.76875,53 53.625,53 h 13.5 C 68.98125,53 70.5,51.5 70.5,49.666667 V 36.333334 C 70.5,34.5 68.98125,33 67.125,33 Z m 2.8125,16.666667 c 0,1.532222 -1.261125,2.777778 -2.8125,2.777778 h -13.5 c -1.551375,0 -2.8125,-1.245556 -2.8125,-2.777778 V 36.333334 c 0,-1.532223 1.261125,-2.777778 2.8125,-2.777778 h 13.5 c 1.551375,0 2.8125,1.245555 2.8125,2.777778 z"
     id="path50"
     inkscape:connector-curvature="0"
     style="fill:#1a0900;fill-opacity:0.1;stroke-width:1.11803401" />
</svg>
