<?xml version="1.0" encoding="UTF-8" standalone="no"?>
<svg
   xmlns:dc="http://purl.org/dc/elements/1.1/"
   xmlns:cc="http://creativecommons.org/ns#"
   xmlns:rdf="http://www.w3.org/1999/02/22-rdf-syntax-ns#"
   xmlns:svg="http://www.w3.org/2000/svg"
   xmlns="http://www.w3.org/2000/svg"
   xmlns:sodipodi="http://sodipodi.sourceforge.net/DTD/sodipodi-0.dtd"
   xmlns:inkscape="http://www.inkscape.org/namespaces/inkscape"
   height="96px"
   version="1.1"
   viewBox="0 0 96 96"
   width="96px"
   x="0px"
   y="0px"
   id="svg52"
   sodipodi:docname="icon-launcher-folder-02.svg"
   inkscape:version="0.92.2 2405546, 2018-03-11">
  <metadata
     id="metadata58">
    <rdf:RDF>
      <cc:Work
         rdf:about="">
        <dc:format>image/svg+xml</dc:format>
        <dc:type
           rdf:resource="http://purl.org/dc/dcmitype/StillImage" />
      </cc:Work>
    </rdf:RDF>
  </metadata>
  <defs
     id="defs56" />
  <sodipodi:namedview
     pagecolor="#ffffff"
     bordercolor="#666666"
     borderopacity="1"
     objecttolerance="10"
     gridtolerance="10"
     guidetolerance="10"
     inkscape:pageopacity="0"
     inkscape:pageshadow="2"
     inkscape:window-width="1366"
     inkscape:window-height="717"
     id="namedview54"
     showgrid="false"
     inkscape:zoom="2.4583333"
     inkscape:cx="48"
     inkscape:cy="48"
     inkscape:window-x="0"
     inkscape:window-y="25"
     inkscape:window-maximized="1"
     inkscape:current-layer="svg52" />
  <path
     d="M 96,48.592593 C 96,83.715556 83.5668,96 48,96 12.438,96 0,83.715556 0,48.592593 0,13.472 12.438,1.1851852 48,1.1851852 c 35.5644,0 48,12.2868148 48,47.4074078 z"
     id="path2"
     inkscape:connector-curvature="0"
     style="fill-opacity:0.4;stroke-width:1.19256961" />
  <rect
     fill="none"
     height="96"
     width="96"
     id="rect4" />
  <linearGradient
     gradientUnits="userSpaceOnUse"
     id="SVGID_1_"
     x1="47.9995"
     x2="47.9995"
     y1="8"
     y2="24"
     gradientTransform="matrix(1.2,0,0,1.1851852,-9.6,-9.481481)">
    <stop
       offset="0"
       style="stop-color:#E4BE34"
       id="stop6" />
    <stop
       offset="1"
       style="stop-color:#E0AA18"
       id="stop8" />
  </linearGradient>
  <path
     d="M 91.2048,18.962963 C 84.7836,5.3214815 71.3988,0 48,0 24.6024,0 11.2176,5.3214815 4.7952,18.962963 Z"
     id="path11"
     style="fill:url(#SVGID_1_);stroke-width:1.19256961"
     inkscape:connector-curvature="0" />
  <path
     d="m 48,94.814815 c 35.5668,0 48,-12.28563 48,-47.407408 C 96,33.806222 94.1244,23.643259 89.7732,16.278518 H 45.9636 c -0.6648,-0.80474 -1.8612,-2.30874 -3.942,-5.074962 C 40.872,9.6758519 38.2668,7.1111111 33.7416,7.1111111 H 14.922 C 4.2684,14.139259 0,26.861037 0,47.407407 0,82.529185 12.438,94.814815 48,94.814815 Z"
     id="path13"
     inkscape:connector-curvature="0"
     style="fill-opacity:0.02000002;stroke-width:1.19256961" />
  <path
     d="m 48,94.814815 c 35.5668,0 48,-12.28563 48,-47.407408 C 96,34.17363 94.2312,24.184889 90.1284,16.871111 H 45.6792 c -0.5844,-0.696889 -1.806,-2.211555 -4.14,-5.313185 -1.0824,-1.44 -3.5364,-3.8542223 -7.7976,-3.8542223 H 14.052 C 4.0332,14.844444 0,27.427556 0,47.407407 0,82.529185 12.438,94.814815 48,94.814815 Z"
     id="path15"
     inkscape:connector-curvature="0"
     style="fill-opacity:0.05;stroke-width:1.19256961" />
  <path
     d="m 48,94.814815 c 35.5668,0 48,-12.28563 48,-47.407408 C 96,34.523259 94.3176,24.722963 90.4416,17.463704 H 45.3996 C 44.8872,16.86637 43.6596,15.368296 41.058,11.911111 40.0416,10.561185 37.7388,8.2962963 33.7416,8.2962963 H 13.2564 C 3.8232,15.531852 0,27.966815 0,47.407407 0,82.529185 12.438,94.814815 48,94.814815 Z"
     id="path17"
     inkscape:connector-curvature="0"
     style="fill-opacity:0.05;stroke-width:1.19256961" />
  <path
     d="m 48,94.814815 c 35.5668,0 48,-12.28563 48,-47.407408 C 96,34.869333 94.404,25.255111 90.7464,18.056296 H 45.1248 c -0.3924,-0.442074 -1.5864,-1.856 -4.548,-5.792 -0.9492,-1.259852 -3.0984,-3.3765923 -6.834,-3.3765923 H 12.5076 C 3.6192,16.205037 0,28.488296 0,47.407407 0,82.529185 12.438,94.814815 48,94.814815 Z"
     id="path19"
     inkscape:connector-curvature="0"
     style="fill-opacity:0.1;stroke-width:1.19256961" />
  <linearGradient
     gradientUnits="userSpaceOnUse"
     id="SVGID_2_"
     x1="47.9995"
     x2="47.9995"
     y1="16"
     y2="88.0005"
     gradientTransform="matrix(1.2,0,0,1.1851852,-9.6,-9.481481)">
    <stop
       offset="0"
       style="stop-color:#E6CD49"
       id="stop21" />
    <stop
       offset="1"
       style="stop-color:#E0A714"
       id="stop23" />
  </linearGradient>
  <path
     d="m 48,94.814815 c 35.5668,0 48,-12.28563 48,-47.407408 C 96,35.214222 94.4964,25.778963 91.0512,18.648889 H 44.8596 c 0,0 -0.882,-0.871111 -4.7652,-6.031407 -1.1448,-1.520593 -3.1764,-3.1360005 -6.3528,-3.1360005 -3.8628,0 -14.322,0 -21.9312,0 C 3.4284,16.86163 0,28.990815 0,47.407407 0,82.529185 12.438,94.814815 48,94.814815 Z"
     id="path26"
     style="fill:url(#SVGID_2_);stroke-width:1.19256961"
     inkscape:connector-curvature="0" />
  <path
     d="M 33.7416,9.4814815 H 11.8104 c -0.4356,0.3828148 -0.8628,0.7751115 -1.272,1.1851855 h 23.2032 c 2.7744,0 5.4096,1.217185 6.7956,2.539852 -0.1452,-0.193186 -0.288,-0.38163 -0.4428,-0.587852 C 38.9496,11.096889 36.918,9.4814815 33.7416,9.4814815 Z M 91.0512,18.648889 H 44.8596 l 0.966,1.165037 45.7596,0.01541 c -0.1752,-0.397037 -0.348,-0.795259 -0.534,-1.180444 z"
     id="path28"
     inkscape:connector-curvature="0"
     style="fill:#ffffff;fill-opacity:0.5;stroke-width:1.19256961" />
  <linearGradient
     gradientTransform="matrix(1.2,0,0,1.1851852,223.11036,-976.40392)"
     gradientUnits="userSpaceOnUse"
     id="SVGID_3_"
     x1="-145.9253"
     x2="-145.9253"
     y1="824.0938"
     y2="903.3385">
    <stop
       offset="0"
       style="stop-color:#FFFFFF"
       id="stop30" />
    <stop
       offset="1"
       style="stop-color:#FFFFFF;stop-opacity:0"
       id="stop32" />
  </linearGradient>
  <path
     d="M 48,0 C 12.438,0 0,12.28563 0,47.407407 c 0,35.121778 12.438,47.407408 48,47.407408 35.5668,0 48,-12.28563 48,-47.407408 C 96,12.28563 83.5644,0 48,0 Z m 0,93.62963 C 13.0104,93.62963 1.2,81.965037 1.2,47.407407 1.2,12.849778 13.0104,1.1851852 48,1.1851852 c 34.9896,0 46.8,11.6645928 46.8,46.2222218 0,34.55763 -11.8104,46.222223 -46.8,46.222223 z"
     id="path35"
     style="fill:url(#SVGID_3_);fill-opacity:0.15;stroke-width:1.19256961"
     inkscape:connector-curvature="0" />
  <linearGradient
     gradientUnits="userSpaceOnUse"
     id="SVGID_4_"
     x1="46.5"
     x2="46.5"
     y1="31.9995"
     y2="75.0005"
     gradientTransform="matrix(1.2,0,0,1.1851852,-9.6,-9.481481)">
    <stop
       offset="0"
       style="stop-color:#D6A214"
       id="stop37" />
    <stop
       offset="0.75"
       style="stop-color:#CE820A"
       id="stop39" />
    <stop
       offset="1"
       style="stop-color:#CE820A"
       id="stop41" />
  </linearGradient>
  <path
     d="M 68.4,32 H 54 c -1.98,0 -3.6,1.6 -3.6,3.555556 v 14.222222 c 0,1.955555 1.62,3.555555 3.6,3.555555 h 14.4 c 1.98,0 3.6,-1.6 3.6,-3.555555 V 35.555556 C 72,33.6 70.38,32 68.4,32 Z m 0,26.074074 H 54 c -1.98,0 -3.6,1.6 -3.6,3.555556 v 14.222222 c 0,1.955555 1.62,3.555555 3.6,3.555555 h 14.4 c 1.98,0 3.6,-1.6 3.6,-3.555555 V 61.62963 c 0,-1.955556 -1.62,-3.555556 -3.6,-3.555556 z m -26.4,0 H 27.6 c -1.98,0 -3.6,1.6 -3.6,3.555556 v 14.222222 c 0,1.955555 1.62,3.555555 3.6,3.555555 H 42 c 1.98,0 3.6,-1.6 3.6,-3.555555 V 61.62963 c 0,-1.955556 -1.62,-3.555556 -3.6,-3.555556 z M 27.5016,31.048296 c -7.8252,4.464593 -8.9784,8.726519 -4.4652,16.456297 4.5192,7.727407 8.8356,8.86874 16.662,4.408888 7.8252,-4.465777 8.9808,-8.724148 4.4628,-16.455111 -4.5168,-7.727407 -8.8344,-8.871111 -16.6596,-4.410074 z"
     id="path44"
     style="fill:url(#SVGID_4_);fill-opacity:0.9;stroke-width:1.19256961;stroke-opacity:0.9"
     inkscape:connector-curvature="0" />
  <path
     d="M 42,79.407407 H 27.6 c -1.98,0 -3.6,-1.6 -3.6,-3.555555 v 1.185185 c 0,1.955556 1.62,3.555556 3.6,3.555556 H 42 c 1.98,0 3.6,-1.6 3.6,-3.555556 v -1.185185 c 0,1.955555 -1.62,3.555555 -3.6,3.555555 z M 39.6984,51.913481 c -7.8252,4.461038 -12.1428,3.318519 -16.662,-4.408888 -1.584,-2.712889 -2.454,-4.993186 -2.5992,-7.011556 -0.1848,2.300444 0.696,4.938667 2.5992,8.196741 4.5192,7.727407 8.8356,8.868741 16.662,4.408889 5.0772,-2.896593 7.3308,-5.713778 7.0644,-9.443556 -0.2556,3.157333 -2.538,5.674667 -7.0644,8.25837 z M 68.4,53.333333 H 54 c -1.98,0 -3.6,-1.6 -3.6,-3.555555 v 1.185185 c 0,1.955556 1.62,3.555556 3.6,3.555556 h 14.4 c 1.98,0 3.6,-1.6 3.6,-3.555556 v -1.185185 c 0,1.955555 -1.62,3.555555 -3.6,3.555555 z m 0,26.074074 H 54 c -1.98,0 -3.6,-1.6 -3.6,-3.555555 v 1.185185 c 0,1.955556 1.62,3.555556 3.6,3.555556 h 14.4 c 1.98,0 3.6,-1.6 3.6,-3.555556 v -1.185185 c 0,1.955555 -1.62,3.555555 -3.6,3.555555 z"
     id="path46"
     inkscape:connector-curvature="0"
     style="fill:#ffffff;fill-opacity:0.5;stroke-width:1.19256961" />
  <path
     d="M 42,58.074074 H 27.6 c -1.98,0 -3.6,1.6 -3.6,3.555556 v 1.185185 c 0,-1.955556 1.62,-3.555556 3.6,-3.555556 H 42 c 1.98,0 3.6,1.6 3.6,3.555556 V 61.62963 c 0,-1.955556 -1.62,-3.555556 -3.6,-3.555556 z M 27.5016,31.048296 c -5.0784,2.896593 -7.3296,5.714963 -7.0644,9.444741 0.2568,-3.157333 2.5368,-5.677037 7.0644,-8.259556 7.8252,-4.462222 12.1428,-3.317333 16.6596,4.410075 1.5864,2.714074 2.4564,4.99437 2.6016,7.011555 0.186,-2.299259 -0.696,-4.937481 -2.6016,-8.196741 -4.5168,-7.727407 -8.8344,-8.871111 -16.6596,-4.410074 z M 68.4,32 H 54 c -1.98,0 -3.6,1.6 -3.6,3.555556 v 1.185185 c 0,-1.955556 1.62,-3.555556 3.6,-3.555556 h 14.4 c 1.98,0 3.6,1.6 3.6,3.555556 V 35.555556 C 72,33.6 70.38,32 68.4,32 Z m 0,26.074074 H 54 c -1.98,0 -3.6,1.6 -3.6,3.555556 v 1.185185 c 0,-1.955556 1.62,-3.555556 3.6,-3.555556 h 14.4 c 1.98,0 3.6,1.6 3.6,3.555556 V 61.62963 c 0,-1.955556 -1.62,-3.555556 -3.6,-3.555556 z"
     id="path48"
     inkscape:connector-curvature="0"
     style="fill:#1a0900;fill-opacity:0.2;stroke-width:1.19256961" />
  <path
     d="M 42,58.074074 H 27.6 c -1.98,0 -3.6,1.6 -3.6,3.555556 v 14.222222 c 0,1.955555 1.62,3.555555 3.6,3.555555 H 42 c 1.98,0 3.6,-1.6 3.6,-3.555555 V 61.62963 c 0,-1.955556 -1.62,-3.555556 -3.6,-3.555556 z m 3,17.777778 c 0,1.63437 -1.3452,2.962963 -3,2.962963 H 27.6 c -1.6548,0 -3,-1.328593 -3,-2.962963 V 61.62963 c 0,-1.634371 1.3452,-2.962963 3,-2.962963 H 42 c 1.6548,0 3,1.328592 3,2.962963 z M 27.5016,31.048296 c -7.8252,4.464593 -8.9784,8.726519 -4.4652,16.456297 4.5192,7.727407 8.8356,8.86874 16.662,4.408888 7.8252,-4.465777 8.9808,-8.724148 4.4628,-16.455111 -4.5168,-7.727407 -8.8344,-8.871111 -16.6596,-4.410074 z m 11.8968,20.352 c -3.0228,1.722074 -5.3712,2.524445 -7.3908,2.524445 -3.1716,0 -5.6976,-2.008889 -8.4516,-6.716445 -4.3308,-7.416889 -3.2604,-11.36474 4.2456,-15.646815 3.0228,-1.722074 5.3712,-2.524444 7.3908,-2.524444 3.1704,0 5.6964,2.007704 8.4492,6.71763 4.3332,7.414518 3.2628,11.36237 -4.2432,15.645629 z M 68.4,58.074074 H 54 c -1.98,0 -3.6,1.6 -3.6,3.555556 v 14.222222 c 0,1.955555 1.62,3.555555 3.6,3.555555 h 14.4 c 1.98,0 3.6,-1.6 3.6,-3.555555 V 61.62963 c 0,-1.955556 -1.62,-3.555556 -3.6,-3.555556 z m 3,17.777778 c 0,1.63437 -1.3452,2.962963 -3,2.962963 H 54 c -1.6548,0 -3,-1.328593 -3,-2.962963 V 61.62963 c 0,-1.634371 1.3452,-2.962963 3,-2.962963 h 14.4 c 1.6548,0 3,1.328592 3,2.962963 z M 68.4,32 H 54 c -1.98,0 -3.6,1.6 -3.6,3.555556 v 14.222222 c 0,1.955555 1.62,3.555555 3.6,3.555555 h 14.4 c 1.98,0 3.6,-1.6 3.6,-3.555555 V 35.555556 C 72,33.6 70.38,32 68.4,32 Z m 3,17.777778 c 0,1.63437 -1.3452,2.962963 -3,2.962963 H 54 c -1.6548,0 -3,-1.328593 -3,-2.962963 V 35.555556 c 0,-1.634371 1.3452,-2.962963 3,-2.962963 h 14.4 c 1.6548,0 3,1.328592 3,2.962963 z"
     id="path50"
     inkscape:connector-curvature="0"
     style="fill:#1a0900;fill-opacity:0.1;stroke-width:1.19256961" />
</svg>
