<?xml version="1.0" encoding="UTF-8" standalone="no"?>
<svg
   xmlns:dc="http://purl.org/dc/elements/1.1/"
   xmlns:cc="http://creativecommons.org/ns#"
   xmlns:rdf="http://www.w3.org/1999/02/22-rdf-syntax-ns#"
   xmlns:svg="http://www.w3.org/2000/svg"
   xmlns="http://www.w3.org/2000/svg"
   xmlns:sodipodi="http://sodipodi.sourceforge.net/DTD/sodipodi-0.dtd"
   xmlns:inkscape="http://www.inkscape.org/namespaces/inkscape"
   height="96px"
   version="1.1"
   viewBox="0 0 96 96"
   width="96px"
   x="0px"
   y="0px"
   id="svg52"
   sodipodi:docname="icon-launcher-folder-15.svg"
   inkscape:version="0.92.2 2405546, 2018-03-11">
  <metadata
     id="metadata58">
    <rdf:RDF>
      <cc:Work
         rdf:about="">
        <dc:format>image/svg+xml</dc:format>
        <dc:type
           rdf:resource="http://purl.org/dc/dcmitype/StillImage" />
      </cc:Work>
    </rdf:RDF>
  </metadata>
  <defs
     id="defs56" />
  <sodipodi:namedview
     pagecolor="#ffffff"
     bordercolor="#666666"
     borderopacity="1"
     objecttolerance="10"
     gridtolerance="10"
     guidetolerance="10"
     inkscape:pageopacity="0"
     inkscape:pageshadow="2"
     inkscape:window-width="1366"
     inkscape:window-height="717"
     id="namedview54"
     showgrid="false"
     inkscape:zoom="2.4583333"
     inkscape:cx="47.999999"
     inkscape:cy="47.18644"
     inkscape:window-x="0"
     inkscape:window-y="25"
     inkscape:window-maximized="1"
     inkscape:current-layer="svg52" />
  <path
     d="M 93,48.555556 C 93,81.483334 81.343875,93 48,93 14.660625,93 3,81.483334 3,48.555556 3,15.63 14.660625,4.1111111 48,4.1111111 c 33.341625,0 45,11.5188889 45,44.4444449 z"
     id="path2"
     inkscape:connector-curvature="0"
     style="fill-opacity:0.4;stroke-width:1.11803401" />
  <rect
     height="90"
     width="90"
     id="rect4"
     x="3"
     y="3"
     style="fill:none;stroke-width:0.9375" />
  <linearGradient
     gradientUnits="userSpaceOnUse"
     id="SVGID_1_"
     x1="47.9995"
     x2="47.9995"
     y1="8"
     y2="24"
     gradientTransform="matrix(1.125,0,0,1.1111111,-6,-5.8888884)">
    <stop
       offset="0"
       style="stop-color:#E4BE34"
       id="stop6" />
    <stop
       offset="1"
       style="stop-color:#E0AA18"
       id="stop8" />
  </linearGradient>
  <path
     d="M 88.5045,20.777778 C 82.484625,7.9888889 69.936375,3 48,3 26.06475,3 13.5165,7.9888889 7.4955,20.777778 Z"
     id="path11"
     style="fill:url(#SVGID_1_);stroke-width:1.11803401"
     inkscape:connector-curvature="0" />
  <path
     d="m 48,91.888889 c 33.343875,0 45,-11.517778 45,-44.444445 0,-12.751111 -1.758375,-22.278889 -5.837625,-29.183333 h -41.0715 C 45.467625,17.506667 44.346,16.096667 42.39525,13.503334 41.3175,12.071111 38.875125,9.6666667 34.63275,9.6666667 H 16.989375 C 7.001625,16.255555 3,28.182222 3,47.444444 3,80.371111 14.660625,91.888889 48,91.888889 Z"
     id="path13"
     inkscape:connector-curvature="0"
     style="fill-opacity:0.02000002;stroke-width:1.11803401" />
  <path
     d="m 48,91.888889 c 33.343875,0 45,-11.517778 45,-44.444445 C 93,35.037778 91.34175,25.673333 87.495375,18.816667 H 45.82425 c -0.547875,-0.653334 -1.693125,-2.073333 -3.88125,-4.981111 -1.01475,-1.35 -3.315375,-3.613334 -7.31025,-3.613334 h -18.459 C 6.781125,16.916666 3,28.713334 3,47.444444 3,80.371111 14.660625,91.888889 48,91.888889 Z"
     id="path15"
     inkscape:connector-curvature="0"
     style="fill-opacity:0.02000002;stroke-width:1.11803401" />
  <path
     d="m 48,91.888889 c 33.343875,0 45,-11.517778 45,-44.444445 C 93,35.365555 91.42275,26.177778 87.789,19.372222 H 45.562125 c -0.480375,-0.56 -1.63125,-1.964444 -4.07025,-5.205555 C 40.539,12.901111 38.380125,10.777778 34.63275,10.777778 H 15.427875 C 6.58425,17.561111 3,29.218889 3,47.444444 3,80.371111 14.660625,91.888889 48,91.888889 Z"
     id="path17"
     inkscape:connector-curvature="0"
     style="fill-opacity:0.05;stroke-width:1.11803401" />
  <path
     d="m 48,91.888889 c 33.343875,0 45,-11.517778 45,-44.444445 C 93,35.69 91.50375,26.676667 88.07475,19.927777 H 45.3045 c -0.367875,-0.414444 -1.48725,-1.74 -4.26375,-5.429999 -0.889875,-1.181112 -2.90475,-3.165556 -6.406875,-3.165556 h -19.908 C 6.393,18.192222 3,29.707777 3,47.444444 3,80.371111 14.660625,91.888889 48,91.888889 Z"
     id="path19"
     inkscape:connector-curvature="0"
     style="fill-opacity:0.05;stroke-width:1.11803401" />
  <linearGradient
     gradientUnits="userSpaceOnUse"
     id="SVGID_2_"
     x1="47.9995"
     x2="47.9995"
     y1="16"
     y2="88.0005"
     gradientTransform="matrix(1.125,0,0,1.1111111,-6,-5.8888884)">
    <stop
       offset="0"
       style="stop-color:#E6CD49"
       id="stop21" />
    <stop
       offset="1"
       style="stop-color:#E0A714"
       id="stop23" />
  </linearGradient>
  <path
     d="m 48,91.888889 c 33.343875,0 45,-11.517778 45,-44.444445 C 93,36.013333 91.590375,27.167778 88.3605,20.483333 H 45.055875 c 0,0 -0.826875,-0.816666 -4.467375,-5.654444 -1.07325,-1.425556 -2.977875,-2.94 -5.95575,-2.94 -3.621375,0 -13.426875,0 -20.5605,0 C 6.214125,18.807778 3,30.178889 3,47.444444 3,80.371111 14.660625,91.888889 48,91.888889 Z"
     id="path26"
     style="fill:url(#SVGID_2_);stroke-width:1.11803401"
     inkscape:connector-curvature="0" />
  <path
     d="M 34.63275,11.888889 H 14.07225 C 13.663875,12.247778 13.263375,12.615556 12.87975,13 h 21.753 c 2.601,0 5.0715,1.141111 6.370875,2.381112 C 40.8675,15.2 40.733625,15.023333 40.5885,14.83 39.51525,13.403333 37.610625,11.888889 34.63275,11.888889 Z M 88.3605,20.483333 H 45.055875 l 0.905625,1.092223 42.899625,0.01445 c -0.16425,-0.372226 -0.32625,-0.745559 -0.500625,-1.10667 z"
     id="path28"
     inkscape:connector-curvature="0"
     style="fill:#ffffff;fill-opacity:0.5;stroke-width:1.11803401" />
  <linearGradient
     gradientTransform="matrix(1.125,0,0,1.1111111,212.16596,-912.37867)"
     gradientUnits="userSpaceOnUse"
     id="SVGID_3_"
     x1="-145.9253"
     x2="-145.9253"
     y1="824.0938"
     y2="903.3385">
    <stop
       offset="0"
       style="stop-color:#FFFFFF"
       id="stop30" />
    <stop
       offset="1"
       style="stop-color:#FFFFFF;stop-opacity:0"
       id="stop32" />
  </linearGradient>
  <path
     d="M 48,3 C 14.660625,3 3,14.517778 3,47.444444 c 0,32.926667 11.660625,44.444445 45,44.444445 33.343875,0 45,-11.517778 45,-44.444445 C 93,14.517778 81.341625,3 48,3 Z m 0,87.777778 C 15.19725,90.777778 4.125,79.842222 4.125,47.444444 4.125,15.046667 15.19725,4.1111111 48,4.1111111 c 32.80275,0 43.875,10.9355559 43.875,43.3333329 0,32.397778 -11.07225,43.333334 -43.875,43.333334 z"
     id="path35"
     style="fill:url(#SVGID_3_);fill-opacity:0.15;stroke-width:1.11803401"
     inkscape:connector-curvature="0" />
  <linearGradient
     gradientUnits="userSpaceOnUse"
     id="SVGID_4_"
     x1="47.9995"
     x2="47.9995"
     y1="33.0005"
     y2="74.1362"
     gradientTransform="matrix(1.125,0,0,1.1111111,-6,-5.8888884)">
    <stop
       offset="0"
       style="stop-color:#D6A214"
       id="stop37" />
    <stop
       offset="0.75"
       style="stop-color:#CE820A"
       id="stop39" />
    <stop
       offset="1"
       style="stop-color:#CE820A"
       id="stop41" />
  </linearGradient>
  <path
     d="M 40.954125,52.847778 26.661,66.964445 l 0.01687,0.01667 c -1.66725,1.974445 -1.564875,4.917778 0.3105,6.771111 1.877625,1.854444 4.854375,1.954445 6.854625,0.305556 l 0.01912,0.01778 13.34475,-13.17889 c 0.04163,-0.265555 0.10575,-0.525555 0.207,-0.77111 l -1.36125,-2.243334 z M 31.242,72.136667 c -0.72225,0.713333 -1.895625,0.713333 -2.617875,0 -0.723375,-0.715555 -0.723375,-1.872222 0,-2.586667 0.723375,-0.713333 1.89675,-0.713333 2.617875,0 0.723375,0.714445 0.723375,1.871112 0,2.586667 z m 19.86075,-19.243333 2.271375,1.344444 c 0.24975,-0.1 0.513,-0.162222 0.781875,-0.205556 l 3.270375,-3.23 c 3.394125,0.892223 7.15275,0.04445 9.817875,-2.586666 4.25475,-4.201111 3.760875,-8.237778 1.796625,-10.176667 l -4.38075,4.392222 c -2.17125,2.141112 -3.429,1.784444 -5.599125,-0.355555 -2.16675,-2.142222 -2.530125,-3.386667 -0.358875,-5.528889 l 4.446,-4.327778 C 61.185,30.28 57.099,29.79 52.84425,33.993334 c -2.662875,2.63111 -3.524625,6.344444 -2.617875,9.697777 L 46.0065,47.858888 Z m 4.9545,3.297777 c -0.736875,-0.726667 -1.931625,-0.726667 -2.667375,0 l -3.333375,-1.973334 -11.997,-11.85 -1.999125,-3.292221 -7.33275,-5.924445 -2.665125,2.633333 5.999625,7.241112 L 35.39325,45 47.3925,56.848889 l 1.998,3.292223 c -0.73575,0.725554 -0.73575,1.905555 0,2.632221 L 62.72175,75.94 c 0.73575,0.725556 1.929375,0.725556 2.665125,0 l 3.99825,-3.95 c 0.736875,-0.726667 0.736875,-1.904444 0,-2.632222 z"
     id="path44"
     style="fill:url(#SVGID_4_);fill-opacity:0.9;stroke-width:1.11803401;stroke-opacity:0.9"
     inkscape:connector-curvature="0" />
  <path
     d="m 50.226375,43.691111 c -0.18225,-0.673333 -0.27225,-1.364445 -0.311625,-2.055556 -0.04162,0.748889 -0.0022,1.498889 0.124875,2.240001 z m 8.47575,-6.033333 4.446,-4.327778 C 62.961375,33.145555 62.749875,32.98 62.526,32.824445 l -3.823875,3.722222 c -1.227375,1.211111 -1.618875,2.135555 -1.359,3.096666 0.171,-0.603333 0.601875,-1.238888 1.359,-1.985555 z M 35.39325,46.111111 47.3925,57.96 l 1.636875,2.697778 c 0.09,-0.185556 0.205875,-0.362223 0.361125,-0.516666 L 47.3925,56.848889 35.39325,45 l -3.331125,-1.974444 -5.493375,-6.63 -0.50625,0.499999 5.999625,7.241112 z M 53.373,55.348889 c 0.24975,-0.1 0.513,-0.162222 0.781875,-0.205555 l 3.270375,-3.230001 c 3.394125,0.892223 7.15275,0.04445 9.817875,-2.586666 2.577375,-2.544445 3.40425,-5.024444 3.225375,-7.01889 -0.16875,1.770001 -1.10925,3.81889 -3.225375,5.907779 -2.664,2.63111 -6.42375,3.478889 -9.817875,2.586666 l -3.270375,3.23 C 53.886,54.074447 53.621625,54.137778 53.373,54.237778 l -2.271375,-1.344444 -4.53375,-4.47889 -0.5625,0.555556 5.09625,5.034445 z M 28.624125,69.55 c -0.50625,0.501111 -0.65025,1.217778 -0.4455,1.848889 0.08663,-0.268889 0.2295,-0.524445 0.4455,-0.737778 0.723375,-0.713333 1.89675,-0.713333 2.617875,0 0.216,0.213333 0.358875,0.468889 0.4455,0.737778 0.20475,-0.631111 0.06075,-1.347778 -0.4455,-1.848889 -0.721125,-0.713333 -1.8945,-0.713333 -2.617875,0 z m 40.761,2.44 -3.99825,3.95 c -0.73575,0.725556 -1.929375,0.725556 -2.665125,0 L 49.3905,62.773333 C 49.16775,62.553334 49.0215,62.29 48.93375,62.012222 c -0.203625,0.638889 -0.05625,1.365556 0.45675,1.872222 l 13.33125,13.166667 c 0.73575,0.725556 1.929375,0.725556 2.665125,0 l 3.99825,-3.949999 C 69.89925,72.594444 70.046625,71.87 69.843,71.228888 69.75525,71.506667 69.607875,71.77 69.385125,71.99 Z M 47.206875,60.895555 33.862125,74.075556 33.843,74.057778 c -1.999125,1.647778 -4.977,1.548889 -6.854625,-0.305556 -0.86175,-0.852222 -1.330875,-1.933333 -1.4445,-3.045556 -0.18,1.480001 0.297,3.022223 1.4445,4.156667 1.877625,1.854445 4.854375,1.954445 6.854625,0.305556 l 0.01912,0.01778 13.34475,-13.178886 c 0.04163,-0.265556 0.10575,-0.525556 0.207,-0.771111 z"
     id="path46"
     inkscape:connector-curvature="0"
     style="fill:#ffffff;fill-opacity:0.5;stroke-width:1.11803401" />
  <path
     d="M 50.226375,44.802222 C 50.14425,44.497777 50.0925,44.185555 50.039625,43.875556 l -4.033125,3.983332 0.5625,0.555556 z m -1.292625,17.21 c 0.08775,-0.277778 0.234,-0.541111 0.45675,-0.76111 L 49.029375,60.656666 C 48.8235,61.083334 48.792,61.566667 48.93375,62.012222 Z m 20.106,-23.973333 -4.38075,4.392222 c -2.17125,2.141112 -3.429,1.784444 -5.599125,-0.355555 -0.94275,-0.931112 -1.51875,-1.691111 -1.717875,-2.431112 -0.320625,1.131112 0.306,2.147778 1.717875,3.542223 C 61.23,45.327778 62.48775,45.683333 64.659,43.542222 L 69.03975,39.15 c 0.774,0.764444 1.314,1.858889 1.429875,3.157777 C 70.64175,40.518889 70.0275,39.013333 69.03975,38.038889 Z m -16.1955,-2.933333 c 3.850875,-3.803334 7.556625,-3.75889 9.68175,-2.28 L 63.148125,32.22 C 61.185,30.281111 57.099,29.791111 52.84425,33.994445 c -2.1285,2.103332 -3.085875,4.894443 -2.9295,7.642221 0.12825,-2.375554 1.089,-4.713333 2.9295,-6.53111 z m 3.213,21.085555 c -0.736875,-0.726667 -1.931625,-0.726667 -2.667375,0 l -3.333375,-1.973334 -11.997,-11.85 -1.999125,-3.292221 -7.33275,-5.924445 -2.665125,2.633333 0.50625,0.611112 2.158875,-2.133334 7.33275,5.924445 1.999125,3.292221 11.997,11.85 3.333375,1.973334 c 0.73575,-0.726667 1.9305,-0.726667 2.667375,0 l 13.327875,13.166667 c 0.22275,0.219999 0.370125,0.483333 0.457875,0.761111 0.203625,-0.638889 0.05625,-1.364445 -0.457875,-1.872222 z M 40.954125,52.847778 26.661,66.964445 l 0.01687,0.01667 c -0.90225,1.067777 -1.267875,2.416666 -1.134,3.725555 0.11475,-0.936666 0.48825,-1.847778 1.134,-2.614444 L 26.661,68.075556 40.954125,53.958889 46.0515,58.992222 47.20575,60.894444 C 47.24737,60.63 47.3115,60.37 47.41275,60.124445 L 46.0515,57.881111 Z M 31.242,72.136667 c -0.72225,0.713333 -1.895625,0.713333 -2.617875,0 -0.216,-0.213334 -0.358875,-0.468889 -0.4455,-0.737778 -0.20475,0.631111 -0.06075,1.347777 0.4455,1.848889 0.723375,0.713333 1.89675,0.713333 2.617875,0 0.50625,-0.501112 0.65025,-1.217778 0.4455,-1.848889 -0.0855,0.268889 -0.228375,0.523333 -0.4455,0.737778 z"
     id="path48"
     inkscape:connector-curvature="0"
     style="fill:#1a0900;fill-opacity:0.2;stroke-width:1.11803401" />
  <path
     d="m 29.933625,68.458889 c -0.644625,0 -1.251,0.247778 -1.70775,0.697778 -0.9405,0.93 -0.9405,2.442222 0,3.372222 0.455625,0.45 1.062,0.697777 1.70775,0.697777 0.64575,0 1.251,-0.247777 1.706625,-0.697777 0.9405,-0.93 0.9405,-2.442222 0,-3.372222 -0.4545,-0.45 -1.060875,-0.697778 -1.706625,-0.697778 z M 31.242,72.136667 c -0.72225,0.713333 -1.895625,0.713333 -2.617875,0 -0.723375,-0.715555 -0.723375,-1.872222 0,-2.586667 0.723375,-0.713333 1.89675,-0.713333 2.617875,0 0.723375,0.714445 0.723375,1.871112 0,2.586667 z m 19.86075,-19.243333 2.271375,1.344444 c 0.24975,-0.1 0.513,-0.162222 0.781875,-0.205556 l 3.270375,-3.23 c 3.394125,0.892223 7.15275,0.04445 9.817875,-2.586666 4.25475,-4.201111 3.760875,-8.237778 1.796625,-10.176667 l -4.38075,4.392222 c -2.17125,2.141112 -3.429,1.784444 -5.599125,-0.355555 -2.16675,-2.142222 -2.530125,-3.386667 -0.358875,-5.528889 l 4.446,-4.327778 C 61.185,30.28 57.099,29.79 52.84425,33.993334 c -2.662875,2.63111 -3.524625,6.344444 -2.617875,9.697777 L 46.0065,47.858888 Z m -0.333,-9.345556 c -0.88425,-3.27 0.063,-6.781111 2.471625,-9.161111 2.554875,-2.523333 4.773375,-3.053334 6.184125,-3.053334 1.099125,0 2.106,0.320001 2.89575,0.91 l -4.014,3.907778 c -2.539125,2.505556 -1.83375,4.152222 0.3555,6.317778 1.191375,1.175555 2.226375,1.957777 3.40875,1.957777 0.941625,0 1.861875,-0.493333 2.984625,-1.60111 l 3.95775,-3.968889 C 69.704625,39.76 70.028625,40.96 69.91275,42.23 69.745125,44.075556 68.683125,46.008889 66.844875,47.824445 65.03925,49.607778 62.634,50.59 60.0735,50.59 c -0.844875,0 -1.6875,-0.108888 -2.50425,-0.323333 l -0.31275,-0.08222 -3.375,3.333334 c -0.15975,0.03 -0.307125,0.06778 -0.44775,0.11111 L 51.44925,52.453333 46.799625,47.86 l 4.05225,-4.002222 z m -9.815625,9.3 -14.293125,14.116667 0.01687,0.01667 c -1.66725,1.974445 -1.564875,4.917778 0.3105,6.771111 1.877625,1.854444 4.854375,1.954445 6.854625,0.305556 l 0.01912,0.01778 13.34475,-13.17889 c 0.04163,-0.265555 0.10575,-0.525555 0.207,-0.77111 l -1.36125,-2.243334 z m 5.7285,7.78 -13.066875,12.904444 -0.13275,0.09889 c -0.811125,0.668889 -1.8405,1.036667 -2.899125,1.036667 -1.207125,0 -2.343375,-0.465556 -3.19725,-1.30889 C 25.7205,71.712222 25.60125,69.122222 27.109875,67.336667 L 27.2595,67.16 40.954125,53.633333 l 4.65075,4.592222 1.19025,1.960001 c -0.04387,0.139999 -0.08212,0.286666 -0.1125,0.442222 z m 9.374625,-4.436667 c -0.736875,-0.726667 -1.931625,-0.726667 -2.667375,0 l -3.333375,-1.973333 -11.997,-11.85 -1.999125,-3.292222 -7.33275,-5.924445 -2.665125,2.633333 5.999625,7.241112 L 35.39325,45 47.3925,56.848889 l 1.998,3.292223 c -0.73575,0.725554 -0.73575,1.905555 0,2.632221 L 62.72175,75.94 c 0.73575,0.725556 1.929375,0.725556 2.665125,0 l 3.99825,-3.95 c 0.736875,-0.726667 0.736875,-1.904444 0,-2.632222 z m 12.929625,15.405556 -3.99825,3.95 c -0.24975,0.246666 -0.581625,0.382222 -0.934875,0.382222 -0.35325,0 -0.685125,-0.135556 -0.934875,-0.382222 L 49.787625,62.38 c -0.24975,-0.246666 -0.387,-0.575555 -0.387,-0.923333 0,-0.348889 0.13725,-0.676667 0.387,-0.923334 l 0.3105,-0.305555 L 47.838,56.504444 35.742,44.557777 32.43675,42.597778 26.821875,35.82 28.767,33.898889 l 6.863625,5.544444 1.9845,3.266667 12.096,11.947778 3.76875,2.232222 0.3105,-0.306666 c 0.24975,-0.246668 0.58275,-0.382223 0.936,-0.382223 0.35325,0 0.685125,0.135555 0.936,0.382223 L 68.99025,69.75 c 0.2475,0.247777 0.38475,0.575556 0.38475,0.923333 0,0.347778 -0.13725,0.676667 -0.388125,0.923334 z"
     id="path50"
     inkscape:connector-curvature="0"
     style="fill:#1a0900;fill-opacity:0.1;stroke-width:1.11803401" />
</svg>
