<?xml version="1.0" encoding="UTF-8" standalone="no"?>
<svg
   xmlns:dc="http://purl.org/dc/elements/1.1/"
   xmlns:cc="http://creativecommons.org/ns#"
   xmlns:rdf="http://www.w3.org/1999/02/22-rdf-syntax-ns#"
   xmlns:svg="http://www.w3.org/2000/svg"
   xmlns="http://www.w3.org/2000/svg"
   xmlns:sodipodi="http://sodipodi.sourceforge.net/DTD/sodipodi-0.dtd"
   xmlns:inkscape="http://www.inkscape.org/namespaces/inkscape"
   height="96px"
   version="1.1"
   viewBox="0 0 96 96"
   width="96px"
   x="0px"
   y="0px"
   id="svg71"
   sodipodi:docname="icon-launcher-folder-14.svg"
   inkscape:version="0.92.2 2405546, 2018-03-11">
  <metadata
     id="metadata77">
    <rdf:RDF>
      <cc:Work
         rdf:about="">
        <dc:format>image/svg+xml</dc:format>
        <dc:type
           rdf:resource="http://purl.org/dc/dcmitype/StillImage" />
      </cc:Work>
    </rdf:RDF>
  </metadata>
  <defs
     id="defs75" />
  <sodipodi:namedview
     pagecolor="#ffffff"
     bordercolor="#666666"
     borderopacity="1"
     objecttolerance="10"
     gridtolerance="10"
     guidetolerance="10"
     inkscape:pageopacity="0"
     inkscape:pageshadow="2"
     inkscape:window-width="1366"
     inkscape:window-height="717"
     id="namedview73"
     showgrid="false"
     inkscape:zoom="2.4583333"
     inkscape:cx="48"
     inkscape:cy="48"
     inkscape:window-x="0"
     inkscape:window-y="25"
     inkscape:window-maximized="1"
     inkscape:current-layer="svg71" />
  <path
     d="M 96,48.592593 C 96,83.715556 83.5668,96 48,96 12.438,96 0,83.715556 0,48.592593 0,13.472 12.438,1.1851852 48,1.1851852 c 35.5644,0 48,12.2868148 48,47.4074078 z"
     id="path2"
     inkscape:connector-curvature="0"
     style="fill-opacity:0.4;stroke-width:1.19256961" />
  <rect
     fill="none"
     height="96"
     width="96"
     id="rect4" />
  <linearGradient
     gradientUnits="userSpaceOnUse"
     id="SVGID_1_"
     x1="47.9995"
     x2="47.9995"
     y1="8"
     y2="24"
     gradientTransform="matrix(1.2,0,0,1.1851852,-9.6,-9.481481)">
    <stop
       offset="0"
       style="stop-color:#E4BE34"
       id="stop6" />
    <stop
       offset="1"
       style="stop-color:#E0AA18"
       id="stop8" />
  </linearGradient>
  <path
     d="M 91.2048,18.962963 C 84.7836,5.3214815 71.3988,0 48,0 24.6024,0 11.2176,5.3214815 4.7952,18.962963 Z"
     id="path11"
     style="fill:url(#SVGID_1_);stroke-width:1.19256961"
     inkscape:connector-curvature="0" />
  <path
     d="m 48,94.814815 c 35.5668,0 48,-12.28563 48,-47.407408 C 96,33.806222 94.1244,23.643259 89.7732,16.278518 H 45.9636 c -0.6648,-0.80474 -1.8612,-2.30874 -3.942,-5.074962 C 40.872,9.6758519 38.2668,7.1111111 33.7416,7.1111111 H 14.922 C 4.2684,14.139259 0,26.861037 0,47.407407 0,82.529185 12.438,94.814815 48,94.814815 Z"
     id="path13"
     inkscape:connector-curvature="0"
     style="fill-opacity:0.02000002;stroke-width:1.19256961" />
  <path
     d="m 48,94.814815 c 35.5668,0 48,-12.28563 48,-47.407408 C 96,34.17363 94.2312,24.184889 90.1284,16.871111 H 45.6792 c -0.5844,-0.696889 -1.806,-2.211555 -4.14,-5.313185 -1.0824,-1.44 -3.5364,-3.8542223 -7.7976,-3.8542223 H 14.052 C 4.0332,14.844444 0,27.427556 0,47.407407 0,82.529185 12.438,94.814815 48,94.814815 Z"
     id="path15"
     inkscape:connector-curvature="0"
     style="fill-opacity:0.05;stroke-width:1.19256961" />
  <path
     d="m 48,94.814815 c 35.5668,0 48,-12.28563 48,-47.407408 C 96,34.523259 94.3176,24.722963 90.4416,17.463704 H 45.3996 C 44.8872,16.86637 43.6596,15.368296 41.058,11.911111 40.0416,10.561185 37.7388,8.2962963 33.7416,8.2962963 H 13.2564 C 3.8232,15.531852 0,27.966815 0,47.407407 0,82.529185 12.438,94.814815 48,94.814815 Z"
     id="path17"
     inkscape:connector-curvature="0"
     style="fill-opacity:0.05;stroke-width:1.19256961" />
  <path
     d="m 48,94.814815 c 35.5668,0 48,-12.28563 48,-47.407408 C 96,34.869333 94.404,25.255111 90.7464,18.056296 H 45.1248 c -0.3924,-0.442074 -1.5864,-1.856 -4.548,-5.792 -0.9492,-1.259852 -3.0984,-3.3765923 -6.834,-3.3765923 H 12.5076 C 3.6192,16.205037 0,28.488296 0,47.407407 0,82.529185 12.438,94.814815 48,94.814815 Z"
     id="path19"
     inkscape:connector-curvature="0"
     style="fill-opacity:0.1;stroke-width:1.19256961" />
  <linearGradient
     gradientUnits="userSpaceOnUse"
     id="SVGID_2_"
     x1="47.9995"
     x2="47.9995"
     y1="16"
     y2="88.0005"
     gradientTransform="matrix(1.2,0,0,1.1851852,-9.6,-9.481481)">
    <stop
       offset="0"
       style="stop-color:#E6CD49"
       id="stop21" />
    <stop
       offset="1"
       style="stop-color:#E0A714"
       id="stop23" />
  </linearGradient>
  <path
     d="m 48,94.814815 c 35.5668,0 48,-12.28563 48,-47.407408 C 96,35.214222 94.4964,25.778963 91.0512,18.648889 H 44.8596 c 0,0 -0.882,-0.871111 -4.7652,-6.031407 -1.1448,-1.520593 -3.1764,-3.1360005 -6.3528,-3.1360005 -3.8628,0 -14.322,0 -21.9312,0 C 3.4284,16.86163 0,28.990815 0,47.407407 0,82.529185 12.438,94.814815 48,94.814815 Z"
     id="path26"
     style="fill:url(#SVGID_2_);stroke-width:1.19256961"
     inkscape:connector-curvature="0" />
  <path
     d="M 33.7416,9.4814815 H 11.8104 c -0.4356,0.3828148 -0.8628,0.7751115 -1.272,1.1851855 h 23.2032 c 2.7744,0 5.4096,1.217185 6.7956,2.539852 -0.1452,-0.193186 -0.288,-0.38163 -0.4428,-0.587852 C 38.9496,11.096889 36.918,9.4814815 33.7416,9.4814815 Z M 91.0512,18.648889 H 44.8596 l 0.966,1.165037 45.7596,0.01541 c -0.1752,-0.397037 -0.348,-0.795259 -0.534,-1.180444 z"
     id="path28"
     inkscape:connector-curvature="0"
     style="fill:#ffffff;fill-opacity:0.5;stroke-width:1.19256961" />
  <linearGradient
     gradientTransform="matrix(1.2,0,0,1.1851852,223.11036,-976.40392)"
     gradientUnits="userSpaceOnUse"
     id="SVGID_3_"
     x1="-145.9253"
     x2="-145.9253"
     y1="824.0938"
     y2="903.3385">
    <stop
       offset="0"
       style="stop-color:#FFFFFF"
       id="stop30" />
    <stop
       offset="1"
       style="stop-color:#FFFFFF;stop-opacity:0"
       id="stop32" />
  </linearGradient>
  <path
     d="M 48,0 C 12.438,0 0,12.28563 0,47.407407 c 0,35.121778 12.438,47.407408 48,47.407408 35.5668,0 48,-12.28563 48,-47.407408 C 96,12.28563 83.5644,0 48,0 Z m 0,93.62963 C 13.0104,93.62963 1.2,81.965037 1.2,47.407407 1.2,12.849778 13.0104,1.1851852 48,1.1851852 c 34.9896,0 46.8,11.6645928 46.8,46.2222218 0,34.55763 -11.8104,46.222223 -46.8,46.222223 z"
     id="path35"
     style="fill:url(#SVGID_3_);fill-opacity:0.15;stroke-width:1.19256961"
     inkscape:connector-curvature="0" />
  <linearGradient
     gradientUnits="userSpaceOnUse"
     id="SVGID_4_"
     x1="47.9995"
     x2="47.9995"
     y1="38.4443"
     y2="74.1614"
     gradientTransform="matrix(1.2,0,0,1.1851852,-9.6,-9.481481)">
    <stop
       offset="0"
       style="stop-color:#D6A214"
       id="stop37" />
    <stop
       offset="0.75"
       style="stop-color:#CE820A"
       id="stop39" />
    <stop
       offset="1"
       style="stop-color:#CE820A"
       id="stop41" />
  </linearGradient>
  <path
     d="m 67.2,75.851852 c 0,1.303704 -1.08,2.37037 -2.4,2.37037 H 31.2 c -1.32,0 -2.4,-1.066666 -2.4,-2.37037 V 33.185185 c 0,-1.303704 1.08,-2.37037 2.4,-2.37037 h 33.6 c 1.32,0 2.4,1.066666 2.4,2.37037 z"
     id="path44"
     style="fill:url(#SVGID_4_);fill-opacity:0.9;stroke-width:1.19256961;stroke-opacity:0.9"
     inkscape:connector-curvature="0" />
  <path
     d="M 64.8,78.222222 H 31.2 c -1.32,0 -2.4,-1.066666 -2.4,-2.37037 v 1.185185 c 0,1.303704 1.08,2.37037 2.4,2.37037 h 33.6 c 1.32,0 2.4,-1.066666 2.4,-2.37037 v -1.185185 c 0,1.303704 -1.08,2.37037 -2.4,2.37037 z"
     id="path46"
     inkscape:connector-curvature="0"
     style="fill:#ffffff;fill-opacity:0.5;stroke-width:1.19256961" />
  <path
     d="M 64.8,30.814815 H 31.2 c -1.32,0 -2.4,1.066666 -2.4,2.37037 V 34.37037 C 28.8,33.066667 29.88,32 31.2,32 h 33.6 c 1.32,0 2.4,1.066667 2.4,2.37037 v -1.185185 c 0,-1.303704 -1.08,-2.37037 -2.4,-2.37037 z"
     id="path48"
     inkscape:connector-curvature="0"
     style="fill:#1a0900;fill-opacity:0.2;stroke-width:1.19256961" />
  <path
     d="M 64.8,30.814815 H 31.2 c -1.32,0 -2.4,1.066666 -2.4,2.37037 v 42.666667 c 0,1.303704 1.08,2.37037 2.4,2.37037 h 33.6 c 1.32,0 2.4,-1.066666 2.4,-2.37037 V 33.185185 c 0,-1.303704 -1.08,-2.37037 -2.4,-2.37037 z m 1.8,45.037037 c 0,0.980148 -0.8076,1.777778 -1.8,1.777778 H 31.2 c -0.9924,0 -1.8,-0.79763 -1.8,-1.777778 V 33.185185 c 0,-0.980148 0.8076,-1.777778 1.8,-1.777778 h 33.6 c 0.9924,0 1.8,0.79763 1.8,1.777778 z"
     id="path50"
     inkscape:connector-curvature="0"
     style="fill:#1a0900;fill-opacity:0.1;stroke-width:1.19256961" />
  <path
     d="m 37.2,45.037037 h 21.6 c 0.6636,0 1.2,-0.529778 1.2,-1.185185 0,-0.655408 -0.5364,-1.185185 -1.2,-1.185185 H 37.2 c -0.6636,0 -1.2,0.529777 -1.2,1.185185 0,0.655407 0.5364,1.185185 1.2,1.185185 z m 21.6,3.555556 H 37.2 c -0.6636,0 -1.2,0.529777 -1.2,1.185185 0,0.655407 0.5364,1.185185 1.2,1.185185 h 21.6 c 0.6636,0 1.2,-0.529778 1.2,-1.185185 0,-0.655408 -0.5364,-1.185185 -1.2,-1.185185 z m 0,5.925926 H 37.2 c -0.6636,0 -1.2,0.529777 -1.2,1.185185 0,0.655407 0.5364,1.185185 1.2,1.185185 h 21.6 c 0.6636,0 1.2,-0.529778 1.2,-1.185185 0,-0.655408 -0.5364,-1.185185 -1.2,-1.185185 z m 0,5.925925 H 37.2 c -0.6636,0 -1.2,0.529778 -1.2,1.185186 0,0.655407 0.5364,1.185185 1.2,1.185185 h 21.6 c 0.6636,0 1.2,-0.529778 1.2,-1.185185 0,-0.655408 -0.5364,-1.185186 -1.2,-1.185186 z m 0,5.925926 H 37.2 c -0.6636,0 -1.2,0.529778 -1.2,1.185186 0,0.655407 0.5364,1.185185 1.2,1.185185 h 21.6 c 0.6636,0 1.2,-0.529778 1.2,-1.185185 0,-0.655408 -0.5364,-1.185186 -1.2,-1.185186 z"
     id="path52"
     inkscape:connector-curvature="0"
     style="fill:#1a0900;fill-opacity:0.2;stroke-width:1.19256961" />
  <linearGradient
     gradientUnits="userSpaceOnUse"
     id="SVGID_5_"
     x1="47.9995"
     x2="47.9995"
     y1="43"
     y2="65.0005"
     gradientTransform="matrix(1.2,0,0,1.1851852,-9.6,-9.481481)">
    <stop
       offset="0"
       style="stop-color:#E6CD49"
       id="stop54" />
    <stop
       offset="1"
       style="stop-color:#E0A714"
       id="stop56" />
  </linearGradient>
  <path
     d="m 37.2,43.851852 h 21.6 c 0.6636,0 1.2,-0.529778 1.2,-1.185185 0,-0.655408 -0.5364,-1.185186 -1.2,-1.185186 H 37.2 c -0.6636,0 -1.2,0.529778 -1.2,1.185186 0,0.655407 0.5364,1.185185 1.2,1.185185 z m 21.6,3.555555 H 37.2 c -0.6636,0 -1.2,0.529778 -1.2,1.185186 0,0.655407 0.5364,1.185185 1.2,1.185185 h 21.6 c 0.6636,0 1.2,-0.529778 1.2,-1.185185 0,-0.655408 -0.5364,-1.185186 -1.2,-1.185186 z m 0,5.925926 H 37.2 c -0.6636,0 -1.2,0.529778 -1.2,1.185186 0,0.655407 0.5364,1.185185 1.2,1.185185 h 21.6 c 0.6636,0 1.2,-0.529778 1.2,-1.185185 0,-0.655408 -0.5364,-1.185186 -1.2,-1.185186 z m 0,5.925926 H 37.2 c -0.6636,0 -1.2,0.529778 -1.2,1.185185 0,0.655408 0.5364,1.185186 1.2,1.185186 h 21.6 c 0.6636,0 1.2,-0.529778 1.2,-1.185186 0,-0.655407 -0.5364,-1.185185 -1.2,-1.185185 z m 0,5.925926 H 37.2 c -0.6636,0 -1.2,0.529778 -1.2,1.185185 0,0.655408 0.5364,1.185186 1.2,1.185186 h 21.6 c 0.6636,0 1.2,-0.529778 1.2,-1.185186 0,-0.655407 -0.5364,-1.185185 -1.2,-1.185185 z"
     id="path59"
     style="fill:url(#SVGID_5_);stroke-width:1.19256961"
     inkscape:connector-curvature="0" />
  <path
     d="M 58.8,59.259259 H 37.2 c -0.6636,0 -1.2,0.529778 -1.2,1.185185 0,0.22163 0.0768,0.416 0.1836,0.592593 0.2088,-0.348444 0.5772,-0.592593 1.0164,-0.592593 h 21.6 c 0.4392,0 0.8076,0.244149 1.0164,0.592593 C 59.9232,60.860444 60,60.666074 60,60.444444 60,59.789037 59.4636,59.259259 58.8,59.259259 Z"
     id="path61"
     inkscape:connector-curvature="0"
     style="fill:#ffffff;fill-opacity:0.5;stroke-width:1.19256961" />
  <path
     d="M 58.8,65.185185 H 37.2 c -0.6636,0 -1.2,0.529778 -1.2,1.185185 0,0.22163 0.0768,0.416 0.1836,0.592593 0.2088,-0.348444 0.5772,-0.592593 1.0164,-0.592593 h 21.6 c 0.4392,0 0.8076,0.244149 1.0164,0.592593 C 59.9232,66.78637 60,66.592 60,66.37037 60,65.714963 59.4636,65.185185 58.8,65.185185 Z"
     id="path63"
     inkscape:connector-curvature="0"
     style="fill:#ffffff;fill-opacity:0.5;stroke-width:1.19256961" />
  <path
     d="m 37.2,42.666667 h 21.6 c 0.4392,0 0.8076,0.244148 1.0164,0.592592 C 59.9232,43.082667 60,42.888296 60,42.666667 60,42.011259 59.4636,41.481481 58.8,41.481481 H 37.2 c -0.6636,0 -1.2,0.529778 -1.2,1.185186 0,0.221629 0.0768,0.416 0.1836,0.592592 0.2088,-0.348444 0.5772,-0.592592 1.0164,-0.592592 z"
     id="path65"
     inkscape:connector-curvature="0"
     style="fill:#ffffff;fill-opacity:0.5;stroke-width:1.19256961" />
  <path
     d="M 58.8,53.333333 H 37.2 c -0.6636,0 -1.2,0.529778 -1.2,1.185186 0,0.221629 0.0768,0.416 0.1836,0.592592 0.2088,-0.348444 0.5772,-0.592592 1.0164,-0.592592 h 21.6 c 0.4392,0 0.8076,0.244148 1.0164,0.592592 C 59.9232,54.934519 60,54.740148 60,54.518519 60,53.863111 59.4636,53.333333 58.8,53.333333 Z"
     id="path67"
     inkscape:connector-curvature="0"
     style="fill:#ffffff;fill-opacity:0.5;stroke-width:1.19256961" />
  <path
     d="M 58.8,47.407407 H 37.2 c -0.6636,0 -1.2,0.529778 -1.2,1.185186 0,0.221629 0.0768,0.416 0.1836,0.592592 0.2088,-0.348444 0.5772,-0.592592 1.0164,-0.592592 h 21.6 c 0.4392,0 0.8076,0.244148 1.0164,0.592592 C 59.9232,49.008593 60,48.814222 60,48.592593 60,47.937185 59.4636,47.407407 58.8,47.407407 Z"
     id="path69"
     inkscape:connector-curvature="0"
     style="fill:#ffffff;fill-opacity:0.5;stroke-width:1.19256961" />
</svg>
