<?xml version="1.0" encoding="UTF-8" standalone="no"?>
<svg
   xmlns:dc="http://purl.org/dc/elements/1.1/"
   xmlns:cc="http://creativecommons.org/ns#"
   xmlns:rdf="http://www.w3.org/1999/02/22-rdf-syntax-ns#"
   xmlns:svg="http://www.w3.org/2000/svg"
   xmlns="http://www.w3.org/2000/svg"
   xmlns:sodipodi="http://sodipodi.sourceforge.net/DTD/sodipodi-0.dtd"
   xmlns:inkscape="http://www.inkscape.org/namespaces/inkscape"
   height="96px"
   version="1.1"
   viewBox="0 0 96 96"
   width="96px"
   x="0px"
   y="0px"
   id="svg54"
   sodipodi:docname="icon-launcher-folder-08.svg"
   inkscape:version="0.92.2 2405546, 2018-03-11">
  <metadata
     id="metadata60">
    <rdf:RDF>
      <cc:Work
         rdf:about="">
        <dc:format>image/svg+xml</dc:format>
        <dc:type
           rdf:resource="http://purl.org/dc/dcmitype/StillImage" />
      </cc:Work>
    </rdf:RDF>
  </metadata>
  <defs
     id="defs58" />
  <sodipodi:namedview
     pagecolor="#ffffff"
     bordercolor="#666666"
     borderopacity="1"
     objecttolerance="10"
     gridtolerance="10"
     guidetolerance="10"
     inkscape:pageopacity="0"
     inkscape:pageshadow="2"
     inkscape:window-width="1366"
     inkscape:window-height="717"
     id="namedview56"
     showgrid="false"
     inkscape:zoom="2.4583333"
     inkscape:cx="47.999999"
     inkscape:cy="47.999999"
     inkscape:window-x="0"
     inkscape:window-y="25"
     inkscape:window-maximized="1"
     inkscape:current-layer="svg54" />
  <path
     d="M 93,48.555556 C 93,81.483334 81.343875,93 48,93 14.660625,93 3,81.483334 3,48.555556 3,15.63 14.660625,4.1111111 48,4.1111111 c 33.341625,0 45,11.5188889 45,44.4444449 z"
     id="path2"
     inkscape:connector-curvature="0"
     style="fill-opacity:0.4;stroke-width:1.11803401" />
  <rect
     height="90"
     width="90"
     id="rect4"
     x="3"
     y="3"
     style="fill:none;stroke-width:0.9375" />
  <linearGradient
     gradientUnits="userSpaceOnUse"
     id="SVGID_1_"
     x1="47.9995"
     x2="47.9995"
     y1="8"
     y2="24"
     gradientTransform="matrix(1.125,0,0,1.1111111,-6,-5.8888884)">
    <stop
       offset="0"
       style="stop-color:#E4BE34"
       id="stop6" />
    <stop
       offset="1"
       style="stop-color:#E0AA18"
       id="stop8" />
  </linearGradient>
  <path
     d="M 88.5045,20.777778 C 82.484625,7.9888889 69.936375,3 48,3 26.06475,3 13.5165,7.9888889 7.4955,20.777778 Z"
     id="path11"
     style="fill:url(#SVGID_1_);stroke-width:1.11803401"
     inkscape:connector-curvature="0" />
  <path
     d="m 48,91.888889 c 33.343875,0 45,-11.517778 45,-44.444445 0,-12.751111 -1.758375,-22.278889 -5.837625,-29.183333 h -41.0715 C 45.467625,17.506667 44.346,16.096667 42.39525,13.503334 41.3175,12.071111 38.875125,9.6666667 34.63275,9.6666667 H 16.989375 C 7.001625,16.255555 3,28.182222 3,47.444444 3,80.371111 14.660625,91.888889 48,91.888889 Z"
     id="path13"
     inkscape:connector-curvature="0"
     style="fill-opacity:0.02000002;stroke-width:1.11803401" />
  <path
     d="m 48,91.888889 c 33.343875,0 45,-11.517778 45,-44.444445 C 93,35.037778 91.34175,25.673333 87.495375,18.816667 H 45.82425 c -0.547875,-0.653334 -1.693125,-2.073333 -3.88125,-4.981111 -1.01475,-1.35 -3.315375,-3.613334 -7.31025,-3.613334 h -18.459 C 6.781125,16.916666 3,28.713334 3,47.444444 3,80.371111 14.660625,91.888889 48,91.888889 Z"
     id="path15"
     inkscape:connector-curvature="0"
     style="fill-opacity:0.05;stroke-width:1.11803401" />
  <path
     d="m 48,91.888889 c 33.343875,0 45,-11.517778 45,-44.444445 C 93,35.365555 91.42275,26.177778 87.789,19.372222 H 45.562125 c -0.480375,-0.56 -1.63125,-1.964444 -4.07025,-5.205555 C 40.539,12.901111 38.380125,10.777778 34.63275,10.777778 H 15.427875 C 6.58425,17.561111 3,29.218889 3,47.444444 3,80.371111 14.660625,91.888889 48,91.888889 Z"
     id="path17"
     inkscape:connector-curvature="0"
     style="fill-opacity:0.05;stroke-width:1.11803401" />
  <path
     d="m 48,91.888889 c 33.343875,0 45,-11.517778 45,-44.444445 C 93,35.69 91.50375,26.676667 88.07475,19.927777 H 45.3045 c -0.367875,-0.414444 -1.48725,-1.74 -4.26375,-5.429999 -0.889875,-1.181112 -2.90475,-3.165556 -6.406875,-3.165556 h -19.908 C 6.393,18.192222 3,29.707777 3,47.444444 3,80.371111 14.660625,91.888889 48,91.888889 Z"
     id="path19"
     inkscape:connector-curvature="0"
     style="fill-opacity:0.1;stroke-width:1.11803401" />
  <linearGradient
     gradientUnits="userSpaceOnUse"
     id="SVGID_2_"
     x1="47.9995"
     x2="47.9995"
     y1="16"
     y2="88.0005"
     gradientTransform="matrix(1.125,0,0,1.1111111,-6,-5.8888884)">
    <stop
       offset="0"
       style="stop-color:#E6CD49"
       id="stop21" />
    <stop
       offset="1"
       style="stop-color:#E0A714"
       id="stop23" />
  </linearGradient>
  <path
     d="m 48,91.888889 c 33.343875,0 45,-11.517778 45,-44.444445 C 93,36.013333 91.590375,27.167778 88.3605,20.483333 H 45.055875 c 0,0 -0.826875,-0.816666 -4.467375,-5.654444 -1.07325,-1.425556 -2.977875,-2.94 -5.95575,-2.94 -3.621375,0 -13.426875,0 -20.5605,0 C 6.214125,18.807778 3,30.178889 3,47.444444 3,80.371111 14.660625,91.888889 48,91.888889 Z"
     id="path26"
     style="fill:url(#SVGID_2_);stroke-width:1.11803401"
     inkscape:connector-curvature="0" />
  <path
     d="M 34.63275,11.888889 H 14.07225 C 13.663875,12.247778 13.263375,12.615556 12.87975,13 h 21.753 c 2.601,0 5.0715,1.141111 6.370875,2.381112 C 40.8675,15.2 40.733625,15.023333 40.5885,14.83 39.51525,13.403333 37.610625,11.888889 34.63275,11.888889 Z M 88.3605,20.483333 H 45.055875 l 0.905625,1.092223 42.899625,0.01445 c -0.16425,-0.372226 -0.32625,-0.745559 -0.500625,-1.10667 z"
     id="path28"
     inkscape:connector-curvature="0"
     style="fill:#ffffff;fill-opacity:0.5;stroke-width:1.11803401" />
  <linearGradient
     gradientTransform="matrix(1.125,0,0,1.1111111,212.16596,-912.37867)"
     gradientUnits="userSpaceOnUse"
     id="SVGID_3_"
     x1="-145.9253"
     x2="-145.9253"
     y1="824.0938"
     y2="903.3385">
    <stop
       offset="0"
       style="stop-color:#FFFFFF"
       id="stop30" />
    <stop
       offset="1"
       style="stop-color:#FFFFFF;stop-opacity:0"
       id="stop32" />
  </linearGradient>
  <path
     d="M 48,3 C 14.660625,3 3,14.517778 3,47.444444 c 0,32.926667 11.660625,44.444445 45,44.444445 33.343875,0 45,-11.517778 45,-44.444445 C 93,14.517778 81.341625,3 48,3 Z m 0,87.777778 C 15.19725,90.777778 4.125,79.842222 4.125,47.444444 4.125,15.046667 15.19725,4.1111111 48,4.1111111 c 32.80275,0 43.875,10.9355559 43.875,43.3333329 0,32.397778 -11.07225,43.333334 -43.875,43.333334 z"
     id="path35"
     style="fill:url(#SVGID_3_);fill-opacity:0.15;stroke-width:1.11803401"
     inkscape:connector-curvature="0" />
  <linearGradient
     gradientUnits="userSpaceOnUse"
     id="SVGID_4_"
     x1="47.9995"
     x2="47.9995"
     y1="32"
     y2="77.0005"
     gradientTransform="matrix(1.125,0,0,1.1111111,-6,-5.8888884)">
    <stop
       offset="0"
       style="stop-color:#D6A214"
       id="stop37" />
    <stop
       offset="0.75"
       style="stop-color:#CE820A"
       id="stop39" />
    <stop
       offset="1"
       style="stop-color:#CE820A"
       id="stop41" />
  </linearGradient>
  <path
     d="M 64.875,51.888889 H 54.75 V 33 c 0,-1.625556 -1.731375,-3.333334 -3.375,-3.333334 h -6.75 c -1.643625,0 -3.375,1.708889 -3.375,3.333334 V 51.888889 H 31.125 l 16.89525,19.999999 z m 0,23.333333 h -33.75 c -1.2375,0 -2.25,1 -2.25,2.222222 0,1.222223 1.0125,2.222223 2.25,2.222223 h 33.75 c 1.2375,0 2.25,-1 2.25,-2.222223 0,-1.222222 -1.0125,-2.222222 -2.25,-2.222222 z"
     id="path44"
     style="fill:url(#SVGID_4_);fill-opacity:0.9;stroke-width:1.11803401;stroke-opacity:0.9"
     inkscape:connector-curvature="0" />
  <path
     d="M 64.875,53 H 63.939 L 48.02025,71.888888 32.06325,53 H 31.125 l 16.89525,20 z m 2.170125,25 C 66.792,78.953333 65.91675,79.666667 64.875,79.666667 h -33.75 c -1.04175,0 -1.917,-0.713334 -2.170125,-1.666667 -0.04725,0.178889 -0.07988,0.362222 -0.07988,0.555556 0,1.222221 1.0125,2.222222 2.25,2.222222 h 33.75 c 1.2375,0 2.25,-1.000001 2.25,-2.222222 0,-0.193334 -0.03262,-0.376667 -0.07988,-0.555556 z"
     id="path46"
     inkscape:connector-curvature="0"
     style="fill:#ffffff;fill-opacity:0.5;stroke-width:1.11803401" />
  <path
     d="m 44.625,30.777778 h 6.75 c 1.643625,0 3.375,1.707777 3.375,3.333333 V 33 c 0,-1.625556 -1.731375,-3.333334 -3.375,-3.333334 h -6.75 c -1.643625,0 -3.375,1.708889 -3.375,3.333334 v 1.111111 c 0,-1.624445 1.731375,-3.333333 3.375,-3.333333 z M 54.75,53 h 9.189 l 0.936,-1.111111 H 54.75 Z m 10.125,22.222222 h -33.75 c -1.2375,0 -2.25,1 -2.25,2.222222 0,0.193334 0.03262,0.376667 0.07988,0.555556 0.25312,-0.953333 1.12837,-1.666667 2.17012,-1.666667 h 33.75 c 1.04175,0 1.917,0.713334 2.170125,1.666667 0.04725,-0.178889 0.07988,-0.362222 0.07988,-0.555556 0,-1.222222 -1.0125,-2.222222 -2.25,-2.222222 z M 41.25,53 V 51.888889 H 31.125 L 32.06325,53 Z"
     id="path48"
     inkscape:connector-curvature="0"
     style="fill:#1a0900;fill-opacity:0.2;stroke-width:1.11803401" />
  <path
     d="M 64.875,51.888889 H 54.75 V 33 c 0,-1.625556 -1.731375,-3.333334 -3.375,-3.333334 h -6.75 c -1.643625,0 -3.375,1.708889 -3.375,3.333334 V 51.888889 H 31.125 L 48.02025,71.888888 Z M 41.8125,52.444445 V 33 c 0,-1.323334 1.472625,-2.777778 2.8125,-2.777778 h 6.75 c 1.339875,0 2.8125,1.454444 2.8125,2.777778 v 19.444445 h 9.48825 L 48.02025,71.021111 32.3265,52.444445 Z M 64.875,75.222222 h -33.75 c -1.2375,0 -2.25,1 -2.25,2.222222 0,1.222223 1.0125,2.222223 2.25,2.222223 h 33.75 c 1.2375,0 2.25,-1 2.25,-2.222223 0,-1.222222 -1.0125,-2.222222 -2.25,-2.222222 z m 0,3.888889 h -33.75 c -0.930375,0 -1.6875,-0.747777 -1.6875,-1.666667 0,-0.918889 0.757125,-1.666666 1.6875,-1.666666 h 33.75 c 0.930375,0 1.6875,0.747777 1.6875,1.666666 0,0.91889 -0.757125,1.666667 -1.6875,1.666667 z"
     id="path50"
     inkscape:connector-curvature="0"
     style="fill:#1a0900;fill-opacity:0.1;stroke-width:1.11803401" />
  <path
     d="m 32.25,79.666667 h 3.375 l 2.25,-4.444445 H 34.5 Z m 6.75,0 h 3.375 l 2.25,-4.444445 H 41.25 Z m 6.75,0 h 3.375 l 2.25,-4.444445 H 48 Z m 6.75,0 h 3.375 l 2.25,-4.444445 H 54.75 Z m 9,-4.444445 -2.25,4.444445 h 3.375 l 2.25,-4.444445 z"
     id="path52"
     inkscape:connector-curvature="0"
     style="fill-opacity:0.07999998;stroke-width:1.11803401" />
</svg>
