<?xml version="1.0" encoding="UTF-8" standalone="no"?>
<!-- Generator: Adobe Illustrator 17.1.0, SVG Export Plug-In . SVG Version: 6.00 Build 0)  -->

<svg
   xmlns:ns="&amp;ns_sfw;"
   xmlns:dc="http://purl.org/dc/elements/1.1/"
   xmlns:cc="http://creativecommons.org/ns#"
   xmlns:rdf="http://www.w3.org/1999/02/22-rdf-syntax-ns#"
   xmlns:svg="http://www.w3.org/2000/svg"
   xmlns="http://www.w3.org/2000/svg"
   xmlns:sodipodi="http://sodipodi.sourceforge.net/DTD/sodipodi-0.dtd"
   xmlns:inkscape="http://www.inkscape.org/namespaces/inkscape"
   version="1.1"
   id="图层_1"
   x="0px"
   y="0px"
   width="96px"
   height="96px"
   viewBox="0 0 96 96"
   enable-background="new 0 0 96 96"
   xml:space="preserve"
   sodipodi:docname="icon-launcher-folder-12.svg"
   inkscape:version="0.92.2 2405546, 2018-03-11"><defs
   id="defs59" /><sodipodi:namedview
   pagecolor="#ffffff"
   bordercolor="#666666"
   borderopacity="1"
   objecttolerance="10"
   gridtolerance="10"
   guidetolerance="10"
   inkscape:pageopacity="0"
   inkscape:pageshadow="2"
   inkscape:window-width="1366"
   inkscape:window-height="717"
   id="namedview57"
   showgrid="false"
   inkscape:zoom="2.4583333"
   inkscape:cx="48"
   inkscape:cy="48"
   inkscape:window-x="0"
   inkscape:window-y="25"
   inkscape:window-maximized="1"
   inkscape:current-layer="图层_1" />
<metadata
   id="metadata2">
	<ns:sfw>
		<ns:slices />
		<ns:sliceSourceBounds
   height="96"
   width="96"
   x="1"
   y="3"
   bottomLeftOrigin="true" />
	</ns:sfw>
<rdf:RDF><cc:Work
     rdf:about=""><dc:format>image/svg+xml</dc:format><dc:type
       rdf:resource="http://purl.org/dc/dcmitype/StillImage" /></cc:Work></rdf:RDF></metadata>
<path
   d="M 96,48.592593 C 96,83.715556 83.5668,96 48,96 12.438,96 0,83.715556 0,48.592593 0,13.472 12.438,1.1851852 48,1.1851852 c 35.5644,0 48,12.2868148 48,47.4074078 z"
   id="path4"
   inkscape:connector-curvature="0"
   style="fill-opacity:0.4;stroke-width:1.19256961" />
<rect
   fill="none"
   width="96"
   height="96"
   id="rect6" />
<linearGradient
   id="SVGID_1_"
   gradientUnits="userSpaceOnUse"
   x1="48"
   y1="90"
   x2="48"
   y2="74"
   gradientTransform="matrix(1.2,0,0,-1.1851852,-9.6,106.66667)">
	<stop
   offset="0"
   style="stop-color:#E4BE34"
   id="stop8" />
	<stop
   offset="1"
   style="stop-color:#E0AA18"
   id="stop10" />
</linearGradient>
<path
   d="M 91.2048,18.962963 C 84.7836,5.3214815 71.3988,0 48,0 24.6024,0 11.2176,5.3214815 4.7952,18.962963 Z"
   id="path13"
   style="fill:url(#SVGID_1_);stroke-width:1.19256961"
   inkscape:connector-curvature="0" />
<path
   d="m 48,94.814815 c 35.5668,0 48,-12.28563 48,-47.407408 C 96,33.806222 94.1244,23.643259 89.7732,16.278518 H 45.9636 c -0.6648,-0.80474 -1.8612,-2.30874 -3.942,-5.074962 C 40.872,9.6758519 38.2668,7.1111111 33.7416,7.1111111 H 14.922 C 4.2684,14.139259 0,26.861037 0,47.407407 0,82.529185 12.438,94.814815 48,94.814815 Z"
   id="path15"
   inkscape:connector-curvature="0"
   style="fill-opacity:0.02000002;stroke-width:1.19256961" />
<path
   d="m 48,94.814815 c 35.5668,0 48,-12.28563 48,-47.407408 C 96,34.17363 94.2312,24.184889 90.1284,16.871111 H 45.6792 c -0.5844,-0.696889 -1.806,-2.211555 -4.14,-5.313185 -1.0824,-1.44 -3.5364,-3.8542223 -7.7976,-3.8542223 H 14.052 C 4.0332,14.844444 0,27.427556 0,47.407407 0,82.529185 12.438,94.814815 48,94.814815 Z"
   id="path17"
   inkscape:connector-curvature="0"
   style="fill-opacity:0.05;stroke-width:1.19256961" />
<path
   d="m 48,94.814815 c 35.5668,0 48,-12.28563 48,-47.407408 C 96,34.523259 94.3176,24.722963 90.4416,17.463704 H 45.3996 C 44.8872,16.86637 43.6596,15.368296 41.058,11.911111 40.0416,10.561185 37.7388,8.2962963 33.7416,8.2962963 H 13.2564 C 3.8232,15.531852 0,27.966815 0,47.407407 0,82.529185 12.438,94.814815 48,94.814815 Z"
   id="path19"
   inkscape:connector-curvature="0"
   style="fill-opacity:0.05;stroke-width:1.19256961" />
<path
   d="m 48,94.814815 c 35.5668,0 48,-12.28563 48,-47.407408 C 96,34.869333 94.404,25.255111 90.7464,18.056296 H 45.1248 c -0.3924,-0.442074 -1.5864,-1.856 -4.548,-5.792 -0.9492,-1.259852 -3.0984,-3.3765923 -6.834,-3.3765923 H 12.5076 C 3.6192,16.205037 0,28.488296 0,47.407407 0,82.529185 12.438,94.814815 48,94.814815 Z"
   id="path21"
   inkscape:connector-curvature="0"
   style="fill-opacity:0.1;stroke-width:1.19256961" />
<linearGradient
   id="SVGID_2_"
   gradientUnits="userSpaceOnUse"
   x1="48"
   y1="82"
   x2="48"
   y2="10"
   gradientTransform="matrix(1.2,0,0,-1.1851852,-9.6,106.66667)">
	<stop
   offset="0"
   style="stop-color:#E6CD49"
   id="stop23" />
	<stop
   offset="1"
   style="stop-color:#E0A714"
   id="stop25" />
</linearGradient>
<path
   d="m 48,94.814815 c 35.5668,0 48,-12.28563 48,-47.407408 C 96,35.214222 94.4964,25.778963 91.0512,18.648889 H 44.8596 c 0,0 -0.882,-0.871111 -4.7652,-6.031407 -1.1448,-1.520593 -3.1764,-3.1360005 -6.3528,-3.1360005 -3.8628,0 -14.322,0 -21.9312,0 C 3.4284,16.86163 0,28.990815 0,47.407407 0,82.529185 12.438,94.814815 48,94.814815 Z"
   id="path28"
   style="fill:url(#SVGID_2_);stroke-width:1.19256961"
   inkscape:connector-curvature="0" />
<path
   d="M 33.7416,9.4814815 H 11.8104 c -0.4356,0.3828148 -0.8628,0.7751115 -1.272,1.1851855 h 23.2032 c 2.7744,0 5.4096,1.217185 6.7956,2.539852 -0.1452,-0.193186 -0.288,-0.38163 -0.4428,-0.587852 C 38.9496,11.096889 36.918,9.4814815 33.7416,9.4814815 Z M 91.0512,18.648889 H 44.8596 l 0.966,1.165037 45.7596,0.01541 c -0.1752,-0.397037 -0.348,-0.795259 -0.534,-1.180444 z"
   id="path30"
   inkscape:connector-curvature="0"
   style="fill:#ffffff;fill-opacity:0.5;stroke-width:1.19256961" />
<linearGradient
   id="SVGID_3_"
   gradientUnits="userSpaceOnUse"
   x1="-145.9253"
   y1="-726.0938"
   x2="-145.9253"
   y2="-805.3385"
   gradientTransform="matrix(1.2,0,0,-1.1851852,223.11036,-860.25577)">
	<stop
   offset="0"
   style="stop-color:#FFFFFF"
   id="stop32" />
	<stop
   offset="1"
   style="stop-color:#FFFFFF;stop-opacity:0"
   id="stop34" />
</linearGradient>
<path
   d="M 48,0 C 12.438,0 0,12.28563 0,47.407407 c 0,35.121778 12.438,47.407408 48,47.407408 35.5668,0 48,-12.28563 48,-47.407408 C 96,12.28563 83.5644,0 48,0 Z m 0,93.62963 C 13.0104,93.62963 1.2,81.965037 1.2,47.407407 1.2,12.849778 13.0104,1.1851852 48,1.1851852 c 34.9896,0 46.8,11.6645928 46.8,46.2222218 0,34.55763 -11.8104,46.222223 -46.8,46.222223 z"
   id="path37"
   style="fill:url(#SVGID_3_);fill-opacity:0.15;stroke-width:1.19256961"
   inkscape:connector-curvature="0" />
<g
   id="g54"
   transform="matrix(1.2,0,0,1.1851852,-9.6,-9.481481)">
	
		<linearGradient
   id="SVGID_4_"
   gradientUnits="userSpaceOnUse"
   x1="18.806101"
   y1="316.42731"
   x2="18.806101"
   y2="272.82471"
   gradientTransform="translate(29.1948,-239.8652)">
		<stop
   offset="0"
   style="stop-color:#CE820A"
   id="stop39" />
		<stop
   offset="0.25"
   style="stop-color:#CE820A"
   id="stop41" />
		<stop
   offset="1"
   style="stop-color:#D6A214"
   id="stop43" />
	</linearGradient>
	<path
   d="M 65.766,71.363 C 65.3,70.857 64.735,70.428 64.127,70.109 62.184,68.975 60.143,67.986 58.053,67.15 c -1.85,-0.738 -3.162,-2.188 -4.01,-3.972 -0.38,-0.801 -0.643,-1.789 -0.589,-2.672 0.032,-0.535 0.471,-0.781 0.78,-1.168 0.326,-0.404 0.599,-0.854 0.834,-1.316 0.683,-1.329 0.906,-2.762 1.426,-4.136 0.801,0.979 1.318,-1.031 1.462,-1.535 0.326,-1.146 1.556,-4.258 0.433,-4.619 -0.166,-0.053 -0.313,0.006 -0.423,0.133 0.021,-0.273 0.337,-1.854 0.524,-2.872 0.097,-0.539 0.162,-1.083 0.162,-1.632 0.002,-0.262 0.011,-0.525 0.021,-0.788 0.002,-0.05 -0.447,-3.201 -0.999,-4.404 -0.458,-1.003 -1.079,-2.076 -2.069,-2.648 -1.078,-0.625 -2.357,-0.94 -3.537,-1.314 -1.834,-0.582 -3.754,-1.39 -5.715,-1.226 -0.922,0.078 -1.679,0.514 -2.555,0.735 -0.563,0.143 -1.127,-0.05 -1.693,0.062 -0.576,0.113 -0.828,0.509 -1.084,0.991 -0.131,0.244 -0.119,0.53 -0.244,0.771 -0.161,0.312 -0.592,0.237 -0.875,0.298 -0.786,0.167 -1.107,0.87 -1.465,1.509 -0.772,1.39 -1.215,4.85 -1.211,4.933 0.018,0.282 0.006,1.664 0.035,2.068 0,1.146 0.186,2.335 0.575,3.488 -1.078,-0.194 -0.614,1.825 -0.496,2.291 0.144,0.562 0.856,4.765 1.806,3.87 0.389,1.219 0.639,2.449 1.18,3.621 0.365,0.795 0.822,1.582 1.46,2.193 0.698,0.672 0.219,1.941 0.021,2.752 -0.283,1.15 -0.853,2.201 -1.703,3.035 -1.115,1.092 -2.558,1.555 -3.945,2.172 -1.828,0.811 -3.795,1.65 -5.409,2.846 -0.39,0.287 -0.86,1.804 -0.69,1.92 0.75,0.521 1.547,0.978 2.371,1.369 3.908,1.863 8.357,2.408 12.639,2.584 4.84,0.195 9.855,0.063 14.563,-1.182 1.812,-0.479 3.581,-1.146 5.2,-2.094 0.357,-0.209 0.709,-0.432 1.05,-0.668 0.161,-0.112 0.115,-0.928 -0.117,-1.182 z"
   id="path46"
   style="fill:url(#SVGID_4_);fill-opacity:0.9"
   inkscape:connector-curvature="0" />
	<path
   d="M 65.766,71.363 C 65.3,70.857 64.735,70.428 64.127,70.109 62.184,68.975 60.143,67.986 58.053,67.15 c -1.85,-0.738 -3.162,-2.188 -4.01,-3.972 -0.38,-0.801 -0.643,-1.789 -0.589,-2.672 0.032,-0.535 0.471,-0.781 0.78,-1.168 0.326,-0.404 0.599,-0.854 0.834,-1.316 0.683,-1.329 0.906,-2.762 1.426,-4.136 0.801,0.979 1.318,-1.031 1.462,-1.535 0.326,-1.146 1.556,-4.258 0.433,-4.619 -0.166,-0.053 -0.313,0.006 -0.423,0.133 0.021,-0.273 0.337,-1.854 0.524,-2.872 0.097,-0.539 0.162,-1.083 0.162,-1.632 0.002,-0.262 0.011,-0.525 0.021,-0.788 0.002,-0.05 -0.447,-3.201 -0.999,-4.404 -0.458,-1.003 -1.079,-2.076 -2.069,-2.648 -1.078,-0.625 -2.357,-0.94 -3.537,-1.314 -1.834,-0.582 -3.754,-1.39 -5.715,-1.226 -0.922,0.078 -1.679,0.514 -2.555,0.735 -0.563,0.143 -1.127,-0.05 -1.693,0.062 -0.576,0.113 -0.828,0.509 -1.084,0.991 -0.131,0.244 -0.119,0.53 -0.244,0.771 -0.161,0.312 -0.592,0.237 -0.875,0.298 -0.786,0.167 -1.107,0.87 -1.465,1.509 -0.772,1.39 -1.215,4.85 -1.211,4.933 0.018,0.282 0.006,1.664 0.035,2.068 0,1.146 0.186,2.335 0.575,3.488 -1.078,-0.194 -0.614,1.825 -0.496,2.291 0.144,0.562 0.856,4.765 1.806,3.87 0.389,1.219 0.639,2.449 1.18,3.621 0.365,0.795 0.822,1.582 1.46,2.193 0.698,0.672 0.219,1.941 0.021,2.752 -0.283,1.15 -0.853,2.201 -1.703,3.035 -1.115,1.092 -2.558,1.555 -3.945,2.172 -1.828,0.811 -3.795,1.65 -5.409,2.846 -0.39,0.287 -0.86,1.804 -0.69,1.92 0.75,0.521 1.547,0.978 2.371,1.369 3.908,1.863 8.357,2.408 12.639,2.584 4.84,0.195 9.855,0.063 14.563,-1.182 1.812,-0.479 3.581,-1.146 5.2,-2.094 0.357,-0.209 0.709,-0.432 1.05,-0.668 0.161,-0.112 0.115,-0.928 -0.117,-1.182 z m -1.186,1.418 c -1.468,0.86 -3.128,1.527 -5.075,2.042 -3.152,0.834 -6.762,1.239 -11.035,1.239 0,0 0,0 0,0 -1.062,0 -2.167,-0.024 -3.38,-0.073 -3.628,-0.148 -8.323,-0.571 -12.443,-2.535 -0.74,-0.352 -1.448,-0.753 -2.106,-1.195 0.07,-0.369 0.347,-1.099 0.511,-1.244 1.465,-1.085 3.245,-1.873 4.966,-2.636 l 0.345,-0.152 c 0.257,-0.114 0.516,-0.223 0.774,-0.331 1.152,-0.484 2.344,-0.986 3.318,-1.94 0.891,-0.874 1.526,-2.006 1.838,-3.272 l 0.089,-0.339 c 0.227,-0.839 0.568,-2.105 -0.248,-2.894 -0.506,-0.483 -0.936,-1.132 -1.353,-2.041 -0.354,-0.766 -0.577,-1.555 -0.812,-2.39 -0.111,-0.391 -0.222,-0.783 -0.347,-1.175 -0.052,-0.163 -0.185,-0.289 -0.351,-0.332 -0.042,-0.011 -0.083,-0.016 -0.125,-0.016 -0.09,0 -0.18,0.024 -0.257,0.071 -0.184,-0.224 -0.51,-0.944 -0.975,-3.156 -0.04,-0.188 -0.07,-0.332 -0.09,-0.409 -0.243,-0.962 -0.209,-1.581 -0.109,-1.696 0.032,0.006 0.066,0.009 0.099,0.009 0.145,0 0.291,-0.055 0.384,-0.164 0.115,-0.134 0.168,-0.308 0.111,-0.476 -0.364,-1.078 -0.548,-2.197 -0.548,-3.328 -0.017,-0.257 -0.02,-0.778 -0.023,-1.242 -0.002,-0.384 -0.005,-0.73 -0.013,-0.858 0.02,-0.203 0.452,-3.404 1.149,-4.658 l 0.093,-0.168 c 0.339,-0.616 0.578,-0.997 1.039,-1.094 0.056,-0.012 0.119,-0.015 0.184,-0.021 0.294,-0.022 0.786,-0.061 1.032,-0.538 0.091,-0.176 0.129,-0.348 0.162,-0.499 0.024,-0.108 0.044,-0.202 0.079,-0.265 0.247,-0.466 0.404,-0.671 0.74,-0.737 0.108,-0.021 0.216,-0.027 0.325,-0.027 0.119,0 0.237,0.007 0.356,0.014 0.138,0.008 0.276,0.016 0.414,0.016 0.236,0 0.435,-0.022 0.625,-0.071 0.351,-0.088 0.685,-0.209 1.017,-0.33 0.491,-0.179 0.955,-0.348 1.458,-0.391 0.161,-0.013 0.322,-0.02 0.482,-0.02 1.372,0 2.762,0.466 4.107,0.917 0.313,0.104 0.624,0.209 0.932,0.307 l 0.7,0.215 c 0.943,0.285 1.918,0.58 2.737,1.055 0.913,0.527 1.476,1.572 1.865,2.423 0.5,1.09 0.932,4.012 0.956,4.237 -0.012,0.208 -0.021,0.477 -0.023,0.743 0,0.466 -0.05,0.971 -0.154,1.548 l -0.207,1.099 c -0.19,0.999 -0.308,1.621 -0.324,1.824 -0.017,0.215 0.107,0.416 0.306,0.5 0.062,0.025 0.127,0.038 0.192,0.038 0.113,0 0.225,-0.039 0.315,-0.111 0.057,0.099 0.117,0.369 0.023,0.975 -0.113,0.738 -0.405,1.646 -0.618,2.308 -0.084,0.263 -0.159,0.494 -0.211,0.678 -0.269,0.956 -0.459,1.284 -0.557,1.397 -0.011,-0.012 -0.023,-0.025 -0.037,-0.042 -0.096,-0.117 -0.239,-0.184 -0.387,-0.184 -0.027,0 -0.054,0.002 -0.081,0.007 -0.176,0.028 -0.324,0.149 -0.387,0.316 -0.21,0.555 -0.373,1.119 -0.531,1.665 -0.246,0.85 -0.478,1.653 -0.872,2.42 -0.246,0.483 -0.5,0.885 -0.778,1.23 -0.077,0.095 -0.161,0.179 -0.244,0.262 -0.272,0.274 -0.612,0.616 -0.646,1.19 -0.055,0.886 0.177,1.948 0.636,2.915 0.966,2.032 2.444,3.492 4.276,4.224 2.099,0.839 4.12,1.823 6.007,2.926 0.581,0.305 1.101,0.703 1.523,1.161 0.052,0.08 0.089,0.355 0.08,0.514 -0.293,0.199 -0.594,0.388 -0.898,0.565 z"
   id="path48"
   inkscape:connector-curvature="0"
   style="fill:#1a0900;fill-opacity:0.1" />
	<path
   d="m 39.902,36.814 c 0.283,-0.061 0.713,0.014 0.875,-0.298 0.125,-0.241 0.113,-0.527 0.244,-0.771 0.256,-0.482 0.508,-0.878 1.084,-0.991 0.566,-0.112 1.131,0.081 1.693,-0.062 0.875,-0.221 1.633,-0.657 2.555,-0.735 1.961,-0.164 3.881,0.644 5.715,1.226 1.18,0.374 2.459,0.689 3.537,1.314 0.99,0.572 1.611,1.645 2.068,2.648 0.479,1.042 0.879,3.54 0.977,4.225 0,-0.011 0.002,-0.022 0.002,-0.033 0.002,-0.262 0.01,-0.525 0.021,-0.788 0.002,-0.05 -0.447,-3.201 -1,-4.404 -0.457,-1.003 -1.078,-2.076 -2.068,-2.648 -1.078,-0.625 -2.357,-0.94 -3.537,-1.314 -1.834,-0.582 -3.754,-1.39 -5.715,-1.226 -0.922,0.078 -1.68,0.514 -2.555,0.735 -0.563,0.143 -1.127,-0.05 -1.693,0.062 -0.576,0.113 -0.828,0.509 -1.084,0.991 -0.131,0.244 -0.119,0.53 -0.244,0.771 -0.162,0.312 -0.592,0.237 -0.875,0.298 -0.787,0.167 -1.107,0.87 -1.465,1.509 -0.773,1.39 -1.215,4.85 -1.211,4.933 0.008,0.129 0.01,0.489 0.012,0.878 0.074,-0.618 0.5,-3.555 1.199,-4.812 0.358,-0.638 0.678,-1.341 1.465,-1.508 z m 18.487,11.894 c 0.225,0.073 0.353,0.26 0.414,0.517 0.108,-0.752 0.047,-1.368 -0.414,-1.517 -0.082,-0.026 -0.158,-0.024 -0.229,-10e-4 -0.103,0.545 -0.185,0.999 -0.195,1.134 0.111,-0.128 0.258,-0.187 0.424,-0.133 z m -4.346,15.446 c 0.848,1.783 2.16,3.232 4.01,3.971 2.09,0.836 4.131,1.826 6.074,2.959 0.607,0.32 1.172,0.748 1.639,1.254 0.041,0.046 0.076,0.114 0.105,0.19 0.004,-0.003 0.007,-0.005 0.01,-0.007 0.162,-0.113 0.117,-0.93 -0.115,-1.184 -0.467,-0.506 -1.031,-0.934 -1.639,-1.254 -1.943,-1.133 -3.984,-2.123 -6.074,-2.959 -1.85,-0.738 -3.162,-2.188 -4.01,-3.971 -0.264,-0.555 -0.463,-1.199 -0.547,-1.836 -0.014,0.055 -0.039,0.102 -0.043,0.164 -0.053,0.884 0.209,1.873 0.59,2.673 z m -17.885,4.592 c 1.387,-0.617 2.83,-1.08 3.945,-2.172 0.85,-0.834 1.42,-1.885 1.703,-3.035 0.152,-0.621 0.465,-1.512 0.288,-2.197 -0.073,0.428 -0.204,0.854 -0.288,1.197 -0.283,1.15 -0.854,2.201 -1.703,3.035 -1.115,1.092 -2.559,1.555 -3.945,2.172 -1.828,0.811 -3.795,1.65 -5.41,2.846 -0.389,0.287 -0.859,1.805 -0.689,1.92 0.045,0.031 0.095,0.058 0.141,0.09 0.145,-0.426 0.357,-0.868 0.549,-1.01 1.614,-1.196 3.581,-2.035 5.409,-2.846 z m 1.76,-20.265 c -0.109,-0.325 -0.199,-0.652 -0.276,-0.98 -0.45,0.128 -0.458,0.847 -0.374,1.468 0.075,-0.333 0.259,-0.558 0.65,-0.488 z"
   id="path50"
   inkscape:connector-curvature="0"
   style="fill:#1a0900;fill-opacity:0.2" />
	<path
   d="m 64.832,73.189 c -1.619,0.947 -3.389,1.615 -5.201,2.094 -4.707,1.246 -9.723,1.377 -14.563,1.182 -4.281,-0.176 -8.73,-0.721 -12.639,-2.584 -0.774,-0.367 -1.521,-0.798 -2.23,-1.279 -0.148,0.435 -0.227,0.852 -0.141,0.91 0.75,0.521 1.547,0.979 2.371,1.369 3.908,1.863 8.357,2.408 12.639,2.584 4.84,0.195 9.855,0.064 14.563,-1.182 1.813,-0.479 3.582,-1.146 5.201,-2.094 0.357,-0.209 0.709,-0.432 1.049,-0.668 0.133,-0.093 0.125,-0.652 -0.01,-0.993 -0.338,0.234 -0.685,0.454 -1.039,0.661 z M 56.494,53.861 c -0.52,1.375 -0.744,2.807 -1.426,4.137 -0.236,0.461 -0.508,0.912 -0.834,1.316 -0.311,0.387 -0.748,0.633 -0.781,1.168 -0.016,0.271 0.006,0.553 0.043,0.836 0.105,-0.42 0.465,-0.662 0.738,-1.004 0.326,-0.404 0.598,-0.855 0.834,-1.316 0.682,-1.33 0.906,-2.762 1.426,-4.137 0.801,0.979 1.318,-1.031 1.461,-1.535 0.262,-0.915 1.095,-3.082 0.848,-4.102 -0.153,1.074 -0.655,2.428 -0.848,3.102 -0.142,0.504 -0.66,2.514 -1.461,1.535 z m -14.709,5.926 c -0.637,-0.611 -1.094,-1.398 -1.459,-2.193 -0.541,-1.172 -0.791,-2.402 -1.18,-3.62 -0.949,0.894 -1.662,-3.309 -1.807,-3.87 -0.037,-0.149 -0.107,-0.461 -0.154,-0.805 -0.133,0.584 0.08,1.507 0.154,1.805 0.145,0.562 0.857,4.764 1.807,3.87 0.389,1.218 0.639,2.448 1.18,3.62 0.365,0.795 0.822,1.582 1.459,2.193 0.162,0.156 0.256,0.348 0.31,0.555 0.1,-0.582 0.093,-1.167 -0.31,-1.555 z m 16.18,-11.946 c 0.057,-0.065 0.123,-0.11 0.195,-0.134 0.106,-0.563 0.234,-1.222 0.33,-1.738 0.096,-0.539 0.162,-1.083 0.162,-1.632 0.002,-0.262 0.01,-0.525 0.021,-0.788 0,-0.007 -0.009,-0.073 -0.023,-0.179 -0.003,0.538 -0.066,1.07 -0.16,1.599 -0.187,1.017 -0.504,2.597 -0.525,2.872 z M 37.344,43.993 c -0.017,-0.219 -0.02,-0.726 -0.023,-1.189 -0.008,0.066 -0.013,0.114 -0.012,0.122 0.018,0.282 0.006,1.664 0.035,2.068 0,0.824 0.1,1.669 0.298,2.508 0.081,-0.023 0.165,-0.04 0.276,-0.02 -0.389,-1.154 -0.574,-2.343 -0.574,-3.489 z"
   id="path52"
   inkscape:connector-curvature="0"
   style="fill:#ffffff;fill-opacity:0.5" />
</g>
</svg>