<?xml version="1.0" encoding="UTF-8" standalone="no"?>
<!-- Generator: Adobe Illustrator 15.0.2, SVG Export Plug-In . SVG Version: 6.00 Build 0)  -->

<svg
   xmlns:dc="http://purl.org/dc/elements/1.1/"
   xmlns:cc="http://creativecommons.org/ns#"
   xmlns:rdf="http://www.w3.org/1999/02/22-rdf-syntax-ns#"
   xmlns:svg="http://www.w3.org/2000/svg"
   xmlns="http://www.w3.org/2000/svg"
   xmlns:sodipodi="http://sodipodi.sourceforge.net/DTD/sodipodi-0.dtd"
   xmlns:inkscape="http://www.inkscape.org/namespaces/inkscape"
   version="1.1"
   id="Livello_1"
   x="0px"
   y="0px"
   width="96px"
   height="96px"
   viewBox="0 0 96 96"
   enable-background="new 0 0 96 96"
   xml:space="preserve"
   sodipodi:docname="icon-launcher-folder-07.svg"
   inkscape:version="0.92.2 2405546, 2018-03-11"><metadata
   id="metadata65"><rdf:RDF><cc:Work
       rdf:about=""><dc:format>image/svg+xml</dc:format><dc:type
         rdf:resource="http://purl.org/dc/dcmitype/StillImage" /></cc:Work></rdf:RDF></metadata><defs
   id="defs63" /><sodipodi:namedview
   pagecolor="#ffffff"
   bordercolor="#666666"
   borderopacity="1"
   objecttolerance="10"
   gridtolerance="10"
   guidetolerance="10"
   inkscape:pageopacity="0"
   inkscape:pageshadow="2"
   inkscape:window-width="1366"
   inkscape:window-height="717"
   id="namedview61"
   showgrid="false"
   inkscape:zoom="2.4583333"
   inkscape:cx="47.999999"
   inkscape:cy="47.18644"
   inkscape:window-x="0"
   inkscape:window-y="25"
   inkscape:window-maximized="1"
   inkscape:current-layer="Livello_1" />
<path
   d="M 93,48.555556 C 93,81.483334 81.343875,93 48,93 14.660625,93 3,81.483334 3,48.555556 3,15.63 14.660625,4.1111111 48,4.1111111 c 33.341625,0 45,11.5188889 45,44.4444449 z"
   id="path2"
   inkscape:connector-curvature="0"
   style="fill-opacity:0.4;stroke-width:1.11803401" />
<rect
   width="90"
   height="90"
   id="rect4"
   x="3"
   y="3"
   style="fill:none;stroke-width:0.9375" />
<linearGradient
   id="SVGID_1_"
   gradientUnits="userSpaceOnUse"
   x1="18.8052"
   y1="-147.8652"
   x2="18.8052"
   y2="-163.8652"
   gradientTransform="matrix(1.125,0,0,-1.1111111,26.84415,-161.29467)">
	<stop
   offset="0"
   style="stop-color:#E4BE34"
   id="stop6" />
	<stop
   offset="1"
   style="stop-color:#E0AA18"
   id="stop8" />
</linearGradient>
<path
   d="M 88.5045,20.777778 C 82.4835,7.9888889 69.936375,3 48,3 26.06475,3 13.5165,7.9888889 7.4955,20.777778 Z"
   id="path11"
   style="fill:url(#SVGID_1_);stroke-width:1.11803401"
   inkscape:connector-curvature="0" />
<path
   d="m 48,91.888889 c 33.343875,0 45,-11.517778 45,-44.444445 0,-12.751111 -1.758375,-22.278889 -5.837625,-29.183333 h -41.0715 C 45.467625,17.506667 44.346,16.096667 42.39525,13.503334 41.3175,12.071111 38.875125,9.6666667 34.63275,9.6666667 H 16.989375 C 7.001625,16.255555 3,28.182222 3,47.444444 3,80.371111 14.660625,91.888889 48,91.888889 Z"
   id="path13"
   inkscape:connector-curvature="0"
   style="fill-opacity:0.02000002;stroke-width:1.11803401" />
<path
   d="m 48,91.888889 c 33.343875,0 45,-11.517778 45,-44.444445 C 93,35.037778 91.340625,25.673333 87.495375,18.816667 H 45.82425 c -0.547875,-0.653334 -1.693125,-2.073333 -3.88125,-4.981111 -1.01475,-1.35 -3.315375,-3.613334 -7.31025,-3.613334 h -18.459 C 6.781125,16.916666 3,28.713334 3,47.444444 3,80.371111 14.660625,91.888889 48,91.888889 Z"
   id="path15"
   inkscape:connector-curvature="0"
   style="fill-opacity:0.05;stroke-width:1.11803401" />
<path
   d="m 48,91.888889 c 33.343875,0 45,-11.517778 45,-44.444445 C 93,35.365555 91.42275,26.177778 87.789,19.372222 H 45.562125 c -0.480375,-0.56 -1.63125,-1.964444 -4.07025,-5.205555 C 40.539,12.901111 38.380125,10.777778 34.63275,10.777778 H 15.427875 C 6.58425,17.561111 3,29.218889 3,47.444444 3,80.371111 14.660625,91.888889 48,91.888889 Z"
   id="path17"
   inkscape:connector-curvature="0"
   style="fill-opacity:0.05;stroke-width:1.11803401" />
<path
   d="m 48,91.888889 c 33.343875,0 45,-11.517778 45,-44.444445 C 93,35.69 91.50375,26.676667 88.07475,19.927777 H 45.3045 c -0.367875,-0.414444 -1.48725,-1.74 -4.26375,-5.429999 -0.889875,-1.181112 -2.90475,-3.165556 -6.406875,-3.165556 h -19.908 C 6.393,18.192222 3,29.707777 3,47.444444 3,80.371111 14.660625,91.888889 48,91.888889 Z"
   id="path19"
   inkscape:connector-curvature="0"
   style="fill-opacity:0.1;stroke-width:1.11803401" />
<linearGradient
   id="SVGID_2_"
   gradientUnits="userSpaceOnUse"
   x1="18.8052"
   y1="-155.8652"
   x2="18.8052"
   y2="-227.8652"
   gradientTransform="matrix(1.125,0,0,-1.1111111,26.84415,-161.29467)">
	<stop
   offset="0"
   style="stop-color:#E6CD49"
   id="stop21" />
	<stop
   offset="1"
   style="stop-color:#E0A714"
   id="stop23" />
</linearGradient>
<path
   d="m 48,91.888889 c 33.343875,0 45,-11.517778 45,-44.444445 C 93,36.013333 91.590375,27.167778 88.3605,20.483333 H 45.055875 c 0,0 -0.826875,-0.816666 -4.467375,-5.654444 -1.07325,-1.425556 -2.977875,-2.94 -5.95575,-2.94 -3.621375,0 -13.426875,0 -20.5605,0 C 6.214125,18.807778 3,30.178889 3,47.444444 3,80.371111 14.660625,91.888889 48,91.888889 Z"
   id="path26"
   style="fill:url(#SVGID_2_);stroke-width:1.11803401"
   inkscape:connector-curvature="0" />
<path
   d="M 34.63275,11.888889 H 14.07225 C 13.663875,12.247778 13.263375,12.615556 12.87975,13 h 21.753 c 2.601,0 5.0715,1.141111 6.370875,2.381112 C 40.8675,15.2 40.733625,15.023333 40.5885,14.83 39.51525,13.403333 37.610625,11.888889 34.63275,11.888889 Z M 88.3605,20.483333 H 45.055875 l 0.905625,1.092223 42.8985,0.01445 c -0.163125,-0.372225 -0.325125,-0.745558 -0.4995,-1.106669 z"
   id="path28"
   inkscape:connector-curvature="0"
   style="fill:#ffffff;fill-opacity:0.5;stroke-width:1.11803401" />
<linearGradient
   id="SVGID_3_"
   gradientUnits="userSpaceOnUse"
   x1="-175.1201"
   y1="-963.959"
   x2="-175.1201"
   y2="-1043.2036"
   gradientTransform="matrix(1.125,0,0,-1.1111111,245.01011,-1067.7846)">
	<stop
   offset="0"
   style="stop-color:#FFFFFF"
   id="stop30" />
	<stop
   offset="1"
   style="stop-color:#FFFFFF;stop-opacity:0"
   id="stop32" />
</linearGradient>
<path
   d="M 48,3 C 14.660625,3 3,14.517778 3,47.444444 c 0,32.926667 11.660625,44.444445 45,44.444445 33.343875,0 45,-11.517778 45,-44.444445 C 93,14.517778 81.341625,3 48,3 Z m 0,87.777778 C 15.19725,90.777778 4.125,79.842222 4.125,47.444444 4.125,15.046667 15.19725,4.1111111 48,4.1111111 c 32.80275,0 43.875,10.9355559 43.875,43.3333329 0,32.397778 -11.07225,43.333334 -43.875,43.333334 z"
   id="path35"
   style="fill:url(#SVGID_3_);fill-opacity:0.15;stroke-width:1.11803401"
   inkscape:connector-curvature="0" />
<linearGradient
   id="SVGID_4_"
   gradientUnits="userSpaceOnUse"
   x1="21.356"
   y1="-176.5811"
   x2="21.356"
   y2="-244.9625"
   gradientTransform="matrix(1.125,0,0,-1.1111111,26.84415,-161.29467)">
	<stop
   offset="0"
   style="stop-color:#D6A214"
   id="stop37" />
	<stop
   offset="0.75"
   style="stop-color:#CE820A"
   id="stop39" />
	<stop
   offset="1"
   style="stop-color:#CE820A"
   id="stop41" />
</linearGradient>
<path
   d="m 47.739,72.768889 c -2.788875,0 -4.762125,1.951111 -4.762125,4.637778 0,2.686666 1.97325,4.772221 4.762125,4.772221 2.79,0 4.694625,-2.082222 4.694625,-4.772221 C 52.4325,74.72 50.529,72.768889 47.739,72.768889 Z m 0.81675,-40.59 c -3.400875,0 -6.804,0.739999 -10.069875,1.68 v 4.906667 c 2.92725,-0.874445 5.918625,-1.614445 8.980875,-1.614445 4.96575,0 8.36775,2.016667 8.36775,7.258889 0,3.563334 -2.448,5.914444 -5.034375,8.467778 -3.60675,3.495556 -6.32925,6.517777 -6.32925,11.557777 v 2.486668 h 6.465375 v -2.083335 c 0,-2.889999 1.495125,-4.568888 4.89825,-8.063332 3.402,-3.495556 7.417125,-7.191112 7.417125,-12.770001 0.0011,-8.869999 -6.66675,-11.826666 -14.695875,-11.826666 z"
   id="path44"
   style="fill:url(#SVGID_4_);fill-opacity:0.9;stroke-width:1.11803401"
   inkscape:connector-curvature="0" />
<path
   d="m 44.472,64.435555 v 0.987778 c 0,-5.037778 2.7225,-8.063333 6.32925,-11.556666 2.586375,-2.554445 5.034375,-4.904445 5.034375,-8.466667 0,-0.174444 -0.0135,-0.335555 -0.02025,-0.502222 C 55.60275,48.19 53.266125,50.442222 50.80125,52.878889 47.1945,56.372222 44.472,59.395555 44.472,64.435555 Z"
   id="path46"
   inkscape:connector-curvature="0"
   style="fill:#1a0900;fill-opacity:0.2;stroke-width:1.11803401" />
<path
   d="m 47.739,72.768889 c -2.788875,0 -4.762125,1.951111 -4.762125,4.637778 0,0.171111 0.02925,0.33111 0.045,0.495555 0.230625,-2.425556 2.104875,-4.143333 4.717125,-4.143333 2.613375,0 4.428,1.72 4.651875,4.143333 0.0135,-0.164445 0.04275,-0.324444 0.04275,-0.495555 C 52.4325,74.72 50.529,72.768889 47.739,72.768889 Z"
   id="path48"
   inkscape:connector-curvature="0"
   style="fill:#1a0900;fill-opacity:0.2;stroke-width:1.11803401" />
<path
   d="m 48.55575,32.178889 c -3.400875,0 -6.804,0.739999 -10.069875,1.68 v 0.987778 c 3.265875,-0.94 6.669,-1.68 10.069875,-1.68 7.8795,0 14.432625,2.861111 14.6745,11.352222 0.0079,-0.171111 0.02363,-0.337777 0.02363,-0.512223 -0.0011,-8.87111 -6.669,-11.827777 -14.698125,-11.827777 z"
   id="path50"
   inkscape:connector-curvature="0"
   style="fill:#1a0900;fill-opacity:0.2;stroke-width:1.11803401" />
<rect
   x="44.471996"
   y="65.935555"
   width="6.4653754"
   height="0.98777777"
   id="rect52"
   style="fill:#ffffff;fill-opacity:0.5;stroke-width:1.11803401" />
<path
   d="m 55.815375,43.907778 c 0.01012,-0.161111 0.02025,-0.321112 0.02025,-0.486667 0,-5.243333 -3.402,-7.258889 -8.36775,-7.258889 -3.063375,0 -6.05475,0.738889 -8.980875,1.613334 v 0.988889 C 41.41425,37.89 44.405625,37.15 47.467875,37.15 c 4.8015,0.0011 8.130375,1.895556 8.3475,6.757778 z"
   id="path54"
   inkscape:connector-curvature="0"
   style="fill:#ffffff;fill-opacity:0.5;stroke-width:1.11803401" />
<path
   d="m 55.83675,55.786667 c -3.403125,3.495555 -4.89825,5.175555 -4.89825,8.064444 V 64.84 c 0,-2.89 1.495125,-4.568889 4.89825,-8.063333 3.402,-3.495556 7.417125,-7.191112 7.417125,-12.770001 0,-0.165555 -0.018,-0.314444 -0.02363,-0.475555 -0.2385,5.291111 -4.09725,8.871111 -7.3935,12.255556 z"
   id="path56"
   inkscape:connector-curvature="0"
   style="fill:#ffffff;fill-opacity:0.5;stroke-width:1.11803401" />
<path
   d="m 47.739,81.191111 c -2.61225,0 -4.4865,-1.836666 -4.717125,-4.277778 -0.01575,0.163334 -0.045,0.322223 -0.045,0.492223 0,2.686667 1.97325,4.772222 4.762125,4.772222 2.79,0 4.694625,-2.082223 4.694625,-4.772222 0,-0.17 -0.02925,-0.327779 -0.04275,-0.492223 -0.225,2.442223 -2.0385,4.277778 -4.651875,4.277778 z"
   id="path58"
   inkscape:connector-curvature="0"
   style="fill:#ffffff;fill-opacity:0.5;stroke-width:1.11803401" />
</svg>