<svg xmlns="http://www.w3.org/2000/svg" xmlns:xlink="http://www.w3.org/1999/xlink" viewBox="0 0 192 192"><defs><style>.cls-1{fill:none;}.cls-2{opacity:0.01;}.cls-2,.cls-3,.cls-4,.cls-5{isolation:isolate;}.cls-3{opacity:0.02;}.cls-4{opacity:0.04;}.cls-5{opacity:0.06;}.cls-6{fill:#787878;}.cls-7{fill:url(#未命名的渐变);}.cls-8{fill:url(#未命名的渐变_2);}.cls-9{fill:url(#未命名的渐变_3);}.cls-10{fill:#777050;}.cls-11{fill:#fff;}.cls-12{opacity:0.2;}</style><linearGradient id="未命名的渐变" x1="166.01" y1="574.01" x2="25.99" y2="433.99" gradientTransform="translate(0 -408)" gradientUnits="userSpaceOnUse"><stop offset="0" stop-opacity="0.12"/><stop offset="0.5" stop-color="gray" stop-opacity="0.05"/><stop offset="1" stop-color="#fff" stop-opacity="0.15"/></linearGradient><linearGradient id="未命名的渐变_2" x1="166.01" y1="574.01" x2="25.99" y2="433.99" gradientTransform="translate(0 -408)" gradientUnits="userSpaceOnUse"><stop offset="0" stop-opacity="0.05"/><stop offset="0.5" stop-color="gray" stop-opacity="0"/><stop offset="1" stop-color="#fff" stop-opacity="0.1"/></linearGradient><linearGradient id="未命名的渐变_3" x1="161.97" y1="57.98" x2="82.98" y2="136.98" gradientTransform="matrix(1, 0, 0, -1, 0, 228)" gradientUnits="userSpaceOnUse"><stop offset="0" stop-opacity="0.04"/><stop offset="1" stop-opacity="0.12"/></linearGradient></defs><title>android_stk2</title><g id="图层_2" data-name="图层 2"><g id="图层_1-2" data-name="图层 1"><g id="图层_2-2" data-name="图层 2"><g id="图层_2-2-2" data-name="图层 2-2"><rect class="cls-1" width="192" height="192"/><path class="cls-2" d="M96,190C27.3,190,3,165.7,3,97S27.3,4,96,4s93,24.3,93,93S164.7,190,96,190Z"/><path class="cls-3" d="M96,189C28.1,189,4,164.9,4,97S28.1,5,96,5s92,24.1,92,92S163.9,189,96,189Z"/><path class="cls-4" d="M96,188C28.8,188,5,164.2,5,97S28.8,6,96,6s91,23.8,91,91S163.2,188,96,188Z"/><path class="cls-5" d="M186,97c0,66.7-23.3,90-90,90S6,163.7,6,97,29.3,7,96,7,186,30.3,186,97Z"/><path class="cls-6" d="M186,96c0,66.7-23.3,90-90,90S6,162.7,6,96,29.3,6,96,6,186,29.3,186,96Z"/><path class="cls-7" d="M186,96c0,66.7-23.3,90-90,90S6,162.7,6,96,29.3,6,96,6,186,29.3,186,96Z"/><path class="cls-8" d="M96,6C29.3,6,6,29.3,6,96s23.3,90,90,90,90-23.3,90-90S162.7,6,96,6Zm68.6,158.6C151.2,178,130,184,96,184s-55.2-6-68.6-19.4S8,130,8,96s6-55.2,19.4-68.6S62,8,96,8s55.2,6,68.6,19.4S184,62,184,96,178,151.2,164.6,164.6Z"/><path class="cls-9" d="M185.4,113.5,131.5,59.6,86,88,58.7,146.7,98,186C157,185.6,181.3,166.2,185.4,113.5Z"/><path class="cls-10" d="M92,88h24a8,8,0,0,1,8,8v32a8,8,0,0,1-8,8H92a8,8,0,0,1-8-8V96A8,8,0,0,1,92,88Z"/><path class="cls-11" d="M135,142.8V68.5a15.06,15.06,0,0,0-3.7-9L117.8,45.8a14.65,14.65,0,0,0-8.9-3.8H62.2A5.25,5.25,0,0,0,57,47.3v95.4a5.25,5.25,0,0,0,5.2,5.3h67.6A5.23,5.23,0,0,0,135,142.8ZM116,136H92a8,8,0,0,1-8-8V96a8,8,0,0,1,8-8h24a8,8,0,0,1,8,8v32A8,8,0,0,1,116,136ZM88,110V98a6,6,0,0,1,6-6h8v18Zm18,0V92h8a6,6,0,0,1,6,6v12Zm0,22V114h14v12a6,6,0,0,1-6,6h-8Zm-12,0a6,6,0,0,1-6-6h0V114h14v18Z"/><g class="cls-12"><path d="M70.2,111.4a6.12,6.12,0,0,1,.5-1.2,3.59,3.59,0,0,1,.7-1,5.5,5.5,0,0,1,.9-.7,2.54,2.54,0,0,1,1.2-.2,3.19,3.19,0,0,1,2.6,1,3.89,3.89,0,0,1,.9,2.9,4.1,4.1,0,0,1-.1,1.1,3.55,3.55,0,0,1-.2,1,6.89,6.89,0,0,1-.3.8,4.88,4.88,0,0,0-.3.7l-1.7-.8a4.18,4.18,0,0,0,.4-1,4.67,4.67,0,0,0,.3-1.7,1.27,1.27,0,0,0-.1-.6.76.76,0,0,0-.2-.5,1.23,1.23,0,0,0-1-.5.6.6,0,0,0-.4.1c-.2.1-.3.1-.4.3s-.3.3-.4.5-.2.5-.3.8l-.3,1a4.77,4.77,0,0,1-1.2,2.2,3.49,3.49,0,0,1-2.2.8,4,4,0,0,1-1.5-.3,3.13,3.13,0,0,1-1.1-.9,3.29,3.29,0,0,1-.7-1.3,4.53,4.53,0,0,1-.3-1.6,7.57,7.57,0,0,1,.1-1.5l.3-1.2a6.89,6.89,0,0,1,.3-.8c.1-.2.1-.3.2-.4l1.8.8c-.1.2-.2.3-.2.5s-.2.5-.3.7a2.92,2.92,0,0,0-.2.9,3.4,3.4,0,0,0-.1,1,1.27,1.27,0,0,0,.1.6.86.86,0,0,0,.3.6c.1.2.3.3.4.4a1.42,1.42,0,0,0,.6.2.6.6,0,0,0,.4-.1.52.52,0,0,0,.4-.2,1,1,0,0,0,.4-.5,6.89,6.89,0,0,0,.3-.8Z"/><path d="M65.3,120.7v-2.3H76.8v2.3Z"/><path d="M76.7,134H65.3v-2.2H73l-5-2.5v-1.7l4.8-2.4H65.2V123H76.7v2.4l-6.3,3,6.3,3Z"/></g></g></g></g></g></svg>