<?xml version="1.0" encoding="UTF-8" standalone="no"?>
<svg
   xmlns:dc="http://purl.org/dc/elements/1.1/"
   xmlns:cc="http://creativecommons.org/ns#"
   xmlns:rdf="http://www.w3.org/1999/02/22-rdf-syntax-ns#"
   xmlns:svg="http://www.w3.org/2000/svg"
   xmlns="http://www.w3.org/2000/svg"
   xmlns:sodipodi="http://sodipodi.sourceforge.net/DTD/sodipodi-0.dtd"
   xmlns:inkscape="http://www.inkscape.org/namespaces/inkscape"
   height="96px"
   version="1.1"
   viewBox="0 0 96 96"
   width="96px"
   x="0px"
   y="0px"
   id="svg52"
   sodipodi:docname="icon-launcher-folder-09.svg"
   inkscape:version="0.92.2 2405546, 2018-03-11">
  <metadata
     id="metadata58">
    <rdf:RDF>
      <cc:Work
         rdf:about="">
        <dc:format>image/svg+xml</dc:format>
        <dc:type
           rdf:resource="http://purl.org/dc/dcmitype/StillImage" />
      </cc:Work>
    </rdf:RDF>
  </metadata>
  <defs
     id="defs56" />
  <sodipodi:namedview
     pagecolor="#ffffff"
     bordercolor="#666666"
     borderopacity="1"
     objecttolerance="10"
     gridtolerance="10"
     guidetolerance="10"
     inkscape:pageopacity="0"
     inkscape:pageshadow="2"
     inkscape:window-width="1366"
     inkscape:window-height="717"
     id="namedview54"
     showgrid="false"
     inkscape:zoom="2.4583333"
     inkscape:cx="48"
     inkscape:cy="48"
     inkscape:window-x="0"
     inkscape:window-y="25"
     inkscape:window-maximized="1"
     inkscape:current-layer="svg52" />
  <path
     d="M 96,48.592593 C 96,83.715556 83.5668,96 48,96 12.438,96 0,83.715556 0,48.592593 0,13.472 12.438,1.1851852 48,1.1851852 c 35.5644,0 48,12.2868148 48,47.4074078 z"
     id="path2"
     inkscape:connector-curvature="0"
     style="fill-opacity:0.4;stroke-width:1.19256961" />
  <rect
     fill="none"
     height="96"
     width="96"
     id="rect4" />
  <linearGradient
     gradientUnits="userSpaceOnUse"
     id="SVGID_1_"
     x1="47.9995"
     x2="47.9995"
     y1="8"
     y2="24"
     gradientTransform="matrix(1.2,0,0,1.1851852,-9.6,-9.481481)">
    <stop
       offset="0"
       style="stop-color:#E4BE34"
       id="stop6" />
    <stop
       offset="1"
       style="stop-color:#E0AA18"
       id="stop8" />
  </linearGradient>
  <path
     d="M 91.2048,18.962963 C 84.7836,5.3214815 71.3988,0 48,0 24.6024,0 11.2176,5.3214815 4.7952,18.962963 Z"
     id="path11"
     style="fill:url(#SVGID_1_);stroke-width:1.19256961"
     inkscape:connector-curvature="0" />
  <path
     d="m 48,94.814815 c 35.5668,0 48,-12.28563 48,-47.407408 C 96,33.806222 94.1244,23.643259 89.7732,16.278518 H 45.9636 c -0.6648,-0.80474 -1.8612,-2.30874 -3.942,-5.074962 C 40.872,9.6758519 38.2668,7.1111111 33.7416,7.1111111 H 14.922 C 4.2684,14.139259 0,26.861037 0,47.407407 0,82.529185 12.438,94.814815 48,94.814815 Z"
     id="path13"
     inkscape:connector-curvature="0"
     style="fill-opacity:0.02000002;stroke-width:1.19256961" />
  <path
     d="m 48,94.814815 c 35.5668,0 48,-12.28563 48,-47.407408 C 96,34.17363 94.2312,24.184889 90.1284,16.871111 H 45.6792 c -0.5844,-0.696889 -1.806,-2.211555 -4.14,-5.313185 -1.0824,-1.44 -3.5364,-3.8542223 -7.7976,-3.8542223 H 14.052 C 4.0332,14.844444 0,27.427556 0,47.407407 0,82.529185 12.438,94.814815 48,94.814815 Z"
     id="path15"
     inkscape:connector-curvature="0"
     style="fill-opacity:0.02000002;stroke-width:1.19256961" />
  <path
     d="m 48,94.814815 c 35.5668,0 48,-12.28563 48,-47.407408 C 96,34.523259 94.3176,24.722963 90.4416,17.463704 H 45.3996 C 44.8872,16.86637 43.6596,15.368296 41.058,11.911111 40.0416,10.561185 37.7388,8.2962963 33.7416,8.2962963 H 13.2564 C 3.8232,15.531852 0,27.966815 0,47.407407 0,82.529185 12.438,94.814815 48,94.814815 Z"
     id="path17"
     inkscape:connector-curvature="0"
     style="fill-opacity:0.05;stroke-width:1.19256961" />
  <path
     d="m 48,94.814815 c 35.5668,0 48,-12.28563 48,-47.407408 C 96,34.869333 94.404,25.255111 90.7464,18.056296 H 45.1248 c -0.3924,-0.442074 -1.5864,-1.856 -4.548,-5.792 -0.9492,-1.259852 -3.0984,-3.3765923 -6.834,-3.3765923 H 12.5076 C 3.6192,16.205037 0,28.488296 0,47.407407 0,82.529185 12.438,94.814815 48,94.814815 Z"
     id="path19"
     inkscape:connector-curvature="0"
     style="fill-opacity:0.05;stroke-width:1.19256961" />
  <linearGradient
     gradientUnits="userSpaceOnUse"
     id="SVGID_2_"
     x1="47.9995"
     x2="47.9995"
     y1="16"
     y2="88.0005"
     gradientTransform="matrix(1.2,0,0,1.1851852,-9.6,-9.481481)">
    <stop
       offset="0"
       style="stop-color:#E6CD49"
       id="stop21" />
    <stop
       offset="1"
       style="stop-color:#E0A714"
       id="stop23" />
  </linearGradient>
  <path
     d="m 48,94.814815 c 35.5668,0 48,-12.28563 48,-47.407408 C 96,35.214222 94.4964,25.778963 91.0512,18.648889 H 44.8596 c 0,0 -0.882,-0.871111 -4.7652,-6.031407 -1.1448,-1.520593 -3.1764,-3.1360005 -6.3528,-3.1360005 -3.8628,0 -14.322,0 -21.9312,0 C 3.4284,16.86163 0,28.990815 0,47.407407 0,82.529185 12.438,94.814815 48,94.814815 Z"
     id="path26"
     style="fill:url(#SVGID_2_);stroke-width:1.19256961"
     inkscape:connector-curvature="0" />
  <path
     d="M 33.7416,9.4814815 H 11.8104 c -0.4356,0.3828148 -0.8628,0.7751115 -1.272,1.1851855 h 23.2032 c 2.7744,0 5.4096,1.217185 6.7956,2.539852 -0.1452,-0.193186 -0.288,-0.38163 -0.4428,-0.587852 C 38.9496,11.096889 36.918,9.4814815 33.7416,9.4814815 Z M 91.0512,18.648889 H 44.8596 l 0.966,1.165037 45.7596,0.01541 c -0.1752,-0.397037 -0.348,-0.795259 -0.534,-1.180444 z"
     id="path28"
     inkscape:connector-curvature="0"
     style="fill:#ffffff;fill-opacity:0.5;stroke-width:1.19256961" />
  <linearGradient
     gradientTransform="matrix(1.2,0,0,1.1851852,223.11036,-976.40392)"
     gradientUnits="userSpaceOnUse"
     id="SVGID_3_"
     x1="-145.9253"
     x2="-145.9253"
     y1="824.0938"
     y2="903.3385">
    <stop
       offset="0"
       style="stop-color:#FFFFFF"
       id="stop30" />
    <stop
       offset="1"
       style="stop-color:#FFFFFF;stop-opacity:0"
       id="stop32" />
  </linearGradient>
  <path
     d="M 48,0 C 12.438,0 0,12.28563 0,47.407407 c 0,35.121778 12.438,47.407408 48,47.407408 35.5668,0 48,-12.28563 48,-47.407408 C 96,12.28563 83.5644,0 48,0 Z m 0,93.62963 C 13.0104,93.62963 1.2,81.965037 1.2,47.407407 1.2,12.849778 13.0104,1.1851852 48,1.1851852 c 34.9896,0 46.8,11.6645928 46.8,46.2222218 0,34.55763 -11.8104,46.222223 -46.8,46.222223 z"
     id="path35"
     style="fill:url(#SVGID_3_);fill-opacity:0.15;stroke-width:1.19256961"
     inkscape:connector-curvature="0" />
  <linearGradient
     gradientUnits="userSpaceOnUse"
     id="SVGID_4_"
     x1="47.9995"
     x2="47.9995"
     y1="33"
     y2="77.0005"
     gradientTransform="matrix(1.2,0,0,1.1851852,-9.6,-9.481481)">
    <stop
       offset="0"
       style="stop-color:#D6A214"
       id="stop37" />
    <stop
       offset="0.75"
       style="stop-color:#CE820A"
       id="stop39" />
    <stop
       offset="1"
       style="stop-color:#CE820A"
       id="stop41" />
  </linearGradient>
  <path
     d="m 48,29.62963 c -14.58,0 -26.4,11.672889 -26.4,26.068148 0,14.407111 11.82,26.08 26.4,26.08 14.5824,0 26.4,-11.672889 26.4,-26.08 C 74.4,41.302519 62.5824,29.62963 48,29.62963 Z m 23.3172,21.169777 0.2064,0.205037 c 0.0924,0.449186 0.1464,0.910223 0.2124,1.366519 l -1.0032,-0.992 z M 26.31,62.147556 25.8024,62.65363 v 2.031407 c -0.7764,-1.866667 -1.3068,-3.854222 -1.578,-5.92237 l 1.3032,1.28474 H 26.31 Z m 4.1352,9.664 C 29.712,71.032889 29.0268,70.21037 28.404,69.340444 h 0.6888 l 1.3524,1.334519 z M 66.606,49.456593 65.6424,50.407111 H 62.4168 V 49.581037 H 58.44 v -1.239704 h -5.568 l -3.6012,3.556741 v 6.49363 l 2.5536,2.523259 h 6.156 v 2.729481 l 1.5504,1.530075 v 10.17837 l 0.7116,0.70163 c -3.5892,2.11437 -7.7676,3.352888 -12.2424,3.352888 -4.326,0 -8.3784,-1.15437 -11.8884,-3.14074 L 37.29,75.102815 v -1.860741 l 1.7172,-1.696 h 0.9024 v -3.744 L 41.814,65.92 v -1.801481 h -2.7024 l -0.9,-0.887704 v -0.874667 h -2.172 l -3.774,-3.728592 H 27.9 l -0.7008,0.693333 H 25.584 L 24.6864,58.432 V 56.282074 H 24.03 C 24.0252,56.085333 24,55.894519 24,55.697778 c 0,-1.761185 0.2112,-3.472593 0.5808,-5.124741 h 0.9816 l 0.5064,0.497778 v 1.198222 h 0.54 v -2.273185 l 1.5924,-1.572741 h 1.0476 l 3.1428,-3.105185 h 1.8396 l 0.5064,-0.493037 v -1.572741 h -0.5472 v -0.408889 h 2.6004 L 37.47,42.17837 v -0.466963 l -0.7872,-0.776296 v -2.130963 l -0.8592,0.848593 H 34.9452 V 38.453333 H 33.648 l -0.9624,0.952889 H 32.16 v 1.551408 l -1.404,1.386666 V 41.063111 H 29.628 V 40.48 c 1.656,-1.947259 3.6312,-3.610074 5.832,-4.949333 l 0.8016,0.794074 -0.396,0.389926 H 34.902 v 0.540444 l 1.134,1.115259 h 0.75 l 0.6732,-0.662518 V 36.983704 H 38.61 l 0.4824,-0.478815 -1.9416,-1.91763 c 0.744,-0.373333 1.5108,-0.707555 2.2956,-1.005037 v 0.302222 h 2.3856 v 1.674667 h 1.1952 l -0.69,0.682667 h -0.816 v 2.869333 h 1.3296 l 1.4964,-1.47437 h 1.032 l 2.5488,-2.512593 h 0.9384 l 2.8488,-2.808889 c 3.144,0.485926 6.0804,1.570371 8.6976,3.140741 h -0.7176 l -3.048,3.006815 v 1.398518 h 1.5768 l 0.816,0.802371 h 0.8208 l 0.5556,-0.544 v -2.161778 l 1.0404,-1.027556 h 0.7056 l -1.1904,1.174519 v 0.926815 h 1.6956 v 0.459852 l -1.782,1.755259 c 0,0 -2.5032,0.09363 -2.4072,0 0.0936,-0.096 -0.3312,-0.63763 -0.3312,-0.63763 h -0.882 l -2.28,2.249482 h -1.4856 v 0.682666 h 0.7092 v 1.901037 h -2.178 v 2.068149 l 0.4824,0.477629 h 1.4016 l 2.0016,-1.976889 v -0.734815 h 1.98 l 1.716,1.696 0.7116,-0.701629 -1.59,-1.571556 h 1.0032 l 1.362,1.342815 v 0.808296 h 1.488 v -0.539259 h 0.6264 l 1.8204,1.797926 h 1.572 z m -2.0508,-3.145482 -0.6096,-0.596148 0.0204,-0.558222 0.9,-0.892445 h 2.1612 l 1.4748,1.458963 v 0.586667 h -3.9468 z m 4.0836,21.425778 v -3.349333 l 2.4912,-2.45926 c -0.5688,2.062223 -1.4112,4.009482 -2.4912,5.808593 z m 1.1904,-9.46963 -3.0756,-3.041185 v -3.864889 h 0.8592 v 3.595852 L 69.9972,57.312 H 71.67 l 0.2592,-0.256 c -0.024,0.404148 -0.0324,0.811852 -0.0768,1.210074 H 69.8292 Z M 52.9656,41.829926 V 41.504 l 0.2148,-0.214519 v -0.510814 h -0.4836 l -0.4512,0.369777 v 0.331852 l -0.3828,0.382815 V 42.272 h 0.6564 z m 1.068,-0.308148 h -0.2028 l -0.4248,0.419555 v 0.461037 h 1.4652 l 0.4044,-0.399407 v -0.442074 l -1.0728,-1.05837 0.2808,-0.280889 v -0.331852 h -0.726 l 0.3588,-0.350815 h -0.5292 l -0.3492,0.321185 v 0.547556 l 0.7956,0.784592 z"
     id="path44"
     style="fill:url(#SVGID_4_);fill-opacity:0.9;stroke-width:1.19256961;stroke-opacity:0.9"
     inkscape:connector-curvature="0" />
  <path
     d="M 55.188,42.659556 54.9,42.375111 54.8724,42.40237 h -0.8376 v 0.304593 H 53.832 l -0.1524,0.151704 h 1.308 z m 3.8556,-1.995852 -0.816,-0.802371 h -1.5768 v 1.185186 h 0.174 l 0.4428,-0.437334 h 0.882 c 0,0 0.4248,0.54163 0.3312,0.63763 -0.0708,0.06874 1.2204,0.03674 1.938,0.01541 v -1.142518 l -0.5556,0.544 z m -5.4708,0.07467 -0.3336,0.308149 v 0.547555 l 0.2604,0.257185 0.3324,-0.328296 h 0.2028 v -0.328296 l -0.12,-0.118519 h -0.156 l 0.078,-0.07585 z m 0.6372,2.802963 h -0.7092 v -0.507259 l -0.0936,0.09245 v 0.461037 H 54.21 Z m -1.2444,-0.526222 v -0.325926 l 0.2148,-0.214518 V 41.963852 H 52.83 L 52.518,42.272 H 52.32 l -0.0756,0.06163 v 0.331851 l -0.3828,0.382815 v 0.408889 h 0.6564 z m -11.442,-3.904 V 40.2963 h 1.3296 l 1.4964,-1.47437 h 1.032 l 2.5488,-2.512593 h 0.9384 l 2.8488,-2.808889 c 2.6616,0.412445 5.16,1.272889 7.4556,2.474667 L 59.6988,35.456 h 0.7176 C 57.7992,33.88563 54.8628,32.801185 51.7188,32.315259 L 48.87,35.124148 h -0.9384 l -2.5488,2.512593 h -1.032 l -1.4976,1.47437 z M 39.9096,68.986074 41.814,67.104 v -1.185185 l -1.9044,1.882074 z M 54.21,44.726519 v -0.682667 h -0.7092 v 0.682667 z m 10.656,0.724148 h 2.1612 l 0.87,0.861629 H 68.502 V 45.724444 L 67.0272,44.265481 H 64.866 l -0.9,0.892445 -0.0204,0.558222 0.3276,0.321185 z M 41.8332,36.241778 h 0.5052 l 0.69,-0.682667 H 41.8332 Z M 36.894,76.677926 37.29,76.286815 V 75.10163 l -1.1784,1.163851 c 0.2568,0.145778 0.5208,0.276149 0.7824,0.412445 z m -8.49,-7.337482 c 0.624,0.869926 1.308,1.692445 2.0412,2.471112 V 70.674963 L 29.0928,69.340444 Z M 60.9756,38.103704 62.166,36.929185 H 61.4604 L 60.42,37.956741 v 1.185185 l 0.5556,-0.548741 z m -21.528,-3.336297 v 0.302223 h 2.3856 v -1.185186 h -2.3856 v -0.302222 c -0.7848,0.297482 -1.5516,0.630519 -2.2956,1.005037 l 0.8304,0.820148 c 0.486,-0.220444 0.9648,-0.45037 1.4652,-0.64 z M 24.5808,51.758222 h 0.9816 L 26.0688,52.256 V 51.070815 L 25.5624,50.573037 H 24.5808 C 24.2112,52.225185 24,53.936593 24,55.697778 c 0,0.144592 0.0132,0.285629 0.0228,0.427852 0.0516,-1.493334 0.2424,-2.953482 0.558,-4.367408 z M 34.9032,37.084444 v -0.370963 h 0.9636 l 0.396,-0.389925 -0.8016,-0.794075 c -2.2008,1.33926 -4.176,3.002075 -5.832,4.949334 v 0.583111 h 0.5568 c 1.3896,-1.520593 2.9748,-2.852741 4.7172,-3.977482 z m 24.6264,38.26726 v 1.09037 c 0.2376,-0.129185 0.4788,-0.252444 0.7116,-0.388741 z M 62.5872,46.85037 h -1.488 v -0.808296 l -1.362,-1.342815 H 58.734 l 1.59,1.571556 -0.0972,0.096 0.8724,0.860444 v 0.808297 h 1.488 v -0.53926 h 0.6264 l 1.8204,1.797926 h 1.572 v -1.185185 h -1.572 l -1.8204,-1.797926 h -0.6264 z m 5.0268,4.510815 h -0.8592 v 1.185185 h 0.8592 z m 1.0248,14.211556 1.9296,-1.904593 c 0.2076,-0.570074 0.3984,-1.149629 0.5616,-1.739852 l -2.4912,2.45926 z M 35.5584,37.899852 h -0.6552 v 0.540444 l 0.0144,0.01422 h 0.0288 v 0.02844 l 1.0344,1.016889 0.7032,-0.695704 v 0.751408 h 0.1032 l 0.6732,-0.662519 v -0.724148 h 1.1508 l 0.4824,-0.478815 -0.7152,-0.70637 h -0.9192 v 0.724148 L 36.786,38.37037 h -0.75 z m 25.4172,1.389037 v 0.926815 h 0.9588 L 62.6712,39.49037 V 39.030519 H 61.236 Z M 74.3844,56.29037 C 74.0652,70.423704 62.3808,81.777778 48,81.777778 33.6216,81.777778 21.9348,70.423704 21.6156,56.29037 21.6108,56.488296 21.6,56.683852 21.6,56.882963 c 0,14.407111 11.82,26.08 26.4,26.08 14.5824,0 26.4,-11.672889 26.4,-26.08 0,-0.199111 -0.0108,-0.394667 -0.0156,-0.592593 z m -6.7704,-0.215703 2.2164,2.192592 h 2.0232 c 0.0444,-0.399407 0.054,-0.807111 0.0768,-1.210074 l -0.2592,0.256 H 69.9984 L 67.614,54.958222 Z m 3.9096,-5.070223 -0.2064,-0.205037 -0.5844,0.579556 1.0032,0.992 C 71.67,51.914667 71.616,51.45363 71.5236,51.004444 Z m -47.2992,7.757037 c 0.0624,0.476445 0.1416,0.946963 0.2316,1.413926 l 1.0716,1.056 H 26.31 v -0.725333 h -0.726 l -0.8976,-0.888889 v -0.399407 z m 5.0256,-9.15437 3.1428,-3.105185 h 1.8396 l 0.5064,-0.493037 v -1.185185 l -0.5064,0.493037 H 32.3928 L 29.25,48.421926 H 28.2024 L 26.61,49.994667 v 1.185185 l 1.5924,-1.572741 z m -2.64,2.661926 h -0.54 v 1.185185 h 0.54 z m 10.8624,-9.372444 -0.366,-0.361482 -0.3144,0.306963 h -2.6004 v 0.408889 h 0.5472 v 0.776296 h 2.0532 l 0.6792,-0.664889 v -0.465777 z m 2.4372,29.833481 v -1.185185 h -0.9024 l -1.7172,1.696 v 1.185185 l 1.7172,-1.696 z m 19.62,-7.556741 -1.5504,-1.530074 v 1.185185 l 1.5504,1.530075 z m 0.1956,-18.309926 -0.1116,0.110223 -1.716,-1.696 h -1.98 v 0.734814 L 53.916,47.989333 H 52.5144 L 52.032,47.511704 v 1.185185 l 0.2388,0.237037 0.6012,-0.593778 h 1.8888 l 1.1568,-1.142518 v -0.734815 h 1.98 l 1.716,1.696 0.7116,-0.70163 z m -1.746,14.050371 h -6.156 l -2.5536,-2.523259 v 1.185185 l 2.5536,2.523259 h 6.156 z"
     id="path46"
     inkscape:connector-curvature="0"
     style="fill:#ffffff;fill-opacity:0.5;stroke-width:1.19256961" />
  <path
     d="M 25.8024,63.83763 26.31,63.331556 V 62.14637 l -0.5076,0.506074 z m 12.4092,0.57837 0.9,0.887704 h 2.7024 v -1.185185 h -2.7024 l -0.9,-0.887704 v -0.874667 h -2.172 l -3.774,-3.728592 H 27.9 l -0.7008,0.693333 H 25.584 L 24.6864,58.432 v 0.785778 l 0.84,0.828444 h 0.7824 v 0.459852 h 0.8892 l 0.7008,-0.693333 h 4.3668 l 3.774,3.728592 h 2.172 z M 24.2244,59.946667 c 0.2724,2.068148 0.8016,4.055703 1.578,5.92237 V 64.683852 C 25.2048,63.246222 24.756,61.737481 24.456,60.175407 Z M 34.9032,37.084444 v 0.170667 l 0.6552,0.644741 h 0.3084 l 0.396,-0.389926 -0.8016,-0.794074 c -0.1908,0.114963 -0.3708,0.247704 -0.558,0.368592 z m 1.0776,2.415408 -0.156,0.152889 h -0.8784 v 1.185185 h 0.8784 l 0.8592,-0.848593 v -0.433777 h -0.6468 z m -1.242,4.936296 v -0.408889 h -0.5472 v 0.408889 z m 1.9452,-2.315852 0.4224,0.416 0.366,-0.357926 v -0.466963 l -0.7872,-0.776296 v 1.185185 z m 31.9548,25.616593 v 1.185185 c 1.0788,-1.800296 1.9224,-3.74637 2.4912,-5.808593 l -0.5616,0.554667 c -0.516,1.422222 -1.1592,2.784 -1.9296,4.068741 z M 30.7572,43.529481 32.1612,42.142815 V 40.95763 l -1.404,1.386666 z M 48,29.62963 c -14.58,0 -26.4,11.672889 -26.4,26.068148 0,0.199111 0.0108,0.394666 0.0156,0.592592 C 21.9348,42.168889 33.6216,30.814815 48,30.814815 c 14.3808,0 26.0652,11.354074 26.3844,25.475555 C 74.3892,56.092444 74.4,55.896889 74.4,55.697778 74.4,41.302519 62.5824,29.62963 48,29.62963 Z m -19.596,40.896 c 0.624,0.869926 1.308,1.692444 2.0412,2.471111 V 71.860148 L 29.0928,70.52563 Z m 43.1196,-18.336 -0.2064,-0.205037 -0.5844,0.579555 1.0032,0.992 C 71.67,53.099852 71.616,52.638815 71.5236,52.18963 Z m -11.994,24.252444 c -3.426,1.871407 -7.3452,2.965333 -11.5296,2.965333 -4.0104,0 -7.7796,-1.001481 -11.106,-2.729481 l -0.7824,0.772741 c 3.51,1.987555 7.5624,3.141926 11.8884,3.141926 4.4748,0 8.6532,-1.238519 12.2412,-3.354074 l -0.7116,-0.70163 z M 68.5008,46.90963 67.896,46.311111 h -3.3408 l -0.2808,-0.273778 -0.3084,0.305778 -0.0204,0.558222 0.6096,0.596148 h 3.9456 z M 62.418,50.405926 V 49.579852 H 58.44 v 1.185185 h 3.9768 v 0.826074 h 3.2256 l 0.9636,-0.950518 v -1.185186 l -0.9636,0.950519 z m 7.5804,8.091259 -2.3844,-2.354963 v -0.06755 l -0.8592,-0.849778 v 1.185185 l 3.0756,3.041185 h 2.0232 c 0.0444,-0.399407 0.054,-0.807111 0.0768,-1.210074 l -0.2592,0.256 z M 59.7252,46.863407 60.228,46.368 59.7384,45.88563 h -1.0032 z m -7.4808,-5.714963 v 0.331852 l -0.3828,0.382815 V 42.272 H 52.32 l 0.3756,-0.308148 h 0.1332 l 0.1356,-0.133926 V 41.504 l 0.2148,-0.214519 v -0.510814 h -0.4836 z m 9.216,-3.034074 -0.4848,0.478815 v 0.437334 h 0.2616 L 62.166,38.11437 Z M 29.628,41.664 v 0.583111 h 1.128 V 41.061926 H 30.1836 C 30,41.263407 29.8056,41.456593 29.628,41.664 Z M 24.6864,56.280889 H 24.03 C 24.0288,56.228741 24.0252,56.177778 24.0216,56.12563 24.0144,56.378074 24,56.628148 24,56.882963 c 0,0.196741 0.0252,0.387556 0.03,0.583111 h 0.6564 z m 13.9248,-19.297185 0.4824,-0.478815 -1.1112,-1.097482 c -0.2748,0.124445 -0.5616,0.228741 -0.8304,0.365037 l 1.2264,1.21126 z m 13.4196,9.645037 h 2.178 v -1.185185 h -2.178 z m 1.6476,-3.770074 h -0.1776 v 0.175407 z m 6.738,-6.217482 C 60.0144,36.400593 59.5908,36.192 59.1744,35.973926 l -2.5236,2.488889 V 39.648 l 3.048,-3.006815 z M 41.5236,36.241778 v 1.185185 h 0.816 l 0.69,-0.682667 h -1.1952 v -0.502518 z m 13.752,6.504296 v 0.442074 l -0.4044,0.399408 h -0.6624 v 0.456296 h 0.7764 l 2.28,-2.249482 h 0.882 c 0,0 0.4248,0.54163 0.3312,0.63763 -0.096,0.09363 2.4072,0 2.4072,0 l 1.782,-1.755259 v -0.459852 h -0.7368 l -1.0452,1.029926 c 0,0 -0.1968,0.0071 -0.4692,0.01541 v 0.04267 l -0.5556,0.544 H 59.04 l -0.816,-0.80237 H 56.82 l -1.6356,1.613037 z m -22.59,-3.339852 H 32.16 v 1.185185 h 0.5256 l 0.9624,-0.952888 h 1.2984 v -1.155556 l -0.0288,-0.02844 H 33.648 Z m 21.348,2.972445 -0.5352,-0.527408 -0.0912,0.09126 v 0.461037 h 0.6264 z m -0.4464,-2.839704 -0.3492,0.321185 v 0.547556 l 0.3336,0.329481 0.0156,-0.01422 h 0.5292 l -0.2796,0.273778 0.0768,0.07585 h 0.5712 v 0.331851 l -0.2808,0.280889 0.696,0.686223 0.3756,-0.370963 v -0.442074 l -1.0728,-1.058371 0.2808,-0.280889 v -0.331852 h -0.726 l 0.3588,-0.350814 h -0.5292 z m -4.3164,13.543111 3.6012,-3.556741 h 5.568 v -1.185185 h -3.6792 l -0.8448,0.834371 h -1.4016 l -0.2436,-0.240593 -3,2.962963 z"
     id="path48"
     inkscape:connector-curvature="0"
     style="fill:#1a0900;fill-opacity:0.2;stroke-width:1.19256961" />
  <path
     d="m 48,29.62963 c -14.58,0 -26.4,11.674074 -26.4,26.074074 0,14.4 11.82,26.074074 26.4,26.074074 14.58,0 26.4,-11.674074 26.4,-26.074074 0,-14.4 -11.82,-26.074074 -26.4,-26.074074 z m 0,51.555555 c -14.226,0 -25.8,-11.431111 -25.8,-25.481481 0,-14.050371 11.574,-25.481482 25.8,-25.481482 14.226,0 25.8,11.431111 25.8,25.481482 0,14.05037 -11.574,25.481481 -25.8,25.481481 z"
     id="path50"
     inkscape:connector-curvature="0"
     style="fill:#1a0900;fill-opacity:0.1;stroke-width:1.19256961" />
</svg>
