<?xml version="1.0" encoding="UTF-8" standalone="no"?>
<svg
   xmlns:dc="http://purl.org/dc/elements/1.1/"
   xmlns:cc="http://creativecommons.org/ns#"
   xmlns:rdf="http://www.w3.org/1999/02/22-rdf-syntax-ns#"
   xmlns:svg="http://www.w3.org/2000/svg"
   xmlns="http://www.w3.org/2000/svg"
   xmlns:sodipodi="http://sodipodi.sourceforge.net/DTD/sodipodi-0.dtd"
   xmlns:inkscape="http://www.inkscape.org/namespaces/inkscape"
   height="96px"
   version="1.1"
   viewBox="0 0 96 96"
   width="96px"
   x="0px"
   y="0px"
   id="svg52"
   sodipodi:docname="icon-launcher-folder-15.svg"
   inkscape:version="0.92.2 2405546, 2018-03-11">
  <metadata
     id="metadata58">
    <rdf:RDF>
      <cc:Work
         rdf:about="">
        <dc:format>image/svg+xml</dc:format>
        <dc:type
           rdf:resource="http://purl.org/dc/dcmitype/StillImage" />
      </cc:Work>
    </rdf:RDF>
  </metadata>
  <defs
     id="defs56" />
  <sodipodi:namedview
     pagecolor="#ffffff"
     bordercolor="#666666"
     borderopacity="1"
     objecttolerance="10"
     gridtolerance="10"
     guidetolerance="10"
     inkscape:pageopacity="0"
     inkscape:pageshadow="2"
     inkscape:window-width="1366"
     inkscape:window-height="717"
     id="namedview54"
     showgrid="false"
     inkscape:zoom="2.4583333"
     inkscape:cx="48"
     inkscape:cy="47.186441"
     inkscape:window-x="0"
     inkscape:window-y="25"
     inkscape:window-maximized="1"
     inkscape:current-layer="svg52" />
  <path
     d="M 96,48.592593 C 96,83.715556 83.5668,96 48,96 12.438,96 0,83.715556 0,48.592593 0,13.472 12.438,1.1851852 48,1.1851852 c 35.5644,0 48,12.2868148 48,47.4074078 z"
     id="path2"
     inkscape:connector-curvature="0"
     style="fill-opacity:0.4;stroke-width:1.19256961" />
  <rect
     fill="none"
     height="96"
     width="96"
     id="rect4" />
  <linearGradient
     gradientUnits="userSpaceOnUse"
     id="SVGID_1_"
     x1="47.9995"
     x2="47.9995"
     y1="8"
     y2="24"
     gradientTransform="matrix(1.2,0,0,1.1851852,-9.6,-9.481481)">
    <stop
       offset="0"
       style="stop-color:#E4BE34"
       id="stop6" />
    <stop
       offset="1"
       style="stop-color:#E0AA18"
       id="stop8" />
  </linearGradient>
  <path
     d="M 91.2048,18.962963 C 84.7836,5.3214815 71.3988,0 48,0 24.6024,0 11.2176,5.3214815 4.7952,18.962963 Z"
     id="path11"
     style="fill:url(#SVGID_1_);stroke-width:1.19256961"
     inkscape:connector-curvature="0" />
  <path
     d="m 48,94.814815 c 35.5668,0 48,-12.28563 48,-47.407408 C 96,33.806222 94.1244,23.643259 89.7732,16.278518 H 45.9636 c -0.6648,-0.80474 -1.8612,-2.30874 -3.942,-5.074962 C 40.872,9.6758519 38.2668,7.1111111 33.7416,7.1111111 H 14.922 C 4.2684,14.139259 0,26.861037 0,47.407407 0,82.529185 12.438,94.814815 48,94.814815 Z"
     id="path13"
     inkscape:connector-curvature="0"
     style="fill-opacity:0.02000002;stroke-width:1.19256961" />
  <path
     d="m 48,94.814815 c 35.5668,0 48,-12.28563 48,-47.407408 C 96,34.17363 94.2312,24.184889 90.1284,16.871111 H 45.6792 c -0.5844,-0.696889 -1.806,-2.211555 -4.14,-5.313185 -1.0824,-1.44 -3.5364,-3.8542223 -7.7976,-3.8542223 H 14.052 C 4.0332,14.844444 0,27.427556 0,47.407407 0,82.529185 12.438,94.814815 48,94.814815 Z"
     id="path15"
     inkscape:connector-curvature="0"
     style="fill-opacity:0.02000002;stroke-width:1.19256961" />
  <path
     d="m 48,94.814815 c 35.5668,0 48,-12.28563 48,-47.407408 C 96,34.523259 94.3176,24.722963 90.4416,17.463704 H 45.3996 C 44.8872,16.86637 43.6596,15.368296 41.058,11.911111 40.0416,10.561185 37.7388,8.2962963 33.7416,8.2962963 H 13.2564 C 3.8232,15.531852 0,27.966815 0,47.407407 0,82.529185 12.438,94.814815 48,94.814815 Z"
     id="path17"
     inkscape:connector-curvature="0"
     style="fill-opacity:0.05;stroke-width:1.19256961" />
  <path
     d="m 48,94.814815 c 35.5668,0 48,-12.28563 48,-47.407408 C 96,34.869333 94.404,25.255111 90.7464,18.056296 H 45.1248 c -0.3924,-0.442074 -1.5864,-1.856 -4.548,-5.792 -0.9492,-1.259852 -3.0984,-3.3765923 -6.834,-3.3765923 H 12.5076 C 3.6192,16.205037 0,28.488296 0,47.407407 0,82.529185 12.438,94.814815 48,94.814815 Z"
     id="path19"
     inkscape:connector-curvature="0"
     style="fill-opacity:0.05;stroke-width:1.19256961" />
  <linearGradient
     gradientUnits="userSpaceOnUse"
     id="SVGID_2_"
     x1="47.9995"
     x2="47.9995"
     y1="16"
     y2="88.0005"
     gradientTransform="matrix(1.2,0,0,1.1851852,-9.6,-9.481481)">
    <stop
       offset="0"
       style="stop-color:#E6CD49"
       id="stop21" />
    <stop
       offset="1"
       style="stop-color:#E0A714"
       id="stop23" />
  </linearGradient>
  <path
     d="m 48,94.814815 c 35.5668,0 48,-12.28563 48,-47.407408 C 96,35.214222 94.4964,25.778963 91.0512,18.648889 H 44.8596 c 0,0 -0.882,-0.871111 -4.7652,-6.031407 -1.1448,-1.520593 -3.1764,-3.1360005 -6.3528,-3.1360005 -3.8628,0 -14.322,0 -21.9312,0 C 3.4284,16.86163 0,28.990815 0,47.407407 0,82.529185 12.438,94.814815 48,94.814815 Z"
     id="path26"
     style="fill:url(#SVGID_2_);stroke-width:1.19256961"
     inkscape:connector-curvature="0" />
  <path
     d="M 33.7416,9.4814815 H 11.8104 c -0.4356,0.3828148 -0.8628,0.7751115 -1.272,1.1851855 h 23.2032 c 2.7744,0 5.4096,1.217185 6.7956,2.539852 -0.1452,-0.193186 -0.288,-0.38163 -0.4428,-0.587852 C 38.9496,11.096889 36.918,9.4814815 33.7416,9.4814815 Z M 91.0512,18.648889 H 44.8596 l 0.966,1.165037 45.7596,0.01541 c -0.1752,-0.397037 -0.348,-0.795259 -0.534,-1.180444 z"
     id="path28"
     inkscape:connector-curvature="0"
     style="fill:#ffffff;fill-opacity:0.5;stroke-width:1.19256961" />
  <linearGradient
     gradientTransform="matrix(1.2,0,0,1.1851852,223.11036,-976.40392)"
     gradientUnits="userSpaceOnUse"
     id="SVGID_3_"
     x1="-145.9253"
     x2="-145.9253"
     y1="824.0938"
     y2="903.3385">
    <stop
       offset="0"
       style="stop-color:#FFFFFF"
       id="stop30" />
    <stop
       offset="1"
       style="stop-color:#FFFFFF;stop-opacity:0"
       id="stop32" />
  </linearGradient>
  <path
     d="M 48,0 C 12.438,0 0,12.28563 0,47.407407 c 0,35.121778 12.438,47.407408 48,47.407408 35.5668,0 48,-12.28563 48,-47.407408 C 96,12.28563 83.5644,0 48,0 Z m 0,93.62963 C 13.0104,93.62963 1.2,81.965037 1.2,47.407407 1.2,12.849778 13.0104,1.1851852 48,1.1851852 c 34.9896,0 46.8,11.6645928 46.8,46.2222218 0,34.55763 -11.8104,46.222223 -46.8,46.222223 z"
     id="path35"
     style="fill:url(#SVGID_3_);fill-opacity:0.15;stroke-width:1.19256961"
     inkscape:connector-curvature="0" />
  <linearGradient
     gradientUnits="userSpaceOnUse"
     id="SVGID_4_"
     x1="47.9995"
     x2="47.9995"
     y1="33.0005"
     y2="74.1362"
     gradientTransform="matrix(1.2,0,0,1.1851852,-9.6,-9.481481)">
    <stop
       offset="0"
       style="stop-color:#D6A214"
       id="stop37" />
    <stop
       offset="0.75"
       style="stop-color:#CE820A"
       id="stop39" />
    <stop
       offset="1"
       style="stop-color:#CE820A"
       id="stop41" />
  </linearGradient>
  <path
     d="m 40.4844,53.170963 -15.246,15.057778 0.018,0.01778 c -1.7784,2.106074 -1.6692,5.245629 0.3312,7.222518 2.0028,1.978074 5.178,2.084741 7.3116,0.325926 l 0.0204,0.01896 14.2344,-14.057482 c 0.0444,-0.283259 0.1128,-0.560592 0.2208,-0.822518 l -1.452,-2.392889 z M 30.1248,73.745778 c -0.7704,0.760889 -2.022,0.760889 -2.7924,0 -0.7716,-0.763259 -0.7716,-1.997037 0,-2.759111 0.7716,-0.760889 2.0232,-0.760889 2.7924,0 0.7716,0.762074 0.7716,1.995852 0,2.759111 z m 21.1848,-20.526222 2.4228,1.434074 c 0.2664,-0.106667 0.5472,-0.173037 0.834,-0.21926 l 3.4884,-3.445333 c 3.6204,0.951704 7.6296,0.04741 10.4724,-2.759111 4.5384,-4.481185 4.0116,-8.786963 1.9164,-10.855111 l -4.6728,4.685037 c -2.316,2.283852 -3.6576,1.903407 -5.9724,-0.379259 -2.3112,-2.285037 -2.6988,-3.612445 -0.3828,-5.897482 L 64.158,31.166815 C 62.064,29.098667 57.7056,28.576 53.1672,33.059556 c -2.8404,2.806518 -3.7596,6.767407 -2.7924,10.344296 l -4.5012,4.445629 z m 5.2848,3.517629 c -0.786,-0.775111 -2.0604,-0.775111 -2.8452,0 l -3.5556,-2.104889 -12.7968,-12.64 -2.1324,-3.511703 -7.8216,-6.319408 -2.8428,2.808889 6.3996,7.723852 3.5532,2.106074 12.7992,12.638815 2.1312,3.511704 c -0.7848,0.773925 -0.7848,2.032592 0,2.807703 l 14.22,14.044445 c 0.7848,0.773926 2.058,0.773926 2.8428,0 l 4.2648,-4.213334 c 0.786,-0.775111 0.786,-2.031407 0,-2.807703 z"
     id="path44"
     style="fill:url(#SVGID_4_);fill-opacity:0.9;stroke-width:1.19256961;stroke-opacity:0.9"
     inkscape:connector-curvature="0" />
  <path
     d="M 50.3748,43.403852 C 50.1804,42.68563 50.0844,41.948444 50.0424,41.211259 49.998,42.010074 50.04,42.810074 50.1756,43.600593 Z M 59.4156,36.968296 64.158,32.352 c -0.1992,-0.196741 -0.4248,-0.373333 -0.6636,-0.539259 l -4.0788,3.97037 c -1.3092,1.291852 -1.7268,2.277926 -1.4496,3.303111 0.1824,-0.643555 0.642,-1.321481 1.4496,-2.117926 z M 34.5528,45.985185 47.352,58.624 l 1.746,2.87763 c 0.096,-0.197926 0.2196,-0.386371 0.3852,-0.551111 L 47.352,57.438815 34.5528,44.8 l -3.5532,-2.106074 -5.8596,-7.072 -0.54,0.533333 6.3996,7.723852 z m 19.1784,9.85363 c 0.2664,-0.106667 0.5472,-0.173037 0.834,-0.219259 l 3.4884,-3.445334 c 3.6204,0.951704 7.6296,0.04741 10.4724,-2.759111 2.7492,-2.714074 3.6312,-5.359407 3.4404,-7.486815 -0.18,1.888 -1.1832,4.073482 -3.4404,6.30163 -2.8416,2.806518 -6.852,3.710815 -10.4724,2.759111 l -3.4884,3.445333 c -0.2868,0.04504 -0.5688,0.112593 -0.834,0.21926 l -2.4228,-1.434074 -4.836,-4.777482 -0.6,0.592593 5.436,5.370074 z M 27.3324,70.986667 c -0.54,0.534518 -0.6936,1.298963 -0.4752,1.972148 0.0924,-0.286815 0.2448,-0.559408 0.4752,-0.786963 0.7716,-0.760889 2.0232,-0.760889 2.7924,0 0.2304,0.227555 0.3828,0.500148 0.4752,0.786963 0.2184,-0.673185 0.0648,-1.43763 -0.4752,-1.972148 -0.7692,-0.760889 -2.0208,-0.760889 -2.7924,0 z m 43.4784,2.602666 -4.2648,4.213334 c -0.7848,0.773926 -2.058,0.773926 -2.8428,0 l -14.22,-14.044445 c -0.2376,-0.234666 -0.3936,-0.515555 -0.4872,-0.811852 -0.2172,0.681482 -0.06,1.456593 0.4872,1.997037 l 14.22,14.044445 c 0.7848,0.773926 2.058,0.773926 2.8428,0 l 4.2648,-4.213333 c 0.5484,-0.540445 0.7056,-1.313186 0.4884,-1.997038 -0.0936,0.296297 -0.2508,0.577186 -0.4884,0.811852 z M 47.154,61.755259 32.9196,75.813926 32.8992,75.794963 c -2.1324,1.75763 -5.3088,1.652148 -7.3116,-0.325926 C 24.6684,74.56 24.168,73.406815 24.0468,72.220444 c -0.192,1.578667 0.3168,3.223704 1.5408,4.433778 2.0028,1.978074 5.178,2.084741 7.3116,0.325926 l 0.0204,0.01896 L 47.154,62.94163 c 0.0444,-0.28326 0.1128,-0.560593 0.2208,-0.822519 z"
     id="path46"
     inkscape:connector-curvature="0"
     style="fill:#ffffff;fill-opacity:0.5;stroke-width:1.19256961" />
  <path
     d="M 50.3748,44.589037 C 50.2872,44.264296 50.232,43.931259 50.1756,43.600593 l -4.302,4.248888 0.6,0.592593 z M 48.996,62.94637 c 0.0936,-0.296296 0.2496,-0.577185 0.4872,-0.811851 L 49.098,61.500444 c -0.2196,0.455112 -0.2532,0.970667 -0.102,1.445926 z m 21.4464,-25.571555 -4.6728,4.685037 c -2.316,2.283852 -3.6576,1.903407 -5.9724,-0.379259 -1.0056,-0.993186 -1.62,-1.803852 -1.8324,-2.593186 -0.342,1.206519 0.3264,2.290963 1.8324,3.778371 2.3148,2.283852 3.6564,2.663111 5.9724,0.379259 L 70.4424,38.56 c 0.8256,0.815407 1.4016,1.982815 1.5252,3.368296 0.1836,-1.908148 -0.4716,-3.514074 -1.5252,-4.553481 z M 53.1672,34.245926 c 4.1076,-4.056889 8.0604,-4.009482 10.3272,-2.432 L 64.158,31.168 c -2.094,-2.068148 -6.4524,-2.590815 -10.9908,1.892741 -2.2704,2.243555 -3.2916,5.22074 -3.1248,8.151703 0.1368,-2.533925 1.1616,-5.027555 3.1248,-6.966518 z m 3.4272,22.491259 c -0.786,-0.775111 -2.0604,-0.775111 -2.8452,0 l -3.5556,-2.104889 -12.7968,-12.64 -2.1324,-3.511703 -7.8216,-6.319408 -2.8428,2.808889 0.54,0.651852 2.3028,-2.275556 7.8216,6.319408 2.1324,3.511703 12.7968,12.64 3.5556,2.104889 c 0.7848,-0.775111 2.0592,-0.775111 2.8452,0 l 14.2164,14.044445 c 0.2376,0.234666 0.3948,0.515555 0.4884,0.811852 0.2172,-0.681482 0.06,-1.455408 -0.4884,-1.997037 z m -16.11,-3.566222 -15.246,15.057778 0.018,0.01778 c -0.9624,1.138962 -1.3524,2.577777 -1.2096,3.973925 0.1224,-0.999111 0.5208,-1.970963 1.2096,-2.78874 l -0.018,-0.01778 15.246,-15.057778 5.4372,5.368889 1.2312,2.029037 c 0.0444,-0.282074 0.1128,-0.559407 0.2208,-0.821333 l -1.452,-2.392889 z M 30.1248,73.745778 c -0.7704,0.760889 -2.022,0.760889 -2.7924,0 -0.2304,-0.227556 -0.3828,-0.500148 -0.4752,-0.786963 -0.2184,0.673185 -0.0648,1.437629 0.4752,1.972148 0.7716,0.760889 2.0232,0.760889 2.7924,0 0.54,-0.534519 0.6936,-1.298963 0.4752,-1.972148 -0.0912,0.286815 -0.2436,0.558222 -0.4752,0.786963 z"
     id="path48"
     inkscape:connector-curvature="0"
     style="fill:#1a0900;fill-opacity:0.2;stroke-width:1.19256961" />
  <path
     d="m 28.7292,69.822815 c -0.6876,0 -1.3344,0.264296 -1.8216,0.744296 -1.0032,0.992 -1.0032,2.605037 0,3.597037 0.486,0.48 1.1328,0.744296 1.8216,0.744296 0.6888,0 1.3344,-0.264296 1.8204,-0.744296 1.0032,-0.992 1.0032,-2.605037 0,-3.597037 -0.4848,-0.48 -1.1316,-0.744296 -1.8204,-0.744296 z m 1.3956,3.922963 c -0.7704,0.760889 -2.022,0.760889 -2.7924,0 -0.7716,-0.763259 -0.7716,-1.997037 0,-2.759111 0.7716,-0.760889 2.0232,-0.760889 2.7924,0 0.7716,0.762074 0.7716,1.995852 0,2.759111 z m 21.1848,-20.526222 2.4228,1.434074 c 0.2664,-0.106667 0.5472,-0.173037 0.834,-0.21926 l 3.4884,-3.445333 c 3.6204,0.951704 7.6296,0.04741 10.4724,-2.759111 4.5384,-4.481185 4.0116,-8.786963 1.9164,-10.855111 l -4.6728,4.685037 c -2.316,2.283852 -3.6576,1.903407 -5.9724,-0.379259 -2.3112,-2.285037 -2.6988,-3.612445 -0.3828,-5.897482 L 64.158,31.166815 C 62.064,29.098667 57.7056,28.576 53.1672,33.059556 c -2.8404,2.806518 -3.7596,6.767407 -2.7924,10.344296 l -4.5012,4.445629 z m -0.3552,-9.968593 c -0.9432,-3.488 0.0672,-7.233185 2.6364,-9.771852 2.7252,-2.691555 5.0916,-3.256889 6.5964,-3.256889 1.1724,0 2.2464,0.341334 3.0888,0.970667 l -4.2816,4.168296 c -2.7084,2.672593 -1.956,4.429037 0.3792,6.738963 1.2708,1.253926 2.3748,2.088296 3.636,2.088296 1.0044,0 1.986,-0.526222 3.1836,-1.707851 l 4.2216,-4.233482 c 0.7368,0.963556 1.0824,2.243556 0.9588,3.598222 -0.1788,1.968593 -1.3116,4.030815 -3.2724,5.967408 -1.926,1.902222 -4.4916,2.949926 -7.2228,2.949926 -0.9012,0 -1.8,-0.116148 -2.6712,-0.344889 l -0.3336,-0.0877 -3.6,3.555556 c -0.1704,0.032 -0.3276,0.0723 -0.4776,0.118518 l -2.1168,-1.25393 -4.9596,-4.899555 4.3224,-4.269037 z m -10.47,9.92 -15.246,15.057778 0.018,0.01778 c -1.7784,2.106074 -1.6692,5.245629 0.3312,7.222518 2.0028,1.978074 5.178,2.084741 7.3116,0.325926 l 0.0204,0.01896 14.2344,-14.057482 c 0.0444,-0.283259 0.1128,-0.560592 0.2208,-0.822518 l -1.452,-2.392889 z m 6.1104,8.298667 -13.938,13.76474 -0.1416,0.105482 c -0.8652,0.713481 -1.9632,1.105778 -3.0924,1.105778 -1.2876,0 -2.4996,-0.496593 -3.4104,-1.396149 -1.7772,-1.756444 -1.9044,-4.519111 -0.2952,-6.423703 l 0.1596,-0.188445 14.6076,-14.428444 4.9608,4.89837 1.2696,2.090667 c -0.0468,0.149333 -0.0876,0.305778 -0.12,0.471704 z m 9.9996,-4.732445 c -0.786,-0.775111 -2.0604,-0.775111 -2.8452,0 l -3.5556,-2.104889 -12.7968,-12.64 -2.1324,-3.511703 -7.8216,-6.319408 -2.8428,2.808889 6.3996,7.723852 3.5532,2.106074 12.7992,12.638815 2.1312,3.511704 c -0.7848,0.773925 -0.7848,2.032592 0,2.807703 l 14.22,14.044445 c 0.7848,0.773926 2.058,0.773926 2.8428,0 l 4.2648,-4.213334 c 0.786,-0.775111 0.786,-2.031407 0,-2.807703 z m 13.7916,16.432593 -4.2648,4.213333 c -0.2664,0.263111 -0.6204,0.407704 -0.9972,0.407704 -0.3768,0 -0.7308,-0.144593 -0.9972,-0.407704 l -14.22,-14.044444 c -0.2664,-0.263111 -0.4128,-0.613926 -0.4128,-0.984889 0,-0.372148 0.1464,-0.721778 0.4128,-0.984889 L 50.238,61.042963 47.8272,57.071407 34.9248,44.328296 31.3992,42.23763 25.41,35.008 l 2.0748,-2.049185 7.3212,5.914074 2.1168,3.484444 12.9024,12.744297 4.02,2.381037 0.3312,-0.327111 c 0.2664,-0.263112 0.6216,-0.407704 0.9984,-0.407704 0.3768,0 0.7308,0.144592 0.9984,0.407704 L 70.3896,71.2 c 0.264,0.264296 0.4104,0.613926 0.4104,0.984889 0,0.370963 -0.1464,0.721778 -0.414,0.984889 z"
     id="path50"
     inkscape:connector-curvature="0"
     style="fill:#1a0900;fill-opacity:0.1;stroke-width:1.19256961" />
</svg>
