<?xml version="1.0" encoding="UTF-8" standalone="no"?>
<svg
   xmlns:dc="http://purl.org/dc/elements/1.1/"
   xmlns:cc="http://creativecommons.org/ns#"
   xmlns:rdf="http://www.w3.org/1999/02/22-rdf-syntax-ns#"
   xmlns:svg="http://www.w3.org/2000/svg"
   xmlns="http://www.w3.org/2000/svg"
   xmlns:sodipodi="http://sodipodi.sourceforge.net/DTD/sodipodi-0.dtd"
   xmlns:inkscape="http://www.inkscape.org/namespaces/inkscape"
   viewBox="0 0 106.66667 106.66667"
   height="106.66667"
   width="106.66667"
   xml:space="preserve"
   id="svg2"
   version="1.1"
   sodipodi:docname="icon-launcher-map.svg"
   inkscape:version="0.92.2 2405546, 2018-03-11"><sodipodi:namedview
     pagecolor="#ffffff"
     bordercolor="#666666"
     borderopacity="1"
     objecttolerance="10"
     gridtolerance="10"
     guidetolerance="10"
     inkscape:pageopacity="0"
     inkscape:pageshadow="2"
     inkscape:window-width="1366"
     inkscape:window-height="717"
     id="namedview183"
     showgrid="false"
     inkscape:zoom="2.2124999"
     inkscape:cx="53.333336"
     inkscape:cy="52.429381"
     inkscape:window-x="0"
     inkscape:window-y="25"
     inkscape:window-maximized="1"
     inkscape:current-layer="svg2" /><metadata
     id="metadata8"><rdf:RDF><cc:Work
         rdf:about=""><dc:format>image/svg+xml</dc:format><dc:type
           rdf:resource="http://purl.org/dc/dcmitype/StillImage" /></cc:Work></rdf:RDF></metadata><defs
     id="defs6"><clipPath
       id="clipPath18"
       clipPathUnits="userSpaceOnUse"><path
         id="path16"
         d="M 0,80 H 80 V 0 H 0 Z" /></clipPath><clipPath
       id="clipPath30"
       clipPathUnits="userSpaceOnUse"><path
         id="path28"
         d="M 1,40 C 1,11.108 11.105,1 40,1 v 0 c 28.894,0 39,10.108 39,39 v 0 C 79,68.893 68.894,79 40,79 v 0 C 11.105,79 1,68.893 1,40" /></clipPath><clipPath
       id="clipPath44"
       clipPathUnits="userSpaceOnUse"><path
         id="path42"
         d="M 0,80 H 80 V 0 H 0 Z" /></clipPath><clipPath
       id="clipPath72"
       clipPathUnits="userSpaceOnUse"><path
         id="path70"
         d="M 53.091,34.021 73.485,13.626 C 77.35,19.738 79,28.337 79,40 v 0 c 0,3.182 -0.131,6.122 -0.388,8.86 v 0 L 63.418,64.055 Z" /></clipPath><clipPath
       id="clipPath80"
       clipPathUnits="userSpaceOnUse"><path
         id="path78"
         d="M -32768,32767 H 32767 V -32768 H -32768 Z" /></clipPath><linearGradient
       id="linearGradient88"
       spreadMethod="pad"
       gradientTransform="matrix(30.247833,-30.247833,-30.247833,-30.247833,53.328018,53.964188)"
       gradientUnits="userSpaceOnUse"
       y2="0"
       x2="1"
       y1="0"
       x1="0"><stop
         id="stop82"
         offset="0"
         style="stop-opacity:0.4;stop-color:#ffffff" /><stop
         id="stop84"
         offset="1"
         style="stop-opacity:0;stop-color:#ffffff" /><stop
         id="stop86"
         offset="1"
         style="stop-opacity:0;stop-color:#ffffff" /></linearGradient><mask
       id="mask90"
       height="1"
       width="1"
       y="0"
       x="0"
       maskUnits="userSpaceOnUse"><g
         id="g100"><g
           id="g98"
           clip-path="url(#clipPath80)"><g
             id="g96"><g
               id="g94"><path
                 id="path92"
                 style="fill:url(#linearGradient88);stroke:none"
                 d="M -32768,32767 H 32767 V -32768 H -32768 Z" /></g></g></g></g></mask><linearGradient
       id="linearGradient112"
       spreadMethod="pad"
       gradientTransform="matrix(30.247833,-30.247833,-30.247833,-30.247833,53.328018,53.964188)"
       gradientUnits="userSpaceOnUse"
       y2="0"
       x2="1"
       y1="0"
       x1="0"><stop
         id="stop106"
         offset="0"
         style="stop-opacity:1;stop-color:#000000" /><stop
         id="stop108"
         offset="1"
         style="stop-opacity:1;stop-color:#000000" /><stop
         id="stop110"
         offset="1"
         style="stop-opacity:1;stop-color:#000000" /></linearGradient><clipPath
       id="clipPath122"
       clipPathUnits="userSpaceOnUse"><path
         id="path120"
         d="m 43.29,63.01 c -0.349,-0.45 -0.67,-0.92 -0.96,-1.39 v 0 C 39.51,56.911 39.89,50.971 43.14,46.68 v 0 l 0.3,-0.38 4.31,-5.48 5.254,-6.703 c 0.41,-0.523 1.202,-0.524 1.613,-10e-4 v 0 l 5.263,6.695 4.45,5.679 c 3.519,4.49 3.72,10.53 0.94,15.15 v 0 c -0.81,1.36 -1.88,2.59 -3.2,3.63 v 0 c -2.45,1.923 -5.361,2.855 -8.252,2.855 v 0 c -3.965,0 -7.891,-1.755 -10.528,-5.115" /></clipPath><linearGradient
       id="linearGradient134"
       spreadMethod="pad"
       gradientTransform="matrix(20.184425,-20.184425,-20.184425,-20.184425,43.717777,63.575508)"
       gradientUnits="userSpaceOnUse"
       y2="0"
       x2="1"
       y1="0"
       x1="0"><stop
         id="stop128"
         offset="0"
         style="stop-opacity:1;stop-color:#ff6e70" /><stop
         id="stop130"
         offset="1"
         style="stop-opacity:1;stop-color:#d95252" /><stop
         id="stop132"
         offset="1"
         style="stop-opacity:1;stop-color:#d95252" /></linearGradient><clipPath
       id="clipPath144"
       clipPathUnits="userSpaceOnUse"><path
         id="path142"
         d="M 0,80 H 80 V 0 H 0 Z" /></clipPath><clipPath
       id="clipPath152"
       clipPathUnits="userSpaceOnUse"><path
         id="path150"
         d="M 1.02344,79 H 78.9766 V 1 H 1.02344 Z" /></clipPath><clipPath
       id="clipPath156"
       clipPathUnits="userSpaceOnUse"><path
         id="path154"
         d="M 1.02344,79 H 78.9766 V 1 H 1.02344 Z" /></clipPath><clipPath
       id="clipPath160"
       clipPathUnits="userSpaceOnUse"><path
         id="path158"
         d="M 78.977,40 C 78.977,11.107 68.877,1 40,1 11.123,1 1.023,11.107 1.023,40 1.023,68.894 11.123,79 40,79 68.877,79 78.977,68.894 78.977,40" /></clipPath><clipPath
       id="clipPath164"
       clipPathUnits="userSpaceOnUse"><path
         id="path162"
         d="M -24534,24614 H 8232 V -8152 h -32766 z" /></clipPath><clipPath
       id="clipPath168"
       clipPathUnits="userSpaceOnUse"><path
         id="path166"
         d="M -24534,24614 H 8232 V -8152 h -32766 z" /></clipPath><mask
       id="mask170"
       height="1"
       width="1"
       y="0"
       x="0"
       maskUnits="userSpaceOnUse"><g
         id="g182"><g
           id="g180"
           clip-path="url(#clipPath164)"><g
             id="g178"><g
               id="g172" /><g
               id="g176"><g
                 id="g174"
                 clip-path="url(#clipPath168)" /></g></g></g></g></mask><linearGradient
       id="linearGradient188"
       spreadMethod="pad"
       gradientTransform="matrix(0,-53.61993,-53.61993,0,40,74.818359)"
       gradientUnits="userSpaceOnUse"
       y2="0"
       x2="1"
       y1="0"
       x1="0"><stop
         id="stop184"
         offset="0"
         style="stop-opacity:1;stop-color:#ffffff" /><stop
         id="stop186"
         offset="1"
         style="stop-opacity:1;stop-color:#e4e4e5" /></linearGradient><mask
       id="mask190"
       height="1"
       width="1"
       y="0"
       x="0"
       maskUnits="userSpaceOnUse"><g
         id="g216"><g
           style="opacity:0.5"
           id="g214"
           clip-path="url(#clipPath152)"><g
             id="g212"><g
               id="g192" /><g
               id="g210"><g
                 id="g208"
                 clip-path="url(#clipPath156)"><g
                   id="g206"><g
                     id="g204"
                     clip-path="url(#clipPath160)"><g
                       id="g202"><g
                         id="g194" /><g
                         id="g200"
                         mask="url(#mask170)"><g
                           id="g198"><path
                             id="path196"
                             style="fill:url(#linearGradient188);stroke:none"
                             d="M 78.977,40 C 78.977,11.107 68.877,1 40,1 11.123,1 1.023,11.107 1.023,40 1.023,68.894 11.123,79 40,79 68.877,79 78.977,68.894 78.977,40" /></g></g></g></g></g></g></g></g></g></g></mask><clipPath
       id="clipPath224"
       clipPathUnits="userSpaceOnUse"><path
         id="path222"
         d="M 1.02344,79 H 78.9766 V 1 H 1.02344 Z" /></clipPath><clipPath
       id="clipPath228"
       clipPathUnits="userSpaceOnUse"><path
         id="path226"
         d="M 78.977,40 C 78.977,11.107 68.877,1 40,1 11.123,1 1.023,11.107 1.023,40 1.023,68.894 11.123,79 40,79 68.877,79 78.977,68.894 78.977,40" /></clipPath><linearGradient
       id="linearGradient234"
       spreadMethod="pad"
       gradientTransform="matrix(0,-53.61993,-53.61993,0,40.000019,74.818184)"
       gradientUnits="userSpaceOnUse"
       y2="0"
       x2="1"
       y1="0"
       x1="0"><stop
         id="stop230"
         offset="0"
         style="stop-opacity:1;stop-color:#ffffff" /><stop
         id="stop232"
         offset="1"
         style="stop-opacity:1;stop-color:#000000" /></linearGradient><clipPath
       id="clipPath256"
       clipPathUnits="userSpaceOnUse"><path
         id="path254"
         d="M 1,79 H 79 V 1 H 1 Z" /></clipPath><clipPath
       id="clipPath260"
       clipPathUnits="userSpaceOnUse"><path
         id="path258"
         d="M 1,79 H 79 V 1 H 1 Z" /></clipPath><clipPath
       id="clipPath264"
       clipPathUnits="userSpaceOnUse"><path
         id="path262"
         d="M -24534,24614 H 8232 V -8152 h -32766 z" /></clipPath><clipPath
       id="clipPath268"
       clipPathUnits="userSpaceOnUse"><path
         id="path266"
         d="M -24534,24614 H 8232 V -8152 h -32766 z" /></clipPath><mask
       id="mask270"
       height="1"
       width="1"
       y="0"
       x="0"
       maskUnits="userSpaceOnUse"><g
         id="g282"><g
           id="g280"
           clip-path="url(#clipPath264)"><g
             id="g278"><g
               id="g272" /><g
               id="g276"><g
                 id="g274"
                 clip-path="url(#clipPath268)" /></g></g></g></g></mask><clipPath
       id="clipPath286"
       clipPathUnits="userSpaceOnUse"><path
         id="path284"
         d="M 1,79 H 79 V 1 H 1 Z" /></clipPath><clipPath
       id="clipPath290"
       clipPathUnits="userSpaceOnUse"><path
         id="path288"
         d="M 39.999,1.975 C 11.57,1.975 1.976,11.57 1.976,40 c 0,28.429 9.594,38.024 38.023,38.024 28.43,0 38.024,-9.595 38.024,-38.024 0,-28.43 -9.594,-38.025 -38.024,-38.025 m 0,77.025 C 11.105,79 1,68.894 1,40 1,11.107 11.105,1 39.999,1 68.896,1 79,11.107 79,40 79,68.894 68.896,79 39.999,79" /></clipPath><linearGradient
       id="linearGradient296"
       spreadMethod="pad"
       gradientTransform="matrix(0,-77.263527,-77.263527,0,40,78.75293)"
       gradientUnits="userSpaceOnUse"
       y2="0"
       x2="1"
       y1="0"
       x1="0"><stop
         id="stop292"
         offset="0"
         style="stop-opacity:1;stop-color:#ffffff" /><stop
         id="stop294"
         offset="1"
         style="stop-opacity:1;stop-color:#231815" /></linearGradient><mask
       id="mask298"
       height="1"
       width="1"
       y="0"
       x="0"
       maskUnits="userSpaceOnUse"><g
         id="g332"><g
           style="opacity:0.25"
           id="g330"
           clip-path="url(#clipPath256)"><g
             id="g328"><g
               id="g300" /><g
               id="g326"><g
                 id="g324"
                 clip-path="url(#clipPath260)"><g
                   id="g322"><g
                     id="g302" /><g
                     id="g320"
                     mask="url(#mask270)"><g
                       id="g304" /><g
                       id="g318"><g
                         id="g316"
                         clip-path="url(#clipPath286)"><g
                           id="g314"><g
                             id="g312"
                             clip-path="url(#clipPath290)"><g
                               id="g310"><g
                                 id="g308"><path
                                   id="path306"
                                   style="fill:url(#linearGradient296);stroke:none"
                                   d="M 39.999,1.975 C 11.57,1.975 1.976,11.57 1.976,40 c 0,28.429 9.594,38.024 38.023,38.024 28.43,0 38.024,-9.595 38.024,-38.024 0,-28.43 -9.594,-38.025 -38.024,-38.025 m 0,77.025 C 11.105,79 1,68.894 1,40 1,11.107 11.105,1 39.999,1 68.896,1 79,11.107 79,40 79,68.894 68.896,79 39.999,79" /></g></g></g></g></g></g></g></g></g></g></g></g></g></mask><clipPath
       id="clipPath340"
       clipPathUnits="userSpaceOnUse"><path
         id="path338"
         d="M 1,79 H 79 V 1 H 1 Z" /></clipPath><clipPath
       id="clipPath344"
       clipPathUnits="userSpaceOnUse"><path
         id="path342"
         d="M 39.999,1.975 C 11.57,1.975 1.976,11.57 1.976,40 c 0,28.429 9.594,38.024 38.023,38.024 28.43,0 38.024,-9.595 38.024,-38.024 0,-28.43 -9.594,-38.025 -38.024,-38.025 m 0,77.025 C 11.105,79 1,68.894 1,40 1,11.107 11.105,1 39.999,1 68.896,1 79,11.107 79,40 79,68.894 68.896,79 39.999,79" /></clipPath><linearGradient
       id="linearGradient350"
       spreadMethod="pad"
       gradientTransform="matrix(0,-77.263527,-77.263527,0,40,78.753128)"
       gradientUnits="userSpaceOnUse"
       y2="0"
       x2="1"
       y1="0"
       x1="0"><stop
         id="stop346"
         offset="0"
         style="stop-opacity:1;stop-color:#ffffff" /><stop
         id="stop348"
         offset="1"
         style="stop-opacity:1;stop-color:#ffffff" /></linearGradient></defs><g
     transform="matrix(1.2820513,0,0,-1.2820496,1.7179487,104.84859)"
     id="g10"><g
       id="g12"><g
         clip-path="url(#clipPath18)"
         id="g14"><g
           transform="translate(79,40)"
           id="g20"><path
             id="path22"
             style="fill:#eaeef0;fill-opacity:1;fill-rule:nonzero;stroke:none"
             d="m 0,0 c 0,-28.893 -10.105,-39 -39,-39 -28.895,0 -39,10.107 -39,39 0,28.894 10.105,39 39,39 C -10.105,39 0,28.894 0,0"
             inkscape:connector-curvature="0" /></g></g></g><g
       id="g24"><g
         clip-path="url(#clipPath30)"
         id="g26"><path
           id="path32"
           style="fill:#eaeef0;fill-opacity:1;fill-rule:nonzero;stroke:none"
           d="M 80,0 H 0 v 80 h 80 z"
           inkscape:connector-curvature="0" /></g></g><g
       transform="translate(39.5732,12.8955)"
       id="g34"><path
         id="path36"
         style="fill:#e1ffba;fill-opacity:1;fill-rule:nonzero;stroke:none"
         d="M 0,0 -17.678,17.678 6.187,41.542 23.864,23.865 Z"
         inkscape:connector-curvature="0" /></g><g
       id="g38"><g
         clip-path="url(#clipPath44)"
         id="g40"><g
           transform="translate(28.3774,1.7002)"
           id="g46"><path
             id="path48"
             style="fill:#c3e69f;fill-opacity:1;fill-rule:nonzero;stroke:none"
             d="M 0,0 11.196,11.195 -6.482,28.873 -22.446,12.909 C -18.221,5.5 -11.036,1.494 0,0"
             inkscape:connector-curvature="0" /></g><g
           transform="translate(77.2754,22.9229)"
           id="g50"><path
             id="path52"
             style="fill:#8abf76;fill-opacity:1;fill-rule:nonzero;stroke:none"
             d="m 0,0 -13.838,13.837 -35.06,-35.06 c 3.484,-0.471 7.342,-0.7 11.623,-0.7 22.235,0 33.336,5.997 37.275,21.923"
             inkscape:connector-curvature="0" /></g><g
           transform="translate(78.2998,51.6226)"
           id="g54"><path
             id="path56"
             style="fill:#c3e69f;fill-opacity:1;fill-rule:nonzero;stroke:none"
             d="M 0,0 -14.862,-14.863 -1.024,-28.7 C 0.155,-23.93 0.7,-18.281 0.7,-11.623 0.7,-7.342 0.472,-3.484 0,0"
             inkscape:connector-curvature="0" /></g><g
           transform="translate(1.604,50.8647)"
           id="g58"><path
             id="path60"
             style="fill:#95cf84;fill-opacity:1;fill-rule:nonzero;stroke:none"
             d="m 0,0 c -0.405,-3.286 -0.604,-6.891 -0.604,-10.865 0,-11.054 1.486,-19.35 4.931,-25.39 l 15.965,15.963 z"
             inkscape:connector-curvature="0" /></g><g
           transform="translate(63.4375,42.6528)"
           id="g62"><path
             id="path64"
             style="fill:#ffffff;fill-opacity:1;fill-rule:nonzero;stroke:none"
             d="m 0,0 -35.581,35.581 c -1.745,-0.251 -3.381,-0.575 -4.934,-0.958 L -20.623,14.731 -41.542,-6.187 -60.988,13.258 c -0.347,-1.586 -0.627,-3.269 -0.845,-5.046 l 17.345,-17.345 2.946,-2.947 2.946,2.947 20.918,20.918 L -2.946,-2.946 0,-5.892 2.946,-2.946 14.862,8.97 c -0.237,1.757 -0.537,3.421 -0.905,4.986 z"
             inkscape:connector-curvature="0" /></g></g></g><g
       id="g66"><g
         clip-path="url(#clipPath72)"
         id="g68"><g
           id="g74"><g
             id="g76" /><g
             mask="url(#mask90)"
             id="g102"><g
               id="g104"><path
                 id="path114"
                 style="fill:url(#linearGradient112);stroke:none"
                 d="M 53.091,34.021 73.485,13.626 C 77.35,19.738 79,28.337 79,40 v 0 c 0,3.182 -0.131,6.122 -0.388,8.86 v 0 L 63.418,64.055 Z"
                 inkscape:connector-curvature="0" /></g></g></g></g></g><g
       id="g116"><g
         clip-path="url(#clipPath122)"
         id="g118"><g
           id="g124"><g
             id="g126"><path
               id="path136"
               style="fill:url(#linearGradient134);stroke:none"
               d="m 43.29,63.01 c -0.349,-0.45 -0.67,-0.92 -0.96,-1.39 v 0 C 39.51,56.911 39.89,50.971 43.14,46.68 v 0 l 0.3,-0.38 4.31,-5.48 5.254,-6.703 c 0.41,-0.523 1.202,-0.524 1.613,-10e-4 v 0 l 5.263,6.695 4.45,5.679 c 3.519,4.49 3.72,10.53 0.94,15.15 v 0 c -0.81,1.36 -1.88,2.59 -3.2,3.63 v 0 c -2.45,1.923 -5.361,2.855 -8.252,2.855 v 0 c -3.965,0 -7.891,-1.755 -10.528,-5.115"
               inkscape:connector-curvature="0" /></g></g></g></g><g
       id="g138"><g
         clip-path="url(#clipPath144)"
         id="g140"><g
           id="g146"><g
             id="g148" /><g
             mask="url(#mask190)"
             id="g218"><g
               id="g220" /><g
               id="g248"><g
                 style="opacity:0.5"
                 id="g246"
                 clip-path="url(#clipPath224)"><g
                   id="g244"><g
                     id="g242"
                     clip-path="url(#clipPath228)"><g
                       id="g240"><g
                         id="g238"><path
                           id="path236"
                           style="fill:url(#linearGradient234);stroke:none"
                           d="M 78.977,40 C 78.977,11.107 68.877,1 40,1 11.123,1 1.023,11.107 1.023,40 1.023,68.894 11.123,79 40,79 68.877,79 78.977,68.894 78.977,40"
                           inkscape:connector-curvature="0" /></g></g></g></g></g></g></g></g><g
           id="g250"><g
             id="g252" /><g
             mask="url(#mask298)"
             id="g334"><g
               id="g336" /><g
               id="g364"><g
                 style="opacity:0.25"
                 id="g362"
                 clip-path="url(#clipPath340)"><g
                   id="g360"><g
                     id="g358"
                     clip-path="url(#clipPath344)"><g
                       id="g356"><g
                         id="g354"><path
                           id="path352"
                           style="fill:url(#linearGradient350);stroke:none"
                           d="M 39.999,1.975 C 11.57,1.975 1.976,11.57 1.976,40 c 0,28.429 9.594,38.024 38.023,38.024 28.43,0 38.024,-9.595 38.024,-38.024 0,-28.43 -9.594,-38.025 -38.024,-38.025 m 0,77.025 C 11.105,79 1,68.894 1,40 1,11.107 11.105,1 39.999,1 68.896,1 79,11.107 79,40 79,68.894 68.896,79 39.999,79"
                           inkscape:connector-curvature="0" /></g></g></g></g></g></g></g></g></g></g></g></svg>