<?xml version="1.0" encoding="UTF-8" standalone="no"?>
<svg
   xmlns:dc="http://purl.org/dc/elements/1.1/"
   xmlns:cc="http://creativecommons.org/ns#"
   xmlns:rdf="http://www.w3.org/1999/02/22-rdf-syntax-ns#"
   xmlns:svg="http://www.w3.org/2000/svg"
   xmlns="http://www.w3.org/2000/svg"
   xmlns:sodipodi="http://sodipodi.sourceforge.net/DTD/sodipodi-0.dtd"
   xmlns:inkscape="http://www.inkscape.org/namespaces/inkscape"
   height="96px"
   version="1.1"
   viewBox="0 0 96 96"
   width="96px"
   x="0px"
   y="0px"
   id="svg52"
   sodipodi:docname="icon-launcher-folder-09.svg"
   inkscape:version="0.92.2 2405546, 2018-03-11">
  <metadata
     id="metadata58">
    <rdf:RDF>
      <cc:Work
         rdf:about="">
        <dc:format>image/svg+xml</dc:format>
        <dc:type
           rdf:resource="http://purl.org/dc/dcmitype/StillImage" />
      </cc:Work>
    </rdf:RDF>
  </metadata>
  <defs
     id="defs56" />
  <sodipodi:namedview
     pagecolor="#ffffff"
     bordercolor="#666666"
     borderopacity="1"
     objecttolerance="10"
     gridtolerance="10"
     guidetolerance="10"
     inkscape:pageopacity="0"
     inkscape:pageshadow="2"
     inkscape:window-width="1366"
     inkscape:window-height="717"
     id="namedview54"
     showgrid="false"
     inkscape:zoom="2.4583333"
     inkscape:cx="47.999999"
     inkscape:cy="47.999999"
     inkscape:window-x="0"
     inkscape:window-y="25"
     inkscape:window-maximized="1"
     inkscape:current-layer="svg52" />
  <path
     d="M 93,48.555556 C 93,81.483334 81.343875,93 48,93 14.660625,93 3,81.483334 3,48.555556 3,15.63 14.660625,4.1111111 48,4.1111111 c 33.341625,0 45,11.5188889 45,44.4444449 z"
     id="path2"
     inkscape:connector-curvature="0"
     style="fill-opacity:0.4;stroke-width:1.11803401" />
  <rect
     height="90"
     width="90"
     id="rect4"
     x="3"
     y="3"
     style="fill:none;stroke-width:0.9375" />
  <linearGradient
     gradientUnits="userSpaceOnUse"
     id="SVGID_1_"
     x1="47.9995"
     x2="47.9995"
     y1="8"
     y2="24"
     gradientTransform="matrix(1.125,0,0,1.1111111,-6,-5.8888884)">
    <stop
       offset="0"
       style="stop-color:#E4BE34"
       id="stop6" />
    <stop
       offset="1"
       style="stop-color:#E0AA18"
       id="stop8" />
  </linearGradient>
  <path
     d="M 88.5045,20.777778 C 82.484625,7.988889 69.936375,3 48,3 26.06475,3 13.5165,7.988889 7.4955,20.777778 Z"
     id="path11"
     style="fill:url(#SVGID_1_);stroke-width:1.11803401"
     inkscape:connector-curvature="0" />
  <path
     d="m 48,91.888889 c 33.343875,0 45,-11.517778 45,-44.444445 0,-12.751111 -1.758375,-22.278889 -5.837625,-29.183333 h -41.0715 C 45.467625,17.506667 44.346,16.096667 42.39525,13.503334 41.3175,12.071111 38.875125,9.666667 34.63275,9.666667 H 16.989375 C 7.001625,16.255555 3,28.182222 3,47.444444 3,80.371111 14.660625,91.888889 48,91.888889 Z"
     id="path13"
     inkscape:connector-curvature="0"
     style="fill-opacity:0.02000002;stroke-width:1.11803401" />
  <path
     d="m 48,91.888889 c 33.343875,0 45,-11.517778 45,-44.444445 C 93,35.037778 91.34175,25.673333 87.495375,18.816667 H 45.82425 c -0.547875,-0.653334 -1.693125,-2.073333 -3.88125,-4.981111 -1.01475,-1.35 -3.315375,-3.613334 -7.31025,-3.613334 h -18.459 C 6.781125,16.916666 3,28.713334 3,47.444444 3,80.371111 14.660625,91.888889 48,91.888889 Z"
     id="path15"
     inkscape:connector-curvature="0"
     style="fill-opacity:0.02000002;stroke-width:1.11803401" />
  <path
     d="m 48,91.888889 c 33.343875,0 45,-11.517778 45,-44.444445 C 93,35.365555 91.42275,26.177778 87.789,19.372222 H 45.562125 c -0.480375,-0.56 -1.63125,-1.964444 -4.07025,-5.205555 C 40.539,12.901111 38.380125,10.777778 34.63275,10.777778 H 15.427875 C 6.58425,17.561111 3,29.218889 3,47.444444 3,80.371111 14.660625,91.888889 48,91.888889 Z"
     id="path17"
     inkscape:connector-curvature="0"
     style="fill-opacity:0.05;stroke-width:1.11803401" />
  <path
     d="m 48,91.888889 c 33.343875,0 45,-11.517778 45,-44.444445 C 93,35.69 91.50375,26.676667 88.07475,19.927777 H 45.3045 c -0.367875,-0.414444 -1.48725,-1.74 -4.26375,-5.43 -0.889875,-1.181111 -2.90475,-3.165555 -6.406875,-3.165555 h -19.908 C 6.393,18.192222 3,29.707777 3,47.444444 3,80.371111 14.660625,91.888889 48,91.888889 Z"
     id="path19"
     inkscape:connector-curvature="0"
     style="fill-opacity:0.05;stroke-width:1.11803401" />
  <linearGradient
     gradientUnits="userSpaceOnUse"
     id="SVGID_2_"
     x1="47.9995"
     x2="47.9995"
     y1="16"
     y2="88.0005"
     gradientTransform="matrix(1.125,0,0,1.1111111,-6,-5.8888884)">
    <stop
       offset="0"
       style="stop-color:#E6CD49"
       id="stop21" />
    <stop
       offset="1"
       style="stop-color:#E0A714"
       id="stop23" />
  </linearGradient>
  <path
     d="m 48,91.888889 c 33.343875,0 45,-11.517778 45,-44.444445 C 93,36.013333 91.590375,27.167778 88.3605,20.483333 H 45.055875 c 0,0 -0.826875,-0.816666 -4.467375,-5.654444 -1.07325,-1.425556 -2.977875,-2.94 -5.95575,-2.94 -3.621375,0 -13.426875,0 -20.5605,0 C 6.214125,18.807778 3,30.178889 3,47.444444 3,80.371111 14.660625,91.888889 48,91.888889 Z"
     id="path26"
     style="fill:url(#SVGID_2_);stroke-width:1.11803401"
     inkscape:connector-curvature="0" />
  <path
     d="M 34.63275,11.888889 H 14.07225 C 13.663875,12.247778 13.263375,12.615556 12.87975,13 h 21.753 c 2.601,0 5.0715,1.141111 6.370875,2.381112 C 40.8675,15.2 40.733625,15.023333 40.5885,14.83 39.51525,13.403333 37.610625,11.888889 34.63275,11.888889 Z M 88.3605,20.483333 H 45.055875 l 0.905625,1.092223 42.899625,0.01445 c -0.16425,-0.372226 -0.32625,-0.745559 -0.500625,-1.10667 z"
     id="path28"
     inkscape:connector-curvature="0"
     style="fill:#ffffff;fill-opacity:0.5;stroke-width:1.11803401" />
  <linearGradient
     gradientTransform="matrix(1.125,0,0,1.1111111,212.16596,-912.37867)"
     gradientUnits="userSpaceOnUse"
     id="SVGID_3_"
     x1="-145.9253"
     x2="-145.9253"
     y1="824.0938"
     y2="903.3385">
    <stop
       offset="0"
       style="stop-color:#FFFFFF"
       id="stop30" />
    <stop
       offset="1"
       style="stop-color:#FFFFFF;stop-opacity:0"
       id="stop32" />
  </linearGradient>
  <path
     d="M 48,3 C 14.660625,3 3,14.517778 3,47.444444 c 0,32.926667 11.660625,44.444445 45,44.444445 33.343875,0 45,-11.517778 45,-44.444445 C 93,14.517778 81.341625,3 48,3 Z m 0,87.777778 C 15.19725,90.777778 4.125,79.842222 4.125,47.444444 4.125,15.046667 15.19725,4.1111111 48,4.1111111 c 32.80275,0 43.875,10.9355559 43.875,43.3333329 0,32.397778 -11.07225,43.333334 -43.875,43.333334 z"
     id="path35"
     style="fill:url(#SVGID_3_);fill-opacity:0.15;stroke-width:1.11803401"
     inkscape:connector-curvature="0" />
  <linearGradient
     gradientUnits="userSpaceOnUse"
     id="SVGID_4_"
     x1="47.9995"
     x2="47.9995"
     y1="33"
     y2="77.0005"
     gradientTransform="matrix(1.125,0,0,1.1111111,-6,-5.8888884)">
    <stop
       offset="0"
       style="stop-color:#D6A214"
       id="stop37" />
    <stop
       offset="0.75"
       style="stop-color:#CE820A"
       id="stop39" />
    <stop
       offset="1"
       style="stop-color:#CE820A"
       id="stop41" />
  </linearGradient>
  <path
     d="m 48,30.777778 c -13.66875,0 -24.75,10.943334 -24.75,24.438889 0,13.506666 11.08125,24.45 24.75,24.45 13.671,0 24.75,-10.943334 24.75,-24.45 C 72.75,41.721112 61.671,30.777778 48,30.777778 Z m 21.859875,19.846666 0.1935,0.192222 c 0.08662,0.421112 0.13725,0.853334 0.199125,1.281112 l -0.9405,-0.93 z m -42.19425,10.63889 -0.475875,0.474444 v 1.904444 c -0.727875,-1.75 -1.225125,-3.613333 -1.479375,-5.552222 l 1.22175,1.204444 h 0.7335 z m 3.87675,9.06 C 30.855,69.593333 30.212625,68.822222 29.62875,68.006666 h 0.64575 l 1.267875,1.251112 z m 33.90075,-20.957778 -0.903375,0.891111 h -3.024 V 49.482222 H 57.7875 V 48.32 h -5.22 l -3.376125,3.334444 v 6.087779 l 2.394,2.365555 h 5.77125 v 2.558888 l 1.4535,1.434446 v 9.542221 l 0.667125,0.657779 C 56.112375,76.283333 52.195125,77.444444 48,77.444444 c -4.055625,0 -7.85475,-1.082222 -11.145375,-2.944444 l 1.10475,-1.091111 v -1.744445 l 1.609875,-1.59 h 0.846 v -3.51 L 42.200625,64.8 v -1.688888 h -2.5335 l -0.84375,-0.832223 v -0.82 h -2.03625 L 33.249,57.963334 h -4.09275 l -0.657,0.649999 H 26.985 L 26.1435,57.78 V 55.764444 H 25.528125 C 25.523625,55.58 25.5,55.401112 25.5,55.216667 c 0,-1.651111 0.198,-3.255556 0.5445,-4.804445 h 0.92025 l 0.47475,0.466667 v 1.123333 h 0.50625 v -2.131111 l 1.492875,-1.474444 h 0.982125 l 2.946375,-2.911111 h 1.724625 l 0.47475,-0.462223 v -1.474444 h -0.513 v -0.383334 h 2.437875 l 0.63675,-0.623333 v -0.437778 l -0.738,-0.727777 v -1.997778 l -0.8055,0.795556 h -0.8235 V 39.05 H 34.545 l -0.90225,0.893333 H 33.15 v 1.454445 l -1.31625,1.299999 v -1.20111 h -1.0575 V 40.95 c 1.5525,-1.825555 3.40425,-3.384444 5.4675,-4.64 l 0.7515,0.744445 L 36.624,37.42 h -0.903375 v 0.506667 l 1.063125,1.045555 h 0.703125 L 38.118,38.351111 v -0.678888 h 1.078875 l 0.45225,-0.44889 -1.82025,-1.797778 c 0.6975,-0.349999 1.416375,-0.663332 2.152125,-0.942222 v 0.283333 h 2.2365 v 1.570001 h 1.1205 l -0.646875,0.64 h -0.765 v 2.69 h 1.2465 L 44.5755,38.284445 h 0.9675 l 2.3895,-2.355556 h 0.87975 L 51.483,33.295555 c 2.9475,0.455556 5.700375,1.472223 8.154,2.944445 h -0.67275 l -2.8575,2.818889 V 40.37 H 57.585 l 0.765,0.752222 h 0.7695 l 0.520875,-0.509999 v -2.026667 l 0.975375,-0.963334 h 0.6615 l -1.116,1.101111 v 0.868889 h 1.589625 v 0.431112 l -1.670625,1.645555 c 0,0 -2.34675,0.08778 -2.25675,0 0.08775,-0.09 -0.3105,-0.597778 -0.3105,-0.597778 H 56.686125 L 54.548625,43.18 h -1.39275 v 0.64 h 0.664875 v 1.782222 h -2.041875 v 1.93889 l 0.45225,0.447777 h 1.314 l 1.8765,-1.853334 v -0.688889 h 1.85625 l 1.60875,1.59 0.667125,-0.657777 -1.490625,-1.473334 h 0.9405 l 1.276875,1.258889 v 0.757778 h 1.395 v -0.505555 h 0.58725 l 1.706625,1.685555 h 1.47375 z M 63.5205,46.416667 62.949,45.857778 62.96813,45.334445 63.81188,44.497777 H 65.838 l 1.382625,1.367778 v 0.550001 H 63.5205 Z m 3.828375,20.086666 v -3.139999 l 2.3355,-2.305557 c -0.53325,1.933335 -1.323,3.75889 -2.3355,5.445556 z m 1.116,-8.877778 -2.883375,-2.851111 v -3.623333 h 0.8055 v 3.371111 L 68.622375,56.73 h 1.56825 l 0.243,-0.24 c -0.0225,0.378889 -0.03038,0.761111 -0.072,1.134444 h -1.89675 z M 52.65525,42.215556 V 41.91 l 0.201375,-0.201112 V 41.23 H 52.40325 l -0.423,0.346666 v 0.311111 l -0.358875,0.35889 V 42.63 H 52.23675 Z M 53.6565,41.926667 H 53.466375 L 53.068125,42.32 v 0.432222 h 1.373625 l 0.379125,-0.374444 v -0.414445 l -1.00575,-0.992221 0.26325,-0.263334 V 40.396667 H 53.39775 l 0.336375,-0.328889 H 53.238 l -0.327375,0.301111 v 0.513334 l 0.745875,0.735555 z"
     id="path44"
     style="fill:url(#SVGID_4_);fill-opacity:0.9;stroke-width:1.11803401;stroke-opacity:0.9"
     inkscape:connector-curvature="0" />
  <path
     d="m 54.73875,42.993334 -0.27,-0.266667 -0.02587,0.02556 h -0.78525 v 0.285556 H 53.4675 l -0.142875,0.142222 h 1.22625 z m 3.614625,-1.871112 -0.765,-0.752222 h -1.47825 v 1.111112 h 0.163125 l 0.415125,-0.410001 h 0.826875 c 0,0 0.39825,0.507778 0.3105,0.597778 -0.06638,0.06444 1.144125,0.03444 1.816875,0.01445 v -1.071111 l -0.520875,0.51 z m -5.128875,0.07 -0.31275,0.288889 v 0.513333 l 0.244125,0.241111 0.311625,-0.307777 h 0.190125 V 41.62 l -0.1125,-0.111111 h -0.14625 l 0.07313,-0.07111 z m 0.597375,2.627777 H 53.157 v -0.475555 l -0.08775,0.08667 v 0.432222 h 0.752625 z M 52.65525,43.32667 v -0.305555 l 0.201375,-0.201111 v -0.478893 h -0.3285 L 52.235625,42.63 H 52.05 l -0.07087,0.05778 v 0.31111 l -0.358875,0.358889 v 0.383334 h 0.615375 z m -10.726875,-3.66 v 1.111111 h 1.2465 l 1.402875,-1.382222 h 0.9675 l 2.3895,-2.355556 h 0.87975 l 2.67075,-2.633333 c 2.49525,0.386667 4.8375,1.193333 6.989625,2.32 L 58.967625,36.24 h 0.67275 c -2.453625,-1.472222 -5.2065,-2.488889 -8.154,-2.944445 l -2.67075,2.633334 h -0.87975 l -2.3895,2.355556 h -0.9675 l -1.404,1.382222 z M 40.41525,67.674444 42.200625,65.91 V 64.798889 L 40.41525,66.563333 Z M 53.821875,44.931112 V 44.291111 H 53.157 v 0.640001 z m 9.99,0.678888 H 65.838 l 0.815625,0.807777 h 0.567 V 45.866666 L 65.838,44.498888 h -2.026125 l -0.84375,0.836668 -0.01913,0.523333 L 63.25612,46.16 Z m -21.59325,-8.633333 h 0.473625 l 0.646875,-0.64 h -1.1205 z m -4.6305,37.908889 0.37125,-0.366667 v -1.111111 l -1.10475,1.09111 c 0.24075,0.136667 0.48825,0.25889 0.7335,0.386668 z m -7.959375,-6.87889 c 0.585,0.815556 1.22625,1.586667 1.913625,2.316668 V 69.257778 L 30.2745,68.006666 Z m 30.535875,-29.284443 1.116,-1.101112 h -0.6615 l -0.975375,0.963334 v 1.111111 l 0.520875,-0.514445 z m -20.1825,-3.127779 v 0.283334 h 2.2365 v -1.111112 h -2.2365 V 34.483333 C 39.246375,34.762222 38.5275,35.074445 37.83,35.425555 l 0.7785,0.768889 c 0.455625,-0.206666 0.9045,-0.422222 1.373625,-0.6 z M 26.0445,51.523333 h 0.92025 L 27.4395,51.99 V 50.878889 L 26.96475,50.412222 H 26.0445 C 25.698,51.961111 25.5,53.565556 25.5,55.216667 c 0,0.135555 0.01237,0.267777 0.02137,0.401111 0.04838,-1.4 0.22725,-2.768889 0.523125,-4.094445 z m 9.67725,-13.756667 v -0.347778 h 0.903375 l 0.37125,-0.365554 -0.7515,-0.744446 c -2.06325,1.255557 -3.915,2.814446 -5.4675,4.640001 v 0.546667 h 0.522 C 32.602125,40.07 34.08825,38.821111 35.72175,37.766666 Z M 58.809,73.642223 v 1.022221 C 59.03175,74.543333 59.257875,74.427778 59.476125,74.3 Z m 2.8665,-26.720001 h -1.395 v -0.757778 l -1.276875,-1.258889 h -0.9405 l 1.490625,1.473334 -0.09112,0.09 0.817875,0.806666 v 0.757779 h 1.395 v -0.505557 h 0.58725 l 1.706625,1.685556 h 1.47375 V 48.102222 H 63.96938 L 62.26275,46.416667 H 61.6755 Z m 4.712625,4.228889 h -0.8055 v 1.111111 h 0.8055 z m 0.96075,13.323334 1.809,-1.785556 c 0.194625,-0.534445 0.3735,-1.077777 0.5265,-1.631112 l -2.3355,2.305557 z M 36.336,38.531111 h -0.61425 v 0.506667 l 0.0135,0.01333 h 0.027 v 0.02666 l 0.96975,0.953334 0.65925,-0.652223 v 0.704445 H 37.488 l 0.631125,-0.621111 V 38.783327 H 39.198 l 0.45225,-0.448889 -0.6705,-0.662222 H 38.118 v 0.678889 l -0.631125,0.621117 H 36.78375 Z m 23.828625,1.302222 v 0.86889 H 61.0635 l 0.69075,-0.680001 v -0.43111 h -1.3455 z m 12.57075,15.938889 C 72.436125,69.022222 61.482,79.666667 48,79.666667 c -13.47975,0 -24.436125,-10.644445 -24.735375,-23.894445 -0.0045,0.185555 -0.01462,0.368889 -0.01462,0.555556 0,13.506666 11.08125,24.45 24.75,24.45 13.671,0 24.75,-10.943334 24.75,-24.45 0,-0.186667 -0.01013,-0.37 -0.01462,-0.555556 z M 66.388125,55.57 68.466,57.625555 h 1.89675 c 0.04162,-0.374444 0.05062,-0.756666 0.072,-1.134444 l -0.243,0.24 H 68.6235 l -2.235375,-2.207778 z m 3.66525,-4.753334 -0.1935,-0.192222 -0.547875,0.543334 0.9405,0.93 C 70.190625,51.67 70.14,51.237778 70.053375,50.816666 Z m -44.343,7.272222 c 0.0585,0.446668 0.13275,0.887778 0.217125,1.325556 l 1.004625,0.99 h 0.7335 v -0.68 H 26.985 l -0.8415,-0.833333 v -0.374444 z m 4.7115,-8.582221 2.946375,-2.911111 h 1.724625 l 0.47475,-0.462223 v -1.11111 l -0.47475,0.462222 H 33.36825 l -2.946375,2.911111 H 29.43975 L 27.946875,49.87 v 1.111111 l 1.492875,-1.474444 z m -2.475,2.495555 h -0.50625 v 1.111111 h 0.50625 z m 10.1835,-8.786666 -0.343125,-0.338889 -0.29475,0.287777 h -2.437875 v 0.383334 h 0.513 v 0.727777 H 37.4925 l 0.63675,-0.623333 v -0.436666 z m 2.284875,27.968888 v -1.111111 h -0.846 l -1.609875,1.59 v 1.111111 l 1.609875,-1.59 z M 58.809,64.1 57.3555,62.665555 v 1.111111 l 1.4535,1.434446 z m 0.183375,-17.165556 -0.104625,0.103334 -1.60875,-1.59 h -1.85625 v 0.688888 L 53.54625,47.99 h -1.314 L 51.78,47.542222 v 1.111111 l 0.223875,0.222223 0.563625,-0.556667 h 1.77075 l 1.0845,-1.071111 V 46.558889 H 57.279 l 1.60875,1.59 0.667125,-0.657778 z M 57.3555,60.106667 h -5.77125 l -2.394,-2.365555 v 1.11111 l 2.394,2.365556 h 5.77125 z"
     id="path46"
     inkscape:connector-curvature="0"
     style="fill:#ffffff;fill-opacity:0.5;stroke-width:1.11803401" />
  <path
     d="m 27.18975,62.847778 0.475875,-0.474444 V 61.262222 L 27.18975,61.736666 Z M 38.823375,63.39 l 0.84375,0.832222 h 2.5335 v -1.11111 h -2.5335 l -0.84375,-0.832223 v -0.82 h -2.03625 L 33.249,57.963334 h -4.09275 l -0.657,0.649999 H 26.985 L 26.1435,57.78 v 0.736667 l 0.7875,0.776666 h 0.7335 v 0.431111 h 0.833625 l 0.657,-0.649999 H 33.249 L 36.787125,62.57 h 2.03625 z m -13.113,-4.19 c 0.255375,1.938889 0.7515,3.802222 1.479375,5.552222 V 63.641111 C 26.6295,62.293333 26.20875,60.878888 25.9275,59.414444 Z M 35.72175,37.766666 v 0.160001 l 0.61425,0.604444 h 0.289125 l 0.37125,-0.365555 -0.7515,-0.744445 C 36.066,37.528889 35.89725,37.653334 35.72175,37.766666 Z m 1.01025,2.264445 -0.14625,0.143334 h -0.8235 v 1.111111 h 0.8235 L 37.39125,40.49 v -0.406666 h -0.606375 z m -1.164375,4.627778 v -0.383334 h -0.513 v 0.383334 z m 1.823625,-2.171112 0.396,0.39 0.343125,-0.335555 v -0.437778 l -0.738,-0.727777 v 1.11111 z m 29.957625,24.015556 v 1.111111 c 1.011375,-1.687777 1.80225,-3.512222 2.3355,-5.445556 l -0.5265,0.520001 c -0.48375,1.333333 -1.08675,2.61 -1.809,3.814444 z m -35.514,-22.694445 1.31625,-1.299999 v -1.111111 l -1.31625,1.299999 z M 48,30.777778 c -13.66875,0 -24.75,10.943334 -24.75,24.438889 0,0.186666 0.01012,0.369999 0.01462,0.555555 C 23.563875,42.533333 34.52025,31.888889 48,31.888889 c 13.482,0 24.436125,10.644444 24.735375,23.883333 C 72.739875,55.586666 72.75,55.403333 72.75,55.216667 72.75,41.721112 61.671,30.777778 48,30.777778 Z m -18.37125,38.34 c 0.585,0.815556 1.22625,1.586666 1.913625,2.316667 V 70.368889 L 30.2745,69.117778 Z m 40.424625,-17.19 -0.1935,-0.192222 -0.547875,0.543333 0.9405,0.93 c -0.06188,-0.427778 -0.1125,-0.86 -0.199125,-1.281111 z M 58.809,74.664444 c -3.211875,1.754444 -6.886125,2.78 -10.809,2.78 -3.75975,0 -7.293375,-0.938888 -10.411875,-2.558888 L 36.854625,75.61 c 3.290625,1.863333 7.08975,2.945556 11.145375,2.945556 4.195125,0 8.112375,-1.161112 11.476125,-3.144444 L 58.809,74.753333 Z m 8.4105,-27.686666 -0.567,-0.561111 h -3.132 L 63.25725,46.16 62.968125,46.446667 62.948995,46.97 l 0.5715,0.558888 h 3.699 z m -5.702625,3.277778 V 49.481111 H 57.7875 v 1.111111 h 3.72825 v 0.774445 h 3.024 l 0.903375,-0.891111 v -1.111112 l -0.903375,0.891112 z m 7.106625,7.585555 -2.235375,-2.207778 v -0.06333 l -0.8055,-0.796667 v 1.111111 L 68.466,58.73556 h 1.89675 c 0.04162,-0.374444 0.05062,-0.756667 0.072,-1.134444 l -0.243,0.24 z M 58.992375,46.934444 59.46375,46.47 l -0.459,-0.452222 h -0.9405 z m -7.01325,-5.357778 v 0.311112 L 51.62025,42.246667 V 42.63 H 52.05 l 0.352125,-0.288889 H 52.527 l 0.127125,-0.125555 V 41.91 L 52.8555,41.708888 V 41.23 h -0.453375 z m 8.64,-2.844444 -0.4545,0.448889 v 0.410001 h 0.24525 l 0.87075,-0.85889 z M 30.77625,42.06 v 0.546667 h 1.0575 V 41.495556 H 31.297125 C 31.125,41.684444 30.94275,41.865556 30.77625,42.06 Z M 26.1435,55.763333 h -0.615375 c -0.0011,-0.04889 -0.0045,-0.09667 -0.0079,-0.145555 -0.0068,0.236666 -0.02025,0.471111 -0.02025,0.71 0,0.184444 0.02362,0.363334 0.02812,0.546666 h 0.61538 z m 13.0545,-18.09111 0.45225,-0.44889 -1.04175,-1.028889 c -0.257625,0.116667 -0.5265,0.214445 -0.7785,0.342222 l 1.14975,1.135557 z m 12.580875,9.042222 H 53.82075 V 45.603334 H 51.778875 Z M 53.3235,43.18 H 53.157 v 0.164444 z m 6.316875,-5.828889 C 59.2635,37.125556 58.866375,36.93 58.476,36.725556 l -2.365875,2.333333 V 40.17 l 2.8575,-2.818889 z m -17.712,-0.374444 v 1.111111 h 0.765 l 0.646875,-0.640001 h -1.1205 v -0.47111 z m 12.8925,6.097777 v 0.414445 l -0.379125,0.374445 h -0.621 v 0.427777 h 0.727875 l 2.1375,-2.108889 H 57.513 c 0,0 0.39825,0.507778 0.3105,0.597778 -0.09,0.08778 2.25675,0 2.25675,0 l 1.670625,-1.645555 v -0.431112 h -0.69075 l -0.979875,0.965556 c 0,0 -0.1845,0.0067 -0.439875,0.01445 v 0.04 l -0.520875,0.51 H 58.35 l -0.765,-0.752222 h -1.31625 l -1.533375,1.512222 z M 33.64275,39.943333 H 33.15 v 1.111111 h 0.49275 L 34.545,40.161112 h 1.21725 v -1.083334 l -0.027,-0.02666 H 34.545 Z M 53.6565,42.73 l -0.50175,-0.494445 -0.0855,0.08556 v 0.432222 h 0.58725 z m -0.4185,-2.662222 -0.327375,0.301111 v 0.513334 l 0.31275,0.308888 0.01463,-0.01333 h 0.496125 l -0.262125,0.256667 0.072,0.07111 h 0.5355 v 0.31111 l -0.26325,0.263334 0.6525,0.643334 0.352125,-0.347778 v -0.414444 l -1.00575,-0.992223 0.26325,-0.263334 v -0.311111 h -0.68063 l 0.336375,-0.328888 H 53.238 Z M 49.191375,52.764444 52.5675,49.43 h 5.22 v -1.111111 h -3.44925 l -0.792,0.782223 h -1.314 l -0.228375,-0.225556 -2.8125,2.777777 z"
     id="path48"
     inkscape:connector-curvature="0"
     style="fill:#1a0900;fill-opacity:0.2;stroke-width:1.11803401" />
  <path
     d="m 48,30.777778 c -13.66875,0 -24.75,10.944444 -24.75,24.444444 0,13.5 11.08125,24.444445 24.75,24.444445 13.66875,0 24.75,-10.944445 24.75,-24.444445 0,-13.5 -11.08125,-24.444444 -24.75,-24.444444 z m 0,48.333333 c -13.336875,0 -24.1875,-10.716667 -24.1875,-23.888889 C 23.8125,42.05 34.663125,31.333333 48,31.333333 c 13.336875,0 24.1875,10.716667 24.1875,23.888889 0,13.172222 -10.850625,23.888889 -24.1875,23.888889 z"
     id="path50"
     inkscape:connector-curvature="0"
     style="fill:#1a0900;fill-opacity:0.1;stroke-width:1.11803401" />
</svg>
