<svg xmlns="http://www.w3.org/2000/svg" xmlns:xlink="http://www.w3.org/1999/xlink" width="192" height="192" viewBox="0 0 192 192"><defs><style>.cls-1{fill:none;}.cls-2{opacity:0.01;}.cls-2,.cls-3,.cls-4,.cls-5{isolation:isolate;}.cls-3{opacity:0.02;}.cls-4{opacity:0.04;}.cls-5{opacity:0.06;}.cls-6{fill:#6d29ef;}.cls-7{fill:url(#未命名的渐变_39);}.cls-8{fill:url(#未命名的渐变_2);}.cls-9{fill:url(#未命名的渐变_18);}.cls-10{fill:#fafafa;}.cls-11{fill:#fff;}</style><linearGradient id="未命名的渐变_39" x1="166.004" y1="27.998" x2="25.998" y2="168.004" gradientTransform="matrix(1, 0, 0, -1, 0, 194)" gradientUnits="userSpaceOnUse"><stop offset="0" stop-opacity="0.1"/><stop offset="0.5" stop-color="gray" stop-opacity="0.05"/><stop offset="1" stop-color="#fff" stop-opacity="0.12"/></linearGradient><linearGradient id="未命名的渐变_2" x1="166.012" y1="75.988" x2="25.987" y2="216.012" gradientTransform="matrix(1, 0, 0, -1, 0, 242)" gradientUnits="userSpaceOnUse"><stop offset="0" stop-opacity="0.04"/><stop offset="0.5" stop-color="gray" stop-opacity="0"/><stop offset="1" stop-color="#fff" stop-opacity="0.1"/></linearGradient><linearGradient id="未命名的渐变_18" x1="163.948" y1="168.056" x2="66.946" y2="71.054" gradientUnits="userSpaceOnUse"><stop offset="0" stop-opacity="0.04"/><stop offset="1" stop-opacity="0.12"/></linearGradient></defs><title>sony_music</title><g id="图层_2" data-name="图层 2"><g id="图层_1-2" data-name="图层 1"><rect class="cls-1" width="192" height="192"/><path class="cls-2" d="M96,190C27.3,190,3,165.7,3,97S27.3,4,96,4s93,24.3,93,93S164.7,190,96,190Z"/><path class="cls-3" d="M96,189C28.1,189,4,164.9,4,97S28.1,5,96,5s92,24.1,92,92S163.9,189,96,189Z"/><path class="cls-4" d="M96,188C28.8,188,5,164.2,5,97S28.8,6,96,6s91,23.8,91,91S163.2,188,96,188Z"/><path class="cls-5" d="M186,97c0,66.7-23.3,90-90,90S6,163.7,6,97,29.3,7,96,7,186,30.3,186,97Z"/><path class="cls-6" d="M186,96c0,66.7-23.3,90-90,90S6,162.7,6,96,29.3,6,96,6,186,29.3,186,96Z"/><path class="cls-7" d="M186,96c0,66.67-23.32,90-90,90S6,162.67,6,96,29.32,6,96,6,186,29.32,186,96Z"/><path class="cls-8" d="M96,6C29.3,6,6,29.3,6,96s23.3,90,90,90,90-23.3,90-90S162.7,6,96,6Zm68.6,158.6C151.2,178,130,184,96,184s-55.2-6-68.6-19.4S8,130,8,96s6-55.2,19.4-68.6S62,8,96,8s55.2,6,68.6,19.4S184,62,184,96,178,151.2,164.6,164.6Z"/><path class="cls-9" d="M185.923,102.388,133.456,49.921,74,64v55L48.125,139.875,94.24,185.99c.586,0,1.167.01,1.76.01C160.5,186,184.43,164.166,185.923,102.388Z"/><path class="cls-10" d="M69.348,54.037v63.947a19.37,19.37,0,0,0-12.329.4c-8.723,3.1-13.836,11.124-11.42,17.928s11.446,9.81,20.169,6.712c7.286-2.587,12.019-8.612,12.019-14.492V67.361h48.774v50.623a19.37,19.37,0,0,0-12.329.4c-8.723,3.1-13.836,11.124-11.42,17.928s11.446,9.81,20.169,6.712c7.286-2.587,12.019-8.612,12.019-14.492V54.037a6.276,6.276,0,0,0-6.276-6.276h-53.1A6.276,6.276,0,0,0,69.348,54.037Z"/><path class="cls-11" d="M46.6,138.307c-2.416-6.8,2.7-14.831,11.42-17.928a19.37,19.37,0,0,1,12.329-.4V56.037a6.276,6.276,0,0,1,6.276-6.276h53.1a6.26,6.26,0,0,1,5.024,2.526,6.276,6.276,0,0,0-6.024-4.526h-53.1a6.276,6.276,0,0,0-6.276,6.276v63.947a19.37,19.37,0,0,0-12.329.4c-8.723,3.1-13.836,11.124-11.42,17.928a10.312,10.312,0,0,0,1.042,2.1C46.629,138.372,46.611,138.341,46.6,138.307Z"/><path class="cls-11" d="M103.812,138.307c-2.416-6.8,2.7-14.831,11.42-17.928a19.37,19.37,0,0,1,12.329-.4V69.361h-1v48.623a19.37,19.37,0,0,0-12.329.4c-8.723,3.1-13.836,11.124-11.42,17.928a10.312,10.312,0,0,0,1.042,2.1C103.841,138.372,103.824,138.341,103.812,138.307Z"/></g></g></svg>