<?xml version="1.0" encoding="utf-8"?>
<!-- Generator: Adobe Illustrator 22.0.1, SVG Export Plug-In . SVG Version: 6.00 Build 0)  -->
<svg version="1.1" id="图层_1" xmlns="http://www.w3.org/2000/svg" xmlns:xlink="http://www.w3.org/1999/xlink" x="0px" y="0px"
	 viewBox="0 0 192 192" style="enable-background:new 0 0 192 192;" xml:space="preserve">
<style type="text/css">
	.st0{fill:none;}
	.st1{opacity:1.000000e-02;enable-background:new    ;}
	.st2{opacity:2.000000e-02;enable-background:new    ;}
	.st3{opacity:4.000000e-02;enable-background:new    ;}
	.st4{opacity:6.000000e-02;enable-background:new    ;}
	.st5{fill:#06517F;}
	.st6{fill:url(#SVGID_1_);}
	.st7{fill:url(#SVGID_2_);}
	.st8{fill:url(#SVGID_3_);}
	.st9{fill:#C8DAEA;}
	.st10{fill:#A9C9DD;}
	.st11{fill:#FAFAFA;}
	.st12{fill:#FFFFFF;}
</style>
<title>telegram</title>
<g id="图层_2_1_">
	<g id="图层_1-2">
		<rect class="st0" width="192" height="192"/>
		<path class="st1" d="M96,190c-68.7,0-93-24.3-93-93S27.3,4,96,4s93,24.3,93,93S164.7,190,96,190z"/>
		<path class="st2" d="M96,189c-67.9,0-92-24.1-92-92S28.1,5,96,5s92,24.1,92,92S163.9,189,96,189z"/>
		<path class="st3" d="M96,188c-67.2,0-91-23.8-91-91S28.8,6,96,6s91,23.8,91,91S163.2,188,96,188z"/>
		<path class="st4" d="M186,97c0,66.7-23.3,90-90,90S6,163.7,6,97S29.3,7,96,7S186,30.3,186,97z"/>
		<path class="st5" d="M186,96c0,66.7-23.3,90-90,90S6,162.7,6,96S29.3,6,96,6S186,29.3,186,96z"/>
		
			<linearGradient id="SVGID_1_" gradientUnits="userSpaceOnUse" x1="166.0041" y1="472.0022" x2="25.9978" y2="331.9959" gradientTransform="matrix(1 0 0 1 0 -306)">
			<stop  offset="0" style="stop-color:#000000;stop-opacity:0.1"/>
			<stop  offset="0.5" style="stop-color:#808080;stop-opacity:5.000000e-02"/>
			<stop  offset="1" style="stop-color:#FFFFFF;stop-opacity:0.12"/>
		</linearGradient>
		<path class="st6" d="M186,96c0,66.7-23.3,90-90,90S6,162.7,6,96S29.3,6,96,6S186,29.3,186,96z"/>
		
			<linearGradient id="SVGID_2_" gradientUnits="userSpaceOnUse" x1="166.0128" y1="424.0122" x2="25.9872" y2="283.9878" gradientTransform="matrix(1 0 0 1 0 -258)">
			<stop  offset="0" style="stop-color:#000000;stop-opacity:4.000000e-02"/>
			<stop  offset="0.5" style="stop-color:#808080;stop-opacity:0"/>
			<stop  offset="1" style="stop-color:#FFFFFF;stop-opacity:0.1"/>
		</linearGradient>
		<path class="st7" d="M96,6C29.3,6,6,29.3,6,96s23.3,90,90,90s90-23.3,90-90S162.7,6,96,6z M164.6,164.6C151.2,178,130,184,96,184
			s-55.2-6-68.6-19.4S8,130,8,96s6-55.2,19.4-68.6S62,8,96,8s55.2,6,68.6,19.4S184,62,184,96S178,151.2,164.6,164.6z"/>
		
			<linearGradient id="SVGID_3_" gradientUnits="userSpaceOnUse" x1="172.2184" y1="34.2192" x2="73.7195" y2="132.7191" gradientTransform="matrix(1 0 0 -1 0 194)">
			<stop  offset="0" style="stop-color:#000000;stop-opacity:2.000000e-02"/>
			<stop  offset="1" style="stop-color:#000000;stop-opacity:0.1"/>
		</linearGradient>
		<path class="st8" d="M186,96.1l-41.8-41.7L37,98l37,37l1,5l44.8,44.8C168.3,179.2,186,154.1,186,96.1z"/>
		<path class="st9" d="M77.3,140.8c-3.3,0-2.7-1.2-3.9-4.4l-9.7-32L138.5,60"/>
		<path class="st10" d="M77.3,140.8c2.6,0,3.7-1.2,5.1-2.6L96,125l-17-10.2"/>
		<path class="st11" d="M79,114.7l41.1,30.4c4.7,2.6,8.1,1.2,9.2-4.4l16.7-78.8c1.7-6.9-2.6-10-7.1-7.9L40.8,91.9
			c-6.7,2.7-6.7,6.4-1.2,8.1l25.2,7.9L123.1,71c2.8-1.7,5.3-0.8,3.2,1.1"/>
		<path class="st12" d="M41.8,93.9L140,56c2.4-1.1,4.8-0.7,6.2,1c-0.9-3.3-4-4.5-7.2-3L40.8,91.9c-5.1,2.1-6.3,4.7-4.2,6.6
			C36.6,96.9,38.3,95.2,41.8,93.9z"/>
		<path class="st12" d="M127.3,74.1c1.5-1.3,0.6-2.2-1.1-1.9L79,114.7l1.8,1.3L127.3,74.1z"/>
	</g>
</g>
</svg>
