<svg xmlns="http://www.w3.org/2000/svg" xmlns:xlink="http://www.w3.org/1999/xlink" viewBox="0 0 192 192"><defs><style>.cls-1{fill:none;}.cls-2{opacity:0.01;}.cls-3{opacity:0.02;}.cls-4{opacity:0.04;}.cls-5{opacity:0.06;}.cls-6{fill:#f5f5f5;}.cls-7{fill:url(#未命名的渐变_8);}.cls-8{fill:url(#未命名的渐变_46);}.cls-9{fill:url(#未命名的渐变_29);}.cls-10{fill:#ff41a1;}.cls-11{fill:#6e3cff;}.cls-12{fill:#6e11aa;}.cls-13{fill:#fafafa;}.cls-14{fill:#fff;}</style><linearGradient id="未命名的渐变_8" x1="166" y1="166" x2="26" y2="26" gradientUnits="userSpaceOnUse"><stop offset="0" stop-opacity="0.1"/><stop offset="0.5" stop-color="gray" stop-opacity="0.05"/><stop offset="1" stop-color="#fff" stop-opacity="0.12"/></linearGradient><linearGradient id="未命名的渐变_46" x1="166" y1="166" x2="26" y2="26" gradientUnits="userSpaceOnUse"><stop offset="0" stop-opacity="0.05"/><stop offset="0.5" stop-color="gray" stop-opacity="0"/><stop offset="1" stop-color="#fff" stop-opacity="0.1"/></linearGradient><linearGradient id="未命名的渐变_29" x1="166.15" y1="165.85" x2="65.19" y2="64.89" gradientUnits="userSpaceOnUse"><stop offset="0" stop-opacity="0.02"/><stop offset="1" stop-opacity="0.14"/></linearGradient></defs><title>tencent_huayang</title><g id="图层_2" data-name="图层 2"><g id="图层_2-2" data-name="图层 2"><rect class="cls-1" width="192" height="192"/><path class="cls-2" d="M96,190C27.34,190,3,165.66,3,97S27.34,4,96,4s93,24.34,93,93S164.66,190,96,190Z"/><path class="cls-3" d="M96,189C28.07,189,4,164.92,4,97S28.07,5,96,5s92,24.07,92,92S163.93,189,96,189Z"/><path class="cls-4" d="M96,188C28.81,188,5,164.19,5,97S28.81,6,96,6s91,23.81,91,91S163.19,188,96,188Z"/><path class="cls-5" d="M186,97c0,66.67-23.32,90-90,90S6,163.67,6,97,29.32,7,96,7,186,30.32,186,97Z"/><path class="cls-6" d="M186,96c0,66.67-23.32,90-90,90S6,162.67,6,96,29.32,6,96,6,186,29.32,186,96Z"/><path class="cls-7" d="M186,96c0,66.67-23.32,90-90,90S6,162.67,6,96,29.32,6,96,6,186,29.32,186,96Z"/><path class="cls-8" d="M96,6C29.32,6,6,29.32,6,96s23.32,90,90,90,90-23.33,90-90S162.68,6,96,6Zm68.59,158.59C151.17,178,130,184,96,184s-55.17-6-68.59-19.41S8,130,8,96s6-55.17,19.41-68.59S62,8,96,8s55.17,6,68.59,19.41S184,62,184,96,178,151.16,164.59,164.59Z"/><path class="cls-9" d="M185.9,103.3,145.8,63.2l-9.31,9.31L102.17,38.2,102,80.79H49.29L67.12,98.62,47,129l56.88,56.88C162.16,184.11,184.26,161.81,185.9,103.3Z"/><path class="cls-10" d="M121.33,96c29.84-18.66,30-24.12,26.63-30s-8.22-8.45-39.3,8.06c.15,4.31.25,9.11.3,14.45C113.57,91.23,117.67,93.71,121.33,96Z"/><path class="cls-11" d="M70.67,96c-29.84,18.66-30,24.12-26.63,30s8.22,8.45,39.3-8.06c-.15-4.31-.25-9.11-.3-14.45C78.43,100.77,74.33,98.29,70.67,96Z"/><path class="cls-10" d="M83.33,74.06C52.26,57.55,47.44,60.12,44,66S40.83,77.34,70.67,96c3.66-2.29,7.76-4.77,12.36-7.49C83.08,83.17,83.18,78.38,83.33,74.06Z"/><path class="cls-11" d="M121.33,96c-3.66,2.29-7.76,4.77-12.36,7.49,0,5.34-.15,10.14-.3,14.45,31.08,16.51,35.9,13.95,39.3,8.06S151.17,114.66,121.33,96Z"/><path class="cls-11" d="M108.67,74.06C107.42,38.89,102.79,36,96,36S84.58,38.89,83.33,74.06c3.81,2,8,4.33,12.67,7C100.65,78.4,104.85,76.09,108.67,74.06Z"/><path class="cls-10" d="M83.33,117.94C84.58,153.11,89.21,156,96,156s11.42-2.89,12.67-38.06c-3.81-2-8-4.33-12.67-7C91.35,113.6,87.15,115.91,83.33,117.94Z"/><path class="cls-12" d="M109,88.51c0-5.34-.15-10.14-.3-14.45-3.81,2-8,4.33-12.67,7q3.12,1.76,6.5,3.72T109,88.51Z"/><path class="cls-12" d="M83,88.51c-4.6,2.71-8.7,5.2-12.36,7.49,3.66,2.29,7.76,4.77,12.36,7.49q0-3.58,0-7.49T83,88.51Z"/><path class="cls-12" d="M96,111c4.65,2.63,8.85,4.94,12.67,7,.15-4.31.25-9.11.3-14.45q-3.08,1.82-6.47,3.77T96,111Z"/><path class="cls-13" d="M109,88.51q-3.08-1.82-6.47-3.77T96,81c-4.65-2.63-8.85-4.94-12.67-7-.15,4.31-.25,9.11-.3,14.45q0,3.58,0,7.49t0,7.49c0,5.34.15,10.14.3,14.45,3.81-2,8-4.33,12.67-7q3.12-1.76,6.5-3.72t6.47-3.77c4.6-2.71,8.7-5.2,12.36-7.49C117.67,93.71,113.57,91.23,109,88.51Z"/><path class="cls-14" d="M84,105.49q0-3.58,0-7.49t0-7.49c0-5.34.15-10.14.3-14.45,3.81,2,8,4.33,12.67,7q3.12,1.76,6.5,3.72T110,90.51c3.74,2.21,7.14,4.25,10.25,6.18l1.11-.69c-3.66-2.29-7.76-4.77-12.36-7.49q-3.08-1.82-6.47-3.77T96,81c-4.65-2.63-8.85-4.94-12.67-7-.15,4.31-.25,9.11-.3,14.45q0,3.58,0,7.49t0,7.49c0,5.34.15,10.14.3,14.45l.92-.49C84.15,113.79,84.07,109.83,84,105.49Z"/></g></g></svg>