<svg xmlns="http://www.w3.org/2000/svg" xmlns:xlink="http://www.w3.org/1999/xlink" width="192" height="192" viewBox="0 0 192 192"><defs><style>.cls-1{fill:none;}.cls-2{opacity:0.01;}.cls-2,.cls-3,.cls-4,.cls-5{isolation:isolate;}.cls-3{opacity:0.02;}.cls-4{opacity:0.04;}.cls-5{opacity:0.06;}.cls-6{fill:#00fafa;}.cls-7{fill:url(#未命名的渐变_3);}.cls-8{fill:#002626;opacity:0.85;}.cls-9{opacity:0.1;}.cls-10{opacity:0.2;}.cls-11{fill:url(#未命名的渐变_2);}.cls-12{fill:url(#未命名的渐变_7);}.cls-13{fill:#d4fffd;}</style><linearGradient id="未命名的渐变_3" x1="166.004" y1="27.998" x2="25.998" y2="168.004" gradientTransform="matrix(1, 0, 0, -1, 0, 194)" gradientUnits="userSpaceOnUse"><stop offset="0" stop-opacity="0.1"/><stop offset="0.5" stop-color="gray" stop-opacity="0.05"/><stop offset="1" stop-color="#fff" stop-opacity="0.12"/></linearGradient><linearGradient id="未命名的渐变_2" x1="166.012" y1="75.988" x2="25.987" y2="216.012" gradientTransform="matrix(1, 0, 0, -1, 0, 242)" gradientUnits="userSpaceOnUse"><stop offset="0" stop-opacity="0.04"/><stop offset="0.5" stop-color="gray" stop-opacity="0"/><stop offset="1" stop-color="#fff" stop-opacity="0.1"/></linearGradient><linearGradient id="未命名的渐变_7" x1="166.048" y1="165.947" x2="60.601" y2="60.5" gradientUnits="userSpaceOnUse"><stop offset="0" stop-opacity="0.06"/><stop offset="1" stop-opacity="0.18"/></linearGradient></defs><title>adobe_scan</title><g id="图层_2" data-name="图层 2"><g id="图层_2-2" data-name="图层 2"><rect class="cls-1" width="192" height="192"/><path class="cls-2" d="M96,190C27.3,190,3,165.7,3,97S27.3,4,96,4s93,24.3,93,93S164.7,190,96,190Z"/><path class="cls-3" d="M96,189C28.1,189,4,164.9,4,97S28.1,5,96,5s92,24.1,92,92S163.9,189,96,189Z"/><path class="cls-4" d="M96,188C28.8,188,5,164.2,5,97S28.8,6,96,6s91,23.8,91,91S163.2,188,96,188Z"/><path class="cls-5" d="M186,97c0,66.7-23.3,90-90,90S6,163.7,6,97,29.3,7,96,7,186,30.3,186,97Z"/><path class="cls-6" d="M186,96c0,66.7-23.3,90-90,90S6,162.7,6,96,29.3,6,96,6,186,29.3,186,96Z"/><path class="cls-7" d="M186,96c0,66.67-23.32,90-90,90S6,162.67,6,96,29.32,6,96,6,186,29.32,186,96Z"/><path class="cls-8" d="M172,96c0,56.3-19.692,76-76,76S20,152.3,20,96,39.692,20,96,20,172,39.692,172,96Z"/><path class="cls-9" d="M22,100c0-56.3,19.692-76,76-76,35.027,0,55.879,7.628,66.642,26.942C154.573,28.679,133.347,20,96,20,39.692,20,20,39.7,20,96c0,21.277,2.819,37.32,9.358,49.054C24.246,133.751,22,118.958,22,100Z"/><path class="cls-10" d="M21,98c0-56.3,19.692-76,76-76,35.906,0,56.905,8.029,67.422,28.433C154.261,28.539,133.066,20,96,20,39.692,20,20,39.7,20,96c0,20.4,2.6,35.97,8.578,47.564C23.3,132.2,21,117.239,21,98Z"/><path class="cls-11" d="M96,6C29.3,6,6,29.3,6,96s23.3,90,90,90,90-23.3,90-90S162.7,6,96,6Zm68.6,158.6C151.2,178,130,184,96,184s-55.2-6-68.6-19.4S8,130,8,96s6-55.2,19.4-68.6S62,8,96,8s55.2,6,68.6,19.4S184,62,184,96,178,151.2,164.6,164.6Z"/><path class="cls-12" d="M109.345,185.647c52.293-2.893,73.465-24.132,76.312-76.493L131.3,54.793,49.164,71.938v48.919l11.685,11.685v4.609Z"/><path class="cls-6" d="M60.7,54.793v82.414L143,121V71Zm35.662,67.236a25.884,25.884,0,1,1,25.883-25.883A25.884,25.884,0,0,1,96.365,122.029Z"/><path class="cls-13" d="M128.766,57.871v76.258l-77.235-15.21V73.081l77.235-15.21m2.531-3.078L49,71v50l82.3,16.207V54.793Z"/><path class="cls-13" d="M96.365,76.066a20.08,20.08,0,1,0,20.079,20.08A20.08,20.08,0,0,0,96.365,76.066Zm0,37.53a17.451,17.451,0,1,1,17.451-17.45A17.451,17.451,0,0,1,96.365,113.6Z"/></g></g></svg>