<?xml version="1.0" encoding="utf-8"?>
<!-- Generator: Adobe Illustrator 22.0.1, SVG Export Plug-In . SVG Version: 6.00 Build 0)  -->
<svg version="1.1" id="图层_1" xmlns="http://www.w3.org/2000/svg" xmlns:xlink="http://www.w3.org/1999/xlink" x="0px" y="0px"
	 viewBox="0 0 192 192" style="enable-background:new 0 0 192 192;" xml:space="preserve">
<style type="text/css">
	.st0{fill:none;}
	.st1{opacity:1.000000e-02;enable-background:new    ;}
	.st2{opacity:2.000000e-02;enable-background:new    ;}
	.st3{opacity:4.000000e-02;enable-background:new    ;}
	.st4{opacity:6.000000e-02;enable-background:new    ;}
	.st5{fill:#59C959;}
	.st6{fill:url(#SVGID_1_);}
	.st7{fill:url(#SVGID_2_);}
	.st8{fill:url(#SVGID_3_);}
	.st9{opacity:0.4;fill:url(#SVGID_4_);enable-background:new    ;}
	.st10{fill:#FAFAFA;}
	.st11{fill:#FFFFFF;}
</style>
<title>adguard</title>
<g id="图层_2_1_">
	<g id="图层_1-2">
		<rect class="st0" width="192" height="192"/>
		<path class="st1" d="M96,190c-68.7,0-93-24.3-93-93S27.3,4,96,4s93,24.3,93,93S164.7,190,96,190z"/>
		<path class="st2" d="M96,189c-67.9,0-92-24.1-92-92S28.1,5,96,5s92,24.1,92,92S163.9,189,96,189z"/>
		<path class="st3" d="M96,188c-67.2,0-91-23.8-91-91S28.8,6,96,6s91,23.8,91,91S163.2,188,96,188z"/>
		<path class="st4" d="M186,97c0,66.7-23.3,90-90,90S6,163.7,6,97S29.3,7,96,7S186,30.3,186,97z"/>
		<path class="st5" d="M186,96c0,66.7-23.3,90-90,90S6,162.7,6,96S29.3,6,96,6S186,29.3,186,96z"/>
		
			<linearGradient id="SVGID_1_" gradientUnits="userSpaceOnUse" x1="166.0041" y1="472.0022" x2="25.9978" y2="331.9959" gradientTransform="matrix(1 0 0 1 0 -306)">
			<stop  offset="0" style="stop-color:#000000;stop-opacity:0.1"/>
			<stop  offset="0.5" style="stop-color:#808080;stop-opacity:5.000000e-02"/>
			<stop  offset="1" style="stop-color:#FFFFFF;stop-opacity:0.15"/>
		</linearGradient>
		<path class="st6" d="M186,96c0,66.7-23.3,90-90,90S6,162.7,6,96S29.3,6,96,6S186,29.3,186,96z"/>
		
			<linearGradient id="SVGID_2_" gradientUnits="userSpaceOnUse" x1="166.0128" y1="424.0122" x2="25.9872" y2="283.9878" gradientTransform="matrix(1 0 0 1 0 -258)">
			<stop  offset="0" style="stop-color:#000000;stop-opacity:4.000000e-02"/>
			<stop  offset="0.5" style="stop-color:#808080;stop-opacity:0"/>
			<stop  offset="1" style="stop-color:#FFFFFF;stop-opacity:0.1"/>
		</linearGradient>
		<path class="st7" d="M96,6C29.3,6,6,29.3,6,96s23.3,90,90,90s90-23.3,90-90S162.7,6,96,6z M164.6,164.6C151.2,178,130,184,96,184
			s-55.2-6-68.6-19.4S8,130,8,96s6-55.2,19.4-68.6S62,8,96,8s55.2,6,68.6,19.4S184,62,184,96S178,151.2,164.6,164.6z"/>
		
			<linearGradient id="SVGID_3_" gradientUnits="userSpaceOnUse" x1="174.2099" y1="36.2101" x2="59.71" y2="150.71" gradientTransform="matrix(1 0 0 -1 0 194)">
			<stop  offset="0" style="stop-color:#000000;stop-opacity:2.000000e-02"/>
			<stop  offset="1" style="stop-color:#000000;stop-opacity:0.1"/>
		</linearGradient>
		<path class="st8" d="M186,96c0-2.7,0-5.4-0.1-8l-35.6-35.6L112,46H82l-32,7l-4,13l7,36l17,33l49.8,49.8
			C168.3,179.2,186,154,186,96z"/>
		
			<linearGradient id="SVGID_4_" gradientUnits="userSpaceOnUse" x1="129.6965" y1="79.7242" x2="62.3703" y2="147.0503" gradientTransform="matrix(1 0 0 -1 0 194)">
			<stop  offset="0" style="stop-color:#42E402;stop-opacity:0.1"/>
			<stop  offset="1" style="stop-color:#009F02"/>
		</linearGradient>
		<path class="st9" d="M58.8,100.9c-8.3-19.5-8.1-42.3-8.1-42.3c13.9-6,28.8-9.3,43.9-9.7c16.2-0.3,32.2,3.1,46.9,9.8
			c0.1,1.3-0.2,17.6-4,30.6c-3.5,12.4-9.4,23.9-17.5,33.9C113.1,131.7,105,139,96,145C96,145,71.2,129.9,58.8,100.9z"/>
		<path class="st10" d="M72.2,85.1c1.9-1.2,6.7-2.5,9.7,0.9s12.5,14.2,12.5,14.2s24-26.9,27.9-31s6.7-1.2,6.7-1.2l-34.6,48.4
			l-25-29.4C69.4,86.9,70.3,86.4,72.2,85.1z M96.1,156.7c1-0.6,18.3-10.8,30.8-26.6c13.2-16.7,17.5-29.4,20.1-38.5
			c3.5-12.4,4-31.2,4.1-37.2c0-1.1-0.6-2.2-1.6-2.8c-5.3-3.1-24-12.4-53.9-12.4c-18.3,0.1-36.3,4.3-52.7,12.3
			c-1,0.5-1.7,1.6-1.7,2.7c-0.2,6.4-0.1,28.3,8,48.5C63.8,139.4,96.1,156.7,96.1,156.7z M58.8,100.9c-8.3-19.5-8.1-42.3-8.1-42.3
			c13.9-6,28.8-9.3,43.9-9.7c16.2-0.3,32.2,3.1,46.9,9.8c0.1,1.3-0.2,17.6-4,30.6c-3.5,12.4-9.4,23.9-17.5,33.9
			C113.1,131.7,105,139,96,145C96,145,71.2,129.9,58.8,100.9z"/>
		<path class="st11" d="M122.2,69.1c-3.9,4.2-27.9,31-27.9,31s-9.5-10.9-12.5-14.2s-7.8-2.1-9.7-0.9c-2,1.3-2.8,1.9-2.8,1.9l1.4,1.7
			c0.4-0.3,1.2-0.8,2.4-1.6c1.9-1.2,6.7-2.5,9.7,0.9s12.5,14.2,12.5,14.2s24-26.9,27.9-31c2-2.2,3.8-2.4,5-2.1l0.8-1.1
			C129,67.9,126.1,64.9,122.2,69.1z"/>
		<path class="st11" d="M50,104.8c-8.1-20.2-8.2-42.1-8-48.5c0-1.2,0.7-2.2,1.7-2.7c16.4-8,34.5-12.2,52.7-12.3
			c29.9,0,48.6,9.4,53.9,12.4c0.2,0.1,0.4,0.3,0.6,0.4c-0.1-1-0.7-1.9-1.6-2.4c-5.3-3.1-24-12.4-53.9-12.4
			c-18.3,0.1-36.3,4.3-52.7,12.3c-1,0.5-1.7,1.6-1.7,2.7c-0.2,6.4-0.1,28.3,8,48.5c1.1,2.8,2.4,5.5,3.7,8.1
			C51.8,109,50.9,107,50,104.8z"/>
		<path class="st11" d="M97,147c9-6,17.1-13.4,23.9-21.8c8-10,14-21.5,17.5-33.9c3.9-13,4.1-29.3,4-30.6c0,0-0.3-0.2-1-0.5
			c-0.1,4.6-0.7,18-4,29.1c-3.5,12.4-9.4,23.9-17.5,33.9C113.1,131.7,105,139,96,145c-14.5-9.7-26.3-22.8-34.5-38.2
			C74.4,133.2,97,147,97,147z"/>
	</g>
</g>
</svg>
