<svg xmlns="http://www.w3.org/2000/svg" xmlns:xlink="http://www.w3.org/1999/xlink" width="192" height="192" viewBox="0 0 192 192"><defs><style>.cls-1,.cls-3,.cls-4,.cls-5,.cls-6{isolation:isolate;}.cls-2{fill:none;}.cls-3{opacity:0.01;}.cls-4{opacity:0.02;}.cls-5{opacity:0.04;}.cls-6{opacity:0.06;}.cls-7{fill:#33b1ff;}.cls-8{fill:#66ffa4;opacity:0.15;}.cls-9{fill:#d62cff;opacity:0.2;}.cls-10{fill:url(#未命名的渐变_48);}.cls-11{fill:url(#未命名的渐变_2);}.cls-12,.cls-13{mix-blend-mode:soft-light;}.cls-12{fill:url(#未命名的渐变_107);}.cls-13,.cls-14{fill:#fafafa;}.cls-13{opacity:0.5;}.cls-15{fill:#fff;}</style><linearGradient id="未命名的渐变_48" x1="166.004" y1="27.998" x2="25.998" y2="168.004" gradientTransform="matrix(1, 0, 0, -1, 0, 194)" gradientUnits="userSpaceOnUse"><stop offset="0" stop-opacity="0.1"/><stop offset="0.5" stop-color="gray" stop-opacity="0.05"/><stop offset="1" stop-color="#fff" stop-opacity="0.1"/></linearGradient><linearGradient id="未命名的渐变_2" x1="166.012" y1="75.988" x2="25.987" y2="216.012" gradientTransform="matrix(1, 0, 0, -1, 0, 242)" gradientUnits="userSpaceOnUse"><stop offset="0" stop-opacity="0.04"/><stop offset="0.5" stop-color="gray" stop-opacity="0"/><stop offset="1" stop-color="#fff" stop-opacity="0.1"/></linearGradient><linearGradient id="未命名的渐变_107" x1="164.912" y1="167.094" x2="67.409" y2="69.591" gradientUnits="userSpaceOnUse"><stop offset="0" stop-opacity="0.1"/><stop offset="1" stop-opacity="0.3"/></linearGradient></defs><title>samsung_music</title><g class="cls-1"><g id="图层_2" data-name="图层 2"><g id="图层_1-2" data-name="图层 1"><rect class="cls-2" width="192" height="192"/><path class="cls-3" d="M96,190C27.3,190,3,165.7,3,97S27.3,4,96,4s93,24.3,93,93S164.7,190,96,190Z"/><path class="cls-4" d="M96,189C28.1,189,4,164.9,4,97S28.1,5,96,5s92,24.1,92,92S163.9,189,96,189Z"/><path class="cls-5" d="M96,188C28.8,188,5,164.2,5,97S28.8,6,96,6s91,23.8,91,91S163.2,188,96,188Z"/><path class="cls-6" d="M186,97c0,66.7-23.3,90-90,90S6,163.7,6,97,29.3,7,96,7,186,30.3,186,97Z"/><path class="cls-7" d="M6,96c0,66.7,23.3,90,90,90s90-23.3,90-90S162.7,6,96,6,6,29.3,6,96Z"/><path class="cls-8" d="M96,6C75.888,6,59.728,8.123,46.957,12.911A150.042,150.042,0,0,0,179.089,145.043C183.877,132.272,186,116.112,186,96,186,29.3,162.7,6,96,6Z"/><path class="cls-9" d="M12.911,46.957C8.123,59.728,6,75.888,6,96c0,66.7,23.3,90,90,90,20.112,0,36.272-2.123,49.043-6.911A150.042,150.042,0,0,0,12.911,46.957Z"/><path class="cls-10" d="M186,96c0,66.67-23.32,90-90,90S6,162.67,6,96,29.32,6,96,6,186,29.32,186,96Z"/><path class="cls-11" d="M96,6C29.3,6,6,29.3,6,96s23.3,90,90,90,90-23.3,90-90S162.7,6,96,6Zm68.6,158.6C151.2,178,130,184,96,184s-55.2-6-68.6-19.4S8,130,8,96s6-55.2,19.4-68.6S62,8,96,8s55.2,6,68.6,19.4S184,62,184,96,178,151.2,164.6,164.6Z"/><path class="cls-12" d="M79,58l-7,58.459-1.575-.714-3.827-.9-3.093-.151-2.41-2.409L41.493,126v18.507l41.139,41.139c4.251.235,8.7.354,13.368.354,66.68,0,90-23.33,90-90q0-4.533-.147-8.8l-45.07-45.07Z"/><path class="cls-13" d="M76,123.438C76,136.6,66.6,146,55.318,146c-12.221,0-17.391-10.341-13.631-18.8,4.784-10.764,16.452-12.221,16.452-12.221S75.06,112.157,76,122.5Zm62-10.94c-.94-10.341-17.861-7.52-17.861-7.52s-11.668,1.457-16.452,12.221c-3.76,8.46,1.41,18.8,13.631,18.8C128.6,136,138,126.6,138,113.438ZM76.054,70.824,135.5,60.417a3,3,0,0,0,2.5-2.955V45L82.59,54.831A7.985,7.985,0,0,0,76,62.693Z"/><path class="cls-14" d="M55.279,150c-6.958,0-12.85-2.925-16.164-8.025a17.213,17.213,0,0,1-1.148-16.437c5.645-12.7,19.073-14.517,19.642-14.588a4,4,0,0,1,1.011,7.936c-.413.056-9.568,1.408-13.343,9.9a9.245,9.245,0,0,0,.546,8.827c1.837,2.827,5.2,4.385,9.456,4.385C64.812,142,72,134,72,123.4v-60.7a11.972,11.972,0,0,1,9.891-11.8l55.41-9.83a4,4,0,1,1,1.4,7.876l-55.41,9.831A3.98,3.98,0,0,0,80,62.693v60.7C80,138.313,69.142,150,55.279,150ZM142,113.4V67a4,4,0,0,0-8,0v46.4C134,124,126.812,132,117.279,132c-4.26,0-7.619-1.558-9.456-4.385a9.245,9.245,0,0,1-.546-8.827c3.77-8.481,12.9-9.842,13.341-9.9a4,4,0,0,0-1.009-7.936c-.569.071-14,1.886-19.642,14.588a17.213,17.213,0,0,0,1.148,16.437c3.314,5.1,9.206,8.025,16.164,8.025C131.142,140,142,128.313,142,113.4Z"/><path class="cls-15" d="M45.915,137.737a8.56,8.56,0,0,0,.908,1.878c1.837,2.827,5.2,4.385,9.456,4.385C65.812,144,73,136,73,125.4v-60.7a11.972,11.972,0,0,1,9.891-11.8l55.41-9.83a3.981,3.981,0,0,1,3.636,1.234,4,4,0,0,0-4.636-3.234l-55.41,9.83A11.972,11.972,0,0,0,72,62.693v60.7C72,134,64.812,142,55.279,142,51.083,142,47.77,140.483,45.915,137.737Z"/><path class="cls-15" d="M138,63a4,4,0,0,0-4,4v46.4C134,124,126.812,132,117.279,132c-4.2,0-7.509-1.517-9.364-4.263a8.56,8.56,0,0,0,.908,1.878c1.837,2.827,5.2,4.385,9.456,4.385,9.533,0,16.721-8,16.721-18.6V69a3.989,3.989,0,0,1,6.929-2.707A4,4,0,0,0,138,63Z"/><path class="cls-15" d="M100.967,117.538c5.645-12.7,19.073-14.517,19.642-14.588a3.972,3.972,0,0,1,3.413,1.246,3.984,3.984,0,0,0-4.413-3.246c-.569.071-14,1.886-19.642,14.588a17.247,17.247,0,0,0,.749,15.777A17.377,17.377,0,0,1,100.967,117.538Z"/><path class="cls-15" d="M38.967,127.538c5.645-12.7,19.073-14.517,19.642-14.588a3.977,3.977,0,0,1,3.413,1.247,3.986,3.986,0,0,0-4.413-3.247c-.569.071-14,1.886-19.642,14.588a17.247,17.247,0,0,0,.749,15.777A17.377,17.377,0,0,1,38.967,127.538Z"/></g></g></g></svg>