<?xml version="1.0" encoding="UTF-8" standalone="no"?>
<!-- Created with Inkscape (http://www.inkscape.org/) -->

<svg
   xmlns:dc="http://purl.org/dc/elements/1.1/"
   xmlns:cc="http://creativecommons.org/ns#"
   xmlns:rdf="http://www.w3.org/1999/02/22-rdf-syntax-ns#"
   xmlns:svg="http://www.w3.org/2000/svg"
   xmlns="http://www.w3.org/2000/svg"
   xmlns:sodipodi="http://sodipodi.sourceforge.net/DTD/sodipodi-0.dtd"
   xmlns:inkscape="http://www.inkscape.org/namespaces/inkscape"
   version="1.1"
   id="svg2"
   xml:space="preserve"
   width="106.66667"
   height="106.66667"
   viewBox="0 0 106.66667 106.66667"
   sodipodi:docname="DS Cloud.svg"
   inkscape:version="0.92.4 5da689c313, 2019-01-14"><metadata
     id="metadata8"><rdf:RDF><cc:Work
         rdf:about=""><dc:format>image/svg+xml</dc:format><dc:type
           rdf:resource="http://purl.org/dc/dcmitype/StillImage" /><dc:title></dc:title></cc:Work></rdf:RDF></metadata><defs
     id="defs6"><clipPath
       clipPathUnits="userSpaceOnUse"
       id="clipPath18"><path
         d="m 1,39.956 c 0,-28.892 10.105,-39 39,-39 v 0 c 28.894,0 39,10.108 39,39 v 0 c 0,28.894 -10.106,39 -39,39 v 0 c -28.895,0 -39,-10.106 -39,-39"
         id="path16"
         inkscape:connector-curvature="0" /></clipPath><linearGradient
       x1="0"
       y1="0"
       x2="1"
       y2="0"
       gradientUnits="userSpaceOnUse"
       gradientTransform="matrix(60.670349,-60.670349,-60.670349,-60.670349,9.6648254,70.291695)"
       spreadMethod="pad"
       id="linearGradient28"><stop
         style="stop-opacity:1;stop-color:#4abbfe"
         offset="0"
         id="stop24" /><stop
         style="stop-opacity:1;stop-color:#1eacff"
         offset="1"
         id="stop26" /></linearGradient><clipPath
       clipPathUnits="userSpaceOnUse"
       id="clipPath38"><path
         d="m 1,39.956 c 0,-28.892 10.105,-39 39,-39 v 0 c 28.894,0 39,10.108 39,39 v 0 c 0,28.894 -10.106,39 -39,39 v 0 c -28.895,0 -39,-10.106 -39,-39"
         id="path36"
         inkscape:connector-curvature="0" /></clipPath><linearGradient
       x1="0"
       y1="0"
       x2="1"
       y2="0"
       gradientUnits="userSpaceOnUse"
       gradientTransform="matrix(80,-80,-80,-80,0,79.956329)"
       spreadMethod="pad"
       id="linearGradient48"><stop
         style="stop-opacity:1;stop-color:#4abbfe"
         offset="0"
         id="stop44" /><stop
         style="stop-opacity:1;stop-color:#1eacff"
         offset="1"
         id="stop46" /></linearGradient><clipPath
       clipPathUnits="userSpaceOnUse"
       id="clipPath58"><path
         d="M 34.916,43.875 29.875,38.208 15.834,23.459 38.318,0.976 C 38.876,0.967 39.428,0.956 40,0.956 v 0 c 25.34,0 36.227,7.777 38.523,29.177 v 0 l -15.34,15.34 0.602,-4.23 -14.249,14.25 z"
         id="path56"
         inkscape:connector-curvature="0" /></clipPath><clipPath
       clipPathUnits="userSpaceOnUse"
       id="clipPath66"><path
         d="M -32768,32767 H 32767 V -32768 H -32768 Z"
         id="path64"
         inkscape:connector-curvature="0" /></clipPath><linearGradient
       x1="0"
       y1="0"
       x2="1"
       y2="0"
       gradientUnits="userSpaceOnUse"
       gradientTransform="matrix(34.83456,-34.83456,-34.83456,-34.83456,32.508179,41.466492)"
       spreadMethod="pad"
       id="linearGradient74"><stop
         style="stop-opacity:0.29999237;stop-color:#ffffff"
         offset="0"
         id="stop68" /><stop
         style="stop-opacity:0.29999237;stop-color:#ffffff"
         offset="0.0000001"
         id="stop70" /><stop
         style="stop-opacity:0;stop-color:#ffffff"
         offset="1"
         id="stop72" /></linearGradient><mask
       maskUnits="userSpaceOnUse"
       x="0"
       y="0"
       width="1"
       height="1"
       id="mask76"><g
         id="g86"><g
           clip-path="url(#clipPath66)"
           id="g84"><g
             id="g82"><g
               id="g80"><path
                 d="M -32768,32767 H 32767 V -32768 H -32768 Z"
                 style="fill:url(#linearGradient74);stroke:none"
                 id="path78"
                 inkscape:connector-curvature="0" /></g></g></g></g></mask><linearGradient
       x1="0"
       y1="0"
       x2="1"
       y2="0"
       gradientUnits="userSpaceOnUse"
       gradientTransform="matrix(34.83456,-34.83456,-34.83456,-34.83456,32.508179,41.466492)"
       spreadMethod="pad"
       id="linearGradient98"><stop
         style="stop-opacity:1;stop-color:#000000"
         offset="0"
         id="stop92" /><stop
         style="stop-opacity:1;stop-color:#000000"
         offset="0.0000001"
         id="stop94" /><stop
         style="stop-opacity:1;stop-color:#000000"
         offset="1"
         id="stop96" /></linearGradient><clipPath
       clipPathUnits="userSpaceOnUse"
       id="clipPath108"><path
         d="M 0,80 H 80 V 0 H 0 Z"
         id="path106"
         inkscape:connector-curvature="0" /></clipPath><clipPath
       clipPathUnits="userSpaceOnUse"
       id="clipPath116"><path
         d="m 52.88,20.02 h 1.99 v -0.14 h -1.99 z"
         id="path114"
         inkscape:connector-curvature="0" /></clipPath><clipPath
       clipPathUnits="userSpaceOnUse"
       id="clipPath136"><path
         d="M 0,80 H 80 V 0 H 0 Z"
         id="path134"
         inkscape:connector-curvature="0" /></clipPath><clipPath
       clipPathUnits="userSpaceOnUse"
       id="clipPath144"><path
         d="M 1.02344,79 H 78.9766 V 1 H 1.02344 Z"
         id="path142"
         inkscape:connector-curvature="0" /></clipPath><clipPath
       clipPathUnits="userSpaceOnUse"
       id="clipPath148"><path
         d="M 1.02344,79 H 78.9766 V 1 H 1.02344 Z"
         id="path146"
         inkscape:connector-curvature="0" /></clipPath><clipPath
       clipPathUnits="userSpaceOnUse"
       id="clipPath152"><path
         d="M 78.977,40 C 78.977,11.107 68.877,1 40,1 11.123,1 1.023,11.107 1.023,40 1.023,68.894 11.123,79 40,79 68.877,79 78.977,68.894 78.977,40"
         id="path150"
         inkscape:connector-curvature="0" /></clipPath><clipPath
       clipPathUnits="userSpaceOnUse"
       id="clipPath156"><path
         d="M -24534,24614 H 8232 V -8152 h -32766 z"
         id="path154"
         inkscape:connector-curvature="0" /></clipPath><clipPath
       clipPathUnits="userSpaceOnUse"
       id="clipPath160"><path
         d="M -24534,24614 H 8232 V -8152 h -32766 z"
         id="path158"
         inkscape:connector-curvature="0" /></clipPath><mask
       maskUnits="userSpaceOnUse"
       x="0"
       y="0"
       width="1"
       height="1"
       id="mask162"><g
         id="g174"><g
           clip-path="url(#clipPath156)"
           id="g172"><g
             id="g170"><g
               id="g164" /><g
               id="g168"><g
                 clip-path="url(#clipPath160)"
                 id="g166" /></g></g></g></g></mask><linearGradient
       x1="0"
       y1="0"
       x2="1"
       y2="0"
       gradientUnits="userSpaceOnUse"
       gradientTransform="matrix(0,-53.61993,-53.61993,0,40,74.818359)"
       spreadMethod="pad"
       id="linearGradient180"><stop
         style="stop-opacity:1;stop-color:#ffffff"
         offset="0"
         id="stop176" /><stop
         style="stop-opacity:1;stop-color:#e4e4e5"
         offset="1"
         id="stop178" /></linearGradient><mask
       maskUnits="userSpaceOnUse"
       x="0"
       y="0"
       width="1"
       height="1"
       id="mask182"><g
         id="g208"><g
           clip-path="url(#clipPath144)"
           id="g206"
           style="opacity:0.5"><g
             id="g204"><g
               id="g184" /><g
               id="g202"><g
                 clip-path="url(#clipPath148)"
                 id="g200"><g
                   id="g198"><g
                     clip-path="url(#clipPath152)"
                     id="g196"><g
                       id="g194"><g
                         id="g186" /><g
                         mask="url(#mask162)"
                         id="g192"><g
                           id="g190"><path
                             d="M 78.977,40 C 78.977,11.107 68.877,1 40,1 11.123,1 1.023,11.107 1.023,40 1.023,68.894 11.123,79 40,79 68.877,79 78.977,68.894 78.977,40"
                             style="fill:url(#linearGradient180);stroke:none"
                             id="path188"
                             inkscape:connector-curvature="0" /></g></g></g></g></g></g></g></g></g></g></mask><clipPath
       clipPathUnits="userSpaceOnUse"
       id="clipPath216"><path
         d="M 1.02344,79 H 78.9766 V 1 H 1.02344 Z"
         id="path214"
         inkscape:connector-curvature="0" /></clipPath><clipPath
       clipPathUnits="userSpaceOnUse"
       id="clipPath220"><path
         d="M 78.977,40 C 78.977,11.107 68.877,1 40,1 11.123,1 1.023,11.107 1.023,40 1.023,68.894 11.123,79 40,79 68.877,79 78.977,68.894 78.977,40"
         id="path218"
         inkscape:connector-curvature="0" /></clipPath><linearGradient
       x1="0"
       y1="0"
       x2="1"
       y2="0"
       gradientUnits="userSpaceOnUse"
       gradientTransform="matrix(0,-53.61993,-53.61993,0,40.000019,74.818184)"
       spreadMethod="pad"
       id="linearGradient226"><stop
         style="stop-opacity:1;stop-color:#ffffff"
         offset="0"
         id="stop222" /><stop
         style="stop-opacity:1;stop-color:#000000"
         offset="1"
         id="stop224" /></linearGradient><clipPath
       clipPathUnits="userSpaceOnUse"
       id="clipPath248"><path
         d="M 1,79 H 79 V 1 H 1 Z"
         id="path246"
         inkscape:connector-curvature="0" /></clipPath><clipPath
       clipPathUnits="userSpaceOnUse"
       id="clipPath252"><path
         d="M 1,79 H 79 V 1 H 1 Z"
         id="path250"
         inkscape:connector-curvature="0" /></clipPath><clipPath
       clipPathUnits="userSpaceOnUse"
       id="clipPath256"><path
         d="M -24534,24614 H 8232 V -8152 h -32766 z"
         id="path254"
         inkscape:connector-curvature="0" /></clipPath><clipPath
       clipPathUnits="userSpaceOnUse"
       id="clipPath260"><path
         d="M -24534,24614 H 8232 V -8152 h -32766 z"
         id="path258"
         inkscape:connector-curvature="0" /></clipPath><mask
       maskUnits="userSpaceOnUse"
       x="0"
       y="0"
       width="1"
       height="1"
       id="mask262"><g
         id="g274"><g
           clip-path="url(#clipPath256)"
           id="g272"><g
             id="g270"><g
               id="g264" /><g
               id="g268"><g
                 clip-path="url(#clipPath260)"
                 id="g266" /></g></g></g></g></mask><clipPath
       clipPathUnits="userSpaceOnUse"
       id="clipPath278"><path
         d="M 1,79 H 79 V 1 H 1 Z"
         id="path276"
         inkscape:connector-curvature="0" /></clipPath><clipPath
       clipPathUnits="userSpaceOnUse"
       id="clipPath282"><path
         d="M 39.999,1.975 C 11.57,1.975 1.976,11.57 1.976,40 c 0,28.429 9.594,38.024 38.023,38.024 28.43,0 38.024,-9.595 38.024,-38.024 0,-28.43 -9.594,-38.025 -38.024,-38.025 m 0,77.025 C 11.105,79 1,68.894 1,40 1,11.107 11.105,1 39.999,1 68.896,1 79,11.107 79,40 79,68.894 68.896,79 39.999,79"
         id="path280"
         inkscape:connector-curvature="0" /></clipPath><linearGradient
       x1="0"
       y1="0"
       x2="1"
       y2="0"
       gradientUnits="userSpaceOnUse"
       gradientTransform="matrix(0,-77.263527,-77.263527,0,40,78.75293)"
       spreadMethod="pad"
       id="linearGradient288"><stop
         style="stop-opacity:1;stop-color:#ffffff"
         offset="0"
         id="stop284" /><stop
         style="stop-opacity:1;stop-color:#231815"
         offset="1"
         id="stop286" /></linearGradient><mask
       maskUnits="userSpaceOnUse"
       x="0"
       y="0"
       width="1"
       height="1"
       id="mask290"><g
         id="g324"><g
           clip-path="url(#clipPath248)"
           id="g322"
           style="opacity:0.25"><g
             id="g320"><g
               id="g292" /><g
               id="g318"><g
                 clip-path="url(#clipPath252)"
                 id="g316"><g
                   id="g314"><g
                     id="g294" /><g
                     mask="url(#mask262)"
                     id="g312"><g
                       id="g296" /><g
                       id="g310"><g
                         clip-path="url(#clipPath278)"
                         id="g308"><g
                           id="g306"><g
                             clip-path="url(#clipPath282)"
                             id="g304"><g
                               id="g302"><g
                                 id="g300"><path
                                   d="M 39.999,1.975 C 11.57,1.975 1.976,11.57 1.976,40 c 0,28.429 9.594,38.024 38.023,38.024 28.43,0 38.024,-9.595 38.024,-38.024 0,-28.43 -9.594,-38.025 -38.024,-38.025 m 0,77.025 C 11.105,79 1,68.894 1,40 1,11.107 11.105,1 39.999,1 68.896,1 79,11.107 79,40 79,68.894 68.896,79 39.999,79"
                                   style="fill:url(#linearGradient288);stroke:none"
                                   id="path298"
                                   inkscape:connector-curvature="0" /></g></g></g></g></g></g></g></g></g></g></g></g></g></mask><clipPath
       clipPathUnits="userSpaceOnUse"
       id="clipPath332"><path
         d="M 1,79 H 79 V 1 H 1 Z"
         id="path330"
         inkscape:connector-curvature="0" /></clipPath><clipPath
       clipPathUnits="userSpaceOnUse"
       id="clipPath336"><path
         d="M 39.999,1.975 C 11.57,1.975 1.976,11.57 1.976,40 c 0,28.429 9.594,38.024 38.023,38.024 28.43,0 38.024,-9.595 38.024,-38.024 0,-28.43 -9.594,-38.025 -38.024,-38.025 m 0,77.025 C 11.105,79 1,68.894 1,40 1,11.107 11.105,1 39.999,1 68.896,1 79,11.107 79,40 79,68.894 68.896,79 39.999,79"
         id="path334"
         inkscape:connector-curvature="0" /></clipPath><linearGradient
       x1="0"
       y1="0"
       x2="1"
       y2="0"
       gradientUnits="userSpaceOnUse"
       gradientTransform="matrix(0,-77.263527,-77.263527,0,40,78.753128)"
       spreadMethod="pad"
       id="linearGradient342"><stop
         style="stop-opacity:1;stop-color:#ffffff"
         offset="0"
         id="stop338" /><stop
         style="stop-opacity:1;stop-color:#ffffff"
         offset="1"
         id="stop340" /></linearGradient></defs><sodipodi:namedview
     pagecolor="#ffffff"
     bordercolor="#666666"
     borderopacity="1"
     objecttolerance="10"
     gridtolerance="10"
     guidetolerance="10"
     inkscape:pageopacity="0"
     inkscape:pageshadow="2"
     inkscape:window-width="1366"
     inkscape:window-height="704"
     id="namedview4"
     showgrid="false"
     inkscape:zoom="1.5644737"
     inkscape:cx="70.931563"
     inkscape:cy="26.788567"
     inkscape:window-x="0"
     inkscape:window-y="27"
     inkscape:window-maximized="1"
     inkscape:current-layer="g10" /><g
     id="g10"
     inkscape:groupmode="layer"
     inkscape:label="DS Cloud"
     transform="matrix(1.3333333,0,0,-1.3333333,0,106.66667)"><g
       id="g12"
       transform="matrix(0.97115387,0,0,0.97060635,1.2788462,1.3220991)"><g
         id="g14"
         clip-path="url(#clipPath18)"><g
           id="g20"><g
             id="g22"><path
               d="m 1,39.956 c 0,-28.892 10.105,-39 39,-39 v 0 c 28.894,0 39,10.108 39,39 v 0 c 0,28.894 -10.106,39 -39,39 v 0 c -28.895,0 -39,-10.106 -39,-39"
               style="fill:url(#linearGradient28);stroke:none"
               id="path30"
               inkscape:connector-curvature="0" /></g></g></g></g><g
       id="g32"
       transform="matrix(0.97115387,0,0,0.97060635,1.2788462,1.3220991)"><g
         id="g34"
         clip-path="url(#clipPath38)"><g
           id="g40"><g
             id="g42"><path
               d="m 1,39.956 c 0,-28.892 10.105,-39 39,-39 v 0 c 28.894,0 39,10.108 39,39 v 0 c 0,28.894 -10.106,39 -39,39 v 0 c -28.895,0 -39,-10.106 -39,-39"
               style="fill:url(#linearGradient48);stroke:none"
               id="path50"
               inkscape:connector-curvature="0" /></g></g></g></g><g
       id="g52"
       transform="matrix(0.97115387,0,0,0.97060635,1.2788462,1.3220991)"><g
         id="g54"
         clip-path="url(#clipPath58)"><g
           id="g60"><g
             id="g62" /><g
             id="g88"
             mask="url(#mask76)"><g
               id="g90"><path
                 d="M 34.916,43.875 29.875,38.208 15.834,23.459 38.318,0.976 C 38.876,0.967 39.428,0.956 40,0.956 v 0 c 25.34,0 36.227,7.777 38.523,29.177 v 0 l -15.34,15.34 0.602,-4.23 -14.249,14.25 z"
                 style="fill:url(#linearGradient98);stroke:none"
                 id="path100"
                 inkscape:connector-curvature="0" /></g></g></g></g></g><g
       id="g102"
       transform="matrix(0.97115387,0,0,0.97060635,1.2788462,1.3220991)"><g
         id="g104"
         clip-path="url(#clipPath108)"><g
           id="g110"><g
             id="g112" /><g
             id="g124"><g
               clip-path="url(#clipPath116)"
               id="g122"
               style="opacity:0.19999701"><g
                 transform="translate(54.8701,20.0195)"
                 id="g120"><path
                   d="m 0,0 v -0.14 h -1.99 c 0.679,0 1.34,0.05 1.99,0.14"
                   style="fill:#ffffff;fill-opacity:1;fill-rule:nonzero;stroke:none"
                   id="path118"
                   inkscape:connector-curvature="0" /></g></g></g></g><g
           id="g126"
           transform="translate(41.833,35.667)"><path
             d="M 0,0 0.792,2.708 C 0.113,3.125 -0.944,3.663 -2.333,3.958 -3.429,4.19 -4.382,4.198 -5.083,4.148 -5.621,4.112 -6.35,3.988 -7.119,3.612 -9.211,2.589 -9.939,0.512 -10.103,0 c -0.03,0.716 -0.051,3.308 1.823,5.411 l 0.022,0.025 c 1.049,1.166 2.561,1.809 4.128,1.892 0.614,0.033 1.303,0.019 2.047,-0.078 C -0.053,6.984 1.261,6.331 2.101,5.82 2.38,6.564 2.628,7.208 3.042,8.5 l 5,-7.875 z M 6.212,-6.915 C 6.205,-6.924 6.197,-6.932 6.19,-6.94 5.141,-8.106 3.629,-8.749 2.062,-8.833 1.447,-8.866 0.759,-8.852 0.015,-8.754 c -2.031,0.266 -3.344,0.919 -4.183,1.429 -0.28,-0.743 -0.528,-1.388 -0.942,-2.679 l -5,7.875 8.042,0.625 -0.792,-2.709 c 0.678,-0.416 1.736,-0.955 3.125,-1.25 1.095,-0.232 2.049,-0.239 2.75,-0.189 0.538,0.036 1.266,0.159 2.036,0.535 2.093,1.023 2.82,3.101 2.984,3.613 0.029,-0.717 0.051,-3.308 -1.823,-5.411 M 24.087,6.233 c -2.47,4.51 -7.22,7.59 -12.69,7.71 -0.11,0.01 -0.23,0.01 -0.35,0.01 -2.49,0 -4.84,-0.61 -6.9,-1.69 1.87,1.58 4.21,2.62 6.78,2.88 -2.29,5.26 -7.53,8.94 -13.64,8.94 -7.91,0 -14.37,-6.18 -14.84,-13.97 3,-0.93 5.6,-2.79 7.45,-5.24 -2,1.67 -4.57,2.69 -7.39,2.71 h -0.09 c -6.45,0 -11.69,-5.23 -11.69,-11.69 0,-6.45 5.24,-11.68 11.69,-11.68 h 28.63 c 0.68,0 1.34,0.05 1.99,0.14 7.27,0.97 12.88,7.19 12.88,14.73 0,2.59 -0.66,5.03 -1.83,7.15"
             style="fill:#ffffff;fill-opacity:1;fill-rule:nonzero;stroke:none"
             id="path128"
             inkscape:connector-curvature="0" /></g></g></g><g
       id="g130"
       transform="matrix(0.97115387,0,0,0.97060635,1.2788462,1.3220991)"><g
         id="g132"
         clip-path="url(#clipPath136)"><g
           id="g138"><g
             id="g140" /><g
             id="g210"
             mask="url(#mask182)"><g
               id="g212" /><g
               id="g240"><g
                 clip-path="url(#clipPath216)"
                 id="g238"
                 style="opacity:0.5"><g
                   id="g236"><g
                     clip-path="url(#clipPath220)"
                     id="g234"><g
                       id="g232"><g
                         id="g230"><path
                           d="M 78.977,40 C 78.977,11.107 68.877,1 40,1 11.123,1 1.023,11.107 1.023,40 1.023,68.894 11.123,79 40,79 68.877,79 78.977,68.894 78.977,40"
                           style="fill:url(#linearGradient226);stroke:none"
                           id="path228"
                           inkscape:connector-curvature="0" /></g></g></g></g></g></g></g></g><g
           id="g242"><g
             id="g244" /><g
             id="g326"
             mask="url(#mask290)"><g
               id="g328" /><g
               id="g356"><g
                 clip-path="url(#clipPath332)"
                 id="g354"
                 style="opacity:0.25"><g
                   id="g352"><g
                     clip-path="url(#clipPath336)"
                     id="g350"><g
                       id="g348"><g
                         id="g346"><path
                           d="M 39.999,1.975 C 11.57,1.975 1.976,11.57 1.976,40 c 0,28.429 9.594,38.024 38.023,38.024 28.43,0 38.024,-9.595 38.024,-38.024 0,-28.43 -9.594,-38.025 -38.024,-38.025 m 0,77.025 C 11.105,79 1,68.894 1,40 1,11.107 11.105,1 39.999,1 68.896,1 79,11.107 79,40 79,68.894 68.896,79 39.999,79"
                           style="fill:url(#linearGradient342);stroke:none"
                           id="path344"
                           inkscape:connector-curvature="0" /></g></g></g></g></g></g></g></g></g></g></g></svg>