<?xml version="1.0" encoding="utf-8"?>
<!-- Generator: Adobe Illustrator 21.0.2, SVG Export Plug-In . SVG Version: 6.00 Build 0)  -->
<svg version="1.1" id="图层_1" xmlns="http://www.w3.org/2000/svg" xmlns:xlink="http://www.w3.org/1999/xlink" x="0px" y="0px"
	 viewBox="0 0 192 192" style="enable-background:new 0 0 192 192;" xml:space="preserve">
<style type="text/css">
	.st0{fill:none;}
	.st1{opacity:1.000000e-02;enable-background:new    ;}
	.st2{opacity:2.000000e-02;enable-background:new    ;}
	.st3{opacity:4.000000e-02;enable-background:new    ;}
	.st4{opacity:6.000000e-02;enable-background:new    ;}
	.st5{fill:#505050;}
	.st6{fill:url(#SVGID_1_);}
	.st7{fill:url(#SVGID_2_);}
	.st8{fill:url(#SVGID_3_);}
	.st9{opacity:0.6;fill:#FFFFFF;enable-background:new    ;}
	.st10{fill:#FFFFFF;fill-opacity:0.2;}
	.st11{fill:#FF4583;}
</style>
<title>nokia_fmradio</title>
<g>
	<g id="图层_2">
		<g id="图层_2-2">
			<rect class="st0" width="192" height="192"/>
			<path class="st1" d="M96,190c-68.7,0-93-24.3-93-93S27.3,4,96,4s93,24.3,93,93S164.7,190,96,190z"/>
			<path class="st2" d="M96,189c-67.9,0-92-24.1-92-92S28.1,5,96,5s92,24.1,92,92S163.9,189,96,189z"/>
			<path class="st3" d="M96,188c-67.2,0-91-23.8-91-91S28.8,6,96,6s91,23.8,91,91S163.2,188,96,188z"/>
			<path class="st4" d="M186,97c0,66.7-23.3,90-90,90S6,163.7,6,97S29.3,7,96,7S186,30.3,186,97z"/>
			<path class="st5" d="M186,96c0,66.7-23.3,90-90,90S6,162.7,6,96S29.3,6,96,6S186,29.3,186,96z"/>
			
				<linearGradient id="SVGID_1_" gradientUnits="userSpaceOnUse" x1="166.0125" y1="134.0125" x2="25.9875" y2="-6.0125" gradientTransform="matrix(1 0 0 1 0 32)">
				<stop  offset="0" style="stop-color:#000000;stop-opacity:0.1"/>
				<stop  offset="0.5" style="stop-color:#808080;stop-opacity:5.000000e-02"/>
				<stop  offset="1" style="stop-color:#FFFFFF;stop-opacity:0.1"/>
			</linearGradient>
			<path class="st6" d="M186,96c0,66.7-23.3,90-90,90S6,162.7,6,96S29.3,6,96,6S186,29.3,186,96z"/>
			
				<linearGradient id="SVGID_2_" gradientUnits="userSpaceOnUse" x1="166.0125" y1="134.0125" x2="25.9875" y2="-6.0125" gradientTransform="matrix(1 0 0 1 0 32)">
				<stop  offset="0" style="stop-color:#000000;stop-opacity:5.000000e-02"/>
				<stop  offset="0.5" style="stop-color:#808080;stop-opacity:0"/>
				<stop  offset="1" style="stop-color:#FFFFFF;stop-opacity:0.1"/>
			</linearGradient>
			<path class="st7" d="M96,6C29.3,6,6,29.3,6,96s23.3,90,90,90s90-23.3,90-90S162.7,6,96,6z M164.6,164.6C151.2,178,130,184,96,184
				s-55.2-6-68.6-19.4S8,130,8,96s6-55.2,19.4-68.6S62,8,96,8s55.2,6,68.6,19.4S184,62,184,96S178,151.2,164.6,164.6z"/>
			
				<linearGradient id="SVGID_3_" gradientUnits="userSpaceOnUse" x1="153.1521" y1="47" x2="26.2228" y2="173.9192" gradientTransform="matrix(1 0 0 -1 0 226)">
				<stop  offset="0" style="stop-color:#000000;stop-opacity:6.000000e-02"/>
				<stop  offset="1" style="stop-color:#000000;stop-opacity:0.18"/>
			</linearGradient>
			<path class="st8" d="M184.8,120.6L71.4,7.3H71l-2.9,176.2l0.5,1c9.1,1.2,18.2,1.7,27.3,1.7C153.8,186.1,179,168.6,184.8,120.6z"
				/>
			<path class="st9" d="M82.8,164.2h2.8v-8.9h5.2v-1.9h-5.2v-6.6h6.6v-1.9h-9.4V164.2z M107.6,144.8l-5.3,9.8l-5.2-9.8h-2.2v19.4
				h2.7v-14l4,7.4h1.4l3.9-7.4v14h2.7v-19.4H107.6z M88.9,71.9c1.3,0,2.6-0.5,3.5-1.4c0,1.7-0.4,3.5-1.4,4.9c-0.9,1-2.2,1.6-3.6,1.5
				c-0.9,0-1.8-0.1-2.7-0.3v2c1,0.2,2.1,0.3,3.1,0.3c2.2,0.1,4.4-0.9,5.6-2.7c1.3-1.8,1.9-4.5,1.9-8c0-3.6-0.5-6.1-1.5-7.5
				s-2.7-2.2-4.4-2.1c-1.7-0.1-3.2,0.6-4.3,1.9c-1.1,1.5-1.6,3.3-1.5,5.1c-0.1,1.6,0.4,3.3,1.3,4.6C86,71.4,87.5,72,88.9,71.9z
				 M87.4,61.7c0.5-0.7,1.3-1.1,2.2-1.1c0.6,0,1.2,0.2,1.6,0.6c0.5,0.5,0.8,1.2,1,1.9c0.2,1,0.4,2,0.3,3c0.1,1-0.2,2-0.8,2.9
				c-0.6,0.7-1.4,1.1-2.3,1c-0.8,0-1.5-0.4-2-1c-0.5-1-0.8-2.1-0.7-3.3C86.6,64.3,86.8,62.9,87.4,61.7z M98.3,83.3H96v18.2h2.3V83.3
				z M71,94.7h-2.3v6.8H71V94.7z M57.3,94.7H55v6.8h2.3V94.7z M180.3,94.7H178v6.8h2.3V94.7z M84.7,94.7h-2.3v6.8h2.3V94.7z
				 M125.7,94.7h-2.3v6.8h2.3V94.7z M153,94.7h-2.3v6.8h2.3V94.7z M109.7,101.6h2.3v-6.8h-2.3V101.6z M166.6,76.6h-2.3v25h2.3V76.6z
				 M139.3,94.7H137v6.8h2.3V94.7z M43.7,94.7h-2.3v6.8h2.3V94.7z M99.1,70.2c-0.6,1-0.9,2.1-0.8,3.2c-0.1,1.5,0.5,3.1,1.6,4.2
				c1.2,1,2.8,1.6,4.4,1.5c1.6,0.1,3.2-0.4,4.5-1.5c1.1-1.1,1.7-2.6,1.6-4.2c0-2.6-1.1-4.3-3.3-5c1.9-0.7,2.9-2.2,2.9-4.5
				c0.1-1.4-0.5-2.8-1.6-3.8c-2.5-1.8-5.9-1.8-8.4,0c-1.1,1-1.6,2.4-1.5,3.8c0,2.3,1,3.9,2.9,4.6C100.5,68.7,99.6,69.3,99.1,70.2z
				 M101.4,64.1c-0.1-0.9,0.2-1.8,0.7-2.6c0.5-0.6,1.3-1,2.1-0.9c2,0,3,1.2,3,3.5c0.1,0.9-0.2,1.8-0.7,2.6c-0.5,0.7-1.3,1-2.2,1
				c-0.8,0-1.6-0.3-2.1-1C101.7,65.9,101.5,65,101.4,64.1L101.4,64.1z M102,70.4c1.3-1.3,3.4-1.3,4.7,0l0,0c0.6,0.8,0.9,1.8,0.8,2.8
				c0,2.7-1.1,4-3.2,4c-0.9,0.1-1.8-0.3-2.4-1c-0.6-0.9-0.9-1.9-0.8-2.9C101.1,72.2,101.4,71.2,102,70.4L102,70.4z M66.4,115.2h2.3
				v-6.8h-2.3V115.2z M148.4,115.2h2.3v-6.8h-2.3V115.2z M107.4,115.2h2.3v-6.8h-2.3V115.2z M121,115.2h2.3v-6.8H121V115.2z
				 M134.7,115.2h2.3v-6.8h-2.3V115.2z M6,103.8h180c0,0.8,0,1.5-0.1,2.3H6.1L6,103.8z M162,112.9h4.6v-4.6H162V112.9z M175.7,115.2
				h2.3v-6.8h-2.3V115.2z M11.8,115.2h2.3v-6.8h-2.3V115.2z M23.2,112.9h4.5v-4.6h-4.5V112.9z M30,76.5h-2.3v25H30V76.5z M16.3,94.7
				H14v6.8h2.3V94.7z M52.8,115.2H55v-6.8h-2.2V115.2z M80.1,115.2h2.3v-6.8h-2.3V115.2z M93.7,113h4.6v-4.6h-4.5L93.7,113z
				 M39.1,115.2h2.3v-6.8h-2.3V115.2z"/>
			<rect x="32.3" y="122" class="st10" width="9.1" height="6.8"/>
			<rect x="32.3" y="122" class="st10" width="2.3" height="2.3"/>
			<rect x="34.5" y="124.3" class="st10" width="2.3" height="2.3"/>
			<rect x="36.8" y="122" class="st10" width="2.3" height="2.3"/>
			<rect x="32.3" y="126.6" class="st10" width="2.3" height="2.3"/>
			<rect x="36.8" y="126.6" class="st10" width="4.5" height="2.3"/>
			<rect x="146.1" y="122" class="st10" width="9.1" height="6.8"/>
			<rect x="152.9" y="126.6" class="st10" width="2.3" height="2.3"/>
			<rect x="150.6" y="124.3" class="st10" width="2.3" height="2.3"/>
			<rect x="146.1" y="126.6" class="st10" width="4.6" height="2.3"/>
			<rect x="152.9" y="122" class="st10" width="2.3" height="2.3"/>
			<rect x="146.1" y="122" class="st10" width="4.6" height="2.3"/>
			<path class="st11" d="M65.3,184c1.9,0.3,3.8,0.6,5.8,0.8V7.3c-2,0.2-3.9,0.5-5.8,0.8V184z"/>
		</g>
	</g>
</g>
</svg>
