<svg xmlns="http://www.w3.org/2000/svg" xmlns:xlink="http://www.w3.org/1999/xlink" viewBox="0 0 192 192"><defs><style>.cls-1{fill:none;}.cls-2{opacity:0.01;}.cls-3{opacity:0.02;}.cls-4{opacity:0.04;}.cls-5{opacity:0.06;}.cls-6{fill:#cc1515;}.cls-7{fill:url(#未命名的渐变_68);}.cls-8{fill:url(#未命名的渐变_46);}.cls-9{opacity:0.16;}.cls-10{opacity:0.1;}.cls-11{fill:#f42209;opacity:0.4;}.cls-12{fill:url(#未命名的渐变_51);}.cls-13{fill:#f01d0c;}.cls-14{fill:#fff;}</style><linearGradient id="未命名的渐变_68" x1="166" y1="166" x2="26" y2="26" gradientUnits="userSpaceOnUse"><stop offset="0" stop-opacity="0.1"/><stop offset="0.5" stop-color="gray" stop-opacity="0.05"/><stop offset="1" stop-color="#fff" stop-opacity="0.12"/></linearGradient><linearGradient id="未命名的渐变_46" x1="166" y1="166" x2="26" y2="26" gradientUnits="userSpaceOnUse"><stop offset="0" stop-opacity="0.05"/><stop offset="0.5" stop-color="gray" stop-opacity="0"/><stop offset="1" stop-color="#fff" stop-opacity="0.1"/></linearGradient><linearGradient id="未命名的渐变_51" x1="166.93" y1="165.07" x2="100.93" y2="99.07" gradientUnits="userSpaceOnUse"><stop offset="0" stop-opacity="0.06"/><stop offset="1" stop-opacity="0.18"/></linearGradient></defs><title>sankuai_maoyan</title><g id="图层_2" data-name="图层 2"><g id="图层_2-2" data-name="图层 2"><rect class="cls-1" width="192" height="192"/><path class="cls-2" d="M96,190C27.34,190,3,165.66,3,97S27.34,4,96,4s93,24.34,93,93S164.66,190,96,190Z"/><path class="cls-3" d="M96,189C28.07,189,4,164.92,4,97S28.07,5,96,5s92,24.07,92,92S163.93,189,96,189Z"/><path class="cls-4" d="M96,188C28.81,188,5,164.19,5,97S28.81,6,96,6s91,23.81,91,91S163.19,188,96,188Z"/><path class="cls-5" d="M186,97c0,66.67-23.32,90-90,90S6,163.67,6,97,29.32,7,96,7,186,30.32,186,97Z"/><path class="cls-6" d="M186,96c0,66.67-23.32,90-90,90S6,162.67,6,96,29.32,6,96,6,186,29.32,186,96Z"/><path class="cls-7" d="M186,96c0,66.67-23.32,90-90,90S6,162.67,6,96,29.32,6,96,6,186,29.32,186,96Z"/><path class="cls-8" d="M96,6C29.32,6,6,29.32,6,96s23.32,90,90,90,90-23.33,90-90S162.68,6,96,6Zm68.59,158.59C151.17,178,130,184,96,184s-55.17-6-68.59-19.41S8,130,8,96s6-55.17,19.41-68.59S62,8,96,8s55.17,6,68.59,19.41S184,62,184,96,178,151.16,164.59,164.59Z"/><path class="cls-9" d="M24,62A12,12,0,0,0,13.86,50.16,110,110,0,0,0,9.06,73.62,12,12,0,0,0,24,62Z"/><path class="cls-10" d="M23.2,57.7a12,12,0,0,0-9.35-7.54A110,110,0,0,0,9.06,73.62c.39.1.8.17,1.21.23a107.5,107.5,0,0,1,4.59-21.7A12,12,0,0,1,23.2,57.7Z"/><path class="cls-11" d="M23.2,57.7A12,12,0,0,1,12,74a11.45,11.45,0,0,1-1.73-.14c-.07.59-.14,1.17-.21,1.77A12,12,0,0,0,23.2,57.7Z"/><path class="cls-9" d="M24,96A12,12,0,0,0,8.25,84.61C8.09,88.24,8,92,8,96s.09,7.76.25,11.39A12,12,0,0,0,24,96Z"/><path class="cls-10" d="M9.25,86.61a12,12,0,0,1,13.93,5.07A12,12,0,0,0,8.25,84.61C8.09,88.24,8,92,8,96s.09,7.76.25,11.39q.46.15.93.26C9.06,104.56,9,101.35,9,98,9,94,9.09,90.24,9.25,86.61Z"/><path class="cls-11" d="M23.18,91.67a12,12,0,0,1-14,16c0,.58,0,1.16.07,1.74A12,12,0,0,0,23.18,91.67Z"/><path class="cls-9" d="M24,130A12,12,0,0,0,9.06,118.38a110,110,0,0,0,4.79,23.46A12,12,0,0,0,24,130Z"/><path class="cls-10" d="M13,120a12,12,0,0,1,10.18,5.67,11.93,11.93,0,0,0-14.12-7.3,110,110,0,0,0,4.79,23.46l.34-.07a113.88,113.88,0,0,1-4.14-21.4A12,12,0,0,1,13,120Z"/><path class="cls-11" d="M23.18,125.67a12,12,0,0,1-9,16.1c.21.7.43,1.39.66,2.07a12,12,0,0,0,8.33-18.17Z"/><path class="cls-10" d="M31,139h3v14H31Zm0,20v11.13q1.45,1,3,2V159Zm0-46h3V99H31Zm0,20h3V119H31ZM34,33V19.89q-1.55.95-3,2V33ZM31,73h3V59H31Zm0,20h3V79H31Zm0-40h3V39H31Z"/><polygon class="cls-10" points="34 40 34 39 31 39 31 53 32 53 32 40 34 40"/><polygon class="cls-10" points="34 60 34 59 31 59 31 73 32 73 32 60 34 60"/><polygon class="cls-10" points="34 120 34 119 31 119 31 133 32 133 32 120 34 120"/><polygon class="cls-10" points="34 100 34 99 31 99 31 113 32 113 32 100 34 100"/><path class="cls-10" d="M34,160v-1H31v11.13c.32.23.67.44,1,.66V160Z"/><polygon class="cls-10" points="34 80 34 79 31 79 31 93 32 93 32 80 34 80"/><path class="cls-10" d="M34,21.55V19.89q-1.55.95-3,2V33h1V22.87C32.65,22.41,33.33,22,34,21.55Z"/><polygon class="cls-10" points="34 140 34 139 31 139 31 153 32 153 32 140 34 140"/><path class="cls-11" d="M34,172.11c-.69-.42-1.34-.87-2-1.32v.34q1.45,1,3,2V160H34Z"/><polygon class="cls-11" points="34 133 32 133 32 134 35 134 35 120 34 120 34 133"/><polygon class="cls-11" points="34 153 32 153 32 154 35 154 35 140 34 140 34 153"/><polygon class="cls-11" points="34 113 32 113 32 114 35 114 35 100 34 100 34 113"/><polygon class="cls-11" points="34 93 32 93 32 94 35 94 35 80 34 80 34 93"/><polygon class="cls-11" points="34 73 32 73 32 74 35 74 35 60 34 60 34 73"/><polygon class="cls-11" points="34 53 32 53 32 54 35 54 35 40 34 40 34 53"/><path class="cls-11" d="M34,21.55V33H32v1h3V20.89C34.66,21.1,34.34,21.33,34,21.55Z"/><path class="cls-12" d="M185.89,103.56,141.17,58.83,61,139l-.31.31,46.45,46.45C162.9,183.26,184.23,160.77,185.89,103.56Z"/><circle class="cls-13" cx="100" cy="98" r="57" transform="translate(-21.96 29.22) rotate(-15)"/><path class="cls-14" d="M61.75,129c-2.8,1.25-5.4,2.62-7.06,3.54-.69-.91-1.36-1.85-2-2.8,1.67-.64,3.8-1.41,6-2.09a57.21,57.21,0,0,1,7.37-1.82q.42.54.87,1.07C65.73,127.37,64,128,61.75,129Zm2.2-6.3A30.34,30.34,0,0,1,60.67,115q-.11-.4-.2-.81t-.26-.91a27.1,27.1,0,0,1,1-15.67A46.93,46.93,0,0,1,58.2,86.52c-.85-6.6-1.17-13.33,0-14.56s2.71-.91,6.69-.5a44.29,44.29,0,0,1,13.77,4.06,45.28,45.28,0,0,1,28.65-7.68,44.29,44.29,0,0,1,9.89-10.4c3.24-2.34,4.44-3.4,6-2.91s4.69,6.49,7.26,12.62a46.93,46.93,0,0,1,2.9,11.12,27.1,27.1,0,0,1,8.75,13q.12.46.23.91t.23.81a30.34,30.34,0,0,1,1,8.34,59.27,59.27,0,0,1,7.11-2c2.29-.53,4.53-.93,6.3-1.21a57,57,0,1,0-106.3,28.48c1.67-.64,3.81-1.41,6.06-2.1A59.27,59.27,0,0,1,63.95,122.73Zm6.56,7.76-.87-.78c-1.24.43-3.12,1.13-5.55,2.22-2.79,1.24-5.38,2.61-7,3.53.81.93,1.65,1.82,2.52,2.69,1.42-1.16,3.29-2.63,5.31-4.05A64.6,64.6,0,0,1,70.51,130.49Zm80.09-27.43a57.22,57.22,0,0,0-7.29,2.11q-.09.68-.22,1.36c1.29-.24,3.14-.53,5.57-.78,3-.32,6-.43,7.89-.47.15-1.13.25-2.28.33-3.43C155.11,102.14,152.88,102.54,150.6,103.07Zm-8.44,7.21q-.17.56-.37,1.11a64.6,64.6,0,0,1,6.69.3c2.46.22,4.82.56,6.63.85.31-1.18.6-2.38.83-3.58-1.9,0-4.83.15-7.86.47C145.43,109.7,143.46,110,142.16,110.28Zm-1.81,4.61c-5.07,10.64-15.73,19.48-29.61,23.2s-27.54,1.39-37.24-5.28a63.44,63.44,0,0,0-5.8,3.69c-2.1,1.48-4,3-5.48,4.19a57,57,0,0,0,91.83-24.61c-1.83-.3-4.29-.66-6.84-.89A63.44,63.44,0,0,0,140.36,114.89Zm-25.11-33a15.68,15.68,0,0,0,1.85,30.66,5.34,5.34,0,0,1,1.2,2.08,5,5,0,0,1-2.92,6.31,6.36,6.36,0,0,1-6.23-.54,7.22,7.22,0,0,1-2.52-3.88,2.86,2.86,0,0,0,1.24-3c-.41-1.52-2.28-2.34-4.18-1.83s-3.11,2.15-2.7,3.67a2.86,2.86,0,0,0,2.56,1.95,7.22,7.22,0,0,1-.24,4.62,6.36,6.36,0,0,1-5.12,3.59,5,5,0,0,1-5.68-4,5.34,5.34,0,0,1,0-2.4,15.68,15.68,0,1,0-5.61,2.8,15.86,15.86,0,0,0,1.53-.49,9.77,9.77,0,0,0,3.82,5.33c3.1,1.94,4.91,1.82,7.32,1.17s5.36-2.73,6.1-4.77a9.12,9.12,0,0,0,.59-1.93,9.12,9.12,0,0,0,1.48,1.38c1.67,1.4,5.26,1.73,7.67,1.08s4-1.45,5.75-4.68a9.77,9.77,0,0,0,.65-6.53,15.86,15.86,0,0,0,1.57-.34,15.67,15.67,0,0,0-8.11-30.28ZM87.91,113.41c.3,1.14-.47,2-1.6,2.27a1.87,1.87,0,0,1-2.53-1.17L79.63,99c-.3-1.14.47-2,1.6-2.27a1.87,1.87,0,0,1,2.53,1.17Zm34.41-9.22c.3,1.14-.47,2-1.6,2.27a1.87,1.87,0,0,1-2.53-1.17L114,89.81c-.3-1.14.47-2,1.6-2.27a1.87,1.87,0,0,1,2.53,1.17Z"/></g></g></svg>