<?xml version="1.0" encoding="utf-8"?>
<!-- Generator: Adobe Illustrator 22.0.2, SVG Export Plug-In . SVG Version: 6.00 Build 0)  -->
<svg version="1.1" id="图层_1" xmlns="http://www.w3.org/2000/svg" xmlns:xlink="http://www.w3.org/1999/xlink" x="0px" y="0px"
	 viewBox="0 0 192 192" style="enable-background:new 0 0 192 192;" xml:space="preserve">
<style type="text/css">
	.st0{fill:none;}
	.st1{opacity:1.000000e-02;enable-background:new    ;}
	.st2{opacity:2.000000e-02;enable-background:new    ;}
	.st3{opacity:4.000000e-02;enable-background:new    ;}
	.st4{opacity:6.000000e-02;enable-background:new    ;}
	.st5{fill:#5E808C;}
	.st6{fill:url(#SVGID_1_);}
	.st7{fill:url(#SVGID_2_);}
	.st8{opacity:0.6;fill:#395D6B;enable-background:new    ;}
	.st9{fill:url(#SVGID_3_);}
	.st10{fill:#95ABB8;}
	.st11{fill:#A1BAC7;}
	.st12{fill:url(#SVGID_4_);}
	.st13{fill:url(#SVGID_5_);}
	.st14{fill:#ECEFF1;}
	.st15{fill:#FAFDFF;}
	.st16{fill:#DEE1E3;}
	.st17{fill:#D4D4D4;}
	.st18{fill:#2CBFB2;}
	.st19{fill:#2ACFBF;}
</style>
<title>designertools</title>
<g id="图层_2_1_">
	<g id="图层_1-2">
		<rect class="st0" width="192" height="192"/>
		<g>
			<path class="st1" d="M96,190c-68.7,0-93-24.3-93-93S27.3,4,96,4s93,24.3,93,93S164.7,190,96,190z"/>
			<path class="st2" d="M96,189c-67.9,0-92-24.1-92-92S28.1,5,96,5s92,24.1,92,92S163.9,189,96,189z"/>
			<path class="st3" d="M96,188c-67.2,0-91-23.8-91-91S28.8,6,96,6s91,23.8,91,91S163.2,188,96,188z"/>
			<path class="st4" d="M186,97c0,66.7-23.3,90-90,90S6,163.7,6,97S29.3,7,96,7S186,30.3,186,97z"/>
		</g>
		<path class="st5" d="M186,96c0,66.7-23.3,90-90,90S6,162.7,6,96S29.3,6,96,6S186,29.3,186,96z"/>
		
			<linearGradient id="SVGID_1_" gradientUnits="userSpaceOnUse" x1="166.0041" y1="-3.9978" x2="25.9978" y2="-144.0041" gradientTransform="matrix(1 0 0 1 0 170)">
			<stop  offset="0" style="stop-color:#000000;stop-opacity:0.1"/>
			<stop  offset="0.5" style="stop-color:#808080;stop-opacity:5.000000e-02"/>
			<stop  offset="1" style="stop-color:#FFFFFF;stop-opacity:0.1"/>
		</linearGradient>
		<path class="st6" d="M186,96c0,66.7-23.3,90-90,90S6,162.7,6,96S29.3,6,96,6S186,29.3,186,96z"/>
		
			<linearGradient id="SVGID_2_" gradientUnits="userSpaceOnUse" x1="166.0128" y1="-51.9878" x2="25.9872" y2="-192.0122" gradientTransform="matrix(1 0 0 1 0 218)">
			<stop  offset="0" style="stop-color:#000000;stop-opacity:4.000000e-02"/>
			<stop  offset="0.5" style="stop-color:#808080;stop-opacity:0"/>
			<stop  offset="1" style="stop-color:#FFFFFF;stop-opacity:0.1"/>
		</linearGradient>
		<path class="st7" d="M96,6C29.3,6,6,29.3,6,96s23.3,90,90,90s90-23.3,90-90S162.7,6,96,6z M164.6,164.6C151.2,178,130,184,96,184
			s-55.2-6-68.6-19.4S8,130,8,96s6-55.2,19.4-68.6S62,8,96,8s55.2,6,68.6,19.4S184,62,184,96S178,151.2,164.6,164.6z"/>
		<path class="st8" d="M96,156.6c-4.6,0-9.2-0.5-13.6-1.5l0.8-3.7c4.2,1,8.5,1.4,12.8,1.4h0.3l0,3.8H96z M109.3,155.1l-0.8-3.7
			c4.3-1,8.5-2.4,12.4-4.4l1.7,3.4C118.3,152.5,113.9,154.1,109.3,155.1z M70,150.7c-4.2-2-8.2-4.5-11.9-7.5l2.4-3
			c3.4,2.8,7.2,5.1,11.2,7L70,150.7z M133.6,143.5l-2.4-3c3.5-2.7,6.6-5.9,9.3-9.3l3,2.4C140.6,137.3,137.2,140.6,133.6,143.5
			L133.6,143.5z M48.9,134.1c-3-3.7-5.5-7.6-7.5-11.9l3.4-1.6c1.9,4,4.3,7.7,7,11.1L48.9,134.1z M150.4,122.6l-3.4-1.7
			c1.9-4,3.4-8.1,4.4-12.4l3.7,0.8C154.1,113.9,152.5,118.3,150.4,122.6L150.4,122.6z M37,109.9c-1.1-4.6-1.6-9.2-1.6-13.9l3.8,0
			c0,4.4,0.5,8.8,1.5,13.1L37,109.9z M156.6,96.3l-3.8,0V96c0-4.3-0.5-8.6-1.4-12.8l3.7-0.8c1,4.5,1.5,9,1.5,13.6V96.3z M40.5,83.8
			L36.8,83c1-4.6,2.5-9,4.6-13.3l3.4,1.6C42.9,75.3,41.5,79.5,40.5,83.8z M147.3,71.7c-1.9-4-4.2-7.7-7-11.2l3-2.4
			c2.9,3.7,5.4,7.7,7.4,11.9L147.3,71.7z M51.3,61l-3-2.3c2.9-3.7,6.2-7,9.9-10l2.4,3C57.1,54.4,54,57.5,51.3,61z M131.7,51.9
			c-3.4-2.8-7.2-5.1-11.1-7.1l1.6-3.4c4.2,2,8.2,4.6,11.9,7.5L131.7,51.9z M70.9,45.1l-1.7-3.4c4.2-2.1,8.7-3.7,13.2-4.7l0.8,3.7
			C79,41.6,74.8,43.1,70.9,45.1z M109.1,40.7c-4.3-1-8.7-1.5-13.1-1.5h-0.6l0-3.8H96c4.7,0,9.4,0.5,13.9,1.6L109.1,40.7z"/>
		
			<linearGradient id="SVGID_3_" gradientUnits="userSpaceOnUse" x1="157.9265" y1="17.9235" x2="58.425" y2="117.425" gradientTransform="matrix(1 0 0 -1 0 192)">
			<stop  offset="0" style="stop-color:#1A2429;stop-opacity:2.000000e-02"/>
			<stop  offset="1" style="stop-color:#000000;stop-opacity:0.14"/>
		</linearGradient>
		<path class="st9" d="M185.4,113.2l-45.6-45.6l-2.3,2.6l-24.9-24.9l-28.2,3.3l1.6,21L56.1,122l-12.4,26.2l37.4,37.4
			c4.7,0.3,9.7,0.4,14.9,0.4C156.6,186,181.4,166.7,185.4,113.2z"/>
		<path class="st10" d="M66.8,102.2c4.1,7.6,17.9,12.2,29.1,12.2c23.8,0,43.8-20.4,43.8-46.9h-10c0,18.5-15.3,35.8-33.8,35.8
			c-8.6,0-16.9-3.3-23.2-9.3L66.8,102.2z"/>
		<path class="st11" d="M73.8,96.1c6.2,6,14.6,9.3,23.2,9.3c18.5,0,33.8-17.3,33.8-35.8h9v-2h-10c0,18.5-15.3,35.8-33.8,35.8
			c-8.6,0-16.9-3.3-23.2-9.3l-5.9,8.2c0.3,0.6,0.7,1.2,1.2,1.8L73.8,96.1z"/>
		<path class="st0" d="M66.8,102.2c4.1,7.6,17.9,12.2,29.1,12.2c23.8,0,43.8-20.4,43.8-46.9h-10c0,18.5-15.3,35.8-33.8,35.8
			c-8.6,0-16.9-3.3-23.2-9.3L66.8,102.2z"/>
		
			<linearGradient id="SVGID_4_" gradientUnits="userSpaceOnUse" x1="129.508" y1="102.692" x2="119.372" y2="92.556" gradientTransform="matrix(1 0 0 -1 0 192)">
			<stop  offset="0" style="stop-color:#1A2429;stop-opacity:0"/>
			<stop  offset="0.501" style="stop-color:#0C1012;stop-opacity:7.000000e-02"/>
			<stop  offset="1" style="stop-color:#000000;stop-opacity:0.14"/>
		</linearGradient>
		<path class="st12" d="M125.1,84.9c-1.5,2.8-3.4,5.4-5.6,7.7l4.2,11.2c3.6-3.2,6.7-6.9,9.2-11.1L125.1,84.9z"/>
		
			<linearGradient id="SVGID_5_" gradientUnits="userSpaceOnUse" x1="86.28" y1="-58.72" x2="74.597" y2="-70.403" gradientTransform="matrix(1 0 0 1 0 170)">
			<stop  offset="0" style="stop-color:#1A2429;stop-opacity:0"/>
			<stop  offset="0.296" style="stop-color:#161F23;stop-opacity:4.100000e-02"/>
			<stop  offset="0.692" style="stop-color:#0B1012;stop-opacity:9.700000e-02"/>
			<stop  offset="1" style="stop-color:#000000;stop-opacity:0.14"/>
		</linearGradient>
		<path class="st13" d="M71,106.9c4.1,2.9,8.6,5,13.5,6.1l3.9-10.5c-4.2-1-8.1-2.7-11.6-5.2L71,106.9z"/>
		<path class="st14" d="M91.3,76.9l-39.5,65.7l-8.1,5.6l1.2-13.2l36.4-65.1L91.3,76.9z M100.7,76.9l39.5,65.7l8.1,5.6l-1.2-13.2
			l-36.4-65.1L100.7,76.9z"/>
		<g>
			<polygon class="st15" points="45.9,137 82.3,71.9 90.8,77.8 91.3,76.9 81.3,69.9 44.9,135 43.7,148.2 45,147.3 			"/>
			<polygon class="st15" points="110.8,70.3 147.1,135.2 147.1,135 110.7,69.9 			"/>
		</g>
		<g>
			<polygon class="st16" points="80.2,71.9 89,80.7 91.3,76.9 81.3,69.9 			"/>
			<path class="st16" d="M110.7,69.9l-10,6.9l3.1,5.1l8.8-8.8L110.7,69.9z"/>
		</g>
		<g>
			<path class="st17" d="M110.7,69.9l-10,6.9l2.5,4.2l8.8-8.8L110.7,69.9z"/>
			<polygon class="st17" points="80.6,71.3 89.4,80.1 91.3,76.9 81.3,69.9 			"/>
		</g>
		<path class="st18" d="M108.8,43.8H83.1c-3,0-5.5,2.5-5.5,5.5v19l16.8,16.8c0.8,0.8,2.2,0.8,3,0l16.8-16.8v-19
			c0.1-2.9-2.2-5.4-5.2-5.5C109,43.8,108.9,43.8,108.8,43.8z M96,67.6c-4.5,0-8.2-3.7-8.2-8.2s3.7-8.2,8.2-8.2
			c4.5,0,8.2,3.7,8.2,8.2c0,0,0,0,0,0C104.2,63.9,100.5,67.6,96,67.6z"/>
		<g>
			<path class="st19" d="M97,69.6c4.5,0,8.2-3.7,8.2-8.2c0-1.6-0.5-3.2-1.4-4.6c0.3,0.8,0.4,1.7,0.4,2.6c0,4.5-3.7,8.2-8.2,8.2
				c-2.7,0-5.3-1.4-6.8-3.6C90.3,67.4,93.5,69.6,97,69.6z"/>
			<path class="st19" d="M78.6,51.3c0-3,2.5-5.5,5.5-5.5h25.7c1.7,0,3.3,0.8,4.3,2.1c-0.6-2.4-2.8-4.1-5.3-4.1H83.1
				c-3,0-5.5,2.5-5.5,5.5v19l1,1V51.3z"/>
		</g>
	</g>
</g>
</svg>
