<?xml version="1.0" encoding="utf-8"?>
<!-- Generator: Adobe Illustrator 22.0.1, SVG Export Plug-In . SVG Version: 6.00 Build 0)  -->
<svg version="1.1" id="图层_1" xmlns="http://www.w3.org/2000/svg" xmlns:xlink="http://www.w3.org/1999/xlink" x="0px" y="0px"
	 viewBox="0 0 192 192" style="enable-background:new 0 0 192 192;" xml:space="preserve">
<style type="text/css">
	.st0{fill:none;}
	.st1{opacity:1.000000e-02;enable-background:new    ;}
	.st2{opacity:2.000000e-02;enable-background:new    ;}
	.st3{opacity:4.000000e-02;enable-background:new    ;}
	.st4{opacity:6.000000e-02;enable-background:new    ;}
	.st5{fill:#12B7FF;}
	.st6{opacity:0.1;fill:#004FFF;enable-background:new    ;}
	.st7{opacity:0.15;fill:#0DFF6F;enable-background:new    ;}
	.st8{fill:url(#SVGID_1_);}
	.st9{fill:url(#SVGID_2_);}
	.st10{opacity:0.75;fill:#FAFAFA;enable-background:new    ;}
	.st11{fill:#FAFAFA;}
	.st12{fill:#FFFFFF;}
	.st13{fill:url(#SVGID_3_);}
	.st14{fill:url(#SVGID_4_);}
	.st15{fill:url(#SVGID_5_);}
</style>
<title>samsung_connect</title>
<g>
	<g id="图层_2_1_">
		<g id="图层_1-2">
			<rect class="st0" width="192" height="192"/>
			<path class="st1" d="M96,190c-68.7,0-93-24.3-93-93S27.3,4,96,4s93,24.3,93,93S164.7,190,96,190z"/>
			<path class="st2" d="M96,189c-67.9,0-92-24.1-92-92S28.1,5,96,5s92,24.1,92,92S163.9,189,96,189z"/>
			<path class="st3" d="M96,188c-67.2,0-91-23.8-91-91S28.8,6,96,6s91,23.8,91,91S163.2,188,96,188z"/>
			<path class="st4" d="M186,97c0,66.7-23.3,90-90,90S6,163.7,6,97S29.3,7,96,7S186,30.3,186,97z"/>
			<path class="st5" d="M186,96c0,66.7-23.3,90-90,90S6,162.7,6,96S29.3,6,96,6S186,29.3,186,96z"/>
			<path class="st6" d="M12.9,47C8.1,59.7,6,75.9,6,96c0,66.7,23.3,90,90,90c20.1,0,36.3-2.1,49-6.9C137.1,109.6,82.4,54.9,12.9,47z
				"/>
			<path class="st7" d="M96,6c-20.1,0-36.3,2.1-49,6.9c7.9,69.4,62.7,124.2,132.1,132.1c4.8-12.8,6.9-28.9,6.9-49
				C186,29.3,162.7,6,96,6z"/>
			
				<linearGradient id="SVGID_1_" gradientUnits="userSpaceOnUse" x1="166.0041" y1="164.0022" x2="25.9978" y2="23.9959" gradientTransform="matrix(1 0 0 1 0 2)">
				<stop  offset="0" style="stop-color:#000000;stop-opacity:0.1"/>
				<stop  offset="0.5" style="stop-color:#808080;stop-opacity:5.000000e-02"/>
				<stop  offset="1" style="stop-color:#FFFFFF;stop-opacity:0.12"/>
			</linearGradient>
			<path class="st8" d="M186,96c0,66.7-23.3,90-90,90S6,162.7,6,96S29.3,6,96,6S186,29.3,186,96z"/>
			
				<linearGradient id="SVGID_2_" gradientUnits="userSpaceOnUse" x1="163.4517" y1="23.4513" x2="53.8275" y2="133.0755" gradientTransform="matrix(1 0 0 -1 0 192)">
				<stop  offset="0" style="stop-color:#000000;stop-opacity:0.1"/>
				<stop  offset="1" style="stop-color:#000000;stop-opacity:0.3"/>
			</linearGradient>
			<path class="st9" d="M185.8,106L152,72.2h-12.2L107.6,40l-23.1,0v21.5L94,71v7.2h-4.8L78.9,88.6L62.5,72.2h-22L39.8,73v21.3
				l27.9,27.9L57,128v19l39,39C159.2,186,183.5,165,185.8,106z"/>
			<path class="st10" d="M105,51c0,5-4,9-9,9s-9-4-9-9s4-9,9-9C101,42,105,46,105,51z M54.1,74.9c-4.7-1.5-9.8,1.1-11.3,5.8
				c-1.5,4.7,1.1,9.8,5.8,11.3s9.8-1.1,11.3-5.8c0,0,0,0,0,0C61.4,81.5,58.8,76.5,54.1,74.9z M73.7,128.7c4,2.9,4.9,8.5,2,12.6
				c-2.9,4-8.5,4.9-12.6,2s-4.9-8.5-2-12.6c0,0,0,0,0,0C64,126.7,69.6,125.8,73.7,128.7z M118.3,128.7c4-2.9,9.6-2,12.6,2
				c2.9,4,2,9.6-2,12.6c-4,2.9-9.6,2-12.6-2c0,0,0,0,0,0C113.4,137.3,114.3,131.7,118.3,128.7z M132.1,86.3
				c-1.5-4.7,1.1-9.8,5.8-11.3c4.7-1.5,9.8,1.1,11.3,5.8c1.5,4.7-1.1,9.8-5.8,11.3C138.8,93.6,133.7,91,132.1,86.3L132.1,86.3z"/>
			<path class="st11" d="M117,98c0-10.1-7.1-18.7-17-20.6l0,0V66.5l0,0c8.6-2.2,13.7-10.9,11.5-19.5c-2.2-8.6-10.9-13.7-19.5-11.5
				C83.4,37.7,78.3,46.4,80.5,55C82,60.6,86.4,65,92,66.5l0,0v10.9l0,0c-6.1,1.2-11.4,5-14.4,10.4l0,0l-10.4-3.4
				c0.5-8.8-6.2-16.4-15-17c-8.8-0.5-16.4,6.2-17,15s6.2,16.4,15,17c5.8,0.4,11.4-2.5,14.5-7.4l10.4,3.4c-1.4,11.5,6.8,22,18.3,23.4
				c11.5,1.4,22-6.8,23.4-18.3C116.9,99.7,117,98.9,117,98z M59.9,86.3c-1.5,4.7-6.6,7.3-11.3,5.8s-7.3-6.6-5.8-11.3
				c1.5-4.7,6.6-7.3,11.3-5.8c0,0,0,0,0,0C58.8,76.5,61.4,81.5,59.9,86.3z M87,51c0-5,4-9,9-9s9,4,9,9s-4,9-9,9C91,60,87,56,87,51z
				 M96,111c-7.2,0-13-5.8-13-13s5.8-13,13-13s13,5.8,13,13l0,0C109,105.2,103.2,111,96,111z M82.2,123.8c1.3-1.8,1-4.3-0.8-5.6
				c-1.8-1.3-4.3-1-5.6,0.8c0,0.1-0.1,0.1-0.1,0.2l-1.5,2.1c-8.2-3.2-17.5,0.8-20.8,9c-3.2,8.2,0.8,17.5,9,20.8
				c8.2,3.2,17.5-0.8,20.8-9c2.1-5.4,1.2-11.6-2.5-16.1L82.2,123.8z M75.7,141.3c-2.9,4-8.5,4.9-12.6,2c-4-2.9-4.9-8.5-2-12.6
				c2.9-4,8.5-4.9,12.6-2c0,0,0,0,0,0C77.7,131.7,78.6,137.3,75.7,141.3L75.7,141.3z M117.8,121.2l-1.5-2.1c-1.3-1.8-3.7-2.3-5.6-1
				c-1.8,1.3-2.3,3.7-1,5.6c0,0.1,0.1,0.1,0.1,0.2l1.5,2.1c-5.6,6.8-4.7,16.9,2.2,22.5c6.8,5.6,16.9,4.7,22.5-2.2
				c5.6-6.8,4.7-16.9-2.2-22.5C129.3,120,123.2,119,117.8,121.2L117.8,121.2z M128.9,143.3c-4,2.9-9.6,2-12.6-2c-2.9-4-2-9.6,2-12.6
				c4-2.9,9.6-2,12.6,2c0,0,0,0,0,0C133.8,134.8,132.9,140.4,128.9,143.3L128.9,143.3z M155.9,78.5c-2.7-8.4-11.7-13-20.1-10.3
				c-6.9,2.3-11.5,8.9-11,16.2l-2.4,0.8c-2.1,0.7-3.3,2.9-2.6,5c0.7,2.1,2.9,3.3,5,2.6l2.4-0.8c4.7,7.5,14.6,9.7,22.1,4.9
				C155.5,93.1,158.2,85.5,155.9,78.5z M143.5,92c-4.7,1.5-9.8-1.1-11.3-5.8c-1.5-4.7,1.1-9.8,5.8-11.3c4.7-1.5,9.8,1.1,11.3,5.8
				C150.8,85.4,148.2,90.5,143.5,92L143.5,92z"/>
			<path class="st12" d="M106,53c0-1.8-0.5-3.5-1.5-5c1.7,4.7-0.8,9.8-5.4,11.5c-3.9,1.4-8.2,0-10.5-3.5c1.7,4.7,6.8,7.1,11.5,5.5
				C103.6,60.2,106,56.8,106,53z"/>
			<path class="st12" d="M59.9,86.3c-1.5,4.7-6.6,7.3-11.3,5.8c-1.9-0.6-3.6-1.9-4.7-3.6c1.6,4.7,6.8,7.1,11.5,5.5s7.1-6.8,5.5-11.5
				c-0.3-0.7-0.6-1.4-1-2C60.4,82.3,60.5,84.4,59.9,86.3z"/>
			<path class="st12" d="M81.7,127.9c0.5,0.6,1,1.3,1.4,2c-0.3-0.8-0.7-1.6-1.2-2.3L81.7,127.9z"/>
			<path class="st12" d="M76,100c0-0.9,0.1-1.7,0.2-2.6L75,97.1c0,0.3,0,0.6,0,0.9c0,3.6,0.9,7.2,2.7,10.3
				C76.6,105.7,76,102.9,76,100z"/>
			<path class="st12" d="M129.9,145.3c3.9-2.8,4.9-8.2,2.2-12.2c1.6,4.7-0.9,9.8-5.6,11.5c-3.7,1.3-7.9,0-10.2-3.2
				c-0.1-0.1-0.1-0.2-0.2-0.3c1.6,4.7,6.8,7.2,11.4,5.5C128.4,146.2,129.2,145.8,129.9,145.3z"/>
			<path class="st12" d="M101,77.6v1.8c6,1.2,11.2,4.9,14.2,10.1C112.6,83.6,107.3,79.2,101,77.6z"/>
			<path class="st12" d="M64.1,145.3c4,2.9,9.6,2,12.6-2c2.2-3,2.3-7.1,0.2-10.3c1.7,4.7-0.8,9.8-5.5,11.5
				c-3.9,1.4-8.2-0.1-10.5-3.5C61.5,142.7,62.6,144.2,64.1,145.3z"/>
			<path class="st12" d="M117.8,121.2l-1.5-2.1c-1.3-1.8-3.7-2.3-5.6-1c-1.8,1.3-2.3,3.7-1,5.6c0,0.1,0.1,0.1,0.1,0.2l0.3,0.4
				c-0.4-2.2,0.9-4.3,3.1-4.7c1.5-0.3,3.1,0.3,4,1.6l1.5,2.1c6.8-2.7,14.5-0.4,18.8,5.5c0.3,0.4,0.6,0.8,0.8,1.2
				C135,121.8,125.9,117.9,117.8,121.2L117.8,121.2z"/>
			<path class="st12" d="M37.1,80.5c2.7-8.4,11.7-13,20.1-10.3c3.7,1.2,6.9,3.7,8.8,7.1c-3.4-8.1-12.7-12-20.9-8.6
				s-12,12.7-8.6,20.9c0.3,0.7,0.6,1.3,1,2C36.1,88.1,35.9,84.1,37.1,80.5z"/>
			<path class="st12" d="M56.4,128.6c4.3-5.9,12-8.1,18.8-5.5l1.5-2.1c1.3-1.8,3.8-2.2,5.6-0.9c0.2,0.2,0.4,0.3,0.6,0.5
				c-0.4-2.2-2.5-3.6-4.6-3.2c-1,0.2-1.9,0.8-2.5,1.6l-1.5,2.1c-8.2-3.2-17.5,0.8-20.7,9c-1.8,4.6-1.4,9.9,1.2,14.1
				C52.5,139.1,53.1,133.2,56.4,128.6z"/>
			<path class="st12" d="M112.3,127.9l-1.2-1.7c-4.1,5.2-4.6,12.4-1.2,18C107.6,138.7,108.5,132.4,112.3,127.9z"/>
			<path class="st12" d="M68.3,86.5l10.4,3.4c3-5.4,8.3-9.3,14.4-10.4V68.5c-0.3-0.1-0.7-0.2-1-0.3v9.2c-6.1,1.2-11.4,5-14.4,10.4
				l-9.4-3C68.3,85.3,68.3,85.9,68.3,86.5z"/>
			<path class="st12" d="M120.7,91.8c-0.4-2,0.8-3.9,2.7-4.5l2.4-0.8c-0.5-8.8,6.2-16.4,15-16.9c6-0.4,11.7,2.6,14.7,7.8
				c-3.4-8.1-12.7-12-20.9-8.6c-6.3,2.6-10.2,8.9-9.8,15.8l-2.4,0.8c-2.1,0.7-3.2,2.9-2.6,5C120,90.8,120.3,91.3,120.7,91.8z"/>
			<path class="st12" d="M81,53c0-8.8,7.2-16,16-16c5.7,0,10.9,3,13.8,7.9c-3.3-8.2-12.7-12.1-20.8-8.8c-8.2,3.3-12.1,12.7-8.8,20.8
				c0.3,0.7,0.6,1.4,1.1,2.1C81.4,57.2,81,55.1,81,53z"/>
			<path class="st12" d="M144.5,94c4.7-1.5,7.3-6.6,5.8-11.3c-0.3-0.8-0.6-1.5-1.1-2.2c0,0.1,0.1,0.1,0.1,0.2
				c1.5,4.7-1.1,9.8-5.8,11.3c-3.8,1.2-8-0.2-10.2-3.5C134.8,93.1,139.8,95.5,144.5,94z"/>
			<path class="st12" d="M97,113c7.2,0,13-5.8,13-12.9c0-2.4-0.7-4.8-1.9-6.8c2.6,6.7-0.6,14.2-7.3,16.8c-5.9,2.3-12.6,0.1-15.9-5.3
				C86.9,109.7,91.7,113,97,113z"/>
			
				<linearGradient id="SVGID_3_" gradientUnits="userSpaceOnUse" x1="98.2219" y1="113.9618" x2="93.7781" y2="126.1712" gradientTransform="matrix(1 0 0 -1 0 192)">
				<stop  offset="0" style="stop-color:#000000;stop-opacity:0.1"/>
				<stop  offset="6.900000e-02" style="stop-color:#000000;stop-opacity:6.300000e-02"/>
				<stop  offset="0.5" style="stop-color:#000000;stop-opacity:0"/>
				<stop  offset="0.955" style="stop-color:#000000;stop-opacity:0.12"/>
				<stop  offset="1" style="stop-color:#000000;stop-opacity:0.15"/>
			</linearGradient>
			<path class="st13" d="M100,77.4V66.5c-2.6,0.7-5.4,0.7-8,0v10.9C94.6,76.9,97.4,76.9,100,77.4z"/>
			
				<linearGradient id="SVGID_4_" gradientUnits="userSpaceOnUse" x1="76.2388" y1="97.8333" x2="66.1846" y2="106.2705" gradientTransform="matrix(1 0 0 -1 0 192)">
				<stop  offset="0" style="stop-color:#000000;stop-opacity:0.1"/>
				<stop  offset="6.900000e-02" style="stop-color:#000000;stop-opacity:6.300000e-02"/>
				<stop  offset="0.5" style="stop-color:#000000;stop-opacity:0"/>
				<stop  offset="0.955" style="stop-color:#000000;stop-opacity:0.12"/>
				<stop  offset="1" style="stop-color:#000000;stop-opacity:0.15"/>
			</linearGradient>
			<path class="st14" d="M67.3,84.5c-0.1,2.7-1,5.3-2.5,7.6l10.4,3.4c0.3-2.7,1.2-5.3,2.5-7.6L67.3,84.5z"/>
			
				<linearGradient id="SVGID_5_" gradientUnits="userSpaceOnUse" x1="166.0128" y1="116.0122" x2="25.9872" y2="-24.0122" gradientTransform="matrix(1 0 0 1 0 50)">
				<stop  offset="0" style="stop-color:#000000;stop-opacity:4.000000e-02"/>
				<stop  offset="0.5" style="stop-color:#808080;stop-opacity:0"/>
				<stop  offset="1" style="stop-color:#FFFFFF;stop-opacity:0.1"/>
			</linearGradient>
			<path class="st15" d="M96,6C29.3,6,6,29.3,6,96s23.3,90,90,90s90-23.3,90-90S162.7,6,96,6z M164.6,164.6
				C151.2,178,130,184,96,184s-55.2-6-68.6-19.4S8,130,8,96s6-55.2,19.4-68.6S62,8,96,8s55.2,6,68.6,19.4S184,62,184,96
				S178,151.2,164.6,164.6z"/>
		</g>
	</g>
</g>
</svg>
