<?xml version="1.0" encoding="utf-8"?>
<!-- Generator: Adobe Illustrator 21.0.2, SVG Export Plug-In . SVG Version: 6.00 Build 0)  -->
<svg version="1.1" id="图层_1" xmlns="http://www.w3.org/2000/svg" xmlns:xlink="http://www.w3.org/1999/xlink" x="0px" y="0px"
	 viewBox="0 0 192 192" style="enable-background:new 0 0 192 192;" xml:space="preserve">
<style type="text/css">
	.st0{fill:none;}
	.st1{opacity:1.000000e-02;enable-background:new    ;}
	.st2{opacity:2.000000e-02;enable-background:new    ;}
	.st3{opacity:4.000000e-02;enable-background:new    ;}
	.st4{opacity:6.000000e-02;enable-background:new    ;}
	.st5{fill:#787878;}
	.st6{fill:url(#SVGID_1_);}
	.st7{fill:url(#SVGID_2_);}
	.st8{fill:url(#SVGID_3_);}
	.st9{fill:url(#SVGID_4_);}
	.st10{fill:#FFDE55;}
	.st11{opacity:0.15;fill:#FFFFFF;enable-background:new    ;}
	.st12{opacity:0.3;fill:#FFFFFF;enable-background:new    ;}
	.st13{fill:#EBEBEB;}
</style>
<title>nokia_filemanager</title>
<g>
	<g id="图层_2">
		<g id="图层_2-2">
			<rect class="st0" width="192" height="192"/>
			<path class="st1" d="M96,190c-68.7,0-93-24.3-93-93S27.3,4,96,4s93,24.3,93,93S164.7,190,96,190z"/>
			<path class="st2" d="M96,189c-67.9,0-92-24.1-92-92S28.1,5,96,5s92,24.1,92,92S163.9,189,96,189z"/>
			<path class="st3" d="M96,188c-67.2,0-91-23.8-91-91S28.8,6,96,6s91,23.8,91,91S163.2,188,96,188z"/>
			<path class="st4" d="M186,97c0,66.7-23.3,90-90,90S6,163.7,6,97S29.3,7,96,7S186,30.3,186,97z"/>
			<path class="st5" d="M186,96c0,66.7-23.3,90-90,90S6,162.7,6,96S29.3,6,96,6S186,29.3,186,96z"/>
			
				<linearGradient id="SVGID_1_" gradientUnits="userSpaceOnUse" x1="166.0041" y1="25.9978" x2="25.9978" y2="166.0041" gradientTransform="matrix(1 0 0 -1 0 192)">
				<stop  offset="0" style="stop-color:#000000;stop-opacity:0.12"/>
				<stop  offset="0.5" style="stop-color:#808080;stop-opacity:5.000000e-02"/>
				<stop  offset="1" style="stop-color:#FFFFFF;stop-opacity:0.15"/>
			</linearGradient>
			<path class="st6" d="M186,96c0,66.7-23.3,90-90,90S6,162.7,6,96S29.3,6,96,6S186,29.3,186,96z"/>
			
				<linearGradient id="SVGID_2_" gradientUnits="userSpaceOnUse" x1="166.0022" y1="25.9959" x2="25.9941" y2="166.0041" gradientTransform="matrix(1 0 0 -1 0 192)">
				<stop  offset="0" style="stop-color:#000000;stop-opacity:5.000000e-02"/>
				<stop  offset="0.5" style="stop-color:#808080;stop-opacity:0"/>
				<stop  offset="1" style="stop-color:#FFFFFF;stop-opacity:0.1"/>
			</linearGradient>
			<path class="st7" d="M96,6C29.3,6,6,29.3,6,96s23.3,90,90,90s90-23.3,90-90S162.7,6,96,6z M164.6,164.6C151.2,178,130,184,96,184
				s-55.2-6-68.6-19.4S8,130,8,96s6-55.2,19.4-68.6S62,8,96,8s55.2,6,68.6,19.4S184,62,184,96S178,151.2,164.6,164.6z"/>
			
				<linearGradient id="SVGID_3_" gradientUnits="userSpaceOnUse" x1="148.555" y1="58.255" x2="63.99" y2="142.82" gradientTransform="matrix(1 0 0 -1 0 192)">
				<stop  offset="0" style="stop-color:#000000;stop-opacity:6.000000e-02"/>
				<stop  offset="1" style="stop-color:#000000;stop-opacity:0.18"/>
			</linearGradient>
			<polygon class="st8" points="129.9,45.3 183.5,98.8 43.8,98.8 42,97 96,85 62.3,50.9 			"/>
			
				<linearGradient id="SVGID_4_" gradientUnits="userSpaceOnUse" x1="144.8485" y1="5.0356" x2="80.2406" y2="69.6335" gradientTransform="matrix(1 0 0 -1 0 192)">
				<stop  offset="0" style="stop-color:#000000;stop-opacity:6.000000e-02"/>
				<stop  offset="1" style="stop-color:#000000;stop-opacity:0.18"/>
			</linearGradient>
			<path class="st9" d="M106.9,185.8c25.5-1.1,43.8-6.4,56.3-17.2l-33.3-33.3L62,140.6L106.9,185.8z"/>
			<path class="st10" d="M146,82H91l-7-7c-4-4-3.8-4-6-4H46c-2.2,0-4,1.8-4,4v22h108V86C150,83.8,148.2,82,146,82z"/>
			<path class="st11" d="M6.1,102.6h179.8c0-1.2,0-2.5,0.1-3.7H6C6,100.1,6,101.3,6.1,102.6z"/>
			<path class="st12" d="M6,100.7h180c0-0.6,0-1.2,0-1.8H6C6,99.5,6,100.1,6,100.7z"/>
			<path class="st13" d="M65,44h62c2.2,0,4,1.8,4,4l0,0c0,2.2-1.8,4-4,4H65c-2.2,0-4-1.8-4-4l0,0C61,45.8,62.8,44,65,44z"/>
			<path class="st13" d="M65,134h62c2.2,0,4,1.8,4,4l0,0c0,2.2-1.8,4-4,4H65c-2.2,0-4-1.8-4-4l0,0C61,135.8,62.8,134,65,134z"/>
		</g>
	</g>
</g>
</svg>
