<?xml version="1.0" encoding="UTF-8" standalone="no"?>
<svg
   xmlns:dc="http://purl.org/dc/elements/1.1/"
   xmlns:cc="http://creativecommons.org/ns#"
   xmlns:rdf="http://www.w3.org/1999/02/22-rdf-syntax-ns#"
   xmlns:svg="http://www.w3.org/2000/svg"
   xmlns="http://www.w3.org/2000/svg"
   viewBox="0 0 106.66667 106.66667"
   height="106.66667"
   width="106.66667"
   xml:space="preserve"
   id="svg2"
   version="1.1"><metadata
     id="metadata8"><rdf:RDF><cc:Work
         rdf:about=""><dc:format>image/svg+xml</dc:format><dc:type
           rdf:resource="http://purl.org/dc/dcmitype/StillImage" /></cc:Work></rdf:RDF></metadata><defs
     id="defs6"><clipPath
       id="clipPath18"
       clipPathUnits="userSpaceOnUse"><path
         id="path16"
         d="m 1,39.956 c 0,-28.892 10.105,-39 39,-39 v 0 c 28.894,0 39,10.108 39,39 v 0 c 0,28.894 -10.106,39 -39,39 v 0 c -28.895,0 -39,-10.106 -39,-39" /></clipPath><linearGradient
       id="linearGradient30"
       spreadMethod="pad"
       gradientTransform="matrix(60.670349,-60.670349,-60.670349,-60.670349,9.6648254,70.291695)"
       gradientUnits="userSpaceOnUse"
       y2="0"
       x2="1"
       y1="0"
       x1="0"><stop
         id="stop24"
         offset="0"
         style="stop-opacity:1;stop-color:#41d6f0" /><stop
         id="stop26"
         offset="0.0000002"
         style="stop-opacity:1;stop-color:#41d6f0" /><stop
         id="stop28"
         offset="1"
         style="stop-opacity:1;stop-color:#0eb3cf" /></linearGradient><clipPath
       id="clipPath40"
       clipPathUnits="userSpaceOnUse"><path
         id="path38"
         d="m 1,39.956 c 0,-28.892 10.105,-39 39,-39 v 0 c 28.894,0 39,10.108 39,39 v 0 c 0,28.894 -10.106,39 -39,39 v 0 c -28.895,0 -39,-10.106 -39,-39" /></clipPath><linearGradient
       id="linearGradient52"
       spreadMethod="pad"
       gradientTransform="matrix(80,-80,-80,-80,0,79.956329)"
       gradientUnits="userSpaceOnUse"
       y2="0"
       x2="1"
       y1="0"
       x1="0"><stop
         id="stop46"
         offset="0"
         style="stop-opacity:1;stop-color:#41d6f0" /><stop
         id="stop48"
         offset="0.0000002"
         style="stop-opacity:1;stop-color:#41d6f0" /><stop
         id="stop50"
         offset="1"
         style="stop-opacity:1;stop-color:#0eb3cf" /></linearGradient><clipPath
       id="clipPath62"
       clipPathUnits="userSpaceOnUse"><path
         id="path60"
         d="M 21.375,56.25 17.125,38 21.815,21.772 42.601,0.986 c 26.115,0.59 35.826,10.369 36.371,36.561 v 0 L 58.281,58.238 40,64.5 Z" /></clipPath><clipPath
       id="clipPath70"
       clipPathUnits="userSpaceOnUse"><path
         id="path68"
         d="M -32768,32767 H 32767 V -32768 H -32768 Z" /></clipPath><linearGradient
       id="linearGradient78"
       spreadMethod="pad"
       gradientTransform="matrix(47.792221,-47.792221,-47.792221,-47.792221,22.589004,57.464004)"
       gradientUnits="userSpaceOnUse"
       y2="0"
       x2="1"
       y1="0"
       x1="0"><stop
         id="stop72"
         offset="0"
         style="stop-opacity:0.29999237;stop-color:#ffffff" /><stop
         id="stop74"
         offset="0.0000002"
         style="stop-opacity:0.29999237;stop-color:#ffffff" /><stop
         id="stop76"
         offset="1"
         style="stop-opacity:0;stop-color:#ffffff" /></linearGradient><mask
       id="mask80"
       height="1"
       width="1"
       y="0"
       x="0"
       maskUnits="userSpaceOnUse"><g
         id="g90"><g
           id="g88"
           clip-path="url(#clipPath70)"><g
             id="g86"><g
               id="g84"><path
                 id="path82"
                 style="fill:url(#linearGradient78);stroke:none"
                 d="M -32768,32767 H 32767 V -32768 H -32768 Z" /></g></g></g></g></mask><linearGradient
       id="linearGradient102"
       spreadMethod="pad"
       gradientTransform="matrix(47.792221,-47.792221,-47.792221,-47.792221,22.589004,57.464004)"
       gradientUnits="userSpaceOnUse"
       y2="0"
       x2="1"
       y1="0"
       x1="0"><stop
         id="stop96"
         offset="0"
         style="stop-opacity:1;stop-color:#000000" /><stop
         id="stop98"
         offset="0.0000002"
         style="stop-opacity:1;stop-color:#000000" /><stop
         id="stop100"
         offset="1"
         style="stop-opacity:1;stop-color:#000000" /></linearGradient><clipPath
       id="clipPath112"
       clipPathUnits="userSpaceOnUse"><path
         id="path110"
         d="M 0,80 H 80 V 0 H 0 Z" /></clipPath><clipPath
       id="clipPath124"
       clipPathUnits="userSpaceOnUse"><path
         id="path122"
         d="M 0,80 H 80 V 0 H 0 Z" /></clipPath><clipPath
       id="clipPath132"
       clipPathUnits="userSpaceOnUse"><path
         id="path130"
         d="M 1.02344,79 H 78.9766 V 1 H 1.02344 Z" /></clipPath><clipPath
       id="clipPath136"
       clipPathUnits="userSpaceOnUse"><path
         id="path134"
         d="M 1.02344,79 H 78.9766 V 1 H 1.02344 Z" /></clipPath><clipPath
       id="clipPath140"
       clipPathUnits="userSpaceOnUse"><path
         id="path138"
         d="M 78.977,40 C 78.977,11.107 68.877,1 40,1 11.123,1 1.023,11.107 1.023,40 1.023,68.894 11.123,79 40,79 68.877,79 78.977,68.894 78.977,40" /></clipPath><clipPath
       id="clipPath144"
       clipPathUnits="userSpaceOnUse"><path
         id="path142"
         d="M -24534,24614 H 8232 V -8152 h -32766 z" /></clipPath><clipPath
       id="clipPath148"
       clipPathUnits="userSpaceOnUse"><path
         id="path146"
         d="M -24534,24614 H 8232 V -8152 h -32766 z" /></clipPath><mask
       id="mask150"
       height="1"
       width="1"
       y="0"
       x="0"
       maskUnits="userSpaceOnUse"><g
         id="g162"><g
           id="g160"
           clip-path="url(#clipPath144)"><g
             id="g158"><g
               id="g152" /><g
               id="g156"><g
                 id="g154"
                 clip-path="url(#clipPath148)" /></g></g></g></g></mask><linearGradient
       id="linearGradient168"
       spreadMethod="pad"
       gradientTransform="matrix(0,-53.61993,-53.61993,0,40,74.818359)"
       gradientUnits="userSpaceOnUse"
       y2="0"
       x2="1"
       y1="0"
       x1="0"><stop
         id="stop164"
         offset="0"
         style="stop-opacity:1;stop-color:#ffffff" /><stop
         id="stop166"
         offset="1"
         style="stop-opacity:1;stop-color:#e4e4e5" /></linearGradient><mask
       id="mask170"
       height="1"
       width="1"
       y="0"
       x="0"
       maskUnits="userSpaceOnUse"><g
         id="g196"><g
           style="opacity:0.5"
           id="g194"
           clip-path="url(#clipPath132)"><g
             id="g192"><g
               id="g172" /><g
               id="g190"><g
                 id="g188"
                 clip-path="url(#clipPath136)"><g
                   id="g186"><g
                     id="g184"
                     clip-path="url(#clipPath140)"><g
                       id="g182"><g
                         id="g174" /><g
                         id="g180"
                         mask="url(#mask150)"><g
                           id="g178"><path
                             id="path176"
                             style="fill:url(#linearGradient168);stroke:none"
                             d="M 78.977,40 C 78.977,11.107 68.877,1 40,1 11.123,1 1.023,11.107 1.023,40 1.023,68.894 11.123,79 40,79 68.877,79 78.977,68.894 78.977,40" /></g></g></g></g></g></g></g></g></g></g></mask><clipPath
       id="clipPath204"
       clipPathUnits="userSpaceOnUse"><path
         id="path202"
         d="M 1.02344,79 H 78.9766 V 1 H 1.02344 Z" /></clipPath><clipPath
       id="clipPath208"
       clipPathUnits="userSpaceOnUse"><path
         id="path206"
         d="M 78.977,40 C 78.977,11.107 68.877,1 40,1 11.123,1 1.023,11.107 1.023,40 1.023,68.894 11.123,79 40,79 68.877,79 78.977,68.894 78.977,40" /></clipPath><linearGradient
       id="linearGradient214"
       spreadMethod="pad"
       gradientTransform="matrix(0,-53.61993,-53.61993,0,40.000019,74.818184)"
       gradientUnits="userSpaceOnUse"
       y2="0"
       x2="1"
       y1="0"
       x1="0"><stop
         id="stop210"
         offset="0"
         style="stop-opacity:1;stop-color:#ffffff" /><stop
         id="stop212"
         offset="1"
         style="stop-opacity:1;stop-color:#000000" /></linearGradient><clipPath
       id="clipPath236"
       clipPathUnits="userSpaceOnUse"><path
         id="path234"
         d="M 1,79 H 79 V 1 H 1 Z" /></clipPath><clipPath
       id="clipPath240"
       clipPathUnits="userSpaceOnUse"><path
         id="path238"
         d="M 1,79 H 79 V 1 H 1 Z" /></clipPath><clipPath
       id="clipPath244"
       clipPathUnits="userSpaceOnUse"><path
         id="path242"
         d="M -24534,24614 H 8232 V -8152 h -32766 z" /></clipPath><clipPath
       id="clipPath248"
       clipPathUnits="userSpaceOnUse"><path
         id="path246"
         d="M -24534,24614 H 8232 V -8152 h -32766 z" /></clipPath><mask
       id="mask250"
       height="1"
       width="1"
       y="0"
       x="0"
       maskUnits="userSpaceOnUse"><g
         id="g262"><g
           id="g260"
           clip-path="url(#clipPath244)"><g
             id="g258"><g
               id="g252" /><g
               id="g256"><g
                 id="g254"
                 clip-path="url(#clipPath248)" /></g></g></g></g></mask><clipPath
       id="clipPath266"
       clipPathUnits="userSpaceOnUse"><path
         id="path264"
         d="M 1,79 H 79 V 1 H 1 Z" /></clipPath><clipPath
       id="clipPath270"
       clipPathUnits="userSpaceOnUse"><path
         id="path268"
         d="M 39.999,1.975 C 11.57,1.975 1.976,11.57 1.976,40 c 0,28.429 9.594,38.024 38.023,38.024 28.43,0 38.024,-9.595 38.024,-38.024 0,-28.43 -9.594,-38.025 -38.024,-38.025 m 0,77.025 C 11.105,79 1,68.894 1,40 1,11.107 11.105,1 39.999,1 68.896,1 79,11.107 79,40 79,68.894 68.896,79 39.999,79" /></clipPath><linearGradient
       id="linearGradient276"
       spreadMethod="pad"
       gradientTransform="matrix(0,-77.263527,-77.263527,0,40,78.75293)"
       gradientUnits="userSpaceOnUse"
       y2="0"
       x2="1"
       y1="0"
       x1="0"><stop
         id="stop272"
         offset="0"
         style="stop-opacity:1;stop-color:#ffffff" /><stop
         id="stop274"
         offset="1"
         style="stop-opacity:1;stop-color:#231815" /></linearGradient><mask
       id="mask278"
       height="1"
       width="1"
       y="0"
       x="0"
       maskUnits="userSpaceOnUse"><g
         id="g312"><g
           style="opacity:0.25"
           id="g310"
           clip-path="url(#clipPath236)"><g
             id="g308"><g
               id="g280" /><g
               id="g306"><g
                 id="g304"
                 clip-path="url(#clipPath240)"><g
                   id="g302"><g
                     id="g282" /><g
                     id="g300"
                     mask="url(#mask250)"><g
                       id="g284" /><g
                       id="g298"><g
                         id="g296"
                         clip-path="url(#clipPath266)"><g
                           id="g294"><g
                             id="g292"
                             clip-path="url(#clipPath270)"><g
                               id="g290"><g
                                 id="g288"><path
                                   id="path286"
                                   style="fill:url(#linearGradient276);stroke:none"
                                   d="M 39.999,1.975 C 11.57,1.975 1.976,11.57 1.976,40 c 0,28.429 9.594,38.024 38.023,38.024 28.43,0 38.024,-9.595 38.024,-38.024 0,-28.43 -9.594,-38.025 -38.024,-38.025 m 0,77.025 C 11.105,79 1,68.894 1,40 1,11.107 11.105,1 39.999,1 68.896,1 79,11.107 79,40 79,68.894 68.896,79 39.999,79" /></g></g></g></g></g></g></g></g></g></g></g></g></g></mask><clipPath
       id="clipPath320"
       clipPathUnits="userSpaceOnUse"><path
         id="path318"
         d="M 1,79 H 79 V 1 H 1 Z" /></clipPath><clipPath
       id="clipPath324"
       clipPathUnits="userSpaceOnUse"><path
         id="path322"
         d="M 39.999,1.975 C 11.57,1.975 1.976,11.57 1.976,40 c 0,28.429 9.594,38.024 38.023,38.024 28.43,0 38.024,-9.595 38.024,-38.024 0,-28.43 -9.594,-38.025 -38.024,-38.025 m 0,77.025 C 11.105,79 1,68.894 1,40 1,11.107 11.105,1 39.999,1 68.896,1 79,11.107 79,40 79,68.894 68.896,79 39.999,79" /></clipPath><linearGradient
       id="linearGradient330"
       spreadMethod="pad"
       gradientTransform="matrix(0,-77.263527,-77.263527,0,40,78.753128)"
       gradientUnits="userSpaceOnUse"
       y2="0"
       x2="1"
       y1="0"
       x1="0"><stop
         id="stop326"
         offset="0"
         style="stop-opacity:1;stop-color:#ffffff" /><stop
         id="stop328"
         offset="1"
         style="stop-opacity:1;stop-color:#ffffff" /></linearGradient></defs><g
     transform="matrix(1.3333333,0,0,-1.3333333,0,106.66667)"
     id="g10"><g
       id="g12"><g
         clip-path="url(#clipPath18)"
         id="g14"><g
           id="g20"><g
             id="g22"><path
               id="path32"
               style="fill:url(#linearGradient30);stroke:none"
               d="m 1,39.956 c 0,-28.892 10.105,-39 39,-39 v 0 c 28.894,0 39,10.108 39,39 v 0 c 0,28.894 -10.106,39 -39,39 v 0 c -28.895,0 -39,-10.106 -39,-39" /></g></g></g></g><g
       id="g34"><g
         clip-path="url(#clipPath40)"
         id="g36"><g
           id="g42"><g
             id="g44"><path
               id="path54"
               style="fill:url(#linearGradient52);stroke:none"
               d="m 1,39.956 c 0,-28.892 10.105,-39 39,-39 v 0 c 28.894,0 39,10.108 39,39 v 0 c 0,28.894 -10.106,39 -39,39 v 0 c -28.895,0 -39,-10.106 -39,-39" /></g></g></g></g><g
       id="g56"><g
         clip-path="url(#clipPath62)"
         id="g58"><g
           id="g64"><g
             id="g66" /><g
             mask="url(#mask80)"
             id="g92"><g
               id="g94"><path
                 id="path104"
                 style="fill:url(#linearGradient102);stroke:none"
                 d="M 21.375,56.25 17.125,38 21.815,21.772 42.601,0.986 c 26.115,0.59 35.826,10.369 36.371,36.561 v 0 L 58.281,58.238 40,64.5 Z" /></g></g></g></g></g><g
       id="g106"><g
         clip-path="url(#clipPath112)"
         id="g108"><g
           transform="translate(52.4297,22.5898)"
           id="g114"><path
             id="path116"
             style="fill:#ffffff;fill-opacity:1;fill-rule:nonzero;stroke:none"
             d="M 0,0 -3.689,6.51 C -0.5,9.07 1.54,13 1.54,17.41 c 0,7.72 -6.25,13.97 -13.97,13.97 -7.719,0 -13.969,-6.25 -13.969,-13.97 0,-4.41 2.039,-8.34 5.229,-10.9 L -24.86,0 c -5.44,3.88 -8.99,10.22 -8.99,17.41 0,11.83 9.59,21.42 21.42,21.42 C -0.6,38.83 8.99,29.24 8.99,17.41 8.99,10.22 5.44,3.88 0,0 m -24.01,17.41 c 0,6.4 5.18,11.58 11.58,11.58 6.401,0 11.58,-5.18 11.58,-11.58 0,-3.519 -1.57,-6.67 -4.04,-8.79 l -3.309,5.83 c 0.59,0.84 0.939,1.861 0.939,2.96 0,2.85 -2.32,5.17 -5.17,5.17 -2.85,0 -5.17,-2.32 -5.17,-5.17 0,-1.099 0.35,-2.12 0.94,-2.96 l -3.31,-5.83 c -2.469,2.12 -4.04,5.271 -4.04,8.79 m 11.58,-21.42 c -3.799,0 -7.37,1.01 -10.469,2.75 l 3.67,6.47 1.179,2.08 3.18,5.59 c 0.73,-0.39 1.55,-0.64 2.44,-0.64 0.89,0 1.71,0.25 2.441,0.64 L -6.81,7.29 -5.63,5.21 -1.96,-1.26 C -5.06,-3 -8.63,-4.01 -12.43,-4.01 m 0,47.25 c -14.27,0 -25.83,-11.56 -25.83,-25.83 0,-14.269 11.56,-25.83 25.83,-25.83 14.27,0 25.83,11.561 25.83,25.83 0,14.27 -11.56,25.83 -25.83,25.83" /></g></g></g><g
       id="g118"><g
         clip-path="url(#clipPath124)"
         id="g120"><g
           id="g126"><g
             id="g128" /><g
             mask="url(#mask170)"
             id="g198"><g
               id="g200" /><g
               id="g228"><g
                 style="opacity:0.5"
                 id="g226"
                 clip-path="url(#clipPath204)"><g
                   id="g224"><g
                     id="g222"
                     clip-path="url(#clipPath208)"><g
                       id="g220"><g
                         id="g218"><path
                           id="path216"
                           style="fill:url(#linearGradient214);stroke:none"
                           d="M 78.977,40 C 78.977,11.107 68.877,1 40,1 11.123,1 1.023,11.107 1.023,40 1.023,68.894 11.123,79 40,79 68.877,79 78.977,68.894 78.977,40" /></g></g></g></g></g></g></g></g><g
           id="g230"><g
             id="g232" /><g
             mask="url(#mask278)"
             id="g314"><g
               id="g316" /><g
               id="g344"><g
                 style="opacity:0.25"
                 id="g342"
                 clip-path="url(#clipPath320)"><g
                   id="g340"><g
                     id="g338"
                     clip-path="url(#clipPath324)"><g
                       id="g336"><g
                         id="g334"><path
                           id="path332"
                           style="fill:url(#linearGradient330);stroke:none"
                           d="M 39.999,1.975 C 11.57,1.975 1.976,11.57 1.976,40 c 0,28.429 9.594,38.024 38.023,38.024 28.43,0 38.024,-9.595 38.024,-38.024 0,-28.43 -9.594,-38.025 -38.024,-38.025 m 0,77.025 C 11.105,79 1,68.894 1,40 1,11.107 11.105,1 39.999,1 68.896,1 79,11.107 79,40 79,68.894 68.896,79 39.999,79" /></g></g></g></g></g></g></g></g></g></g></g></svg>