<svg xmlns="http://www.w3.org/2000/svg" xmlns:xlink="http://www.w3.org/1999/xlink" width="192" height="192" viewBox="0 0 192 192">
  <defs>
    <style>
      .cls-1 {
        fill: none;
      }

      .cls-2 {
        opacity: 0.01;
      }

      .cls-2, .cls-3, .cls-4, .cls-5 {
        isolation: isolate;
      }

      .cls-3 {
        opacity: 0.02;
      }

      .cls-4 {
        opacity: 0.04;
      }

      .cls-5 {
        opacity: 0.06;
      }

      .cls-6 {
        fill: #787878;
      }

      .cls-7 {
        fill: url(#未命名的渐变_52);
      }

      .cls-8 {
        fill: url(#未命名的渐变_2);
      }

      .cls-9 {
        fill: url(#未命名的渐变_17);
      }

      .cls-10 {
        fill: #fafafa;
      }

      .cls-11 {
        fill: #fff;
      }

      .cls-12 {
        fill: url(#未命名的渐变_3);
      }

      .cls-13 {
        fill: url(#未命名的渐变_140);
      }

      .cls-14 {
        fill-opacity: 0.4;
        opacity: 0.1;
        fill: url(#未命名的渐变_100);
      }

      .cls-15 {
        fill-opacity: 0.8;
        opacity: 0.4;
        fill: url(#未命名的渐变_103);
      }
    </style>
    <linearGradient id="未命名的渐变_52" data-name="未命名的渐变 52" x1="166.004" y1="27.998" x2="25.998" y2="168.004" gradientTransform="matrix(1, 0, 0, -1, 0, 194)" gradientUnits="userSpaceOnUse">
      <stop offset="0" stop-opacity="0.1"/>
      <stop offset="0.5" stop-color="gray" stop-opacity="0.05"/>
      <stop offset="1" stop-color="#fff" stop-opacity="0.12"/>
    </linearGradient>
    <linearGradient id="未命名的渐变_2" data-name="未命名的渐变 2" x1="166.012" y1="75.988" x2="25.987" y2="216.012" gradientTransform="matrix(1, 0, 0, -1, 0, 242)" gradientUnits="userSpaceOnUse">
      <stop offset="0" stop-opacity="0.04"/>
      <stop offset="0.5" stop-color="gray" stop-opacity="0"/>
      <stop offset="1" stop-color="#fff" stop-opacity="0.1"/>
    </linearGradient>
    <linearGradient id="未命名的渐变_17" data-name="未命名的渐变 17" x1="165.998" y1="165.998" x2="90.343" y2="90.343" gradientUnits="userSpaceOnUse">
      <stop offset="0" stop-opacity="0.02"/>
      <stop offset="1" stop-opacity="0.1"/>
    </linearGradient>
    <linearGradient id="未命名的渐变_3" data-name="未命名的渐变 3" x1="148.314" y1="148.314" x2="116.888" y2="116.888" gradientUnits="userSpaceOnUse">
      <stop offset="0" stop-opacity="0.06"/>
      <stop offset="1" stop-opacity="0.18"/>
    </linearGradient>
    <linearGradient id="未命名的渐变_140" data-name="未命名的渐变 140" x1="115.444" y1="115.444" x2="64.556" y2="64.556" gradientUnits="userSpaceOnUse">
      <stop offset="0" stop-color="#929292"/>
      <stop offset="1" stop-color="#737373"/>
    </linearGradient>
    <radialGradient id="未命名的渐变_100" data-name="未命名的渐变 100" cx="109.429" cy="109.732" r="39.611" gradientUnits="userSpaceOnUse">
      <stop offset="0" stop-color="#fff"/>
      <stop offset="0.367" stop-color="#fff"/>
      <stop offset="0.968" stop-color="#fff" stop-opacity="0"/>
    </radialGradient>
    <linearGradient id="未命名的渐变_103" data-name="未命名的渐变 103" x1="85.879" y1="85.879" x2="68.201" y2="68.201" gradientTransform="translate(77.04 -31.911) rotate(45)" gradientUnits="userSpaceOnUse">
      <stop offset="0.2" stop-color="#fff" stop-opacity="0"/>
      <stop offset="0.381" stop-color="#fff" stop-opacity="0.01"/>
      <stop offset="0.49" stop-color="#fff" stop-opacity="0.043"/>
      <stop offset="0.58" stop-color="#fff" stop-opacity="0.099"/>
      <stop offset="0.659" stop-color="#fff" stop-opacity="0.179"/>
      <stop offset="0.732" stop-color="#fff" stop-opacity="0.282"/>
      <stop offset="0.8" stop-color="#fff" stop-opacity="0.409"/>
      <stop offset="0.864" stop-color="#fff" stop-opacity="0.56"/>
      <stop offset="0.925" stop-color="#fff" stop-opacity="0.735"/>
      <stop offset="0.981" stop-color="#fff" stop-opacity="0.928"/>
      <stop offset="1" stop-color="#fff"/>
    </linearGradient>
  </defs>
  <title>android_search</title>
  <g id="图层_2" data-name="图层 2">
    <g id="图层_1-2" data-name="图层 1">
      <rect class="cls-1" width="192" height="192"/>
      <g>
        <path class="cls-2" d="M96,190C27.3,190,3,165.7,3,97S27.3,4,96,4s93,24.3,93,93S164.7,190,96,190Z"/>
        <path class="cls-3" d="M96,189C28.1,189,4,164.9,4,97S28.1,5,96,5s92,24.1,92,92S163.9,189,96,189Z"/>
        <path class="cls-4" d="M96,188C28.8,188,5,164.2,5,97S28.8,6,96,6s91,23.8,91,91S163.2,188,96,188Z"/>
        <path class="cls-5" d="M186,97c0,66.7-23.3,90-90,90S6,163.7,6,97,29.3,7,96,7,186,30.3,186,97Z"/>
      </g>
      <path class="cls-6" d="M186,96c0,66.7-23.3,90-90,90S6,162.7,6,96,29.3,6,96,6,186,29.3,186,96Z"/>
      <path class="cls-7" d="M186,96c0,66.67-23.32,90-90,90S6,162.67,6,96,29.32,6,96,6,186,29.32,186,96Z"/>
      <path class="cls-8" d="M96,6C29.3,6,6,29.3,6,96s23.3,90,90,90,90-23.3,90-90S162.7,6,96,6Zm68.6,158.6C151.2,178,130,184,96,184s-55.2-6-68.6-19.4S8,130,8,96s6-55.2,19.4-68.6S62,8,96,8s55.2,6,68.6,19.4S184,62,184,96,178,151.2,164.6,164.6Z"/>
      <path class="cls-9" d="M56.4,124.284l60.769,60.769c44.01-4.312,63.571-23.877,67.883-67.882L124.284,56.4Z"/>
      <path class="cls-10" d="M150.059,146.57l-3.489,3.489a8.254,8.254,0,0,1-11.863-.2l-23.183-27.609,10.728-10.728,27.609,23.183A8.254,8.254,0,0,1,150.059,146.57Z"/>
      <path class="cls-11" d="M123.252,113.524l27.609,23.183a8.253,8.253,0,0,1,1.17,1.365,8.21,8.21,0,0,0-2.17-3.365l-27.609-23.183-10.728,10.728,1.369,1.631Z"/>
      <path class="cls-12" d="M150.059,146.57l-3.489,3.489a8.254,8.254,0,0,1-11.863-.2l-23.183-27.609,10.728-10.728,27.609,23.183A8.254,8.254,0,0,1,150.059,146.57Z"/>
      <circle class="cls-13" cx="90" cy="90" r="36"/>
      <circle class="cls-14" cx="90" cy="90" r="34"/>
      <ellipse class="cls-15" cx="77.04" cy="77.04" rx="22" ry="12.5" transform="translate(-31.911 77.04) rotate(-45)"/>
      <path class="cls-10" d="M138,90A48,48,0,1,1,90,42,48,48,0,0,1,138,90Zm-12,0a36,36,0,1,0-36,36A36.041,36.041,0,0,0,126,90Z"/>
      <g>
        <path class="cls-11" d="M43,92a48,48,0,0,1,90.45-22.4,48,48,0,1,0-85.9,42.81A47.8,47.8,0,0,1,43,92Z"/>
        <path class="cls-11" d="M91,128a35.99,35.99,0,0,0,31.643-53.155,35.991,35.991,0,0,1-64.286,32.31A36.041,36.041,0,0,0,91,128Z"/>
      </g>
    </g>
  </g>
</svg>
