<?xml version="1.0" encoding="utf-8"?>
<!-- Generator: Adobe Illustrator 17.1.0, SVG Export Plug-In . SVG Version: 6.00 Build 0)  -->
<!DOCTYPE svg PUBLIC "-//W3C//DTD SVG 1.1//EN" "http://www.w3.org/Graphics/SVG/1.1/DTD/svg11.dtd" [
	<!ENTITY ns_extend "http://ns.adobe.com/Extensibility/1.0/">
	<!ENTITY ns_ai "http://ns.adobe.com/AdobeIllustrator/10.0/">
	<!ENTITY ns_graphs "http://ns.adobe.com/Graphs/1.0/">
	<!ENTITY ns_vars "http://ns.adobe.com/Variables/1.0/">
	<!ENTITY ns_imrep "http://ns.adobe.com/ImageReplacement/1.0/">
	<!ENTITY ns_sfw "http://ns.adobe.com/SaveForWeb/1.0/">
	<!ENTITY ns_custom "http://ns.adobe.com/GenericCustomNamespace/1.0/">
	<!ENTITY ns_adobe_xpath "http://ns.adobe.com/XPath/1.0/">
]>
<svg version="1.1" id="图层_1" xmlns:x="&ns_extend;" xmlns:i="&ns_ai;" xmlns:graph="&ns_graphs;"
	 xmlns="http://www.w3.org/2000/svg" xmlns:xlink="http://www.w3.org/1999/xlink" x="0px" y="0px" width="96px" height="96px"
	 viewBox="0 0 96 96" enable-background="new 0 0 96 96" xml:space="preserve">
<metadata>
</metadata>
<g>
	<path fill-opacity="0.4" d="M88,49c0,29.635-10.361,40-40,40C18.365,89,8,78.635,8,49C8,19.367,18.365,9,48,9
		C77.637,9,88,19.367,88,49z"/>
	
		<linearGradient id="SVGID_1_" gradientUnits="userSpaceOnUse" x1="101.7344" y1="1197.4639" x2="101.7344" y2="1277.4639" gradientTransform="matrix(1 0 0 1 -53.7344 -1189.8008)">
		<stop  offset="0" style="stop-color:#8C8C8C"/>
		<stop  offset="1" style="stop-color:#414141"/>
	</linearGradient>
	<path fill="url(#SVGID_1_)" d="M88,48c0,29.635-10.361,40-40,40C18.365,88,8,77.635,8,48C8,18.367,18.365,8,48,8
		C77.637,8,88,18.367,88,48z"/>
	
		<linearGradient id="SVGID_2_" gradientUnits="userSpaceOnUse" x1="101.7344" y1="1198.0537" x2="101.7344" y2="1277.2988" gradientTransform="matrix(1 0 0 1 -53.7344 -1189.8008)">
		<stop  offset="0" style="stop-color:#FFFFFF"/>
		<stop  offset="1" style="stop-color:#FFFFFF;stop-opacity:0.05"/>
	</linearGradient>
	<path fill="url(#SVGID_2_)" fill-opacity="0.3" d="M48,8C18.365,8,8,18.367,8,48c0,29.635,10.365,40,40,40
		c29.639,0,40-10.365,40-40C88,18.367,77.637,8,48,8z M48,87C18.842,87,9,77.158,9,48S18.842,9,48,9s39,9.842,39,39S77.158,87,48,87
		z"/>
	
		<linearGradient id="SVGID_3_" gradientUnits="userSpaceOnUse" x1="295.6602" y1="421.96" x2="295.6602" y2="416.96" gradientTransform="matrix(1 0 0 1 -247.6602 -373.96)">
		<stop  offset="0" style="stop-color:#000000;stop-opacity:0.15"/>
		<stop  offset="1" style="stop-color:#000000;stop-opacity:0"/>
	</linearGradient>
	<rect x="8" y="43" fill="url(#SVGID_3_)" width="80" height="5"/>
	<rect x="8" y="46" fill-opacity="0.05" width="80" height="2"/>
	<path fill="#FFFFFF" fill-opacity="0.5" d="M8.021,50h79.956c0.006-0.33,0.01-0.665,0.012-1H8.012
		C8.014,49.335,8.016,49.67,8.021,50z"/>
	
		<linearGradient id="SVGID_4_" gradientUnits="userSpaceOnUse" x1="295.6602" y1="409.96" x2="295.6602" y2="399.8965" gradientTransform="matrix(1 0 0 1 -247.6602 -373.96)">
		<stop  offset="0" style="stop-color:#000000;stop-opacity:0.1"/>
		<stop  offset="0.5" style="stop-color:#000000;stop-opacity:0.1"/>
		<stop  offset="1" style="stop-color:#000000;stop-opacity:0.3"/>
	</linearGradient>
	<path fill="url(#SVGID_4_)" d="M62,26v5c0,1.084-0.916,2-2,2H36c-1.084,0-2-0.916-2-2v-5h-3v5c0,2.75,2.25,5,5,5h24
		c2.75,0,5-2.25,5-5v-5H62z"/>
	<g>
		
			<linearGradient id="SVGID_5_" gradientUnits="userSpaceOnUse" x1="295.6602" y1="401.96" x2="295.6602" y2="397.96" gradientTransform="matrix(1 0 0 1 -247.6602 -373.96)">
			<stop  offset="0" style="stop-color:#E5E5E5"/>
			<stop  offset="0.2545" style="stop-color:#6D6E70"/>
			<stop  offset="0.6545" style="stop-color:#FFFFFF"/>
			<stop  offset="0.8303" style="stop-color:#808184"/>
			<stop  offset="1" style="stop-color:#F4F4F4"/>
		</linearGradient>
		<path fill="url(#SVGID_5_)" d="M65,26c0,1.1-0.9,2-2,2H33c-1.1,0-2-0.9-2-2l0,0c0-1.1,0.9-2,2-2h30C64.1,24,65,24.9,65,26L65,26z"
			/>
	</g>
	<g>
		
			<linearGradient id="SVGID_6_" gradientUnits="userSpaceOnUse" x1="278.6602" y1="399.96" x2="312.6602" y2="399.96" gradientTransform="matrix(1 0 0 1 -247.6602 -373.96)">
			<stop  offset="0" style="stop-color:#000000;stop-opacity:0.5"/>
			<stop  offset="0.15" style="stop-color:#000000;stop-opacity:0"/>
			<stop  offset="0.85" style="stop-color:#000000;stop-opacity:0"/>
			<stop  offset="1" style="stop-color:#000000;stop-opacity:0.5"/>
		</linearGradient>
		<path fill="url(#SVGID_6_)" d="M65,26c0,1.1-0.9,2-2,2H33c-1.1,0-2-0.9-2-2l0,0c0-1.1,0.9-2,2-2h30C64.1,24,65,24.9,65,26L65,26z"
			/>
	</g>
	
		<linearGradient id="SVGID_7_" gradientUnits="userSpaceOnUse" x1="295.6602" y1="448.96" x2="295.6602" y2="438.8965" gradientTransform="matrix(1 0 0 1 -247.6602 -373.96)">
		<stop  offset="0" style="stop-color:#000000;stop-opacity:0.1"/>
		<stop  offset="0.5" style="stop-color:#000000;stop-opacity:0.1"/>
		<stop  offset="1" style="stop-color:#000000;stop-opacity:0.3"/>
	</linearGradient>
	<path fill="url(#SVGID_7_)" d="M62,65v5c0,1.084-0.916,2-2,2H36c-1.084,0-2-0.916-2-2v-5h-3v5c0,2.75,2.25,5,5,5h24
		c2.75,0,5-2.25,5-5v-5H62z"/>
	<g>
		
			<linearGradient id="SVGID_8_" gradientUnits="userSpaceOnUse" x1="295.6602" y1="440.96" x2="295.6602" y2="436.96" gradientTransform="matrix(1 0 0 1 -247.6602 -373.96)">
			<stop  offset="0" style="stop-color:#E5E5E5"/>
			<stop  offset="0.2545" style="stop-color:#6D6E70"/>
			<stop  offset="0.6545" style="stop-color:#FFFFFF"/>
			<stop  offset="0.8303" style="stop-color:#808184"/>
			<stop  offset="1" style="stop-color:#F4F4F4"/>
		</linearGradient>
		<path fill="url(#SVGID_8_)" d="M65,65c0,1.1-0.9,2-2,2H33c-1.1,0-2-0.9-2-2l0,0c0-1.1,0.9-2,2-2h30C64.1,63,65,63.9,65,65L65,65z"
			/>
	</g>
	<g>
		
			<linearGradient id="SVGID_9_" gradientUnits="userSpaceOnUse" x1="278.6602" y1="438.96" x2="312.6602" y2="438.96" gradientTransform="matrix(1 0 0 1 -247.6602 -373.96)">
			<stop  offset="0" style="stop-color:#000000;stop-opacity:0.5"/>
			<stop  offset="0.15" style="stop-color:#000000;stop-opacity:0"/>
			<stop  offset="0.85" style="stop-color:#000000;stop-opacity:0"/>
			<stop  offset="1" style="stop-color:#000000;stop-opacity:0.5"/>
		</linearGradient>
		<path fill="url(#SVGID_9_)" d="M65,65c0,1.1-0.9,2-2,2H33c-1.1,0-2-0.9-2-2l0,0c0-1.1,0.9-2,2-2h30C64.1,63,65,63.9,65,65L65,65z"
			/>
	</g>
	<rect fill="none" width="96" height="96"/>
	<path fill-opacity="0.02" d="M15,48v-9c0-3.309,2.691-6,6-6h18c3.656,0,5.799,2.143,6.828,3.172L47.656,38H76c3.309,0,6,2.691,6,6
		v4H15z"/>
	<path fill-opacity="0.05" d="M16,48v-9c0-2.757,2.242-5,5-5h18c3.242,0,5.115,1.873,6.121,2.879L47.242,39H76c2.756,0,5,2.243,5,5
		v4H16z"/>
	<path fill-opacity="0.05" d="M17,48v-9c0-2.206,1.793-4,4-4h18c2.828,0,4.51,1.683,5.414,2.586L46.828,40H76c2.205,0,4,1.794,4,4v4
		H17z"/>
	<path fill-opacity="0.1" d="M18,48v-9c0-1.654,1.346-3,3-3h18c2.414,0,3.793,1.38,4.707,2.293L46.414,41H76c1.654,0,3,1.346,3,3v4
		H18z"/>
	
		<linearGradient id="SVGID_10_" gradientUnits="userSpaceOnUse" x1="296.1602" y1="442.9604" x2="296.1602" y2="411.9442" gradientTransform="matrix(1 0 0 1 -247.6602 -373.96)">
		<stop  offset="0" style="stop-color:#D68612"/>
		<stop  offset="1" style="stop-color:#F9D641"/>
	</linearGradient>
	<path fill="url(#SVGID_10_)" d="M78,48v-5c0-1.1-0.9-2-2-2H46c0,0,0,0-3-3c-0.855-0.854-2-2-4-2c-4,0-18,0-18,0c-1.1,0-2,0.9-2,2
		v10H78z"/>
	<path fill="#FFFFFF" fill-opacity="0.5" d="M21,37h18c3,0,4,1,4,1c-0.855-0.854-2-2-4-2c-4,0-18,0-18,0c-1.1,0-2,0.9-2,2
		C19,38,19,37,21,37z"/>
	<path fill="#FFFFFF" fill-opacity="0.5" d="M47.414,42H76c2,0,2,1,2,1c0-1.1-0.9-2-2-2H46l0.707,0.707
		C46.895,41.895,47.148,42,47.414,42z"/>
	
		<linearGradient id="SVGID_11_" gradientUnits="userSpaceOnUse" x1="296.1602" y1="421.96" x2="296.1602" y2="418.96" gradientTransform="matrix(1 0 0 1 -247.6602 -373.96)">
		<stop  offset="0" style="stop-color:#000000;stop-opacity:0.1"/>
		<stop  offset="1" style="stop-color:#000000;stop-opacity:0"/>
	</linearGradient>
	<rect x="19" y="45" fill="url(#SVGID_11_)" width="59" height="3"/>
	<rect x="19" y="47" fill-opacity="0.06" width="59" height="1"/>
</g>
</svg>
