<?xml version="1.0" encoding="utf-8"?>
<!-- Generator: Adobe Illustrator 22.0.1, SVG Export Plug-In . SVG Version: 6.00 Build 0)  -->
<svg version="1.1" id="图层_1" xmlns="http://www.w3.org/2000/svg" xmlns:xlink="http://www.w3.org/1999/xlink" x="0px" y="0px"
	 viewBox="0 0 192 192" style="enable-background:new 0 0 192 192;" xml:space="preserve">
<style type="text/css">
	.st0{fill:none;}
	.st1{opacity:1.000000e-02;enable-background:new    ;}
	.st2{opacity:2.000000e-02;enable-background:new    ;}
	.st3{opacity:4.000000e-02;enable-background:new    ;}
	.st4{opacity:6.000000e-02;enable-background:new    ;}
	.st5{fill:#0071CE;}
	.st6{fill:#008CFF;}
	.st7{fill:url(#SVGID_1_);}
	.st8{fill:url(#SVGID_2_);}
	.st9{fill:url(#SVGID_3_);}
	.st10{fill:#0064BF;}
	.st11{opacity:0.2;fill:#50A7E2;enable-background:new    ;}
	.st12{fill:#96C1EA;}
	.st13{fill:url(#SVGID_4_);}
	.st14{fill:#E4EBEF;}
	.st15{fill:url(#SVGID_5_);}
</style>
<title>oneplus_filemanager</title>
<g id="图层_2_1_">
	<g id="图层_1-2">
		<rect class="st0" width="192" height="192"/>
		<path class="st1" d="M96,190c-68.7,0-93-24.3-93-93S27.3,4,96,4s93,24.3,93,93S164.7,190,96,190z"/>
		<path class="st2" d="M96,189c-67.9,0-92-24.1-92-92S28.1,5,96,5s92,24.1,92,92S163.9,189,96,189z"/>
		<path class="st3" d="M96,188c-67.2,0-91-23.8-91-91S28.8,6,96,6s91,23.8,91,91S163.2,188,96,188z"/>
		<path class="st4" d="M186,97c0,66.7-23.3,90-90,90S6,163.7,6,97S29.3,7,96,7S186,30.3,186,97z"/>
		<path class="st5" d="M186,96c0,66.7-23.3,90-90,90S6,162.7,6,96S29.3,6,96,6S186,29.3,186,96z"/>
		<path class="st6" d="M110,88c8-8,12-11,12-17V7.5c-8.6-1.1-17.3-1.5-26-1.5C29.3,6,6,29.3,6,96s23.3,90,90,90c0.7,0,1.3,0,2,0v-81
			C98,99,102,96,110,88z"/>
		
			<linearGradient id="SVGID_1_" gradientUnits="userSpaceOnUse" x1="166.0125" y1="75.9875" x2="25.9875" y2="216.0125" gradientTransform="matrix(1 0 0 -1 0 242)">
			<stop  offset="0" style="stop-color:#000000;stop-opacity:0.1"/>
			<stop  offset="0.5" style="stop-color:#808080;stop-opacity:5.000000e-02"/>
			<stop  offset="1" style="stop-color:#FFFFFF;stop-opacity:0.1"/>
		</linearGradient>
		<path class="st7" d="M186,96c0,66.7-23.3,90-90,90S6,162.7,6,96S29.3,6,96,6S186,29.3,186,96z"/>
		
			<linearGradient id="SVGID_2_" gradientUnits="userSpaceOnUse" x1="166.0127" y1="75.9877" x2="25.9873" y2="216.0123" gradientTransform="matrix(1 0 0 -1 0 242)">
			<stop  offset="0" style="stop-color:#000000;stop-opacity:4.000000e-02"/>
			<stop  offset="0.5" style="stop-color:#808080;stop-opacity:0"/>
			<stop  offset="1" style="stop-color:#FFFFFF;stop-opacity:0.1"/>
		</linearGradient>
		<path class="st8" d="M96,6C29.3,6,6,29.3,6,96s23.3,90,90,90s90-23.3,90-90S162.7,6,96,6z M164.6,164.6C151.2,178,130,184,96,184
			s-55.2-6-68.6-19.4S8,130,8,96s6-55.2,19.4-68.6S62,8,96,8s55.2,6,68.6,19.4S184,62,184,96S178,151.2,164.6,164.6z"/>
		
			<linearGradient id="SVGID_3_" gradientUnits="userSpaceOnUse" x1="172.5137" y1="32.4943" x2="71.504" y2="133.504" gradientTransform="matrix(1 0 0 -1 0 192)">
			<stop  offset="0" style="stop-color:#000000;stop-opacity:2.000000e-02"/>
			<stop  offset="1" style="stop-color:#000000;stop-opacity:0.14"/>
		</linearGradient>
		<path class="st9" d="M186,96c0.1-8.5-0.4-17-1.4-25.4L122.5,8.5L122,8v63c0,6-4,9-12,17s-12,11-12,17l0,81
			C163.2,185.5,186,162,186,96z"/>
		<path class="st10" d="M106,28c-2.2,0-4,1.8-4,4v32c0,2.2,1.8,4,4,4s4-1.8,4-4V32C110,29.8,108.2,28,106,28z"/>
		<path class="st11" d="M107,30c-2.2,0-4,1.8-4,4v32c0,2.2,1.8,4,4,4s4-1.8,4-4V34C111,31.8,109.2,30,107,30z"/>
		<path class="st12" d="M148,52h-22v19c0,6-4,9-12,17s-12,11-12,17v35h46c2.2,0,4-1.8,4-4V56C152,53.8,150.2,52,148,52z"/>
		
			<linearGradient id="SVGID_4_" gradientUnits="userSpaceOnUse" x1="102" y1="96" x2="152" y2="96" gradientTransform="matrix(1 0 0 -1 0 192)">
			<stop  offset="0.6" style="stop-color:#000000;stop-opacity:8.000000e-02"/>
			<stop  offset="0.9" style="stop-color:#000000;stop-opacity:0"/>
		</linearGradient>
		<path class="st13" d="M148,52h-22v19c0,6-4,9-12,17s-12,11-12,17v35h46c2.2,0,4-1.8,4-4V56C152,53.8,150.2,52,148,52z"/>
		<path class="st14" d="M130,40h-8v31c0,6-4,9-12,17s-12,11-12,17v47h32c2.2,0,4-1.8,4-4V44C134,41.8,132.2,40,130,40z"/>
		
			<linearGradient id="SVGID_5_" gradientUnits="userSpaceOnUse" x1="98" y1="96" x2="134" y2="96" gradientTransform="matrix(1 0 0 -1 0 192)">
			<stop  offset="0" style="stop-color:#000000;stop-opacity:8.000000e-02"/>
			<stop  offset="0.2" style="stop-color:#000000;stop-opacity:0"/>
		</linearGradient>
		<path class="st15" d="M130,40h-8v31c0,6-4,9-12,17s-12,11-12,17v47h32c2.2,0,4-1.8,4-4V44C134,41.8,132.2,40,130,40z"/>
	</g>
</g>
</svg>
