<svg xmlns="http://www.w3.org/2000/svg" xmlns:xlink="http://www.w3.org/1999/xlink" viewBox="0 0 192 192"><defs><style>.cls-1{fill:none;}.cls-2{opacity:0.01;}.cls-11,.cls-2,.cls-3,.cls-4,.cls-5{isolation:isolate;}.cls-3{opacity:0.02;}.cls-4{opacity:0.04;}.cls-5{opacity:0.06;}.cls-6{fill:#f4b30f;}.cls-7{fill:url(#未命名的渐变_11);}.cls-8{fill:url(#未命名的渐变_2);}.cls-9{fill:url(#未命名的渐变_3);}.cls-10{fill:#fff;}.cls-11{opacity:0.1;}.cls-12{fill:url(#未命名的渐变_4);}.cls-13{fill:url(#未命名的渐变_5);}</style><linearGradient id="未命名的渐变_11" x1="166" y1="166" x2="26" y2="26" gradientUnits="userSpaceOnUse"><stop offset="0" stop-opacity="0.12"/><stop offset="0.5" stop-color="gray" stop-opacity="0.05"/><stop offset="1" stop-color="#fff" stop-opacity="0.15"/></linearGradient><linearGradient id="未命名的渐变_2" x1="166" y1="764" x2="25.99" y2="624" gradientTransform="translate(0 -598)" gradientUnits="userSpaceOnUse"><stop offset="0" stop-opacity="0.05"/><stop offset="0.5" stop-color="gray" stop-opacity="0"/><stop offset="1" stop-color="#fff" stop-opacity="0.1"/></linearGradient><linearGradient id="未命名的渐变_3" x1="162.14" y1="767.85" x2="75.23" y2="680.94" gradientTransform="translate(0 -598)" gradientUnits="userSpaceOnUse"><stop offset="0" stop-opacity="0.04"/><stop offset="1" stop-opacity="0.12"/></linearGradient><linearGradient id="未命名的渐变_4" x1="100.6" y1="742.4" x2="91.4" y2="733.21" gradientTransform="translate(0 -598)" gradientUnits="userSpaceOnUse"><stop offset="0" stop-opacity="0"/><stop offset="1" stop-opacity="0.2"/></linearGradient><linearGradient id="未命名的渐变_5" x1="93.68" y1="712.89" x2="128" y2="712.89" gradientTransform="translate(0 -598)" gradientUnits="userSpaceOnUse"><stop offset="0" stop-opacity="0.18"/><stop offset="1" stop-opacity="0.06"/></linearGradient></defs><title>nokia_soundrecorder</title><g id="图层_2" data-name="图层 2"><g id="图层_1-2" data-name="图层 1"><rect class="cls-1" width="192" height="192"/><path class="cls-2" d="M96,190C27.34,190,3,165.66,3,97S27.34,4,96,4s93,24.34,93,93S164.66,190,96,190Z"/><path class="cls-3" d="M96,189C28.07,189,4,164.92,4,97S28.07,5,96,5s92,24.07,92,92S163.93,189,96,189Z"/><path class="cls-4" d="M96,188C28.81,188,5,164.19,5,97S28.81,6,96,6s91,23.81,91,91S163.19,188,96,188Z"/><path class="cls-5" d="M186,97c0,66.67-23.32,90-90,90S6,163.67,6,97,29.32,7,96,7,186,30.32,186,97Z"/><path class="cls-6" d="M186,96c0,66.67-23.32,90-90,90S6,162.67,6,96,29.32,6,96,6,186,29.32,186,96Z"/><path class="cls-7" d="M186,96c0,66.67-23.32,90-90,90S6,162.67,6,96,29.32,6,96,6,186,29.32,186,96Z"/><path class="cls-8" d="M96,6C29.32,6,6,29.32,6,96s23.32,90,90,90,90-23.33,90-90S162.68,6,96,6Zm68.59,158.59C151.17,178,130,184,96,184s-55.17-6-68.59-19.41S8,130,8,96s6-55.17,19.41-68.59S62,8,96,8s55.17,6,68.59,19.41S184,62,184,96,178,151.16,164.59,164.59Z"/><path class="cls-9" d="M110,185.61c46.58-2.73,68.26-20.19,74.23-61.57L109.17,49,80,106,69,95v11l4,20,20,20-16.8,5.8Z"/><path class="cls-10" d="M96,44h0a20,20,0,0,1,20,20v40a20,20,0,0,1-20,20h0a20,20,0,0,1-20-20V64A20,20,0,0,1,96,44Z"/><path class="cls-11" d="M95.78,116A12.26,12.26,0,0,1,84,103.6V64.39A12.26,12.26,0,0,1,95.78,52,12,12,0,0,1,108,63.78q0,.11,0,.22v40a12,12,0,0,1-12,12Z"/><path class="cls-10" d="M122,97v6.46c0,14.17-11.11,26.14-25.27,26.53A26,26,0,0,1,70,104.73q0-.37,0-.73V97a3,3,0,0,0-3-3h0a3,3,0,0,0-3,3v7a32,32,0,0,0,27,31.61V144H82a6,6,0,0,0-6,6v2h40v-2a6,6,0,0,0-6-6h-9v-8.39A32,32,0,0,0,128,104V97a3,3,0,0,0-3-3h0A3,3,0,0,0,122,97Z"/><path class="cls-12" d="M96,136a32.1,32.1,0,0,1-5-.39V144h10v-8.39A32.1,32.1,0,0,1,96,136Z"/><path class="cls-13" d="M122,104a26,26,0,0,1-26,26,16.25,16.25,0,0,1-2.32-.11l5.9,5.9A32,32,0,0,0,128,104V97a3,3,0,0,0-3-3h0a3,3,0,0,0-3,3Z"/></g></g></svg>