<svg xmlns="http://www.w3.org/2000/svg" xmlns:xlink="http://www.w3.org/1999/xlink" viewBox="0 0 192 192"><defs><style>.cls-1{fill:none;}.cls-2{opacity:0.01;}.cls-2,.cls-3,.cls-4,.cls-5{isolation:isolate;}.cls-3{opacity:0.02;}.cls-4{opacity:0.04;}.cls-5{opacity:0.06;}.cls-6{fill:#54545b;}.cls-7{fill:url(#未命名的渐变_51);}.cls-8{fill:url(#未命名的渐变_2);}.cls-9{fill:url(#未命名的渐变_59);}.cls-10{fill:#282828;}.cls-11{fill:url(#未命名的渐变_57);}.cls-12{fill:#ff4343;}.cls-13{fill:#fafafa;}.cls-14{fill:#fff;}.cls-15{fill:#ff5f5f;}</style><linearGradient id="未命名的渐变_51" x1="166.01" y1="-572.01" x2="25.99" y2="-431.99" gradientTransform="matrix(1, 0, 0, -1, 0, -406)" gradientUnits="userSpaceOnUse"><stop offset="0" stop-opacity="0.12"/><stop offset="0.5" stop-color="gray" stop-opacity="0.05"/><stop offset="1" stop-color="#fff" stop-opacity="0.1"/></linearGradient><linearGradient id="未命名的渐变_2" x1="166.01" y1="-572.01" x2="25.99" y2="-431.99" gradientTransform="matrix(1, 0, 0, -1, 0, -406)" gradientUnits="userSpaceOnUse"><stop offset="0" stop-opacity="0.05"/><stop offset="0.5" stop-color="gray" stop-opacity="0"/><stop offset="1" stop-color="#fff" stop-opacity="0.1"/></linearGradient><linearGradient id="未命名的渐变_59" x1="168.01" y1="164.02" x2="98.19" y2="94.2" gradientUnits="userSpaceOnUse"><stop offset="0" stop-opacity="0.04"/><stop offset="1" stop-opacity="0.16"/></linearGradient><linearGradient id="未命名的渐变_57" x1="146.75" y1="132.25" x2="103.46" y2="88.96" gradientUnits="userSpaceOnUse"><stop offset="0" stop-opacity="0.2"/><stop offset="1" stop-opacity="0.4"/></linearGradient></defs><title>oneplus_clock</title><g id="图层_2" data-name="图层 2"><g id="图层_2-2" data-name="图层 2"><rect class="cls-1" width="192" height="192"/><path class="cls-2" d="M96,190C27.3,190,3,165.7,3,97S27.3,4,96,4s93,24.3,93,93S164.7,190,96,190Z"/><path class="cls-3" d="M96,189C28.1,189,4,164.9,4,97S28.1,5,96,5s92,24.1,92,92S163.9,189,96,189Z"/><path class="cls-4" d="M96,188C28.8,188,5,164.2,5,97S28.8,6,96,6s91,23.8,91,91S163.2,188,96,188Z"/><path class="cls-5" d="M186,97c0,66.7-23.3,90-90,90S6,163.7,6,97,29.3,7,96,7,186,30.3,186,97Z"/><path class="cls-6" d="M186,96c0,66.7-23.3,90-90,90S6,162.7,6,96,29.3,6,96,6,186,29.3,186,96Z"/><path class="cls-7" d="M186,96c0,66.7-23.3,90-90,90S6,162.7,6,96,29.3,6,96,6,186,29.3,186,96Z"/><path class="cls-8" d="M96,6C29.3,6,6,29.3,6,96s23.3,90,90,90,90-23.3,90-90S162.7,6,96,6Zm68.6,158.6C151.2,178,130,184,96,184s-55.2-6-68.6-19.4S8,130,8,96s6-55.2,19.4-68.6S62,8,96,8s55.2,6,68.6,19.4S184,62,184,96,178,151.2,164.6,164.6Z"/><path class="cls-9" d="M53,140l46,46c64.41-.7,87-24.29,87-90,0-1.71,0-3.38-.05-5L143.68,48.7Z"/><path class="cls-10" d="M154,96q0,58-58,58T38,96c0-43,19.33-58,58-58S154,57.33,154,96Z"/><path class="cls-11" d="M139.7,52.72,96,96.72V154q58,0,58-58Q154,67.21,139.7,52.72Z"/><path class="cls-12" d="M95.22,159.77a1.14,1.14,0,0,1-.35-.78V97a1.13,1.13,0,1,1,2.26,0h0v62A1.21,1.21,0,0,1,96,160.12,1.14,1.14,0,0,1,95.22,159.77Z"/><path class="cls-13" d="M99.2,92.8a4.65,4.65,0,0,1,0,6.4h0a4.65,4.65,0,0,1-6.4,0L61,67.4a4.53,4.53,0,0,1,6.1-6.7h0l.2.2Z"/><path class="cls-14" d="M143.5,48.5a3.44,3.44,0,0,1,0,4.8L97.6,99.2a3.39,3.39,0,0,1-4.8-4.8h0l45.9-45.9A3.44,3.44,0,0,1,143.5,48.5Z"/><circle class="cls-15" cx="96" cy="96" r="6.8"/><circle class="cls-14" cx="96" cy="96" r="4.5"/></g></g></svg>