<svg xmlns="http://www.w3.org/2000/svg" xmlns:xlink="http://www.w3.org/1999/xlink" width="192" height="192" viewBox="0 0 192 192">
  <defs>
    <style>
      .cls-1 {
        opacity: 0.01;
      }

      .cls-1, .cls-2, .cls-3, .cls-4 {
        isolation: isolate;
      }

      .cls-2 {
        opacity: 0.02;
      }

      .cls-3 {
        opacity: 0.04;
      }

      .cls-4 {
        opacity: 0.06;
      }

      .cls-5 {
        fill: #ff5b00;
      }

      .cls-6 {
        fill: url(#未命名的渐变_2);
      }

      .cls-7 {
        fill: none;
      }

      .cls-8 {
        fill: url(#未命名的渐变_46);
      }

      .cls-10, .cls-11, .cls-9 {
        fill-rule: evenodd;
      }

      .cls-9 {
        fill: url(#未命名的渐变_17);
      }

      .cls-10 {
        fill: #ff7300;
        opacity: 0.6;
      }

      .cls-11 {
        fill: #fafafa;
      }

      .cls-12 {
        fill: #fff;
      }
    </style>
    <linearGradient id="未命名的渐变_2" data-name="未命名的渐变 2" x1="166.012" y1="75.988" x2="25.987" y2="216.012" gradientTransform="matrix(1, 0, 0, -1, 0, 242)" gradientUnits="userSpaceOnUse">
      <stop offset="0" stop-opacity="0.04"/>
      <stop offset="0.5" stop-color="gray" stop-opacity="0"/>
      <stop offset="1" stop-color="#fff" stop-opacity="0.1"/>
    </linearGradient>
    <linearGradient id="未命名的渐变_46" data-name="未命名的渐变 46" x1="166.004" y1="27.998" x2="25.998" y2="168.004" gradientTransform="matrix(1, 0, 0, -1, 0, 194)" gradientUnits="userSpaceOnUse">
      <stop offset="0" stop-opacity="0.1"/>
      <stop offset="0.5" stop-color="gray" stop-opacity="0.05"/>
      <stop offset="1" stop-color="#fff" stop-opacity="0.12"/>
    </linearGradient>
    <linearGradient id="未命名的渐变_17" data-name="未命名的渐变 17" x1="166.761" y1="165.235" x2="55.763" y2="54.237" gradientUnits="userSpaceOnUse">
      <stop offset="0" stop-opacity="0.02"/>
      <stop offset="1" stop-opacity="0.1"/>
    </linearGradient>
  </defs>
  <title>nyato</title>
  <g id="图层_2" data-name="图层 2">
    <g id="图层_1-2" data-name="图层 1">
      <g>
        <path class="cls-1" d="M96,190C27.3,190,3,165.7,3,97S27.3,4,96,4s93,24.3,93,93S164.7,190,96,190Z"/>
        <path class="cls-2" d="M96,189C28.1,189,4,164.9,4,97S28.1,5,96,5s92,24.1,92,92S163.9,189,96,189Z"/>
        <path class="cls-3" d="M96,188C28.8,188,5,164.2,5,97S28.8,6,96,6s91,23.8,91,91S163.2,188,96,188Z"/>
        <path class="cls-4" d="M186,97c0,66.7-23.3,90-90,90S6,163.7,6,97,29.3,7,96,7,186,30.3,186,97Z"/>
      </g>
      <path class="cls-5" d="M186,96c0,66.7-23.3,90-90,90S6,162.7,6,96,29.3,6,96,6,186,29.3,186,96Z"/>
      <path class="cls-6" d="M96,6C29.3,6,6,29.3,6,96s23.3,90,90,90,90-23.3,90-90S162.7,6,96,6Zm68.6,158.6C151.2,178,130,184,96,184s-55.2-6-68.6-19.4S8,130,8,96s6-55.2,19.4-68.6S62,8,96,8s55.2,6,68.6,19.4S184,62,184,96,178,151.2,164.6,164.6Z"/>
      <rect class="cls-7" width="192" height="192"/>
      <path class="cls-8" d="M186,96c0,66.67-23.32,90-90,90S6,162.67,6,96,29.32,6,96,6,186,29.32,186,96Z"/>
      <path class="cls-9" d="M186,96.942,143.4,54.35,124,71H73L52,58l-9,50-8.906,5.094L37,116l-2,2,3,3-1,2,62.968,62.968C163.294,185.044,185.778,161.551,186,96.942Z"/>
      <path class="cls-10" d="M141.249,104.59c.268-8.413-.022-20.978-.714-29.338-.218-2.635-1.032-11.106-2.092-12.976-.333.309-.828.647-1.162.952-.226.2-.318.347-.548.547l-2.855,2.741c-1.209,1.206-4.293,4.547-5.549,5.538a27.441,27.441,0,0,1-3.822,2.872,18.132,18.132,0,0,1-6.673,2.335c-3.355.845-9.381-.552-12.647-1.206a41.1,41.1,0,0,0-18.374,0c-3.266.654-9.292,2.051-12.647,1.206a18.132,18.132,0,0,1-6.673-2.335,27.441,27.441,0,0,1-3.822-2.872c-1.256-.991-4.34-4.332-5.549-5.538l-2.855-2.741c-.23-.2-.322-.342-.548-.547-.334-.3-.829-.643-1.162-.952-1.06,1.87-1.874,10.341-2.092,12.976-.692,8.36-.982,20.925-.714,29.338a32.716,32.716,0,0,1,.026,3.676c-1.009,10.57,9.81,18.159,19.271,21.845a70.876,70.876,0,0,0,25.523,4.6c.143,0,.286-.008.429-.009s.286.009.429.009a70.876,70.876,0,0,0,25.523-4.6c9.461-3.686,20.28-11.275,19.271-21.845A32.716,32.716,0,0,1,141.249,104.59Z"/>
      <path class="cls-11" d="M132.991,108.482c-1.275,7.789-11.336,8.111-18.978,6.5A40.707,40.707,0,0,1,97.621,107.7L96,106.345,94.379,107.7a40.707,40.707,0,0,1-16.392,7.283c-7.642,1.614-17.7,1.292-18.978-6.5-1.122-6.851,4.63-7,5.355-3.459.328,1.6-1.12,3.463,1.938,4.561,4.732,1.7,12.707-.35,17-2.075a33.512,33.512,0,0,0,7.717-4.168,10.024,10.024,0,0,1,.989-.711c-.226-.573-2.256-2.527-.383-4.58a6.387,6.387,0,0,1,8.74,0c1.873,2.053-.157,4.007-.383,4.58a10.024,10.024,0,0,1,.989.711,33.512,33.512,0,0,0,7.717,4.168c4.3,1.725,12.273,3.776,17,2.075,3.058-1.1,1.61-2.958,1.938-4.561C128.361,101.478,134.113,101.631,132.991,108.482Zm16.628,1.014-.095,2.437a30.226,30.226,0,0,1,4.411,2.283c.694.431,1.4.9,2.035,1.363a8.321,8.321,0,0,1,.952.746,1.389,1.389,0,0,1-1.622,2.22,11.7,11.7,0,0,1-.987-.712,26.687,26.687,0,0,0-5.238-3.043,4.692,4.692,0,0,0-.382,1.107c-.109.365-.237.717-.315,1.08.3.225,2.939,1.441,4.331,2.36,1.491.985,3.7,2.075,2.978,3.553a1.476,1.476,0,0,1-2.221.384c-.6-.464-1.247-.929-1.922-1.371a23.177,23.177,0,0,0-4.267-2.279l-1.727,2.915a33.462,33.462,0,0,1-6.693,7.3c-10.975,9.153-27.73,13.157-42.728,13.164-.044,0-.085,0-.129,0s-.085,0-.129,0c-15-.007-31.753-4.011-42.728-13.164a33.462,33.462,0,0,1-6.693-7.3l-1.727-2.915a23.177,23.177,0,0,0-4.267,2.279c-.675.442-1.318.907-1.922,1.371a1.476,1.476,0,0,1-2.221-.384c-.723-1.478,1.487-2.568,2.978-3.553,1.392-.919,4.035-2.135,4.331-2.36-.078-.363-.206-.715-.315-1.08a4.692,4.692,0,0,0-.382-1.107,26.687,26.687,0,0,0-5.238,3.043,11.7,11.7,0,0,1-.987.712,1.389,1.389,0,0,1-1.622-2.22,8.321,8.321,0,0,1,.952-.746c.637-.46,1.341-.932,2.035-1.363a30.226,30.226,0,0,1,4.411-2.283l-.095-2.437c-1.878.341-6.723,3.962-6.9,4.037a1.38,1.38,0,0,1-1.956-1.443c.11-1.1,3.069-2.731,4.007-3.3.776-.47,1.544-.871,2.4-1.3.739-.368,1.869-.7,2.547-1.107.138-2.059-.08-4.729-.078-6.893.01-10.573.117-22.876,1.78-33.2.666-4.138,1.472-7.565,3.394-10.6.892-1.409,1.971-2.706,4.343-2.651,3.637.085,6.485,2.789,9.121,4.862.323.254.566.54.887.811l8.011,7.775c4.24,3.482,8.332,3.076,13.921,1.7a51.39,51.39,0,0,1,24.284,0c5.589,1.379,9.681,1.785,13.921-1.7l8.011-7.775c.321-.271.564-.557.887-.811,2.636-2.073,5.484-4.777,9.121-4.862,2.372-.055,3.451,1.242,4.343,2.651,1.922,3.036,2.728,6.463,3.394,10.6,1.663,10.325,1.77,22.628,1.78,33.2,0,2.164-.216,4.834-.078,6.893.678.4,1.808.739,2.547,1.107.852.425,1.62.826,2.4,1.3.938.568,3.9,2.2,4.007,3.3a1.38,1.38,0,0,1-1.956,1.443C156.342,113.458,151.5,109.837,149.619,109.5Zm-8.37-4.906c.268-8.413-.022-20.978-.714-29.338-.218-2.635-1.032-11.106-2.092-12.976-.333.309-.828.647-1.162.952-.226.2-.318.347-.548.547l-2.855,2.741c-1.209,1.206-4.293,4.547-5.549,5.538a27.441,27.441,0,0,1-3.822,2.872,18.132,18.132,0,0,1-6.673,2.335c-3.355.845-9.381-.552-12.647-1.206a41.1,41.1,0,0,0-18.374,0c-3.266.654-9.292,2.051-12.647,1.206a18.132,18.132,0,0,1-6.673-2.335,27.441,27.441,0,0,1-3.822-2.872c-1.256-.991-4.34-4.332-5.549-5.538l-2.855-2.741c-.23-.2-.322-.342-.548-.547-.334-.3-.829-.643-1.162-.952-1.06,1.87-1.874,10.341-2.092,12.976-.692,8.36-.982,20.925-.714,29.338a32.716,32.716,0,0,1,.026,3.676c-1.009,10.57,9.81,18.159,19.271,21.845a70.876,70.876,0,0,0,25.523,4.6c.143,0,.286-.008.429-.009s.286.009.429.009a70.876,70.876,0,0,0,25.523-4.6c9.461-3.686,20.28-11.275,19.271-21.845A32.716,32.716,0,0,1,141.249,104.59Zm-6.464-32.245-.576.148A14.225,14.225,0,0,0,131,75.327a10.606,10.606,0,0,0-.99,1.05l-.662.494a4.229,4.229,0,0,1-.675.523c-.47.3-1.216.534-1.607.817a23.6,23.6,0,0,1,5.289,1.945A17.959,17.959,0,0,1,134.6,81.5l1.942,1.565a41.231,41.231,0,0,0-.365-5.844C135.993,75.521,135.738,73.329,134.785,72.345ZM64.934,78.211c-.391-.283-1.137-.52-1.607-.817a4.229,4.229,0,0,1-.675-.523l-.662-.494a10.606,10.606,0,0,0-.99-1.05,14.225,14.225,0,0,0-3.209-2.834l-.576-.148c-.953.984-1.208,3.176-1.4,4.879a41.231,41.231,0,0,0-.365,5.844L57.4,81.5a17.959,17.959,0,0,1,2.248-1.347A23.6,23.6,0,0,1,64.934,78.211Z"/>
      <g>
        <path class="cls-12" d="M96,96.321a6.019,6.019,0,0,0-4.37,1.729c-1.7,1.865-.186,3.644.276,4.384a2.581,2.581,0,0,1,.724-2.384A6.019,6.019,0,0,1,97,98.321a6.168,6.168,0,0,1,4.152,1.52,2.691,2.691,0,0,0-.782-1.791A6.019,6.019,0,0,0,96,96.321Z"/>
        <path class="cls-12" d="M66.3,109.584a4.712,4.712,0,0,1-1-.481c-.032.951.224,1.844,2,2.481,4.732,1.7,12.707-.35,17-2.075a33.512,33.512,0,0,0,7.717-4.168,10.024,10.024,0,0,1,.989-.711,10,10,0,0,1-1.052-1.966c-.318.185-.639.462-.937.677a33.512,33.512,0,0,1-7.717,4.168C79.009,109.234,71.034,111.285,66.3,109.584Z"/>
        <path class="cls-12" d="M62.652,76.871l-.662-.494a10.606,10.606,0,0,0-.99-1.05,14.225,14.225,0,0,0-3.209-2.834l-.576-.148c-.953.984-1.208,3.176-1.4,4.879a41.231,41.231,0,0,0-.365,5.844l1.074-.866c.083-1.08.2-2.168.291-2.978.187-1.7.442-3.9,1.4-4.879l.576.148A14.225,14.225,0,0,1,62,77.327a10.606,10.606,0,0,1,.99,1.05l.347.259a12.123,12.123,0,0,1,1.6-.425c-.391-.283-1.137-.52-1.607-.817A4.229,4.229,0,0,1,62.652,76.871Z"/>
        <path class="cls-12" d="M141.535,77.252c-.218-2.635-1.032-11.106-2.092-12.976-.09.084-.192.169-.3.256a103.315,103.315,0,0,1,1.392,10.72c.692,8.36.982,20.925.714,29.338a32.716,32.716,0,0,0-.026,3.676c1.009,10.57-9.81,18.159-19.271,21.845a70.876,70.876,0,0,1-25.523,4.6c-.143,0-.286-.008-.429-.009s-.286.009-.429.009a70.876,70.876,0,0,1-25.523-4.6c-6.521-2.541-13.687-6.936-17.18-12.884,2.93,6.967,10.949,12.066,18.18,14.884a70.876,70.876,0,0,0,25.523,4.6c.143,0,.286-.008.429-.009s.286.009.429.009a70.876,70.876,0,0,0,25.523-4.6c9.461-3.686,20.28-11.275,19.271-21.845a32.716,32.716,0,0,1,.026-3.676C142.517,98.177,142.227,85.612,141.535,77.252Z"/>
        <path class="cls-12" d="M134.209,72.493A14.225,14.225,0,0,0,131,75.327a10.606,10.606,0,0,0-.99,1.05l-.662.494a4.229,4.229,0,0,1-.675.523c-.47.3-1.216.534-1.607.817a17.163,17.163,0,0,1,2.977.922c.1-.076.188-.156.305-.262l.662-.494a10.606,10.606,0,0,1,.99-1.05,14.225,14.225,0,0,1,3.209-2.834l.519-.133a4.483,4.483,0,0,0-.943-2.015Z"/>
        <path class="cls-12" d="M108.693,107.509a33.87,33.87,0,0,1-7.148-3.769c-.246.4-.488.713-.558.89a10.024,10.024,0,0,1,.989.711,33.512,33.512,0,0,0,7.717,4.168c4.3,1.725,12.273,3.776,17,2.075,3.058-1.1,1.61-2.958,1.938-4.561A2.6,2.6,0,0,1,133,105.462c-.775-3.759-4.765-3.355-5.362-.439-.328,1.6,1.12,3.463-1.938,4.561C120.966,111.285,112.991,109.234,108.693,107.509Z"/>
        <path class="cls-12" d="M152.709,119.337a33.814,33.814,0,0,0-2.961-1.636c-.019.069-.038.14-.055.2-.109.365-.237.717-.315,1.08.3.225,2.939,1.441,4.331,2.36.647.428,1.429.875,2.048,1.365C156.214,121.319,154.136,120.28,152.709,119.337Z"/>
        <path class="cls-12" d="M36.078,118.325a8.321,8.321,0,0,1,.952-.746c.637-.46,1.341-.932,2.035-1.363a30.226,30.226,0,0,1,4.411-2.283l-.095-2.437a4.372,4.372,0,0,0-.91.306l.005.131c-.67.279-1.293.572-1.9.876-1.943,1.166-3.983,2.676-4.094,2.724a1.5,1.5,0,0,1-.553.117,7.036,7.036,0,0,0-.854.675,1.407,1.407,0,0,0,.739,2.375A1.578,1.578,0,0,1,36.078,118.325Z"/>
        <path class="cls-12" d="M40.291,121.337c1.392-.919,4.035-2.135,4.331-2.36-.078-.363-.206-.715-.315-1.08a4.692,4.692,0,0,0-.382-1.107c-.1.037-.213.086-.319.129,0,.02.012.039.016.058-.227.172-1.824.924-3.187,1.68-.636.411-1.237.823-1.748,1.176a11.7,11.7,0,0,1-.987.712,1.483,1.483,0,0,1-.452.153c-.811.64-1.345,1.354-.935,2.192a1.3,1.3,0,0,0,1.08.706A9.984,9.984,0,0,1,40.291,121.337Z"/>
        <path class="cls-12" d="M38.536,110.791c.776-.47,1.544-.871,2.4-1.3.739-.368,1.869-.7,2.547-1.107.138-2.059-.08-4.729-.078-6.893.01-10.573.117-22.876,1.78-33.2.666-4.138,1.472-7.565,3.394-10.6.892-1.409,1.971-2.706,4.343-2.651,3.637.085,6.485,2.789,9.121,4.862.323.254.566.54.887.811l8.011,7.775c4.24,3.482,8.332,3.076,13.921,1.7a51.39,51.39,0,0,1,24.284,0c5.589,1.379,9.681,1.785,13.921-1.7l8.011-7.775c.321-.271.564-.557.887-.811,2.636-2.073,5.484-4.777,9.121-4.862,2.372-.055,3.451,1.242,4.343,2.651.122.193.227.392.34.588a17.775,17.775,0,0,0-1.34-2.588c-.892-1.409-1.971-2.706-4.343-2.651-3.637.085-6.485,2.789-9.121,4.862-.323.254-.566.54-.887.811l-8.011,7.775c-4.24,3.482-8.332,3.076-13.921,1.7a51.39,51.39,0,0,0-24.284,0c-5.589,1.379-9.681,1.785-13.921-1.7l-8.011-7.775c-.321-.271-.564-.557-.887-.811-2.636-2.073-5.484-4.777-9.121-4.862-2.372-.055-3.451,1.242-4.343,2.651-1.922,3.036-2.728,6.463-3.394,10.6-1.663,10.325-1.77,22.628-1.78,33.2,0,2.164.216,4.834.078,6.893-.678.4-1.808.739-2.547,1.107-.852.425-1.62.826-2.4,1.3-.938.568-3.9,2.2-4.007,3.3a1.39,1.39,0,0,0,1.171,1.559C35.359,112.593,37.718,111.287,38.536,110.791Z"/>
        <path class="cls-12" d="M150.521,108.388c.678.4,1.808.739,2.547,1.107.852.425,1.62.826,2.4,1.3a26.035,26.035,0,0,1,2.933,1.918,1.5,1.5,0,0,0,.074-.619c-.11-1.1-3.069-2.731-4.007-3.3-.776-.47-1.544-.871-2.4-1.3-.451-.225-1.041-.438-1.592-.662C150.477,107.375,150.488,107.9,150.521,108.388Z"/>
        <path class="cls-12" d="M156.922,116.325a8.321,8.321,0,0,0-.952-.746c-.637-.46-1.341-.932-2.035-1.363a31.043,31.043,0,0,0-3.351-1.815l-.06,1.532a30.226,30.226,0,0,1,4.411,2.283c.694.431,1.4.9,2.035,1.363l.281.2A1.383,1.383,0,0,0,156.922,116.325Z"/>
        <path class="cls-12" d="M60.313,111.716a8.5,8.5,0,0,1-.3-1.234c-.9-5.472,2.589-6.662,4.4-5.117a2.6,2.6,0,0,0-.044-.342c-.725-3.545-6.477-3.392-5.355,3.459A7.7,7.7,0,0,0,60.313,111.716Z"/>
      </g>
    </g>
  </g>
</svg>
