<svg xmlns="http://www.w3.org/2000/svg" xmlns:xlink="http://www.w3.org/1999/xlink" width="192" height="192" viewBox="0 0 192 192"><defs><style>.cls-1{fill:none;}.cls-2{opacity:0.01;}.cls-3{opacity:0.02;}.cls-4{opacity:0.04;}.cls-5{opacity:0.06;}.cls-6{fill:#c8c8c8;}.cls-7{fill:url(#未命名的渐变_2);}.cls-8{fill:url(#未命名的渐变_12);}.cls-9{fill:url(#未命名的渐变_4);}.cls-10{fill:#2b2b2b;}.cls-11{opacity:0.05;}.cls-12{fill:#fff;}.cls-13{opacity:0.4;}.cls-14{fill:#f5c343;}</style><linearGradient id="未命名的渐变_2" x1="166.005" y1="166.003" x2="25.997" y2="25.995" gradientUnits="userSpaceOnUse"><stop offset="0" stop-opacity="0.12"/><stop offset="0.5" stop-color="gray" stop-opacity="0.05"/><stop offset="1" stop-color="#fff" stop-opacity="0.15"/></linearGradient><linearGradient id="未命名的渐变_12" x1="166.005" y1="166.003" x2="25.997" y2="25.995" gradientUnits="userSpaceOnUse"><stop offset="0" stop-opacity="0.04"/><stop offset="0.5" stop-color="gray" stop-opacity="0"/><stop offset="1" stop-color="#fff" stop-opacity="0.1"/></linearGradient><linearGradient id="未命名的渐变_4" x1="164.47" y1="167.532" x2="54.07" y2="57.133" gradientUnits="userSpaceOnUse"><stop offset="0" stop-opacity="0"/><stop offset="1" stop-opacity="0.14"/></linearGradient></defs><title>apple_camera</title><g id="图层_2" data-name="图层 2"><g id="图层_1-2" data-name="图层 1"><rect class="cls-1" width="192" height="192"/><circle class="cls-2" cx="96" cy="97" r="93"/><circle class="cls-3" cx="96" cy="97" r="92"/><circle class="cls-4" cx="96" cy="97" r="91"/><path class="cls-5" d="M186,97c0,66.672-23.317,90-90,90S6,163.674,6,97,29.321,7,96,7,186,30.323,186,97Z"/><path class="cls-6" d="M186,96c0,66.672-23.317,90-90,90S6,162.674,6,96,29.321,6,96,6,186,29.323,186,96Z"/><path class="cls-7" d="M186,96c0,66.672-23.317,90-90,90S6,162.674,6,96,29.321,6,96,6,186,29.323,186,96Z"/><path class="cls-8" d="M96,6C29.321,6,6,29.323,6,96s23.321,90,90,90,90-23.328,90-90S162.683,6,96,6Zm68.592,158.588C151.168,178.013,130.014,184,96,184s-55.166-5.986-68.59-19.411S8,130.011,8,96s5.986-55.166,19.41-68.589S61.988,8,96,8s55.168,5.986,68.592,19.411S184,61.987,184,96,178.014,151.164,164.592,164.588Z"/><path class="cls-9" d="M185.953,100.829,150.586,65.462,145,62.479H124.521l-9.032-9.032L111,62.5H70.5L64,56,52,59.772,61,69H42.2v64.453l52.54,52.54c.42,0,.834.007,1.257.007C161.045,186,184.824,163.8,185.953,100.829Z"/><path class="cls-10" d="M63.371,60H52.629a1,1,0,0,1-.989-1.121l.314-2.511a.963.963,0,0,1,.322-.621A3.687,3.687,0,0,1,55,55h6a3.687,3.687,0,0,1,2.724.747.963.963,0,0,1,.322.621l.314,2.511A1,1,0,0,1,63.371,60ZM152,70v58a8,8,0,0,1-8,8H48a8,8,0,0,1-8-8V70a8,8,0,0,1,8-8H67c2.21,0,5-2,7-5,3-5,5.6-7,10-7h24c4.4,0,7,2,10,7,2,3,4.79,5,7,5h19A8,8,0,0,1,152,70ZM119,97a23,23,0,1,0-23,23A23.026,23.026,0,0,0,119,97Zm-4,0a19,19,0,1,0-19,19A19.021,19.021,0,0,0,115,97Z"/><g class="cls-11"><path class="cls-12" d="M96,78a18.972,18.972,0,0,0-16.516,28.357,18.989,18.989,0,0,1,34.032-16.714A19.027,19.027,0,0,0,96,78Z"/><path class="cls-12" d="M97,122a22.984,22.984,0,0,0,20.057-34.237,22.992,22.992,0,0,1-41.114,20.475A23.031,23.031,0,0,0,97,122Z"/><path class="cls-12" d="M41,130V72a8,8,0,0,1,8-8H68c2.21,0,5-2,7-5,3-5,5.6-7,10-7h24c4.4,0,7,2,10,7,2,3,4.79,5,7,5h19a7.989,7.989,0,0,1,6.579,3.454A8,8,0,0,0,144,62H125c-2.21,0-5-2-7-5-3-5-5.6-7-10-7H84c-4.4,0-7,2-10,7-2,3-4.79,5-7,5H48a8,8,0,0,0-8,8v58a7.959,7.959,0,0,0,1.421,4.546A7.977,7.977,0,0,1,41,130Z"/><path class="cls-12" d="M52.629,60h.121l.2-1.632a.963.963,0,0,1,.322-.621A3.687,3.687,0,0,1,56,57h6a4.315,4.315,0,0,1,2.172.376l-.126-1.008a.963.963,0,0,0-.322-.621A3.687,3.687,0,0,0,61,55H55a3.687,3.687,0,0,0-2.724.747.963.963,0,0,0-.322.621l-.314,2.511A1,1,0,0,0,52.629,60Z"/></g><circle class="cls-13" cx="124" cy="77" r="3"/><circle class="cls-14" cx="123" cy="75" r="3"/></g></g></svg>