<svg xmlns="http://www.w3.org/2000/svg" xmlns:xlink="http://www.w3.org/1999/xlink" width="192" height="192" viewBox="0 0 192 192"><defs><style>.cls-1{fill:none;}.cls-2{opacity:0.01;}.cls-13,.cls-2,.cls-3,.cls-4,.cls-5{isolation:isolate;}.cls-3{opacity:0.02;}.cls-4{opacity:0.04;}.cls-5{opacity:0.06;}.cls-6{fill:#5294ff;}.cls-7{fill:url(#未命名的渐变_10);}.cls-10,.cls-13,.cls-8,.cls-9{fill:#fff;}.cls-8{opacity:0.8;}.cls-9{opacity:0.4;}.cls-10{opacity:0.2;}.cls-11{fill:url(#未命名的渐变_2);}.cls-12{fill:url(#未命名的渐变_3);}.cls-13{opacity:0.1;}.cls-14{fill:url(#未命名的渐变_24);}.cls-15{fill:#fff3c0;}.cls-16{fill:#fff7d7;}</style><linearGradient id="未命名的渐变_10" x1="166.004" y1="27.998" x2="25.998" y2="168.004" gradientTransform="matrix(1, 0, 0, -1, 0, 194)" gradientUnits="userSpaceOnUse"><stop offset="0" stop-opacity="0.1"/><stop offset="0.5" stop-color="gray" stop-opacity="0.05"/><stop offset="1" stop-color="#fff" stop-opacity="0.12"/></linearGradient><linearGradient id="未命名的渐变_2" x1="166.012" y1="75.988" x2="25.987" y2="216.012" gradientTransform="matrix(1, 0, 0, -1, 0, 242)" gradientUnits="userSpaceOnUse"><stop offset="0" stop-opacity="0.04"/><stop offset="0.5" stop-color="gray" stop-opacity="0"/><stop offset="1" stop-color="#fff" stop-opacity="0.1"/></linearGradient><linearGradient id="未命名的渐变_3" x1="6" y1="400" x2="36" y2="400" gradientTransform="translate(0 -304)" gradientUnits="userSpaceOnUse"><stop offset="0" stop-opacity="0.05"/><stop offset="1" stop-color="#001848" stop-opacity="0.1"/></linearGradient><linearGradient id="未命名的渐变_24" x1="175.679" y1="156.316" x2="113.935" y2="94.572" gradientUnits="userSpaceOnUse"><stop offset="0" stop-opacity="0"/><stop offset="1" stop-opacity="0.1"/></linearGradient></defs><title>moonreader</title><g id="图层_2" data-name="图层 2"><g id="图层_1-2" data-name="图层 1"><rect class="cls-1" width="192" height="192"/><path class="cls-2" d="M96,190C27.3,190,3,165.7,3,97S27.3,4,96,4s93,24.3,93,93S164.7,190,96,190Z"/><path class="cls-3" d="M96,189C28.1,189,4,164.9,4,97S28.1,5,96,5s92,24.1,92,92S163.9,189,96,189Z"/><path class="cls-4" d="M96,188C28.8,188,5,164.2,5,97S28.8,6,96,6s91,23.8,91,91S163.2,188,96,188Z"/><path class="cls-5" d="M186,97c0,66.7-23.3,90-90,90S6,163.7,6,97,29.3,7,96,7,186,30.3,186,97Z"/><path class="cls-6" d="M186,96c0,66.7-23.3,90-90,90S6,162.7,6,96,29.3,6,96,6,186,29.3,186,96Z"/><path class="cls-7" d="M186,96c0,66.67-23.32,90-90,90S6,162.67,6,96,29.32,6,96,6,186,29.32,186,96Z"/><path class="cls-8" d="M72,75.314l-2.068-6.737a3.783,3.783,0,0,0-2.509-2.509L60.686,64l6.737-2.068a3.783,3.783,0,0,0,2.509-2.509L72,52.686l2.068,6.737a3.783,3.783,0,0,0,2.509,2.509L83.314,64l-6.737,2.068a3.783,3.783,0,0,0-2.509,2.509Z"/><path class="cls-9" d="M146,151l-.914-2.977a1.673,1.673,0,0,0-1.109-1.109L141,146l2.977-.914a1.673,1.673,0,0,0,1.109-1.109L146,141l.914,2.977a1.673,1.673,0,0,0,1.109,1.109L151,146l-2.977.914a1.673,1.673,0,0,0-1.109,1.109Z"/><path class="cls-10" d="M66,127l-.914-2.977a1.673,1.673,0,0,0-1.109-1.109L61,122l2.977-.914a1.673,1.673,0,0,0,1.109-1.109L66,117l.914,2.977a1.673,1.673,0,0,0,1.109,1.109L71,122l-2.977.914a1.673,1.673,0,0,0-1.109,1.109Z"/><path class="cls-9" d="M79,160l-.914-2.977a1.673,1.673,0,0,0-1.109-1.109L74,155l2.977-.914a1.673,1.673,0,0,0,1.109-1.109L79,150l.914,2.977a1.673,1.673,0,0,0,1.109,1.109L84,155l-2.977.914a1.673,1.673,0,0,0-1.109,1.109Z"/><path class="cls-9" d="M29,100l-.914-2.977a1.673,1.673,0,0,0-1.109-1.109L24,95l2.977-.914a1.673,1.673,0,0,0,1.109-1.109L29,90l.914,2.977a1.673,1.673,0,0,0,1.109,1.109L34,95l-2.977.914a1.673,1.673,0,0,0-1.109,1.109Z"/><path class="cls-9" d="M113,43l-.914-2.977a1.673,1.673,0,0,0-1.109-1.109L108,38l2.977-.914a1.673,1.673,0,0,0,1.109-1.109L113,33l.914,2.977a1.673,1.673,0,0,0,1.109,1.109L118,38l-2.977.914a1.673,1.673,0,0,0-1.109,1.109Z"/><path class="cls-11" d="M96,6C29.3,6,6,29.3,6,96s23.3,90,90,90,90-23.3,90-90S162.7,6,96,6Zm68.6,158.6C151.2,178,130,184,96,184s-55.2-6-68.6-19.4S8,130,8,96s6-55.2,19.4-68.6S62,8,96,8s55.2,6,68.6,19.4S184,62,184,96,178,151.2,164.6,164.6Z"/><path class="cls-12" d="M36,173.811V18.189C15.113,30.88,6.475,54.372,6.02,92.74,6.009,93.819,6,94.9,6,96s.009,2.181.02,3.26C6.475,137.628,15.113,161.12,36,173.811Z"/><path class="cls-13" d="M36,173.811q1.459.886,3,1.7V16.486q-1.541.817-3,1.7Z"/><path class="cls-14" d="M185.222,115.343,139.193,69.314,135,92l-16,26-28.576,3.576,56.69,56.691C170.891,168.512,182.3,148.825,185.222,115.343Z"/><path class="cls-15" d="M126.448,63.8a35.992,35.992,0,0,1-25.92,54.917,36.247,36.247,0,0,1-9.534-.067,1.6,1.6,0,0,0-1.285,2.788,36,36,0,1,0,38.752-59.95A1.6,1.6,0,0,0,126.448,63.8Z"/><path class="cls-16" d="M91.994,120.651a35.988,35.988,0,0,0,36.7-52.708,35.991,35.991,0,0,1-37.7,50.708,1.6,1.6,0,0,0-1.285,2.788c.166.142.34.275.509.413A1.586,1.586,0,0,1,91.994,120.651Z"/><path class="cls-16" d="M127.218,65.079a1.582,1.582,0,0,1,2.243-1.59,36.139,36.139,0,0,1,16.2,15.416,36.124,36.124,0,0,0-17.2-17.416,1.6,1.6,0,0,0-2.013,2.312Q126.847,64.431,127.218,65.079Z"/></g></g></svg>