<svg xmlns="http://www.w3.org/2000/svg" xmlns:xlink="http://www.w3.org/1999/xlink" width="192" height="192" viewBox="0 0 192 192"><defs><style>.cls-1{fill:none;}.cls-2{opacity:0.01;}.cls-2,.cls-3,.cls-4,.cls-5{isolation:isolate;}.cls-3{opacity:0.02;}.cls-4{opacity:0.04;}.cls-5{opacity:0.06;}.cls-6{fill:#517fa5;}.cls-7{fill:url(#未命名的渐变_37);}.cls-8{fill:url(#未命名的渐变_2);}.cls-9{fill:url(#未命名的渐变_41);}.cls-10{fill:#edf178;}.cls-11{fill:url(#未命名的渐变_39);}.cls-12{fill:#03aee2;}.cls-13{fill:url(#未命名的渐变_29);}.cls-14{fill:#fff;opacity:0.1;}.cls-15{fill:#0abeef;}.cls-16{fill:#43dcff;opacity:0.5;}.cls-17{opacity:0.6;}.cls-18{fill:#a39454;}</style><linearGradient id="未命名的渐变_37" x1="166.004" y1="27.998" x2="25.998" y2="168.004" gradientTransform="matrix(1, 0, 0, -1, 0, 194)" gradientUnits="userSpaceOnUse"><stop offset="0" stop-opacity="0.1"/><stop offset="0.5" stop-color="gray" stop-opacity="0.05"/><stop offset="1" stop-color="#fff" stop-opacity="0.1"/></linearGradient><linearGradient id="未命名的渐变_2" x1="166.012" y1="75.988" x2="25.987" y2="216.012" gradientTransform="matrix(1, 0, 0, -1, 0, 242)" gradientUnits="userSpaceOnUse"><stop offset="0" stop-opacity="0.04"/><stop offset="0.5" stop-color="gray" stop-opacity="0"/><stop offset="1" stop-color="#fff" stop-opacity="0.1"/></linearGradient><linearGradient id="未命名的渐变_41" x1="161.48" y1="170.522" x2="70.136" y2="79.178" gradientUnits="userSpaceOnUse"><stop offset="0" stop-opacity="0.02"/><stop offset="1" stop-opacity="0.15"/></linearGradient><linearGradient id="未命名的渐变_39" x1="96.251" y1="144" x2="96.251" y2="84" gradientUnits="userSpaceOnUse"><stop offset="0.4" stop-opacity="0"/><stop offset="0.65" stop-opacity="0.4"/></linearGradient><linearGradient id="未命名的渐变_29" x1="96" y1="102.004" x2="96" y2="34" gradientUnits="userSpaceOnUse"><stop offset="0" stop-opacity="0.4"/><stop offset="0.32" stop-opacity="0"/></linearGradient></defs><title>dir</title><g id="图层_2" data-name="图层 2"><g id="图层_1-2" data-name="图层 1"><rect class="cls-1" width="192" height="192"/><path class="cls-2" d="M96,190C27.3,190,3,165.7,3,97S27.3,4,96,4s93,24.3,93,93S164.7,190,96,190Z"/><path class="cls-3" d="M96,189C28.1,189,4,164.9,4,97S28.1,5,96,5s92,24.1,92,92S163.9,189,96,189Z"/><path class="cls-4" d="M96,188C28.8,188,5,164.2,5,97S28.8,6,96,6s91,23.8,91,91S163.2,188,96,188Z"/><path class="cls-5" d="M186,97c0,66.7-23.3,90-90,90S6,163.7,6,97,29.3,7,96,7,186,30.3,186,97Z"/><path class="cls-6" d="M186,96c0,66.7-23.3,90-90,90S6,162.7,6,96,29.3,6,96,6,186,29.3,186,96Z"/><path class="cls-7" d="M186,96c0,66.67-23.32,90-90,90S6,162.67,6,96,29.32,6,96,6,186,29.32,186,96Z"/><path class="cls-8" d="M96,6C29.3,6,6,29.3,6,96s23.3,90,90,90,90-23.3,90-90S162.7,6,96,6Zm68.6,158.6C151.2,178,130,184,96,184s-55.2-6-68.6-19.4S8,130,8,96s6-55.2,19.4-68.6S62,8,96,8s55.2,6,68.6,19.4S184,62,184,96,178,151.2,164.6,164.6Z"/><path class="cls-9" d="M185.356,113.774,110.448,38.865,53.167,142.833,96.332,186C156.461,185.927,181.206,166.776,185.356,113.774Z"/><path class="cls-10" d="M140,144H56c-2.75,0-5-2-6-5-2.626-7.879-1-16.611-1-24.917V89a5.12,5.12,0,0,1,1.469-3.531A4.985,4.985,0,0,1,54,84h84a5.015,5.015,0,0,1,5,5c-.333,8.333,0,16.66,0,25,0,13,0,14,1,25C144,141.75,142.75,144,140,144Z"/><path class="cls-11" d="M140,144H56c-2.75,0-5-2-6-5-2.626-7.879-1-16.611-1-24.917V89a5.12,5.12,0,0,1,1.469-3.531A4.985,4.985,0,0,1,54,84h84a5.015,5.015,0,0,1,5,5c-.333,8.333,0,16.66,0,25,0,13,0,14,1,25C144,141.75,142.75,144,140,144Z"/><path class="cls-12" d="M96,102h0c-11.55,0-21,.55-21-11V53c0-11.55,9.45-19,21-19h0c11.55,0,21,7.45,21,19V91C117,102.55,107.55,102,96,102Z"/><path class="cls-13" d="M96,102h0c-11.55,0-21,.55-21-11V53c0-11.55,9.45-19,21-19h0c11.55,0,21,7.45,21,19V91C117,102.55,107.55,102,96,102Z"/><path class="cls-14" d="M76,93V55c0-11.55,9.45-19,21-19,7.979,0,14.952,3.558,18.5,9.565C112.409,38.36,104.826,34,96,34c-11.55,0-21,7.45-21,19V91a11.438,11.438,0,0,0,1.684,6.628A14,14,0,0,1,76,93Z"/><rect class="cls-15" x="49" y="84" width="94" height="30" rx="5" ry="5"/><path class="cls-16" d="M50,111V91a5.015,5.015,0,0,1,5-5h84a4.974,4.974,0,0,1,3.856,1.862A5.011,5.011,0,0,0,138,84H54a5.015,5.015,0,0,0-5,5v20a4.946,4.946,0,0,0,1.144,3.138A4.913,4.913,0,0,1,50,111Z"/><g class="cls-17"><path class="cls-18" d="M86.3,133.938c-.821,2.236-.714,3.354-.39,6.708L86.235,144h3.583a17.567,17.567,0,0,1-1.833-3.354C86.624,137.292,87.122,131.7,86.3,133.938Z"/><path class="cls-18" d="M68.78,135.056A36.072,36.072,0,0,1,68,144h4.4a7.65,7.65,0,0,1-.787-1.118c-1.253-2.236-2.224-12.3-2.224-12.3A11.592,11.592,0,0,0,68.78,135.056Z"/><path class="cls-18" d="M103.606,130.584c.108,1.118-.282,7.826.15,12.3.04.414.052.777.053,1.118h4.073c-1.382-2.236-2.268-3.354-2.808-8.944S103.5,129.466,103.606,130.584Z"/><path class="cls-18" d="M124.388,141.764a4.4,4.4,0,0,1-.252,2.236h3.7c-.5-.765-.986-1.552-1.369-2.236-1.253-2.236-.972-10.062-2.009-10.062S124.064,138.41,124.388,141.764Z"/></g></g></g></svg>