<svg xmlns="http://www.w3.org/2000/svg" xmlns:xlink="http://www.w3.org/1999/xlink" viewBox="0 0 192 192"><defs><style>.cls-1{fill:none;}.cls-2{opacity:0.01;}.cls-2,.cls-3,.cls-4,.cls-5{isolation:isolate;}.cls-3{opacity:0.02;}.cls-4{opacity:0.04;}.cls-5{opacity:0.06;}.cls-6{fill:#00cfff;}.cls-7{fill:url(#未命名的渐变_2);}.cls-8{fill:url(#未命名的渐变_33);}.cls-9{fill:url(#未命名的渐变_35);}.cls-10{fill:#3d3d3d;}.cls-11{fill:#414141;}.cls-12{opacity:0.16;}.cls-13{fill:#ffe91a;}.cls-14{fill:#ffde1a;}</style><linearGradient id="未命名的渐变_2" x1="166.01" y1="75.99" x2="25.99" y2="216.01" gradientTransform="matrix(1, 0, 0, -1, 0, 242)" gradientUnits="userSpaceOnUse"><stop offset="0" stop-opacity="0.04"/><stop offset="0.5" stop-color="gray" stop-opacity="0"/><stop offset="1" stop-color="#fff" stop-opacity="0.1"/></linearGradient><linearGradient id="未命名的渐变_33" x1="167.57" y1="164.45" x2="86.66" y2="83.54" gradientUnits="userSpaceOnUse"><stop offset="0" stop-opacity="0.02"/><stop offset="1" stop-opacity="0.14"/></linearGradient><linearGradient id="未命名的渐变_35" x1="166.01" y1="75.99" x2="25.99" y2="216.01" gradientTransform="matrix(1, 0, 0, -1, 0, 242)" gradientUnits="userSpaceOnUse"><stop offset="0" stop-opacity="0.1"/><stop offset="0.5" stop-color="gray" stop-opacity="0.05"/><stop offset="1" stop-color="#fff" stop-opacity="0.15"/></linearGradient></defs><title>lantern</title><g id="图层_2" data-name="图层 2"><g id="图层_2-2" data-name="图层 2"><rect class="cls-1" width="192" height="192"/><path class="cls-2" d="M96,190C27.3,190,3,165.7,3,97S27.3,4,96,4s93,24.3,93,93S164.7,190,96,190Z"/><path class="cls-3" d="M96,189C28.1,189,4,164.9,4,97S28.1,5,96,5s92,24.1,92,92S163.9,189,96,189Z"/><path class="cls-4" d="M96,188C28.8,188,5,164.2,5,97S28.8,6,96,6s91,23.8,91,91S163.2,188,96,188Z"/><path class="cls-5" d="M186,97c0,66.7-23.3,90-90,90S6,163.7,6,97,29.3,7,96,7,186,30.3,186,97Z"/><path class="cls-6" d="M186,96c0,66.7-23.3,90-90,90S6,162.7,6,96,29.3,6,96,6,186,29.3,186,96Z"/><path class="cls-7" d="M96,6C29.3,6,6,29.3,6,96s23.3,90,90,90,90-23.3,90-90S162.7,6,96,6Zm68.6,158.6C151.2,178,130,184,96,184s-55.2-6-68.6-19.4S8,130,8,96s6-55.2,19.4-68.6S62,8,96,8s55.2,6,68.6,19.4S184,62,184,96,178,151.2,164.6,164.6Z"/><path class="cls-8" d="M118.88,184.88c44.12-4.79,63.06-25.46,66.52-71.72L136,63.76l-4.34,2.58-13.9-13.9L77.64,143.63Z"/><path class="cls-9" d="M186,96c0,66.7-23.3,90-90,90S6,162.7,6,96,29.3,6,96,6,186,29.3,186,96Z"/><path class="cls-10" d="M106,44A10,10,0,1,1,96,34,10,10,0,0,1,106,44Zm-3,0a7,7,0,1,0-7,7A7,7,0,0,0,103,44Z"/><polygon class="cls-11" points="136 63.74 117.15 58.17 117.82 52.46 96 44 74.18 52.46 74.85 58.17 56 63.74 56 76.91 81.81 76.91 87.73 150.2 96 154 104.27 150.2 110.19 76.91 136 76.91 136 63.74"/><polygon class="cls-12" points="104.27 150.2 110.19 76.91 136 76.91 136 63.74 117.15 58.17 117.82 52.46 96 44 96 154 104.27 150.2"/><path class="cls-13" d="M83.88,72.72,56,76.39s0,28.95,8.48,47.58,19.39,25.16,21.82,26.09l2.42.93Z"/><path class="cls-14" d="M108.12,72.72,136,76.39s0,28.95-8.48,47.58-19.39,25.16-21.82,26.09l-2.42.93Z"/><polygon class="cls-12" points="96 44 74.18 52.62 74.84 58.35 96 52 117.16 58.35 117.82 52.62 96 44"/></g></g></svg>