<svg xmlns="http://www.w3.org/2000/svg" xmlns:xlink="http://www.w3.org/1999/xlink" viewBox="0 0 192 192"><defs><style>.cls-1{fill:none;}.cls-2{opacity:0.01;}.cls-2,.cls-3,.cls-4,.cls-5{isolation:isolate;}.cls-3{opacity:0.02;}.cls-4{opacity:0.04;}.cls-5{opacity:0.06;}.cls-6{fill:#787878;}.cls-7{fill:url(#未命名的渐变_34);}.cls-8{fill:url(#未命名的渐变_112);}.cls-9{fill:url(#未命名的渐变_36);}.cls-10{fill:#fafafa;}.cls-11{fill:#fff;}.cls-12{opacity:0.1;}.cls-13{fill:url(#未命名的渐变_31);}.cls-14{fill:url(#未命名的渐变_24);}.cls-15{fill:#f01a20;}.cls-16{fill:#6fc60a;}.cls-17{fill:#00a2e2;}</style><linearGradient id="未命名的渐变_34" x1="166" y1="188" x2="26" y2="328" gradientTransform="matrix(1, 0, 0, -1, 0, 354)" gradientUnits="userSpaceOnUse"><stop offset="0" stop-opacity="0.1"/><stop offset="0.5" stop-color="gray" stop-opacity="0.05"/><stop offset="1" stop-color="#f8f8f8" stop-opacity="0.12"/><stop offset="1" stop-color="#fff" stop-opacity="0.12"/></linearGradient><linearGradient id="未命名的渐变_112" x1="166" y1="188" x2="25.99" y2="328" gradientTransform="matrix(1, 0, 0, -1, 0, 354)" gradientUnits="userSpaceOnUse"><stop offset="0" stop-opacity="0.05"/><stop offset="0.5" stop-color="gray" stop-opacity="0"/><stop offset="1" stop-color="#fff" stop-opacity="0.1"/></linearGradient><linearGradient id="未命名的渐变_36" x1="167.22" y1="164.78" x2="67.22" y2="64.78" gradientUnits="userSpaceOnUse"><stop offset="0" stop-opacity="0.04"/><stop offset="1" stop-opacity="0.16"/></linearGradient><linearGradient id="未命名的渐变_31" x1="109.57" y1="108.43" x2="71.84" y2="70.7" gradientUnits="userSpaceOnUse"><stop offset="0.2" stop-opacity="0"/><stop offset="1" stop-opacity="0.08"/></linearGradient><linearGradient id="未命名的渐变_24" x1="152.75" y1="114.3" x2="103.22" y2="64.78" gradientUnits="userSpaceOnUse"><stop offset="0.4" stop-opacity="0"/><stop offset="1" stop-opacity="0.08"/></linearGradient></defs><title>android_theme</title><g id="图层_2" data-name="图层 2"><g id="图层_2-2" data-name="图层 2"><rect class="cls-1" width="192" height="192"/><path class="cls-2" d="M96,190C27.34,190,3,165.66,3,97S27.34,4,96,4s93,24.34,93,93S164.66,190,96,190Z"/><path class="cls-3" d="M96,189C28.07,189,4,164.92,4,97S28.07,5,96,5s92,24.07,92,92S163.93,189,96,189Z"/><path class="cls-4" d="M96,188C28.81,188,5,164.19,5,97S28.81,6,96,6s91,23.81,91,91S163.19,188,96,188Z"/><path class="cls-5" d="M186,97c0,66.67-23.32,90-90,90S6,163.67,6,97,29.32,7,96,7,186,30.32,186,97Z"/><path class="cls-6" d="M186,96c0,66.67-23.32,90-90,90S6,162.67,6,96,29.32,6,96,6,186,29.32,186,96Z"/><path class="cls-7" d="M186,96c0,66.67-23.32,90-90,90S6,162.67,6,96,29.32,6,96,6,186,29.32,186,96Z"/><path class="cls-8" d="M96,6C29.32,6,6,29.32,6,96s23.32,90,90,90,90-23.33,90-90S162.68,6,96,6Zm68.59,158.59C151.17,178,130,184,96,184s-55.17-6-68.59-19.41S8,130,8,96s6-55.17,19.41-68.59S62,8,96,8s55.17,6,68.59,19.41S184,62,184,96,178,151.16,164.59,164.59Z"/><path class="cls-9" d="M185.57,110.69,138,63.14,45.5,86.5,68,109l-6,23,53.23,53.23C162.75,181.12,182.52,159.95,185.57,110.69Z"/><path class="cls-10" d="M96.91,48.52C80.85,48.06,39.76,53.59,40,76.07c0,0-.24,9.85,11.7,14.54,10.66,4.19,21.58,8.54,10.79,20.13-7.81,8.38-6.9,18,3.81,25.77,10.64,6.34,24,7,33.5,7C125,144,152,128,152,96.19,152,72,134,49,96.91,48.52ZM79.5,128.72a8.78,8.78,0,1,1,8.79-8.79A8.79,8.79,0,0,1,79.5,128.72Z"/><path class="cls-11" d="M63.48,112.75c5-5.37,5.34-9.19,3.2-12.16.79,2.65-.25,5.92-4.2,10.16-5.51,5.91-6.67,12.44-3.12,18.5C57.11,123.77,58.57,118,63.48,112.75Z"/><path class="cls-11" d="M80.5,130.72A8.79,8.79,0,0,0,87.78,117a8.78,8.78,0,0,1-15.55,7.84A8.79,8.79,0,0,0,80.5,130.72Z"/><path class="cls-11" d="M41,78.07c-.24-22.48,40.85-28,56.91-27.55,25.48.33,42,11.29,49.77,26-7.35-15.67-24.14-27.62-50.77-28C80.85,48.06,39.76,53.59,40,76.07a14.08,14.08,0,0,0,2.07,6.83A13.19,13.19,0,0,1,41,78.07Z"/><path class="cls-12" d="M64.18,75.44c-.66-4.27,3.17-8.49,8.52-9.43s10.23,1.77,10.88,6-3.16,8.49-8.52,9.42S64.84,79.71,64.18,75.44Z"/><path class="cls-12" d="M102.07,79.66c-5.42-.39-9.59-4.22-9.31-8.53s4.9-7.49,10.3-7.1,9.59,4.21,9.31,8.53S107.49,80.06,102.07,79.66Z"/><path class="cls-12" d="M137.45,87.82c-1.79,3.94-7.24,5-12.18,2.48s-7.5-7.83-5.72-11.77,7.24-5.06,12.18-2.48S139.24,83.88,137.45,87.82Z"/><polygon class="cls-13" points="80.75 66.48 116.14 101.86 103 115 65.27 77.27 80.75 66.48"/><path class="cls-14" d="M152,94.57,132.7,75.3l-6.75,6.75L108.11,64.21l-14.36,10,49.53,49.53c5.4-7.24,8.72-16.44,8.72-27.59C152,95.65,152,95.11,152,94.57Z"/><path class="cls-15" d="M63.18,73.44c-.66-4.27,3.17-8.49,8.52-9.43s10.23,1.77,10.88,6-3.16,8.49-8.52,9.42S63.84,77.71,63.18,73.44Z"/><path class="cls-16" d="M101.07,77.66c-5.42-.39-9.59-4.22-9.31-8.53s4.9-7.49,10.3-7.1,9.59,4.21,9.31,8.53S106.49,78.06,101.07,77.66Z"/><path class="cls-17" d="M136.45,85.82c-1.79,3.94-7.24,5-12.18,2.48s-7.5-7.83-5.72-11.77,7.24-5.06,12.18-2.48S138.24,81.88,136.45,85.82Z"/></g></g></svg>