<svg xmlns="http://www.w3.org/2000/svg" xmlns:xlink="http://www.w3.org/1999/xlink" viewBox="0 0 192 192"><defs><style>.cls-1{fill:none;}.cls-2{opacity:0.01;}.cls-3{opacity:0.02;}.cls-4{opacity:0.04;}.cls-5{opacity:0.06;}.cls-6{fill:#4f8df5;}.cls-7{fill:url(#未命名的渐变_8);}.cls-8{fill:url(#未命名的渐变_46);}.cls-9{fill:url(#未命名的渐变_60);}.cls-10{fill:#f5f5f5;}.cls-11{opacity:0.05;}.cls-12,.cls-15{fill:#fff;}.cls-13{fill:url(#未命名的渐变_58);}.cls-14{opacity:0.1;}.cls-15{opacity:0.2;}</style><linearGradient id="未命名的渐变_8" x1="166" y1="166" x2="26" y2="26" gradientUnits="userSpaceOnUse"><stop offset="0" stop-opacity="0.1"/><stop offset="0.5" stop-color="gray" stop-opacity="0.05"/><stop offset="1" stop-color="#fff" stop-opacity="0.12"/></linearGradient><linearGradient id="未命名的渐变_46" x1="166" y1="166" x2="26" y2="26" gradientUnits="userSpaceOnUse"><stop offset="0" stop-opacity="0.05"/><stop offset="0.5" stop-color="gray" stop-opacity="0"/><stop offset="1" stop-color="#fff" stop-opacity="0.1"/></linearGradient><linearGradient id="未命名的渐变_60" x1="160.66" y1="171.34" x2="81.16" y2="91.84" gradientUnits="userSpaceOnUse"><stop offset="0" stop-opacity="0.02"/><stop offset="1" stop-opacity="0.16"/></linearGradient><linearGradient id="未命名的渐变_58" x1="129.47" y1="146.49" x2="62.99" y2="80.01" gradientUnits="userSpaceOnUse"><stop offset="0.12" stop-opacity="0"/><stop offset="1" stop-opacity="0.12"/></linearGradient></defs><title>google_cloudsearch</title><g id="图层_2" data-name="图层 2"><g id="图层_2-2" data-name="图层 2"><rect class="cls-1" width="192" height="192"/><path class="cls-2" d="M96,190C27.34,190,3,165.66,3,97S27.34,4,96,4s93,24.34,93,93S164.66,190,96,190Z"/><path class="cls-3" d="M96,189C28.07,189,4,164.92,4,97S28.07,5,96,5s92,24.07,92,92S163.93,189,96,189Z"/><path class="cls-4" d="M96,188C28.81,188,5,164.19,5,97S28.81,6,96,6s91,23.81,91,91S163.19,188,96,188Z"/><path class="cls-5" d="M186,97c0,66.67-23.32,90-90,90S6,163.67,6,97,29.32,7,96,7,186,30.32,186,97Z"/><path class="cls-6" d="M186,96c0,66.67-23.32,90-90,90S6,162.67,6,96,29.32,6,96,6,186,29.32,186,96Z"/><path class="cls-7" d="M186,96c0,66.67-23.32,90-90,90S6,162.67,6,96,29.32,6,96,6,186,29.32,186,96Z"/><path class="cls-8" d="M96,6C29.32,6,6,29.32,6,96s23.32,90,90,90,90-23.33,90-90S162.68,6,96,6Zm68.59,158.59C151.17,178,130,184,96,184s-55.17-6-68.59-19.41S8,130,8,96s6-55.17,19.41-68.59S62,8,96,8s55.17,6,68.59,19.41S184,62,184,96,178,151.16,164.59,164.59Z"/><path class="cls-9" d="M108.33,185.7c46.34-2.34,68.54-18.79,75.32-58.06L151.47,95.46l-19.85-5.09L108.08,66.83,48,125Z"/><path class="cls-10" d="M126,80h-9.16A42,42,0,1,0,78,138h48a29,29,0,0,0,0-58Z"/><g class="cls-11"><path d="M146,88a29,29,0,0,1-21,49H77a41.85,41.85,0,0,1-29.17-11.83A41.87,41.87,0,0,0,78,138h48a29,29,0,0,0,20-50Z"/><path d="M116.36,80.32l.55-.15a41.88,41.88,0,0,0-9.68-14.38A41.94,41.94,0,0,1,116.36,80.32Z"/></g><path class="cls-12" d="M118,82h9a29,29,0,0,1,25.4,15A29,29,0,0,0,126,80h-9C117.29,80.67,117.74,81.31,118,82Z"/><path class="cls-12" d="M37,98a42,42,0,0,1,79.08-19.75A42,42,0,1,0,41,115.76,41.74,41.74,0,0,1,37,98Z"/><path class="cls-13" d="M145.7,130.25,95.22,79.77,63,80l-.25,32.25L88.5,138H126A28.89,28.89,0,0,0,145.7,130.25Z"/><path class="cls-6" d="M107.49,119.83,97.43,109.77a23,23,0,1,0-5.84,5.48l10.24,10.24a4,4,0,0,0,5.66-5.66ZM64,96a15,15,0,1,1,15,15A15,15,0,0,1,64,96Z"/><g class="cls-11"><path d="M107.49,119.83l-1-1a4,4,0,0,1-5.66,5.66l1,1a4,4,0,0,0,5.66-5.66Z"/><path d="M67.92,106.08A15,15,0,0,1,89.08,84.92a15,15,0,1,0-21.16,21.16Z"/><path d="M101,95a22.9,22.9,0,0,1-4.57,13.77l1,1a23,23,0,0,0-2.67-30.52A22.91,22.91,0,0,1,101,95Z"/><path d="M78,118a22.91,22.91,0,0,1-15.75-6.25,23,23,0,0,0,29.34,3.49l-1-1A22.89,22.89,0,0,1,78,118Z"/></g><g class="cls-14"><path class="cls-12" d="M57,97A23,23,0,0,1,95.75,80.25a23,23,0,1,0-32.5,32.5A22.91,22.91,0,0,1,57,97Z"/><path class="cls-12" d="M90.08,85.92a15,15,0,0,1-21.16,21.16A15,15,0,1,0,90.08,85.92Z"/></g><circle class="cls-15" cx="79" cy="96" r="15"/><path class="cls-3" d="M66,98A15,15,0,0,1,90.56,86.44a15,15,0,1,0-21.12,21.12A14.94,14.94,0,0,1,66,98Z"/><path class="cls-3" d="M65,97A14.93,14.93,0,0,1,90,86a14.94,14.94,0,1,0-21.1,21.1A14.88,14.88,0,0,1,65,97Z"/></g></g></svg>