<?xml version="1.0" encoding="UTF-8" standalone="no"?>
<svg
   xmlns:dc="http://purl.org/dc/elements/1.1/"
   xmlns:cc="http://creativecommons.org/ns#"
   xmlns:rdf="http://www.w3.org/1999/02/22-rdf-syntax-ns#"
   xmlns:svg="http://www.w3.org/2000/svg"
   xmlns="http://www.w3.org/2000/svg"
   viewBox="0 0 133.33333 133.33333"
   height="133.33333"
   width="133.33333"
   xml:space="preserve"
   id="svg2"
   version="1.1"><metadata
     id="metadata8"><rdf:RDF><cc:Work
         rdf:about=""><dc:format>image/svg+xml</dc:format><dc:type
           rdf:resource="http://purl.org/dc/dcmitype/StillImage" /></cc:Work></rdf:RDF></metadata><defs
     id="defs6"><clipPath
       id="clipPath18"
       clipPathUnits="userSpaceOnUse"><path
         id="path16"
         d="M 50,100 C 12.956,100 0,87.039 0,50 v 0 C 0,12.961 12.956,0 50,0 v 0 c 37.045,0 50,12.961 50,50 v 0 c 0,37.044 -12.955,50 -50,50 z" /></clipPath><linearGradient
       id="linearGradient30"
       spreadMethod="pad"
       gradientTransform="matrix(77.78125,-77.78125,-77.78125,-77.78125,11.109896,88.891144)"
       gradientUnits="userSpaceOnUse"
       y2="0"
       x2="1"
       y1="0"
       x1="0"><stop
         id="stop24"
         offset="0"
         style="stop-opacity:1;stop-color:#88f7e9" /><stop
         id="stop26"
         offset="0.00000017"
         style="stop-opacity:1;stop-color:#88f7e9" /><stop
         id="stop28"
         offset="1"
         style="stop-opacity:1;stop-color:#864fba" /></linearGradient><clipPath
       id="clipPath40"
       clipPathUnits="userSpaceOnUse"><path
         id="path38"
         d="M 0,100 H 100 V 0 H 0 Z" /></clipPath><clipPath
       id="clipPath48"
       clipPathUnits="userSpaceOnUse"><path
         id="path46"
         d="m 36.0833,72.875 h 39.75 V 17 h -39.75 z" /></clipPath><clipPath
       id="clipPath64"
       clipPathUnits="userSpaceOnUse"><path
         id="path62"
         d="M 20.831,49.08 20.299,37.23 36.3,21.23 c -0.15,0.49 -0.22,1.02 -0.22,1.56 v 0 34.97 z" /></clipPath><clipPath
       id="clipPath72"
       clipPathUnits="userSpaceOnUse"><path
         id="path70"
         d="M -32768,32767 H 32767 V -32768 H -32768 Z" /></clipPath><linearGradient
       id="linearGradient82"
       spreadMethod="pad"
       gradientTransform="matrix(21.659973,-21.659973,-21.659973,-21.659973,23.717514,51.967514)"
       gradientUnits="userSpaceOnUse"
       y2="0"
       x2="1"
       y1="0"
       x1="0"><stop
         id="stop74"
         offset="0"
         style="stop-opacity:0.11999695;stop-color:#ffffff" /><stop
         id="stop76"
         offset="0.00000038"
         style="stop-opacity:0.11999695;stop-color:#ffffff" /><stop
         id="stop78"
         offset="0.822222"
         style="stop-opacity:0;stop-color:#ffffff" /><stop
         id="stop80"
         offset="1"
         style="stop-opacity:0;stop-color:#ffffff" /></linearGradient><mask
       id="mask84"
       height="1"
       width="1"
       y="0"
       x="0"
       maskUnits="userSpaceOnUse"><g
         id="g94"><g
           id="g92"
           clip-path="url(#clipPath72)"><g
             id="g90"><g
               id="g88"><path
                 id="path86"
                 style="fill:url(#linearGradient82);stroke:none"
                 d="M -32768,32767 H 32767 V -32768 H -32768 Z" /></g></g></g></g></mask><linearGradient
       id="linearGradient108"
       spreadMethod="pad"
       gradientTransform="matrix(21.659973,-21.659973,-21.659973,-21.659973,23.717514,51.967514)"
       gradientUnits="userSpaceOnUse"
       y2="0"
       x2="1"
       y1="0"
       x1="0"><stop
         id="stop100"
         offset="0"
         style="stop-opacity:1;stop-color:#000000" /><stop
         id="stop102"
         offset="0.00000038"
         style="stop-opacity:1;stop-color:#000000" /><stop
         id="stop104"
         offset="0.822222"
         style="stop-opacity:1;stop-color:#000000" /><stop
         id="stop106"
         offset="1"
         style="stop-opacity:1;stop-color:#000000" /></linearGradient><clipPath
       id="clipPath118"
       clipPathUnits="userSpaceOnUse"><path
         id="path116"
         d="m 77.33,81.23 c 1.08,-1.08 1.75,-2.57 1.75,-4.23 v 0 -54 c 0,-3.31 -2.68,-6 -6,-6 v 0 H 41.87 c -1.59,0 -3.039,0.651 -4.09,1.7 v 0 L 56.33,0.139 C 88.53,1.63 100,15.161 100,50 v 0 c 0,3.13 -0.1,6.07 -0.29,8.86 v 0 L 77.34,81.23 Z" /></clipPath><clipPath
       id="clipPath126"
       clipPathUnits="userSpaceOnUse"><path
         id="path124"
         d="M -32768,32767 H 32767 V -32768 H -32768 Z" /></clipPath><linearGradient
       id="linearGradient136"
       spreadMethod="pad"
       gradientTransform="matrix(40.836807,-40.836807,-40.836807,-40.836807,51.810013,55.710037)"
       gradientUnits="userSpaceOnUse"
       y2="0"
       x2="1"
       y1="0"
       x1="0"><stop
         id="stop128"
         offset="0"
         style="stop-opacity:0.11999695;stop-color:#ffffff" /><stop
         id="stop130"
         offset="0.00000038"
         style="stop-opacity:0.11999695;stop-color:#ffffff" /><stop
         id="stop132"
         offset="0.822222"
         style="stop-opacity:0;stop-color:#ffffff" /><stop
         id="stop134"
         offset="1"
         style="stop-opacity:0;stop-color:#ffffff" /></linearGradient><mask
       id="mask138"
       height="1"
       width="1"
       y="0"
       x="0"
       maskUnits="userSpaceOnUse"><g
         id="g148"><g
           id="g146"
           clip-path="url(#clipPath126)"><g
             id="g144"><g
               id="g142"><path
                 id="path140"
                 style="fill:url(#linearGradient136);stroke:none"
                 d="M -32768,32767 H 32767 V -32768 H -32768 Z" /></g></g></g></g></mask><linearGradient
       id="linearGradient162"
       spreadMethod="pad"
       gradientTransform="matrix(40.836807,-40.836807,-40.836807,-40.836807,51.810013,55.710037)"
       gradientUnits="userSpaceOnUse"
       y2="0"
       x2="1"
       y1="0"
       x1="0"><stop
         id="stop154"
         offset="0"
         style="stop-opacity:1;stop-color:#000000" /><stop
         id="stop156"
         offset="0.00000038"
         style="stop-opacity:1;stop-color:#000000" /><stop
         id="stop158"
         offset="0.822222"
         style="stop-opacity:1;stop-color:#000000" /><stop
         id="stop160"
         offset="1"
         style="stop-opacity:1;stop-color:#000000" /></linearGradient><clipPath
       id="clipPath172"
       clipPathUnits="userSpaceOnUse"><path
         id="path170"
         d="M 0,100 H 100 V 0 H 0 Z" /></clipPath><clipPath
       id="clipPath184"
       clipPathUnits="userSpaceOnUse"><path
         id="path182"
         d="M 36.08,53.37 V 35.88 L 39.29,32.67 38.4,19.13 38.36,18.599 39.39,17.56 C 40.15,17.21 40.99,17 41.87,17 v 0 h 31.21 c 3.32,0 6,2.69 6,6 v 0 12.76 L 56.05,58.8 Z" /></clipPath><clipPath
       id="clipPath192"
       clipPathUnits="userSpaceOnUse"><path
         id="path190"
         d="M -32768,32767 H 32767 V -32768 H -32768 Z" /></clipPath><linearGradient
       id="linearGradient202"
       spreadMethod="pad"
       gradientTransform="matrix(37.928124,-37.928124,-37.928124,-37.928124,34.305008,51.594986)"
       gradientUnits="userSpaceOnUse"
       y2="0"
       x2="1"
       y1="0"
       x1="0"><stop
         id="stop194"
         offset="0"
         style="stop-opacity:0.07998779;stop-color:#ffffff" /><stop
         id="stop196"
         offset="0.00000049"
         style="stop-opacity:0.07998779;stop-color:#ffffff" /><stop
         id="stop198"
         offset="0.822222"
         style="stop-opacity:0;stop-color:#ffffff" /><stop
         id="stop200"
         offset="1"
         style="stop-opacity:0;stop-color:#ffffff" /></linearGradient><mask
       id="mask204"
       height="1"
       width="1"
       y="0"
       x="0"
       maskUnits="userSpaceOnUse"><g
         id="g214"><g
           id="g212"
           clip-path="url(#clipPath192)"><g
             id="g210"><g
               id="g208"><path
                 id="path206"
                 style="fill:url(#linearGradient202);stroke:none"
                 d="M -32768,32767 H 32767 V -32768 H -32768 Z" /></g></g></g></g></mask><linearGradient
       id="linearGradient228"
       spreadMethod="pad"
       gradientTransform="matrix(37.928124,-37.928124,-37.928124,-37.928124,34.305008,51.594986)"
       gradientUnits="userSpaceOnUse"
       y2="0"
       x2="1"
       y1="0"
       x1="0"><stop
         id="stop220"
         offset="0"
         style="stop-opacity:1;stop-color:#000000" /><stop
         id="stop222"
         offset="0.00000049"
         style="stop-opacity:1;stop-color:#000000" /><stop
         id="stop224"
         offset="0.822222"
         style="stop-opacity:1;stop-color:#000000" /><stop
         id="stop226"
         offset="1"
         style="stop-opacity:1;stop-color:#000000" /></linearGradient><clipPath
       id="clipPath238"
       clipPathUnits="userSpaceOnUse"><path
         id="path236"
         d="M 0,100 H 100 V 0 H 0 Z" /></clipPath></defs><g
     transform="matrix(1.3333333,0,0,-1.3333333,0,133.33333)"
     id="g10"><g
       id="g12"><g
         clip-path="url(#clipPath18)"
         id="g14"><g
           id="g20"><g
             id="g22"><path
               id="path32"
               style="fill:url(#linearGradient30);stroke:none"
               d="M 50,100 C 12.956,100 0,87.039 0,50 v 0 C 0,12.961 12.956,0 50,0 v 0 c 37.045,0 50,12.961 50,50 v 0 c 0,37.044 -12.955,50 -50,50 z" /></g></g></g></g><g
       id="g34"><g
         clip-path="url(#clipPath40)"
         id="g36"><g
           id="g42"><g
             id="g44" /><g
             id="g56"><g
               style="opacity:0.30000299"
               id="g54"
               clip-path="url(#clipPath48)"><g
                 id="g52"
                 transform="translate(70.042,17)"><path
                   id="path50"
                   style="fill:#ffffff;fill-opacity:1;fill-rule:nonzero;stroke:none"
                   d="m 0,0 h -28.167 c -3.199,0 -5.791,2.593 -5.791,5.792 V 55.875 H 5.791 V 5.792 C 5.791,2.593 3.198,0 0,0" /></g></g></g></g></g></g><g
       id="g58"><g
         clip-path="url(#clipPath64)"
         id="g60"><g
           id="g66"><g
             id="g68" /><g
             mask="url(#mask84)"
             id="g96"><g
               id="g98"><path
                 id="path110"
                 style="fill:url(#linearGradient108);stroke:none"
                 d="M 20.831,49.08 20.299,37.23 36.3,21.23 c -0.15,0.49 -0.22,1.02 -0.22,1.56 v 0 34.97 z" /></g></g></g></g></g><g
       id="g112"><g
         clip-path="url(#clipPath118)"
         id="g114"><g
           id="g120"><g
             id="g122" /><g
             mask="url(#mask138)"
             id="g150"><g
               id="g152"><path
                 id="path164"
                 style="fill:url(#linearGradient162);stroke:none"
                 d="m 77.33,81.23 c 1.08,-1.08 1.75,-2.57 1.75,-4.23 v 0 -54 c 0,-3.31 -2.68,-6 -6,-6 v 0 H 41.87 c -1.59,0 -3.039,0.651 -4.09,1.7 v 0 L 56.33,0.139 C 88.53,1.63 100,15.161 100,50 v 0 c 0,3.13 -0.1,6.07 -0.29,8.86 v 0 L 77.34,81.23 Z" /></g></g></g></g></g><g
       id="g166"><g
         clip-path="url(#clipPath172)"
         id="g168"><g
           transform="translate(73.083,83)"
           id="g174"><path
             id="path176"
             style="fill:#ffffff;fill-opacity:1;fill-rule:nonzero;stroke:none"
             d="m 0,0 h -31 c -3.313,0 -6,-2.687 -6,-6 v -14.5 h 3.25 v 10.375 h 36.5 v -45.75 h -29.5 v -6.458 c 0,-1.385 -0.481,-2.657 -1.282,-3.667 H 0 c 3.314,0 6,2.687 6,6 V -6 C 6,-2.687 3.314,0 0,0" /></g></g></g><g
       id="g178"><g
         clip-path="url(#clipPath184)"
         id="g180"><g
           id="g186"><g
             id="g188" /><g
             mask="url(#mask204)"
             id="g216"><g
               id="g218"><path
                 id="path230"
                 style="fill:url(#linearGradient228);stroke:none"
                 d="M 36.08,53.37 V 35.88 L 39.29,32.67 38.4,19.13 38.36,18.599 39.39,17.56 C 40.15,17.21 40.99,17 41.87,17 v 0 h 31.21 c 3.32,0 6,2.69 6,6 v 0 12.76 L 56.05,58.8 Z" /></g></g></g></g></g><g
       id="g232"><g
         clip-path="url(#clipPath238)"
         id="g234"><g
           transform="translate(40.5005,38.708)"
           id="g240"><path
             id="path242"
             style="fill:#ffffff;fill-opacity:1;fill-rule:nonzero;stroke:none"
             d="m 0,0 h -16.949 c -0.995,0 -1.801,0.807 -1.801,1.802 v 7.021 c 0,0.995 0.806,1.802 1.801,1.802 h 0.865 V 5.687 c 0,-1.323 1.073,-2.395 2.396,-2.395 h 27.542 c 1.323,0 2.396,1.072 2.396,2.395 v 12.709 c 0,1.323 -1.073,2.396 -2.396,2.396 h -27.542 c -1.323,0 -2.396,-1.073 -2.396,-2.396 v -4.938 h -0.833 c -2.578,0 -4.666,-2.089 -4.666,-4.666 V 1.833 c 0,-2.577 2.088,-4.666 4.666,-4.666 H -3 v -15.208 c 0,-1.611 1.305,-2.917 2.916,-2.917 1.611,0 2.917,1.306 2.917,2.917 V -2.833 C 2.833,-1.269 1.564,0 0,0" /></g></g></g></g></svg>