<?xml version="1.0" encoding="UTF-8" standalone="no"?>
<!-- Generator: Adobe Illustrator 22.0.1, SVG Export Plug-In . SVG Version: 6.00 Build 0)  -->

<svg
   xmlns:dc="http://purl.org/dc/elements/1.1/"
   xmlns:cc="http://creativecommons.org/ns#"
   xmlns:rdf="http://www.w3.org/1999/02/22-rdf-syntax-ns#"
   xmlns:svg="http://www.w3.org/2000/svg"
   xmlns="http://www.w3.org/2000/svg"
   xmlns:sodipodi="http://sodipodi.sourceforge.net/DTD/sodipodi-0.dtd"
   xmlns:inkscape="http://www.inkscape.org/namespaces/inkscape"
   version="1.1"
   id="图层_1"
   x="0px"
   y="0px"
   viewBox="0 0 192 192"
   style="enable-background:new 0 0 192 192;"
   xml:space="preserve"
   sodipodi:docname="paypal.svg"
   inkscape:version="0.92.4 5da689c313, 2019-01-14"><metadata
   id="metadata58"><rdf:RDF><cc:Work
       rdf:about=""><dc:format>image/svg+xml</dc:format><dc:type
         rdf:resource="http://purl.org/dc/dcmitype/StillImage" /><dc:title>paypal_2</dc:title></cc:Work></rdf:RDF></metadata><defs
   id="defs56" /><sodipodi:namedview
   pagecolor="#ffffff"
   bordercolor="#666666"
   borderopacity="1"
   objecttolerance="10"
   gridtolerance="10"
   guidetolerance="10"
   inkscape:pageopacity="0"
   inkscape:pageshadow="2"
   inkscape:window-width="1366"
   inkscape:window-height="704"
   id="namedview54"
   showgrid="false"
   inkscape:zoom="1.2291667"
   inkscape:cx="96"
   inkscape:cy="96"
   inkscape:window-x="0"
   inkscape:window-y="27"
   inkscape:window-maximized="1"
   inkscape:current-layer="图层_1-2" />
<style
   type="text/css"
   id="style2">
	.st0{fill:none;}
	.st1{opacity:1.000000e-02;enable-background:new    ;}
	.st2{opacity:2.000000e-02;enable-background:new    ;}
	.st3{opacity:4.000000e-02;enable-background:new    ;}
	.st4{opacity:6.000000e-02;enable-background:new    ;}
	.st5{fill:#0859B2;}
	.st6{fill:url(#SVGID_1_);}
	.st7{fill:url(#SVGID_2_);}
	.st8{fill:url(#SVGID_3_);}
	.st9{fill:#5CBDFF;}
	.st10{fill:#9FD4FF;}
	.st11{fill:#FAFAFA;}
	.st12{fill:#FFFFFF;}
</style>
<title
   id="title4">paypal_2</title>
<g
   id="图层_2_1_">
	<g
   id="图层_1-2">
		<rect
   class="st0"
   width="192"
   height="192"
   id="rect6"
   x="0"
   y="0"
   style="fill:none" />
		
		
		
		
		<path
   class="st5"
   d="m 186,96 c 0,66.7 -23.3,90 -90,90 C 29.3,186 6,162.7 6,96 6,29.3 29.3,6 96,6 c 66.7,0 90,23.3 90,90 z"
   id="path16"
   inkscape:connector-curvature="0"
   style="fill:#0859b2" />
		
			<linearGradient
   id="SVGID_1_"
   gradientUnits="userSpaceOnUse"
   x1="166.0041"
   y1="472.0022"
   x2="25.997801"
   y2="331.99591"
   gradientTransform="translate(0,-306)">
			<stop
   offset="0"
   style="stop-color:#000000;stop-opacity:0.1"
   id="stop18" />
			<stop
   offset="0.5"
   style="stop-color:#808080;stop-opacity:5.000000e-02"
   id="stop20" />
			<stop
   offset="1"
   style="stop-color:#FFFFFF;stop-opacity:0.1"
   id="stop22" />
		</linearGradient>
		<path
   class="st6"
   d="m 186,96 c 0,66.7 -23.3,90 -90,90 C 29.3,186 6,162.7 6,96 6,29.3 29.3,6 96,6 c 66.7,0 90,23.3 90,90 z"
   id="path25"
   inkscape:connector-curvature="0"
   style="fill:url(#SVGID_1_)" />
		
			<linearGradient
   id="SVGID_2_"
   gradientUnits="userSpaceOnUse"
   x1="166.0128"
   y1="424.01221"
   x2="25.9872"
   y2="283.98779"
   gradientTransform="translate(0,-258)">
			<stop
   offset="0"
   style="stop-color:#000000;stop-opacity:4.000000e-02"
   id="stop27" />
			<stop
   offset="0.5"
   style="stop-color:#808080;stop-opacity:0"
   id="stop29" />
			<stop
   offset="1"
   style="stop-color:#FFFFFF;stop-opacity:0.1"
   id="stop31" />
		</linearGradient>
		<path
   class="st7"
   d="M 96,6 C 29.3,6 6,29.3 6,96 c 0,66.7 23.3,90 90,90 66.7,0 90,-23.3 90,-90 C 186,29.3 162.7,6 96,6 Z m 68.6,158.6 C 151.2,178 130,184 96,184 62,184 40.8,178 27.4,164.6 14,151.2 8,130 8,96 8,62 14,40.8 27.4,27.4 40.8,14 62,8 96,8 130,8 151.2,14 164.6,27.4 178,40.8 184,62 184,96 c 0,34 -6,55.2 -19.4,68.6 z"
   id="path34"
   inkscape:connector-curvature="0"
   style="fill:url(#SVGID_2_)" />
		
			<linearGradient
   id="SVGID_3_"
   gradientUnits="userSpaceOnUse"
   x1="163.2054"
   y1="25.2096"
   x2="87.794502"
   y2="100.6205"
   gradientTransform="matrix(1,0,0,-1,0,194)">
			<stop
   offset="0"
   style="stop-color:#000000;stop-opacity:4.000000e-02"
   id="stop36" />
			<stop
   offset="1"
   style="stop-color:#000000;stop-opacity:0.12"
   id="stop38" />
		</linearGradient>
		<path
   class="st8"
   d="m 51,139 47,47 c 60.7,-0.4 84.7,-20.9 87.7,-77.1 L 129,52.2 Z"
   id="path41"
   inkscape:connector-curvature="0"
   style="fill:url(#SVGID_3_)" />
		<path
   class="st9"
   d="m 132.9,70.8 v 0 c -0.1,0.6 -0.2,1.3 -0.3,2 -4.4,22.8 -19.7,30.7 -39.1,30.7 h -9.9 c -2.4,0 -4.4,1.7 -4.8,4.1 v 0 l -5.1,32.1 -1.4,9.1 c -0.2,1.4 0.7,2.7 2.1,2.9 0.1,0 0.3,0 0.4,0 h 17.6 c 2.1,0 3.8,-1.5 4.2,-3.6 l 0.2,-0.9 3.3,-21 0.2,-1.2 c 0.3,-2.1 2.1,-3.6 4.2,-3.6 h 2.6 c 17,0 30.3,-6.9 34.2,-26.9 1.6,-8.3 0.8,-15.3 -3.5,-20.2 -1.5,-1.3 -3.1,-2.6 -4.9,-3.5 z"
   id="path43"
   inkscape:connector-curvature="0"
   style="fill:#5cbdff" />
		<path
   class="st10"
   d="m 128.3,68.9 c -0.7,-0.2 -1.4,-0.4 -2.1,-0.5 -0.7,-0.1 -1.5,-0.3 -2.2,-0.4 -2.9,-0.4 -5.8,-0.7 -8.7,-0.6 H 88.8 c -2.1,0 -3.8,1.5 -4.2,3.6 l -5.6,35.5 -0.2,1 c 0.4,-2.3 2.4,-4.1 4.8,-4.1 h 9.9 c 19.4,0 34.7,-7.9 39.1,-30.7 0.1,-0.7 0.2,-1.3 0.3,-2 -1.2,-0.6 -2.4,-1.1 -3.7,-1.5 -0.3,-0.1 -0.6,-0.2 -0.9,-0.3 z"
   id="path45"
   inkscape:connector-curvature="0"
   style="fill:#9fd4ff" />
		<path
   class="st11"
   d="m 84.6,70.9 c 0.3,-2.1 2.1,-3.6 4.2,-3.6 h 26.4 c 2.9,0 5.8,0.2 8.7,0.6 0.8,0.1 1.5,0.3 2.2,0.4 0.7,0.2 1.4,0.3 2.1,0.5 0.3,0.1 0.7,0.2 1,0.3 1.3,0.4 2.5,0.9 3.7,1.5 1.3,-8.4 0,-14.2 -4.6,-19.4 -5,-5.7 -14.1,-8.2 -25.7,-8.2 H 68.9 c -2.4,0 -4.4,1.7 -4.8,4.1 L 50,136.3 c -0.3,1.6 0.8,3.1 2.4,3.3 0.2,0 0.3,0 0.5,0 h 20.8 l 5.2,-33.2 z"
   id="path47"
   inkscape:connector-curvature="0"
   style="fill:#fafafa" />
		<path
   class="st12"
   d="M 51,138.3 65.1,49.2 c 0.4,-2.3 2.4,-4.1 4.8,-4.1 h 33.7 c 11.6,0 20.7,2.5 25.7,8.2 0.9,1.1 1.8,2.2 2.5,3.5 -0.9,-2 -2,-3.9 -3.5,-5.5 -5,-5.7 -14.1,-8.2 -25.7,-8.2 H 68.9 c -2.4,0 -4.4,1.7 -4.8,4.1 L 50,136.3 c -0.2,1 0.2,2 1,2.6 0,-0.1 0,-0.3 0,-0.6 z"
   id="path49"
   inkscape:connector-curvature="0"
   style="fill:#ffffff" />
	</g>
</g>
</svg>