<svg xmlns="http://www.w3.org/2000/svg" xmlns:xlink="http://www.w3.org/1999/xlink" width="192" height="192" viewBox="0 0 192 192"><defs><style>.cls-1{fill:none;}.cls-2{opacity:0.01;}.cls-2,.cls-3,.cls-4,.cls-5{isolation:isolate;}.cls-3{opacity:0.02;}.cls-4{opacity:0.04;}.cls-5{opacity:0.06;}.cls-6{fill:#3982ff;}.cls-7{fill:url(#未命名的渐变_339);}.cls-8{fill:url(#未命名的渐变_2);}.cls-9{fill:url(#未命名的渐变_17);}.cls-10{fill:#fafafa;}.cls-11{fill:#fff;}.cls-12{fill:url(#未命名的渐变_336);}</style><linearGradient id="未命名的渐变_339" x1="166.004" y1="27.998" x2="25.998" y2="168.004" gradientTransform="matrix(1, 0, 0, -1, 0, 194)" gradientUnits="userSpaceOnUse"><stop offset="0" stop-opacity="0.1"/><stop offset="0.5" stop-color="gray" stop-opacity="0.05"/><stop offset="1" stop-color="#fff" stop-opacity="0.15"/></linearGradient><linearGradient id="未命名的渐变_2" x1="166.012" y1="75.988" x2="25.987" y2="216.012" gradientTransform="matrix(1, 0, 0, -1, 0, 242)" gradientUnits="userSpaceOnUse"><stop offset="0" stop-opacity="0.04"/><stop offset="0.5" stop-color="gray" stop-opacity="0"/><stop offset="1" stop-color="#fff" stop-opacity="0.1"/></linearGradient><linearGradient id="未命名的渐变_17" x1="173.321" y1="37.08" x2="83.76" y2="99.795" gradientTransform="matrix(1, 0, 0, -1, 0, 194)" gradientUnits="userSpaceOnUse"><stop offset="0" stop-opacity="0.02"/><stop offset="1" stop-opacity="0.1"/></linearGradient><linearGradient id="未命名的渐变_336" x1="142.354" y1="139.854" x2="82.25" y2="79.75" gradientUnits="userSpaceOnUse"><stop offset="0" stop-opacity="0"/><stop offset="1" stop-opacity="0.08"/></linearGradient></defs><title>sony_messaging</title><g id="图层_2" data-name="图层 2"><g id="图层_1-2" data-name="图层 1"><rect class="cls-1" width="192" height="192"/><path class="cls-2" d="M96,190C27.3,190,3,165.7,3,97S27.3,4,96,4s93,24.3,93,93S164.7,190,96,190Z"/><path class="cls-3" d="M96,189C28.1,189,4,164.9,4,97S28.1,5,96,5s92,24.1,92,92S163.9,189,96,189Z"/><path class="cls-4" d="M96,188C28.8,188,5,164.2,5,97S28.8,6,96,6s91,23.8,91,91S163.2,188,96,188Z"/><path class="cls-5" d="M186,97c0,66.7-23.3,90-90,90S6,163.7,6,97,29.3,7,96,7,186,30.3,186,97Z"/><path class="cls-6" d="M186,96c0,66.7-23.3,90-90,90S6,162.7,6,96,29.3,6,96,6,186,29.3,186,96Z"/><path class="cls-7" d="M186,96c0,66.67-23.32,90-90,90S6,162.67,6,96,29.32,6,96,6,186,29.32,186,96Z"/><path class="cls-8" d="M96,6C29.3,6,6,29.3,6,96s23.3,90,90,90,90-23.3,90-90S162.7,6,96,6Zm68.6,158.6C151.2,178,130,184,96,184s-55.2-6-68.6-19.4S8,130,8,96s6-55.2,19.4-68.6S62,8,96,8s55.2,6,68.6,19.4S184,62,184,96,178,151.2,164.6,164.6Z"/><path class="cls-9" d="M186,96h0L141.06,50.91,50.88,141.16,95.72,186H96C162.68,186,186,162.67,186,96Z"/><path class="cls-10" d="M147.874,131.47C152.137,122.713,154,111.084,154,96c0-42.972-15.028-58-58-58S38,53.035,38,96s15.028,58,58,58c15.085,0,26.714-1.863,35.47-6.126l17.576,4.184a2.5,2.5,0,0,0,3.012-3.012Z"/><path class="cls-11" d="M39,98c0-42.965,15.028-58,58-58,27.155,0,43.141,6.013,51.238,21.275C140.493,44.53,124.315,38,96,38,53.028,38,38,53.035,38,96c0,15.815,2.046,27.833,6.762,36.723C40.753,124.055,39,112.655,39,98Z"/><path class="cls-12" d="M153.318,110.318,108,65l6,18v21L90,80,74,88l16,16-16,8,40.75,40.75C139.317,149.007,150.587,136.449,153.318,110.318Z"/><path class="cls-6" d="M90,88H74V80H90Zm0,16H74v8H90Zm30-8c0-17.549-11.7-30.4-12.287-30.939l-6.426,4.878C101.4,70.047,112,81.914,112,96c0,13.993-10.6,25.957-10.713,26.061l6.426,4.878C108.3,126.4,120,113.55,120,96Z"/></g></g></svg>