<?xml version="1.0" encoding="utf-8"?>
<!-- Generator: Adobe Illustrator 17.1.0, SVG Export Plug-In . SVG Version: 6.00 Build 0)  -->
<!DOCTYPE svg PUBLIC "-//W3C//DTD SVG 1.1//EN" "http://www.w3.org/Graphics/SVG/1.1/DTD/svg11.dtd">
<svg version="1.1" id="图层_1" xmlns="http://www.w3.org/2000/svg" xmlns:xlink="http://www.w3.org/1999/xlink" x="0px" y="0px"
	 width="96px" height="96px" viewBox="0 0 96 96" enable-background="new 0 0 96 96" xml:space="preserve">
<rect fill="none" width="96" height="96"/>
<path fill-opacity="0.4" d="M88,49c0,29.633-10.363,40-40,40C18.365,89,8,78.633,8,49C8,19.365,18.365,9,48,9
	C77.637,9,88,19.365,88,49z"/>
<linearGradient id="SVGID_1_" gradientUnits="userSpaceOnUse" x1="696.6202" y1="-577.0746" x2="696.6202" y2="-496.3816" gradientTransform="matrix(1 0 0 -1 -648.6202 -489.62)">
	<stop  offset="0" style="stop-color:#003C8C"/>
	<stop  offset="0.5" style="stop-color:#005AA5"/>
	<stop  offset="1" style="stop-color:#0082D2"/>
</linearGradient>
<path fill="url(#SVGID_1_)" d="M88,48c0,29.633-10.363,40-40,40C18.365,88,8,77.633,8,48C8,18.365,18.365,8,48,8
	C77.637,8,88,18.365,88,48z"/>
<linearGradient id="SVGID_2_" gradientUnits="userSpaceOnUse" x1="696.6202" y1="-498.1649" x2="696.6202" y2="-578.8608" gradientTransform="matrix(1 0 0 -1 -648.6202 -489.62)">
	<stop  offset="0" style="stop-color:#FFFFFF"/>
	<stop  offset="1" style="stop-color:#FFFFFF;stop-opacity:0"/>
</linearGradient>
<path fill="url(#SVGID_2_)" fill-opacity="0.15" d="M48,8C18.365,8,8,18.365,8,48c0,29.633,10.365,40,40,40
	c29.637,0,40-10.367,40-40C88,18.365,77.637,8,48,8z M48,87C18.84,87,9,77.158,9,48S18.84,9,48,9c29.158,0,39,9.842,39,39
	S77.158,87,48,87z"/>
<path opacity="0.01" d="M35.176,75c-1.092,0-2.101-0.365-3-1.265L19.741,61.289c-0.797-0.798-1.237-1.844-1.237-2.985
	c0-1.142,0.441-2.201,1.243-3.001l3.383-3.392c0.798-0.797,1.892-1.251,3.004-1.251c1.135,0,2.2,0.441,2.998,1.24l1.744,1.743
	c1.587-1.477,3.31-2.352,5.137-2.612c0.138-0.637,0.336-1.268,0.593-1.884c0.592-1.419,1.514-2.76,2.74-3.985
	c1.107-1.108,2.315-1.965,3.591-2.547c0.126-0.057,0.253-0.112,0.382-0.165c0.21-0.585,0.548-1.119,0.995-1.566l3.096-3.096
	c0.243-0.244,0.514-0.456,0.807-0.633c0.437-0.898,1.008-1.701,1.699-2.392c0.661-0.661,1.183-1.106,1.693-1.442
	c0.458-0.3,0.843-0.518,1.213-0.686l0.127-0.059c0.593-1.27,1.453-2.473,2.562-3.582c1.109-1.109,2.318-1.965,3.591-2.546
	c1.268-0.577,2.604-0.869,3.972-0.869c0.232,0,0.465,0.009,0.699,0.026c1.567,0.115,3.115,0.603,4.603,1.45
	c1.332,0.761,2.644,1.784,3.9,3.038l0.907,0.907c0.785,0.784,1.224,1.823,1.241,2.931l0.705,0.347c1.856,0.912,2.78,3.015,2.197,5
	l-0.094,0.321c-0.212,0.732-0.586,1.592-1.175,2.705c-0.641,1.21-1.611,2.469-2.882,3.741c-2.348,2.347-4.949,3.613-7.743,3.77
	c0.156,0.446,0.237,0.92,0.237,1.407c0,1.134-0.441,2.198-1.241,2.998l-3.389,3.389c-0.332,0.332-0.708,0.602-1.12,0.805
	l-0.026,0.05c-0.644,1.214-1.614,2.473-2.884,3.745c-1.387,1.387-2.883,2.404-4.455,3.033c-0.185,0.739-0.569,1.42-1.116,1.967
	l-3.389,3.389c-0.549,0.55-1.228,0.932-1.968,1.117c-0.176,0.798-0.57,1.444-1.139,2.012C44.04,74.633,43.03,75,41.939,75H35.176z"
	/>
<path opacity="0.02" d="M35.176,75c-0.8,0-1.557-0.79-2.249-1.484l-12.434-12.71c-0.598-0.598-0.928-1.511-0.928-2.369
	s0.331-1.717,0.932-2.317l3.385-3.427c0.599-0.599,1.419-0.955,2.252-0.955c0.852,0,1.65,0.323,2.249,0.921l2.498,2.493
	c0.126-0.14,0.257-0.281,0.394-0.417c1.733-1.733,3.63-2.647,5.643-2.719c0.108-0.832,0.332-1.656,0.667-2.459
	c0.539-1.291,1.384-2.517,2.511-3.644c1.017-1.018,2.122-1.803,3.281-2.332c0.267-0.122,0.54-0.23,0.816-0.324
	c0.122-0.61,0.42-1.171,0.871-1.621l3.097-3.097c0.255-0.255,0.551-0.465,0.873-0.62c0.043-0.098,0.087-0.195,0.133-0.289
	c0.384-0.792,0.888-1.504,1.5-2.115c0.608-0.609,1.079-1.011,1.527-1.306c0.41-0.269,0.749-0.461,1.067-0.606l0.256-0.118
	c0.077-0.035,0.155-0.068,0.235-0.097c0.539-1.289,1.383-2.514,2.51-3.641c1.019-1.018,2.123-1.803,3.281-2.331
	c1.128-0.513,2.316-0.773,3.532-0.773c0.207,0,0.415,0.008,0.622,0.023c1.408,0.103,2.806,0.546,4.155,1.314
	c1.25,0.714,2.486,1.679,3.675,2.867l0.906,0.907c0.6,0.599,0.931,1.398,0.931,2.248c0,0.192-0.017,0.382-0.051,0.569l1.347,0.663
	c1.392,0.684,2.085,2.261,1.648,3.75l-0.094,0.321c-0.193,0.664-0.541,1.461-1.095,2.508c-0.592,1.116-1.498,2.29-2.695,3.488
	c-2.307,2.307-4.86,3.476-7.589,3.476c-0.157,0-0.314-0.004-0.472-0.012c-0.335-0.017-0.669-0.051-1-0.101
	c0.198,0.197,0.315,0.315,0.315,0.315c1.24,1.24,1.24,3.258,0,4.497l-3.389,3.389c-0.327,0.327-0.713,0.575-1.138,0.733
	c-0.063,0.122-0.128,0.248-0.197,0.379c-0.593,1.119-1.5,2.293-2.695,3.489c-1.45,1.449-3.01,2.455-4.647,2.999
	c-0.058,0.756-0.38,1.459-0.922,2.001L47.3,69.852c-0.582,0.583-1.352,0.912-2.174,0.931c-0.004,0.867-0.343,2.139-0.932,2.727
	C43.497,74.208,42.738,75,41.939,75H35.176z"/>
<path opacity="0.03" d="M35.176,73c-0.765,0-1.318-0.521-1.499-0.703L21.244,59.823c-0.399-0.399-0.619-0.929-0.619-1.504
	s0.221-1.109,0.621-1.509l3.386-3.4c0.401-0.401,0.947-0.628,1.501-0.628c0.569,0,1.101,0.22,1.499,0.618l3.346,3.344
	c0.288-0.432,0.638-0.855,1.046-1.262c1.601-1.6,3.333-2.412,5.15-2.412c0.237,0,0.479,0.015,0.719,0.044
	c0.002,0.001,0.005,0.001,0.007,0.001c0.011-1.065,0.233-2.123,0.662-3.151c0.486-1.163,1.253-2.274,2.282-3.303
	c0.928-0.928,1.927-1.64,2.972-2.117c0.45-0.206,0.912-0.364,1.382-0.477c-0.005-0.061-0.008-0.122-0.008-0.184
	c0-0.567,0.221-1.099,0.621-1.499l3.097-3.097c0.263-0.264,0.584-0.45,0.934-0.546c0.082-0.224,0.174-0.441,0.276-0.65
	c0.332-0.686,0.768-1.301,1.295-1.828c0.556-0.556,0.976-0.918,1.36-1.17c0.361-0.237,0.653-0.404,0.922-0.525l0.262-0.121
	c0.185-0.085,0.383-0.144,0.585-0.173c0.056-0.16,0.118-0.319,0.183-0.476c0.486-1.162,1.253-2.273,2.282-3.302
	c0.929-0.929,1.929-1.641,2.972-2.117c0.988-0.45,2.029-0.678,3.092-0.678c0.181,0,0.363,0.007,0.546,0.02
	c1.249,0.092,2.496,0.488,3.706,1.178c1.168,0.668,2.329,1.574,3.451,2.696l0.906,0.906c0.401,0.4,0.621,0.933,0.621,1.499
	c0,0.395-0.107,0.773-0.308,1.102l2.197,1.081c0.928,0.456,1.39,1.507,1.098,2.5l-0.094,0.321c-0.172,0.594-0.495,1.329-1.015,2.31
	c-0.542,1.023-1.386,2.111-2.508,3.235c-2.101,2.1-4.402,3.165-6.839,3.165c-0.14,0-0.279-0.004-0.419-0.011
	c-2.189-0.112-4.268-1.014-6.193-2.685c0.031,0.031,4.706,4.707,4.706,4.707c0.827,0.827,0.827,2.172,0,2.998l-3.389,3.389
	c-0.312,0.312-0.703,0.514-1.127,0.589c-0.116,0.239-0.247,0.497-0.395,0.777c-0.544,1.025-1.387,2.114-2.508,3.235
	c-1.57,1.569-3.25,2.56-5.017,2.961c0.046,0.173,0.069,0.355,0.069,0.539c0,0.566-0.221,1.098-0.621,1.499l-3.389,3.389
	c-0.4,0.401-0.932,0.621-1.499,0.621c-0.567,0-1.099-0.221-1.5-0.622l-6.219-6.219c0.032,0.049,0.065,0.098,0.1,0.145
	c0.325,0.439,0.636,0.805,0.951,1.121l5.06,5.061c0.395,0.394,0.621,0.962,0.621,1.556s-0.226,1.13-0.621,1.524
	C43.262,72.473,42.704,73,41.939,73H35.176z"/>
<path opacity="0.04" d="M35.176,72c-0.281,0-0.551-0.224-0.75-0.423L21.995,59.091c-0.414-0.414-0.414-1.113,0-1.527l3.388-3.403
	c0.199-0.199,0.468-0.318,0.75-0.318c0.281,0,0.551,0.108,0.75,0.307l4.365,4.363c0.094-0.236,0.204-0.475,0.331-0.712
	c0.284-0.533,0.686-1.061,1.195-1.569c1.394-1.394,2.875-2.101,4.401-2.101c0.196,0,0.395,0.012,0.591,0.036
	c0.439,0.054,0.876,0.157,1.308,0.308c-0.049-0.28-0.083-0.56-0.1-0.84c-0.068-1.1,0.123-2.198,0.567-3.263
	c0.432-1.034,1.123-2.03,2.054-2.961c0.838-0.839,1.734-1.478,2.662-1.902c0.831-0.379,1.705-0.574,2.599-0.582l-0.293-0.293
	c-0.414-0.414-0.414-1.085,0-1.499l3.097-3.097c0.206-0.206,0.478-0.311,0.75-0.311c0.077,0,0.155,0.008,0.23,0.025
	c0.109-0.423,0.254-0.825,0.435-1.198c0.281-0.58,0.648-1.098,1.091-1.54c0.504-0.504,0.872-0.823,1.193-1.034
	c0.313-0.206,0.56-0.347,0.777-0.446l0.269-0.124c0.142-0.066,0.294-0.098,0.444-0.098c0.162,0,0.32,0.037,0.465,0.107
	c0.095-0.408,0.226-0.813,0.393-1.213c0.432-1.033,1.122-2.029,2.054-2.96c0.839-0.839,1.735-1.479,2.662-1.902
	c0.849-0.386,1.741-0.582,2.652-0.582c0.156,0,0.312,0.006,0.469,0.017c1.089,0.08,2.185,0.43,3.258,1.042
	c1.085,0.62,2.171,1.469,3.226,2.524l0.906,0.906c0.414,0.414,0.414,1.085,0,1.499l-0.712,0.712
	c0.101,0.016,0.202,0.048,0.299,0.096l3.205,1.577c0.463,0.228,0.695,0.755,0.549,1.25l-0.094,0.321
	c-0.152,0.525-0.449,1.197-0.934,2.113c-0.493,0.93-1.274,1.933-2.321,2.982c-1.894,1.894-3.943,2.854-6.089,2.854
	c-0.001,0,0,0-0.001,0c-0.121,0-0.243-0.003-0.365-0.009c-2.22-0.113-4.334-1.16-6.284-3.11c-0.669-0.669-1.237-1.371-1.695-2.095
	c-0.024,0.023-0.048,0.047-0.072,0.071c-0.202,0.202-0.367,0.44-0.489,0.706c-0.094,0.204-0.133,0.461-0.114,0.765
	c0.02,0.31,0.156,0.713,0.404,1.195c0.244,0.472,0.685,1.024,1.346,1.685l4.613,4.613c0.414,0.414,0.414,1.085,0,1.499l-3.389,3.389
	c-0.199,0.199-0.468,0.311-0.75,0.311c-0.104,0-0.206-0.015-0.304-0.045c-0.163,0.383-0.379,0.828-0.657,1.354
	c-0.493,0.931-1.274,1.934-2.321,2.982c-1.894,1.894-3.942,2.854-6.089,2.854c-0.042,0-0.085,0-0.127-0.001l0.647,0.647
	c0.199,0.199,0.311,0.468,0.311,0.75c0,0.281-0.112,0.551-0.311,0.75l-3.389,3.389c-0.207,0.207-0.478,0.311-0.75,0.311
	c-0.271,0-0.543-0.104-0.75-0.311l-6.625-6.625c-0.531-0.531-0.736-0.59-0.758-0.594c-0.186,0.018-0.326,0.083-0.492,0.248
	c-0.234,0.234-0.379,0.455-0.419,0.64c-0.045,0.206-0.031,0.399,0.045,0.626c0.119,0.358,0.296,0.697,0.529,1.011
	c0.356,0.482,0.701,0.888,1.054,1.24l5.06,5.061c0.414,0.414,0.414,1.197,0,1.611C42.497,71.77,42.22,72,41.939,72H35.176z
	 M49.454,56.229c0.383-0.148,0.825-0.47,1.307-0.952c0.55-0.549,1-1.094,1.302-1.574c0.048-0.077,0.094-0.15,0.137-0.219
	L49.454,56.229z M46.376,51.226c-0.145,0.074-0.338,0.213-0.566,0.442c-0.223,0.223-0.36,0.412-0.444,0.568L46.376,51.226z
	 M65.619,40.065c0.382-0.148,0.824-0.47,1.307-0.952c0.55-0.55,1-1.094,1.302-1.574c0.048-0.077,0.094-0.15,0.137-0.22
	L65.619,40.065z M62.541,35.062c-0.145,0.074-0.338,0.213-0.566,0.442c-0.223,0.223-0.36,0.412-0.444,0.568L62.541,35.062z"/>
<path opacity="0.08" d="M70.047,36.481l-0.181,0.339c-0.156,0.288-0.397,0.701-0.745,1.254c-0.328,0.521-0.809,1.119-1.45,1.759
	c-0.881,0.881-1.702,1.349-2.477,1.355c-0.654,0.005-1.374-0.293-1.755-0.476l6.74-6.74l-0.906-0.906
	c-1.036-1.036-2.058-1.815-3.001-2.353c-0.964-0.549-1.922-0.841-2.811-0.906c-0.896-0.066-1.773,0.093-2.604,0.472
	c-0.813,0.371-1.604,0.939-2.353,1.687c-0.833,0.833-1.447,1.714-1.825,2.619c-0.381,0.914-0.545,1.853-0.487,2.79
	c0.014,0.223,0.041,0.447,0.079,0.67l-1.428-1.703l-0.276,0.127c-0.171,0.078-0.377,0.198-0.632,0.366
	c-0.262,0.172-0.596,0.467-1.026,0.898c-0.368,0.368-0.663,0.793-0.886,1.252c-0.218,0.451-0.362,0.926-0.449,1.391
	c-0.085,0.453-0.102,0.912-0.089,1.325l-1.082-0.945l-3.097,3.097l3.228,3.228c-0.131-0.081-0.266-0.167-0.393-0.24
	c-0.964-0.549-1.957-0.806-2.846-0.871c-0.896-0.066-1.773,0.093-2.604,0.472c-0.813,0.371-1.604,0.939-2.353,1.687
	c-0.833,0.833-1.447,1.714-1.825,2.619c-0.381,0.914-0.545,1.853-0.487,2.79c0.057,0.932,0.325,1.868,0.796,2.781
	c0.112,0.218,0.237,0.434,0.371,0.648c-1.165-1.038-2.366-1.633-3.562-1.781c-1.39-0.17-2.781,0.43-4.113,1.762
	c-0.433,0.433-0.775,0.879-1.009,1.318c-0.233,0.436-0.407,0.885-0.503,1.32c-0.077,0.352-0.006,0.584-0.126,1.029l-5.752-5.752
	l-3.388,3.388l12.431,12.431h6.763l0.007-0.007l-5.06-5.06c-0.445-0.445-0.826-0.912-1.158-1.361
	c-0.32-0.433-0.54-0.881-0.681-1.305c-0.134-0.402-0.162-0.787-0.075-1.187c0.084-0.389,0.315-0.775,0.705-1.165
	c0.353-0.353,0.735-0.521,1.21-0.555c0.446-0.032,0.937,0.298,1.539,0.9l6.625,6.625l3.388-3.388l-3.615-3.615
	c1.143,0.703,2.325,1.091,3.534,1.152c1.965,0.101,3.866-0.753,5.65-2.536c0.972-0.972,1.691-1.89,2.135-2.728
	c0.444-0.838,0.723-1.464,0.854-1.915l0.094-0.321l-3.205-1.577l-0.181,0.339c-0.156,0.288-0.397,0.701-0.745,1.254
	c-0.328,0.521-0.809,1.119-1.45,1.759c-0.881,0.881-1.702,1.349-2.477,1.355c-0.654,0.005-1.374-0.293-1.755-0.476l6.527-6.527
	l4.235,4.236l3.388-3.388l-4.613-4.613c-0.699-0.699-1.227-1.345-1.538-1.949c-0.304-0.591-0.489-1.124-0.52-1.616
	c-0.029-0.48,0.041-0.908,0.208-1.272c0.176-0.382,0.412-0.723,0.702-1.013c0.291-0.291,0.572-0.528,0.834-0.702
	c0.151-0.1,0.257-0.168,0.334-0.215c0.052,0.114,0.098,0.228,0.156,0.341c0.464,0.899,1.117,1.774,1.943,2.6
	c1.759,1.759,3.639,2.701,5.589,2.8c1.965,0.101,3.866-0.753,5.65-2.536c0.972-0.972,1.691-1.89,2.135-2.728
	c0.444-0.838,0.723-1.464,0.854-1.915l0.094-0.321L70.047,36.481z M44.73,54.339c-0.476-0.653-0.538-1.063-0.557-1.596
	c-0.023-0.635,0.269-1.239,0.884-1.854c0.598-0.598,1.158-0.873,1.671-0.814c0.469,0.054,0.914,0.222,1.548,0.717L44.73,54.339z
	 M60.337,36.579c-0.023-0.635,0.269-1.239,0.884-1.854c0.598-0.598,1.158-0.873,1.671-0.814c0.469,0.054,0.914,0.222,1.548,0.717
	l-3.546,3.546C60.418,37.521,60.357,37.112,60.337,36.579z"/>
<linearGradient id="SVGID_3_" gradientUnits="userSpaceOnUse" x1="47.9967" y1="68.567" x2="47.9967" y2="27.6734">
	<stop  offset="0" style="stop-color:#D0CBC5"/>
	<stop  offset="0.9693" style="stop-color:#FFFFFF"/>
	<stop  offset="1" style="stop-color:#FFFFFF"/>
</linearGradient>
<path fill="url(#SVGID_3_)" d="M70.047,34.361L69.866,34.7c-0.156,0.288-0.397,0.701-0.745,1.254
	c-0.328,0.521-0.809,1.119-1.45,1.759c-0.881,0.881-1.702,1.349-2.477,1.355c-0.654,0.005-1.374-0.293-1.755-0.476l6.74-6.74
	l-0.906-0.906c-1.036-1.036-2.058-1.815-3.001-2.353c-0.964-0.549-1.922-0.841-2.811-0.906c-0.896-0.066-1.773,0.093-2.604,0.472
	c-0.813,0.371-1.604,0.939-2.353,1.687c-0.833,0.833-1.447,1.714-1.825,2.619c-0.381,0.914-0.545,1.853-0.487,2.79
	c0.014,0.223,0.041,0.447,0.079,0.67l-1.428-1.703l-0.276,0.127c-0.171,0.078-0.377,0.198-0.632,0.366
	c-0.262,0.172-0.596,0.467-1.026,0.898c-0.368,0.368-0.663,0.793-0.886,1.252c-0.218,0.451-0.362,0.926-0.449,1.391
	c-0.085,0.453-0.102,0.912-0.089,1.325l-1.082-0.945l-3.097,3.097l3.228,3.228c-0.131-0.081-0.266-0.167-0.393-0.24
	c-0.964-0.549-1.957-0.806-2.846-0.871c-0.896-0.066-1.773,0.093-2.604,0.472c-0.813,0.371-1.604,0.939-2.353,1.687
	c-0.833,0.833-1.447,1.714-1.825,2.619c-0.381,0.914-0.545,1.853-0.487,2.79c0.057,0.932,0.325,1.868,0.796,2.781
	c0.112,0.218,0.237,0.434,0.371,0.648c-1.165-1.038-2.366-1.633-3.562-1.781c-1.39-0.17-2.781,0.43-4.113,1.762
	c-0.433,0.433-0.775,0.879-1.009,1.318c-0.233,0.436-0.407,0.885-0.503,1.32c-0.077,0.352-0.006,0.584-0.126,1.029l-5.752-5.752
	l-3.388,3.388l12.431,12.431h6.763l0.007-0.007l-5.06-5.06c-0.445-0.445-0.826-0.912-1.158-1.361
	c-0.32-0.433-0.54-0.881-0.681-1.305c-0.134-0.402-0.162-0.787-0.075-1.187c0.084-0.389,0.315-0.775,0.705-1.165
	c0.353-0.353,0.735-0.521,1.21-0.555c0.446-0.032,0.937,0.298,1.539,0.9l6.625,6.625l3.388-3.388l-3.615-3.615
	c1.143,0.703,2.325,1.091,3.534,1.152c1.965,0.101,3.866-0.753,5.65-2.536c0.972-0.972,1.691-1.89,2.135-2.728
	c0.444-0.838,0.723-1.464,0.854-1.915l0.094-0.321l-3.205-1.577l-0.181,0.339c-0.156,0.288-0.397,0.701-0.745,1.254
	c-0.328,0.521-0.809,1.119-1.45,1.759c-0.881,0.881-1.702,1.349-2.477,1.355c-0.654,0.005-1.374-0.293-1.755-0.476l6.527-6.527
	l4.235,4.236l3.388-3.388l-4.613-4.613c-0.699-0.699-1.227-1.345-1.538-1.949c-0.304-0.591-0.489-1.124-0.52-1.616
	c-0.029-0.48,0.041-0.908,0.208-1.272c0.176-0.382,0.412-0.723,0.702-1.013c0.291-0.291,0.572-0.528,0.834-0.702
	c0.151-0.1,0.257-0.168,0.334-0.215c0.052,0.114,0.098,0.228,0.156,0.341c0.464,0.899,1.117,1.774,1.943,2.6
	c1.759,1.759,3.639,2.701,5.589,2.8c1.965,0.101,3.866-0.753,5.65-2.536c0.972-0.972,1.691-1.89,2.135-2.728
	c0.444-0.838,0.723-1.464,0.854-1.915l0.094-0.321L70.047,34.361z M44.73,52.219c-0.476-0.653-0.538-1.063-0.557-1.596
	c-0.023-0.635,0.269-1.239,0.884-1.854c0.598-0.598,1.158-0.873,1.671-0.814c0.469,0.054,0.914,0.222,1.548,0.717L44.73,52.219z
	 M60.337,34.458c-0.023-0.635,0.269-1.239,0.884-1.854c0.598-0.598,1.158-0.873,1.671-0.814c0.469,0.054,0.914,0.222,1.548,0.717
	l-3.546,3.546C60.418,35.401,60.357,34.992,60.337,34.458z"/>
<g opacity="0.1">
	<path fill="#FFFFFF" d="M56.202,35.339l0.072,0.086c-0.038-0.223-0.065-0.447-0.079-0.67c-0.004-0.062,0.001-0.123-0.001-0.185
		c-0.014,0.238-0.014,0.477,0.001,0.715C56.197,35.303,56.201,35.321,56.202,35.339z"/>
	<path fill="#FFFFFF" d="M46.731,47.454c-0.513-0.059-1.074,0.216-1.671,0.814c-0.615,0.615-0.907,1.218-0.884,1.854
		c0.003,0.083,0.008,0.162,0.014,0.24c0.062-0.53,0.349-1.043,0.87-1.563c0.598-0.598,1.158-0.873,1.671-0.814
		c0.389,0.045,0.763,0.171,1.241,0.494l0.307-0.307C47.646,47.676,47.2,47.509,46.731,47.454z"/>
	<path fill="#FFFFFF" d="M50.146,44.222c0.128,0.073,0.262,0.16,0.393,0.24l-2.963-2.963l-0.265,0.265l2.094,2.094
		C49.652,43.962,49.9,44.082,50.146,44.222z"/>
	<path fill="#FFFFFF" d="M62.896,31.29c-0.513-0.059-1.074,0.216-1.671,0.814c-0.615,0.615-0.907,1.218-0.884,1.854
		c0.003,0.083,0.008,0.162,0.014,0.24c0.062-0.53,0.349-1.043,0.87-1.563c0.598-0.598,1.158-0.873,1.671-0.814
		c0.389,0.045,0.763,0.171,1.241,0.494l0.307-0.307C63.81,31.511,63.365,31.344,62.896,31.29z"/>
	<path fill="#FFFFFF" d="M63.811,38.253l6.372-6.372l-0.265-0.265l-6.475,6.475C63.544,38.14,63.67,38.196,63.811,38.253z"/>
	<path fill="#FFFFFF" d="M45.052,64.953l-6.625-6.625c-0.602-0.602-1.093-0.932-1.539-0.9c-0.475,0.034-0.857,0.202-1.21,0.555
		c-0.39,0.39-0.621,0.775-0.705,1.165c-0.053,0.243-0.058,0.481-0.028,0.721c0.008-0.063,0.014-0.127,0.028-0.191
		c0.084-0.389,0.315-0.775,0.705-1.165c0.353-0.353,0.735-0.521,1.21-0.555c0.446-0.032,0.937,0.298,1.539,0.9l6.625,6.625
		l3.388-3.388l-0.265-0.265L45.052,64.953z"/>
	<path fill="#FFFFFF" d="M72.308,37.673c-0.444,0.838-1.163,1.756-2.135,2.728c-1.783,1.783-3.684,2.636-5.65,2.536
		c-1.95-0.099-3.83-1.042-5.589-2.8c-0.826-0.826-1.479-1.7-1.943-2.6c-0.058-0.113-0.104-0.227-0.156-0.341
		c-0.077,0.047-0.183,0.114-0.334,0.215c-0.262,0.175-0.542,0.411-0.834,0.702c-0.29,0.29-0.527,0.631-0.702,1.013
		c-0.168,0.364-0.238,0.792-0.208,1.272c0.001,0.02,0.007,0.042,0.009,0.063c0.025-0.293,0.089-0.564,0.2-0.805
		c0.176-0.382,0.412-0.723,0.702-1.013c0.291-0.291,0.572-0.528,0.834-0.702c0.151-0.1,0.257-0.168,0.334-0.215
		c0.052,0.114,0.098,0.228,0.156,0.341c0.464,0.899,1.117,1.774,1.943,2.6c1.759,1.759,3.639,2.701,5.589,2.8
		c1.965,0.101,3.866-0.753,5.65-2.536c0.972-0.972,1.691-1.89,2.135-2.728c0.444-0.838,0.723-1.464,0.854-1.915l0.094-0.321
		l-0.141-0.07C72.971,36.335,72.71,36.913,72.308,37.673z"/>
	<path fill="#FFFFFF" d="M58.041,51.964l-4.235-4.236l-6.527,6.527c0.101,0.049,0.227,0.105,0.368,0.162l6.159-6.159l4.235,4.236
		l3.388-3.388l-0.265-0.265L58.041,51.964z"/>
	<path fill="#FFFFFF" d="M40.689,53.928c0.17,0.132,0.34,0.271,0.51,0.421c-0.134-0.214-0.259-0.43-0.371-0.648
		c-0.471-0.913-0.739-1.849-0.796-2.781c-0.004-0.062,0.001-0.123-0.001-0.185c-0.014,0.238-0.014,0.477,0.001,0.715
		C40.082,52.28,40.309,53.111,40.689,53.928z"/>
	<path fill="#FFFFFF" d="M56.143,53.837c-0.444,0.838-1.163,1.756-2.135,2.728c-1.783,1.783-3.684,2.636-5.65,2.536
		c-1.209-0.062-2.391-0.449-3.534-1.152l1.1,1.1c0.796,0.342,1.609,0.54,2.434,0.582c1.965,0.101,3.866-0.753,5.65-2.536
		c0.972-0.972,1.691-1.89,2.135-2.728c0.444-0.838,0.723-1.465,0.854-1.915l0.094-0.321l-0.141-0.07
		C56.806,52.5,56.545,53.078,56.143,53.837z"/>
	<polygon fill="#FFFFFF" points="35.176,68 23.01,55.867 22.745,55.85 35.176,68 41.939,68 41.946,68.258 41.422,68 	"/>
</g>
<g>
	<path opacity="0.02" fill="#06003F" d="M62.896,29.699c-0.513-0.059-1.074,0.216-1.671,0.814c-0.615,0.615-0.907,1.218-0.884,1.854
		c0.014,0.385,0.052,0.706,0.25,1.099c0.147-0.278,0.356-0.554,0.634-0.833c0.598-0.598,1.158-0.873,1.671-0.814
		c0.042,0.005,0.084,0.012,0.126,0.019l1.422-1.422C63.81,29.921,63.365,29.754,62.896,29.699z"/>
	<path opacity="0.02" fill="#06003F" d="M65.092,36.972l5.091-5.091l-0.906-0.906c-0.053-0.053-0.106-0.098-0.159-0.15l-5.675,5.675
		C63.804,36.674,64.468,36.947,65.092,36.972z"/>
	<path opacity="0.02" fill="#06003F" d="M48.371,40.704l-1.059,1.059c0.885,0.066,1.874,0.323,2.834,0.869
		c0.128,0.073,0.262,0.16,0.393,0.24L48.371,40.704z"/>
	<path opacity="0.02" fill="#06003F" d="M46.731,45.864c-0.513-0.059-1.074,0.216-1.671,0.814c-0.615,0.615-0.907,1.218-0.884,1.854
		c0.014,0.385,0.052,0.706,0.25,1.099c0.147-0.278,0.356-0.554,0.634-0.833c0.598-0.598,1.158-0.873,1.671-0.814
		c0.042,0.005,0.084,0.012,0.126,0.019l1.422-1.422C47.646,46.086,47.2,45.918,46.731,45.864z"/>
	<path opacity="0.02" fill="#06003F" d="M40.086,51.914c0.373,0.239,0.745,0.517,1.112,0.845c-0.134-0.214-0.259-0.43-0.371-0.648
		c-0.353-0.684-0.592-1.381-0.713-2.08c-0.084,0.471-0.112,0.945-0.083,1.419C40.041,51.605,40.065,51.759,40.086,51.914z"/>
	<path opacity="0.02" fill="#06003F" d="M58.041,50.374l-4.235-4.236l-6.527,6.527c0.361,0.173,1.025,0.446,1.649,0.471l4.878-4.878
		l0.268,0.268l3.018,1.485l-0.094,0.321c-0.065,0.225-0.168,0.493-0.309,0.81l1.352,1.352l3.388-3.388l-1.06-1.06L58.041,50.374z"/>
	<path opacity="0.02" fill="#06003F" d="M72.308,36.082c-0.444,0.838-1.163,1.756-2.135,2.728c-1.783,1.783-3.684,2.636-5.65,2.536
		c-1.95-0.099-3.83-1.042-5.589-2.8c-0.826-0.826-1.479-1.7-1.943-2.6c-0.058-0.113-0.104-0.227-0.156-0.341
		c-0.077,0.047-0.183,0.114-0.334,0.215c-0.262,0.175-0.542,0.411-0.834,0.702c-0.29,0.29-0.527,0.631-0.702,1.013
		c-0.168,0.364-0.238,0.792-0.208,1.272c0.017,0.277,0.088,0.57,0.198,0.877c0.004-0.009,0.007-0.019,0.011-0.029
		c0.176-0.382,0.412-0.723,0.702-1.013c0.291-0.291,0.572-0.528,0.834-0.702c0.151-0.1,0.257-0.168,0.334-0.215
		c0.052,0.114,0.098,0.228,0.156,0.341c0.464,0.899,1.117,1.774,1.943,2.6c1.759,1.759,3.639,2.701,5.589,2.8
		c1.965,0.101,3.866-0.753,5.65-2.536c0.972-0.972,1.691-1.89,2.135-2.728c0.444-0.838,0.723-1.464,0.854-1.915l0.094-0.321
		l-0.71-0.349C72.471,35.767,72.395,35.917,72.308,36.082z"/>
	<polygon opacity="0.02" fill="#06003F" points="35.176,67 23.805,55.367 22.745,55.998 35.176,68 41.939,68 41.946,68.553 
		39.832,67 	"/>
	<path opacity="0.02" fill="#06003F" d="M56.143,52.247c-0.444,0.838-1.163,1.756-2.135,2.728c-1.783,1.783-3.684,2.636-5.65,2.536
		c-1.209-0.062-2.391-0.449-3.534-1.152l3.248,3.248c0.095,0.009,0.19,0.019,0.286,0.024c1.965,0.101,3.866-0.753,5.65-2.536
		c0.972-0.972,1.691-1.89,2.135-2.728c0.444-0.838,0.723-1.465,0.854-1.915l0.094-0.321l-0.71-0.349
		C56.307,51.931,56.231,52.082,56.143,52.247z"/>
	<path opacity="0.02" fill="#06003F" d="M45.052,63.363l-6.625-6.625c-0.602-0.602-1.093-0.932-1.539-0.9
		c-0.475,0.034-0.857,0.202-1.21,0.555c-0.39,0.39-0.621,0.775-0.705,1.165c-0.087,0.4-0.059,0.784,0.075,1.187
		c0.042,0.125,0.092,0.252,0.148,0.381c0.119-0.203,0.277-0.407,0.482-0.612c0.353-0.353,0.735-0.521,1.21-0.555
		c0.446-0.032,0.937,0.298,1.539,0.9l6.625,6.625l3.388-3.388l-1.06-1.06L45.052,63.363z"/>
</g>
<g opacity="0.06">
	<path fill="#06003F" d="M46.92,46.924c-0.513-0.059-1.074,0.216-1.671,0.814c-0.615,0.615-0.907,1.218-0.884,1.854
		c0.007,0.191,0.02,0.366,0.055,0.542c0.109-0.45,0.383-0.89,0.829-1.336c0.598-0.598,1.158-0.873,1.671-0.814
		c0.296,0.034,0.582,0.114,0.913,0.292l0.635-0.635C47.834,47.146,47.388,46.978,46.92,46.924z"/>
	<path fill="#06003F" d="M50.334,43.692c0.128,0.073,0.262,0.16,0.393,0.24l-2.698-2.698l-0.53,0.53l1.289,1.289
		C49.298,43.194,49.82,43.399,50.334,43.692z"/>
	<path fill="#06003F" d="M40.574,53.174c0.272,0.192,0.543,0.406,0.812,0.645c-0.134-0.214-0.259-0.43-0.371-0.648
		c-0.443-0.858-0.699-1.736-0.776-2.613c-0.026,0.297-0.038,0.594-0.02,0.892C40.255,52.026,40.38,52.602,40.574,53.174z"/>
	<path fill="#06003F" d="M64.388,37.863l5.982-5.982l-0.53-0.53l-6.21,6.21C63.818,37.651,64.087,37.768,64.388,37.863z"/>
	<path fill="#06003F" d="M63.084,30.759c-0.513-0.059-1.074,0.216-1.671,0.814c-0.615,0.615-0.907,1.218-0.884,1.854
		c0.007,0.191,0.02,0.366,0.055,0.542c0.109-0.45,0.383-0.89,0.829-1.336c0.598-0.598,1.158-0.873,1.671-0.814
		c0.296,0.034,0.582,0.114,0.913,0.292l0.635-0.635C63.999,30.981,63.553,30.814,63.084,30.759z"/>
	<path fill="#06003F" d="M56.463,34.895c-0.028-0.167-0.044-0.334-0.059-0.501c-0.012,0.135-0.018,0.27-0.021,0.406L56.463,34.895z"
		/>
	<path fill="#06003F" d="M58.229,51.434l-4.235-4.236l-6.527,6.527c0.187,0.09,0.456,0.207,0.758,0.303l5.77-5.77l2.354,2.354
		l0.932,0.458l-0.094,0.321c-0.004,0.013-0.011,0.03-0.015,0.043l1.058,1.058l3.388-3.388l-0.53-0.53L58.229,51.434z"/>
	<path fill="#06003F" d="M72.496,37.143c-0.444,0.838-1.163,1.756-2.135,2.728c-1.783,1.783-3.684,2.636-5.65,2.536
		c-1.95-0.099-3.83-1.042-5.589-2.8c-0.826-0.826-1.479-1.7-1.943-2.6c-0.058-0.113-0.104-0.227-0.156-0.341
		c-0.077,0.047-0.183,0.114-0.334,0.215c-0.262,0.175-0.542,0.411-0.834,0.702c-0.29,0.29-0.527,0.631-0.702,1.013
		c-0.168,0.364-0.238,0.792-0.208,1.272c0.007,0.105,0.024,0.213,0.044,0.321c0.036-0.19,0.089-0.369,0.165-0.534
		c0.176-0.382,0.412-0.723,0.702-1.013c0.291-0.291,0.572-0.528,0.834-0.702c0.151-0.1,0.257-0.168,0.334-0.215
		c0.052,0.114,0.098,0.228,0.156,0.341c0.464,0.899,1.117,1.774,1.943,2.6c1.759,1.759,3.639,2.701,5.589,2.8
		c1.965,0.101,3.866-0.753,5.65-2.536c0.972-0.972,1.691-1.89,2.135-2.728c0.444-0.838,0.723-1.464,0.854-1.915l0.094-0.321
		l-0.31-0.152C72.981,36.182,72.774,36.616,72.496,37.143z"/>
	<polygon fill="#06003F" points="35.364,68 23.463,55.867 22.933,55.983 35.364,68 42.127,68 42.134,68.523 41.081,68 	"/>
	<path fill="#06003F" d="M45.24,64.423l-6.625-6.625c-0.602-0.602-1.093-0.932-1.539-0.9c-0.475,0.034-0.857,0.202-1.21,0.555
		c-0.39,0.39-0.621,0.775-0.705,1.165c-0.073,0.334-0.061,0.658,0.022,0.99c0.096-0.365,0.317-0.728,0.683-1.094
		c0.353-0.353,0.735-0.521,1.21-0.555c0.446-0.032,0.937,0.298,1.539,0.9l6.625,6.625l3.388-3.388l-0.53-0.53L45.24,64.423z"/>
	<path fill="#06003F" d="M56.331,53.307c-0.444,0.838-1.163,1.756-2.135,2.728c-1.783,1.783-3.684,2.636-5.65,2.536
		c-1.209-0.062-2.391-0.449-3.534-1.152l1.932,1.932c0.528,0.156,1.062,0.253,1.602,0.28c1.965,0.101,3.866-0.753,5.65-2.536
		c0.972-0.972,1.691-1.89,2.135-2.728c0.444-0.838,0.723-1.465,0.854-1.915l0.094-0.321l-0.31-0.152
		C56.816,52.347,56.61,52.781,56.331,53.307z"/>
</g>
<g opacity="0.3">
	<path fill="#FFFFFF" d="M55.278,42.544c-0.24-0.465-0.402-0.893-0.476-1.295c-0.043,0.23-0.06,0.476-0.044,0.739
		c0.031,0.492,0.216,1.025,0.52,1.616c0.312,0.604,0.839,1.25,1.538,1.949l4.083,4.083l0.53-0.53l-4.613-4.613
		C56.117,43.794,55.59,43.148,55.278,42.544z"/>
	<path fill="#FFFFFF" d="M56.216,35.454c0.056-0.639,0.207-1.275,0.467-1.899c0.378-0.905,0.992-1.787,1.825-2.619
		c0.748-0.748,1.54-1.316,2.353-1.687c0.832-0.379,1.708-0.538,2.604-0.472c0.888,0.065,1.847,0.357,2.811,0.906
		c0.943,0.538,1.965,1.317,3.001,2.353l0.376,0.376l0.53-0.53l-0.906-0.906c-1.036-1.036-2.058-1.815-3.001-2.353
		c-0.964-0.549-1.922-0.841-2.811-0.906c-0.896-0.066-1.773,0.093-2.604,0.472c-0.813,0.371-1.604,0.939-2.353,1.687
		c-0.833,0.833-1.447,1.714-1.825,2.619c-0.381,0.914-0.545,1.853-0.487,2.79C56.2,35.342,56.211,35.398,56.216,35.454z"/>
	<path fill="#FFFFFF" d="M70.051,34.39l-0.181,0.339c-0.156,0.288-0.397,0.701-0.745,1.254c-0.328,0.521-0.809,1.119-1.45,1.759
		c-0.881,0.881-1.702,1.349-2.477,1.355c-0.333,0.003-0.684-0.074-0.998-0.173l-0.758,0.758c0.382,0.183,1.102,0.481,1.755,0.476
		c0.775-0.006,1.596-0.474,2.477-1.355c0.641-0.641,1.122-1.238,1.45-1.759c0.347-0.553,0.588-0.966,0.745-1.254l0.181-0.339
		l2.895,1.424c0.091-0.218,0.167-0.419,0.216-0.587l0.094-0.321L70.051,34.39z"/>
	<path fill="#FFFFFF" d="M60.898,37.143l3.546-3.546c-0.234-0.183-0.442-0.321-0.635-0.425l-2.911,2.911
		c-0.306-0.419-0.439-0.738-0.502-1.054c-0.041,0.171-0.061,0.343-0.055,0.518C60.36,36.081,60.422,36.49,60.898,37.143z"/>
	<path fill="#FFFFFF" d="M47.644,49.337l-2.911,2.911c-0.306-0.419-0.439-0.738-0.502-1.054c-0.042,0.171-0.061,0.343-0.055,0.518
		c0.019,0.533,0.081,0.943,0.557,1.596l3.546-3.546C48.046,49.579,47.838,49.441,47.644,49.337z"/>
	<path fill="#FFFFFF" d="M50.408,39.727l1.082,0.945c-0.013-0.413,0.004-0.873,0.089-1.325c0.087-0.465,0.231-0.941,0.449-1.391
		c0.223-0.459,0.517-0.884,0.886-1.252c0.431-0.431,0.765-0.726,1.026-0.898c0.255-0.168,0.461-0.288,0.632-0.366l0.276-0.127
		l1.428,1.703c-0.038-0.223-0.065-0.447-0.079-0.67c-0.01-0.162-0.005-0.324-0.001-0.486l-1.348-1.607l-0.276,0.127
		c-0.171,0.078-0.377,0.198-0.632,0.366c-0.262,0.172-0.596,0.467-1.026,0.898c-0.368,0.368-0.663,0.793-0.886,1.252
		c-0.218,0.451-0.362,0.926-0.449,1.391c-0.085,0.452-0.102,0.912-0.089,1.325l-1.082-0.945l-3.097,3.097l0.53,0.53L50.408,39.727z"
		/>
	<path fill="#FFFFFF" d="M44.825,59.539l3.085,3.085l0.53-0.53l-1.683-1.683C46.103,60.217,45.457,59.929,44.825,59.539z"/>
	<path fill="#FFFFFF" d="M56.159,51.673l-2.274-1.118l-0.181,0.339c-0.156,0.288-0.397,0.701-0.745,1.254
		c-0.328,0.521-0.809,1.119-1.45,1.759c-0.881,0.881-1.702,1.349-2.477,1.355c-0.333,0.003-0.684-0.074-0.998-0.173l-0.758,0.758
		c0.382,0.183,1.102,0.481,1.755,0.476c0.775-0.006,1.596-0.474,2.477-1.355c0.641-0.641,1.122-1.238,1.45-1.759
		c0.347-0.553,0.588-0.966,0.745-1.254l0.181-0.339l2.895,1.424c0.084-0.201,0.153-0.385,0.201-0.543L56.159,51.673z"/>
	<path fill="#FFFFFF" d="M35.728,62.168c-0.32-0.433-0.54-0.881-0.681-1.305c-0.022-0.066-0.037-0.132-0.053-0.197
		c-0.006,0.023-0.017,0.047-0.022,0.07c-0.087,0.4-0.059,0.784,0.075,1.187c0.141,0.425,0.362,0.873,0.681,1.305
		c0.332,0.449,0.712,0.617,1.158,1.063L40.892,68h1.047l0.007,0.291l-5.06-4.911C36.44,62.935,36.06,62.617,35.728,62.168z"/>
	<path fill="#FFFFFF" d="M40.051,51.619c0.056-0.639,0.207-1.275,0.467-1.899c0.378-0.905,0.992-1.787,1.825-2.619
		c0.748-0.748,1.54-1.316,2.353-1.687c0.832-0.379,1.708-0.538,2.604-0.472c0.888,0.065,1.882,0.322,2.846,0.871
		c0.128,0.073,0.262,0.16,0.393,0.24l-1.94-1.94c-0.446-0.124-0.885-0.201-1.299-0.231c-0.896-0.066-1.773,0.093-2.604,0.472
		c-0.813,0.371-1.604,0.939-2.353,1.687c-0.833,0.833-1.447,1.714-1.825,2.619c-0.381,0.914-0.545,1.853-0.487,2.79
		C40.035,51.506,40.046,51.562,40.051,51.619z"/>
	<path fill="#FFFFFF" d="M26.133,53.837l5.752,5.752c0.119-0.445,0.048-0.678,0.126-1.029c0.096-0.434,0.27-0.883,0.503-1.32
		c0.234-0.439,0.576-0.885,1.009-1.318c1.332-1.332,2.723-1.933,4.113-1.762c1.196,0.148,2.397,0.742,3.562,1.781
		c-0.134-0.214-0.259-0.43-0.371-0.648c-0.18-0.35-0.321-0.703-0.441-1.058c-0.907-0.641-1.83-1.021-2.75-1.135
		c-1.39-0.17-2.781,0.43-4.113,1.762c-0.433,0.433-0.775,0.879-1.009,1.318c-0.233,0.436-0.407,0.885-0.503,1.32
		c-0.077,0.352-0.006,0.584-0.126,1.029l-5.752-5.752l-3.388,3.388l0.53,0.53L26.133,53.837z"/>
</g>
<g>
	<path opacity="0.5" fill="#FFFFFF" d="M47.972,49.009l-3.239,3.239c-0.403-0.552-0.508-0.931-0.543-1.356
		c-0.011,0.096-0.018,0.193-0.014,0.29c0.019,0.533,0.081,0.943,0.557,1.596l3.546-3.546C48.172,49.147,48.071,49.075,47.972,49.009
		z"/>
	<path opacity="0.5" fill="#FFFFFF" d="M56.683,33.025c0.378-0.905,0.992-1.787,1.825-2.619c0.748-0.748,1.54-1.316,2.353-1.687
		c0.832-0.379,1.708-0.538,2.604-0.472c0.888,0.065,1.847,0.357,2.811,0.906c0.943,0.538,1.965,1.317,3.001,2.353l0.641,0.641
		l0.265-0.265l-0.906-0.906c-1.036-1.036-2.058-1.815-3.001-2.353c-0.964-0.549-1.922-0.841-2.811-0.906
		c-0.896-0.066-1.773,0.093-2.604,0.472c-0.813,0.371-1.604,0.939-2.353,1.687c-0.833,0.833-1.447,1.714-1.825,2.619
		c-0.356,0.854-0.515,1.729-0.488,2.605C56.236,34.402,56.399,33.707,56.683,33.025z"/>
	<path opacity="0.5" fill="#FFFFFF" d="M50.408,39.197l1.082,0.945c-0.013-0.413,0.004-0.873,0.089-1.325
		c0.087-0.465,0.231-0.941,0.449-1.391c0.223-0.459,0.517-0.884,0.886-1.252c0.431-0.431,0.765-0.726,1.026-0.898
		c0.255-0.168,0.461-0.288,0.632-0.366l0.276-0.127l1.428,1.703c-0.035-0.205-0.058-0.411-0.072-0.616l-1.356-1.616l-0.276,0.127
		c-0.171,0.078-0.377,0.198-0.632,0.366c-0.262,0.172-0.596,0.467-1.026,0.898c-0.368,0.368-0.663,0.793-0.886,1.252
		c-0.218,0.451-0.362,0.926-0.449,1.391c-0.085,0.452-0.102,0.912-0.089,1.325l-1.082-0.945l-3.097,3.097l0.265,0.265L50.408,39.197
		z"/>
	<path opacity="0.5" fill="#FFFFFF" d="M60.898,36.613l3.546-3.546c-0.108-0.085-0.209-0.156-0.307-0.223l-3.239,3.239
		c-0.403-0.552-0.508-0.931-0.543-1.356c-0.011,0.096-0.018,0.193-0.014,0.291C60.36,35.551,60.422,35.96,60.898,36.613z"/>
	<path opacity="0.5" fill="#FFFFFF" d="M70.051,34.39l-0.181,0.339c-0.156,0.288-0.397,0.701-0.745,1.254
		c-0.328,0.521-0.809,1.119-1.45,1.759c-0.881,0.881-1.702,1.349-2.477,1.355c-0.481,0.004-0.996-0.156-1.387-0.314l-0.368,0.368
		c0.382,0.183,1.102,0.481,1.755,0.476c0.775-0.006,1.596-0.474,2.477-1.355c0.641-0.641,1.122-1.238,1.45-1.759
		c0.347-0.553,0.588-0.966,0.745-1.254l0.181-0.339l3.064,1.507c0.015-0.045,0.035-0.097,0.047-0.139l0.094-0.321L70.051,34.39z"/>
	<path opacity="0.5" fill="#FFFFFF" d="M40.519,49.19c0.378-0.905,0.992-1.787,1.825-2.619c0.748-0.748,1.54-1.316,2.353-1.687
		c0.832-0.379,1.708-0.538,2.604-0.472c0.888,0.065,1.882,0.322,2.846,0.871c0.128,0.073,0.262,0.16,0.393,0.24l-1.134-1.134
		c-0.723-0.303-1.443-0.459-2.105-0.507c-0.896-0.066-1.773,0.093-2.604,0.472c-0.813,0.371-1.604,0.939-2.353,1.687
		c-0.833,0.833-1.447,1.714-1.825,2.619c-0.356,0.854-0.515,1.729-0.488,2.605C40.072,50.567,40.234,49.871,40.519,49.19z"/>
	<path opacity="0.5" fill="#FFFFFF" d="M26.133,53.306l5.752,5.752c0.119-0.445,0.048-0.678,0.126-1.029
		c0.096-0.434,0.27-0.883,0.503-1.32c0.234-0.439,0.576-0.885,1.009-1.318c1.332-1.332,2.723-1.933,4.113-1.762
		c1.196,0.148,2.397,0.742,3.562,1.781c-0.134-0.214-0.259-0.43-0.371-0.648c-0.052-0.101-0.092-0.202-0.139-0.303
		c-1.004-0.777-2.03-1.233-3.053-1.359c-1.39-0.17-2.781,0.43-4.113,1.762c-0.433,0.433-0.775,0.879-1.009,1.318
		c-0.233,0.436-0.407,0.885-0.503,1.32c-0.077,0.352-0.006,0.584-0.126,1.029l-5.752-5.752l-3.388,3.388l0.265,0.265L26.133,53.306z
		"/>
	<path opacity="0.5" fill="#FFFFFF" d="M53.705,50.894c-0.156,0.288-0.397,0.701-0.745,1.254c-0.328,0.521-0.809,1.119-1.45,1.759
		c-0.881,0.881-1.702,1.349-2.477,1.355c-0.481,0.004-0.996-0.156-1.387-0.314l-0.368,0.368c0.382,0.183,1.102,0.481,1.755,0.476
		c0.775-0.006,1.596-0.474,2.477-1.355c0.641-0.641,1.122-1.238,1.45-1.759c0.347-0.553,0.588-0.966,0.745-1.254l0.181-0.339
		l3.064,1.507c0.015-0.045,0.035-0.097,0.047-0.139l0.094-0.321l-3.205-1.577L53.705,50.894z"/>
	<path opacity="0.5" fill="#FFFFFF" d="M55.278,42.544c-0.292-0.566-0.47-1.079-0.512-1.553c-0.013,0.15-0.019,0.305-0.009,0.468
		c0.031,0.492,0.216,1.025,0.52,1.616c0.312,0.604,0.839,1.25,1.538,1.949l4.348,4.348l0.265-0.265l-4.613-4.613
		C56.117,43.794,55.59,43.148,55.278,42.544z"/>
	<path opacity="0.5" fill="#FFFFFF" d="M44.825,59.009l3.35,3.35l0.265-0.265l-2.515-2.515
		C45.555,59.42,45.188,59.232,44.825,59.009z"/>
	<path opacity="0.5" fill="#FFFFFF" d="M35.728,62.168c-0.32-0.433-0.54-0.881-0.681-1.305c-0.053-0.157-0.084-0.312-0.103-0.466
		c-0.042,0.332-0.01,0.658,0.103,0.996c0.141,0.425,0.362,0.873,0.681,1.305c0.332,0.449,0.712,0.617,1.158,1.063L41.422,68h0.516
		l0.007,0.291l-5.06-4.911C36.44,62.935,36.06,62.617,35.728,62.168z"/>
</g>
</svg>
