<svg xmlns="http://www.w3.org/2000/svg" xmlns:xlink="http://www.w3.org/1999/xlink" width="192" height="192" viewBox="0 0 192 192">
  <defs>
    <style>
      .cls-1 {
        fill: none;
      }

      .cls-2 {
        opacity: 0.01;
      }

      .cls-2, .cls-3, .cls-4, .cls-5 {
        isolation: isolate;
      }

      .cls-3 {
        opacity: 0.02;
      }

      .cls-4 {
        opacity: 0.04;
      }

      .cls-5 {
        opacity: 0.06;
      }

      .cls-6 {
        fill: #1a78ff;
      }

      .cls-7 {
        fill: url(#未命名的渐变_5);
      }

      .cls-8 {
        fill: url(#未命名的渐变_2);
      }

      .cls-9 {
        fill: url(#未命名的渐变_71);
      }

      .cls-10 {
        fill: #fafafa;
      }

      .cls-11 {
        fill: #fff;
      }

      .cls-12 {
        fill: url(#未命名的渐变_53);
      }

      .cls-13 {
        fill: url(#未命名的渐变_31);
      }

      .cls-14 {
        opacity: 0.8;
        fill: url(#未命名的渐变_116);
      }

      .cls-15 {
        fill: url(#未命名的渐变_39);
      }
    </style>
    <linearGradient id="未命名的渐变_5" data-name="未命名的渐变 5" x1="166.004" y1="27.998" x2="25.998" y2="168.004" gradientTransform="matrix(1, 0, 0, -1, 0, 194)" gradientUnits="userSpaceOnUse">
      <stop offset="0" stop-opacity="0.1"/>
      <stop offset="0.5" stop-color="gray" stop-opacity="0.05"/>
      <stop offset="1" stop-color="#fff" stop-opacity="0.12"/>
    </linearGradient>
    <linearGradient id="未命名的渐变_2" data-name="未命名的渐变 2" x1="166.012" y1="75.988" x2="25.987" y2="216.012" gradientTransform="matrix(1, 0, 0, -1, 0, 242)" gradientUnits="userSpaceOnUse">
      <stop offset="0" stop-opacity="0.04"/>
      <stop offset="0.5" stop-color="gray" stop-opacity="0"/>
      <stop offset="1" stop-color="#fff" stop-opacity="0.1"/>
    </linearGradient>
    <linearGradient id="未命名的渐变_71" data-name="未命名的渐变 71" x1="161.462" y1="170.535" x2="79.339" y2="88.411" gradientUnits="userSpaceOnUse">
      <stop offset="0" stop-opacity="0.02"/>
      <stop offset="1" stop-opacity="0.1"/>
    </linearGradient>
    <linearGradient id="未命名的渐变_53" data-name="未命名的渐变 53" x1="133.147" y1="92.706" x2="153.488" y2="89.12" gradientUnits="userSpaceOnUse">
      <stop offset="0.35" stop-opacity="0.16"/>
      <stop offset="0.6" stop-opacity="0"/>
    </linearGradient>
    <linearGradient id="未命名的渐变_31" data-name="未命名的渐变 31" x1="122.49" y1="143.145" x2="106.665" y2="122.89" gradientUnits="userSpaceOnUse">
      <stop offset="0.2" stop-opacity="0"/>
      <stop offset="0.5" stop-opacity="0.16"/>
    </linearGradient>
    <linearGradient id="未命名的渐变_116" data-name="未命名的渐变 116" x1="126.918" y1="135.82" x2="64.663" y2="73.565" gradientUnits="userSpaceOnUse">
      <stop offset="0" stop-color="#07f"/>
      <stop offset="1" stop-color="#0069f2"/>
    </linearGradient>
    <linearGradient id="未命名的渐变_39" data-name="未命名的渐变 39" x1="68.104" y1="71.807" x2="68.104" y2="60.095" gradientUnits="userSpaceOnUse">
      <stop offset="0" stop-opacity="0.1"/>
      <stop offset="0.4" stop-opacity="0"/>
    </linearGradient>
  </defs>
  <title>tencent_qcloud</title>
  <g id="图层_2" data-name="图层 2">
    <g id="图层_1-2" data-name="图层 1">
      <rect class="cls-1" width="192" height="192"/>
      <g>
        <path class="cls-2" d="M96,190C27.3,190,3,165.7,3,97S27.3,4,96,4s93,24.3,93,93S164.7,190,96,190Z"/>
        <path class="cls-3" d="M96,189C28.1,189,4,164.9,4,97S28.1,5,96,5s92,24.1,92,92S163.9,189,96,189Z"/>
        <path class="cls-4" d="M96,188C28.8,188,5,164.2,5,97S28.8,6,96,6s91,23.8,91,91S163.2,188,96,188Z"/>
        <path class="cls-5" d="M186,97c0,66.7-23.3,90-90,90S6,163.7,6,97,29.3,7,96,7,186,30.3,186,97Z"/>
      </g>
      <path class="cls-6" d="M186,96c0,66.7-23.3,90-90,90S6,162.7,6,96,29.3,6,96,6,186,29.3,186,96Z"/>
      <path class="cls-7" d="M186,96c0,66.67-23.32,90-90,90S6,162.67,6,96,29.32,6,96,6,186,29.32,186,96Z"/>
      <path class="cls-8" d="M96,6C29.3,6,6,29.3,6,96s23.3,90,90,90,90-23.3,90-90S162.7,6,96,6Zm68.6,158.6C151.2,178,130,184,96,184s-55.2-6-68.6-19.4S8,130,8,96s6-55.2,19.4-68.6S62,8,96,8s55.2,6,68.6,19.4S184,62,184,96,178,151.2,164.6,164.6Z"/>
      <path class="cls-9" d="M184.942,118.275,125.667,59l19.646,29.669,6.212,28.159-21.358,16.255-88.7-6.8,59.666,59.667C156.1,184.9,179.89,166.478,184.942,118.275Z"/>
      <path class="cls-10" d="M120,139H80V128h41a33.763,33.763,0,0,0,17.406-4.494c6.187-3.821,9.194-9.531,9.194-17.456,0-14.368-11.115-19.835-15.894-21.518l3.588-10.186a37.222,37.222,0,0,1,14.841,9.7,31.166,31.166,0,0,1,5.913,9.373A33.633,33.633,0,0,1,158.4,106.05c0,11.646-4.951,20.86-14.319,26.644C135.012,138.295,124.039,139,120,139Z"/>
      <g>
        <path class="cls-11" d="M136.294,76.346a37.222,37.222,0,0,1,14.841,9.7,31.444,31.444,0,0,1,4.405,6.19,31.259,31.259,0,0,0-5.405-8.19,37.222,37.222,0,0,0-14.841-9.7l-3.588,10.186c.449.158.954.35,1.5.579Z"/>
        <path class="cls-11" d="M81,130h41a33.754,33.754,0,0,0,17.406-4.5c6.187-3.82,9.194-9.53,9.194-17.455a22,22,0,0,0-2.784-11.119,22.729,22.729,0,0,1,1.784,9.119c0,7.925-3.007,13.635-9.194,17.455A33.754,33.754,0,0,1,121,128H80v11h1Z"/>
      </g>
      <path class="cls-12" d="M153.324,88.189a31.826,31.826,0,0,0-3.189-4.139,37.222,37.222,0,0,0-14.841-9.7l-3.588,10.186c4.779,1.683,15.894,7.15,15.894,21.518,0,.722-.034,1.42-.084,2.105Z"/>
      <path class="cls-13" d="M90.125,139H120a53.257,53.257,0,0,0,8.831-.809,44.623,44.623,0,0,0,8.091-13.854A34.713,34.713,0,0,1,121,128H100.125Z"/>
      <path class="cls-10" d="M92.4,139H72.45c-9.293,0-18.551-2.767-25.4-7.591a31.373,31.373,0,0,1-9.653-10.692A32.41,32.41,0,0,1,33.6,105.05c0-13.571,5.577-21.5,10.255-25.771A30.876,30.876,0,0,1,59.37,71.8,33.433,33.433,0,0,1,72.587,53.64,40.044,40.044,0,0,1,95.7,46.6a42.514,42.514,0,0,1,16.863,3.459,43.083,43.083,0,0,1,13.973,9.635A47.072,47.072,0,0,1,139.5,92.8a46.691,46.691,0,0,1-4.755,21.065,45.072,45.072,0,0,1-11.879,14.42,50.392,50.392,0,0,1-14.3,8.1A56.109,56.109,0,0,1,92.4,139ZM64.65,81.95c-7.521,0-20.25,4.823-20.25,22.9C44.4,123.162,62.748,128,72.45,128H94.1a34.16,34.16,0,0,0,22.209-8.26C121.962,115.1,128.7,106.618,128.7,92.6c0-19.85-14.495-35.4-33-35.4-11.388,0-20.979,5.746-24.93,14.607a29.449,29.449,0,0,1,11.218,4.969C87.735,81.005,90.9,86.891,90.9,93.35c0,8.529-3.635,13.324-6.685,15.844A19.3,19.3,0,0,1,72,113.45a22.424,22.424,0,0,1-6.858-1.147,4.065,4.065,0,0,1-2.265-5.939l1.308-2.208a3.98,3.98,0,0,1,4.641-2.082A11.318,11.318,0,0,0,72,102.65c3.025,0,8.1-1.208,8.1-9.3C80.1,86.632,71.958,81.95,64.65,81.95Z"/>
      <path class="cls-14" d="M80,128H72.45c-9.7,0-28.05-4.838-28.05-23.15,0-18.077,12.729-22.9,20.25-22.9,7.308,0,15.45,4.682,15.45,11.4,0,8.092-5.075,9.3-8.1,9.3a11.318,11.318,0,0,1-3.174-.576,3.98,3.98,0,0,0-4.641,2.082l-1.308,2.208a4.065,4.065,0,0,0,2.265,5.939A22.424,22.424,0,0,0,72,113.45a19.3,19.3,0,0,0,12.215-4.256c3.05-2.52,6.685-7.315,6.685-15.844,0-6.459-3.165-12.345-8.912-16.574a29.452,29.452,0,0,0-11.217-4.969C74.721,62.946,84.312,57.2,95.7,57.2c18.5,0,33,15.55,33,35.4,0,14.018-6.738,22.5-12.391,27.14A34.16,34.16,0,0,1,94.1,128Zm58.406-4.5a32.833,32.833,0,0,1-15.126,4.424,44.773,44.773,0,0,0,11.465-14.064A46.691,46.691,0,0,0,139.5,92.8c0-1.391-.065-2.767-.173-4.131A21.065,21.065,0,0,1,147.6,106.05C147.6,113.975,144.593,119.685,138.406,123.505Z"/>
      <g>
        <path class="cls-11" d="M80.1,93.35c0,8.092-5.075,9.3-8.1,9.3a11.318,11.318,0,0,1-3.174-.576,3.98,3.98,0,0,0-4.641,2.082l-1.308,2.208a4.043,4.043,0,0,0,.507,4.8,4,4,0,0,1,.493-2.8l1.308-2.208a3.98,3.98,0,0,1,4.641-2.082A11.318,11.318,0,0,0,73,104.65c3.025,0,8.1-1.208,8.1-9.3a8.577,8.577,0,0,0-1.5-4.776A8.209,8.209,0,0,1,80.1,93.35Z"/>
        <path class="cls-11" d="M89.332,85.764a22.055,22.055,0,0,0-7.344-8.988,29.165,29.165,0,0,0-9.444-4.528c-.277.509-.536,1.028-.773,1.559a29.452,29.452,0,0,1,11.217,4.969A22.744,22.744,0,0,1,89.332,85.764Z"/>
        <path class="cls-11" d="M34.6,107.05c0-13.571,5.577-21.5,10.255-25.771A30.876,30.876,0,0,1,60.37,73.8,33.433,33.433,0,0,1,73.587,55.64,40.044,40.044,0,0,1,96.7,48.6a42.514,42.514,0,0,1,16.863,3.459,43.083,43.083,0,0,1,13.973,9.635,44.627,44.627,0,0,1,7.394,10.189,44.762,44.762,0,0,0-8.394-12.189,43.083,43.083,0,0,0-13.973-9.635A42.514,42.514,0,0,0,95.7,46.6a40.044,40.044,0,0,0-23.113,7.04A33.433,33.433,0,0,0,59.37,71.8a30.876,30.876,0,0,0-15.515,7.477C39.177,83.545,33.6,91.479,33.6,105.05a32.41,32.41,0,0,0,3.794,15.667c.018.033.039.065.057.1A32.972,32.972,0,0,1,34.6,107.05Z"/>
        <path class="cls-11" d="M73.45,130H95.1a34.16,34.16,0,0,0,22.209-8.26C122.962,117.1,129.7,108.618,129.7,94.6a37.753,37.753,0,0,0-4.446-17.987A38.052,38.052,0,0,1,128.7,92.6c0,14.018-6.738,22.5-12.391,27.14A34.16,34.16,0,0,1,94.1,128H72.45c-7.425,0-19.907-2.843-25.359-12.382C51.846,126.77,65.528,130,73.45,130Z"/>
      </g>
      <path class="cls-15" d="M70.771,71.807a22.812,22.812,0,0,1,6.068-8.035L65.571,60.1A32.669,32.669,0,0,0,59.37,71.8a30.138,30.138,0,0,1,5.755-.411A50.663,50.663,0,0,1,70.771,71.807Z"/>
    </g>
  </g>
</svg>
