<?xml version="1.0" encoding="UTF-8" standalone="no"?>
<!-- Created with Inkscape (http://www.inkscape.org/) -->

<svg
   xmlns:dc="http://purl.org/dc/elements/1.1/"
   xmlns:cc="http://creativecommons.org/ns#"
   xmlns:rdf="http://www.w3.org/1999/02/22-rdf-syntax-ns#"
   xmlns:svg="http://www.w3.org/2000/svg"
   xmlns="http://www.w3.org/2000/svg"
   xmlns:sodipodi="http://sodipodi.sourceforge.net/DTD/sodipodi-0.dtd"
   xmlns:inkscape="http://www.inkscape.org/namespaces/inkscape"
   version="1.1"
   id="svg2"
   xml:space="preserve"
   width="106.66667"
   height="106.66667"
   viewBox="0 0 106.66667 106.66667"
   sodipodi:docname="shazam.ai.svg"
   inkscape:version="0.92.4 5da689c313, 2019-01-14"><metadata
     id="metadata8"><rdf:RDF><cc:Work
         rdf:about=""><dc:format>image/svg+xml</dc:format><dc:type
           rdf:resource="http://purl.org/dc/dcmitype/StillImage" /><dc:title></dc:title></cc:Work></rdf:RDF></metadata><defs
     id="defs6"><clipPath
       clipPathUnits="userSpaceOnUse"
       id="clipPath18"><path
         d="M 0,80 H 80 V 0 H 0 Z"
         id="path16"
         inkscape:connector-curvature="0" /></clipPath><clipPath
       clipPathUnits="userSpaceOnUse"
       id="clipPath30"><path
         d="M 1,40 C 1,11.108 11.105,1 40,1 v 0 c 28.894,0 39,10.108 39,39 v 0 C 79,68.893 68.894,79 40,79 v 0 C 11.105,79 1,68.893 1,40"
         id="path28"
         inkscape:connector-curvature="0" /></clipPath><clipPath
       clipPathUnits="userSpaceOnUse"
       id="clipPath40"><path
         d="M 22.333,49.667 20.952,29.38 48.938,1.394 C 68.316,3.233 76.839,11.822 78.626,31.28 v 0 L 59.548,50.359 52.612,52.007 39.286,65.333 Z"
         id="path38"
         inkscape:connector-curvature="0" /></clipPath><clipPath
       clipPathUnits="userSpaceOnUse"
       id="clipPath48"><path
         d="M -32768,32767 H 32767 V -32768 H -32768 Z"
         id="path46"
         inkscape:connector-curvature="0" /></clipPath><linearGradient
       x1="0"
       y1="0"
       x2="1"
       y2="0"
       gradientUnits="userSpaceOnUse"
       gradientTransform="matrix(43.991249,-43.991249,-43.991249,-43.991249,26.393173,53.726547)"
       spreadMethod="pad"
       id="linearGradient58"><stop
         style="stop-opacity:0.29999237;stop-color:#ffffff"
         offset="0"
         id="stop50" /><stop
         style="stop-opacity:0.29999237;stop-color:#ffffff"
         offset="0.0000002"
         id="stop52" /><stop
         style="stop-opacity:0;stop-color:#ffffff"
         offset="0.8"
         id="stop54" /><stop
         style="stop-opacity:0;stop-color:#ffffff"
         offset="1"
         id="stop56" /></linearGradient><mask
       maskUnits="userSpaceOnUse"
       x="0"
       y="0"
       width="1"
       height="1"
       id="mask60"><g
         id="g70"><g
           clip-path="url(#clipPath48)"
           id="g68"><g
             id="g66"><g
               id="g64"><path
                 d="M -32768,32767 H 32767 V -32768 H -32768 Z"
                 style="fill:url(#linearGradient58);stroke:none"
                 id="path62"
                 inkscape:connector-curvature="0" /></g></g></g></g></mask><linearGradient
       x1="0"
       y1="0"
       x2="1"
       y2="0"
       gradientUnits="userSpaceOnUse"
       gradientTransform="matrix(43.991249,-43.991249,-43.991249,-43.991249,26.393173,53.726547)"
       spreadMethod="pad"
       id="linearGradient84"><stop
         style="stop-opacity:1;stop-color:#231815"
         offset="0"
         id="stop76" /><stop
         style="stop-opacity:1;stop-color:#231815"
         offset="0.0000002"
         id="stop78" /><stop
         style="stop-opacity:1;stop-color:#231815"
         offset="0.8"
         id="stop80" /><stop
         style="stop-opacity:1;stop-color:#231815"
         offset="1"
         id="stop82" /></linearGradient><clipPath
       clipPathUnits="userSpaceOnUse"
       id="clipPath94"><path
         d="M 0,80 H 80 V 0 H 0 Z"
         id="path92"
         inkscape:connector-curvature="0" /></clipPath><clipPath
       clipPathUnits="userSpaceOnUse"
       id="clipPath110"><path
         d="M 0,80 H 80 V 0 H 0 Z"
         id="path108"
         inkscape:connector-curvature="0" /></clipPath><clipPath
       clipPathUnits="userSpaceOnUse"
       id="clipPath118"><path
         d="M 1.02344,79 H 78.9766 V 1 H 1.02344 Z"
         id="path116"
         inkscape:connector-curvature="0" /></clipPath><clipPath
       clipPathUnits="userSpaceOnUse"
       id="clipPath122"><path
         d="M 1.02344,79 H 78.9766 V 1 H 1.02344 Z"
         id="path120"
         inkscape:connector-curvature="0" /></clipPath><clipPath
       clipPathUnits="userSpaceOnUse"
       id="clipPath126"><path
         d="M 78.977,40 C 78.977,11.107 68.877,1 40,1 11.123,1 1.023,11.107 1.023,40 1.023,68.894 11.123,79 40,79 68.877,79 78.977,68.894 78.977,40"
         id="path124"
         inkscape:connector-curvature="0" /></clipPath><clipPath
       clipPathUnits="userSpaceOnUse"
       id="clipPath130"><path
         d="M -24534,24614 H 8232 V -8152 h -32766 z"
         id="path128"
         inkscape:connector-curvature="0" /></clipPath><clipPath
       clipPathUnits="userSpaceOnUse"
       id="clipPath134"><path
         d="M -24534,24614 H 8232 V -8152 h -32766 z"
         id="path132"
         inkscape:connector-curvature="0" /></clipPath><mask
       maskUnits="userSpaceOnUse"
       x="0"
       y="0"
       width="1"
       height="1"
       id="mask136"><g
         id="g148"><g
           clip-path="url(#clipPath130)"
           id="g146"><g
             id="g144"><g
               id="g138" /><g
               id="g142"><g
                 clip-path="url(#clipPath134)"
                 id="g140" /></g></g></g></g></mask><linearGradient
       x1="0"
       y1="0"
       x2="1"
       y2="0"
       gradientUnits="userSpaceOnUse"
       gradientTransform="matrix(0,-53.61993,-53.61993,0,40,74.818359)"
       spreadMethod="pad"
       id="linearGradient154"><stop
         style="stop-opacity:1;stop-color:#ffffff"
         offset="0"
         id="stop150" /><stop
         style="stop-opacity:1;stop-color:#e4e4e5"
         offset="1"
         id="stop152" /></linearGradient><mask
       maskUnits="userSpaceOnUse"
       x="0"
       y="0"
       width="1"
       height="1"
       id="mask156"><g
         id="g182"><g
           clip-path="url(#clipPath118)"
           id="g180"
           style="opacity:0.5"><g
             id="g178"><g
               id="g158" /><g
               id="g176"><g
                 clip-path="url(#clipPath122)"
                 id="g174"><g
                   id="g172"><g
                     clip-path="url(#clipPath126)"
                     id="g170"><g
                       id="g168"><g
                         id="g160" /><g
                         mask="url(#mask136)"
                         id="g166"><g
                           id="g164"><path
                             d="M 78.977,40 C 78.977,11.107 68.877,1 40,1 11.123,1 1.023,11.107 1.023,40 1.023,68.894 11.123,79 40,79 68.877,79 78.977,68.894 78.977,40"
                             style="fill:url(#linearGradient154);stroke:none"
                             id="path162"
                             inkscape:connector-curvature="0" /></g></g></g></g></g></g></g></g></g></g></mask><clipPath
       clipPathUnits="userSpaceOnUse"
       id="clipPath190"><path
         d="M 1.02344,79 H 78.9766 V 1 H 1.02344 Z"
         id="path188"
         inkscape:connector-curvature="0" /></clipPath><clipPath
       clipPathUnits="userSpaceOnUse"
       id="clipPath194"><path
         d="M 78.977,40 C 78.977,11.107 68.877,1 40,1 11.123,1 1.023,11.107 1.023,40 1.023,68.894 11.123,79 40,79 68.877,79 78.977,68.894 78.977,40"
         id="path192"
         inkscape:connector-curvature="0" /></clipPath><linearGradient
       x1="0"
       y1="0"
       x2="1"
       y2="0"
       gradientUnits="userSpaceOnUse"
       gradientTransform="matrix(0,-53.61993,-53.61993,0,40.000019,74.818184)"
       spreadMethod="pad"
       id="linearGradient200"><stop
         style="stop-opacity:1;stop-color:#ffffff"
         offset="0"
         id="stop196" /><stop
         style="stop-opacity:1;stop-color:#000000"
         offset="1"
         id="stop198" /></linearGradient><clipPath
       clipPathUnits="userSpaceOnUse"
       id="clipPath222"><path
         d="M 1,79 H 79 V 1 H 1 Z"
         id="path220"
         inkscape:connector-curvature="0" /></clipPath><clipPath
       clipPathUnits="userSpaceOnUse"
       id="clipPath226"><path
         d="M 1,79 H 79 V 1 H 1 Z"
         id="path224"
         inkscape:connector-curvature="0" /></clipPath><clipPath
       clipPathUnits="userSpaceOnUse"
       id="clipPath230"><path
         d="M -24534,24614 H 8232 V -8152 h -32766 z"
         id="path228"
         inkscape:connector-curvature="0" /></clipPath><clipPath
       clipPathUnits="userSpaceOnUse"
       id="clipPath234"><path
         d="M -24534,24614 H 8232 V -8152 h -32766 z"
         id="path232"
         inkscape:connector-curvature="0" /></clipPath><mask
       maskUnits="userSpaceOnUse"
       x="0"
       y="0"
       width="1"
       height="1"
       id="mask236"><g
         id="g248"><g
           clip-path="url(#clipPath230)"
           id="g246"><g
             id="g244"><g
               id="g238" /><g
               id="g242"><g
                 clip-path="url(#clipPath234)"
                 id="g240" /></g></g></g></g></mask><clipPath
       clipPathUnits="userSpaceOnUse"
       id="clipPath252"><path
         d="M 1,79 H 79 V 1 H 1 Z"
         id="path250"
         inkscape:connector-curvature="0" /></clipPath><clipPath
       clipPathUnits="userSpaceOnUse"
       id="clipPath256"><path
         d="M 39.999,1.975 C 11.57,1.975 1.976,11.57 1.976,40 c 0,28.429 9.594,38.024 38.023,38.024 28.43,0 38.024,-9.595 38.024,-38.024 0,-28.43 -9.594,-38.025 -38.024,-38.025 m 0,77.025 C 11.105,79 1,68.894 1,40 1,11.107 11.105,1 39.999,1 68.896,1 79,11.107 79,40 79,68.894 68.896,79 39.999,79"
         id="path254"
         inkscape:connector-curvature="0" /></clipPath><linearGradient
       x1="0"
       y1="0"
       x2="1"
       y2="0"
       gradientUnits="userSpaceOnUse"
       gradientTransform="matrix(0,-77.263527,-77.263527,0,40,78.75293)"
       spreadMethod="pad"
       id="linearGradient262"><stop
         style="stop-opacity:1;stop-color:#ffffff"
         offset="0"
         id="stop258" /><stop
         style="stop-opacity:1;stop-color:#231815"
         offset="1"
         id="stop260" /></linearGradient><mask
       maskUnits="userSpaceOnUse"
       x="0"
       y="0"
       width="1"
       height="1"
       id="mask264"><g
         id="g298"><g
           clip-path="url(#clipPath222)"
           id="g296"
           style="opacity:0.25"><g
             id="g294"><g
               id="g266" /><g
               id="g292"><g
                 clip-path="url(#clipPath226)"
                 id="g290"><g
                   id="g288"><g
                     id="g268" /><g
                     mask="url(#mask236)"
                     id="g286"><g
                       id="g270" /><g
                       id="g284"><g
                         clip-path="url(#clipPath252)"
                         id="g282"><g
                           id="g280"><g
                             clip-path="url(#clipPath256)"
                             id="g278"><g
                               id="g276"><g
                                 id="g274"><path
                                   d="M 39.999,1.975 C 11.57,1.975 1.976,11.57 1.976,40 c 0,28.429 9.594,38.024 38.023,38.024 28.43,0 38.024,-9.595 38.024,-38.024 0,-28.43 -9.594,-38.025 -38.024,-38.025 m 0,77.025 C 11.105,79 1,68.894 1,40 1,11.107 11.105,1 39.999,1 68.896,1 79,11.107 79,40 79,68.894 68.896,79 39.999,79"
                                   style="fill:url(#linearGradient262);stroke:none"
                                   id="path272"
                                   inkscape:connector-curvature="0" /></g></g></g></g></g></g></g></g></g></g></g></g></g></mask><clipPath
       clipPathUnits="userSpaceOnUse"
       id="clipPath306"><path
         d="M 1,79 H 79 V 1 H 1 Z"
         id="path304"
         inkscape:connector-curvature="0" /></clipPath><clipPath
       clipPathUnits="userSpaceOnUse"
       id="clipPath310"><path
         d="M 39.999,1.975 C 11.57,1.975 1.976,11.57 1.976,40 c 0,28.429 9.594,38.024 38.023,38.024 28.43,0 38.024,-9.595 38.024,-38.024 0,-28.43 -9.594,-38.025 -38.024,-38.025 m 0,77.025 C 11.105,79 1,68.894 1,40 1,11.107 11.105,1 39.999,1 68.896,1 79,11.107 79,40 79,68.894 68.896,79 39.999,79"
         id="path308"
         inkscape:connector-curvature="0" /></clipPath><linearGradient
       x1="0"
       y1="0"
       x2="1"
       y2="0"
       gradientUnits="userSpaceOnUse"
       gradientTransform="matrix(0,-77.263527,-77.263527,0,40,78.753128)"
       spreadMethod="pad"
       id="linearGradient316"><stop
         style="stop-opacity:1;stop-color:#ffffff"
         offset="0"
         id="stop312" /><stop
         style="stop-opacity:1;stop-color:#ffffff"
         offset="1"
         id="stop314" /></linearGradient></defs><sodipodi:namedview
     pagecolor="#ffffff"
     bordercolor="#666666"
     borderopacity="1"
     objecttolerance="10"
     gridtolerance="10"
     guidetolerance="10"
     inkscape:pageopacity="0"
     inkscape:pageshadow="2"
     inkscape:window-width="1366"
     inkscape:window-height="704"
     id="namedview4"
     showgrid="false"
     inkscape:zoom="2.2124999"
     inkscape:cx="53.333336"
     inkscape:cy="53.333336"
     inkscape:window-x="0"
     inkscape:window-y="27"
     inkscape:window-maximized="1"
     inkscape:current-layer="g10" /><g
     id="g10"
     inkscape:groupmode="layer"
     inkscape:label="shazam"
     transform="matrix(1.3333333,0,0,-1.3333333,0,106.66667)"><g
       id="g12"
       transform="matrix(0.97115387,0,0,0.97115387,1.2788461,1.2788448)"><g
         id="g14"
         clip-path="url(#clipPath18)"><g
           id="g20"
           transform="translate(79,40)"><path
             d="m 0,0 c 0,-28.893 -10.105,-39 -39,-39 -28.895,0 -39,10.107 -39,39 0,28.894 10.105,39 39,39 C -10.105,39 0,28.894 0,0"
             style="fill:#0088ff;fill-opacity:1;fill-rule:nonzero;stroke:none"
             id="path22"
             inkscape:connector-curvature="0" /></g></g></g><g
       id="g24"
       transform="matrix(0.97115387,0,0,0.97115387,1.2788461,1.2788448)"><g
         id="g26"
         clip-path="url(#clipPath30)"><path
           d="M 80,0 H 0 v 80 h 80 z"
           style="fill:#0088ff;fill-opacity:1;fill-rule:nonzero;stroke:none"
           id="path32"
           inkscape:connector-curvature="0" /></g></g><g
       id="g34"
       transform="matrix(0.97115387,0,0,0.97115387,1.2788461,1.2788448)"><g
         id="g36"
         clip-path="url(#clipPath40)"><g
           id="g42"><g
             id="g44" /><g
             id="g72"
             mask="url(#mask60)"><g
               id="g74"><path
                 d="M 22.333,49.667 20.952,29.38 48.938,1.394 C 68.316,3.233 76.839,11.822 78.626,31.28 v 0 L 59.548,50.359 52.612,52.007 39.286,65.333 Z"
                 style="fill:url(#linearGradient84);stroke:none"
                 id="path86"
                 inkscape:connector-curvature="0" /></g></g></g></g></g><g
       id="g88"
       transform="matrix(0.97115387,0,0,0.97115387,1.2788461,1.2788448)"><g
         id="g90"
         clip-path="url(#clipPath94)"><g
           id="g96"
           transform="translate(35.3228,50.3589)"><path
             d="m 0,0 -5.561,-5.561 c -1.824,-1.824 -1.824,-4.782 0,-6.606 1.825,-1.825 4.783,-1.825 6.607,0 l 5.505,5.505 c 3.041,3.041 7.971,3.041 11.012,0 3.041,-3.041 3.041,-7.97 0,-11.011 L 5.891,-29.345 c -1.825,-1.824 -1.825,-4.782 0,-6.607 1.824,-1.824 4.782,-1.824 6.607,0 l 11.727,11.727 c 6.69,6.689 6.69,17.536 0,24.225 C 17.536,6.689 6.689,6.689 0,0"
             style="fill:#ffffff;fill-opacity:1;fill-rule:nonzero;stroke:none"
             id="path98"
             inkscape:connector-curvature="0" /></g><g
           id="g100"
           transform="translate(45.1768,29.3809)"><path
             d="m 0,0 5.561,5.562 c 1.824,1.824 1.824,4.781 0,6.606 -1.825,1.824 -4.783,1.824 -6.607,0 L -6.552,6.662 c -3.04,-3.04 -7.97,-3.04 -11.011,0 -3.041,3.041 -3.041,7.971 0,11.011 l 11.672,11.672 c 1.825,1.825 1.825,4.783 0,6.607 -1.824,1.824 -4.782,1.824 -6.607,0 L -24.225,24.225 C -30.914,17.536 -30.914,6.689 -24.225,0 -17.535,-6.689 -6.689,-6.689 0,0"
             style="fill:#ffffff;fill-opacity:1;fill-rule:nonzero;stroke:none"
             id="path102"
             inkscape:connector-curvature="0" /></g></g></g><g
       id="g104"
       transform="matrix(0.97115387,0,0,0.97115387,1.2788461,1.2788448)"><g
         id="g106"
         clip-path="url(#clipPath110)"><g
           id="g112"><g
             id="g114" /><g
             id="g184"
             mask="url(#mask156)"><g
               id="g186" /><g
               id="g214"><g
                 clip-path="url(#clipPath190)"
                 id="g212"
                 style="opacity:0.5"><g
                   id="g210"><g
                     clip-path="url(#clipPath194)"
                     id="g208"><g
                       id="g206"><g
                         id="g204"><path
                           d="M 78.977,40 C 78.977,11.107 68.877,1 40,1 11.123,1 1.023,11.107 1.023,40 1.023,68.894 11.123,79 40,79 68.877,79 78.977,68.894 78.977,40"
                           style="fill:url(#linearGradient200);stroke:none"
                           id="path202"
                           inkscape:connector-curvature="0" /></g></g></g></g></g></g></g></g><g
           id="g216"><g
             id="g218" /><g
             id="g300"
             mask="url(#mask264)"><g
               id="g302" /><g
               id="g330"><g
                 clip-path="url(#clipPath306)"
                 id="g328"
                 style="opacity:0.25"><g
                   id="g326"><g
                     clip-path="url(#clipPath310)"
                     id="g324"><g
                       id="g322"><g
                         id="g320"><path
                           d="M 39.999,1.975 C 11.57,1.975 1.976,11.57 1.976,40 c 0,28.429 9.594,38.024 38.023,38.024 28.43,0 38.024,-9.595 38.024,-38.024 0,-28.43 -9.594,-38.025 -38.024,-38.025 m 0,77.025 C 11.105,79 1,68.894 1,40 1,11.107 11.105,1 39.999,1 68.896,1 79,11.107 79,40 79,68.894 68.896,79 39.999,79"
                           style="fill:url(#linearGradient316);stroke:none"
                           id="path318"
                           inkscape:connector-curvature="0" /></g></g></g></g></g></g></g></g></g></g></g></svg>