<?xml version="1.0" encoding="utf-8"?>
<!-- Generator: Adobe Illustrator 22.0.1, SVG Export Plug-In . SVG Version: 6.00 Build 0)  -->
<svg version="1.1" id="图层_1" xmlns="http://www.w3.org/2000/svg" xmlns:xlink="http://www.w3.org/1999/xlink" x="0px" y="0px"
	 viewBox="0 0 192 192" style="enable-background:new 0 0 192 192;" xml:space="preserve">
<style type="text/css">
	.st0{fill:none;}
	.st1{opacity:1.000000e-02;enable-background:new    ;}
	.st2{opacity:2.000000e-02;enable-background:new    ;}
	.st3{opacity:4.000000e-02;enable-background:new    ;}
	.st4{opacity:6.000000e-02;enable-background:new    ;}
	.st5{fill:#0092FF;}
	.st6{fill:url(#SVGID_1_);}
	.st7{fill:url(#SVGID_2_);}
	.st8{fill:url(#SVGID_3_);}
	.st9{fill:#72EA13;}
	.st10{fill:#3BB9FF;}
	.st11{fill:#FF9003;}
	.st12{fill:url(#SVGID_4_);}
	.st13{fill:#FFFFFF;}
	.st14{fill:url(#SVGID_5_);}
	.st15{fill:url(#SVGID_6_);}
</style>
<title>tencent_qqlive</title>
<g id="图层_2_1_">
	<g id="图层_2-2">
		<rect class="st0" width="192" height="192"/>
		<path class="st1" d="M96,190c-68.7,0-93-24.3-93-93S27.3,4,96,4s93,24.3,93,93S164.7,190,96,190z"/>
		<path class="st2" d="M96,189c-67.9,0-92-24.1-92-92S28.1,5,96,5s92,24.1,92,92S163.9,189,96,189z"/>
		<path class="st3" d="M96,188c-67.2,0-91-23.8-91-91S28.8,6,96,6s91,23.8,91,91S163.2,188,96,188z"/>
		<path class="st4" d="M186,97c0,66.7-23.3,90-90,90S6,163.7,6,97S29.3,7,96,7S186,30.3,186,97z"/>
		<path class="st5" d="M186,96c0,66.7-23.3,90-90,90S6,162.7,6,96S29.3,6,96,6S186,29.3,186,96z"/>
		
			<linearGradient id="SVGID_1_" gradientUnits="userSpaceOnUse" x1="166.0041" y1="25.9978" x2="25.9978" y2="166.0041" gradientTransform="matrix(1 0 0 -1 0 192)">
			<stop  offset="0" style="stop-color:#000000;stop-opacity:0.1"/>
			<stop  offset="0.5" style="stop-color:#808080;stop-opacity:5.000000e-02"/>
			<stop  offset="1" style="stop-color:#FFFFFF;stop-opacity:0.12"/>
		</linearGradient>
		<path class="st6" d="M186,96c0,66.7-23.3,90-90,90S6,162.7,6,96S29.3,6,96,6S186,29.3,186,96z"/>
		
			<linearGradient id="SVGID_2_" gradientUnits="userSpaceOnUse" x1="166.0022" y1="25.9959" x2="25.9941" y2="166.0041" gradientTransform="matrix(1 0 0 -1 0 192)">
			<stop  offset="0" style="stop-color:#000000;stop-opacity:5.000000e-02"/>
			<stop  offset="0.5" style="stop-color:#808080;stop-opacity:0"/>
			<stop  offset="1" style="stop-color:#FFFFFF;stop-opacity:0.1"/>
		</linearGradient>
		<path class="st7" d="M96,6C29.3,6,6,29.3,6,96s23.3,90,90,90s90-23.3,90-90S162.7,6,96,6z M164.6,164.6C151.2,178,130,184,96,184
			s-55.2-6-68.6-19.4S8,130,8,96s6-55.2,19.4-68.6S62,8,96,8s55.2,6,68.6,19.4S184,62,184,96S178,151.2,164.6,164.6z"/>
		
			<linearGradient id="SVGID_3_" gradientUnits="userSpaceOnUse" x1="161.2843" y1="21.2456" x2="85.265" y2="97.265" gradientTransform="matrix(1 0 0 -1 0 192)">
			<stop  offset="0" style="stop-color:#000000;stop-opacity:2.000000e-02"/>
			<stop  offset="1" style="stop-color:#000000;stop-opacity:0.14"/>
		</linearGradient>
		<path class="st8" d="M47.2,132.8l53.1,53.2c55.6-0.9,79.6-19.3,84.6-67.8l-37.4-37.4L47.2,132.8z"/>
		<path class="st9" d="M60.4,56c-2.7,10.3-3.6,25.9-4.1,40.8c-0.6,14.6,0.4,29.1,3.8,38.9c24-1.6,71.9-31.4,71.9-41.5
			S84.9,58.5,60.4,56z"/>
		<path class="st10" d="M67.4,44.4c-3.2,1.2-5.4,5.4-7,11.6C84.9,58.5,132,84.2,132,94.2s-47.9,40-71.9,41.5
			c1.8,5.3,4.3,9.2,7.6,11.1c19.7,11.3,88.3-38,88.3-53.2S87.8,36.9,67.4,44.4z"/>
		<path class="st11" d="M60.1,135.7c-3.4-9.8-4.4-24.3-3.8-38.9c0.6-15,1.5-30.5,4.1-40.8c3,0.3-4.9-0.9-9.3,0.6
			C42.5,59.4,40.1,77.9,40,96c-0.1,17,0.5,34.4,9.3,38.5c2.4,1.1,7.8,1.4,11.5,1.1L60.1,135.7z"/>
		
			<linearGradient id="SVGID_4_" gradientUnits="userSpaceOnUse" x1="106.94" y1="70.71" x2="85.2" y2="92.45" gradientTransform="matrix(1 0 0 -1 0 192)">
			<stop  offset="0" style="stop-color:#000000;stop-opacity:4.000000e-02"/>
			<stop  offset="1" style="stop-color:#000000;stop-opacity:0.16"/>
		</linearGradient>
		<path class="st12" d="M105.2,92l-33.8,21.3L86.1,128c12.3-5.5,23.9-12.4,34.7-20.5L105.2,92z"/>
		<path class="st13" d="M74.3,114.5c-2.1,0-3.9-1.7-4-3.8c-0.2-4.2-0.2-8.7,0-13.3c0.3-6.7,0.5-12,0.8-16.6c0.2-2.2,2.1-3.9,4.3-3.7
			c0.4,0,0.8,0.1,1.2,0.3c9.7,3.9,19,8.6,27.9,14c1.9,1.2,2.5,3.6,1.3,5.5c-0.3,0.5-0.6,0.8-1.1,1.2c-4.8,3.4-9.7,6.4-14.9,9.3
			c-4.8,2.7-9.5,5-14,6.9C75.3,114.4,74.8,114.5,74.3,114.5z"/>
		
			<linearGradient id="SVGID_5_" gradientUnits="userSpaceOnUse" x1="117.6156" y1="54.6672" x2="88.1614" y2="84.1214" gradientTransform="matrix(1 0 0 -1 0 192)">
			<stop  offset="0" style="stop-color:#000000;stop-opacity:4.000000e-02"/>
			<stop  offset="1" style="stop-color:#000000;stop-opacity:0.16"/>
		</linearGradient>
		<path class="st14" d="M147.6,107.3l-19.3-19.3c2.3,2.4,3.6,4.5,3.6,6.2c0,10-47.4,39.7-71.5,41.5l-0.3,0.2c1.8,5.2,4.3,9.1,7.6,11
			C83.2,155.7,128.7,127.3,147.6,107.3z"/>
		
			<linearGradient id="SVGID_6_" gradientUnits="userSpaceOnUse" x1="127.77" y1="104.51" x2="127.7" y2="104.58" gradientTransform="matrix(1 0 0 -1 0 192)">
			<stop  offset="0" style="stop-color:#000000;stop-opacity:4.000000e-02"/>
			<stop  offset="1" style="stop-color:#000000;stop-opacity:0.16"/>
		</linearGradient>
		<path class="st15" d="M127.8,87.5L127.8,87.5L127.8,87.5L127.8,87.5z"/>
	</g>
</g>
</svg>
