<?xml version="1.0" encoding="utf-8"?>
<!-- Generator: Adobe Illustrator 21.1.0, SVG Export Plug-In . SVG Version: 6.00 Build 0)  -->
<svg version="1.1" id="图层_1" xmlns="http://www.w3.org/2000/svg" xmlns:xlink="http://www.w3.org/1999/xlink" x="0px" y="0px"
	 viewBox="0 0 192 192" style="enable-background:new 0 0 192 192;" xml:space="preserve">
<style type="text/css">
	.st0{fill:none;}
	.st1{opacity:1.000000e-02;enable-background:new    ;}
	.st2{opacity:2.000000e-02;enable-background:new    ;}
	.st3{opacity:4.000000e-02;enable-background:new    ;}
	.st4{opacity:6.000000e-02;enable-background:new    ;}
	.st5{fill:#F4B913;}
	.st6{fill:url(#SVGID_1_);}
	.st7{fill:url(#SVGID_2_);}
	.st8{fill:url(#SVGID_3_);}
	.st9{fill:#F5F5F5;}
	.st10{fill:url(#SVGID_4_);}
	.st11{opacity:5.000000e-02;}
	.st12{opacity:0.4;}
	.st13{fill:#FFFFFF;}
	.st14{fill:url(#SVGID_5_);}
	.st15{fill:#FFCE41;}
	.st16{fill:url(#SVGID_6_);}
</style>
<title>google_keep</title>
<g id="图层_2">
	<g id="图层_2-2">
		<rect class="st0" width="192" height="192"/>
		<path class="st1" d="M96,190c-68.7,0-93-24.3-93-93S27.3,4,96,4s93,24.3,93,93S164.7,190,96,190z"/>
		<path class="st2" d="M96,189c-67.9,0-92-24.1-92-92S28.1,5,96,5s92,24.1,92,92S163.9,189,96,189z"/>
		<path class="st3" d="M96,188c-67.2,0-91-23.8-91-91S28.8,6,96,6s91,23.8,91,91S163.2,188,96,188z"/>
		<path class="st4" d="M186,97c0,66.7-23.3,90-90,90S6,163.7,6,97S29.3,7,96,7S186,30.3,186,97z"/>
		<path class="st5" d="M186,96c0,66.7-23.3,90-90,90S6,162.7,6,96S29.3,6,96,6S186,29.3,186,96z"/>
		
			<linearGradient id="SVGID_1_" gradientUnits="userSpaceOnUse" x1="166.0041" y1="25.9978" x2="25.9978" y2="166.0041" gradientTransform="matrix(1 0 0 -1 0 192)">
			<stop  offset="0" style="stop-color:#000000;stop-opacity:0.1"/>
			<stop  offset="0.5" style="stop-color:#808080;stop-opacity:5.000000e-02"/>
			<stop  offset="1" style="stop-color:#FFFFFF;stop-opacity:0.12"/>
		</linearGradient>
		<path class="st6" d="M186,96c0,66.7-23.3,90-90,90S6,162.7,6,96S29.3,6,96,6S186,29.3,186,96z"/>
		
			<linearGradient id="SVGID_2_" gradientUnits="userSpaceOnUse" x1="-616.61" y1="96.61" x2="-495.9969" y2="-24.0031" gradientTransform="matrix(-1 0 0 1 -470 50)">
			<stop  offset="0" style="stop-color:#000000;stop-opacity:4.000000e-02"/>
			<stop  offset="0.24" style="stop-color:#000000;stop-opacity:0"/>
		</linearGradient>
		<path class="st7" d="M96,186c4,0,7.8-0.1,11.5-0.3l78.3-78.3c0.2-3.6,0.3-7.5,0.3-11.5c0-66.7-23.3-90-90-90S6,29.3,6,96
			S29.3,186,96,186z"/>
		
			<linearGradient id="SVGID_3_" gradientUnits="userSpaceOnUse" x1="147.8728" y1="46.6372" x2="89.2572" y2="105.2628" gradientTransform="matrix(1 0 0 -1 0 192)">
			<stop  offset="0" style="stop-color:#000000;stop-opacity:2.000000e-02"/>
			<stop  offset="1" style="stop-color:#000000;stop-opacity:0.16"/>
		</linearGradient>
		<polygon class="st8" points="121.8,54.2 180.5,112.8 115.3,178 86.7,149.3 86,147.9 81.6,143.4 87,138 81.7,132.5 85.2,129 
			81.6,125.4 		"/>
		<path class="st9" d="M111.9,116.5L111,124c0,1.1-0.9,2-2,2H83c-1.1,0-2-0.9-2-2l-0.9-7.5C61,107.7,52.7,85.1,61.5,66.1
			s31.4-27.4,50.4-18.6s27.4,31.4,18.6,50.4C126.7,106.1,120.1,112.7,111.9,116.5z M109,129H83c-1.1,0-2,0.9-2,2s0.9,2,2,2h26
			c1.1,0,2-0.9,2-2S110.1,129,109,129z M109,136H83c-1.1,0-2,0.9-2,2v4c0,1.1,0.9,2,2,2h3v4c0,1.1,0.9,2,2,2h16c1.1,0,2-0.9,2-2v-4
			h3c1.1,0,2-0.9,2-2v-4C111,136.9,110.1,136,109,136z"/>
		<path class="st5" d="M91.8,116c-1,0-1.8-0.6-2-1.6c-0.7-3.1-2.7-5.7-5.6-7c-14-6.5-20.2-23.1-13.7-37.2
			c6.5-14,23.1-20.2,37.2-13.7s20.2,23.1,13.7,37.2c-2.8,6-7.6,10.9-13.7,13.7c-2.9,1.3-4.9,3.9-5.6,7c-0.2,0.9-1,1.6-2,1.6H91.8z"
			/>
		
			<linearGradient id="SVGID_4_" gradientUnits="userSpaceOnUse" x1="115.759" y1="90.2009" x2="76.1556" y2="129.8043" gradientTransform="matrix(1 0 0 -1 0 192)">
			<stop  offset="0" style="stop-color:#000000;stop-opacity:2.000000e-02"/>
			<stop  offset="1" style="stop-color:#000000;stop-opacity:8.000000e-02"/>
		</linearGradient>
		<path class="st10" d="M91.8,116c-1,0-1.8-0.6-2-1.6c-0.7-3.1-2.7-5.7-5.6-7c-14-6.5-20.2-23.1-13.7-37.2
			c6.5-14,23.1-20.2,37.2-13.7s20.2,23.1,13.7,37.2c-2.8,6-7.6,10.9-13.7,13.7c-2.9,1.3-4.9,3.9-5.6,7c-0.2,0.9-1,1.6-2,1.6H91.8z"
			/>
		<g class="st11">
			<path d="M85,142h-3c-0.4,0-0.7-0.1-1-0.3v0.3c0,1.1,0.9,2,2,2h2V142z"/>
			<path d="M68,82c0-15.5,12.6-28,28-28c10.2,0,19.6,5.5,24.5,14.5C114.4,54.3,98,47.7,83.8,53.8S62.9,76.3,69,90.5
				c0.4,1,0.9,2,1.5,3C68.9,89.9,68,86,68,82z"/>
			<path d="M89.6,113.6c-0.3-0.9-0.7-1.8-1.2-2.6c0.2,0.4,0.3,0.9,0.4,1.4C88.9,112.9,89.2,113.3,89.6,113.6z"/>
			<path d="M79.1,114.5c-7.5-3.5-13.7-9.4-17.6-16.7c3.7,8,10,14.4,17.8,18.3L79.1,114.5z"/>
			<path d="M110,136.3v3.7c0,1.1-0.9,2-2,2h-3v4c0,1.1-0.9,2-2,2H87c-0.4,0-0.7-0.1-1-0.3v0.3c0,1.1,0.9,2,2,2h16c1.1,0,2-0.9,2-2
				v-4h3c1.1,0,2-0.9,2-2v-4C111,137.3,110.6,136.6,110,136.3z"/>
			<path d="M129.4,63.9c8.9,19,0.6,41.6-18.4,50.5c0,0-0.1,0-0.1,0.1L110,122c0,1.1-0.9,2-2,2H82c-0.4,0-0.7-0.1-1-0.3v0.3
				c0,1.1,0.9,2,2,2h26c1.1,0,2-0.9,2-2l0.9-7.5c19.1-8.8,27.4-31.4,18.6-50.4C130.2,65.3,129.8,64.6,129.4,63.9L129.4,63.9z"/>
			<path d="M110,129.3c-0.1,1-1,1.7-2,1.7H82c-0.4,0-0.7-0.1-1-0.3c0,0.1,0,0.2,0,0.3c0,1.1,0.9,2,2,2h26c1.1,0,2-0.9,2-2
				C111,130.3,110.6,129.6,110,129.3z"/>
		</g>
		<g class="st12">
			<path class="st13" d="M125,84c0-4.7-1.2-9.4-3.5-13.5c1.6,3.6,2.5,7.5,2.5,11.5c0,10.9-6.4,20.8-16.3,25.4
				c-2.9,1.3-4.9,3.9-5.6,7c-0.2,0.9-1,1.6-2,1.6h-8.4c-0.4,0-0.8-0.1-1.2-0.4c0.1,0.3,0.2,0.5,0.2,0.8c0.2,0.9,1,1.6,2,1.6h8.4
				c1,0,1.8-0.6,2-1.6c0.7-3.1,2.7-5.7,5.6-7C118.7,104.8,125,94.9,125,84z"/>
			<path class="st13" d="M82,125.7l-0.9-7.2c-0.3-0.1-0.5-0.3-0.8-0.4L81,124C81,124.7,81.4,125.3,82,125.7z"/>
			<path class="st13" d="M85.3,109.4c1.7,0.8,3.2,2.1,4.2,3.6c-0.9-2.5-2.8-4.5-5.2-5.6c-5.4-2.5-9.9-6.7-12.8-11.9
				C74.3,101.6,79.1,106.6,85.3,109.4z"/>
			<path class="st13" d="M59,84c0-21,17-38,38-38c14,0,26.8,7.7,33.5,20C121.7,46.9,99.1,38.5,80,47.3S52.6,78.6,61.4,97.7
				c0.3,0.7,0.7,1.4,1,2.1C60.2,94.8,59,89.4,59,84z"/>
			<path class="st13" d="M87,146h-1v2c0,0.7,0.4,1.4,1,1.7V146z"/>
			<path class="st13" d="M82,132.7c0.1-1,1-1.7,2-1.7h26c0.4,0,0.7,0.1,1,0.3c0-0.1,0-0.2,0-0.3c0-1.1-0.9-2-2-2H83
				c-1.1,0-2,0.9-2,2C81,131.7,81.4,132.4,82,132.7z"/>
			<path class="st13" d="M82,140c0-1.1,0.9-2,2-2h26c0.4,0,0.7,0.1,1,0.3V138c0-1.1-0.9-2-2-2H83c-1.1,0-2,0.9-2,2v4
				c0,0.7,0.4,1.4,1,1.7V140z"/>
		</g>
		<g class="st11">
			<path d="M69,84c0-15.5,12.6-28,28-28c10.2,0,19.6,5.5,24.5,14.5C115.4,56.3,99,49.7,84.8,55.8S63.9,78.3,70,92.5
				c0.4,1,0.9,2,1.5,3C69.9,91.9,69,88,69,84z"/>
			<path d="M89.4,113.1c0.2,0.4,0.3,0.9,0.4,1.4c0.1,0.5,0.4,0.9,0.8,1.2C90.3,114.7,90,113.9,89.4,113.1z"/>
		</g>
		
			<linearGradient id="SVGID_5_" gradientUnits="userSpaceOnUse" x1="262.0537" y1="128.1138" x2="242.5749" y2="108.6249" gradientTransform="matrix(1 0 0 1 -96 38)">
			<stop  offset="0.5" style="stop-color:#000000;stop-opacity:0.1"/>
			<stop  offset="1" style="stop-color:#000000;stop-opacity:0.2"/>
		</linearGradient>
		<path class="st14" d="M185.8,107.4l-78.5,78.5C161.8,183.4,183.3,161.8,185.8,107.4z"/>
		<path class="st15" d="M107.3,185.9l78.5-78.5C131.5,109.9,109.8,131.4,107.3,185.9z"/>
		
			<linearGradient id="SVGID_6_" gradientUnits="userSpaceOnUse" x1="166.0022" y1="25.9959" x2="25.9941" y2="166.0041" gradientTransform="matrix(1 0 0 -1 0 192)">
			<stop  offset="0" style="stop-color:#000000;stop-opacity:5.000000e-02"/>
			<stop  offset="0.5" style="stop-color:#808080;stop-opacity:0"/>
			<stop  offset="1" style="stop-color:#FFFFFF;stop-opacity:0.1"/>
		</linearGradient>
		<path class="st16" d="M96,6C29.3,6,6,29.3,6,96s23.3,90,90,90s90-23.3,90-90S162.7,6,96,6z M164.6,164.6C151.2,178,130,184,96,184
			s-55.2-6-68.6-19.4S8,130,8,96s6-55.2,19.4-68.6S62,8,96,8s55.2,6,68.6,19.4S184,62,184,96S178,151.2,164.6,164.6z"/>
	</g>
</g>
</svg>
