<svg xmlns="http://www.w3.org/2000/svg" xmlns:xlink="http://www.w3.org/1999/xlink" viewBox="0 0 192 192"><defs><style>.cls-1{fill:none;}.cls-2{opacity:0.01;}.cls-16,.cls-2,.cls-3,.cls-4,.cls-5{isolation:isolate;}.cls-3{opacity:0.02;}.cls-4{opacity:0.04;}.cls-5{opacity:0.06;}.cls-6{fill:#f5f5f5;}.cls-7{fill:url(#未命名的渐变);}.cls-8{fill:url(#未命名的渐变_2);}.cls-9{fill:url(#未命名的渐变_3);}.cls-10{fill:url(#未命名的渐变_4);}.cls-11{fill:#3896f9;}.cls-12{fill:#2eb95e;}.cls-13{fill:#fdc00c;}.cls-14{fill:#ec5042;}.cls-15{fill:url(#未命名的渐变_5);}.cls-16{fill:#fff;opacity:0.2;}</style><linearGradient id="未命名的渐变" x1="110.4" y1="71.06" x2="47.29" y2="180.36" gradientTransform="matrix(1, 0, 0, -1, 0, 192)" gradientUnits="userSpaceOnUse"><stop offset="0" stop-opacity="0.05"/><stop offset="0.16" stop-opacity="0"/></linearGradient><linearGradient id="未命名的渐变_2" x1="166" y1="26" x2="26" y2="166" gradientTransform="matrix(1, 0, 0, -1, 0, 192)" gradientUnits="userSpaceOnUse"><stop offset="0" stop-opacity="0.1"/><stop offset="0.5" stop-color="gray" stop-opacity="0.05"/><stop offset="1" stop-color="#fff" stop-opacity="0.12"/></linearGradient><linearGradient id="未命名的渐变_3" x1="141.4" y1="9.73" x2="106.55" y2="70.09" gradientTransform="matrix(1, 0, 0, -1, 0, 192)" gradientUnits="userSpaceOnUse"><stop offset="0" stop-color="#fff" stop-opacity="0.25"/><stop offset="1" stop-color="#fff" stop-opacity="0.4"/></linearGradient><linearGradient id="未命名的渐变_4" x1="166" y1="26" x2="25.99" y2="166" gradientTransform="matrix(1, 0, 0, -1, 0, 192)" gradientUnits="userSpaceOnUse"><stop offset="0" stop-opacity="0.05"/><stop offset="0.5" stop-color="gray" stop-opacity="0"/><stop offset="1" stop-color="#fff" stop-opacity="0.1"/></linearGradient><linearGradient id="未命名的渐变_5" x1="104.9" y1="67.89" x2="58.23" y2="148.7" gradientTransform="matrix(1, 0, 0, -1, 0, 192)" gradientUnits="userSpaceOnUse"><stop offset="0" stop-opacity="0.05"/><stop offset="0.05" stop-opacity="0"/></linearGradient></defs><title>google_play</title><g id="图层_2" data-name="图层 2"><g id="图层_1-2" data-name="图层 1"><rect class="cls-1" width="192" height="192"/><path class="cls-2" d="M96,190C27.34,190,3,165.66,3,97S27.34,4,96,4s93,24.34,93,93S164.66,190,96,190Z"/><path class="cls-3" d="M96,189C28.07,189,4,164.92,4,97S28.07,5,96,5s92,24.07,92,92S163.93,189,96,189Z"/><path class="cls-4" d="M96,188C28.81,188,5,164.19,5,97S28.81,6,96,6s91,23.81,91,91S163.19,188,96,188Z"/><path class="cls-5" d="M186,97c0,66.67-23.32,90-90,90S6,163.67,6,97,29.32,7,96,7,186,30.32,186,97Z"/><path class="cls-6" d="M186,96c0,66.67-23.32,90-90,90S6,162.67,6,96,29.32,6,96,6,186,29.32,186,96Z"/><path class="cls-7" d="M96,6C29.32,6,6,29.32,6,96c0,35.18,6.5,58.28,22.42,72.27L185.31,77.68C181,25,156.17,6,96,6Z"/><path class="cls-8" d="M186,96c0,66.67-23.32,90-90,90S6,162.67,6,96,29.32,6,96,6,186,29.32,186,96Z"/><path class="cls-9" d="M185.31,77.68,28.42,168.27C42.68,180.79,64.5,186,96,186c66.68,0,90-23.33,90-90C186,83.87,184.91,72.77,185.31,77.68Z"/><path class="cls-10" d="M96,6C29.32,6,6,29.32,6,96s23.32,90,90,90,90-23.33,90-90S162.68,6,96,6Zm68.59,158.59C151.17,178,130,184,96,184s-55.17-6-68.59-19.41S8,130,8,96s6-55.17,19.41-68.59S62,8,96,8s55.17,6,68.59,19.41S184,62,184,96,178,151.16,164.59,164.59Z"/><path class="cls-11" d="M103.63,96,60.12,42.9H60a4,4,0,0,0-4,4V152.34l2.76-1.59Z"/><path class="cls-12" d="M60.12,42.9,103.63,96l16-19.58L62,43.42A4,4,0,0,0,60.12,42.9Z"/><polygon class="cls-13" points="119.67 76.39 103.63 95.97 119.7 115.56 153.79 95.88 119.67 76.39"/><polygon class="cls-14" points="103.63 95.97 58.76 150.75 119.7 115.56 103.63 95.97"/><path class="cls-15" d="M119.67,76.39,62,43.42a4,4,0,0,0-1.87-.52H60a4,4,0,0,0-4,4V152.34l2.76-1.59,60.94-35.19,34.09-19.68Z"/><path class="cls-16" d="M57,48.89a4,4,0,0,1,4-4h.12a4,4,0,0,1,1.87.52l57.69,33L152.54,96.6l1.24-.72L119.67,76.39,62,43.42a4,4,0,0,0-1.87-.52H60a4,4,0,0,0-4,4V152.34l1-.58Z"/></g></g></svg>