<?xml version="1.0" encoding="UTF-8" standalone="no"?>
<svg
   xmlns:dc="http://purl.org/dc/elements/1.1/"
   xmlns:cc="http://creativecommons.org/ns#"
   xmlns:rdf="http://www.w3.org/1999/02/22-rdf-syntax-ns#"
   xmlns:svg="http://www.w3.org/2000/svg"
   xmlns="http://www.w3.org/2000/svg"
   xmlns:sodipodi="http://sodipodi.sourceforge.net/DTD/sodipodi-0.dtd"
   xmlns:inkscape="http://www.inkscape.org/namespaces/inkscape"
   viewBox="0 0 192 192"
   version="1.1"
   id="svg64"
   sodipodi:docname="apkd_launcher_com_aurora_store-com_aurora_store_activity_AuroraActivity.svg"
   inkscape:version="0.92.4 5da689c313, 2019-01-14">
  <metadata
     id="metadata68">
    <rdf:RDF>
      <cc:Work
         rdf:about="">
        <dc:format>image/svg+xml</dc:format>
        <dc:type
           rdf:resource="http://purl.org/dc/dcmitype/StillImage" />
      </cc:Work>
    </rdf:RDF>
  </metadata>
  <sodipodi:namedview
     pagecolor="#ffffff"
     bordercolor="#666666"
     borderopacity="1"
     objecttolerance="10"
     gridtolerance="10"
     guidetolerance="10"
     inkscape:pageopacity="0"
     inkscape:pageshadow="2"
     inkscape:window-width="1366"
     inkscape:window-height="704"
     id="namedview66"
     showgrid="false"
     inkscape:zoom="6.9532167"
     inkscape:cx="123.35504"
     inkscape:cy="58.214484"
     inkscape:window-x="0"
     inkscape:window-y="27"
     inkscape:window-maximized="1"
     inkscape:current-layer="图层_2-2" />
  <defs
     id="defs28">
    <style
       id="style2">.cls-1{fill:none;}.cls-2{opacity:0.01;}.cls-3{opacity:0.02;}.cls-4{opacity:0.04;}.cls-5{opacity:0.06;}.cls-6{fill:#0b4baa;}.cls-7{fill:url(#未命名的渐变_52);}.cls-8{fill:url(#未命名的渐变_46);}.cls-9{fill:url(#未命名的渐变_65);}.cls-10{fill:#fff;}.cls-11{opacity:0.8;fill:url(#未命名的渐变_57);}.cls-12{fill:#1a1a1a;opacity:0.25;}</style>
    <linearGradient
       id="未命名的渐变_52"
       x1="166"
       y1="166"
       x2="26"
       y2="26"
       gradientUnits="userSpaceOnUse">
      <stop
         offset="0"
         stop-opacity="0.1"
         id="stop4" />
      <stop
         offset="0.5"
         stop-color="gray"
         stop-opacity="0.05"
         id="stop6" />
      <stop
         offset="1"
         stop-color="#fff"
         stop-opacity="0.1"
         id="stop8" />
    </linearGradient>
    <linearGradient
       id="未命名的渐变_46"
       x1="166"
       y1="166"
       x2="26"
       y2="26"
       gradientUnits="userSpaceOnUse">
      <stop
         offset="0"
         stop-opacity="0.05"
         id="stop11" />
      <stop
         offset="0.5"
         stop-color="gray"
         stop-opacity="0"
         id="stop13" />
      <stop
         offset="1"
         stop-color="#fff"
         stop-opacity="0.1"
         id="stop15" />
    </linearGradient>
    <linearGradient
       id="未命名的渐变_65"
       x1="162.51"
       y1="169.49"
       x2="60.33"
       y2="67.3"
       gradientUnits="userSpaceOnUse">
      <stop
         offset="0"
         stop-opacity="0.06"
         id="stop18" />
      <stop
         offset="0.75"
         stop-opacity="0.18"
         id="stop20" />
    </linearGradient>
    <linearGradient
       id="未命名的渐变_57"
       x1="154.12"
       y1="121.15"
       x2="79.76"
       y2="46.79"
       gradientUnits="userSpaceOnUse">
      <stop
         offset="0"
         stop-opacity="0.04"
         id="stop23" />
      <stop
         offset="1"
         stop-opacity="0.1"
         id="stop25" />
    </linearGradient>
  </defs>
  <title
     id="title30">nokia_store</title>
  <g
     id="图层_2"
     data-name="图层 2">
    <g
       id="图层_2-2"
       data-name="图层 2">
      <rect
         class="cls-1"
         width="192"
         height="192"
         id="rect32"
         x="0"
         y="0"
         style="fill:none" />
      <path
         class="cls-2"
         d="M 96,190 C 27.34,190 3,165.66 3,97 3,28.34 27.34,4 96,4 c 68.66,0 93,24.34 93,93 0,68.66 -24.34,93 -93,93 z"
         id="path34"
         inkscape:connector-curvature="0"
         style="opacity:0.01000001" />
      <path
         class="cls-3"
         d="M 96,189 C 28.07,189 4,164.92 4,97 4,29.08 28.07,5 96,5 c 67.93,0 92,24.07 92,92 0,67.93 -24.07,92 -92,92 z"
         id="path36"
         inkscape:connector-curvature="0"
         style="opacity:0.02000002" />
      <path
         class="cls-4"
         d="M 96,188 C 28.81,188 5,164.19 5,97 5,29.81 28.81,6 96,6 c 67.19,0 91,23.81 91,91 0,67.19 -23.81,91 -91,91 z"
         id="path38"
         inkscape:connector-curvature="0"
         style="opacity:0.03999999" />
      <path
         class="cls-5"
         d="m 186,97 c 0,66.67 -23.32,90 -90,90 C 29.32,187 6,163.67 6,97 6,30.33 29.32,7 96,7 c 66.68,0 90,23.32 90,90 z"
         id="path40"
         inkscape:connector-curvature="0"
         style="opacity:0.06000001" />
      <path
         class="cls-6"
         d="m 186,96 c 0,66.67 -23.32,90 -90,90 C 29.32,186 6,162.67 6,96 6,29.33 29.32,6 96,6 c 66.68,0 90,23.32 90,90 z"
         id="path42"
         inkscape:connector-curvature="0"
         style="fill:#0b4baa" />
      <path
         class="cls-7"
         d="m 186,96 c 0,66.67 -23.32,90 -90,90 C 29.32,186 6,162.67 6,96 6,29.33 29.32,6 96,6 c 66.68,0 90,23.32 90,90 z"
         id="path44"
         inkscape:connector-curvature="0" />
      <path
         class="cls-8"
         d="M 96,6 C 29.32,6 6,29.32 6,96 c 0,66.68 23.32,90 90,90 66.68,0 90,-23.33 90,-90 C 186,29.33 162.68,6 96,6 Z m 68.59,158.59 C 151.17,178 130,184 96,184 62,184 40.83,178 27.41,164.59 13.99,151.18 8,130 8,96 8,62 14,40.83 27.41,27.41 40.82,13.99 62,8 96,8 130,8 151.17,14 164.59,27.41 178.01,40.82 184,62 184,96 c 0,34 -6,55.16 -19.41,68.59 z"
         id="path46"
         inkscape:connector-curvature="0" />
      <path
         class="cls-9"
         d="M 185.58,110.48 135.12,60 126.04,59.5 106.83,40.31 92.83,38.06 81,46.65 71.32,67 54.16,143.21 96.94,186 c 60.91,-0.21 85.27,-20.2 88.64,-75.52 z"
         id="path48"
         inkscape:connector-curvature="0" />
      <polygon
         class="cls-10"
         points="137.47,143.21 54.54,143.21 56.66,59.52 135.35,59.52 "
         id="polygon50"
         style="fill:#ffffff" />
      <path
         class="cls-11"
         d="M 135.59,69.07 126,59.52 h -6.43 a 53.7,53.7 0 0 0 -7.53,-14 l -3.21,-3.21 -13.9,-5.31 -11.8,6.44 -9.66,15 -3.79,11.83 67.65,67.65 z M 75.43,59.52 a 52.11,52.11 0 0 1 2.9,-6 C 82.18,46.85 87.79,38.91 96,38.84 c 8.18,0.09 13.8,8 17.63,14.69 a 51.76,51.76 0 0 1 2.91,6 z"
         id="path54"
         inkscape:connector-curvature="0"
         style="opacity:0.8" />
      <path
         class="cls-12"
         d="m 72.88,69.84 a 2.13,2.13 0 1 1 -2.13,-2.14 2.14,2.14 0 0 1 2.13,2.14 z"
         id="path56"
         inkscape:connector-curvature="0"
         style="opacity:0.25;fill:#1a1a1a" />
      <path
         class="cls-12"
         d="m 123.45,69.84 a 2.13,2.13 0 1 1 -2.13,-2.14 2.14,2.14 0 0 1 2.13,2.14 z"
         id="path58"
         inkscape:connector-curvature="0"
         style="opacity:0.25;fill:#1a1a1a" />
      <path
         class="cls-10"
         d="M 122.59,68.92 C 115.55,42 102.9,36 96,36 89.4,36 76.52,41.66 69.38,69 a 1.44,1.44 0 0 0 2.78,0.73 66.2,66.2 0 0 1 6.2,-16.12 c 3.82,-6.76 9.43,-14.7 17.64,-14.77 8.18,0.09 13.8,8 17.63,14.69 a 66.07,66.07 0 0 1 6.2,16.12 1.44,1.44 0 0 0 2.76,-0.73 z"
         id="path60"
         inkscape:connector-curvature="0"
         style="fill:#ffffff" />
    </g>
  </g>
</svg>
