<?xml version="1.0" encoding="utf-8"?>
<!-- Generator: Adobe Illustrator 17.1.0, SVG Export Plug-In . SVG Version: 6.00 Build 0)  -->
<!DOCTYPE svg PUBLIC "-//W3C//DTD SVG 1.1//EN" "http://www.w3.org/Graphics/SVG/1.1/DTD/svg11.dtd">
<svg version="1.1" id="图层_1" xmlns="http://www.w3.org/2000/svg" xmlns:xlink="http://www.w3.org/1999/xlink" x="0px" y="0px"
	 width="96px" height="96px" viewBox="0 0 96 96" enable-background="new 0 0 96 96" xml:space="preserve">
<g>
	<path fill-opacity="0.4" d="M8,49c0,29.635,10.361,40,40,40c29.632,0,40-10.365,40-40C88,19.367,77.632,9,48,9
		C18.363,9,8,19.367,8,49z"/>
	<g>
		
			<linearGradient id="SVGID_1_" gradientUnits="userSpaceOnUse" x1="48" y1="9" x2="48" y2="89" gradientTransform="matrix(1 0 0 -1 0 97)">
			<stop  offset="0" style="stop-color:#009BE6"/>
			<stop  offset="0.371" style="stop-color:#00AFF0"/>
			<stop  offset="1" style="stop-color:#14C8FF"/>
		</linearGradient>
		<path fill="url(#SVGID_1_)" d="M8,48c0,29.635,10.361,40,40,40c29.632,0,40-10.365,40-40C88,18.367,77.632,8,48,8
			C18.363,8,8,18.367,8,48z"/>
	</g>
	<g>
		
			<linearGradient id="SVGID_2_" gradientUnits="userSpaceOnUse" x1="287.3202" y1="1295.9199" x2="287.3202" y2="1215.9199" gradientTransform="matrix(1 0 0 1 -239.3202 -1207.9199)">
			<stop  offset="0" style="stop-color:#0078FF;stop-opacity:0.2"/>
			<stop  offset="0.0615" style="stop-color:#0D83FF;stop-opacity:0.2123"/>
			<stop  offset="0.3885" style="stop-color:#4BB8FF;stop-opacity:0.2777"/>
			<stop  offset="0.6651" style="stop-color:#79DEFF;stop-opacity:0.333"/>
			<stop  offset="0.8774" style="stop-color:#95F6FF;stop-opacity:0.3755"/>
			<stop  offset="1" style="stop-color:#A0FFFF;stop-opacity:0.4"/>
		</linearGradient>
		<path fill="url(#SVGID_2_)" d="M8,48c0,29.635,10.361,40,40,40c29.632,0,40-10.365,40-40C88,18.367,77.632,8,48,8
			C18.363,8,8,18.367,8,48z"/>
	</g>
	<rect fill="none" width="96" height="96"/>
	
		<linearGradient id="SVGID_3_" gradientUnits="userSpaceOnUse" x1="1698.6014" y1="4145.5996" x2="1698.6014" y2="4225.5996" gradientTransform="matrix(1 0 0 1 -1650.6014 -4137.5996)">
		<stop  offset="0" style="stop-color:#FFFFFF"/>
		<stop  offset="0.1183" style="stop-color:#FFFFFF"/>
		<stop  offset="0.2089" style="stop-color:#F6F6F6;stop-opacity:0.9486"/>
		<stop  offset="0.3583" style="stop-color:#DDDDDD;stop-opacity:0.8639"/>
		<stop  offset="0.548" style="stop-color:#B4B4B4;stop-opacity:0.7563"/>
		<stop  offset="0.7706" style="stop-color:#7C7C7C;stop-opacity:0.6301"/>
		<stop  offset="1" style="stop-color:#3A3A3A;stop-opacity:0.5"/>
	</linearGradient>
	<path fill="url(#SVGID_3_)" fill-opacity="0.25" d="M48,8C18.365,8,8,18.365,8,48c0,29.633,10.365,40,40,40
		c29.637,0,40-10.367,40-40C88,18.365,77.637,8,48,8z M48,87.023C18.842,87.023,9,77.176,9,48S18.842,8.977,48,8.977
		S87,18.824,87,48S77.158,87.023,48,87.023z"/>
	<path fill-opacity="0.02" d="M58.901,77.309c-2.384,0-4.774-0.528-6.936-1.529c-1.238,0.257-2.521,0.516-3.965,0.516
		c-14.365,0-26.052-11.796-26.052-26.295c0-1.295,0.1-2.611,0.296-3.915c-1.016-2.174-1.552-4.582-1.552-6.983
		c0-9.049,7.361-16.41,16.41-16.41c2.377,0,4.777,0.539,6.962,1.562c1.267-0.193,2.588-0.292,3.936-0.292
		C62.359,23.962,74.04,35.643,74.04,50c0,1.341-0.099,2.663-0.292,3.934c1.021,2.183,1.561,4.584,1.561,6.966
		C75.309,69.947,67.948,77.309,58.901,77.309z M52.979,50.844c3.706,1.406,4.017,4.524,4.017,5.516c0,1.41-0.505,2.827-1.495,3.998
		c0.085-0.064,0.167-0.13,0.247-0.197c1.265-1.065,1.933-2.542,1.932-4.271C57.679,53.215,56.266,51.683,52.979,50.844z
		 M39.591,58.43c0.218,0.446,0.609,0.972,1.214,1.486c-0.355-0.394-0.653-0.774-0.914-1.109
		C39.779,58.664,39.679,58.538,39.591,58.43z M40.453,40.878c-0.588,0.833-0.932,1.845-0.932,3.044c0,1.499,0,3.345,4.086,4.546
		c-1.842-0.86-3.673-2.38-3.673-5.126C39.934,42.516,40.104,41.672,40.453,40.878z"/>
	<path fill-opacity="0.04" d="M58.901,76.309c-2.354,0-4.7-0.544-6.81-1.577l-0.235,0.049c-1.218,0.253-2.479,0.515-3.855,0.515
		c-13.813,0-25.052-11.348-25.052-25.295c0-1.348,0.112-2.714,0.332-4.067c-1.04-2.114-1.588-4.468-1.588-6.831
		c0-8.497,6.913-15.41,15.41-15.41c2.337,0,4.685,0.552,6.812,1.598c1.308-0.218,2.681-0.328,4.086-0.328
		C61.808,24.962,73.04,36.194,73.04,50c0,1.397-0.11,2.77-0.329,4.085c1.046,2.124,1.598,4.472,1.598,6.814
		C74.309,69.396,67.396,76.309,58.901,76.309z M39.182,56.982c-0.369,0-0.809,0.117-0.809,0.675c0,1.93,3.011,5.534,10.264,5.534
		c3.313,0,5.995-0.784,7.754-2.267c1.497-1.262,2.288-3.002,2.287-5.035c0-3.305-1.932-5.263-6.079-6.162l-5.582-1.217
		c-1.667-0.372-6.084-1.356-6.084-5.167c0-2.634,2.101-5.47,6.713-5.47c4.57,0,6.39,2.113,7.595,3.512
		c0.759,0.881,0.904,0.97,1.197,0.97c0.272,0,1.052-0.102,1.052-0.552c0-2.089-4.783-4.995-9.491-4.995
		c-4.718,0-9.479,2.2-9.479,7.115c0,2.195,0.431,4.445,5.582,5.715l7.519,1.834c3.947,0.955,4.374,3.736,4.374,4.888
		c0,2.866-2.527,5.769-7.358,5.769c-4.885,0-6.734-2.369-7.958-3.937C39.816,57.087,39.637,56.982,39.182,56.982z"/>
	<path fill-opacity="0.06" d="M58.901,75.309c-2.321,0-4.619-0.562-6.669-1.626c-0.191,0.038-0.384,0.078-0.578,0.118
		c-1.171,0.243-2.382,0.494-3.653,0.494c-13.262,0-24.052-10.898-24.052-24.295c0-1.401,0.125-2.821,0.373-4.225
		c-1.067-2.051-1.629-4.35-1.629-6.673c0-7.946,6.464-14.41,14.41-14.41c2.297,0,4.59,0.566,6.656,1.64
		c1.349-0.246,2.773-0.37,4.242-0.37C61.256,25.962,72.04,36.745,72.04,50c0,1.459-0.125,2.884-0.371,4.241
		c1.073,2.062,1.64,4.355,1.64,6.658C73.309,68.845,66.846,75.309,58.901,75.309z M39.182,55.982c-1.082,0-1.809,0.673-1.809,1.675
		c0,2.635,3.58,6.534,11.264,6.534c3.551,0,6.457-0.865,8.399-2.502c1.73-1.458,2.644-3.463,2.643-5.8
		c0-3.803-2.246-6.138-6.867-7.139l-5.581-1.217c-1.588-0.354-5.297-1.181-5.297-4.19c0-2.225,1.767-4.47,5.713-4.47
		c4.111,0,5.687,1.829,6.837,3.165c0.767,0.89,1.17,1.317,1.955,1.317c0.988,0,2.052-0.486,2.052-1.552
		c0-2.857-5.491-5.995-10.491-5.995c-5.216,0-10.479,2.509-10.479,8.115c0,2.66,0.769,5.312,6.342,6.686l7.521,1.835
		c3.142,0.76,3.611,2.779,3.611,3.916c0,2.37-2.184,4.769-6.358,4.769c-4.396,0-6-2.053-7.17-3.552
		C40.627,56.5,40.179,55.982,39.182,55.982z"/>
	<path fill-opacity="0.08" d="M70.62,54.402c0.282-1.418,0.42-2.893,0.42-4.402c0-12.722-10.317-23.038-23.039-23.038
		c-1.514,0-2.985,0.135-4.402,0.419c-1.932-1.067-4.146-1.689-6.496-1.689c-7.414,0-13.41,6.01-13.41,13.41
		c0,2.363,0.608,4.578,1.676,6.51c-0.271,1.416-0.42,2.888-0.42,4.388c0,12.734,10.316,23.295,23.052,23.295
		c1.497,0,2.972-0.393,4.39-0.662c1.93,1.067,4.146,1.676,6.51,1.676c7.398,0,13.408-5.996,13.408-13.41
		C72.309,58.549,71.688,56.332,70.62,54.402z M48.637,65.191c-8.469,0-12.264-4.471-12.264-7.534c0-1.566,1.175-2.675,2.809-2.675
		c3.619,0,2.688,5.146,9.455,5.146c3.454,0,5.358-1.877,5.358-3.769c0-1.135-0.565-2.392-2.849-2.944l-7.522-1.836
		c-6.076-1.498-7.103-4.631-7.103-7.656c0-6.279,5.82-9.115,11.479-9.115c5.212,0,11.491,3.227,11.491,6.995
		c0,1.606-1.418,2.552-3.052,2.552c-3.092,0-2.565-4.482-8.792-4.482c-3.093,0-4.713,1.512-4.713,3.47s2.391,2.741,4.51,3.213
		l5.579,1.217c6.104,1.323,7.656,4.821,7.656,8.116C60.682,60.992,56.695,65.191,48.637,65.191z"/>
	
		<linearGradient id="SVGID_4_" gradientUnits="userSpaceOnUse" x1="287.3202" y1="1280.2289" x2="287.3202" y2="1231.6119" gradientTransform="matrix(1 0 0 1 -239.3202 -1207.9199)">
		<stop  offset="0" style="stop-color:#E7E7E7"/>
		<stop  offset="1" style="stop-color:#FFFFFF"/>
	</linearGradient>
	<path fill="url(#SVGID_4_)" d="M70.619,52.402c0.282-1.418,0.42-2.893,0.42-4.402c0-12.722-10.317-23.038-23.039-23.038
		c-1.514,0-2.985,0.135-4.402,0.419c-1.932-1.067-4.146-1.689-6.496-1.689c-7.414,0-13.41,6.01-13.41,13.41
		c0,2.363,0.608,4.578,1.676,6.51c-0.271,1.416-0.42,2.888-0.42,4.388c0,12.734,10.316,23.295,23.052,23.295
		c1.497,0,2.972-0.393,4.39-0.662c1.93,1.067,4.146,1.676,6.51,1.676c7.398,0,13.408-5.996,13.408-13.41
		C72.308,56.549,71.687,54.332,70.619,52.402z M48.636,63.191c-8.469,0-12.264-4.471-12.264-7.534c0-1.566,1.175-2.675,2.809-2.675
		c3.619,0,2.688,5.146,9.455,5.146c3.454,0,5.358-1.877,5.358-3.769c0-1.135-0.565-2.392-2.849-2.944l-7.522-1.836
		c-6.076-1.498-7.103-4.631-7.103-7.656c0-6.279,5.82-9.115,11.479-9.115c5.212,0,11.491,3.227,11.491,6.995
		c0,1.606-1.418,2.552-3.052,2.552c-3.092,0-2.565-4.482-8.792-4.482c-3.093,0-4.713,1.512-4.713,3.47s2.391,2.741,4.51,3.213
		l5.579,1.217c6.104,1.323,7.656,4.821,7.656,8.116C60.681,58.992,56.694,63.191,48.636,63.191z"/>
	<path fill-opacity="0.05" d="M25.369,41.612c-0.905-1.637-1.475-3.478-1.629-5.438c-0.021,0.308-0.047,0.615-0.047,0.928
		c0,2.188,0.526,4.245,1.451,6.072C25.209,42.649,25.271,42.123,25.369,41.612z"/>
	<path fill-opacity="0.05" d="M58.901,70.309c-2.364,0-4.58-0.609-6.51-1.676c-1.418,0.269-2.893,0.662-4.39,0.662
		c-12.312,0-22.36-9.87-23.016-22.031c-0.008,0.246-0.036,0.488-0.036,0.736c0,12.734,10.316,23.295,23.052,23.295
		c1.497,0,2.972-0.393,4.39-0.662c1.93,1.067,4.146,1.676,6.51,1.676c7.398,0,13.408-5.996,13.408-13.41
		c0-0.358-0.019-0.712-0.047-1.063C71.779,64.81,65.983,70.309,58.901,70.309z"/>
	<path fill-opacity="0.05" d="M71.005,46.749c-0.039,1.246-0.15,2.472-0.385,3.653c0.08,0.144,0.152,0.294,0.227,0.441
		c0.115-0.932,0.193-1.877,0.193-2.843C71.04,47.58,71.027,47.163,71.005,46.749z"/>
	<path fill-opacity="0.05" d="M25.375,41.605c-0.904-1.636-1.474-3.477-1.629-5.438c-0.021,0.308-0.047,0.615-0.047,0.928
		c0,2.188,0.527,4.246,1.451,6.072C25.215,42.643,25.277,42.117,25.375,41.605z"/>
	<path fill-opacity="0.05" d="M71.012,46.745c-0.037,1.247-0.148,2.472-0.385,3.651c0.08,0.146,0.152,0.295,0.229,0.442
		c0.113-0.933,0.191-1.877,0.191-2.845C71.047,47.575,71.034,47.159,71.012,46.745z"/>
	<g>
		
			<linearGradient id="SVGID_5_" gradientUnits="userSpaceOnUse" x1="290.5407" y1="1251.2689" x2="290.5407" y2="1245.7869" gradientTransform="matrix(1 0 0 1 -239.3202 -1207.9199)">
			<stop  offset="0" style="stop-color:#FFFFFF"/>
			<stop  offset="1" style="stop-color:#FBFBFB"/>
		</linearGradient>
		<path fill="url(#SVGID_5_)" d="M56.448,42.349c-3.093,0-2.566-4.482-8.792-4.482c-3.093,0-4.713,1.512-4.713,3.47
			c0,0.146,0.038,0.271,0.063,0.404c0.303-1.659,1.881-2.874,4.649-2.874c6.226,0,5.699,4.482,8.792,4.482
			c1.633,0,3.051-0.945,3.051-2.552c0-0.176-0.027-0.349-0.055-0.522C59.191,41.586,57.91,42.349,56.448,42.349z"/>
		
			<linearGradient id="SVGID_6_" gradientUnits="userSpaceOnUse" x1="264.4857" y1="1256.5719" x2="264.4857" y2="1252.3069" gradientTransform="matrix(1 0 0 1 -239.3202 -1207.9199)">
			<stop  offset="0" style="stop-color:#FFFFFF"/>
			<stop  offset="1" style="stop-color:#FBFBFB"/>
		</linearGradient>
		<path fill="url(#SVGID_6_)" d="M25.263,44.387c-0.185,1.177-0.307,2.378-0.307,3.607c0,0.221,0.01,0.438,0.017,0.658
			c0.021-1.381,0.153-2.739,0.402-4.047C25.335,44.534,25.301,44.459,25.263,44.387z"/>
		
			<linearGradient id="SVGID_7_" gradientUnits="userSpaceOnUse" x1="284.5852" y1="1262.7209" x2="284.5852" y2="1250.4989" gradientTransform="matrix(1 0 0 1 -239.3202 -1207.9199)">
			<stop  offset="0" style="stop-color:#FFFFFF"/>
			<stop  offset="1" style="stop-color:#FBFBFB"/>
		</linearGradient>
		<path fill="url(#SVGID_7_)" d="M43.631,50.573l7.523,1.836c1.914,0.465,2.613,1.425,2.791,2.392
			c0.023-0.148,0.057-0.297,0.057-0.445c0-1.135-0.566-2.393-2.848-2.945l-7.523-1.836c-5.635-1.389-6.925-4.185-7.083-6.996
			c-0.004,0.115-0.02,0.223-0.02,0.34C36.528,45.942,37.555,49.075,43.631,50.573z"/>
		
			<linearGradient id="SVGID_8_" gradientUnits="userSpaceOnUse" x1="287.8552" y1="1272.1079" x2="287.8552" y2="1262.184" gradientTransform="matrix(1 0 0 1 -239.3202 -1207.9199)">
			<stop  offset="0" style="stop-color:#FFFFFF"/>
			<stop  offset="1" style="stop-color:#FBFBFB"/>
		</linearGradient>
		<path fill="url(#SVGID_8_)" d="M48.645,64.188c8.06,0,12.045-4.201,12.045-9.306c0-0.205-0.006-0.411-0.02-0.618
			c-0.195,4.93-4.17,8.924-12.025,8.924c-7.971,0-11.797-3.959-12.223-6.979c-0.022,0.146-0.042,0.289-0.042,0.442
			C36.38,59.716,40.175,64.188,48.645,64.188z"/>
		
			<linearGradient id="SVGID_9_" gradientUnits="userSpaceOnUse" x1="286.6927" y1="1256.267" x2="286.6927" y2="1231.606" gradientTransform="matrix(1 0 0 1 -239.3202 -1207.9199)">
			<stop  offset="0" style="stop-color:#FFFFFF"/>
			<stop  offset="1" style="stop-color:#FBFBFB"/>
		</linearGradient>
		<path fill="url(#SVGID_9_)" d="M37.109,24.686c2.35,0,4.564,0.622,6.496,1.689c1.417-0.284,2.889-0.419,4.402-0.419
			c12.505,0,22.679,9.969,23.022,22.391c0.002-0.119,0.017-0.233,0.017-0.353c0-12.722-10.317-23.038-23.039-23.038
			c-1.514,0-2.985,0.135-4.402,0.419c-1.932-1.067-4.146-1.689-6.496-1.689c-7.414,0-13.41,6.01-13.41,13.41
			c0,0.206,0.011,0.408,0.02,0.611C23.926,30.488,29.827,24.686,37.109,24.686z"/>
		
			<linearGradient id="SVGID_10_" gradientUnits="userSpaceOnUse" x1="310.7912" y1="1267.2069" x2="310.7912" y2="1260.5369" gradientTransform="matrix(1 0 0 1 -239.3202 -1207.9199)">
			<stop  offset="0" style="stop-color:#FFFFFF"/>
			<stop  offset="1" style="stop-color:#FBFBFB"/>
		</linearGradient>
		<path fill="url(#SVGID_10_)" d="M70.74,52.617c-0.041,0.259-0.063,0.523-0.113,0.779c0.975,1.763,1.57,3.767,1.668,5.891
			c0.004-0.133,0.02-0.262,0.02-0.395C72.314,56.631,71.734,54.495,70.74,52.617z"/>
	</g>
</g>
</svg>
